<?xml version="1.0" encoding="UTF-8"?>
<svg id="_圖層_2" data-name="圖層 2" xmlns="http://www.w3.org/2000/svg" width="279.38" height="16.83" viewBox="0 0 279.38 16.83">
  <defs>
    <style>
      .cls-1 {
        fill: #fff;
      }
    </style>
  </defs>
  <g id="fix_按鈕" data-name="fix 按鈕">
    <g>
      <path class="cls-1" d="M8.6,3.45c-.06.51-.14,1.06-.25,1.65h6.63v9.85c0,.82-.29,1.34-.87,1.55-.42.17-1.46.25-3.11.25-.13-.52-.33-1-.6-1.45.96.05,1.78.05,2.44.02.28,0,.42-.13.42-.38V6.65H2.53v10.11H.85V5.1h5.87l.2-1.65H0v-1.57h7.09c.05-.59.08-1.15.11-1.68l1.84.18c-.04.33-.1.83-.2,1.5h6.96v1.57h-7.19ZM8.64,13.4v2.96h-1.59v-2.96h-3.63v-1.36h3.63v-1.55h-3.25v-1.32h1.66c-.14-.61-.43-1.28-.85-2.01l1.32-.34c.42.68.73,1.36.94,2.06l-.96.29h2.96c.41-.96.7-1.77.87-2.4l1.52.34c-.46,1.06-.77,1.75-.92,2.06h1.72v1.32h-3.42v1.55h3.76v1.36h-3.76Z"/>
      <path class="cls-1" d="M29.3,9.56c-.72.23-1.31.4-1.75.51v4.74c0,.82-.24,1.33-.71,1.54-.4.2-1.25.31-2.57.31-.06-.46-.22-.96-.49-1.52.53.01,1.12.02,1.77.02.24-.01.36-.13.36-.36v-4.25l-2.1.58-.45-1.61c.69-.16,1.54-.37,2.55-.63v-3.58h-2.31v-1.55h2.31V.22h1.63v3.52h2.1v1.55h-2.1v3.15l1.54-.42.22,1.54ZM38.88,8.44c-.64,2.05-1.75,3.78-3.33,5.21,1.33.76,2.83,1.3,4.5,1.63-.33.33-.68.84-1.07,1.55-1.87-.46-3.49-1.16-4.86-2.11-1.4.9-3.1,1.61-5.1,2.11-.18-.58-.46-1.09-.83-1.54,1.75-.35,3.27-.9,4.57-1.66-1.12-1.05-2.04-2.33-2.77-3.85l.45-.16h-.9v-1.57h7.95l.29-.05,1.08.45ZM32.79,2.84c0,2.25-.94,3.87-2.82,4.86-.28-.46-.64-.87-1.08-1.23,1.55-.78,2.33-2.01,2.33-3.69V.83h5.95v4.05c0,.47.11.71.33.71h1.21c.37,0,.69-.04.94-.11.02.49.07.96.13,1.41-.21.07-.55.11-1.05.11h-1.36c-.71,0-1.19-.16-1.45-.49-.23-.3-.34-.85-.34-1.65v-2.48h-2.78v.45ZM31.63,9.62c.63,1.19,1.47,2.21,2.53,3.05,1.05-.87,1.88-1.89,2.49-3.05h-5.03Z"/>
      <path class="cls-1" d="M50,11.93c-.43,1.47-.97,2.75-1.61,3.83-.36-.27-.76-.49-1.19-.69.58-.89,1.07-2.05,1.46-3.47l1.34.33ZM52.17,10.9v5.75h-1.41v-5.75h-3.34v-1.34h.78V.81h6.38v8.75h.74v1.34h-3.15ZM49.57,2.06v1.12h3.58v-1.12h-3.58ZM53.15,4.27h-3.58v1.07h3.58v-1.07ZM49.57,7.39h3.58v-.99h-3.58v.99ZM49.57,9.56h3.58v-1.08h-3.58v1.08ZM53.85,11.5c.6,1.01,1.03,1.92,1.28,2.71l-1.17.54c-.24-.81-.65-1.73-1.23-2.77l1.12-.49ZM58.06,11.57c-.66,1.87-1.36,3.3-2.1,4.28-.39-.29-.77-.53-1.16-.72.77-1.04,1.37-2.34,1.81-3.92l1.45.36ZM61.91,1.25c-1.47.92-3.54,1.75-6.22,2.49-.11-.41-.28-.81-.52-1.19,2.54-.81,4.42-1.66,5.62-2.55l1.12,1.25ZM60.16,10.43v5.06c0,.58-.18.93-.54,1.07-.31.13-.94.2-1.88.2-.06-.28-.19-.64-.4-1.08h1.18c.14,0,.22-.07.22-.22v-4.94c-1.59.12-2.54.23-2.86.34-.17-.61-.31-1.06-.43-1.34.34-.05.9-.37,1.68-.96.64-.47,1.43-1.15,2.37-2.04-2,.14-3.17.28-3.51.42-.07-.41-.2-.84-.4-1.28.29-.05.64-.22,1.07-.51,1.08-.66,2.05-1.49,2.91-2.49l1.23.63c-.87.83-1.69,1.51-2.48,2.04l2.49-.13c.39-.41.8-.87,1.25-1.39l1.18.81c-1.54,1.7-3.2,3.23-4.97,4.59l3.51-.18c-.3-.57-.61-1.1-.92-1.59l1.14-.54c.89,1.33,1.55,2.51,1.97,3.56l-1.23.63c-.1-.28-.21-.55-.34-.83l-2.22.16ZM61.93,11.06c.95,1.76,1.58,3.04,1.9,3.83l-1.32.63c-.41-1.15-1.02-2.45-1.83-3.92l1.25-.54Z"/>
      <path class="cls-1" d="M71.13,15.96c1.06-.8,1.89-1.93,2.49-3.42l1.61.45c-.65,1.65-1.51,2.93-2.57,3.83l-1.54-.87ZM73.43,5.97c-.35.29-.68.54-.98.74-.36-.55-.77-.98-1.21-1.28,2.17-1.37,3.85-3.15,5.04-5.31l1.86.38c-.18.3-.36.58-.52.83h3.71l.25-.09,1.17.72c-.34.67-.84,1.45-1.5,2.31h4.52v7.66h-12.35v-5.97ZM75.05,7.43h3.58v-1.74h-3.58v1.74ZM75.05,10.52h3.58v-1.77h-3.58v1.77ZM76.65,2.66c-.39.51-.84,1.04-1.37,1.61h3.92c.45-.51.84-1.04,1.19-1.61h-3.74ZM78.24,12.94c.29,1.28.45,2.42.47,3.43l-1.72.2c0-1.07-.12-2.24-.36-3.51l1.61-.13ZM81.69,12.78c.64,1.3,1.07,2.43,1.3,3.38l-1.63.4c-.2-1-.61-2.14-1.21-3.43l1.54-.34ZM84.07,5.69h-3.81v1.74h3.81v-1.74ZM84.07,8.75h-3.81v1.77h3.81v-1.77ZM85.16,12.36c1.35,1.49,2.26,2.72,2.73,3.69l-1.65.74c-.52-1.11-1.39-2.37-2.62-3.78l1.54-.65Z"/>
      <path class="cls-1" d="M98.1,8.37c-.6-.42-1.62-1.02-3.05-1.79l.9-1.25c1.37.67,2.4,1.22,3.09,1.65l-.94,1.39ZM95.66,15.46c1.08-1.66,2.14-3.57,3.18-5.73l1.28,1.07c-.86,1.84-1.86,3.75-3,5.71l-1.46-1.05ZM99.24,3.52c-.69-.48-1.75-1.11-3.2-1.88l.96-1.21c1.41.67,2.48,1.25,3.2,1.73l-.96,1.36ZM108.8,15.13c.52,0,.87-.16,1.05-.49.16-.31.28-1,.36-2.06.47.31.98.52,1.52.63-.14,1.33-.39,2.22-.74,2.67-.4.49-1.1.74-2.1.74h-4.45c-1.17,0-1.95-.19-2.35-.56-.41-.37-.61-1.11-.61-2.22v-5.49l-1.59.61-.65-1.48,2.24-.89V2.11h1.57v3.87l2.31-.9V.27h1.5v4.21l3-1.17,1.25.42-.07.27c-.1,3.57-.3,6.28-.6,8.15l-1.41-.38c.18-1.35.31-3.53.38-6.54l-2.55.99v6.49h-1.5v-5.91l-2.31.92v6.15c0,.53.09.87.27,1.03.18.16.58.24,1.19.24h4.28Z"/>
      <path class="cls-1" d="M124.57,7.95c-.58,4.08-2.16,6.96-4.75,8.62-.19-.39-.49-.77-.89-1.14,1.72-.99,2.93-2.57,3.63-4.74-1.86.3-2.9.51-3.15.63-.11-.41-.27-.86-.47-1.36.29-.06.69-.44,1.19-1.14.31-.39.8-1.16,1.46-2.33-1.12.12-1.83.25-2.11.38-.19-.64-.36-1.11-.51-1.43.23-.05.5-.35.81-.9.71-1.2,1.27-2.58,1.66-4.12l1.57.38c-.54,1.53-1.24,3.01-2.1,4.43l1.41-.11c.43-.93.69-1.48.76-1.64l1.37.56c-1.05,2.15-2.16,3.99-3.34,5.53l1.79-.22c.11-.51.2-1.03.27-1.57l1.37.16ZM128.42,10.74c.84,1.87,1.4,3.44,1.66,4.7l-1.43.54c-.11-.57-.22-1.02-.33-1.36-2.36.8-3.67,1.28-3.92,1.46-.13-.48-.32-.87-.56-1.18.54-.23.81-.63.81-1.21V2.02h1.84c-.18-.36-.44-.8-.78-1.32l1.3-.49c.43.54.8,1.15,1.1,1.81h1.37v8.1h-3.38v3.8l1.81-.56c-.27-.78-.54-1.51-.83-2.17l1.32-.45ZM126.12,3.45v1.99h2.02v-1.99h-2.02ZM128.15,8.69v-1.9h-2.02v1.9h2.02ZM135.5,1.72c-.69,2.23-1.3,4.04-1.83,5.42,1.06,1.37,1.59,2.81,1.59,4.3,0,1.22-.25,2.02-.74,2.42-.29.2-.63.33-1.03.38-.31.04-.73.04-1.25.02,0-.59-.11-1.09-.34-1.5.24.02.57.04.99.04.24-.02.43-.09.56-.2.25-.17.38-.62.38-1.36,0-1.31-.53-2.63-1.59-3.94.4-1.07.87-2.65,1.43-4.72h-1.99v14.17h-1.41V1.1h3.92l.24-.07,1.07.69Z"/>
      <path class="cls-1" d="M158.35,3.36v8.64h-1.75v-.98h-4.7v5.75h-1.75v-5.75h-4.68v1.07h-1.68V3.36h6.36V.22h1.75v3.15h6.45ZM150.15,9.38v-4.38h-4.68v4.38h4.68ZM156.6,9.38v-4.38h-4.7v4.38h4.7Z"/>
      <path class="cls-1" d="M183.03,14.41v1.63h-16.18v-1.63h2.35V6.16h1.74v8.24h3.6V3.09h-7.03v-1.64h14.97v1.64h-6.16v4.43h5.39v1.63h-5.39v5.26h6.72Z"/>
      <path class="cls-1" d="M205.98,2.37c-.54,1.81-1.4,3.42-2.58,4.83,1.19,1.07,2.51,1.86,3.94,2.37-.4.37-.74.84-1.03,1.39l-.36-.14v5.88h-1.61v-.58h-4.03v.63h-1.54v-5.91c-.43.2-.7.33-.8.36-.1-.18-.25-.43-.47-.74v.02h-2.11v2.86l2.24-.52.16,1.48c-2.37.6-4.72,1.18-7.05,1.72l-.29-1.63c.28-.06.57-.12.87-.16v-6.09h1.37v5.8l1.19-.27v-7.05h-2.51V.92h5.97v4.63c1.42-1.39,2.46-3.17,3.13-5.35l1.63.4c-.17.49-.35.96-.54,1.39h3.07l.29-.07,1.07.45ZM192.84,5.15h2.95v-2.78h-2.95v2.78ZM197.51,9.73c1.42-.6,2.69-1.46,3.81-2.57-.48-.57-.96-1.26-1.43-2.08-.4.59-.86,1.16-1.39,1.7-.24-.27-.63-.6-1.16-.99v.81h-1.95v2.39h2.11v.74ZM204.85,10.23c-.87-.49-1.7-1.13-2.49-1.92-.76.75-1.59,1.39-2.49,1.92h4.99ZM204.34,14.66v-3h-4.03v3h4.03ZM200.89,3.42l-.16.33c.46.84.98,1.62,1.57,2.31.66-.81,1.2-1.69,1.61-2.64h-3.02Z"/>
      <path class="cls-1" d="M214.41,14.15c3.96-3.51,5.95-6.25,5.95-8.24,0-.75-.19-1.34-.58-1.77-.4-.45-.96-.67-1.68-.67-.89,0-1.77.49-2.62,1.48l-1.18-1.16c1.23-1.33,2.58-1.99,4.05-1.99,1.22,0,2.19.37,2.93,1.1.72.72,1.08,1.69,1.08,2.89,0,2.18-1.62,4.82-4.86,7.92.81-.08,1.53-.13,2.17-.13h3.33v1.77h-8.59v-1.21Z"/>
      <path class="cls-1" d="M230.19,13.83l.99-1.36c.95.95,1.99,1.43,3.11,1.43.77,0,1.4-.25,1.88-.76.51-.52.76-1.21.76-2.08s-.23-1.57-.69-2.06c-.46-.48-1.07-.72-1.84-.72-.64,0-1.35.25-2.13.76l-1.01-.67.4-6.31h6.74v1.75h-4.94l-.31,3.42c.6-.31,1.21-.47,1.83-.47,1.18,0,2.13.34,2.86,1.03.8.75,1.19,1.81,1.19,3.2s-.46,2.55-1.37,3.42c-.84.8-1.88,1.19-3.11,1.19-1.7,0-3.15-.59-4.36-1.77Z"/>
      <path class="cls-1" d="M246.3,13.77l1.01-1.34c.95.98,2,1.46,3.15,1.46.76,0,1.37-.2,1.83-.6.47-.4.71-.93.71-1.61,0-1.63-1.31-2.44-3.94-2.44v-1.54c2.33,0,3.49-.78,3.49-2.33,0-.59-.18-1.06-.54-1.41-.37-.34-.87-.51-1.5-.52-.93.01-1.81.43-2.66,1.27l-1.08-1.3c1.19-1.07,2.46-1.61,3.81-1.61,1.22,0,2.19.3,2.93.89.76.61,1.14,1.46,1.14,2.55,0,1.52-.77,2.56-2.3,3.13v.09c.81.2,1.46.58,1.95,1.14.53.6.8,1.33.8,2.19,0,1.17-.43,2.1-1.3,2.8-.83.67-1.88,1.01-3.15,1.01-1.81,0-3.25-.61-4.34-1.83Z"/>
      <path class="cls-1" d="M268.51,10.09l-.04.61c-.22,3.13-.53,4.91-.94,5.33-.25.3-.62.48-1.1.52-.42.06-1.03.06-1.83,0-.02-.52-.16-.98-.42-1.39.61.05,1.14.07,1.59.07.25,0,.44-.06.56-.18.29-.31.51-1.53.65-3.65h-3.58c.3-1.1.52-2.05.67-2.87h-1.46v-1.46h6.56v1.46h-3.67l-.33,1.55h3.33ZM268.78,5.82h-5.31V.92h5.31v4.9ZM267.48,2.15h-2.78v2.44h2.78v-2.44ZM276.94,8.51c.57,0,.95-.04,1.16-.11.02.45.06.86.11,1.23-.21.08-.61.13-1.21.13h-2.04c-.63,0-1.05-.16-1.28-.47-.21-.28-.31-.75-.31-1.43v-.27l-1.54.16-.16-1.17,1.7-.16v-1.36h-2.02v3.24c0,3.82-.6,6.66-1.79,8.51-.28-.31-.69-.61-1.23-.89,1.04-1.65,1.55-4.2,1.55-7.65V3.72h3.51V.2h1.59v1.12h3.54v1.36h-3.54v1.05h3.09l.25-.07,1.01.25c-.23,1.25-.47,2.33-.72,3.24l-1.25-.31c.12-.51.24-1.1.34-1.77h-2.91v1.21l2.04-.2.14,1.16-2.19.22v.45c0,.41.14.61.43.61h1.72ZM273.93,10.52c-.07,1.65-.26,2.9-.56,3.76-.37,1.1-1.02,1.94-1.95,2.53-.23-.48-.53-.85-.9-1.1.76-.47,1.29-1.16,1.59-2.06.24-.71.39-1.75.43-3.13h1.39ZM277.51,14.97c.22,0,.36-.03.42-.09.1-.07.16-.19.2-.34.05-.42.07-1.01.05-1.75.35.3.75.52,1.19.67-.02,1.05-.09,1.73-.2,2.04-.12.35-.31.6-.56.74-.27.14-.59.22-.98.22h-.98c-.51,0-.87-.12-1.1-.34-.23-.22-.34-.7-.34-1.45v-4.12h1.39v4.07c0,.13.04.22.11.27.08.06.2.09.34.09h.45Z"/>
    </g>
  </g>
</svg>