<?xml version="1.0" encoding="UTF-8"?>
<svg id="_圖層_2" data-name="圖層 2" xmlns="http://www.w3.org/2000/svg" width="18.01" height="16.6" viewBox="0 0 18.01 16.6">
  <defs>
    <style>
      .cls-1 {
        fill: #fff;
      }
    </style>
  </defs>
  <g id="icon">
    <path class="cls-1" d="M1.4,16.6c.2-.24.4-.49.58-.74,1.28-1.54,4.6-5.66,8.48-6.63.05,1.03.22,2.72.83,4.13.12-.15.24-.3.35-.45.91-1.09,3.51-4.32,6.36-4.16v-.89c-2.86.16-5.45-3.07-6.36-4.16-.11-.15-.23-.3-.34-.44-.62,1.4-.79,3.09-.84,4.12C6.58,6.39,3.26,2.27,1.97.73c-.18-.25-.37-.49-.57-.73C-.15,3.55,0,8.24,0,8.29c0,.08-.16,4.76,1.39,8.3Z"/>
  </g>
</svg>