<?xml version="1.0" encoding="UTF-8"?>
<svg id="_圖層_2" data-name="圖層 2" xmlns="http://www.w3.org/2000/svg" width="794.1" height="967.5" viewBox="0 0 794.1 967.5">
  <g id="icon">
    <g>
      <path d="m680.39,459.75c27.66-14.43,52.38-35.49,71.51-62.82,35.77-51.08,44.47-113.02,29.11-168.78l-209.76-146.88c-57.66,4.64-112.88,34-148.65,85.08-19.13,27.32-30.46,57.76-34.57,88.69-122.77-10.62-247.69,42.6-323.46,150.8-113.06,161.47-73.82,384.02,87.65,497.09,161.47,113.06,384.02,73.82,497.09-87.65,75.76-108.2,83.04-243.79,31.07-355.53Z" fill="#18933b"/>
      <path d="m750.89,337.26c-13.36,24.01-32.79,44.03-52.87,62.78-12.08,11.28-42.39,29.48-90.13,27.62-41.19-1.6-79.45-25.58-109.8-53.47-30.35-27.9-51.47-66.6-54.69-107.69-3.23-41.09,12.6-84.06,44.2-110.53,25.57-21.43,60.58-31.16,93.54-26.01,29.16,4.56,55.46,19.86,79.93,36.35,33.52,22.59,74.63,49.2,99.74,81.38,17.96,23.02,2.43,67.37-9.92,89.57Z" fill="#fff"/>
      <path d="m774.66,227.55c-55.59-4.48-114.85-49.53-114.85-49.53,0,0-64.92-41.76-87.06-93.77l-1.77-4.42s137.26-2.47,185.3-79.82l18.9,13.24,18.9,13.24c-56.25,71.6-11.63,201.43-11.63,201.43l-7.8-.35Z" fill="#231815"/>
      <path d="m413.61,645.38c.19.14.44.6.62,1.58.96.68,1.49.75,1.89.17l.38,3.14c.83.87,1.72,2.06,2.22,2.99.89,1.2,1.33,1.79,1.77,2.39.25.46.44.6.64.73-.54.77-.62,1.29-.04,1.7,1.35.95,2.18,1.81,2.87,2.87.44.6,1,1.85,1.81,3.57.06.33.5.93.81,1.72s.75,1.39,1,1.85c-.67.96-.75,1.48-.37,1.75l1.74,1.22c.23,1.31.02,2.03-.64,2.14-.65.12-1.25.56-1.93,1.52-.27.39-.02.85.75,1.39l2.16-.21c-.27.39-.02.85.75,1.39-.41.58-.69,1.81-.6,3.32.39.27.64.73.75,1.39.31.79.69,1.06,1.35.94-.4.58-.56,1.62-.19,2.74.5.93.62,1.58.35,1.97l1.35.95.23,7.06.81,7.46c.15,1.83.31,3.66.71,5.96-.21,3.59-1.97,6.09-5.26,7.52-.98.17-3.26-.27-6.44-1.06-.96-.68-3.43-1.25-7.15-1.27-1.23-.29-2.1.54-3.12,2.41-.4.58-.67.96-1.08,1.54-.08.52-.35.91-.29,1.23l-.41.58c-1.16-.81-2.31-1.62-3.53-2.76-1.79-1.54-3.01-2.68-3.57-3.93.68-.97.75-1.49.37-1.76-.96-.68-1.41-1.27-1.52-1.93-.27.39-.79.31-1.56-.23-2.22-5.86-4.61-9.83-6.84-11.97.68-.97.75-1.49.37-1.76l-1.31.23c-.39-.27-.64-.73-.62-1.58l-.35-1.96-1.16-.81c-.93-2.37-2.29-5.34-4.11-8.91-1.44-2.45-2.83-4.57-3.89-6.75-1.79-4.41-2.53-6.65-2.26-7.04-.27.39-.79.31-1.75-.36-.23-1.31-.79-2.57-1.35-3.82-.87-2.04-1.49-3.62-1.52-4.8l-1.12.37c-3.06-8.75-4.78-13.69-4.95-14.67l-1.35-.94c-.36-3.99-1.73-6.96-3.58-8.83-.39-.27-.56-1.25-.58-3.28.04-1.7-.46-2.62-1.5-2.78l-3.66-2.56c-.66.12-2.2,1.91-4.49,5.18l-.23,1.56c-.66.12-1.52.94-2.74,2.68-.69,1.81-1.99,4.07-4.01,6.96-1.89,2.7-3.05,4.76-3.47,6.19-.44,2.27-1.14,4.09-1.81,5.05-.23,1.56-1.25,3.43-2.74,5.55l-3.51,5.01c-.27.39-.02.85.75,1.39l-.98.17c.39.27.5.93.35,1.97l-.37,1.75-2.56,3.66c-1.21,1.73-1.83,3.03-1.99,4.07-.39-.27-.85-.02-1.52.94-.54.77-1,1.02-1.39.75.12.66-.1,1.37-.77,2.33-5.11,3.6-8.48,5.55-9.74,6.11l-1.21,1.73-.17-.98c-.66.12-1.37-.1-2.14-.64-.39-.27-1.04-.15-2.1.54-1.45.43-2.24.73-2.57.79l-5.01-.64c-1.04-.15-2.45-1.43-4.42-3.95-.66.12-1.17.04-1.56-.23-3.41-4.97-5.15-9.06-5.15-11.93.41-.58.48-1.1.5-1.95-.04-1.18-.02-2.02-.08-2.35-.12-.66-.04-1.18.23-1.56-.04-1.17.52-2.79,1.48-4.99.96-2.2,1.72-3.68,2.26-4.45l13.38-22.81c.13-.19.27-.39.67-.96.22-.71.56-1.62,1.51-2.97.56-1.62,1.37-2.78,2.12-4.26,2.8-5.23,4.84-8.96,6.32-11.08l1.74-1.66c.6-.44,1.14-1.21,1.81-2.18.4-.58.15-1.04-.62-1.58,1.19-.88,4.63-5.38,10.43-13.67l2.7-3.85.98-.18-.17-.98.98-.17c-.29-1.64-.6-2.43-.79-2.57-3.07-.13-7,.56-12.19,1.81-1.91.68-4.2,1.08-6.63,1.68-2.43.6-3.74.83-4.07.89l.17.98c-6.28.77-12.74,3.43-19.05,7.92-.27.39-.79.31-1.56-.23s-1.29-.62-1.56-.23l-.37,1.75c-.19-.14-1.23-.29-2.74-.19l-.81,1.15c-13.15,4.01-21.11,6.77-23.7,8.4-.41.58-1.06.7-2.43.6-1.18.04-2.16.21-3.22.91-1.99,1.19-4.09,1.74-6.63,1.68l-1.16-.81c-.39-.27-.85-.02-1.53.95-1.73-1.21-2.83-1.7-3.49-1.58l-.17-.98-.98.17-.98.18-.58-.41.41-.58.4-.58-.77-.54-.98.17-.98.18c-2.24-2.14-2.7-4.76-1.45-8.2-1.97.35-2.79-.52-2.54-2.93,1.52-3.82,4.65-9.1,9.64-16.23.77.54,1.29.62,1.56.23-.39-.27-.04-1.18,1.18-2.91.9.35,1.02,1,.81,1.72l13.61-4.26c.6-.44,1.85-1,3.3-1.43l4.15-1.41c1.91-.67,2.89-.85,3.22-.91l.81-1.16c2.02-.02,4.26-.75,6.9-2.06,2.64-1.31,4.88-2.04,6.9-2.06-.39-.27-.85-.02-1.39.75l.17.98c2.93.33,6.86-.36,11.93-2.27,5.13-1.58,8.35-2.49,9.66-2.72,1.31-.23,2.18-1.06,2.74-2.68l-.17-.98-3.14.38c1.37.1,2.68-.13,4.45-.62.66-.12,1.64-.29,2.62-.46,1.12-.37,2.1-.54,2.43-.6l.04,1.18c4.3-2.45,7.91-3.08,10.3-1.98.39.27.85.02,1.53-.95.15-1.04-1.47-1.6-5.19-1.62l-1.16-.81,1.45-.43.66-.12c-.46-2.62-1.76-3.24-4.07-1.98-.4.58-.15,1.04.81,1.72-.66.12-1.37-.1-2.33-.77l.98-.17c.29-1.24-1.25-2.32-4.82-3.38-.27.39-.02.85.95,1.52-2.51-1.75-4.32-2.45-5.63-2.22-.94,1.35-1.54,1.79-2.12,1.39-.77-.54-2.2-.96-4.28-1.28-.96-.68-2.24-2.14-4.21-4.66l-.98.17c-.12-.66-.81-1.72-1.89-3.05-1.14-1.66-1.75-3.24-1.93-4.22-.23-1.31-.75-1.39-1.56-.23l.98-.17-.58-3.28-1.16-.81-.41-2.29c-.06-.33.15-1.04.25-2.41l-1.35-.95.83-4.88c.65-.11,1.12-.36,1.39-.75l-.92-5.25c-.17-.98,1.21-1.73,3.91-2.72,2.37-.93,8.12-.93,17.04-.13.98-.18,2.1-.54,2.89-.85,1.12-.37,2.29-.4,3.14-.38l2.3-.41,1.35.94c12.07.41,22.59,2.61,31.96,6.87-.27.39-.6.44-.98.17l-.96-.67-.77-.54-.41.58c-.27.39.75,1.39,3.07,3.01,4.22.95,9.27,2.76,15.42,5.05,5.24,1.95,10.1,3.62,14.58,5.03-.12-.65.37-1.75,1.77-3.35l.94-1.35c.6-.45.87-.83,1.2-.89l.41-.58,1.96-.34c-.39-.27-.31-.79.37-1.76.13-.19.73-.64,1.46-1.27.73-.64,1.53-.95,1.85-1,.96.68,1.49.75,1.76.37l-.17-.98c-.58-.41-.44-.6.21-.71,1.64-.29,3.35-1.1,5.61-2.68,1.93-1.52,3.97-2.39,6.07-2.93,1.91-.67,3.59.21,5.17,2.47l.98-.17.21,2.16c.77.54,1.29.62,1.7.04l.4,2.3c1.93,1.35,2.85,3.72,2.84,7.44.08,2.35-1.22,4.61-3.74,6.57l.17.98c-1.98,1.2-3.31,2.27-3.72,2.85s.04,1.18,1.19,1.99l-.81,1.15c-.54.77-.62,1.29-.23,1.56-.39-.27-.85-.02-1.53.95.23,1.31.73,2.23,1.7,2.91,2.93.33,4.61,1.22,5.22,2.8l1.97-.35c.5.93,2.68,2.74,6.34,5.3,1.74,1.22,4.96,3.18,10.05,6.17,5.22,2.8,8.89,5.36,10.8,7.56,1.19,1.99,2.08,3.18,2.85,3.72l.85.02.71.21c2.28,3.31,4.95,6.05,7.85,8.08l2.16-.21c.19.14.83.87,1.72,2.06.69,1.06,1.41,1.27,2.52.91.12.66.42,1.45,1.12,2.51.56,1.25,1.06,2.18,1.18,2.83l2.51,1.75c.77.54,1.66,1.74,2.47,3.45,1.06,2.18,1.95,3.37,2.33,3.64,2.08,6.06,3.29,10.07,3.58,11.7.29,1.64.54,4.98.5,9.54-.25,2.41-.74,3.51-1.58,3.49-.27.39-.6.44-.98.17s-.71-.21-.98.17c-2.74,5.55-6.9,7.81-12.82,6.82l-1.16-.81c-.33.06-.66.12-1.5.1l-1.7-.04c-1.37-.1-2.41-.25-3.2.06-.54.77-1,1.02-1.39.75-.96-.68-2.91-1.18-5.59-1.04-2.93-.33-4.88-.83-6.03-1.64.54-.77.62-1.29.04-1.69-.5-.93-1.33-1.8-2.49-2.6s-1.79-1.54-1.97-2.53c-.98.18-1.5.1-1.7-.04l-.04-1.18c-.98.18-2.08-.31-3.62-1.39l-.04-1.18c-.68.97-1.58.62-2.66-.71-.75-1.39-1.58-2.26-2.16-2.66.54-.77.62-1.29.23-1.56-.27.39-.79.31-1.56-.23-.96-.68-1.48-.75-1.75-.37.27-.39.02-.85-.37-1.12l-.98.17-.17-.98-.98.17c.27-.39.02-.85-.95-1.52-.66.12-1.17.04-1.56-.23-.5-.93-2.49-2.6-6.15-5.17-.85-.02-1.37-.1-1.75-.37s-.44-.6-.23-1.31l.29-1.23-2.95.52c-.58-.41-.83-.87-.94-1.52-.39-.27-.71-.21-.85-.02s-.33.06-.71-.21l-.56-1.25c-.31-.79-.69-1.06-1.35-.94.5.92,2.45,1.43,6.03,1.64-.67-1.91-4.64-5.27-11.78-10.26-.39-.27-.98.18-1.93,1.52l-.17-.98-1.18.04-.98.18-1.16-.81c-.79.31-1.5.09-2.22-.12-.52-.08-1.43-.42-2.52-.91-1.1-.48-1.81-.69-2.01-.83l1.12-.37c.27-.39.02-.85-.75-1.39-.98.17-1.58.62-2.12,1.39-1.7-.04-5.01,2.23-9.95,6.82l-.23,1.56c-.66.12-1.39.75-2.33,2.1.06.33-.29,1.23-1.16,2.06-.6.44-1,1.02-1.41,1.6-.1,1.37.79,2.56,2.53,3.78,7.69,3.37,19.31,14.67,35.01,33.7.19.14.69,1.06,1.12,2.51.23,1.31.54,2.1.93,2.37l-.39-.27Z" fill="#231815"/>
      <g>
        <path d="m594.62,206c3.07-1.56,5.57-5.97,3.51-9.35-4.86-7.95-11.62-13.98-20.15-17.81-7.82-3.51-16.91-4.66-25.33-3.05-3.62.69-6.65,4.27-5.87,8.08.75,3.65,4.2,6.61,8.08,5.87,1.42-.27,2.83-.39,4.25-.52,0,0,.25-.03.51-.05.17-.02.33-.03.49-.05-.18.02-.29.03-.42.04.13,0,.26-.02.35-.01.44,0,.88.02,1.32.04.88.04,1.76.12,2.63.23.87.11,1.74.25,2.61.42.01,0,.02,0,.03,0,.22.14.8.19,1,.24,1.7.47,3.37,1.07,4.99,1.77.43.19,1.67,1.03,2.13,1.02,0,0,.02,0,.02.01.38.22.76.45,1.14.68,1.5.93,2.93,1.96,4.28,3.1.22.18.44.38.66.57.09.09.18.18.27.26.62.62,1.22,1.26,1.8,1.93.53.61,1.03,1.24,1.52,1.89.26.35.52.71.77,1.07.28.41,1.22,1.95.07.07,1.02,1.67,2.04,2.98,3.95,3.69,1.62.61,3.83.62,5.4-.18Z" fill="#02292e" stroke="#06292f" stroke-miterlimit="10" stroke-width="3.76"/>
        <path d="m559.11,189.23s.17-.01.58-.05c-.03,0-.05,0-.08,0-.17.02-.34.03-.51.05Z" fill="#02292e" stroke="#06292f" stroke-miterlimit="10" stroke-width="3.76"/>
      </g>
      <path d="m714.48,291.48c-7.86-15.61-20.92-28.29-36.46-36.19-3.4-1.73-7.81.04-9.39,3.41-1.67,3.56,0,7.65,3.41,9.39,13.33,6.78,23.83,17.57,30.75,31.32,1.71,3.41,6.95,3.83,9.81,1.88,3.5-2.37,3.61-6.39,1.88-9.81Z" fill="#02292e" stroke="#06292f" stroke-miterlimit="10" stroke-width="3.76"/>
      <path d="m684.04,296.13c-6.53-4.31-13.32-8.2-20.31-11.71-1.47-1.2-3.58-1.71-5.3-1.06-.01,0-.02.01-.03.02-1.44.38-2.72,1.28-3.38,2.7-.82,1.75-.73,3.82.2,5.43,1.61,6.35,3.46,12.63,5.58,18.83.93,2.73,4.14,4.59,6.95,3.53,2.76-1.04,4.53-4.03,3.53-6.95-.81-2.36-1.53-4.74-2.27-7.12,3.35,1.94,6.66,3.96,9.9,6.1,2.41,1.59,6.27.18,7.44-2.32,1.37-2.94.26-5.74-2.32-7.45Z" fill="#02292e" stroke="#06292f" stroke-miterlimit="10" stroke-width="2.82"/>
      <path d="m579.4,222.59c-.29-2-1.43-3.39-2.86-4.72-1.67-1.54-3.37-3.05-5.05-4.57-3.37-3.05-6.74-6.1-10.11-9.15-.98-.88-2.87-1.16-4.11-.96-1.33.22-2.83,1.08-3.58,2.23-.78,1.2-1.26,2.67-.96,4.11.32,1.52,1.08,2.55,2.23,3.58,1.97,1.78,3.94,3.56,5.9,5.34-3.77-.13-7.53-.33-11.28-.64-2.87-.24-5.85,1.99-6,4.98-.14,2.96,1.91,5.74,4.98,6,4.33.36,8.68.6,13.02.72,2.17.06,4.35.08,6.52.08,1.09,0,2.17-.01,3.26-.03,1.56-.03,3.09.07,4.55-.59,2.45-1.11,3.87-3.74,3.49-6.39Z" fill="#02292e" stroke="#06292f" stroke-miterlimit="10" stroke-width="2.82"/>
      <path d="m630.02,263.92c.43-2.99.29-6.14-.39-9.08-.73-3.14-2-6.62-4.12-9.11-2.61-3.07-6.79-3.6-10.59-3.72-3.26-.11-6.57.21-9.74,1-2.6.64-4.72,3.21-4.06,5.99.61,2.58,3.22,4.75,5.99,4.06,1.18-.29,2.37-.53,3.58-.68.33-.04.67-.08,1.01-.11.04,0,.2-.02.34-.03.21,0,.51-.02.57-.02.27,0,.54,0,.81,0,1.22,0,2.43.09,3.64.24.26.03.52.07.78.11.02.03.05.07.06.08.15.27.3.55.44.82.25.5.48,1.01.69,1.53.09.22.16.44.25.66,0,.02,0,0,0,.03.14.54.29,1.08.4,1.63.11.55.2,1.1.27,1.66,0,.04.04.43.06.63,0,.04,0,.07,0,.11.03,1.18-.06,2.36-.22,3.53-.38,2.66,2.15,5.39,4.77,5.45,2.94.07,5.04-1.93,5.45-4.77Z" fill="#02292e" stroke="#06292f" stroke-miterlimit="10" stroke-width="7.52"/>
      <path d="m609.2,354.06c7.19-2.52,14.05-5.77,20.3-10.14,3.85-2.69,10.31-6.51,9.76-11.65,0-.01,0-.03,0-.04.09-1.04-.11-1.83-.51-2.47.04-.03.09-.05.13-.08-.27-1.09-.99-2.09-2.26-2.66-36.25-16.03-68.33-40.4-93.71-70.82-3.14-3.76-8.71,1.42-5.57,5.18,1.06,1.27,2.15,2.52,3.24,3.77-.03.65.15,1.34.65,2.06,3.75,5.39.91,14.39.1,20.46-.93,6.88-1.81,13.8-1.91,20.75-.18,12.44,2.06,25.18,9.4,35.48,2.15,3.01,4.72,5.59,7.59,7.76.27.65.76,1.24,1.55,1.7,2.26,1.32,4.6,2.42,7,3.35.28.29.62.56,1.08.78,12.77,6.11,30.53.98,43.16-3.44Zm-22.5-2.37c-1.63.24-3.33.5-5.05.68-.25-.06-.52-.1-.8-.1-5.49-.17-10.7-1.39-15.59-3.67-7.4-4-12.73-11.16-15.45-19.27-3.71-11.07-3.09-22.97-1.76-34.39.63-5.42,2.47-12.24,2.77-18.65,21.86,22.45,47.58,40.83,75.88,54.41.04.24.11.47.2.69.32.12.61.31.85.55.38.37.59,1.01.56,1.54,0,.08-.02.17-.04.26.17.85-.04,1.81-.53,2.51-.53.74-1.23,1.29-2.01,1.74-.75.43-1.58.73-2.4,1.01-.1.03-.2.06-.3.09-1.49.95-3.01,1.86-4.57,2.7-5.16,2.77-10.61,4.91-16.24,6.54-5.09,1.48-10.28,2.57-15.52,3.35Z" fill="#06292f" stroke="#06292f" stroke-linejoin="round" stroke-width="11.28"/>
    </g>
  </g>
</svg>