<?xml version="1.0" encoding="UTF-8"?>
<svg id="_圖層_2" data-name="圖層 2" xmlns="http://www.w3.org/2000/svg" width="794.1" height="967.5" viewBox="0 0 794.1 967.5">
  <g id="icon">
    <g>
      <path d="m406.06,255.04c-4.1-30.93-15.44-61.36-34.57-88.69-35.77-51.08-90.99-80.44-148.65-85.08L13.08,228.15c-15.36,55.76-6.66,117.7,29.11,168.78,19.13,27.32,43.85,48.38,71.51,62.82-51.97,111.73-44.69,247.32,31.08,355.53,113.06,161.47,335.62,200.71,497.09,87.65,161.47-113.06,200.71-335.62,87.65-497.09-75.76-108.2-200.69-161.42-323.46-150.8Z" fill="#0088cd"/>
      <path d="m315.08,146.9c17.99,20.76,30.15,45.87,40.91,71.15,6.47,15.21,13.21,49.91-4.87,94.14-15.59,38.16-51.21,65.91-87.8,84.89-36.59,18.97-80.19,25.59-119.91,14.56-39.72-11.02-74.68-40.59-88.75-79.34-11.39-31.36-8.56-67.58,7.55-96.79,14.25-25.84,37.63-45.32,61.5-62.68,32.69-23.77,71.76-53.3,110.59-65.89,27.77-9,64.14,20.75,80.78,39.96Z" fill="#fff"/>
      <path d="m220.11,87.04c-23.22,50.7-85.83,90.98-85.83,90.98,0,0-61.45,46.72-117.89,49.74l-4.76.15S56.25,98.08,0,26.47l18.9-13.24L37.81,0c48.05,77.35,185.3,79.82,185.3,79.82l-3,7.21Z" fill="#231815"/>
      <path d="m384.71,603.35c.85-.02,2.86,2.02,5.69,6.07,1.75,2.51,6,13.9,12.27,33.93l1.95,13.86c.73,6.38,1.81,10.79,2.72,13.32-.31.79-.29,4.51-.33,11.43.33,5.8.1,9.99-.42,12.94-3.7.87-5.42,2.93-4.95,6.05-2.43-.6-3.61-.63-3.72.02-1.99,7.42-5.07,9.58-9.45,6.61-.35,1.96-1.5,2.77-3.47,2.43l-.7,1.06-.5.93c-.98-.17-1.89.18-3.04.99-3.38-4.82-6.46-8.41-9.34-11.28-1.33-12.57-2.22-19.99-2.53-22.07.75-27.24-1.82-45.27-7.78-54.6-.98-.18-1.89.17-2.39,1.1-.83.87-1.93,1.35-3.49,1.58-5.24,1.95-9.23,4.46-11.45,7.44-6.78,8.77-10.95,15.13-11.97,19.01-.31.79-.83.87-1.23.29s-.73-.64-1.18-.04c-2.95,5.22-8.73,9.27-17.35,12.15-.67-.96-1.85-1-3.58.21-1.39-.75-3.69-1.16-6.56-1.16-3.06.14-5.03-.21-5.9-1.04-.79-.31-1.68-1.98-2.86-4.9l-1.31-.23c-.64-2.14-2.51-3.99-5.69-6.07.17-.98-.58-2.47-2.31-4.12-1.54-1.79-2.29-3.28-2.12-4.26,1.35-.95,2.1-2.33,2.39-3.97-.56-1.62,6.09-10.59,19.49-27.15,3.06-.14,7.11-2.97,12.09-8.18,7.02-7.21,21.2-11.97,42.56-14.29,2.3.41,6.21.25,11.82.06l8.69,3.39,5.94,8.48Zm57.18-37.74c-.23,1.31.11,2.22.98,3.05,7,6.3,19.65,22.73,38,48.94,1.68,4.86,5.15,11.05,10.68,18.95l10.13,14.46c-.58.41-.64.73-.5.92s-.12.66-.7,1.06c.41.58,1.27,1.41,2.6,2.49l1.08,1.54c.6.45.87.83,1.2.89l.27.39c-.41,2.29-.56,4.13-.41,5.17,1.29,2.25,1.54,4.66,1.41,7.34-.25,3.34-.4,5.17-.13,5.55-.58.41-1.52,1.93-3.03,4.71-1.5,2.77-2.85,3.72-4.24,2.97-.23,1.31-.66,2.75-1.6,4.28-.87,2.04-1.43,3.3-1.6,4.28-1.75.37-6.13-2.6-12.86-8.52-7.73-4.07-16.45-11.18-26.22-21.86-1.27-1.41-1.89-2.7-1.66-4.01-3.93-3.57-8.89-9-14.54-16.25-4.92-6.61-9.1-12.59-12.42-17.73-2.85-4.9-7.23-10.74-12.8-17.46-.37-1.75-1.66-4.01-4.07-6.63-2.49-3.14-4.24-5.65-4.61-7.4l-1.31-.23c-.98-.17-1.25-.56-.29-1.23.77-.54.83-.87-.15-1.04l-1.31-.23c-.33-.06-.54-.77-1.1-2.39-.15-1.04-.89-1.68-1.87-1.85-.37-1.75-1.52-3.82-3.8-6.25-2.35-2.95-3.97-5.26-4.34-7.02-.96.68-2.1-.54-3.74-3.7l-7.17-13.94c-.21-6.46-2.68-11.62-7.48-16.02-.83-4.88-3.01-8.81-6.73-11.66.35-1.97.39-3.14-.02-3.72l-1.75-2.51c1.04-5.9,3.32-9.22,7.02-10.08-.41-.58.4-2.3,2.48-5.48,1.64.29,2.62.46,3.22.91,1.52.94,2.64,1.31,3.22.91,1.16-.81,3.84-.68,8.17.59.44-.6,1.16-.81,2.79-.52,1.23-.29,2.41-.25,3.2.06,4.99,1.39,10.37,5.38,15.87,11.58-1.16.81-1.33,1.79-.52,2.95s1.16,2.06.99,3.05l1.31.23,6.48,9.25c-.56,1.25,0,2.88,2.2,4.78,2.47,2.3,3.8,3.37,3.74,3.7.11,2.22,1.73,4.53,4.72,6.75,3.97,8.14,7.75,13.53,11.2,16Zm57.51-17.57l-1.06,2.18-1.19,1.99c1.45,3.3,1.19,6.63-.48,10.39l2.29,3.27c6.38,2.14,14.56,2.74,24.66,1.98,10.99.92,22.85,2.67,35.24,5.2,5.67-.52,10.31-.04,14.07,1.63,5.34-.58,11.13,1.12,17.68,5.15-2.64,4.43-2.04,7.75,1.99,9.81-.75,1.39-.52,2.95.7,4.69,1.35,1.93,1.77,3.35,1.33,3.95-3.61,5.11-5.3,8.02-5.28,8.87.12,5.09-.08,8.1-.25,9.08-7.98,2.14-13.26,2.39-15.91,1.08-.97.68-2.2.96-3.18.79-4.05-.04-10.01-.75-17.82-2.46-6.49-1.49-12.26-2.33-16.64-2.43-1.87-1.85-5.29-2.62-10.7-2.57-6-2.41-9.35-3.5-9.93-3.1-.81-1.16-1.54-1.79-2.53-1.97-1.89.17-13.73-3.61-35.26-11.8l-.15-1.04-.29-1.23c-8.47-4.7-13.63-16.6-15.7-35.55,1.16-.81,1.19-1.99-.02-3.72.17-3.86.35-7.71.98-11.32.86-4.92,1.04-8.77.98-11.32,1.45-2.45,3.06-8.75,4.99-18.72,4.3-9.04,5.68-16.91,3.89-23.98-.21-.72.1-1.51.87-2.05,2.95.52,4.78.68,5.36.27,2.41-3.12,5.94-3.01,10.45.15.14.19.85-.02,2.28-.45,1.37-.1,2.08-.31,2.41-.25.98.18,2.04.87,2.72,1.83.95,1.35,1.68,1.99,2.53,1.97,10.35-1.21,16.39,2.89,17.97,12.12.98.17,2.18,1.06,3.26,2.6-.18.98-.25,3.33.04,7.44.44,5.15.39,8.35-.06,8.94-14.55,14.5-21.45,23.93-20.24,28.54Z" fill="#231815"/>
      <g>
        <path d="m226.48,254.91c-4.96-4.47-12.32-5.86-18.19-2.17-5.47,3.45-7.88,10.13-6.42,16.34,1.12,4.76,8.53,3.01,7.4-1.77-1.6-6.78,6.17-12.14,11.64-7.21,3.62,3.26,9.21-1.91,5.56-5.19Z" fill="#06292f" stroke="#06292f" stroke-miterlimit="10" stroke-width="11.28"/>
        <path d="m260.15,145.66c-15.81-5.74-33.9-1.61-45.64,10.42-3.41,3.5,1.76,9.08,5.19,5.56,9.97-10.21,24.76-13.59,38.18-8.72,4.61,1.68,6.87-5.6,2.27-7.26Z" fill="#06292f" stroke="#06292f" stroke-linecap="round" stroke-linejoin="round" stroke-width="11.28"/>
        <path d="m104.88,229.25c-14.55,5.7-23.41,20.36-22.39,35.82.32,4.88,7.84,3.7,7.52-1.17-.8-12.13,6.73-23.3,17.93-27.69,4.56-1.79,1.5-8.75-3.06-6.97Z" fill="#06292f" stroke="#06292f" stroke-linecap="round" stroke-linejoin="round" stroke-width="11.28"/>
        <path d="m296.28,299.05c.11-7.61-.59-15.17-2.54-22.55-1.2-4.54-2.57-11.92-7.59-13.17-.01,0-.02-.01-.04-.02-.95-.45-1.76-.52-2.49-.37-.01-.05-.02-.1-.03-.15-1.12-.12-2.3.21-3.27,1.21-27.52,28.53-61.43,50.27-98.72,63.64-4.61,1.65-1.66,8.67,2.95,7.02,1.56-.56,3.1-1.16,4.65-1.74.59.25,1.31.32,2.16.1,6.35-1.67,13.82,4.09,19.25,6.94,6.15,3.24,12.34,6.44,18.83,8.93,11.62,4.45,24.35,6.73,36.55,3.37,3.57-.98,6.87-2.51,9.9-4.46.7-.03,1.43-.29,2.13-.87,2.01-1.67,3.86-3.49,5.55-5.42.37-.16.74-.39,1.1-.74,10.12-9.89,11.42-28.33,11.61-41.71Zm-9.96,20.31c-.33,1.62-.67,3.3-1.09,4.98-.14.22-.27.45-.37.72-2.05,5.09-4.98,9.57-8.81,13.38-6.3,5.58-14.85,8.11-23.4,7.88-11.67-.32-22.63-5-32.9-10.17-4.88-2.46-10.64-6.53-16.57-9.01,28.6-12.8,54.7-30.64,77.18-52.55.24.05.48.06.72.06.22-.26.5-.47.81-.61.48-.23,1.15-.2,1.64,0,.08.03.16.08.23.13.86.13,1.69.66,2.17,1.36.52.75.79,1.6.94,2.49.15.86.14,1.73.13,2.6,0,.11-.01.21-.02.32.38,1.73.71,3.47.96,5.22.82,5.8.96,11.65.56,17.5-.36,5.28-1.13,10.54-2.19,15.72Z" fill="#06292f" stroke="#06292f" stroke-miterlimit="10" stroke-width="11.28"/>
        <path d="m147.28,301.7c4.75-7.22,3-15.95-1.66-22.71-4.9-7.12-12.57-12.53-21.33-8.21-5.92,2.92-9.19,9.44-9.41,15.91-.35,1.22-.58,2.48-.65,3.77-.42,7.78,4.51,15.36,11.77,18.15,7.64,2.94,16.76-.05,21.27-6.91Z" fill="#06292f"/>
        <path d="m276.33,191.93c-9.28-10.69-32.19-8-34.91,7.33-2.44,13.73,11.29,23.78,23.59,22.14,5.16.06,10.43-2.78,13.15-7.21,3.99-6.48,3.17-16.49-1.83-22.25Z" fill="#06292f"/>
      </g>
    </g>
  </g>
</svg>