<?xml version="1.0" encoding="UTF-8"?>
<svg id="_圖層_2" data-name="圖層 2" xmlns="http://www.w3.org/2000/svg" width="33.16" height="33.16" viewBox="0 0 33.16 33.16">
  <defs>
    <style>
      .cls-1 {
        fill: #fffbf3;
      }

      .cls-2 {
        fill: #092a31;
      }
    </style>
  </defs>
  <g id="icon">
    <circle class="cls-2" cx="16.58" cy="16.58" r="16.58" transform="translate(-4.09 27.65) rotate(-73.15)"/>
    <path class="cls-1" d="M16.29,9.19c-4.19,0-7.6,3.41-7.6,7.6s3.41,7.6,7.6,7.6,7.6-3.41,7.6-7.6-3.41-7.6-7.6-7.6ZM16.29,21.91c-2.83,0-5.13-2.3-5.13-5.13s2.3-5.13,5.13-5.13,5.13,2.3,5.13,5.13-2.3,5.13-5.13,5.13Z"/>
    <path class="cls-1" d="M23.85,7.64c-.71,0-1.29.58-1.29,1.29s.58,1.29,1.29,1.29,1.29-.58,1.29-1.29-.58-1.29-1.29-1.29Z"/>
  </g>
</svg>