<?xml version="1.0" encoding="UTF-8"?>
<svg id="_圖層_2" data-name="圖層 2" xmlns="http://www.w3.org/2000/svg" width="333.89" height="178.17" viewBox="0 0 333.89 178.17">
  <defs>
    <style>
      .cls-1 {
        fill: #092a31;
      }
    </style>
  </defs>
  <g id="icon">
    <path class="cls-1" d="M1.04,108.75c-.69-.75-1.04-1.68-1.04-2.78,0-.53.12-.8.38-.8.94-.06,1.88-.36,2.82-.89-1.04-.41-1.58-1.43-1.65-3.06v-7.39c-.03-7.47-.06-11.06-.09-10.78.03-1.1.12-2.45.28-4.05.06-.25.28-.38.66-.38.53,0,1.11.17,1.74.52l.33.19c3.14-2.42,5.4-3.56,6.78-3.44,2.45.19,4.24,1.29,5.37,3.29.35.63.52,1.33.52,2.12,0,.41-.06.78-.19,1.13.03.09.11,1.73.24,4.9.09,3.48.14,6.34.14,8.57,0,2.07-.05,3.33-.14,3.77-.19.78-.78,1.35-1.79,1.7-.82.31-1.66.44-2.54.38l-.05-.05-.05.09c-1.1,1.41-2.75,3.22-4.94,5.41-1.44,1.47-2.45,2.38-3.01,2.73-.31.19-.64.28-.99.28-.97,0-1.9-.49-2.78-1.46ZM11.15,86.91c0-2.26-.05-4.71-.14-7.34-.03-.09-.11-.14-.24-.14-.53,0-1.88.6-4.05,1.79.44.6.67,1.29.71,2.07.03.56.08,2.21.14,4.94,1.44-.82,2.38-1.27,2.82-1.37.19-.03.44-.02.75.05ZM7.67,100.89c.75-.69,1.95-1.73,3.58-3.11-.03-.66-.06-2.85-.09-6.59-.82.47-1.96,1.11-3.44,1.93.03,2.26.02,4.85-.05,7.77ZM32.29,95.33c-3.01,1.13-5.3,1.66-6.87,1.6-.25,2.23-.68,4.47-1.27,6.73-.47,1.82-.85,2.98-1.13,3.48-.82,1.44-1.38,2.4-1.69,2.87-.72,1-1.52,1.76-2.4,2.26-.63.35-1.08.52-1.37.52-.25,0-.38-.16-.38-.47,0-.22.08-.6.24-1.13.22-.69.35-1.1.38-1.22,1.19-5.43,1.96-12.19,2.31-20.29.22-5.3.33-8.72.33-10.26,0-1.98-.11-3.1-.33-3.37-.22-.27-.47-.67-.75-1.2-.06-.94.27-1.41.99-1.41.44,0,1.14.16,2.09.47.96.31,1.59.6,1.91.85,3.89-1.82,6.73-2.71,8.52-2.68,1.04,0,2.16.25,3.39.75,1.35.56,2.13,1.19,2.35,1.88.09.28.14.56.14.85,0,.53-.2,1.15-.59,1.86-.39.71-.59,1.15-.59,1.34,0,1.57.03,4.85.09,9.84.03,1.51.16,5.26.38,11.25.19,5.27.27,8.33.24,9.18-.03,1.6-.09,2.59-.19,2.97-.22.88-.74,1.35-1.55,1.41-1.1.06-2.18-.3-3.25-1.08-.63-.44-1.17-1.18-1.62-2.21-.46-1.04-1.44-2.93-2.94-5.69-.44-.85-.66-1.49-.66-1.93,0-.19.03-.28.09-.28.16,0,.39.2.71.61,1.98,2.45,3.04,3.67,3.2,3.67.09,0,.14-.08.14-.24.13-1.57.16-5.21.09-10.92ZM32.15,86.16c-2.64.97-4.74,1.49-6.31,1.55l-.19,4.75c1.82-.28,4.02-.83,6.59-1.65-.03-1.6-.06-3.15-.09-4.66ZM25.93,83.19c1.79-.31,3.87-.85,6.26-1.6.03-3.95-.02-5.93-.14-5.93-.69,0-2.76.68-6.21,2.02.09,1.13.13,2.97.09,5.51Z"/>
    <path class="cls-1" d="M86.23,96.04c-7.59,1.13-11.8,1.63-12.61,1.51-.28-.03-.66-.16-1.13-.38-.63,2.92-1.35,5.24-2.16,6.97-.53,1.07-1.76,3.04-3.67,5.93-.78,1.16-2.1,2.27-3.95,3.34-.5.28-.93.42-1.27.42-.56,0-.69-.31-.38-.94l2.26-5.6c.66-1.66,1.38-4.38,2.16-8.14.75-3.55,1.22-6.35,1.41-8.43.38-3.98.57-7.08.57-9.27,0-.97-.17-2.04-.49-3.2-.33-1.16-.5-1.99-.5-2.49,0-1.16.33-1.62.99-1.37.81.28,1.65.57,2.49.85,1.04.41,1.87.85,2.49,1.32,6.21-3.14,10.67-4.72,13.37-4.75,1.29-.03,2.9.61,4.85,1.93,1.85,1.22,2.93,2.26,3.25,3.11.12.35.19.69.19,1.04,0,1-.42,1.62-1.27,1.84,0,.06.02.97.05,2.73.06,1.98.09,3.23.09,3.77l.38,21.93v1.04c.03.41.05.75.05,1.04,0,2.35-.83,3.72-2.49,4.1-.38.09-.75.14-1.13.14-1.26,0-2.59-.58-4-1.74-1.16-1.1-2.32-2.2-3.48-3.29-1.35-1.26-2.7-2.51-4.05-3.77-1.69-1.66-3.26-3.39-4.71-5.18-.16-.19-.24-.38-.24-.57,0-.44.3-.66.89-.66.16,0,.27.03.33.09,1.73,1.38,3.45,2.76,5.18,4.14,2.26,1.69,4.05,2.59,5.36,2.68.03,0,.12.02.26.07.14.05.24.07.31.07.25,0,.39-.25.42-.75.09-1.19.16-4.36.19-9.51ZM73.24,93.17c3.29-.47,6.79-1.16,10.5-2.07l.71-.47c.63.06,1.22.17,1.79.33,0-.94-.02-2.64-.05-5.08-2.86.6-6.97,1.49-12.33,2.68-.16,1.54-.36,3.08-.61,4.61ZM74.27,83.66c2.35-.57,5.76-1.41,10.21-2.54-.09,0,.08-.16.52-.47.38-.03.75,0,1.13.09-.03-.88-.05-1.44-.05-1.69-.06-1.95-.25-2.97-.57-3.06-3.89.75-7.64,2.1-11.25,4.05.06.94.06,2.15,0,3.62Z"/>
    <path class="cls-1" d="M140.5,95.15c-.22.66-.49,1.22-.8,1.69,2.95-.6,5.3-.91,7.06-.94h1.08c.91.13,2.12.83,3.62,2.12,1.73,1.54,2.54,3,2.45,4.38-.09.91-.99,2.46-2.68,4.66.75.5,1.16,1.14,1.22,1.93.03.63-.61,1.49-1.93,2.59-.31.25-1.33.36-3.06.33-1.13-.06-2.24-.11-3.34-.14-.6-.03-3.75.31-9.46,1.04-.41.66-1,.99-1.79.99-.35,0-.69-.08-1.04-.24-3.45-1.57-6.26-5.38-8.43-11.44v.05c-.41-1.13-.61-2.13-.61-3.01,0-.82.17-1.22.52-1.22,1.79-.03,3.31.61,4.57,1.93,1-.31,1.98-.6,2.92-.85.75-.53,1.47-1.13,2.16-1.79-2.01-.88-3.47-2.57-4.38-5.08-.56-1.54-.86-3.07-.89-4.61-.03-.69.04-1.34.21-1.95.17-.61.38-.89.64-.82.6.19,1.24.56,1.93,1.13,2.42-.82,5.13-1.52,8.14-2.12,3.14-.63,5.4-.88,6.78-.75l.28-.24c.78.06,1.58.42,2.4,1.08.85-.5,1.6-1.07,2.26-1.72.66-.64.99-1.11.99-1.39,0-.12-.08-.2-.24-.24-.47-.06-1.05-.09-1.74-.09-2.85,0-6.9.52-12.14,1.55-4.83.97-9.32,2.1-13.46,3.39,0,.19-.03.72-.09,1.6-.09,1.19-.35,2.26-.75,3.2-.19.47-.61.8-1.27.99-.53.16-.94.17-1.22.05-.78-.38-1.5-1.22-2.14-2.54-.64-1.32-.97-2.54-.97-3.67,0-.38.05-.71.14-.99.82-1.82,1.66-3.95,2.54-6.4.03-.31.19-.47.47-.47.5,0,1.07.31,1.69.94.63.63,1.05,1.22,1.27,1.79.13.38.24.8.33,1.27,1.94-.5,5.47-1.38,10.59-2.64.12-.22.22-.42.28-.61-1.82-1.32-2.73-2.35-2.73-3.11,0-.41.3-.75.89-1.04.35-.16,1.08-.39,2.21-.71.41-.03.88-.05,1.41-.05,3.14,0,5.73.85,7.77,2.54.25.19.41.44.47.75,2.38-.28,4.5-.36,6.35-.24l.52-.28c.78-.09,2.24.49,4.38,1.74,2.29,1.38,3.4,2.65,3.34,3.81-.03.44-.33.97-.89,1.6-.69.82-1.65,1.54-2.87,2.16-.63.31-1.24.47-1.84.47-.5,0-.85-.09-1.04-.28-.44-.53-.99-.92-1.65-1.18-.5,0-1.24.13-2.21.38.82.82,1.22,1.58,1.22,2.31,0,.22-.05.38-.14.49-.09.11-.41.68-.94,1.72-.63,1.19-1.33,2.2-2.12,3.01.19.16.3.3.33.42.06.28-.2.69-.78,1.22s-1.15.88-1.72,1.04c-.97.09-2.23.24-3.77.42l-.33.05ZM132.87,107.52c2.01-.22,4.83-.42,8.47-.61,1.57-1.35,2.9-2.93,4-4.75.94-1.57,1.3-2.37,1.08-2.4-.28-.06-.63-.09-1.04-.09-1.69,0-4.27.46-7.72,1.37-2.82.75-5.3,1.54-7.44,2.35l2.64,4.14ZM141.11,90.82c1.07-1.57,1.69-2.92,1.88-4.05-.06-.03-.17-.05-.33-.05-1.73,0-5,.77-9.84,2.31.41.75.99,1.84,1.74,3.25,1.6-.35,3.78-.83,6.54-1.46Z"/>
    <path class="cls-1" d="M203.9,96.04c-7.59,1.13-11.8,1.63-12.61,1.51-.28-.03-.66-.16-1.13-.38-.63,2.92-1.35,5.24-2.16,6.97-.53,1.07-1.76,3.04-3.67,5.93-.78,1.16-2.1,2.27-3.95,3.34-.5.28-.93.42-1.27.42-.57,0-.69-.31-.38-.94l2.26-5.6c.66-1.66,1.38-4.38,2.16-8.14.75-3.55,1.22-6.35,1.41-8.43.38-3.98.56-7.08.56-9.27,0-.97-.16-2.04-.49-3.2-.33-1.16-.49-1.99-.49-2.49,0-1.16.33-1.62.99-1.37.82.28,1.65.57,2.49.85,1.04.41,1.87.85,2.49,1.32,6.21-3.14,10.67-4.72,13.37-4.75,1.29-.03,2.9.61,4.85,1.93,1.85,1.22,2.93,2.26,3.25,3.11.12.35.19.69.19,1.04,0,1-.42,1.62-1.27,1.84,0,.06.02.97.05,2.73.06,1.98.09,3.23.09,3.77l.38,21.93v1.04c.03.41.05.75.05,1.04,0,2.35-.83,3.72-2.49,4.1-.38.09-.75.14-1.13.14-1.26,0-2.59-.58-4-1.74-1.16-1.1-2.32-2.2-3.48-3.29-1.35-1.26-2.7-2.51-4.05-3.77-1.69-1.66-3.26-3.39-4.71-5.18-.16-.19-.24-.38-.24-.57,0-.44.3-.66.89-.66.16,0,.27.03.33.09,1.73,1.38,3.45,2.76,5.18,4.14,2.26,1.69,4.05,2.59,5.37,2.68.03,0,.12.02.26.07.14.05.24.07.31.07.25,0,.39-.25.42-.75.09-1.19.16-4.36.19-9.51ZM190.9,93.17c3.29-.47,6.79-1.16,10.5-2.07l.71-.47c.63.06,1.22.17,1.79.33,0-.94-.02-2.64-.05-5.08-2.86.6-6.97,1.49-12.33,2.68-.16,1.54-.36,3.08-.61,4.61ZM191.94,83.66c2.35-.57,5.76-1.41,10.21-2.54-.09,0,.08-.16.52-.47.38-.03.75,0,1.13.09-.03-.88-.05-1.44-.05-1.69-.06-1.95-.25-2.97-.56-3.06-3.89.75-7.64,2.1-11.25,4.05.06.94.06,2.15,0,3.62Z"/>
    <path class="cls-1" d="M237.45,89.45c3.23-.91,7.42-1.91,12.57-3.01.38-1.04.64-1.96.8-2.78.06-.44.12-.91.19-1.41-2.67.53-4.35.85-5.04.94-1.16.19-2.54-.09-4.14-.85-1.19-.56-1.79-1.19-1.79-1.88,0-.19.06-.35.19-.47.41-.41,1.4-.83,2.96-1.27,2.1-.57,4.88-1.22,8.33-1.98.03-.6-.03-1.26-.19-2-.16-.74-.24-1.28-.24-1.62,0-1,.71-1.43,2.12-1.27.78.09,1.68.51,2.68,1.25s1.77,1.51,2.31,2.33c1.16-.19,2.12-.3,2.87-.33.44-.03.86-.2,1.27-.52.41-.31.69-.47.85-.47.91,0,2.4.5,4.47,1.51,1-1.1,1.57-1.74,1.69-1.93.57-.78,1.05-1.18,1.46-1.18.63,0,1.43.5,2.4,1.51.97,1,1.54,1.82,1.69,2.45.12.5-.19,1.04-.94,1.6-1.13,1.19-3.04,3.2-5.74,6.02,1.79.16,3.62.71,5.51,1.65,1.88.94,2.71,1.73,2.49,2.35-.56,1.63-1.47,2.45-2.73,2.45-.53,0-1.11-.11-1.74-.33-1.79-.63-4.75-.85-8.9-.66-3.89,3.99-6.68,6.76-8.38,8.33.66.72,1.14,1.37,1.46,1.93,2.1-1.57,4.02-3.25,5.74-5.04,1.35-1.41,2.09-2.29,2.21-2.64v-1.04c.06-.5.33-.67.8-.52.63.16,1.51.66,2.64,1.51,1.32.94,1.94,1.66,1.88,2.16-.09.78-.42,1.44-.99,1.98-.69.72-1.36,1.43-2.02,2.12-1.19,1.19-2.31,2.06-3.34,2.59-1.04.53-2.09,1.08-3.15,1.65-1.22.6-2.42.97-3.58,1.13-.16,2.01-.05,3.23.33,3.67.25.25,1.3.38,3.15.38,1.95,0,3.92-.13,5.93-.38,2.2-.28,3.44-.6,3.72-.96.28-.36.41-2.16.38-5.39,0-.78.16-1.18.47-1.18.38,0,.66.31.85.94.25.85.66,2.1,1.22,3.77.13.38.75,1.02,1.88,1.93.94.82,1.41,1.68,1.41,2.59,0,.28-.03.57-.09.85-.35,1.51-2.1,2.49-5.27,2.97-1.85.28-4.64.39-8.38.33-2.89-.03-4.85-.19-5.88-.47-1.6-.41-3.03-1.35-4.28-2.82-1.1-1.26-1.55-4.08-1.37-8.47-1.32,1.13-3.53,2.82-6.64,5.08-1.13.72-2.13,1.25-3.01,1.6-.97.41-1.66.74-2.07.99-1.22.72-2.2.91-2.92.56-.72-.38-.49-1.04.71-1.98,1.1-.88,2.37-2.04,3.81-3.48,1.66-1.69,3.35-3.4,5.06-5.13,1.71-1.73,4.51-4.6,8.4-8.61l-.38.05c-.85.16-3.23.75-7.15,1.79-3.48.97-5.51,1.46-6.07,1.46-.66,0-1.52-.31-2.59-.94-1.16-.69-1.74-1.35-1.74-1.98,0-.6.61-1.07,1.84-1.41ZM257.41,85.21l1.32-.19,4.85-5.08c-1.16.16-2.87.44-5.13.85-.19,1.85-.53,3.33-1.04,4.42Z"/>
    <path class="cls-1" d="M327.35,100.42c-1.54.19-2.56.24-3.06.14-.22-.03-.44-.09-.66-.19-.35,3.92-.83,6.54-1.46,7.86-.47,1-1.08,1.94-1.84,2.82-1.01,1.1-1.91,1.65-2.73,1.65-.31,0-.47-.14-.47-.42,0-.16.05-.35.14-.56.41-.97.77-2.56,1.08-4.75h-1.74c-.88.03-2.21.17-4,.42,0,2.1-.07,3.44-.21,4.02-.14.58-.53,1.04-1.18,1.39s-1.23.52-1.76.52c-.25,0-.39-.05-.42-.14-.19-.41-.28-1.48-.28-3.2,0-.35.03-1,.09-1.98-2.07.35-3.26.52-3.58.52-.35,0-.87-.26-1.58-.78-.71-.52-1.06-.95-1.06-1.29,0-.41.2-.67.61-.8,1.25-.38,3.17-.8,5.74-1.27v-1.69l-.24.05c-.28.53-.8.8-1.55.8-.25,0-.53-.06-.85-.19-.31-.12-.99-1-2.02-2.64-.13-.19-.28-.8-.47-1.84-.25-1.16-.39-2.16-.42-3.01-.09.69-.22,1.44-.38,2.26-.91,5.59-2.01,9.24-3.29,10.97-1.29,1.73-2.34,2.75-3.15,3.06-1.07.38-1.65.42-1.74.14-.03-.13.09-.71.38-1.74.47-1.73.9-3.7,1.29-5.93.39-2.23.84-5,1.34-8.33.78-5.93,1.1-10.12.94-12.57-.88-.72-1.26-1.33-1.13-1.84.16-.56,1.44-1.22,3.86-1.98,1.95-.66,5.3-1.41,10.07-2.26-.06-.47-.27-.86-.61-1.18-.47-.44-.72-.66-.75-.66-.22-.35-.33-.71-.33-1.08,0-1.35.83-2.02,2.49-2.02,1.35,0,2.84.41,4.47,1.22,1.63.82,2.6,1.65,2.92,2.49,2.82-.31,5.32-.45,7.48-.42.31-.12.66-.24,1.04-.33,1.1.31,2.23.85,3.39,1.6,1.44.97,2.16,1.85,2.16,2.64,0,.22-.06.42-.19.61-.5.82-1.16,1.22-1.98,1.22-.38,0-1.12-.15-2.24-.45-1.11-.3-2.05-.45-2.8-.45-4.64.03-10.09.75-16.33,2.16,1.73.94,2.56,1.73,2.49,2.35-.03.16-.05.35-.05.56.47-.12.78-.19.94-.19.38-.09.86-.04,1.46.17.6.2,1.21.42,1.84.64.44.13.66.39.66.8,0,.35-.14.73-.42,1.15s-.93.71-1.93.87c-.66.09-1.51.28-2.54.56v1.46c.6-.12,1-.16,1.22-.09.78.22,1.65.61,2.61,1.18.96.56,1.51,1.02,1.67,1.37.31.82.45,1.41.42,1.79-.09,1.13-.49,2.47-1.2,4.02-.71,1.55-1.23,2.36-1.58,2.42-.91.16-1.4.22-1.46.19-.22-.06-.44-.19-.66-.38-.47.03-1.02.09-1.65.19.28.28.44.86.47,1.74l1.46-.19c.19-.03.47-.14.85-.33.28-.13.5-.17.66-.14.41.16,1.41.74,3.01,1.74.38-3.08.66-6.56.85-10.45.16-3.51.19-6.02.09-7.53,0-.25-.17-.64-.52-1.18-.13-.16-.14-.39-.05-.71.13-.28.27-.41.42-.38.56.13,1.22.41,1.98.85,2.98-1.66,4.85-2.56,5.6-2.68.19-.09.38-.19.57-.28.25-.09.52-.08.8.05.63.25,1.25.5,1.88.75.94.44,1.52.91,1.74,1.41.13.38.17.85.14,1.41-.06,1.04-.09,1.46-.09,1.27,0,15.5,0,23.2,0,23.11-.16,1.6-.6,2.43-1.32,2.49-1.35.09-2.24-.23-2.68-.96-.44-.74-1.13-1.83-2.07-3.27-.41-.41-1.13-1.33-2.16-2.78-.22-.34-.28-.64-.19-.89.06-.25.19-.3.38-.14,2.01,1.88,3.04,2.82,3.11,2.82s.09-.03.09-.09c.09-.82.14-3.25.14-7.3ZM309.04,87.05v-1.51s-.13-.34-.38-1.13c-.09-.28.05-.66.42-1.13-1.29.41-3.26.91-5.93,1.51.6.53.94,1.11,1.04,1.74.06.28.08.99.05,2.12,1.07-.41,2.67-.94,4.8-1.6ZM304.81,94.25c.19-.12,1-.33,2.45-.61,1.04-.19,1.57-.57,1.6-1.13l.05-1.37-1.41.42c-.16.03-.33.05-.52.05-.85,0-1.82-.25-2.92-.75-.06.85-.17,1.82-.33,2.92.09-.12.22-.14.38-.05.22.16.45.33.71.52ZM312.95,99.29c.97-1.95,1.46-3.61,1.46-4.99-.03-.5-.27-.72-.71-.66-1.04.09-3.39.82-7.06,2.16.06.09.19.44.38,1.04.88-.25,2.06-.58,3.53-.99.03,0,.15-.05.35-.16.2-.11.37-.15.49-.12.31.16.63.3.94.42.44.22.69.44.75.66.09.25.07.54-.07.87-.14.33-.37.51-.68.54l-4.61,1.04c.13.44.24.82.33,1.13.66-.09,2.29-.41,4.9-.94ZM324.06,90.06c1.6-.38,2.65-.64,3.15-.8-.03-1.41-.07-2.28-.12-2.61-.05-.33-.2-.48-.45-.45-.5.06-1.46.52-2.87,1.37.19.38.28,1.21.28,2.49ZM323.87,97.31c1.22-.12,2.26-.31,3.11-.56.09-.03.2-.05.33-.05v-3.58c-1.47.28-2.57.47-3.29.56-.03,1.22-.08,2.43-.14,3.62Z"/>
    <path class="cls-1" d="M128.46,51.07l-5.61.53h-.09c-.24.26-.55.38-.94.38-.13,0-.26-.02-.38-.04-.38-.1-.8-.5-1.24-1.22-.36-.56-.6-1.05-.72-1.49-.21-.77-.48-2.49-.79-5.18-.33-2.76-.46-4.58-.41-5.48-.06-.26-.1-.63-.13-1.11.09-.48.26-.68.51-.6.45.13.88.31,1.28.56,3.61-1.31,6.51-1.96,8.7-1.96.36,0,.68.02.98.06.47.07,1.16.58,2.07,1.51.95.98,1.54,1.87,1.75,2.67.03.08.04.16.04.21,0,.1-.05.21-.15.34-.1.13-.17.26-.21.38-.24,1.73-.49,3.47-.75,5.2-.5,3.33-.96,5.25-1.39,5.78-.18.21-.41.32-.68.32-.3,0-.76-.14-1.39-.43-.19-.09-.34-.23-.47-.45ZM121.15,39.22c.04.31.16,1.38.36,3.2,3.37-.51,5.69-.79,6.97-.83.31-.01.78.19,1.41.62.17-1.88.21-3.26.13-4.14-.03-.26-.65-.38-1.88-.38s-2.62.22-4.29.66c-1.29.33-2.2.62-2.71.87ZM122.53,49.03c2.3-.26,4.31-.42,6.04-.49.44-1.04.8-2.49,1.09-4.37-.4-.07-.68-.11-.83-.11-.77.02-3.11.33-7.02.96.26,2.03.5,3.37.72,4.01Z"/>
    <path class="cls-1" d="M161.58,45.13c-3.44.51-5.35.74-5.71.68-.13-.01-.3-.07-.51-.17-.29,1.32-.61,2.37-.98,3.16-.24.48-.8,1.38-1.66,2.69-.36.53-.95,1.03-1.79,1.51-.23.13-.42.19-.58.19-.26,0-.31-.14-.17-.43l1.02-2.54c.3-.75.63-1.98.98-3.69.34-1.61.55-2.88.64-3.82.17-1.81.26-3.21.26-4.2,0-.44-.08-.92-.22-1.45s-.22-.9-.22-1.13c0-.53.15-.73.45-.62.37.13.75.26,1.13.38.47.19.85.38,1.13.6,2.81-1.42,4.83-2.14,6.06-2.15.58-.01,1.32.28,2.2.87.84.55,1.33,1.02,1.47,1.41.06.16.09.31.09.47,0,.46-.19.73-.58.83,0,.03,0,.44.02,1.24.03.9.04,1.46.04,1.71l.17,9.94v.47c.01.18.02.34.02.47,0,1.07-.38,1.68-1.13,1.86-.17.04-.34.06-.51.06-.57,0-1.17-.26-1.81-.79-.53-.5-1.05-.99-1.58-1.49-.61-.57-1.22-1.14-1.83-1.71-.77-.75-1.48-1.54-2.13-2.35-.07-.09-.11-.17-.11-.26,0-.2.14-.3.41-.3.07,0,.12.02.15.04.78.63,1.56,1.25,2.35,1.88,1.02.77,1.83,1.17,2.43,1.22.01,0,.05.01.12.03.06.02.11.03.14.03.11,0,.18-.11.19-.34.04-.54.07-1.98.09-4.31ZM155.69,43.82c1.49-.21,3.08-.53,4.76-.94l.32-.21c.28.03.55.08.81.15,0-.43,0-1.19-.02-2.3-1.29.27-3.16.68-5.59,1.22-.07.7-.16,1.39-.28,2.09ZM156.16,39.52c1.07-.26,2.61-.64,4.63-1.15-.04,0,.03-.07.23-.21.17-.01.34,0,.51.04-.02-.4-.02-.65-.02-.77-.03-.88-.11-1.34-.26-1.39-1.76.34-3.46.95-5.1,1.83.03.43.03.97,0,1.64Z"/>
    <path class="cls-1" d="M184.59,43.14c-.16.02-.3.08-.42.19-.12.11-.24.23-.35.34-.03-.03-.05-.06-.06-.09,0-.07.02-.17.06-.29.04-.12.08-.2.11-.25-.34.06-.71-.09-1.12-.45s-.61-.68-.61-.98c0-.09.02-.16.06-.21.16-.21.56-.5,1.2-.86s1.07-.54,1.27-.52c.58.03,1.02.06,1.3.11.53.1.89.26,1.09.49.36.4.53.8.53,1.19,0,.37-.22.63-.66.79-.61.28-1.41.46-2.41.53ZM182.97,49.35c.2.13.33.17.41.13.47-.3,1.31-1.42,2.52-3.37,1.14-1.85,1.71-2.76,1.73-2.75.07-.03.11,0,.11.09,0,.14-.09.45-.28.92-.24.61-.38.96-.41,1.04-.04.16-.06.31-.06.47,0,.14.09.5.28,1.07.04.14.06.31.06.51,0,.67-.17,1.39-.51,2.18-.3.65-.64,1.25-1.02,1.79-.33.46-.5.73-.53.83-.14.48-.4.73-.77.73-.34,0-.73-.19-1.15-.58-.38-.34-.66-.7-.83-1.09-.07-.17-.11-.37-.11-.6,0-.34.07-.67.21-.99.14-.32.26-.44.36-.37ZM185.51,37.85c-.13,0-.36.09-.68.26-.02-.09,0-.24.04-.45.03-.11,0-.2-.11-.26-.27-.11-.54-.35-.82-.7-.28-.35-.41-.63-.39-.83.03-.21.23-.43.62-.64.38-.21.75-.33,1.09-.36.64-.07,1.39.15,2.24.66.92.54,1.34,1.12,1.26,1.73-.23.57-.65.85-1.28.85-.21,0-.54-.04-.97-.13-.43-.09-.76-.13-.99-.13ZM193.18,46.73c.03.21-.04.35-.19.41-.47.18-.91.21-1.32.09-.2-.06-.42-.24-.66-.53-.33-.37-.51-.57-.53-.6-.13-.1-.31-.42-.54-.96s-.38-.95-.44-1.22c-.24-1.42-.27-2.15-.09-2.18.27-.03.47-.03.6,0,.3.06.63.19.98.41,2.15-.58,3.62-.92,4.41-1.02,1.07-.13,1.86-.09,2.37.11,1.29.5,1.94.94,1.94,1.32,0,.04-.01.09-.04.13-.13.14-.21.38-.26.72-.11.78-.34,1.54-.68,2.26-.2.41-.35.69-.45.83-.2.3-.42.46-.66.47-.47.01-.87-.1-1.22-.34-.14-.01-.4-.04-.77-.06h-.19c.3.37.46.7.49.98v.04c.61-.07,1.03-.13,1.26-.17.23-.04.49-.14.79-.3.6.14,1.02.26,1.28.36.54.2.96.47,1.26.81.06.07.09.15.09.23,0,.16-.1.32-.29.48-.19.16-.39.24-.61.24-.38-.01-.99-.01-1.83,0-.16,0-.78.07-1.88.21-.03,1.02-.11,1.84-.23,2.45-.09.4-.28.75-.59,1.04s-.65.45-1.03.45c-.2,0-.36-.1-.49-.3-.07-.1-.15-.49-.23-1.17-.06-.45-.07-1.17-.04-2.13-1.81.23-2.81.33-3.03.32-.55-.04-1.06-.21-1.52-.51-.46-.3-.69-.56-.69-.79,0-.11.07-.18.21-.21.67-.17,2.35-.41,5.05-.72v-.04c0-.31-.04-.68-.11-1.11h-.11ZM192.46,37.32c-.01-.28-.04-.54-.09-.77-.68.11-1.06.17-1.13.17-.38,0-.74-.11-1.07-.32-.27-.17-.43-.33-.47-.47-.03-.17.11-.31.43-.43.78-.28,1.89-.55,3.33-.79,1.37-.21,2.54-.34,3.54-.38l.38-.34c.26.04.67.21,1.24.51.65.36,1.02.65,1.11.9.04.16-.04.32-.26.48-.21.16-.6.17-1.17.03-.09-.03-.29-.04-.62-.02-.33,0-.5.01-.51.04,0,.07-.03.27-.09.6.87-.04,1.61.09,2.22.38.7.34,1.08.73,1.15,1.17.06.36-.01.57-.21.64-.16.31-.31.63-.47.94-.34.64-.63,1.02-.87,1.15-.45.23-.8.33-1.02.3-.63-.1-1.08-.34-1.36-.73-.97.06-2.45.29-4.46.7-.01.09-.04.17-.09.26-.07.16-.29.23-.66.23-.31,0-.55-.04-.7-.12s-.36-.34-.6-.78c-.2-.4-.41-.6-.64-.6,0-.13-.01-.29-.04-.49-.27-.73-.41-1.51-.41-2.35,0-.4.05-.59.15-.58.37.06.74.18,1.11.36.46.21.71.43.77.66v.02c.41-.13.92-.26,1.51-.41ZM192.52,39.77c-.04-.34-.06-.77-.04-1.28-.47.14-.85.28-1.15.41.13.3.28.64.45,1.02.2-.04.45-.09.75-.15ZM191.78,43.25c.06.13.11.29.17.47,1.04-.2,2.08-.38,3.14-.53.24,0,.41-.01.49-.04.38.04.8.2,1.26.47.1-.24.16-.44.17-.61.01-.16.04-.32.06-.48.01-.16-.01-.23-.09-.23-.8-.04-2.11.15-3.95.58-.33.1-.75.23-1.26.38ZM192.39,44.98c.09.17.16.35.23.53.94-.13,1.66-.22,2.15-.28.04,0,.11-.02.19-.05s.19-.05.32-.03c.13.02.33.06.62.15.26-.27.45-.57.58-.9-.37-.07-.6-.11-.7-.11-.27.04-1.4.27-3.39.68ZM193.67,36.36c.16.17.29.37.41.6.41-.09.8-.16,1.15-.21.04-.27.07-.48.09-.62-.51.07-1.06.15-1.64.24ZM194.25,38.02c.04.48.06.97.04,1.47l.68-.11c-.04-.26,0-.76.11-1.51-.29.04-.56.09-.83.15ZM196.89,37.75c-.1.63-.16,1.09-.19,1.39.43-.06.68-.09.77-.11.1,0,.2.02.3.06.31-.41.47-.75.47-1,0-.09-.04-.15-.11-.19-.16-.11-.48-.16-.96-.15h-.28Z"/>
    <path class="cls-1" d="M57.82,33.02l-4.73-12.98,5.46-1.99,3.99,5.01c.15.19.35.44.58.75s.47.64.72.97c.24.33.45.63.63.89l.13-.05c-.02-.28-.04-.61-.07-.98-.03-.38-.06-.76-.08-1.17-.03-.4-.05-.77-.07-1.09l-.17-6.4,5.33-1.94,4.73,12.98-3.57,1.3-2.23-6.12c-.15-.4-.3-.83-.45-1.27-.15-.44-.3-.86-.42-1.25s-.22-.69-.29-.91l-.15.06c.02.24.04.55.07.93s.06.77.09,1.16c.03.39.04.73.05,1.01l.15,7.57-3.14,1.14-4.76-5.89c-.21-.25-.43-.53-.66-.84s-.45-.61-.65-.91c-.2-.3-.38-.55-.52-.75l-.15.06c.1.25.23.56.38.94.15.38.3.78.47,1.21.17.42.32.83.47,1.22l2.23,6.12-3.36,1.23Z"/>
    <path class="cls-1" d="M77.59,26.16l-3.93-13.25,3.68-1.09,3.93,13.25-3.68,1.09Z"/>
    <path class="cls-1" d="M84.51,24.06l-3.27-13.42,3.32-.81,7.44,4.81c.14.08.32.19.53.34s.43.3.65.45c.22.15.4.29.54.41l.13-.05c-.06-.25-.13-.53-.21-.84s-.15-.58-.21-.82l-1.49-6.1,3.52-.86,3.27,13.42-3.3.8-7.55-4.89c-.29-.19-.6-.39-.9-.61s-.56-.39-.76-.54l-.13.05c.06.19.13.44.2.73.07.29.14.58.21.87l1.51,6.19-3.5.85Z"/>
    <path class="cls-1" d="M109.06,18.92c-2.47.43-4.44.18-5.9-.76-1.47-.94-2.41-2.6-2.82-4.98-.27-1.56-.18-2.91.28-4.07.46-1.16,1.25-2.1,2.38-2.84,1.13-.74,2.55-1.25,4.25-1.55,1.04-.18,2.04-.25,2.99-.2.95.05,1.8.23,2.56.52s1.38.73,1.87,1.29c.49.57.81,1.28.96,2.14l-3.68.65c-.06-.37-.22-.68-.47-.92s-.55-.42-.92-.54c-.37-.12-.78-.19-1.23-.2s-.92.02-1.41.1c-.7.12-1.31.31-1.84.57s-.95.58-1.27.98c-.32.4-.53.85-.64,1.36-.11.51-.11,1.07,0,1.69l.12.67c.15.87.44,1.56.86,2.07.42.51.97.85,1.64,1.02.67.17,1.46.17,2.37.01.77-.13,1.42-.34,1.97-.62.55-.28.96-.62,1.22-1.01.26-.39.36-.83.27-1.3l-.02-.1-4.2.74-.44-2.54,7.9-1.39,1.32,7.53-2.22.39-.62-1.46c-.38.47-.83.89-1.35,1.26-.52.36-1.1.67-1.75.91-.65.24-1.37.43-2.18.58Z"/>
    <path class="cls-1" d="M125.11,16.27l-.63-5.45-7.03-7.57,4.46-.52,4.15,4.72.14-.02,2.96-5.55,4.26-.5-5.09,8.97.63,5.45-3.84.45Z"/>
    <path class="cls-1" d="M144.25,14.76c-1.58.1-2.92-.06-4.03-.47-1.11-.41-1.96-1.05-2.57-1.94-.61-.88-.95-1.99-1.03-3.31l-.49-7.87,3.85-.24.48,7.75c.07,1.06.41,1.86,1.03,2.42.62.55,1.47.8,2.55.73,1.1-.07,1.92-.41,2.47-1.04.55-.63.8-1.47.73-2.52l-.48-7.75,3.83-.24.49,7.87c.08,1.32-.12,2.46-.61,3.41-.49.95-1.26,1.7-2.3,2.24-1.04.54-2.35.86-3.93.96Z"/>
    <path class="cls-1" d="M154.81,13.97l-.17-13.82,12.91-.15.04,2.92-9.07.11.03,2.45,7.92-.09.03,2.86-7.92.09.03,2.65,9.21-.11.03,2.94-13.05.16Z"/>
    <path class="cls-1" d="M179.78,14.18l.53-10.69-5.24-.26.15-3.11,14.3.7-.15,3.11-5.22-.26-.52,10.69-3.84-.19Z"/>
    <path class="cls-1" d="M191.13,14.81l1.34-13.75,12.85,1.25-.28,2.9-9.03-.88-.24,2.44,7.89.77-.28,2.84-7.89-.77-.26,2.64,9.17.89-.28,2.92-12.99-1.26Z"/>
    <path class="cls-1" d="M206.94,16.37l2.15-13.65,5.74.9,1.06,6.32c.04.24.09.55.15.94.05.39.11.79.16,1.2.05.41.09.77.12,1.09l.14.02c.12-.25.26-.55.42-.89s.32-.7.49-1.06c.17-.37.33-.69.47-.98l2.95-5.68,5.6.88-2.15,13.65-3.76-.59,1.01-6.44c.07-.42.14-.87.22-1.33.08-.46.16-.89.23-1.3.08-.4.14-.71.19-.94l-.16-.03c-.1.21-.23.5-.39.84s-.32.7-.48,1.05c-.17.35-.31.66-.45.91l-3.54,6.69-3.3-.52-1.31-7.45c-.06-.32-.12-.67-.17-1.05-.06-.38-.1-.75-.13-1.11s-.06-.66-.09-.91l-.16-.03c-.03.27-.07.6-.13,1.01s-.11.83-.17,1.29c-.06.45-.12.88-.18,1.29l-1.01,6.44-3.54-.56Z"/>
    <path class="cls-1" d="M227.6,19.81l3.02-13.48,8.91,1.99c.9.2,1.64.57,2.21,1.09.57.53.96,1.17,1.17,1.92.21.75.21,1.58.01,2.49-.2.9-.56,1.66-1.08,2.26-.52.61-1.16,1.02-1.91,1.25-.75.23-1.58.24-2.48.04l-5.1-1.14-.99,4.42-3.75-.84ZM232.98,13.39l4.14.93c.58.13,1.04.08,1.4-.15.36-.23.6-.61.72-1.15.08-.37.09-.69.01-.97-.08-.28-.23-.51-.45-.7-.23-.19-.53-.33-.93-.41l-4.14-.93-.76,3.38Z"/>
    <path class="cls-1" d="M243.07,23.39l3.78-13.29,3.7,1.05-2.92,10.27,7.64,2.17-.86,3.02-11.34-3.22Z"/>
    <path class="cls-1" d="M256.58,27.31l4.62-13.02,12.17,4.32-.98,2.75-8.55-3.03-.82,2.31,7.47,2.65-.95,2.69-7.47-2.65-.89,2.5,8.68,3.08-.98,2.77-12.3-4.36Z"/>
    <path class="cls-1" d="M51.29,153.6l5.77-12.56,5.28,2.43-.69,6.37c-.02.24-.06.56-.11.94-.05.39-.11.79-.17,1.19-.06.41-.12.77-.18,1.08l.13.06c.18-.21.4-.46.64-.75.24-.29.5-.58.76-.89.27-.31.51-.58.72-.82l4.38-4.67,5.15,2.37-5.77,12.56-3.46-1.59,2.72-5.92c.18-.39.37-.8.57-1.22.2-.42.39-.82.58-1.18.18-.37.33-.65.44-.85l-.15-.07c-.16.18-.36.42-.6.71-.25.29-.5.59-.75.88-.26.3-.48.55-.68.75l-5.22,5.48-3.03-1.39.76-7.53c.03-.33.07-.68.12-1.06s.11-.75.18-1.1c.07-.35.12-.65.16-.9l-.15-.07c-.1.25-.23.56-.4.93-.17.38-.34.77-.51,1.19-.18.42-.35.82-.53,1.2l-2.72,5.92-3.25-1.5Z"/>
    <path class="cls-1" d="M69.38,161.71l10.13-11.15,4.19,1.43,1.24,15.02-3.92-1.34-.15-2.49-6.11-2.08-1.64,1.88-3.73-1.27ZM76.71,158.77l4,1.36-.14-3.07c0-.16,0-.35-.01-.59s0-.49,0-.76c0-.27,0-.53,0-.79s0-.46,0-.62l-.13-.05c-.15.2-.34.44-.55.72-.21.27-.42.54-.62.8-.2.26-.37.48-.52.65l-2.01,2.33Z"/>
    <path class="cls-1" d="M88.84,167.99l2.8-10.33-5.07-1.38.82-3.01,13.82,3.75-.82,3.01-5.05-1.37-2.81,10.33-3.71-1.01Z"/>
    <path class="cls-1" d="M106.43,172.47c-1.68-.35-3.04-.89-4.07-1.65-1.03-.75-1.73-1.71-2.09-2.86-.37-1.16-.39-2.52-.07-4.08.47-2.29,1.48-3.89,3.04-4.81,1.56-.92,3.58-1.12,6.08-.61,1.38.28,2.55.75,3.53,1.41.97.66,1.67,1.47,2.1,2.42.43.96.52,2.03.28,3.21l-3.68-.75c.12-.58.08-1.1-.12-1.56-.2-.47-.53-.86-.99-1.18-.46-.32-1.04-.55-1.74-.69-.84-.17-1.57-.16-2.19.03-.62.19-1.13.55-1.52,1.06-.39.51-.67,1.16-.83,1.93l-.14.67c-.16.77-.16,1.48,0,2.1.16.63.48,1.16.97,1.58.49.43,1.14.73,1.97.9.75.15,1.41.18,1.99.08.57-.1,1.04-.32,1.41-.67.36-.34.6-.8.72-1.36l3.57.73c-.24,1.16-.73,2.09-1.48,2.8-.75.71-1.7,1.17-2.84,1.4-1.15.22-2.44.19-3.89-.11Z"/>
    <path class="cls-1" d="M116.37,174.15l1.91-13.68,3.8.53-.72,5.18,6.89.96.72-5.18,3.8.53-1.91,13.69-3.8-.53.76-5.42-6.89-.96-.76,5.42-3.8-.53Z"/>
    <path class="cls-1" d="M134.36,176.59l1.02-13.78,5.8.43,1.58,6.21c.06.23.14.54.23.92.09.38.17.78.26,1.18.08.4.16.76.21,1.07h.14c.1-.25.21-.56.34-.91.13-.35.26-.72.41-1.1.14-.38.27-.72.39-1.02l2.47-5.91,5.66.42-1.01,13.78-3.79-.28.48-6.5c.03-.43.07-.87.11-1.34s.08-.9.13-1.31.08-.72.11-.95h-.16c-.08.21-.19.5-.32.86-.13.36-.26.72-.39,1.09-.14.37-.26.68-.37.94l-2.97,6.96-3.33-.25-1.92-7.32c-.08-.32-.17-.66-.26-1.04-.09-.38-.16-.74-.22-1.1-.06-.35-.12-.65-.17-.9h-.16c0,.26-.02.6-.04,1-.02.41-.05.84-.07,1.3-.02.46-.05.89-.08,1.31l-.48,6.5-3.57-.26Z"/>
    <path class="cls-1" d="M153.97,177.95l6.18-13.73,4.42.06,5.83,13.9-4.14-.06-.91-2.33-6.46-.09-.98,2.3-3.94-.05ZM160.03,172.88l4.22.06-1.09-2.87c-.05-.15-.12-.33-.19-.56s-.16-.46-.24-.72-.16-.51-.24-.75c-.08-.24-.14-.44-.19-.59h-.14c-.08.24-.19.52-.3.85s-.23.64-.34.95c-.11.31-.21.57-.29.78l-1.19,2.84Z"/>
    <path class="cls-1" d="M172.35,178.11l-.55-13.81,3.84-.15.26,6.41,6.24-6.67,4.82-.19-5.52,5.9,6.19,7.9-4.68.19-4.17-5.53-2.72,2.52.13,3.28-3.84.15Z"/>
    <path class="cls-1" d="M189.9,177.3l-1.29-13.76,12.86-1.2.27,2.9-9.03.85.23,2.44,7.89-.74.27,2.84-7.89.74.25,2.64,9.17-.86.27,2.92-13,1.22Z"/>
    <path class="cls-1" d="M205.76,175.74l-2.06-13.66,9.65-1.45c1.01-.15,1.87-.08,2.59.21s1.3.74,1.73,1.36c.43.61.71,1.32.83,2.11.13.87.05,1.69-.25,2.45-.3.76-.81,1.39-1.53,1.91l3.58,4.89-4.28.64-2.97-4.33-4.2.63.7,4.67-3.8.57ZM208.44,167.67l4.85-.73c.49-.07.86-.29,1.1-.63.25-.35.33-.79.25-1.32-.05-.33-.16-.61-.33-.83-.17-.22-.38-.38-.64-.47s-.55-.12-.89-.07l-4.85.73.5,3.32Z"/>
    <path class="cls-1" d="M234.62,170.72c-2.44.58-4.42.45-5.94-.4-1.52-.85-2.56-2.45-3.12-4.8-.37-1.54-.36-2.9.03-4.08s1.12-2.17,2.21-2.98c1.08-.8,2.47-1.41,4.15-1.81,1.03-.25,2.02-.37,2.97-.38.95,0,1.81.12,2.59.36.78.25,1.43.64,1.95,1.18s.88,1.23,1.09,2.08l-3.64.87c-.09-.36-.26-.66-.52-.89-.26-.23-.58-.39-.95-.49-.38-.1-.79-.14-1.24-.13-.45.01-.92.08-1.4.19-.69.17-1.29.39-1.8.68-.51.29-.91.64-1.21,1.05-.29.42-.48.88-.56,1.39-.08.51-.04,1.08.1,1.69l.16.67c.21.86.54,1.53.99,2.02.45.48,1.02.79,1.7.92.68.13,1.47.08,2.37-.13.76-.18,1.4-.43,1.93-.74.53-.31.92-.67,1.16-1.08.24-.41.3-.85.19-1.32l-.02-.1-4.15.99-.6-2.5,7.8-1.86,1.78,7.43-2.19.52-.71-1.42c-.35.5-.77.94-1.27,1.34-.5.39-1.06.73-1.69,1.01-.63.28-1.34.52-2.14.71Z"/>
    <path class="cls-1" d="M253.15,165.55c-1.59.52-3.06.7-4.39.56-1.33-.15-2.47-.62-3.42-1.43-.95-.8-1.67-1.95-2.15-3.43-.48-1.48-.57-2.82-.27-4.03.3-1.21.94-2.26,1.94-3.16.99-.89,2.29-1.6,3.88-2.12,1.62-.53,3.09-.72,4.41-.58,1.32.14,2.46.61,3.41,1.42.95.8,1.67,1.95,2.15,3.43.48,1.48.57,2.82.27,4.03s-.94,2.26-1.92,3.16c-.98.9-2.29,1.61-3.91,2.14ZM252.25,162.78c.62-.2,1.16-.47,1.59-.8.43-.33.78-.71,1.02-1.15.25-.43.39-.91.42-1.43.04-.52-.04-1.07-.23-1.64l-.21-.65c-.19-.57-.45-1.06-.78-1.46-.33-.4-.73-.7-1.18-.91-.45-.21-.95-.31-1.5-.32-.55,0-1.13.09-1.76.3-.61.2-1.14.46-1.58.79-.44.33-.79.71-1.03,1.14-.24.43-.38.9-.41,1.42-.03.52.05,1.06.24,1.64l.21.65c.19.57.44,1.06.77,1.46.33.4.72.71,1.16.91.45.21.95.32,1.5.33.55.01,1.14-.08,1.75-.28Z"/>
    <path class="cls-1" d="M263.67,161.7l-5.46-12.69,6.21-2.67c1.47-.63,2.82-.93,4.06-.92,1.24.02,2.34.38,3.3,1.09.96.7,1.74,1.76,2.34,3.16s.83,2.7.68,3.88c-.15,1.18-.64,2.23-1.48,3.15-.84.92-1.99,1.7-3.46,2.33l-6.21,2.67ZM266.04,157.49l2.55-1.1c.54-.23,1-.52,1.37-.85.37-.33.64-.71.82-1.12.18-.41.26-.86.23-1.35-.03-.48-.15-.99-.38-1.52l-.26-.61c-.23-.54-.51-.99-.85-1.33-.33-.35-.71-.6-1.14-.76-.43-.16-.89-.22-1.38-.18s-1.01.17-1.56.41l-2.55,1.1,3.15,7.32Z"/>
    <path class="cls-1" d="M104.62,138.06c-.72,0-1.39-.05-2.01-.14s-1.17-.26-1.64-.48c-.47-.23-.83-.55-1.1-.96-.27-.41-.4-.92-.4-1.54v-.08s0-.06.01-.1h3.03s-.01.07-.01.1v.09c0,.27.08.48.23.62.15.14.37.24.65.29.28.05.59.08.94.08.14,0,.29,0,.44,0,.15,0,.3-.02.44-.04s.27-.06.39-.1.21-.11.28-.18c.07-.08.1-.17.1-.29,0-.17-.09-.3-.26-.4-.17-.09-.41-.17-.72-.23-.31-.06-.64-.11-1.02-.17-.37-.05-.76-.12-1.16-.2-.4-.08-.79-.19-1.17-.32-.38-.13-.72-.3-1.02-.53-.3-.22-.54-.5-.72-.83-.18-.33-.27-.74-.27-1.21,0-.54.13-1,.38-1.37.26-.38.6-.68,1.04-.92.44-.23.94-.41,1.5-.51.57-.11,1.15-.16,1.76-.16s1.22.05,1.77.16,1.04.28,1.47.5.76.52,1,.88.36.79.36,1.31v.16h-3v-.05c0-.17-.05-.33-.15-.47-.1-.14-.26-.26-.47-.34-.22-.08-.5-.13-.86-.13s-.64.03-.87.08c-.23.05-.41.13-.52.22-.12.09-.18.2-.18.3,0,.16.09.29.27.39.18.1.42.18.72.24.3.06.64.12,1.02.18.38.05.77.12,1.17.19.4.07.79.17,1.16.29.37.12.71.29,1.02.5.3.21.55.47.72.79.18.32.26.7.26,1.16,0,.76-.2,1.38-.6,1.86-.4.47-.94.82-1.63,1.04-.69.22-1.47.33-2.34.33Z"/>
    <path class="cls-1" d="M115.81,138.06c-1.12,0-2.06-.16-2.83-.48-.76-.32-1.34-.8-1.73-1.43s-.59-1.41-.59-2.33v-5.17h3.15v5.07c0,.63.17,1.13.51,1.51.34.38.83.57,1.47.57s1.14-.19,1.48-.57c.34-.38.51-.88.51-1.51v-5.07h3.15v5.17c0,.92-.19,1.7-.58,2.33-.39.63-.96,1.11-1.72,1.43-.76.32-1.7.48-2.82.48Z"/>
    <path class="cls-1" d="M122.93,137.9v-9.26h2.72l3.73,3.59c.06.06.15.16.27.29.12.13.24.26.36.4s.23.25.31.34h.09v-4.63h2.91v9.26h-2.69l-3.79-3.67c-.17-.17-.33-.34-.49-.5-.16-.17-.29-.31-.41-.44l-.09.02c0,.14.01.32.01.52v4.08h-2.92Z"/>
    <path class="cls-1" d="M138.47,137.9v-9.26h4.68l1,3.32c.05.15.12.36.19.61.07.26.14.52.22.81.07.28.13.54.19.76h.09c.05-.19.1-.41.17-.66s.14-.51.22-.79c.08-.27.14-.52.21-.73l1-3.32h4.52v9.26h-3.08v-3.69c0-.29,0-.6,0-.93,0-.32.01-.63.02-.93,0-.3.01-.56.01-.76h-.11c-.05.19-.1.41-.17.67s-.14.52-.21.77-.14.47-.2.65l-1.32,4.22h-2.58l-1.33-4.22c-.07-.23-.15-.48-.22-.74s-.14-.51-.2-.75c-.06-.24-.11-.44-.15-.6h-.11c0,.19.02.43.03.71,0,.29.02.6.02.93s0,.66,0,.98v3.69h-2.88Z"/>
    <path class="cls-1" d="M158.12,138.06c-1.16,0-2.15-.19-2.99-.56-.83-.37-1.48-.92-1.92-1.63-.45-.71-.67-1.58-.67-2.6s.22-1.9.67-2.62c.45-.71,1.09-1.25,1.92-1.62s1.83-.55,2.99-.55,2.17.18,3,.55c.83.37,1.47.91,1.92,1.62.45.71.67,1.58.67,2.62s-.22,1.89-.67,2.6c-.45.71-1.09,1.26-1.92,1.63-.83.37-1.83.56-3,.56ZM158.12,135.8c.38,0,.71-.05,1-.16s.54-.26.75-.47c.21-.2.36-.44.46-.71s.15-.58.15-.91v-.59c0-.32-.05-.62-.15-.89s-.26-.51-.46-.71c-.21-.2-.45-.35-.75-.46-.29-.11-.63-.16-1-.16s-.7.05-1,.16c-.3.11-.54.26-.75.46-.2.2-.35.43-.46.71-.1.27-.15.57-.15.89v.59c0,.33.05.63.15.91.1.27.26.51.46.71.2.2.45.36.75.47s.63.16,1,.16Z"/>
    <path class="cls-1" d="M170.51,138.06c-1.16,0-2.15-.19-2.99-.56-.83-.37-1.48-.92-1.92-1.63-.45-.71-.67-1.58-.67-2.6s.22-1.9.67-2.62c.45-.71,1.09-1.25,1.92-1.62.83-.37,1.83-.55,2.99-.55s2.17.18,3,.55c.83.37,1.47.91,1.92,1.62.45.71.67,1.58.67,2.62s-.22,1.89-.67,2.6c-.45.71-1.09,1.26-1.92,1.63-.83.37-1.83.56-3,.56ZM170.51,135.8c.38,0,.71-.05,1-.16s.54-.26.75-.47c.21-.2.36-.44.46-.71s.15-.58.15-.91v-.59c0-.32-.05-.62-.15-.89s-.26-.51-.46-.71c-.21-.2-.45-.35-.75-.46-.29-.11-.63-.16-1-.16s-.7.05-1,.16c-.3.11-.54.26-.75.46-.2.2-.35.43-.46.71-.1.27-.15.57-.15.89v.59c0,.33.05.63.15.91.1.27.26.51.46.71.2.2.45.36.75.47s.63.16,1,.16Z"/>
    <path class="cls-1" d="M177.71,137.9v-9.26h2.72l3.73,3.59c.06.06.15.16.27.29s.24.26.36.4c.12.14.23.25.31.34h.09v-4.63h2.91v9.26h-2.69l-3.79-3.67c-.17-.17-.33-.34-.49-.5-.16-.17-.29-.31-.41-.44l-.09.02c0,.14.01.32.01.52v4.08h-2.92Z"/>
    <path class="cls-1" d="M193.25,137.9v-9.26h3.15v6.79h5.38v2.46h-8.53Z"/>
    <path class="cls-1" d="M202.16,137.9l3.93-9.26h3.57l3.93,9.26h-3.36l-.47-1.26h-3.89l-.46,1.26h-3.24ZM206.68,134.44h2.26l-.54-1.52c-.04-.09-.08-.2-.12-.34s-.09-.28-.14-.44c-.05-.16-.1-.32-.14-.48s-.09-.3-.14-.43h-.09c-.05.16-.1.34-.17.54-.07.2-.13.4-.2.61s-.13.38-.19.55l-.54,1.52Z"/>
    <path class="cls-1" d="M214.68,137.9v-9.26h3.15v4.02l3.89-4.02h3.9l-3.7,3.79,3.79,5.46h-3.78l-2.29-3.47-1.82,1.59v1.88h-3.15Z"/>
    <path class="cls-1" d="M226.97,137.9v-9.26h8.95v2.26h-5.8v1.24h4.98v2.15h-4.98v1.35h5.89v2.26h-9.04Z"/>
  </g>
</svg>