<?xml version="1.0" encoding="UTF-8"?>
<svg id="_圖層_2" data-name="圖層 2" xmlns="http://www.w3.org/2000/svg" width="348.91" height="178.11" viewBox="0 0 348.91 178.11">
  <defs>
    <style>
      .cls-1 {
        fill: #092a31;
      }
    </style>
  </defs>
  <g id="_圖層_2-2" data-name=" 圖層 2">
    <g id="icon">
      <g>
        <g>
          <g>
            <path class="cls-1" d="M25.03,41.76c-6.49.97-10.08,1.39-10.77,1.29-.24-.03-.56-.13-.97-.32-.54,2.49-1.15,4.48-1.85,5.95-.46.91-1.5,2.6-3.14,5.07-.67.99-1.8,1.94-3.38,2.85-.43.24-.79.36-1.09.36-.48,0-.59-.27-.32-.8l1.93-4.78c.56-1.42,1.18-3.74,1.85-6.96.64-3.03,1.05-5.43,1.21-7.2.32-3.4.48-6.04.48-7.92,0-.83-.14-1.74-.42-2.73s-.42-1.7-.42-2.13c0-.99.28-1.38.84-1.17.7.24,1.41.48,2.13.72.88.35,1.59.72,2.13,1.13,5.31-2.68,9.11-4.03,11.42-4.06,1.1-.03,2.48.52,4.14,1.65,1.58,1.05,2.51,1.93,2.77,2.65.11.29.16.59.16.88,0,.86-.36,1.38-1.09,1.57,0,.05.01.83.04,2.33.05,1.69.08,2.76.08,3.22l.32,18.73v.88c.03.35.04.64.04.88,0,2.01-.71,3.18-2.13,3.5-.32.08-.64.12-.97.12-1.07,0-2.21-.5-3.42-1.49-.99-.94-1.98-1.88-2.98-2.81-1.15-1.07-2.3-2.14-3.46-3.22-1.45-1.42-2.79-2.9-4.02-4.42-.13-.16-.2-.32-.2-.48,0-.37.25-.56.76-.56.13,0,.23.03.28.08,1.47,1.18,2.95,2.36,4.42,3.54,1.93,1.45,3.46,2.21,4.58,2.29.03,0,.1.02.22.06.12.04.21.06.26.06.21,0,.34-.21.36-.64.08-1.02.13-3.72.16-8.12h.05ZM13.93,39.31c2.81-.4,5.8-.99,8.96-1.77l.6-.4c.54.05,1.05.15,1.53.28,0-.8-.01-2.25-.04-4.34-2.44.51-5.95,1.27-10.53,2.29-.13,1.31-.31,2.63-.52,3.94ZM14.81,31.19c2.01-.48,4.92-1.21,8.72-2.17-.08,0,.07-.13.44-.4.32-.03.64,0,.97.08-.03-.75-.04-1.23-.04-1.45-.05-1.66-.21-2.53-.48-2.61-3.32.64-6.53,1.8-9.61,3.46.05.8.05,1.84,0,3.1h0Z"/>
            <path class="cls-1" d="M1.96,84.2c2.76-.78,6.34-1.63,10.73-2.57.32-.88.55-1.67.68-2.37.05-.38.11-.78.16-1.21-2.28.46-3.71.72-4.3.8-.99.16-2.17-.08-3.54-.72-1.02-.48-1.53-1.02-1.53-1.61,0-.16.05-.29.16-.4.35-.35,1.19-.71,2.53-1.09,1.8-.48,4.17-1.05,7.12-1.69.03-.51-.03-1.08-.16-1.71s-.2-1.09-.2-1.39c0-.86.6-1.22,1.81-1.09.67.08,1.43.44,2.29,1.07.86.63,1.51,1.29,1.97,1.99.99-.16,1.81-.25,2.45-.28.37-.03.74-.17,1.09-.44.35-.27.59-.4.72-.4.78,0,2.05.43,3.82,1.29.86-.94,1.34-1.49,1.45-1.65.48-.67.9-1.01,1.25-1.01.54,0,1.22.43,2.05,1.29.83.86,1.31,1.55,1.45,2.09.11.43-.16.88-.8,1.37-.97,1.02-2.6,2.73-4.91,5.15,1.53.13,3.1.6,4.7,1.41,1.61.8,2.32,1.47,2.13,2.01-.48,1.39-1.26,2.09-2.33,2.09-.46,0-.95-.09-1.49-.28-1.53-.54-4.06-.72-7.6-.56-3.32,3.4-5.71,5.78-7.16,7.12.56.62.98,1.17,1.25,1.65,1.8-1.34,3.43-2.77,4.91-4.3,1.15-1.21,1.78-1.96,1.89-2.25v-.88c.05-.43.28-.58.68-.44.54.13,1.29.56,2.25,1.29,1.13.8,1.66,1.42,1.61,1.85-.08.67-.36,1.23-.84,1.69-.59.62-1.17,1.22-1.73,1.81-1.02,1.02-1.97,1.76-2.85,2.21-.88.46-1.78.92-2.69,1.41-1.05.51-2.06.83-3.06.97-.13,1.72-.04,2.76.28,3.14.21.21,1.11.32,2.69.32,1.66,0,3.35-.11,5.07-.32,1.88-.24,2.94-.52,3.18-.82.24-.31.35-1.84.32-4.6,0-.67.13-1.01.4-1.01.32,0,.56.27.72.8.21.72.56,1.8,1.05,3.22.11.32.64.87,1.61,1.65.8.7,1.21,1.43,1.21,2.21,0,.24-.03.48-.08.72-.3,1.29-1.8,2.13-4.5,2.53-1.58.24-3.97.33-7.16.28-2.47-.03-4.14-.16-5.03-.4-1.37-.35-2.59-1.15-3.66-2.41-.94-1.07-1.33-3.48-1.17-7.24-1.13.97-3.02,2.41-5.67,4.34-.97.62-1.82,1.07-2.57,1.37-.83.35-1.42.63-1.77.84-1.05.62-1.88.78-2.49.48-.62-.32-.42-.88.6-1.69.94-.75,2.02-1.74,3.26-2.98,1.42-1.45,2.86-2.91,4.32-4.38,1.46-1.47,3.85-3.93,7.18-7.36l-.32.04c-.72.13-2.76.64-6.11,1.53-2.98.83-4.7,1.25-5.19,1.25-.56,0-1.3-.27-2.21-.8-.99-.59-1.49-1.15-1.49-1.69,0-.51.52-.91,1.57-1.21v-.03ZM19,80.59l1.13-.16,4.14-4.34c-.99.13-2.45.38-4.38.72-.16,1.58-.46,2.84-.88,3.78h-.01Z"/>
            <path class="cls-1" d="M28.63,146.04c-1.31.16-2.18.2-2.61.12-.19-.03-.38-.08-.56-.16-.3,3.35-.71,5.59-1.25,6.71-.4.86-.92,1.66-1.57,2.41-.86.94-1.64,1.41-2.33,1.41-.27,0-.4-.12-.4-.36,0-.13.04-.3.12-.48.35-.83.66-2.18.92-4.06h-1.49c-.75.03-1.89.15-3.42.36,0,1.8-.06,2.94-.18,3.44s-.46.89-1.01,1.19c-.55.29-1.05.44-1.51.44-.22,0-.34-.04-.36-.12-.16-.35-.24-1.26-.24-2.73,0-.29.03-.86.08-1.69-1.77.29-2.79.44-3.06.44-.3,0-.74-.22-1.35-.66-.6-.44-.9-.81-.9-1.11,0-.35.17-.58.52-.68,1.07-.32,2.71-.68,4.91-1.09v-1.45l-.2.04c-.24.46-.68.68-1.33.68-.21,0-.46-.05-.72-.16-.27-.11-.84-.86-1.73-2.25-.11-.16-.24-.68-.4-1.57-.21-.99-.34-1.85-.36-2.57-.08.59-.19,1.23-.32,1.93-.78,4.77-1.72,7.89-2.81,9.37-1.1,1.47-2,2.34-2.69,2.61-.91.32-1.41.36-1.49.12-.03-.11.08-.6.32-1.49.4-1.47.77-3.16,1.11-5.07.33-1.9.72-4.27,1.15-7.12.67-5.07.94-8.64.8-10.73-.75-.62-1.07-1.14-.97-1.57.13-.48,1.23-1.05,3.3-1.69,1.66-.56,4.53-1.21,8.6-1.93-.05-.4-.23-.74-.52-1.01-.4-.37-.62-.56-.64-.56-.19-.29-.28-.6-.28-.92,0-1.15.71-1.73,2.13-1.73,1.15,0,2.43.35,3.82,1.05,1.39.7,2.22,1.41,2.49,2.13,2.41-.27,4.54-.39,6.39-.36.27-.11.56-.2.88-.28.94.27,1.9.72,2.89,1.37,1.23.83,1.85,1.58,1.85,2.25,0,.19-.05.36-.16.52-.43.7-.99,1.05-1.69,1.05-.32,0-.96-.13-1.91-.38s-1.75-.38-2.39-.38c-3.97.03-8.62.64-13.95,1.85,1.47.8,2.18,1.47,2.13,2.01-.03.13-.04.29-.04.48.4-.11.67-.16.8-.16.32-.08.74-.03,1.25.14s1.03.36,1.57.54c.37.11.56.34.56.68,0,.3-.12.62-.36.99s-.79.61-1.65.74c-.56.08-1.29.24-2.17.48v1.25c.51-.11.86-.13,1.05-.08.67.19,1.41.52,2.23,1.01.82.48,1.29.87,1.43,1.17.27.7.39,1.21.36,1.53-.08.97-.42,2.11-1.03,3.44-.6,1.33-1.05,2.02-1.35,2.07-.78.13-1.19.19-1.25.16-.19-.05-.38-.16-.56-.32-.4.03-.87.08-1.41.16.24.24.38.74.4,1.49l1.25-.16c.16-.03.4-.12.72-.28.24-.11.43-.15.56-.12.35.13,1.21.63,2.57,1.49.32-2.63.56-5.6.72-8.93.13-3,.16-5.15.08-6.43,0-.21-.15-.55-.44-1.01-.11-.13-.12-.33-.04-.6.11-.24.23-.35.36-.32.48.11,1.05.35,1.69.72,2.55-1.42,4.14-2.18,4.78-2.29l.48-.24c.21-.08.44-.07.68.04.54.21,1.07.43,1.61.64.8.38,1.3.78,1.49,1.21.11.32.15.72.12,1.21-.05.88-.08,1.25-.08,1.09,0,13.24,0,19.82,0,19.74-.13,1.37-.51,2.08-1.13,2.13-1.15.08-1.92-.19-2.29-.82-.38-.63-.97-1.56-1.77-2.79-.35-.35-.97-1.14-1.85-2.37-.19-.29-.24-.55-.16-.76.05-.21.16-.25.32-.12,1.72,1.61,2.6,2.41,2.65,2.41s.08-.03.08-.08c.08-.7.12-2.77.12-6.23l.04-.04ZM13,134.62v-1.29s-.11-.29-.32-.96c-.08-.24.04-.56.36-.97-1.1.35-2.79.78-5.07,1.29.51.46.8.95.88,1.49.05.24.07.84.04,1.81.91-.35,2.28-.8,4.1-1.37h.01ZM9.38,140.77c.16-.11.86-.28,2.09-.52.88-.16,1.34-.48,1.37-.97l.04-1.17-1.21.36c-.13.03-.28.04-.44.04-.72,0-1.55-.21-2.49-.64-.05.72-.15,1.55-.28,2.49.08-.11.19-.12.32-.04.19.13.39.28.6.44h0ZM16.33,145.07c.83-1.66,1.25-3.08,1.25-4.26-.03-.43-.23-.62-.6-.56-.88.08-2.9.7-6.03,1.85.05.08.16.38.32.88.75-.21,1.76-.49,3.02-.84.03,0,.13-.05.3-.14s.31-.13.42-.1c.27.13.54.26.8.36.37.19.59.38.64.56.08.21.06.46-.06.74-.12.28-.32.44-.58.46l-3.94.88c.11.38.2.7.28.97.56-.08,1.96-.35,4.18-.8h0ZM25.82,137.19c1.37-.32,2.26-.55,2.69-.68-.03-1.21-.06-1.95-.1-2.23s-.17-.41-.38-.38c-.43.05-1.25.44-2.45,1.17.16.32.24,1.03.24,2.13h0ZM25.66,143.38c1.05-.11,1.93-.27,2.65-.48.08-.03.17-.04.28-.04v-3.06c-1.26.24-2.2.4-2.81.48-.03,1.05-.07,2.08-.12,3.1h0Z"/>
          </g>
          <g>
            <path class="cls-1" d="M335.43,49.46l-10.49,1h-.16c-.45.48-1.04.72-1.75.72-.24,0-.48-.03-.72-.08-.72-.19-1.49-.94-2.31-2.27-.66-1.04-1.12-1.97-1.36-2.79-.4-1.43-.89-4.67-1.48-9.69-.61-5.16-.86-8.58-.76-10.25-.11-.48-.19-1.17-.24-2.07.16-.9.48-1.28.96-1.12.85.24,1.65.59,2.39,1.04,6.75-2.45,12.18-3.67,16.28-3.67.66,0,1.28.04,1.83.12.88.13,2.17,1.08,3.87,2.83,1.78,1.84,2.87,3.5,3.27,4.99.05.16.08.29.08.4,0,.19-.09.4-.28.64s-.32.48-.4.72c-.45,3.24-.92,6.49-1.4,9.73-.93,6.22-1.79,9.83-2.59,10.81-.35.4-.77.6-1.28.6-.56,0-1.42-.27-2.59-.8-.35-.16-.64-.44-.88-.84v-.02ZM321.75,27.28c.08.59.31,2.58.68,5.98,6.3-.96,10.65-1.48,13.05-1.56.58-.03,1.46.36,2.63,1.16.32-3.51.4-6.09.24-7.74-.05-.48-1.22-.72-3.51-.72s-4.91.41-8.02,1.24c-2.42.61-4.11,1.16-5.07,1.63h0ZM324.34,45.63c4.31-.48,8.07-.78,11.29-.92.82-1.94,1.5-4.67,2.03-8.18-.75-.13-1.26-.2-1.56-.2-1.44.03-5.81.63-13.13,1.8.48,3.8.93,6.3,1.36,7.5h.01Z"/>
            <path class="cls-1" d="M337.22,88.88c-6.44.96-10,1.38-10.69,1.28-.24-.03-.56-.13-.96-.32-.53,2.47-1.14,4.44-1.84,5.9-.45.9-1.49,2.58-3.11,5.03-.66.98-1.78,1.93-3.35,2.83-.43.24-.79.36-1.08.36-.48,0-.59-.27-.32-.8l1.91-4.75c.56-1.41,1.17-3.71,1.84-6.9.64-3,1.04-5.39,1.2-7.14.32-3.38.48-6,.48-7.86,0-.82-.14-1.73-.42-2.71-.28-.98-.42-1.69-.42-2.11,0-.98.28-1.37.84-1.16.69.24,1.4.48,2.11.72.88.35,1.58.72,2.12,1.12,5.27-2.66,9.04-4,11.33-4.03,1.09-.03,2.46.52,4.11,1.64,1.57,1.04,2.49,1.91,2.75,2.63.11.29.16.59.16.88,0,.85-.36,1.37-1.08,1.56,0,.05.01.82.04,2.31.05,1.68.08,2.74.08,3.19l.32,18.59v.88c.03.35.04.64.04.88,0,1.99-.71,3.15-2.11,3.47-.32.08-.64.12-.96.12-1.06,0-2.19-.49-3.39-1.48-.98-.93-1.97-1.86-2.95-2.79-1.15-1.06-2.29-2.13-3.43-3.19-1.44-1.41-2.77-2.87-3.99-4.39-.13-.16-.2-.32-.2-.48,0-.37.25-.56.76-.56.13,0,.23.03.28.08,1.46,1.17,2.93,2.34,4.39,3.51,1.91,1.44,3.43,2.19,4.55,2.27.02,0,.1.02.22.06s.21.06.26.06c.21,0,.33-.21.36-.64.08-1.01.13-3.7.16-8.06h-.01ZM326.21,86.45c2.79-.4,5.76-.98,8.9-1.76l.6-.4c.53.05,1.04.15,1.52.28,0-.8-.01-2.23-.04-4.31-2.42.51-5.9,1.26-10.45,2.27-.13,1.3-.31,2.61-.52,3.91h0ZM327.09,78.39c1.99-.48,4.88-1.2,8.66-2.15-.08,0,.06-.13.44-.4.32-.03.64,0,.96.08-.03-.75-.04-1.22-.04-1.44-.05-1.65-.21-2.51-.48-2.59-3.3.64-6.48,1.78-9.53,3.43.05.8.05,1.82,0,3.07h0Z"/>
            <path class="cls-1" d="M318.97,138.67c-.29.03-.55.15-.78.36s-.45.43-.66.64c-.05-.05-.09-.11-.12-.16,0-.13.04-.31.12-.54s.15-.38.2-.46c-.64.11-1.34-.17-2.09-.84s-1.14-1.28-1.14-1.83c0-.16.04-.29.12-.4.29-.4,1.04-.94,2.25-1.62s2-1,2.37-.98c1.09.05,1.9.12,2.43.2.98.19,1.66.49,2.03.92.66.74,1,1.49,1,2.23,0,.69-.41,1.18-1.24,1.48-1.15.53-2.65.86-4.51,1h.02ZM315.94,150.28c.37.24.62.32.76.24.88-.56,2.45-2.66,4.71-6.3,2.13-3.46,3.2-5.17,3.23-5.15.13-.05.2,0,.2.16,0,.27-.17.84-.52,1.72-.45,1.14-.71,1.79-.76,1.95-.08.29-.12.59-.12.88,0,.27.17.93.52,1.99.08.27.12.59.12.96,0,1.25-.32,2.61-.96,4.07-.56,1.22-1.2,2.34-1.92,3.35-.61.85-.94,1.37-1,1.56-.26.91-.74,1.36-1.43,1.36-.64,0-1.36-.36-2.16-1.08-.72-.64-1.24-1.32-1.56-2.03-.13-.32-.2-.69-.2-1.12,0-.64.13-1.26.4-1.86.26-.6.49-.83.68-.7h.01ZM320.68,128.78c-.24,0-.66.16-1.28.48-.03-.16,0-.44.08-.84.05-.21-.01-.37-.2-.48-.51-.21-1.02-.65-1.53-1.32-.52-.66-.76-1.18-.74-1.56.05-.4.44-.8,1.16-1.2.72-.4,1.4-.62,2.03-.68,1.2-.13,2.59.28,4.19,1.24,1.73,1.01,2.51,2.09,2.35,3.23-.43,1.06-1.22,1.6-2.39,1.6-.4,0-1.01-.08-1.82-.24s-1.43-.24-1.86-.24h.01ZM335.05,145.37c.05.4-.07.65-.36.76-.88.35-1.7.4-2.47.16-.37-.11-.79-.44-1.24-1-.61-.69-.95-1.06-1-1.12-.24-.19-.58-.78-1.02-1.79s-.71-1.77-.82-2.27c-.45-2.66-.51-4.01-.16-4.07.51-.05.88-.05,1.12,0,.56.11,1.17.36,1.83.76,4.01-1.09,6.77-1.73,8.26-1.91,1.99-.24,3.47-.17,4.43.2,2.42.93,3.63,1.76,3.63,2.47,0,.08-.03.16-.08.24-.24.27-.4.72-.48,1.36-.21,1.46-.64,2.87-1.28,4.23-.37.77-.65,1.29-.84,1.56-.37.56-.79.85-1.24.88-.88.03-1.63-.19-2.27-.64-.27-.03-.75-.07-1.44-.12h-.36c.56.69.86,1.3.92,1.83v.08c1.14-.13,1.93-.24,2.35-.32s.92-.26,1.48-.56c1.12.27,1.92.49,2.39.68,1.01.37,1.79.88,2.35,1.52.11.13.16.28.16.44,0,.29-.18.59-.54.9-.36.31-.74.46-1.14.46-.72-.02-1.86-.02-3.43,0-.29,0-1.46.13-3.51.4-.05,1.92-.2,3.44-.44,4.59-.16.74-.53,1.4-1.1,1.95-.57.56-1.22.84-1.93.84-.37,0-.68-.19-.92-.56-.13-.19-.28-.92-.44-2.19-.11-.85-.13-2.18-.08-3.99-3.38.43-5.27.62-5.67.6-1.04-.08-1.99-.4-2.85-.96-.86-.56-1.3-1.05-1.3-1.48,0-.21.13-.35.4-.4,1.25-.32,4.4-.77,9.46-1.36v-.08c0-.58-.07-1.28-.2-2.07h-.2l.03-.02ZM333.69,127.78c-.03-.53-.08-1.01-.16-1.44-1.28.21-1.98.32-2.11.32-.72,0-1.38-.2-2-.6-.51-.32-.8-.61-.88-.88-.05-.32.21-.59.8-.8,1.46-.53,3.54-1.02,6.22-1.48,2.55-.4,4.76-.64,6.62-.72l.72-.64c.48.08,1.25.4,2.31.96,1.22.66,1.92,1.22,2.07,1.68.08.29-.08.59-.48.9-.4.31-1.13.33-2.19.06-.16-.05-.55-.07-1.16-.04-.61,0-.93.03-.96.08,0,.13-.05.51-.16,1.12,1.62-.08,3,.16,4.15.72,1.3.64,2.02,1.37,2.15,2.19.11.66-.03,1.06-.4,1.2-.29.59-.59,1.17-.88,1.76-.64,1.2-1.18,1.92-1.64,2.15-.85.43-1.49.61-1.92.56-1.17-.19-2.02-.64-2.55-1.36-1.81.11-4.59.55-8.34,1.32-.03.16-.08.32-.16.48-.13.29-.55.44-1.24.44-.59,0-1.02-.07-1.32-.22-.29-.15-.66-.63-1.12-1.46-.37-.75-.77-1.12-1.2-1.12,0-.24-.03-.55-.08-.92-.51-1.36-.76-2.82-.76-4.39,0-.74.09-1.1.28-1.08.69.11,1.38.33,2.07.68.85.4,1.33.81,1.44,1.24v.04c.77-.24,1.72-.49,2.83-.76h.05ZM333.81,132.37c-.08-.64-.11-1.44-.08-2.39-.88.27-1.6.52-2.15.76.24.56.52,1.2.84,1.92.37-.08.84-.17,1.4-.28h-.01ZM332.41,138.87c.11.24.21.53.32.88,1.94-.37,3.9-.71,5.87-1,.45,0,.76-.03.92-.08.72.08,1.5.37,2.35.88.19-.45.29-.83.32-1.14s.07-.61.12-.9c.03-.29-.03-.44-.16-.44-1.49-.08-3.95.28-7.38,1.08-.61.19-1.4.42-2.35.72h-.01ZM333.57,142.1c.16.32.31.65.44,1,1.76-.24,3.1-.41,4.03-.52.08,0,.2-.03.36-.1s.36-.09.6-.06c.24.03.62.12,1.16.28.48-.51.84-1.06,1.08-1.68-.69-.13-1.13-.2-1.32-.2-.51.08-2.62.51-6.34,1.28h0ZM335.97,125.98c.29.32.54.69.76,1.12.77-.16,1.49-.29,2.15-.4.08-.51.13-.89.16-1.16-.96.13-1.98.28-3.07.44ZM337.04,129.09c.08.9.11,1.82.08,2.75l1.28-.2c-.08-.48-.01-1.42.2-2.83-.53.08-1.05.17-1.56.28ZM341.99,128.58c-.19,1.17-.31,2.03-.36,2.59.8-.11,1.28-.17,1.44-.2.19,0,.37.04.56.12.58-.77.88-1.4.88-1.88,0-.16-.07-.28-.2-.36-.29-.21-.89-.31-1.79-.28h-.53Z"/>
          </g>
        </g>
        <g>
          <g>
            <g>
              <path class="cls-1" d="M56.15,37.06l-5.31-14.57,6.13-2.23,4.48,5.63c.17.21.39.49.66.84s.53.71.81,1.09c.27.37.51.71.71,1l.15-.05c-.02-.31-.04-.68-.08-1.1-.03-.42-.06-.86-.09-1.31-.03-.45-.05-.86-.07-1.22l-.19-7.19,5.98-2.18,5.31,14.57-4.01,1.46-2.5-6.87c-.16-.45-.33-.93-.51-1.43-.17-.5-.33-.96-.47-1.4s-.25-.78-.33-1.02l-.17.06c.02.27.04.61.08,1.04s.07.86.1,1.3c.03.44.05.82.05,1.13l.16,8.49-3.52,1.28-5.34-6.61c-.23-.28-.48-.6-.74-.94-.26-.35-.51-.69-.73-1.02-.23-.33-.42-.62-.58-.84l-.17.06c.12.28.26.63.42,1.06s.34.88.53,1.36c.19.48.36.93.52,1.37l2.5,6.87-3.78,1.38h0Z"/>
              <path class="cls-1" d="M78.34,29.36l-4.41-14.87,4.13-1.23,4.41,14.87s-4.13,1.23-4.13,1.23Z"/>
              <path class="cls-1" d="M86.1,27.01l-3.67-15.07,3.73-.91,8.36,5.4c.16.09.36.21.59.38s.48.34.73.51.45.32.61.46l.15-.06c-.07-.28-.15-.59-.24-.94s-.17-.66-.24-.92l-1.67-6.84,3.95-.96,3.67,15.07-3.71.9-8.47-5.49c-.33-.21-.67-.44-1.01-.68s-.63-.44-.86-.6l-.15.06c.07.22.14.49.22.82s.16.65.24.98l1.69,6.95-3.93.96v-.02Z"/>
              <path class="cls-1" d="M113.66,21.24c-2.77.49-4.98.2-6.63-.85-1.64-1.06-2.7-2.92-3.17-5.59-.31-1.75-.2-3.27.31-4.57.51-1.3,1.41-2.36,2.67-3.18,1.27-.83,2.86-1.41,4.77-1.74,1.17-.21,2.29-.28,3.35-.22,1.07.06,2.02.25,2.88.58s1.55.82,2.1,1.45c.55.64.91,1.44,1.07,2.4l-4.14.73c-.07-.42-.25-.76-.52-1.03s-.62-.48-1.04-.61c-.41-.13-.87-.21-1.38-.23s-1.04.02-1.58.12c-.79.14-1.47.35-2.06.64s-1.07.65-1.42,1.1c-.36.45-.6.95-.72,1.52-.12.57-.12,1.21,0,1.9l.13.76c.17.98.49,1.75.97,2.33.48.57,1.09.96,1.84,1.14.75.19,1.64.19,2.66.01.86-.15,1.6-.38,2.22-.7.62-.31,1.07-.69,1.37-1.13s.4-.93.31-1.46l-.02-.11-4.71.83-.5-2.85,8.87-1.56,1.48,8.45-2.49.44-.7-1.64c-.43.53-.93,1-1.52,1.41s-1.24.75-1.96,1.02-1.54.49-2.44.65h0Z"/>
              <path class="cls-1" d="M131.68,18.26l-.71-6.12-7.9-8.49,5-.58,4.66,5.3.16-.02,3.32-6.23,4.78-.56-5.72,10.07.71,6.12-4.31.5h0Z"/>
              <path class="cls-1" d="M153.16,16.57c-1.77.11-3.28-.06-4.52-.52-1.24-.46-2.2-1.18-2.88-2.17-.68-.99-1.07-2.23-1.16-3.72l-.55-8.83,4.33-.27.54,8.7c.07,1.19.46,2.09,1.15,2.71.69.62,1.65.89,2.87.82,1.23-.08,2.16-.47,2.78-1.17s.89-1.65.82-2.83l-.54-8.7,4.3-.27.55,8.83c.09,1.49-.14,2.76-.69,3.83s-1.41,1.9-2.58,2.51-2.64.97-4.41,1.08h0Z"/>
              <path class="cls-1" d="M165.01,15.68l-.19-15.51,14.49-.17.04,3.27-10.18.12.03,2.75,8.89-.11.04,3.21-8.89.11.04,2.98,10.34-.12.04,3.3-14.65.18h0Z"/>
              <path class="cls-1" d="M193.04,15.92l.59-12-5.89-.29.17-3.5,16.06.79-.17,3.5-5.86-.29-.59,12s-4.31-.21-4.31-.21Z"/>
              <path class="cls-1" d="M205.78,16.63l1.5-15.44,14.43,1.4-.32,3.26-10.14-.99-.27,2.74,8.85.86-.31,3.19-8.85-.86-.29,2.97,10.29,1-.32,3.28-14.58-1.42h.01Z"/>
              <path class="cls-1" d="M223.53,18.38l2.41-15.32,6.45,1.01,1.19,7.09c.05.27.1.62.17,1.05.06.44.12.88.18,1.34s.1.87.14,1.22l.16.02c.14-.28.29-.62.47-1s.36-.78.55-1.19c.19-.41.37-.78.53-1.11l3.31-6.38,6.29.99-2.41,15.32-4.22-.66,1.14-7.23c.07-.48.16-.97.25-1.49.09-.52.18-1,.26-1.46.09-.45.16-.8.21-1.05l-.18-.03c-.11.24-.26.56-.44.95s-.36.79-.54,1.18c-.19.4-.35.74-.5,1.02l-3.97,7.51-3.7-.58-1.47-8.37c-.07-.36-.13-.76-.19-1.18-.06-.43-.11-.84-.15-1.25s-.07-.74-.1-1.02l-.18-.03c-.03.3-.08.68-.14,1.13s-.13.94-.19,1.44c-.07.51-.13.99-.21,1.45l-1.14,7.23-3.97-.63v.03Z"/>
              <path class="cls-1" d="M246.73,22.24l3.39-15.14,10,2.24c1.01.23,1.84.64,2.48,1.23s1.08,1.31,1.31,2.16.24,1.78.01,2.79c-.23,1.01-.63,1.86-1.22,2.54-.58.68-1.3,1.15-2.14,1.41-.85.26-1.77.27-2.79.05l-5.73-1.28-1.11,4.96-4.21-.94v-.02ZM252.76,15.02l4.65,1.04c.65.15,1.17.09,1.58-.17.4-.26.67-.69.81-1.29.09-.41.1-.77.01-1.09-.08-.31-.25-.57-.51-.78-.25-.21-.6-.37-1.04-.46l-4.65-1.04-.85,3.79h0Z"/>
              <path class="cls-1" d="M264.08,26.25l4.24-14.92,4.15,1.18-3.28,11.53,8.58,2.44-.96,3.39-12.72-3.62h0Z"/>
              <path class="cls-1" d="M279.25,30.65l5.18-14.62,13.66,4.84-1.09,3.08-9.6-3.4-.92,2.6,8.38,2.97-1.07,3.02-8.38-2.97-1,2.81,9.75,3.46-1.1,3.11-13.81-4.9h0Z"/>
            </g>
            <g>
              <path class="cls-1" d="M48.99,150.53l6.47-14.09,5.93,2.72-.77,7.15c-.03.27-.07.62-.13,1.06s-.12.88-.19,1.34c-.07.46-.14.86-.2,1.21l.14.07c.21-.24.45-.51.72-.84.27-.32.56-.65.86-1,.3-.34.57-.65.81-.92l4.92-5.24,5.79,2.66-6.47,14.09-3.88-1.78,3.05-6.65c.2-.44.41-.89.64-1.37.23-.48.44-.92.65-1.33s.37-.73.49-.96l-.16-.08c-.18.2-.4.47-.68.8l-.84.99c-.29.33-.54.61-.76.84l-5.86,6.15-3.4-1.57.85-8.45c.03-.37.08-.76.14-1.19s.12-.84.2-1.24c.07-.4.13-.73.18-1.01l-.16-.07c-.11.28-.26.63-.45,1.05-.19.42-.38.87-.58,1.34s-.4.92-.59,1.34l-3.05,6.65-3.65-1.68h-.02Z"/>
              <path class="cls-1" d="M69.29,159.64l11.37-12.51,4.7,1.6,1.39,16.86-4.4-1.5-.17-2.8-6.86-2.34-1.84,2.12-4.19-1.43h0ZM77.52,156.34l4.49,1.53-.16-3.44c0-.18,0-.4-.01-.66s0-.55,0-.85v-1.57l-.15-.05c-.17.23-.38.5-.62.8-.24.31-.47.61-.7.89-.23.29-.42.53-.58.73l-2.25,2.62h-.02Z"/>
              <path class="cls-1" d="M91.14,166.68l3.15-11.59-5.69-1.55.92-3.38,15.51,4.21-.92,3.38-5.66-1.54-3.15,11.59-4.16-1.13h0Z"/>
              <path class="cls-1" d="M110.89,171.71c-1.89-.39-3.41-1-4.56-1.85-1.16-.84-1.94-1.91-2.35-3.21-.41-1.3-.43-2.82-.07-4.58.53-2.57,1.66-4.36,3.41-5.4,1.75-1.03,4.02-1.26,6.82-.69,1.55.32,2.87.85,3.96,1.58,1.09.74,1.88,1.64,2.36,2.72.48,1.07.58,2.27.31,3.6l-4.14-.85c.13-.65.09-1.23-.13-1.76-.22-.52-.59-.96-1.11-1.32-.52-.36-1.17-.62-1.95-.78-.94-.19-1.76-.18-2.46.04-.7.22-1.27.62-1.71,1.19-.44.58-.75,1.3-.93,2.17l-.15.75c-.18.87-.18,1.66,0,2.36.18.71.54,1.3,1.09,1.78.55.48,1.28.82,2.21,1.01.84.17,1.58.2,2.23.09s1.17-.36,1.58-.75c.41-.38.68-.89.81-1.53l4,.82c-.27,1.3-.82,2.34-1.66,3.14-.84.8-1.9,1.32-3.19,1.57s-2.74.21-4.37-.12v.02Z"/>
              <path class="cls-1" d="M122.04,173.6l2.14-15.36,4.27.6-.81,5.81,7.74,1.08.81-5.81,4.27.6-2.14,15.36-4.27-.6.85-6.08-7.74-1.08-.85,6.08-4.27-.6h0Z"/>
              <path class="cls-1" d="M142.24,176.34l1.14-15.47,6.51.48,1.77,6.97c.07.26.16.61.25,1.04.1.43.19.87.29,1.32.09.45.17.85.24,1.21h.16c.11-.28.24-.63.38-1.02.14-.4.29-.81.45-1.23.16-.43.3-.81.44-1.15l2.77-6.63,6.35.47-1.14,15.47-4.26-.31.54-7.3c.03-.48.08-.98.12-1.51s.09-1.02.14-1.47.09-.81.12-1.07h-.18c-.09.24-.21.56-.36.97-.14.4-.29.81-.44,1.22-.15.41-.29.76-.42,1.06l-3.34,7.81-3.74-.28-2.16-8.22c-.09-.35-.19-.74-.29-1.16-.1-.42-.18-.83-.25-1.23s-.13-.73-.19-1.01h-.18c0,.29-.02.67-.05,1.13s-.05.94-.07,1.45-.05,1-.09,1.47l-.54,7.29-4.01-.3h.04Z"/>
              <path class="cls-1" d="M164.25,177.86l6.94-15.42,4.97.07,6.54,15.6-4.65-.06-1.03-2.61-7.25-.1-1.1,2.58-4.42-.06h0ZM171.05,172.18l4.74.06-1.22-3.22c-.06-.17-.13-.37-.22-.62s-.18-.52-.27-.81-.18-.57-.27-.84c-.09-.27-.16-.49-.22-.66h-.16c-.09.27-.21.59-.34.95s-.26.72-.39,1.07c-.13.34-.23.64-.33.88l-1.33,3.19h.01Z"/>
              <path class="cls-1" d="M184.88,178.05l-.62-15.5,4.31-.17.29,7.2,7-7.49,5.41-.22-6.2,6.62,6.95,8.87-5.26.21-4.68-6.21-3.05,2.83.15,3.68-4.31.17h0Z"/>
              <path class="cls-1" d="M204.58,177.14l-1.45-15.44,14.43-1.35.31,3.26-10.14.95.26,2.74,8.86-.83.3,3.19-8.86.83.28,2.97,10.3-.96.31,3.28-14.59,1.37h0Z"/>
              <path class="cls-1" d="M222.39,175.39l-2.31-15.34,10.83-1.63c1.13-.17,2.1-.09,2.91.24s1.46.83,1.94,1.52.79,1.48.93,2.37c.15.98.05,1.9-.28,2.75-.34.85-.91,1.56-1.72,2.14l4.02,5.49-4.8.72-3.33-4.86-4.71.71.79,5.25-4.26.64h0ZM225.39,166.33l5.45-.82c.55-.08.96-.32,1.24-.71s.37-.88.28-1.48c-.06-.37-.18-.68-.37-.93s-.43-.42-.72-.53-.62-.13-.99-.08l-5.45.82.56,3.73Z"/>
              <path class="cls-1" d="M254.77,169.76c-2.74.65-4.96.5-6.67-.45-1.71-.95-2.87-2.75-3.5-5.38-.41-1.73-.4-3.25.03-4.58s1.26-2.44,2.48-3.34,2.77-1.58,4.66-2.03c1.16-.28,2.27-.42,3.33-.43s2.03.13,2.91.41c.87.28,1.6.72,2.18,1.32s.99,1.38,1.22,2.33l-4.08.98c-.1-.41-.29-.74-.59-1-.29-.26-.65-.44-1.07-.55-.42-.11-.89-.16-1.39-.14-.51,0-1.03.08-1.57.21-.78.19-1.45.44-2.02.76-.57.32-1.02.72-1.35,1.18-.33.47-.54.99-.62,1.57-.09.58-.05,1.21.12,1.9l.18.75c.23.97.6,1.72,1.11,2.26s1.14.89,1.91,1.03c.76.14,1.65.09,2.66-.15.85-.2,1.57-.48,2.17-.83s1.03-.76,1.3-1.22.34-.95.21-1.48l-.03-.11-4.66,1.11-.67-2.81,8.76-2.09,1.99,8.34-2.46.59-.8-1.6c-.39.56-.87,1.06-1.43,1.5s-1.19.82-1.9,1.14c-.71.32-1.51.58-2.4.79v.02Z"/>
              <path class="cls-1" d="M275.57,163.95c-1.79.58-3.43.79-4.92.63-1.49-.16-2.78-.7-3.84-1.6-1.07-.9-1.87-2.18-2.41-3.85-.54-1.66-.64-3.17-.31-4.53.33-1.36,1.06-2.54,2.17-3.54,1.11-1,2.57-1.79,4.36-2.38,1.82-.59,3.47-.81,4.95-.65s2.76.69,3.83,1.59c1.07.9,1.87,2.18,2.41,3.85.54,1.66.64,3.17.31,4.53-.33,1.36-1.05,2.54-2.16,3.55-1.11,1.01-2.57,1.81-4.38,2.4h0ZM274.56,160.84c.7-.23,1.3-.53,1.78-.9.49-.37.87-.8,1.15-1.29.28-.49.44-1.02.48-1.6s-.04-1.2-.25-1.84l-.24-.73c-.21-.64-.5-1.19-.88-1.64-.37-.45-.82-.79-1.33-1.02-.51-.23-1.07-.35-1.68-.36-.61,0-1.27.1-1.97.33-.69.22-1.28.52-1.78.89s-.88.79-1.15,1.28c-.27.48-.42,1.02-.45,1.6s.05,1.19.26,1.84l.24.73c.21.64.5,1.19.87,1.64s.8.79,1.31,1.02c.5.23,1.06.35,1.69.37.62,0,1.27-.09,1.96-.32h-.01Z"/>
              <path class="cls-1" d="M287.39,159.63l-6.13-14.25,6.97-3c1.64-.71,3.16-1.05,4.56-1.03,1.39.02,2.63.43,3.71,1.22,1.08.79,1.95,1.97,2.63,3.55s.93,3.03.77,4.35c-.17,1.33-.72,2.51-1.66,3.54s-2.23,1.91-3.88,2.61l-6.97,3h0ZM290.05,154.9l2.86-1.23c.61-.26,1.12-.58,1.53-.95s.72-.79.92-1.26c.2-.46.29-.97.26-1.51s-.17-1.11-.43-1.71l-.29-.68c-.26-.61-.58-1.11-.95-1.5-.37-.39-.8-.67-1.28-.85-.48-.18-.99-.25-1.55-.21s-1.14.19-1.75.46l-2.86,1.23,3.53,8.21h0Z"/>
            </g>
          </g>
          <g>
            <path class="cls-1" d="M62.84,104.1c-1.12-1.23-1.68-2.73-1.68-4.52,0-.87.2-1.3.61-1.3,1.53-.1,3.06-.59,4.6-1.46-1.68-.66-2.58-2.32-2.68-4.98v-12.03c-.05-12.16-.1-18-.15-17.54.05-1.79.2-3.98.46-6.59.1-.41.46-.61,1.07-.61.87,0,1.81.28,2.83.84l.54.31c5.11-3.93,8.78-5.8,11.03-5.59,3.98.31,6.89,2.09,8.73,5.36.56,1.02.84,2.17.84,3.45,0,.66-.1,1.28-.31,1.84.05.15.18,2.81.38,7.97.15,5.67.23,10.32.23,13.94,0,3.37-.08,5.41-.23,6.13-.31,1.28-1.28,2.2-2.91,2.76-1.33.51-2.71.72-4.14.61l-.08-.08-.08.15c-1.79,2.3-4.47,5.24-8.04,8.81-2.35,2.4-3.98,3.88-4.9,4.44-.51.31-1.05.46-1.61.46-1.58,0-3.09-.79-4.52-2.37h.01ZM79.32,68.55c0-3.68-.08-7.66-.23-11.95-.05-.15-.18-.23-.38-.23-.87,0-3.06.97-6.59,2.91.71.97,1.1,2.1,1.15,3.37.05.92.13,3.6.23,8.04,2.35-1.33,3.88-2.07,4.6-2.22.31-.05.71-.02,1.23.08h-.01ZM73.65,91.31c1.23-1.12,3.17-2.81,5.82-5.06-.05-1.07-.1-4.65-.15-10.73-1.33.77-3.19,1.81-5.59,3.14.05,3.68.03,7.89-.08,12.64h0ZM113.71,82.27c-4.9,1.84-8.63,2.71-11.19,2.6-.41,3.63-1.1,7.28-2.07,10.95-.77,2.96-1.38,4.85-1.84,5.67-1.33,2.35-2.25,3.91-2.76,4.67-1.18,1.63-2.48,2.86-3.91,3.68-1.02.56-1.76.84-2.22.84-.41,0-.61-.26-.61-.77,0-.36.13-.97.38-1.84.36-1.12.56-1.79.61-1.99,1.94-8.83,3.19-19.84,3.75-33.02.36-8.63.54-14.2.54-16.7,0-3.22-.18-5.04-.54-5.48-.36-.43-.77-1.08-1.23-1.95-.1-1.53.43-2.3,1.61-2.3.71,0,1.85.26,3.41.77,1.56.51,2.59.97,3.1,1.38,6.33-2.96,10.95-4.42,13.87-4.37,1.68,0,3.52.41,5.52,1.23,2.2.92,3.47,1.94,3.83,3.06.15.46.23.92.23,1.38,0,.87-.32,1.88-.96,3.03-.64,1.15-.96,1.88-.96,2.18,0,2.55.05,7.89.15,16.01.05,2.45.25,8.56.61,18.31.31,8.58.43,13.56.38,14.94-.05,2.6-.15,4.21-.31,4.83-.36,1.43-1.2,2.19-2.53,2.3-1.79.1-3.55-.49-5.29-1.76-1.02-.72-1.9-1.92-2.64-3.6-.74-1.69-2.34-4.78-4.79-9.27-.72-1.38-1.07-2.43-1.07-3.14,0-.31.05-.46.15-.46.25,0,.64.33,1.15,1,3.22,3.98,4.95,5.97,5.21,5.97.15,0,.23-.13.23-.38.2-2.55.25-8.48.15-17.77h.04ZM113.48,67.33c-4.29,1.58-7.71,2.43-10.27,2.53l-.31,7.74c2.96-.46,6.54-1.35,10.73-2.68-.05-2.6-.1-5.13-.15-7.58h0ZM103.37,62.5c2.91-.51,6.31-1.38,10.19-2.6.05-6.44-.03-9.65-.23-9.65-1.12,0-4.5,1.1-10.11,3.29.15,1.84.2,4.83.15,8.96Z"/>
            <path class="cls-1" d="M185.23,83.41c-12.36,1.84-19.2,2.66-20.53,2.45-.46-.05-1.07-.25-1.84-.61-1.02,4.75-2.2,8.53-3.52,11.34-.87,1.74-2.86,4.95-5.98,9.65-1.28,1.89-3.42,3.7-6.44,5.44-.82.46-1.51.69-2.07.69-.92,0-1.12-.51-.61-1.53l3.68-9.12c1.07-2.71,2.25-7.13,3.52-13.25,1.23-5.77,1.99-10.34,2.3-13.71.61-6.48.92-11.52.92-15.09,0-1.58-.27-3.32-.8-5.21-.54-1.89-.81-3.24-.81-4.06,0-1.89.54-2.63,1.61-2.22,1.33.46,2.68.92,4.06,1.38,1.69.66,3.04,1.38,4.06,2.14,10.11-5.11,17.36-7.69,21.76-7.74,2.09-.05,4.72,1,7.89,3.14,3.01,1.99,4.78,3.68,5.29,5.06.2.56.31,1.12.31,1.68,0,1.63-.69,2.63-2.07,2.99,0,.1.03,1.58.08,4.44.1,3.22.15,5.26.15,6.13l.61,35.7v1.69c.05.66.08,1.23.08,1.68,0,3.83-1.35,6.05-4.06,6.67-.61.15-1.23.23-1.84.23-2.04,0-4.21-.94-6.51-2.83-1.89-1.79-3.78-3.58-5.67-5.36-2.2-2.04-4.39-4.09-6.59-6.13-2.76-2.71-5.31-5.52-7.66-8.43-.25-.31-.38-.61-.38-.92,0-.71.49-1.07,1.46-1.07.25,0,.43.05.54.15,2.81,2.25,5.62,4.49,8.43,6.74,3.68,2.76,6.59,4.21,8.73,4.37.05,0,.19.04.42.11.23.08.4.12.5.12.41,0,.64-.41.69-1.23.15-1.94.25-7.1.31-15.47h-.02ZM164.08,78.74c5.36-.77,11.06-1.89,17.08-3.37l1.15-.77c1.02.1,1.99.28,2.91.54,0-1.53-.03-4.29-.08-8.27-4.65.97-11.34,2.43-20.07,4.37-.26,2.5-.59,5.01-1,7.51h0ZM165.77,63.27c3.83-.92,9.37-2.3,16.62-4.14-.15,0,.13-.25.84-.77.61-.05,1.23,0,1.84.15-.05-1.43-.08-2.35-.08-2.76-.1-3.17-.41-4.83-.92-4.98-6.33,1.23-12.44,3.42-18.31,6.59.1,1.53.1,3.5,0,5.9h.01Z"/>
            <path class="cls-1" d="M257.28,81.96c-.36,1.07-.79,1.99-1.3,2.76,4.8-.97,8.63-1.48,11.49-1.53h1.76c1.48.21,3.45,1.36,5.9,3.45,2.81,2.5,4.14,4.88,3.98,7.13-.15,1.48-1.61,4.01-4.37,7.58,1.23.82,1.89,1.86,1.99,3.14.05,1.02-.99,2.42-3.14,4.21-.51.41-2.17.59-4.98.54-1.84-.1-3.65-.18-5.44-.23-.97-.05-6.1.51-15.4,1.68-.66,1.07-1.63,1.61-2.91,1.61-.56,0-1.12-.13-1.69-.38-5.62-2.55-10.19-8.76-13.71-18.61v.08c-.66-1.84-.99-3.47-.99-4.9,0-1.33.28-1.99.84-1.99,2.91-.05,5.39,1,7.43,3.14,1.63-.51,3.22-.97,4.75-1.38,1.23-.87,2.4-1.84,3.52-2.91-3.27-1.43-5.64-4.19-7.13-8.27-.92-2.5-1.4-5-1.45-7.51-.05-1.12.06-2.18.34-3.18s.63-1.44,1.03-1.34c.97.31,2.02.92,3.14,1.84,3.93-1.33,8.35-2.48,13.25-3.45,5.11-1.02,8.78-1.43,11.03-1.23l.46-.38c1.28.1,2.58.69,3.91,1.76,1.38-.82,2.6-1.75,3.68-2.8,1.07-1.05,1.61-1.8,1.61-2.26,0-.2-.13-.33-.38-.38-.77-.1-1.71-.15-2.84-.15-4.65,0-11.24.84-19.76,2.53-7.87,1.58-15.17,3.42-21.91,5.52,0,.31-.05,1.18-.15,2.6-.15,1.94-.56,3.68-1.23,5.21-.31.77-.99,1.3-2.07,1.61-.87.26-1.53.28-1.99.08-1.28-.61-2.44-1.99-3.49-4.14s-1.57-4.14-1.57-5.98c0-.61.08-1.15.23-1.61,1.33-2.96,2.71-6.44,4.14-10.42.05-.51.31-.77.77-.77.82,0,1.74.51,2.76,1.53,1.02,1.02,1.71,1.99,2.07,2.91.2.61.38,1.3.54,2.07,3.17-.82,8.91-2.25,17.24-4.29.2-.36.36-.69.46-1-2.96-2.15-4.44-3.83-4.44-5.06,0-.66.49-1.23,1.46-1.69.56-.25,1.76-.64,3.6-1.15.66-.05,1.43-.08,2.3-.08,5.11,0,9.32,1.38,12.64,4.14.41.31.66.72.77,1.23,3.88-.46,7.33-.59,10.34-.38l.84-.46c1.28-.15,3.65.79,7.13,2.83,3.73,2.25,5.54,4.32,5.44,6.21-.05.72-.54,1.58-1.46,2.6-1.12,1.33-2.68,2.5-4.67,3.52-1.02.51-2.02.77-2.99.77-.82,0-1.38-.15-1.68-.46-.72-.87-1.61-1.5-2.68-1.92-.82,0-2.02.2-3.6.61,1.33,1.33,1.99,2.58,1.99,3.75,0,.36-.08.63-.23.8-.15.18-.66,1.11-1.53,2.8-1.02,1.94-2.17,3.58-3.45,4.9.31.26.49.49.54.69.1.46-.32,1.12-1.27,1.99-.94.87-1.88,1.43-2.8,1.68-1.58.15-3.63.38-6.13.69l-.54.08v.02ZM244.87,102.11c3.27-.36,7.86-.69,13.79-1,2.55-2.19,4.72-4.78,6.51-7.74,1.53-2.55,2.12-3.85,1.76-3.91-.46-.1-1.02-.15-1.69-.15-2.76,0-6.95.74-12.56,2.22-4.6,1.23-8.63,2.5-12.1,3.83l4.29,6.74h0ZM258.27,74.91c1.74-2.55,2.76-4.75,3.06-6.59-.1-.05-.28-.08-.54-.08-2.81,0-8.15,1.25-16.01,3.75.66,1.23,1.61,2.99,2.84,5.29,2.6-.56,6.15-1.35,10.65-2.37Z"/>
          </g>
          <g>
            <path class="cls-1" d="M119.44,136.81c-.63,0-1.21-.04-1.75-.12s-1.02-.22-1.43-.42-.73-.48-.96-.83c-.23-.35-.35-.8-.35-1.34v-.07s0-.06.01-.09h2.64s-.01.06-.01.09v.08c0,.23.07.42.2.54.13.13.32.21.56.25s.52.07.82.07h.39c.13,0,.26,0,.39-.03s.24-.05.34-.09.18-.09.24-.16.09-.15.09-.25c0-.15-.08-.26-.23-.35-.15-.08-.36-.15-.63-.2s-.56-.1-.89-.15c-.32-.05-.66-.1-1.01-.17-.35-.07-.69-.16-1.02-.28-.33-.11-.62-.26-.89-.46-.26-.19-.47-.43-.63-.72-.16-.29-.23-.64-.23-1.06,0-.47.11-.87.33-1.19.22-.33.52-.6.9-.8.38-.2.82-.35,1.31-.45.49-.09,1-.14,1.54-.14s1.06.05,1.54.14.91.24,1.28.44c.37.2.66.46.87.77s.32.69.32,1.14v.14h-2.62v-.05c0-.15-.04-.28-.13-.41-.09-.12-.22-.22-.41-.3-.19-.07-.44-.11-.75-.11s-.56.02-.76.07c-.2.05-.36.11-.46.19s-.15.17-.15.26c0,.14.08.26.23.34.16.09.37.16.63.21.26.06.56.11.89.15.33.05.67.1,1.02.16s.69.15,1.01.25c.32.11.62.25.89.43s.48.41.63.68c.15.27.23.61.23,1.01,0,.67-.17,1.2-.52,1.62-.35.41-.82.72-1.42.91s-1.28.29-2.04.29h0Z"/>
            <path class="cls-1" d="M129.2,136.81c-.98,0-1.8-.14-2.46-.42s-1.17-.7-1.51-1.25-.51-1.23-.51-2.04v-4.5h2.74v4.42c0,.55.15.99.45,1.31.3.33.72.49,1.28.49s.99-.17,1.29-.49c.3-.33.45-.77.45-1.31v-4.42h2.74v4.5c0,.81-.17,1.48-.5,2.04-.34.55-.84.97-1.5,1.25s-1.49.42-2.46.42h0Z"/>
            <path class="cls-1" d="M135.4,136.67v-8.07h2.37l3.25,3.13c.05.05.13.14.23.25.1.11.21.23.32.35s.2.22.27.3h.08v-4.03h2.53v8.07h-2.35l-3.31-3.2c-.15-.15-.29-.3-.43-.44-.14-.15-.26-.27-.36-.38h-.08c0,.14,0,.29,0,.46v3.56h-2.55.02Z"/>
            <path class="cls-1" d="M148.95,136.67v-8.07h4.08l.87,2.9c.05.13.1.31.17.53.06.22.12.46.19.7.06.25.12.47.16.66h.08c.04-.17.09-.36.15-.58s.12-.45.19-.69.13-.45.18-.64l.87-2.9h3.94v8.07h-2.69v-4.02c0-.28,0-.55.02-.81,0-.26,0-.48,0-.66h-.09c-.04.17-.09.36-.15.59s-.12.45-.18.67-.12.41-.18.56l-1.15,3.68h-2.25l-1.16-3.68c-.06-.2-.13-.42-.19-.64s-.13-.44-.18-.65c-.05-.21-.1-.38-.13-.52h-.09c0,.17.02.37.02.62s0,.52.02.81v4.06h-2.51Z"/>
            <path class="cls-1" d="M166.09,136.81c-1.01,0-1.88-.16-2.6-.49-.73-.33-1.29-.8-1.68-1.42s-.59-1.38-.59-2.27.2-1.66.59-2.28.95-1.09,1.68-1.41,1.6-.48,2.6-.48,1.89.16,2.62.48c.73.32,1.29.79,1.68,1.41.39.62.59,1.38.59,2.28s-.2,1.65-.59,2.27c-.39.62-.95,1.1-1.68,1.42-.73.32-1.6.49-2.62.49ZM166.09,134.84c.33,0,.62-.05.87-.14s.47-.23.65-.41c.18-.17.31-.38.4-.62s.13-.5.13-.79v-.52c0-.28-.04-.54-.13-.78s-.22-.44-.4-.62c-.18-.17-.4-.3-.65-.4-.25-.09-.55-.14-.87-.14s-.61.05-.87.14-.47.23-.65.4-.31.38-.4.62c-.09.24-.13.5-.13.78v.52c0,.29.04.55.13.79.09.24.22.45.4.62.18.18.39.31.65.41s.55.14.87.14Z"/>
            <path class="cls-1" d="M176.89,136.81c-1.01,0-1.88-.16-2.6-.49-.73-.33-1.29-.8-1.68-1.42s-.59-1.38-.59-2.27.2-1.66.59-2.28.95-1.09,1.68-1.41,1.6-.48,2.6-.48,1.89.16,2.62.48c.73.32,1.29.79,1.68,1.41.39.62.59,1.38.59,2.28s-.2,1.65-.59,2.27c-.39.62-.95,1.1-1.68,1.42-.73.32-1.6.49-2.62.49ZM176.89,134.84c.33,0,.62-.05.87-.14s.47-.23.65-.41c.18-.17.31-.38.4-.62s.13-.5.13-.79v-.52c0-.28-.04-.54-.13-.78s-.22-.44-.4-.62c-.18-.17-.4-.3-.65-.4-.25-.09-.55-.14-.87-.14s-.61.05-.87.14-.47.23-.65.4-.31.38-.4.62c-.09.24-.13.5-.13.78v.52c0,.29.04.55.13.79.09.24.22.45.4.62.18.18.39.31.65.41s.55.14.87.14Z"/>
            <path class="cls-1" d="M183.16,136.67v-8.07h2.37l3.25,3.13c.05.05.13.14.23.25s.21.23.32.35c.11.12.2.22.27.3h.08v-4.03h2.53v8.07h-2.35l-3.31-3.2c-.15-.15-.29-.3-.43-.44-.14-.15-.26-.27-.36-.38h-.08c0,.14,0,.29,0,.46v3.56h-2.55.02Z"/>
            <path class="cls-1" d="M196.71,136.67v-8.07h2.74v5.92h4.69v2.15h-7.44,0Z"/>
            <path class="cls-1" d="M204.47,136.67l3.42-8.07h3.11l3.42,8.07h-2.93l-.41-1.1h-3.39l-.4,1.1h-2.83,0ZM208.41,133.66h1.97l-.47-1.32c-.03-.08-.07-.18-.11-.29s-.08-.25-.12-.39-.08-.28-.12-.42-.08-.26-.12-.37h-.08c-.04.14-.09.3-.15.47-.06.18-.12.35-.17.53s-.11.34-.16.48l-.47,1.32h0Z"/>
            <path class="cls-1" d="M215.39,136.67v-8.07h2.74v3.51l3.39-3.51h3.4l-3.23,3.31,3.31,4.76h-3.3l-1.99-3.03-1.58,1.38v1.64h-2.74,0Z"/>
            <path class="cls-1" d="M226.1,136.67v-8.07h7.8v1.97h-5.06v1.08h4.34v1.88h-4.34v1.17h5.14v1.97h-7.88Z"/>
          </g>
        </g>
      </g>
    </g>
  </g>
</svg>