<?xml version="1.0" encoding="UTF-8"?>
<svg id="_圖層_2" data-name="圖層 2" xmlns="http://www.w3.org/2000/svg" width="33.61" height="33.61" viewBox="0 0 33.61 33.61">
  <defs>
    <style>
      .cls-1 {
        fill: #fffbf3;
      }

      .cls-2 {
        fill: #092a31;
      }
    </style>
  </defs>
  <g id="icon">
    <circle class="cls-2" cx="16.8" cy="16.8" r="16.8" transform="translate(-5.15 25.9) rotate(-67.5)"/>
    <path class="cls-1" d="M18.75,10.79c.08-.08.33-.25,1.08-.25.41,0,.87.04,1.34.12l.74.13.64-3.56-.73-.14c-2.37-.45-4.26-.29-5.41.44-.74.47-1.27,1.1-1.57,1.88-.21.55-.31,1.33-.31,2.38v.75h-2.2v3.37h2.2v10.38h3.98v-10.38h2.87v-3.37h-2.87v-.55c0-.92.21-1.17.25-1.21Z"/>
  </g>
</svg>