<?xml version="1.0" encoding="UTF-8"?>
<svg id="_圖層_2" data-name="圖層 2" xmlns="http://www.w3.org/2000/svg" width="29.41" height="27.1" viewBox="0 0 29.41 27.1">
  <g id="icon">
    <path d="m17.05,13.55c0,.08-.16,4.73,1.38,8.26.2-.24.39-.48.57-.74,1.49-1.79,5.73-7.06,10.39-6.8v-.73s0-.73,0-.73c-4.66.26-8.91-5.01-10.39-6.8-.18-.25-.37-.49-.56-.73-1.55,3.53-1.4,8.2-1.39,8.25Z" fill="#092a31"/>
    <path d="m0,13.55c0,.13-.26,7.77,2.27,13.56.33-.39.65-.8.94-1.21,2.44-2.93,9.4-11.58,17.05-11.16v-1.19s0-1.19,0-1.19C12.62,12.77,5.66,4.12,3.22,1.19c-.29-.41-.6-.8-.92-1.19C-.25,5.8,0,13.46,0,13.55Z" fill="#092a31"/>
  </g>
</svg>