<?xml version="1.0" encoding="UTF-8"?>
<svg id="_圖層_2" data-name="圖層 2" xmlns="http://www.w3.org/2000/svg" width="92.96" height="17.69" viewBox="0 0 92.96 17.69">
  <g id="icon">
    <g>
      <path d="m7.96,5.2H0v-1.99h7.96v1.99Zm-5.07,12.35H.68v-6.3h6.94v5.64H2.89v.66ZM.74.55h6.84v1.89H.74V.55Zm.11,5.41h6.58v1.89H.85v-1.89Zm6.58,4.54H.85v-1.89h6.58v1.89Zm-2,2.57h-2.55v1.97h2.55v-1.97Zm14.1-1.46v2.1h-4.52v3.84h-2.4v-3.84h-4.44v-2.1h4.44v-2.19h-3.69v-2.04h3.69v-2.04h-4.1v-2.04h2.42c-.3-.66-.72-1.4-1.27-2.23l2.17-.83c.62,1.01,1.11,1.89,1.46,2.65l-1.15.42h2.55c.47-.78.95-1.83,1.44-3.14l2.23.74c-.38.9-.79,1.7-1.23,2.4h2.25v2.04h-4.37v2.04h3.89v2.04h-3.89v2.19h4.52Z" fill="#092a31"/>
      <path d="m32.8.83h10.72v16.72h-2.38v-1.23h-6.03v1.23h-2.31v-2.02l-1.8.66c-.2-1.88-.5-3.49-.91-4.82l1.74-.45c.38,1.11.71,2.39.98,3.84v-4.65l-1.44.53-.19-.78c-.62.08-1.06.13-1.32.15v7.55h-2.21v-7.36c-1.47.08-2.58.13-3.31.15l-.21-1.97c.88,0,1.54,0,1.97-.02.42-.49.85-1.02,1.27-1.59-.79-.87-1.77-1.78-2.93-2.72l1.34-1.57.53.45c.59-.91,1.12-1.89,1.57-2.93l2.04.76c-.71,1.36-1.42,2.55-2.12,3.56.25.23.51.49.76.78.69-1.03,1.29-2.03,1.8-2.99l1.95.95c-.57.96-1.18,1.9-1.83,2.81-.65.91-1.28,1.71-1.89,2.39.45-.02,1.13-.08,2.04-.15-.07-.23-.25-.71-.53-1.46l1.7-.61c.31.81.64,1.77,1,2.89V.83Zm-8.49,15.04c.3-.84.52-1.65.68-2.42.16-.77.27-1.6.34-2.5l1.89.3c-.18,2.17-.53,4.02-1.04,5.56l-1.87-.95Zm12.65-8.57V2.97h-1.85v4.33h1.85Zm0,2.1h-1.85v4.79h1.85v-4.79Zm2.27-2.1h1.91V2.97h-1.91v4.33Zm0,2.1v4.79h1.91v-4.79h-1.91Z" fill="#092a31"/>
      <path d="m59.76,2.89h7.96v11.73c0,.93-.24,1.61-.72,2.02-.48.42-1.26.62-2.34.62h-2.87l-.7-2.4h3.97V5.09h-5.35c-.08,1.29-.33,2.34-.74,3.16l.15.08.49-.42c.2-.18.4-.26.62-.26.24,0,.47.09.7.28l4.01,3.35-1.8,1.65-4.35-3.61c-.1-.09-.18-.13-.23-.13s-.12.04-.19.11c-.41.55-.96,1.11-1.65,1.67-.69.56-1.6,1.23-2.73,2l-1.66-1.93c1.33-.86,2.32-1.57,2.96-2.15.64-.57,1.1-1.14,1.36-1.7.26-.56.41-1.26.44-2.09h-4.95v12.37h-2.63V2.89h7.58V.17h2.67v2.72Z" fill="#092a31"/>
      <path d="m91.92,13.11c-1.01-.33-1.76-.59-2.25-.78v5.35h-2.53v-.72h-8.32v.72h-2.48v-5.37c-.68.26-1.42.53-2.23.79l-1.04-2.08c2.45-.72,4.3-1.43,5.56-2.15,1.26-.71,2.18-1.51,2.76-2.39h2.89c.57.86,1.52,1.65,2.88,2.36,1.35.72,3.29,1.45,5.81,2.19l-1.04,2.06Zm-1.97-9.59h-13.93v1.95h-2.46V1.51h8V.09h2.55v1.42h8.34v3.95h-2.51v-1.95Zm-15.96,3.63c2.42-.79,4.4-1.9,5.94-3.31l1.78,1.19c-.74.72-1.66,1.43-2.76,2.12-1.1.69-2.27,1.3-3.5,1.82l-1.46-1.82Zm13.27,4.22c-1.22-.56-2.17-1.14-2.87-1.75-.69-.61-1.18-1.31-1.44-2.11h-.21c-.27.79-.73,1.5-1.39,2.11-.66.61-1.57,1.19-2.75,1.75h8.66Zm-8.43,3.76h8.32v-1.99h-8.32v1.99Zm6.75-11.26c2.07.93,4.2,2.11,6.41,3.54l-1.53,1.65c-2.14-1.46-4.22-2.68-6.26-3.65l1.38-1.53Z" fill="#092a31"/>
    </g>
  </g>
</svg>