<?xml version="1.0" encoding="UTF-8"?>
<svg id="b" data-name="圖層 2" xmlns="http://www.w3.org/2000/svg" width="177.57" height="40.44" viewBox="0 0 177.57 40.44">
  <defs>
    <style>
      .d {
        fill: #fff;
        stroke: #092a31;
        stroke-miterlimit: 10;
        stroke-width: 1.31px;
      }

      .e {
        fill: #092a31;
      }
    </style>
  </defs>
  <g id="c" data-name="fix 按鈕">
    <g>
      <rect class="e" x=".66" y="1.09" width="176.91" height="39.35" rx="19.01" ry="19.01"/>
      <rect class="d" x=".66" y=".66" width="173.13" height="36.07" rx="18.03" ry="18.03"/>
      <path class="e" d="M145.21,18.69s-.09,2.54.74,4.43c.11-.13.21-.26.31-.4.8-.96,3.07-3.79,5.57-3.65v-.78c-2.5.14-4.78-2.69-5.57-3.65-.1-.13-.2-.26-.3-.39-.83,1.89-.75,4.4-.75,4.43Z"/>
      <path class="e" d="M136.07,18.69c0,.07-.14,4.17,1.22,7.27.18-.21.35-.43.51-.65,1.31-1.57,5.04-6.21,9.15-5.99v-.64s0-.64,0-.64c-4.1.23-7.84-4.41-9.15-5.99-.16-.22-.32-.43-.5-.64-1.37,3.11-1.23,7.22-1.23,7.27Z"/>
      <g>
        <path class="e" d="M49.69,20.99c-.03.07-.11.12-.27.11-.34.91-.9,1.9-1.53,2.5-.15-.12-.46-.32-.67-.44.6-.55,1.13-1.5,1.41-2.45l1.05.27ZM51.89,12.49v7.94h-3.95v-7.94h3.95ZM51.04,14.91v-1.71h-2.27v1.71h2.27ZM51.04,17.31v-1.72h-2.27v1.72h2.27ZM51.04,19.72v-1.74h-2.27v1.74h2.27ZM51.16,20.72c.46.6.97,1.41,1.19,1.93-.17.07-.34.14-.77.34-.21-.54-.7-1.37-1.13-1.98l.71-.29ZM60.38,20.76v.66h-1.04v1.31c0,.86-.41.9-2.54.9-.04-.21-.15-.5-.27-.7.45.01.88.02,1.2.02.66,0,.73,0,.73-.24v-1.3h-4.45v2.21h-.85v-2.21h-1.06v-.66h1.06v-3.05h2.62v-.91h-3.53v-.65h2v-.85h-1.2v-.64h1.2v-.82h-1.7v-.65h1.7v-1.16l1.12.06c-.01.07-.08.14-.27.16v.94h2.24v-1.16l1.12.06c-.01.09-.08.14-.27.16v.94h1.81v.65h-1.81v.82h1.43v.64h-1.43v.85h2.1v.65h-3.67v.91h2.7v3.05h1.04ZM55.79,18.36h-1.76v.87h1.76v-.87ZM54.02,19.86v.9h1.76v-.9h-1.76ZM55.11,13.84v.82h2.24v-.82h-2.24ZM55.11,15.3v.85h2.24v-.85h-2.24ZM58.48,18.36h-1.83v.87h1.83v-.87ZM56.64,20.76h1.83v-.9h-1.83v.9Z"/>
        <path class="e" d="M68.83,22.2c-.07.07-.2.09-.31.06-1.12.52-2.86,1.05-4.27,1.37-.14-.17-.45-.46-.64-.61,1.41-.27,3.17-.76,4.22-1.29l1.01.46ZM64.52,12.62h10.94v2.77h-10.94v-2.77ZM65.4,13.29v1.41h2.42v-1.41h-2.42ZM65.43,16.15h9.2v5.4h-9.2v-5.4ZM66.34,16.75v1h7.35v-1h-7.35ZM66.34,18.33v1.01h7.35v-1.01h-7.35ZM66.34,19.93v1.01h7.35v-1.01h-7.35ZM68.65,13.29v1.41h2.51v-1.41h-2.51ZM75.39,23.64c-.95-.41-2.56-.96-4.19-1.41l.74-.46c1.61.42,3.35.97,4.43,1.4l-.98.47ZM71.98,13.29v1.41h2.56v-1.41h-2.56Z"/>
        <path class="e" d="M79.51,14.83v-.7h5.6v.7h-5.6ZM84.54,19.22v3.67h-3.53v.59h-.84v-4.26h4.37ZM80.18,16.51v-.69h4.4v.69h-4.4ZM80.18,18.21v-.69h4.4v.69h-4.4ZM84.58,12.47v.69h-4.33v-.69h4.33ZM83.69,19.93h-2.68v2.25h2.68v-2.25ZM86.91,22c0,.47.17.59.97.59h2.83c.8,0,.91-.32.99-2.13.24.15.63.29.9.35-.14,2.05-.45,2.58-1.83,2.58h-2.94c-1.41,0-1.85-.27-1.85-1.37v-4.96h4.92v-3.52h-5.08v-.8h6.04v5.72h-.95v-.6h-3.98v4.14Z"/>
        <path class="e" d="M101.13,22c.77-.4,1.77-.95,2.75-1.5l.28.64c-.99.59-2.04,1.2-2.73,1.59.01.09-.03.17-.11.22l-.59-.75c.08-.04.17-.06.25-.11h0c-1.79.27-3.63.57-4.82.76-.01.09-.1.15-.2.17l-.32-.94c.67-.07,1.53-.2,2.45-.32v-3.67h-2.3v-.75h2.3v-1.44h-1.5v-.26c-.14.15-.28.29-.43.42-.14-.19-.45-.44-.66-.55,1.22-1.07,2.14-2.47,2.66-3.52l1.13.16c-.01.09-.1.15-.28.15l-.03.05c.87.65,1.89,1.5,2.4,2.06l-.57.66c-.46-.55-1.39-1.37-2.23-2.03-.41.67-.91,1.41-1.54,2.12h3.53v.74h-1.62v1.44h2.09v.75h-2.09v3.56l2.14-.31.04.66ZM96.76,21.24c-.04-.64-.29-1.61-.6-2.37l.67-.15c.34.75.59,1.72.66,2.35l-.73.17ZM101.06,18.92c-.04.06-.14.11-.29.11-.17.6-.48,1.52-.74,2.11l-.62-.21c.24-.61.56-1.64.7-2.31l.95.3ZM105.28,17.51v.36c.53,2.03,1.67,3.69,3.52,4.38-.18.15-.45.44-.57.65-1.33-.59-2.28-1.62-2.94-2.97v2.8c0,.89-.55.89-2.11.89-.04-.21-.17-.51-.28-.72.29.01.57.01.8.01.62,0,.69,0,.69-.19v-5.2h-3.29v-.71h4.94l.21-1.15h-3.35c-.04.21-.1.4-.15.57l-.9-.1c.32-1.05.74-2.83,1.01-4.12.85.07,1.01.09,1.13.11-.01.09-.1.14-.28.15l-.15.72h3.28l.21-.04.53.12-.06.2c-.11.85-.35,2.31-.57,3.52h1.69v.71h-3.35ZM102.81,20.19c-.24-.47-.84-1.19-1.4-1.7l.67-.35c.56.47,1.18,1.16,1.44,1.62l-.71.42ZM103.39,13.67c-.11.44-.21.89-.32,1.31h3.28l.2-1.31h-3.15ZM108.61,18.56c-.04.09-.15.1-.28.09-.36.45-.95,1.09-1.41,1.51-.01,0-.62-.34-.62-.34.45-.45,1.06-1.2,1.4-1.71l.91.45Z"/>
      </g>
    </g>
  </g>
</svg>