<?xml version="1.0" encoding="UTF-8"?>
<svg id="b" data-name="圖層 2" xmlns="http://www.w3.org/2000/svg" width="612.09" height="119.26" viewBox="0 0 612.09 119.26">
  <defs>
    <style>
      .d {
        fill: #fff;
        stroke: #092a31;
        stroke-miterlimit: 10;
        stroke-width: 3.87px;
      }

      .e {
        fill: #092a31;
      }
    </style>
  </defs>
  <g id="c" data-name="icon">
    <rect class="e" x="1.94" y="3.23" width="610.15" height="116.03" rx="56.06" ry="56.06"/>
    <rect class="d" x="1.94" y="1.94" width="599.01" height="106.36" rx="53.18" ry="53.18"/>
    <path class="e" d="M516.68,55.11c0,.13-.25,7.49,2.19,13.07.32-.38.62-.77.91-1.17,2.35-2.83,9.06-11.16,16.44-10.76v-1.15s0-1.15,0-1.15c-7.38.41-14.09-7.93-16.44-10.76-.28-.39-.58-.77-.89-1.15-2.46,5.59-2.21,12.97-2.21,13.06Z"/>
    <path class="e" d="M489.72,55.11c0,.21-.42,12.29,3.59,21.45.52-.62,1.02-1.26,1.49-1.92,3.86-4.64,14.87-18.32,26.97-17.65v-1.89s0-1.89,0-1.89c-12.1.67-23.11-13.01-26.97-17.65-.46-.65-.96-1.27-1.46-1.88-4.03,9.17-3.62,21.29-3.62,21.42Z"/>
    <g>
      <path class="e" d="M233.36,62.37c-.77,2.45-2.22,4.85-3.73,6.43-.4-.33-1.34-.9-1.88-1.2,1.54-1.41,2.72-3.53,3.36-5.69l2.25.45ZM238.91,61.3h-9.44v-18.7h9.44v18.7ZM236.66,44.45h-5v3.8h5v-3.8ZM236.66,49.99h-5v3.83h5v-3.83ZM236.66,55.58h-5v3.89h5v-3.89ZM237.19,61.9c1.11,1.44,2.25,3.35,2.79,4.61l-1.98.84c-.47-1.26-1.65-3.26-2.69-4.7l1.88-.75ZM258.72,63.87h-2.02v2.6c0,1.08-.27,1.65-1.11,1.97-.94.3-2.45.3-4.87.3-.1-.51-.4-1.29-.71-1.8,1.75.03,3.36.03,3.83.03.4-.03.57-.12.57-.51v-2.6h-10.61v4.94h-2.25v-4.94h-2.18v-1.71h2.18v-7.6h6.35v-1.74h-8.4v-1.68h4.84v-1.98h-3.19v-1.65h3.19v-1.8h-4.06v-1.68h4.06v-2.57h2.22v2.57h4.97v-2.57h2.25v2.57h4.1v1.68h-4.1v1.8h3.56v1.65h-3.56v1.98h4.8v1.68h-8.46v1.74h6.58v7.6h2.02v1.71ZM243.81,56.24v2.12h4.1v-2.12h-4.1ZM243.81,62.17h4.1v-2.24h-4.1v2.24ZM246.56,47.53h4.97v-1.8h-4.97v1.8ZM246.56,51.15h4.97v-1.98h-4.97v1.98ZM250.12,56.24v2.12h4.3v-2.12h-4.3ZM254.42,62.17v-2.24h-4.3v2.24h4.3Z"/>
      <path class="e" d="M279.2,65.19c-2.75,1.47-6.99,2.87-10.38,3.68-.4-.42-1.28-1.29-1.85-1.68,3.49-.63,7.56-1.74,9.97-2.93l2.25.93ZM295.02,42.87v6.58h-25.79v-6.58h25.79ZM293.1,51.18v12.81h-21.9v-12.81h21.9ZM271.51,47.71h5.44v-3.11h-5.44v3.11ZM273.66,54.95h16.89v-2.21h-16.89v2.21ZM273.66,58.66h16.89v-2.21h-16.89v2.21ZM273.66,62.43h16.89v-2.3h-16.89v2.3ZM279.1,47.71h5.61v-3.11h-5.61v3.11ZM286.72,64.29c3.8,1.05,7.89,2.36,10.45,3.35l-2.62,1.2c-2.18-.96-5.98-2.27-9.77-3.32l1.95-1.23ZM286.86,47.71h5.78v-3.11h-5.78v3.11Z"/>
      <path class="e" d="M305.35,46.13h13.37v1.83h-13.37v-1.83ZM306.33,54.45h11.32v1.8h-11.32v-1.8ZM317.11,67.19h-8.13v1.38h-2.22v-10.05h10.34v8.68ZM317.01,50.29v1.74h-10.04v-1.74h10.04ZM308.98,60.34v5h5.88v-5h-5.88ZM312,45.95c-.5-1.02-1.68-2.6-2.75-3.71l1.92-.93c1.17,1.08,2.35,2.6,2.89,3.59l-2.05,1.05ZM331.38,66.09c1.75,0,2.05-.78,2.25-4.94.6.39,1.61.78,2.35.9-.37,4.85-1.14,6.13-4.43,6.13h-6.58c-3.43,0-4.43-.69-4.43-3.5v-11.85h10.88v-7.6h-11.32v-2.12h13.77v13.44h-2.45v-1.59h-8.43v9.73c0,1.17.37,1.41,2.18,1.41h6.21Z"/>
      <path class="e" d="M355.49,63.96l.13,1.77c-3.96.75-8.16,1.5-11.29,2.03l-.57-2c1.44-.18,3.29-.48,5.34-.81v-8.8h-5v-1.95h5v-3.23h-3.26v-1.26c-.4.33-.84.66-1.21.99-.1-.45-.67-1.59-1.01-2.09,2.45-1.74,4.87-4.37,6.31-7.12l1.92.63c-.13.33-.34.63-.54.99,1.91,1.59,4.26,3.59,5.47,4.82l-1.44,1.47c-1.11-1.2-3.19-3.11-5.04-4.73-1.08,1.59-2.38,3.08-3.73,4.37h7.49v1.94h-2.89v3.26h4.13v1.92h-4.13v8.5l4.3-.69ZM346.25,57.59c.5,1.77,1.07,4.01,1.31,5.48l-1.88.45c-.17-1.5-.71-3.77-1.21-5.54l1.78-.39ZM352.57,62.73c.47-1.47,1.01-3.86,1.28-5.45l1.78.48c-.57,1.8-1.11,3.98-1.65,5.39l-1.41-.42ZM373.59,56.93c-1.38,1.53-3.02,3.2-4.4,4.43,2.15,1.38,4.27,2.87,5.51,3.92l-1.48,1.53c-1.48-1.38-4.23-3.32-6.78-5v4.67c0,1.11-.23,1.65-1.07,2-.81.3-2.08.36-3.96.33-.1-.57-.44-1.38-.74-1.95,1.34.06,2.59.03,2.96.03.4-.03.5-.12.5-.42v-4.49c-2.42,1.74-4.8,3.47-6.82,4.85l-1.44-1.68c2.08-1.23,5.24-3.26,8.26-5.33v-5.21h-8.09v-1.97h11.35c.2-.72.4-1.47.57-2.24h-9.81c.84-2.33,1.91-6.1,2.62-8.95l2.35.24c-.2.75-.4,1.59-.64,2.39h7.09l.4-.12,1.68.24c-.44,2.42-1.18,5.72-1.88,8.44h4.7v1.97h-8.03v4.97c.4.24.84.51,1.24.78,1.31-1.29,2.92-3.17,3.9-4.52l2.02,1.08ZM358.71,55.79c1.34,1.14,3.06,2.72,3.86,3.74l-1.78,1.17c-.77-1.08-2.42-2.72-3.79-3.95l1.71-.96ZM368.35,48.64c.23-.99.47-1.97.6-2.78h-6.99c-.3.96-.54,1.94-.84,2.78h7.22Z"/>
    </g>
  </g>
</svg>