<?xml version="1.0" encoding="UTF-8"?>
<svg id="_圖層_2" data-name="圖層 2" xmlns="http://www.w3.org/2000/svg" width="386.98" height="75.4" viewBox="0 0 386.98 75.4">
  <defs>
    <style>
      .cls-1 {
        fill: #fff;
        stroke: #092a31;
        stroke-miterlimit: 10;
        stroke-width: 2.45px;
      }

      .cls-2 {
        fill: #092a31;
      }
    </style>
  </defs>
  <g id="icon">
    <g>
      <g>
        <rect class="cls-2" x="1.22" y="2.04" width="385.76" height="73.36" rx="35.44" ry="35.44"/>
        <rect class="cls-1" x="1.22" y="1.22" width="378.71" height="67.25" rx="33.62" ry="33.62"/>
        <path class="cls-2" d="M309.61,34.84c0,.13-.26,7.77,2.27,13.56.33-.39.65-.8.94-1.21,2.44-2.93,9.4-11.58,17.05-11.16v-1.19s0-1.19,0-1.19c-7.65.42-14.61-8.23-17.05-11.16-.29-.41-.6-.8-.92-1.19-2.55,5.8-2.29,13.46-2.29,13.55Z"/>
        <g>
          <path class="cls-2" d="M161.87,37.71l2.17.79-.4,3.22c-.07.62-.28,1.08-.62,1.4s-.76.47-1.25.47c-.65,0-1.31-.23-1.97-.7-.88-.59-1.63-1.32-2.25-2.19-1.4,1-3.09,1.89-5.07,2.67l-1.12-2.06c1.91-.66,3.6-1.51,5.07-2.57-.68-1.49-1.15-3.3-1.42-5.43h-3.86v2.18c1.3-.2,2.38-.39,3.25-.57l.3,1.95c-1.34.29-2.53.52-3.54.68v3.63c0,.76-.19,1.31-.57,1.66-.38.35-.98.53-1.78.53h-3.12l-.66-2.1h3.57v-3.35c-.82.1-2.16.23-4.01.4l-.38-2.08c1.78-.14,3.25-.28,4.39-.43v-2.5h-4.42v-2.08h4.42v-2.25c-1.23.13-2.43.21-3.59.26l-.47-1.93c3.62-.18,6.38-.49,8.28-.95l1.17,1.78c-.65.16-1.59.35-2.82.55v2.54h3.67c-.07-1.14-.11-2.23-.11-3.29v-1.68h2.55v1.66c0,1.07.04,2.18.11,3.31h6.24v2.08h-6.03c.21,1.45.5,2.68.87,3.69,1-1.01,1.86-2.14,2.57-3.41l2.08,1.02c-1.08,1.79-2.27,3.3-3.59,4.52.55.86,1.22,1.53,2.02,2.02l.36-3.44ZM160.57,30.73c-.31-.58-.64-1.11-.99-1.59-.35-.48-.83-1.1-1.45-1.87l2.1-1.06c1.06,1.16,1.91,2.3,2.55,3.41l-2.21,1.12Z"/>
          <path class="cls-2" d="M187.87,28.65h-6.07v1.19h5.01v4.86h-8.24c-.17.26-.45.66-.85,1.19h10.1v1.85h-3.08c-.72,1.03-1.63,1.92-2.74,2.67,2.19.49,4.12.95,5.8,1.38l-1.19,1.76c-2.24-.59-4.63-1.19-7.18-1.78-2.59,1.03-5.98,1.62-10.17,1.76l-.64-1.83c2.97-.11,5.33-.37,7.07-.76l-4.99-1.08c.88-.76,1.64-1.46,2.29-2.12h-4.29v-1.85h6.03c.33-.35.65-.75.98-1.19h-5.96v-4.86h4.84v-1.19h-5.88v-2.01h19.15v2.01ZM174.6,31.56h-2.36v1.46h2.36v-1.46ZM176.15,37.75c-.35.39-.77.81-1.25,1.25,1.54.28,2.94.54,4.18.79,1.02-.5,1.92-1.19,2.72-2.04h-5.65ZM176.92,29.84h2.53v-1.19h-2.53v1.19ZM179.44,31.56h-2.53v1.46h2.53v-1.46ZM184.31,33.02v-1.46h-2.5v1.46h2.5Z"/>
          <path class="cls-2" d="M198.91,29.67v1.27h3.57v1.99h-2.78l1.61.42c-.24.72-.53,1.41-.87,2.06h1.83v1.97h-3.35v1.38h3.23v1.93h-3.23v2.88h-2.44v-2.88h-3.27v-1.93h3.27v-1.38h-3.42v-1.97h1.87c-.14-.49-.41-1.14-.81-1.95l1.78-.53h-3.06v-1.99h3.63v-1.27h-3.18v-1.95h3.18v-1.57h2.44v1.57h3.18v1.95h-3.18ZM198.25,35.4c.33-.73.57-1.56.74-2.48h-2.59c.34.68.59,1.36.76,2.03l-1.46.45h2.55ZM212.8,41.63l-1.32,1.97c-.96-.82-1.75-1.57-2.36-2.25-.68.79-1.44,1.53-2.29,2.19l-1.42-1.85v1.87h-2.4v-17.01h9.43v3.48c0,.73-.17,1.24-.5,1.52s-.9.43-1.69.43h-2.78l-.59-1.89h3.12v-1.59h-4.58v4.16h7.07v1.57c-.33,1.89-.98,3.64-1.97,5.24.65.77,1.42,1.49,2.29,2.16ZM205.41,41.57c.88-.59,1.65-1.29,2.31-2.1-.69-1.08-1.32-2.44-1.87-4.07l2.06-.66c.38,1.06.78,1.96,1.19,2.69.5-.97.81-1.91.96-2.82h-4.65v6.96Z"/>
          <path class="cls-2" d="M235.85,34.72v8.83h-2.67v-.96h-8.3v.96h-2.68v-5.83c-1.3.45-2.58.84-3.82,1.17l-1.1-2.14c2.59-.59,4.92-1.37,6.98-2.33-.88-.84-1.64-1.52-2.29-2.02l2.02-1.32c.75.55,1.6,1.27,2.55,2.16,1.77-1.05,3.17-2.2,4.2-3.46h-5.92c-1.66,1.38-3.73,2.52-6.22,3.44l-1.32-1.95c1.88-.71,3.44-1.46,4.66-2.27,1.22-.81,2.26-1.78,3.11-2.93l2.42.78c-.13.19-.33.47-.62.85h7.11v1.61c-1.18,2.01-3.01,3.81-5.52,5.41h7.41ZM224.88,36.8v3.67h8.3v-3.67h-8.3Z"/>
        </g>
      </g>
      <path class="cls-2" d="M294.34,34.85c0,.13-.26,7.77,2.27,13.56.33-.39.65-.8.94-1.21,2.44-2.93,9.4-11.58,17.05-11.16v-1.19s0-1.19,0-1.19c-7.65.42-14.61-8.23-17.05-11.16-.29-.41-.6-.8-.92-1.19-2.55,5.8-2.29,13.46-2.29,13.55Z"/>
    </g>
  </g>
</svg>