<?xml version="1.0" encoding="UTF-8"?>
<svg id="b" data-name="圖層 2" xmlns="http://www.w3.org/2000/svg" width="105.38" height="105.38" viewBox="0 0 105.38 105.38">
  <defs>
    <style>
      .d {
        fill: #fff;
      }

      .e {
        fill: #092a31;
      }
    </style>
  </defs>
  <g id="c" data-name="說明">
    <circle class="d" cx="52.69" cy="52.69" r="52.69"/>
    <g>
      <path class="e" d="M32.47,45.69l1.53.56-.29,2.27c-.05.44-.19.77-.44.99-.24.22-.54.33-.88.33-.46,0-.93-.17-1.4-.49-.62-.42-1.15-.94-1.59-1.55-.99.7-2.19,1.33-3.59,1.89l-.79-1.46c1.35-.46,2.54-1.07,3.58-1.82-.48-1.05-.81-2.33-1-3.84h-2.73v1.54c.92-.14,1.69-.28,2.29-.4l.21,1.38c-.95.21-1.78.37-2.5.48v2.57c0,.53-.13.93-.4,1.18s-.69.37-1.26.37h-2.21l-.46-1.48h2.52v-2.37c-.58.07-1.52.17-2.83.28l-.27-1.47c1.26-.1,2.29-.2,3.1-.31v-1.76h-3.12v-1.47h3.12v-1.59c-.87.09-1.72.15-2.54.19l-.33-1.36c2.56-.12,4.51-.35,5.85-.67l.83,1.26c-.46.12-1.12.25-2,.39v1.79h2.6c-.05-.8-.08-1.58-.08-2.33v-1.19h1.8v1.18c0,.76.02,1.54.08,2.34h4.41v1.47h-4.26c.15,1.02.35,1.89.62,2.61.71-.71,1.31-1.51,1.81-2.41l1.47.72c-.76,1.27-1.6,2.33-2.53,3.19.39.61.86,1.08,1.42,1.43l.25-2.43ZM31.55,40.76c-.22-.41-.45-.78-.7-1.12s-.59-.78-1.03-1.32l1.48-.75c.75.82,1.35,1.62,1.8,2.41l-1.56.79Z"/>
      <path class="e" d="M50.84,39.29h-4.29v.84h3.54v3.44h-5.82c-.12.19-.32.47-.6.84h7.14v1.31h-2.17c-.51.73-1.16,1.36-1.94,1.88,1.55.35,2.91.67,4.09.98l-.84,1.24c-1.58-.42-3.27-.84-5.07-1.26-1.83.73-4.23,1.15-7.19,1.24l-.45-1.3c2.1-.08,3.77-.26,5-.53l-3.52-.76c.62-.53,1.16-1.03,1.62-1.5h-3.03v-1.31h4.26c.23-.25.46-.53.69-.84h-4.22v-3.44h3.42v-.84h-4.15v-1.42h13.53v1.42ZM41.47,41.35h-1.66v1.03h1.66v-1.03ZM42.56,45.72c-.25.28-.54.57-.88.88,1.09.2,2.07.38,2.95.56.72-.36,1.36-.84,1.92-1.44h-3.99ZM43.1,40.13h1.79v-.84h-1.79v.84ZM44.89,41.35h-1.79v1.03h1.79v-1.03ZM48.32,42.38v-1.03h-1.77v1.03h1.77Z"/>
      <path class="e" d="M58.27,37.53v2.06h3.07c0,2.17-.02,3.85-.06,5.04-.04,1.19-.11,2.16-.21,2.93-.07.53-.18.93-.33,1.22-.15.29-.38.5-.68.62-.3.12-.71.19-1.25.19h-1.14l-.45-1.64h1.16c.34,0,.57-.06.69-.17.12-.11.2-.33.25-.66.09-.63.15-1.4.19-2.29.04-.9.06-2.11.08-3.66h-1.33c-.01,2.06-.23,3.76-.65,5.09-.43,1.34-1.06,2.56-1.91,3.68l-1.5-1.28c.81-.88,1.38-1.89,1.73-3.02.34-1.13.52-2.62.54-4.46h-1.93v-1.58h1.93v-2.06h1.8ZM62.2,49.82v-11.22h5.72v11.22h-1.8v-.98h-2.15v.98h-1.77ZM63.97,40.2v7.07h2.15v-7.07h-2.15Z"/>
      <path class="e" d="M84.41,48.1h1.26l-.28,1.48h-7.25c-1.34,0-2.33-.18-2.98-.53-.65-.36-.99-.86-1.01-1.5h-.15c0,.56-.15,1.01-.48,1.36-.33.34-.83.63-1.48.86l-.56-1.55c.44-.14.77-.29,1-.43s.4-.33.51-.55c.11-.22.17-.53.17-.91v-2.59h-1.44v-1.48h3.21v4.08c0,.73.36,1.23,1.08,1.5l-.48-.76c1.13-.22,2.05-.49,2.76-.8h-2.69v-1.26h2.12v-.84h-1.95v-1.26h1.95v-.65h1.65v.65h2.1v-.65h1.68v.65h2.06v1.26h-2.06v.84h2.27v1.26h-2.86c.43.12.88.28,1.35.45s.89.35,1.25.52l-.73.86ZM73.91,41.32c-.52-.86-1.25-1.8-2.19-2.82l1.44-.92c.76.77,1.5,1.72,2.23,2.82l-1.48.92ZM77.21,41.99c-.56,0-.95-.08-1.16-.24-.21-.16-.32-.45-.32-.87v-1.55h2.75v-.48h-2.75v-1.12h4.31v2.57h-2.81v.37c0,.09.02.15.08.18.05.03.13.05.24.05h1.54v-.49l1.26.27v.44c0,.31-.09.54-.26.68s-.46.21-.85.21h-2.02ZM78.17,48.1h5.66c-1.01-.46-1.92-.82-2.72-1.06l.83-.78h-3.24l.81.87c-.66.35-1.45.65-2.38.92.32.03.67.04,1.05.04ZM81.47,44.17h-2.1v.84h2.1v-.84ZM82.13,41.99c-.56,0-.95-.08-1.16-.24-.22-.16-.32-.45-.32-.87v-1.55h2.91v-.48h-2.91v-1.12h4.5v2.57h-3v.37c0,.09.02.15.08.18.05.03.13.05.24.05h1.68v-.49l1.32.27v.44c0,.31-.09.54-.27.68-.18.14-.48.21-.9.21h-2.16Z"/>
    </g>
    <g>
      <path class="e" d="M51.32,74.99c0,.08-.15,4.41,1.29,7.7.19-.22.37-.45.54-.69,1.39-1.67,5.34-6.58,9.68-6.34v-.68s0-.68,0-.68c-4.35.24-8.3-4.67-9.68-6.34-.17-.23-.34-.46-.52-.68-1.45,3.29-1.3,7.64-1.3,7.69Z"/>
      <path class="e" d="M42.56,75c0,.08-.15,4.41,1.29,7.7.19-.22.37-.45.54-.69,1.39-1.67,5.34-6.58,9.68-6.34v-.68s0-.68,0-.68c-4.35.24-8.3-4.67-9.68-6.34-.17-.23-.34-.46-.52-.68-1.45,3.29-1.3,7.64-1.3,7.69Z"/>
    </g>
  </g>
</svg>