<?xml version="1.0" encoding="UTF-8"?>
<svg id="_圖層_2" data-name="圖層 2" xmlns="http://www.w3.org/2000/svg" width="276.97" height="75.4" viewBox="0 0 276.97 75.4">
  <defs>
    <style>
      .cls-1 {
        fill: #fff;
        stroke: #092a31;
        stroke-miterlimit: 10;
        stroke-width: 2.45px;
      }

      .cls-2 {
        fill: #092a31;
      }
    </style>
  </defs>
  <g id="icon">
    <g>
      <rect class="cls-2" x="1.22" y="2.04" width="275.75" height="73.36" rx="35.44" ry="35.44"/>
      <rect class="cls-1" x="1.22" y="1.22" width="268.71" height="67.25" rx="33.62" ry="33.62"/>
      <path class="cls-2" d="M212.61,34.84c0,.13-.26,7.77,2.27,13.56.33-.39.65-.8.94-1.21,2.44-2.93,9.4-11.58,17.05-11.16v-1.19s0-1.19,0-1.19c-7.65.42-14.61-8.23-17.05-11.16-.29-.41-.6-.8-.92-1.19-2.55,5.8-2.29,13.46-2.29,13.55Z"/>
      <g>
        <path class="cls-2" d="M87.17,38.94l1.8.64v1.83c0,.53-.05.93-.16,1.2-.11.27-.29.46-.54.57-.25.11-.62.16-1.1.16h-1.17c-.64,0-1.1-.14-1.38-.41-.28-.27-.42-.78-.42-1.52v-3.41h-.85c-.06.96-.21,1.77-.47,2.43-.25.66-.62,1.24-1.08,1.74-.47.5-1.09.99-1.87,1.48l-.66-.98v.21h-7.24v.66h-2v-5.49l-.49.55-.79-1.97c.96-.88,1.73-1.99,2.31-3.33h-1.66v-3.54h4.65v3.54h-2.17l1.17.26c-.16.37-.31.68-.47.93h1.85c.21-.34.41-.74.59-1.19h-.47v-3.54h4.65v3.54h-3.4l1.34.28c-.14.29-.33.59-.55.91h2.67v1.55h-3.04v.76h2.74v1.46h-2.74v.76h2.74v1.46h-2.74v.81h3.01c.62-.43,1.08-.87,1.36-1.32s.47-1.11.55-1.97h-1.29v-11.46h8.24v11.46h-1.72v2.93c0,.13.02.21.06.25.04.04.13.06.28.06h.42v-2.31ZM73.22,29.41h-2.02v-.7h-2.1v-1.63h2.1v-.93h2.02v.93h2.1v-.93h2.02v.93h2.1v1.63h-2.1v.7h-2.02v-.7h-2.1v.7ZM72.4,31.15h-1.19v.81h1.19v-.81ZM72.04,36.82h2.25v-.76h-2.25v.76ZM72.04,39.04h2.25v-.76h-2.25v.76ZM74.29,40.49h-2.25v.81h2.25v-.81ZM77.49,31.15h-1.21v.81h1.21v-.81ZM85.75,28.56h-3.54v1.23h3.54v-1.23ZM85.75,31.66h-3.54v1.23h3.54v-1.23ZM85.75,34.74h-3.54v1.31h3.54v-1.31Z"/>
        <path class="cls-2" d="M112.99,33.55h-11c-.37.52-.58.81-.64.89h9.91v9.21h-2.55v-.78h-8.6v.78h-2.55v-5.64c-.81.58-1.7,1.17-2.67,1.76l-1.42-1.85c2.49-1.41,4.37-2.87,5.65-4.37h-5.37v-1.7h6.56l.45-.89h-6.54v-1.7h7.13l.19-.81-6.3.06-.53-1.7c3.76,0,6.92-.04,9.48-.12,2.55-.08,4.83-.27,6.83-.58l1.04,1.68c-2.07.29-4.74.49-8.02.61l-.19.87h8.66v1.7h-9.19l-.38.89h10.06v1.7ZM100.12,36.77h8.6v-.79h-8.6v.79ZM100.12,38.98h8.6v-.79h-8.6v.79ZM100.12,41.27h8.6v-.87h-8.6v.87Z"/>
        <path class="cls-2" d="M137.08,43.54c-2.97,0-5.36-.11-7.17-.33-1.81-.22-3.4-.63-4.76-1.22-1.49.72-3.59,1.23-6.3,1.53l-.68-2.02c1.91-.23,3.43-.52,4.56-.89-.52-.37-1.05-.78-1.59-1.25l1.7-1.4h-2.99v-8h6.52v-1.32h-8.09v-2.04h19.02v2.04h-8.43v1.32h6.86v8h-7.15c-.28,1.02-.74,1.87-1.38,2.55.98.33,2.13.56,3.45.69,1.32.13,2.95.2,4.89.2.78,0,1.38,0,1.8-.02l-.25,2.16ZM126.36,33.1v-1.4h-4.14v1.4h4.14ZM122.22,34.76v1.46h4.12c.01-.19.02-.49.02-.91v-.55h-4.14ZM122.88,37.96c.62.58,1.3,1.09,2.02,1.53.48-.43.84-.94,1.08-1.53h-3.1ZM133.34,36.22v-1.46h-4.48v.55c0,.42,0,.72-.02.91h4.5ZM133.34,33.1v-1.4h-4.48v1.4h4.48Z"/>
        <path class="cls-2" d="M158.33,29.07c-1.54,1.93-3.48,3.48-5.82,4.64-2.33,1.17-5.33,2.05-8.98,2.66l-1-1.99c2.41-.35,4.54-.85,6.41-1.48-.31-.3-.79-.73-1.42-1.27l2.08-1.15c.38.3.96.79,1.72,1.48,1.64-.76,2.92-1.6,3.82-2.54h-4.56c-1.85,1.12-3.97,1.99-6.35,2.61l-1.1-1.93c1.83-.47,3.45-1.04,4.86-1.73,1.42-.69,2.51-1.47,3.29-2.34l2.4.76c-.17.23-.4.5-.7.81h5.35v1.46ZM161.96,34.72v1.49c-1.75,2.22-3.96,3.94-6.6,5.15s-6.01,1.97-10.08,2.29l-.96-2.12c3.03-.19,5.66-.64,7.9-1.36-.88-.86-1.46-1.4-1.76-1.63l2.21-1.12c.71.54,1.39,1.14,2.04,1.78,1.54-.73,2.85-1.62,3.93-2.67h-4.86c-2.15,1.1-4.66,1.94-7.52,2.54l-1.02-1.97c2.48-.52,4.46-1.09,5.96-1.72,1.5-.63,2.85-1.45,4.05-2.46l2.38.91c-.35.34-.69.64-1.02.89h5.35Z"/>
      </g>
      <path class="cls-2" d="M197.33,34.85c0,.13-.26,7.77,2.27,13.56.33-.39.65-.8.94-1.21,2.44-2.93,9.4-11.58,17.05-11.16v-1.19s0-1.19,0-1.19c-7.65.42-14.61-8.23-17.05-11.16-.29-.41-.6-.8-.92-1.19-2.55,5.8-2.29,13.46-2.29,13.55Z"/>
    </g>
  </g>
</svg>