<?xml version="1.0" encoding="UTF-8"?>
<svg id="b" data-name="圖層 2" xmlns="http://www.w3.org/2000/svg" width="110.7" height="110.7" viewBox="0 0 110.7 110.7">
  <defs>
    <style>
      .d {
        fill: #fff;
      }

      .e {
        fill: #092a31;
      }
    </style>
  </defs>
  <g id="c" data-name="說明">
    <circle class="e" cx="55.35" cy="55.35" r="55.35"/>
    <g>
      <path class="d" d="M36.37,42.8v1.3h-1.5v3.26h-1.68v-3.26h-1.25c-.07.61-.18,1.15-.34,1.64-.16.49-.38.98-.67,1.48l-1.22-.84v.21h-2.59v.75h-1.58v-.75h-2.9v-1.03h2.9v-.36h-2.44v-3.18h2.44v-.35h-2.79v-1.03h2.79v-.55h1.58v.55h2.76v1.03h-2.76v.35h2.44v3.18h-2.44v.36h2.59v.41c.22-.4.38-.79.47-1.18.09-.38.15-.86.18-1.44.02-.58.04-1.47.04-2.68,2.13,0,3.83-.2,5.12-.57l.81,1.24c-1.31.34-2.74.53-4.29.59,0,.39,0,.68-.02.86h4.33ZM25.83,52.59h-1.74v-4.96h10.78v4.96h-1.77v-.52h-7.27v.52ZM25.65,42.84h-1.06v.4h1.06v-.4ZM25.65,43.97h-1.06v.41h1.06v-.41ZM33.1,49.32v-.59h-7.27v.59h7.27ZM25.83,50.34v.59h7.27v-.59h-7.27ZM27.03,43.25h1.12v-.4h-1.12v.4ZM27.03,44.38h1.12v-.41h-1.12v.41Z"/>
      <path class="d" d="M41.86,52.02h-1.74v-11.55h4.56v10.45h-2.82v1.1ZM43.06,44.74v-2.87h-1.26v2.87h1.26ZM41.8,46.17v3.34h1.26v-3.34h-1.26ZM53.65,45.6h-1.64v1.23h1.5v1.44h-1.5v2.58c0,.56-.13.96-.4,1.2-.27.24-.71.35-1.34.35h-1.74l-.51-1.51h2.28v-2.62h-5.07v-1.44h5.07v-1.23h-5.19v-1.44h3.24v-1.27h-3.07v-1.43h3.07v-1.34h1.7v1.34h3.38v1.43h-3.38v1.27h3.6v1.44ZM47.2,48.41c.28.21.59.49.94.82.35.33.62.62.83.87l-1.31.98c-.19-.24-.46-.53-.8-.86-.35-.33-.66-.62-.95-.86l1.29-.94Z"/>
      <path class="d" d="M70.95,48.03l-1.2,1.43-4.67-3.29s-.1-.05-.15-.05c-.07,0-.1.06-.1.19v6.11h-1.95v-6.2c-1.34,1.27-2.97,2.35-4.89,3.25l-.99-1.47c3.36-1.52,5.56-3.4,6.6-5.64h-6.38v-1.63h13.5v1.63h-5.17c-.2.51-.44,1-.72,1.47v1.54h.1l.38-.37c.18-.19.35-.28.51-.28.12,0,.26.05.42.16l4.71,3.17Z"/>
      <path class="d" d="M88,41.95h-4.29v.84h3.54v3.44h-5.82c-.12.19-.32.47-.6.84h7.14v1.31h-2.17c-.51.73-1.16,1.36-1.94,1.88,1.55.35,2.91.67,4.09.98l-.84,1.24c-1.58-.42-3.27-.84-5.07-1.26-1.83.73-4.23,1.15-7.19,1.24l-.45-1.3c2.1-.08,3.77-.26,5-.53l-3.52-.76c.62-.53,1.16-1.03,1.62-1.5h-3.03v-1.31h4.26c.23-.25.46-.53.69-.84h-4.22v-3.44h3.42v-.84h-4.15v-1.42h13.53v1.42ZM78.63,44.01h-1.66v1.03h1.66v-1.03ZM79.72,48.38c-.25.28-.54.57-.88.88,1.09.2,2.07.38,2.95.56.72-.36,1.36-.84,1.92-1.44h-3.99ZM80.26,42.79h1.79v-.84h-1.79v.84ZM82.05,44.01h-1.79v1.03h1.79v-1.03ZM85.48,45.04v-1.03h-1.77v1.03h1.77Z"/>
    </g>
    <g>
      <path class="d" d="M56.72,77.67c0-.08.15-4.41-1.29-7.7-.19.22-.37.45-.54.69-1.39,1.67-5.34,6.58-9.68,6.34v.68s0,.68,0,.68c4.35-.24,8.3,4.67,9.68,6.34.17.23.34.46.52.68,1.45-3.29,1.3-7.64,1.3-7.69Z"/>
      <path class="d" d="M65.48,77.66c0-.08.15-4.41-1.29-7.7-.19.22-.37.45-.54.69-1.39,1.67-5.34,6.58-9.68,6.34v.68s0,.68,0,.68c4.35-.24,8.3,4.67,9.68,6.34.17.23.34.46.52.68,1.45-3.29,1.3-7.64,1.3-7.69Z"/>
    </g>
  </g>
</svg>