<?xml version="1.0" encoding="UTF-8"?>
<svg id="b" data-name="圖層 2" xmlns="http://www.w3.org/2000/svg" width="1040.37" height="210.97" viewBox="0 0 1040.37 210.97">
  <defs>
    <style>
      .d {
        fill: #231815;
      }

      .e {
        stroke-width: .59px;
      }

      .e, .f, .g {
        stroke: #06292f;
      }

      .e, .f, .g, .h {
        fill: #06292f;
      }

      .e, .g {
        stroke-miterlimit: 10;
      }

      .i {
        fill: #fff;
      }

      .j {
        fill: #dee2dd;
      }

      .k {
        fill: #e62320;
      }

      .f {
        stroke-linecap: round;
        stroke-linejoin: round;
      }

      .f, .g {
        stroke-width: 1.78px;
      }

      .l {
        fill: #0088cd;
      }
    </style>
  </defs>
  <g id="c" data-name="說明">
    <g>
      <path class="i" d="M366.23,9.47l35.19-3.77,3.66,34.19c.38,3.59-1.44,5.6-5.46,6.03l-10.07,1.08-2.13-5.13,11.38-1.22-.82-7.63-23.46,2.51c-.15,2.74-.56,5.26-1.25,7.58-.69,2.31-1.72,4.66-3.09,7.05l-6.21-3.28c1.41-2.33,2.45-4.59,3.12-6.78.67-2.19,1.03-4.63,1.1-7.33.07-2.7-.12-6.07-.55-10.11l-1.41-13.19ZM396.29,17.23l-.62-5.83-22.6,2.42.62,5.83,22.6-2.42ZM397.44,28.04l-.62-5.83-22.6,2.42c.13,1.56.26,3.51.37,5.86l22.86-2.45Z"/>
      <path class="i" d="M471.09,19.24c-3.49,2.48-7.29,4.8-11.39,6.97l.07,1.85c8.5-1.19,15.83-3.07,21.98-5.65l3.36,4.48c-6.92,2.82-15.31,4.88-25.15,6.18l.07,1.8c.03.87.25,1.45.65,1.74.4.29,1.22.41,2.47.36l17.05-.64-.2-5.32,6.42,1.07.16,4.28c.07,1.77-.36,3.02-1.28,3.73-.92.71-2.53,1.11-4.82,1.2l-18.42.69c-2.19.08-3.88-.04-5.06-.38-1.18-.33-2.03-.93-2.55-1.8-.52-.87-.81-2.16-.88-3.87l-.24-6.54c-2.99,1.41-6.15,2.74-9.48,4.01l-2.66-4.73c7.76-2.85,14.42-5.87,19.98-9.05l-19.33.72-.19-5.05,17.15-.64-.15-4.01-14.32.53-.19-4.96,14.32-.53-.17-4.64,6.17-.23.17,4.64,11.23-.42.13,3.43c2.05-2,3.92-4.09,5.59-6.26l4.92,2.84c-2.62,3.2-5.51,6.17-8.69,8.9l9.87-.37.19,5.05-16.8.63ZM464.98,14.41l4.35-.16c1.9-1.49,3.57-2.89,5.01-4.21l-9.51.35.15,4.01Z"/>
      <path class="i" d="M568.03,35.39l-.14,5.05-22.67-.64-.06,2.21-5.62-.16.67-23.41c-.56.62-1.15,1.25-1.78,1.89l-.73-.97.48,4.53c-1.09.33-2.69.77-4.8,1.31l-.31,10.87c-.05,1.92-.51,3.24-1.35,3.96-.85.71-2.35,1.04-4.51.98l-4.05-.11-1.52-5.46,5.72.16.26-9.11c-1.93.34-3.87.64-5.8.92l-.71-5.21c3.12-.42,5.34-.75,6.66-.98l.25-8.93-5.92-.17.14-5.1,5.92.17.2-7.17,5.72.16-.2,7.17,5.36.15-.11,3.88c2.83-3.47,5.08-7.24,6.75-11.32l5.17,1.77c-.69,1.82-1.48,3.48-2.37,4.99l5.31.15c1.13-1.77,2.17-3.88,3.12-6.32l5.33,1.46c-.69,1.79-1.58,3.46-2.68,5.02l8.71.25-.14,5.01-9.82-.28-.12,4.24,8.6.24-.14,4.78-8.6-.24-.12,4.29,8.6.24-.13,4.74-8.6-.24-.14,4.96,10.17.29ZM533.51,20.01c.78-.16,1.68-.39,2.7-.69l1.17-.28-2.44-3.23c1.35-1.25,2.41-2.34,3.18-3.25l-4.4-.12-.22,7.58ZM552.48,29.98l-6.98-.2-.14,4.96,6.98.2.14-4.96ZM545.63,25.05l6.98.2.12-4.29-6.98-.2-.12,4.28ZM545.89,15.98l6.98.2.12-4.24-6.98-.2-.12,4.24Z"/>
      <path class="i" d="M647.27,34.91l-29.59-2.81-.63,1.25,28.83,2.74c-.44,3.92-1.04,6.85-1.8,8.8-.54,1.37-1.24,2.28-2.11,2.72-.87.45-2.17.59-3.88.42l-3.43-.33-.55-2.77-1.34.15c-.62-2.39-1.18-4.13-1.69-5.24l3.95-.4c.75,1.37,1.42,2.93,2,4.68.51.02.9-.06,1.19-.25.29-.18.53-.55.72-1.11.44-1.38.7-2.59.8-3.64l-30.14-2.86c1.69-2.83,3.13-5.88,4.33-9.15l-4.33-.41c-.39,3.44-1.06,6.62-2,9.53-.94,2.92-2.32,5.81-4.16,8.69l-3.94-4.54c2.57-3.5,4.17-8.61,4.81-15.32l1.18-12.44,17.34,1.65.19-1.98,5.8.55-.19,1.98,20.01,1.9-.38,3.95-14.47-1.37-.14,1.44,11.95,1.13-.78,8.18-25.25-2.4-.52,1.22,28.53,2.71-.32,3.32ZM619.68,12.66l-5.6-.53.15-1.53-10.69-1.01.4-4.18,10.69,1.01.2-2.11,5.59.53-.2,2.11,12.1,1.15.2-2.11,5.7.54-.2,2.11,11.49,1.09-.4,4.18-11.49-1.09-.15,1.53-5.7-.54.14-1.53-12.1-1.15-.15,1.53ZM606.55,43.32c1.7-1.8,2.97-3.83,3.83-6.07l4.66,1.26c-.38,1.17-.92,2.39-1.62,3.65-.7,1.26-1.44,2.36-2.24,3.28l-4.63-2.12ZM616.51,22.47l-6.45-.61-.15,1.53,6.45.61.15-1.53ZM616.97,17.71l-6.45-.61-.14,1.44,6.45.61.14-1.44ZM621.4,39.07c.5,2.22.67,4.37.51,6.44l-5.08-.07c.23-2.4.23-4.53,0-6.39l4.58.03ZM628.16,23.57l-6.45-.61-.15,1.53,6.45.61.15-1.53ZM622.02,19.64l6.45.61.14-1.44-6.45-.61-.14,1.44ZM628.18,39.39c.99,2.12,1.62,4.05,1.89,5.8l-4.97.43c-.11-1.7-.51-3.72-1.21-6.05l4.29-.18ZM639.71,26.21l.15-1.53-6.5-.62-.14,1.53,6.5.62Z"/>
    </g>
    <g>
      <path class="j" d="M212.19,151.85l6.68,22.75-11.38,3.34-16.12-54.86,35.92-10.55,2.97,10.1-24.55,7.21,3.52,11.97,21.1-6.2,2.95,10.03-21.1,6.2Z"/>
      <path class="j" d="M252.99,165.07l-11.7,2.74,5.43-59.99,14.28-3.34,31.33,51.39-12,2.81-7.36-12.62-19.06,4.46-.92,14.55ZM255.78,116.75l-1.43,23.33,13.52-3.16-11.71-20.25-.38.09Z"/>
      <path class="j" d="M323.01,92.37l1.88,10.36-15.58,2.83,8.33,45.89-11.67,2.12-8.33-45.89-15.58,2.83-1.88-10.36,42.82-7.78Z"/>
      <path class="j" d="M377.73,131.98l1.39,10.44-38.04,5.07-7.55-56.67,38.04-5.07,1.39,10.44-26.29,3.5,1.65,12.37,22.73-3.03,1.38,10.36-22.73,3.03,1.74,13.07,26.29-3.5Z"/>
      <path class="j" d="M395.14,80.62c1.16.93,1.83,2.28,2.01,4.03l.17,1.71c.29,2.95-.18,5.92-1.43,8.92-1.24,3-2.99,5.58-5.23,7.73l-7.45.74c1.7-1.84,3.08-3.62,4.13-5.35,1.06-1.72,1.78-3.55,2.16-5.47-1.64-.15-2.9-.7-3.81-1.66-.91-.95-1.43-2.16-1.57-3.61l-.17-1.71c-.17-1.76.22-3.21,1.18-4.35.96-1.14,2.57-1.82,4.85-2.05,2.28-.23,4,.13,5.16,1.06Z"/>
      <path class="j" d="M407.01,131.19l7.33-8.32c4.14,4.2,9.1,6.1,14.85,5.71,3.06-.21,5.35-1.02,6.87-2.43,1.52-1.41,2.2-3.25,2.04-5.53-.12-1.81-.76-3.23-1.89-4.25-1.14-1.02-3.02-1.62-5.64-1.8l-5.58-.4c-11.68-.81-17.85-6.05-18.51-15.7-.23-3.37.42-6.41,1.96-9.12,1.53-2.71,3.85-4.89,6.94-6.53,3.09-1.64,6.79-2.61,11.1-2.91,8.3-.57,15.02,1.71,20.17,6.83l-7.33,8.32c-1.63-1.66-3.47-2.9-5.53-3.73-2.06-.82-4.5-1.14-7.3-.95-2.85.2-4.97.86-6.35,2-1.38,1.14-2.01,2.67-1.88,4.58.14,1.97.79,3.4,1.97,4.28,1.18.88,3.08,1.44,5.71,1.68l5.59.56c5.93.64,10.39,2.21,13.38,4.71,2.99,2.51,4.64,6.15,4.97,10.92.25,3.63-.4,6.9-1.95,9.79-1.55,2.9-3.93,5.23-7.14,7.02-3.21,1.78-7.1,2.83-11.67,3.14-8.72.6-16.09-2.03-22.12-7.87Z"/>
      <path class="j" d="M491.67,111.7l.23,23.71-11.86.12-.57-57.17,37.44-.37.1,10.53-25.58.25.12,12.48,22-.22.1,10.45-22,.22Z"/>
      <path class="j" d="M527.61,135.35l-12.01-.31,20.45-56.66,14.66.38,17.29,57.65-12.32-.32-3.92-14.07-19.57-.51-4.58,13.85ZM542.55,89.32l-7.29,22.2,13.88.36-6.2-22.56h-.39Z"/>
      <path class="j" d="M597.77,138.46l-13.23-.89-14.62-58.28,11.99.8,6.71,28.12,3.44,18.6.31.02,5.74-17.99,10.41-26.98,11.67.78-22.42,55.8Z"/>
      <path class="j" d="M630.77,138.88c-3.47-2.67-5.97-6.31-7.51-10.94-1.54-4.62-1.96-10.09-1.24-16.39.71-6.3,2.34-11.55,4.88-15.73,2.54-4.19,5.8-7.19,9.77-9.02s8.49-2.45,13.56-1.88c5.01.57,9.25,2.19,12.72,4.86,3.47,2.67,5.97,6.33,7.51,10.98,1.54,4.65,1.95,10.13,1.24,16.43-.71,6.3-2.34,11.54-4.88,15.7-2.54,4.16-5.8,7.15-9.77,8.98-3.98,1.83-8.47,2.46-13.48,1.89-5.06-.57-9.33-2.19-12.79-4.86ZM654.18,130.42c2.51-2.33,4.03-5.8,4.55-10.4l.97-8.6c.52-4.6-.18-8.31-2.11-11.15-1.93-2.83-4.78-4.47-8.55-4.89-3.88-.44-7.06.51-9.55,2.84-2.49,2.34-3.99,5.8-4.51,10.4l-.97,8.6c-.52,4.6.17,8.31,2.07,11.15,1.9,2.83,4.79,4.47,8.67,4.91,3.77.43,6.91-.52,9.43-2.86Z"/>
      <path class="j" d="M693.54,127.89l-3.54,21.08-11.69-1.96,9.47-56.38,26.23,4.4c3.44.58,6.3,1.82,8.59,3.74,2.29,1.91,3.89,4.32,4.8,7.21.91,2.9,1.07,6.11.48,9.65-.66,3.95-2.1,7.17-4.31,9.68-2.21,2.5-5.11,4.08-8.71,4.75l7.46,24.35-13-2.18-6.54-22.77-9.23-1.55ZM708.35,120.25c1.9.32,3.48.07,4.75-.74,1.27-.81,2.07-2.2,2.4-4.15l.59-3.54c.32-1.9,0-3.44-.92-4.62-.94-1.19-2.35-1.94-4.25-2.26l-13.15-2.21-2.57,15.31,13.15,2.21Z"/>
      <path class="j" d="M755.59,161.68l-26.07-5.67,2.01-9.22,7.24,1.58,8.14-37.42-7.24-1.58,2.01-9.22,26.07,5.67-2.01,9.22-7.24-1.58-8.14,37.42,7.24,1.58-2.01,9.22Z"/>
      <path class="j" d="M817.77,118.9l-2.75,10.16-15.28-4.14-12.19,45.02-11.44-3.1,12.19-45.02-15.28-4.14,2.75-10.16,42.01,11.37Z"/>
      <path class="j" d="M849.8,179.09l-3.47,9.94-36.24-12.64,18.83-53.99,36.24,12.64-3.47,9.94-25.04-8.73-4.11,11.78,21.65,7.55-3.44,9.87-21.65-7.55-4.34,12.45,25.04,8.73Z"/>
    </g>
    <g>
      <path class="l" d="M58.8,106.56c-.1-4.56-1.25-9.17-3.59-13.45-4.37-8.01-11.93-13.17-20.24-14.77L2.1,96.29c-3.14,7.86-2.87,17.01,1.5,25.01,2.34,4.28,5.59,7.74,9.38,10.29-9.36,15.4-10.5,35.24-1.23,52.19,13.83,25.3,45.55,34.61,70.86,20.78,25.3-13.83,34.61-45.55,20.78-70.86-9.27-16.96-26.57-26.71-44.59-27.16Z"/>
      <path class="i" d="M47.32,89.36c2.28,3.31,3.64,7.16,4.8,11.01.69,2.32,1.11,7.47-2.23,13.61-2.88,5.3-8.51,8.76-14.14,10.92-5.63,2.17-12.07,2.42-17.67.18-5.6-2.25-10.2-7.11-11.62-12.97-1.15-4.74-.15-9.96,2.66-13.95,2.49-3.53,6.2-5.98,9.95-8.12,5.14-2.93,11.3-6.59,17.14-7.79,4.18-.86,8.99,4.05,11.1,7.12Z"/>
      <path class="d" d="M34.49,79.12c-4.2,7-13.95,11.84-13.95,11.84,0,0-9.69,5.8-17.94,5.32l-.69-.06s8.59-18.15,1.57-29.47l2.96-1.62,2.96-1.62c5.73,12.02,25.65,14.6,25.65,14.6l-.55,1Z"/>
      <path class="d" d="M50.07,156.85c.12.01.38.34.73.98.21.39.65,2.12,1.23,5.13l.06,2.05c0,.94.09,1.6.18,1.98-.06.11-.11.65-.23,1.66-.05.85-.15,1.45-.27,1.87-.55.07-.84.34-.82.8-.34-.13-.51-.15-.54-.06-.41,1.05-.89,1.31-1.48.81-.08.28-.26.38-.54.3l-.12.14-.09.13c-.14-.04-.28,0-.46.09-.41-.76-.8-1.33-1.17-1.79,0-1.85,0-2.94-.01-3.25.55-3.95.47-6.61-.25-8.06-.14-.04-.28,0-.37.12-.13.11-.3.17-.53.17-.79.2-1.41.5-1.79.9-1.13,1.17-1.84,2.02-2.05,2.57-.06.11-.13.11-.18.02s-.1-.1-.17-.02c-.51.71-1.42,1.21-2.72,1.49-.08-.15-.25-.18-.52-.03-.19-.13-.52-.23-.93-.27-.45-.03-.73-.11-.84-.25-.11-.06-.21-.32-.34-.76l-.19-.05c-.06-.32-.3-.62-.73-.98.04-.14-.04-.37-.27-.64-.2-.29-.28-.51-.24-.65.21-.12.34-.3.41-.54-.06-.24,1.06-1.44,3.27-3.63.45.03,1.08-.32,1.89-.99,1.14-.94,3.28-1.4,6.42-1.39.33.1.9.14,1.72.2l1.21.63.73,1.33ZM58.99,152.29c-.05.19-.02.32.09.46.92,1.03,2.49,3.62,4.73,7.73.17.73.57,1.69,1.25,2.93l1.24,2.27c-.09.05-.1.1-.09.13s-.03.09-.12.14c.05.09.16.23.34.4l.13.24c.08.07.11.14.16.15l.03.06c-.1.33-.15.59-.14.74.15.35.15.7.09,1.09-.09.48-.14.74-.11.8-.09.05-.25.26-.52.64-.26.38-.48.49-.66.36-.05.19-.14.39-.3.6-.16.28-.26.46-.3.6-.26.03-.85-.48-1.73-1.45-1.06-.72-2.21-1.89-3.46-3.6-.16-.23-.23-.42-.18-.61-.51-.58-1.15-1.45-1.85-2.6-.61-1.04-1.12-1.98-1.52-2.78-.34-.76-.88-1.68-1.58-2.75-.02-.26-.18-.61-.48-1.03-.31-.5-.53-.89-.55-1.15l-.19-.05c-.14-.04-.17-.1-.02-.18.12-.07.13-.11,0-.15l-.19-.05s-.07-.12-.12-.37c0-.15-.1-.26-.24-.3-.02-.26-.16-.58-.45-.97-.29-.47-.49-.83-.52-1.09-.15.08-.3-.11-.48-.6l-.82-2.14c.07-.94-.2-1.73-.83-2.45-.04-.72-.3-1.33-.79-1.8.08-.28.11-.45.06-.54l-.21-.39c.25-.84.63-1.29,1.18-1.35-.05-.09.1-.33.45-.76.23.07.37.11.45.18.21.16.36.23.45.18.18-.1.57-.04,1.18.22.07-.08.18-.1.41-.03.18-.02.35,0,.46.06.7.28,1.42.95,2.12,1.94-.18.1-.22.24-.12.42s.13.32.09.46l.19.05.79,1.45c-.1.17-.05.42.24.73.32.37.5.55.48.6-.02.32.18.69.58,1.06.45,1.25.91,2.09,1.37,2.51ZM67.64,150.67l-.19.3-.21.27c.16.5.07.98-.24,1.5l.28.51c.89.41,2.07.63,3.55.69,1.58.31,3.28.76,5.04,1.33.83.02,1.5.16,2.02.47.79,0,1.6.34,2.49,1.03-.46.6-.42,1.09.13,1.46-.13.19-.12.42.03.69.16.3.2.52.13.6-.61.68-.9,1.08-.91,1.2-.07.74-.14,1.18-.18,1.32-1.2.18-1.97.13-2.33-.1-.15.08-.34.1-.48.06-.59-.07-1.44-.27-2.55-.65-.92-.32-1.74-.54-2.38-.62-.24-.3-.73-.47-1.51-.55-.83-.45-1.3-.66-1.39-.61-.1-.18-.2-.29-.34-.33-.28,0-1.94-.75-4.94-2.29v-.15s-.03-.18-.03-.18c-1.15-.82-1.71-2.63-1.71-5.42.18-.1.21-.27.06-.54.09-.56.17-1.12.33-1.63.21-.7.29-1.26.33-1.63.25-.33.59-1.22,1.03-2.64.77-1.24,1.1-2.37.95-3.42-.02-.11.04-.22.16-.28.42.12.68.18.78.13.4-.41.91-.34,1.52.19.02.03.12.01.34-.03.2,0,.31-.01.35,0,.14.04.28.16.37.31.12.21.21.32.34.33,1.52,0,2.34.69,2.42,2.05.14.04.3.19.43.43-.04.14-.09.48-.11,1.08-.02.76-.08,1.22-.15,1.3-2.35,1.87-3.51,3.13-3.4,3.82Z"/>
      <g>
        <path class="g" d="M32.24,104.02c-.73-.76-1.87-1.06-2.83-.55-.9.48-1.35,1.5-1.19,2.5.12.76,1.31.57,1.18-.19-.18-1.08,1.11-1.84,1.91-1,.53.55,1.47-.2.93-.75Z"/>
        <path class="f" d="M38.77,87.23c-2.42-1.08-5.31-.63-7.29,1.12-.58.51.17,1.45.75.93,1.68-1.49,4.05-1.86,6.1-.94.71.32,1.14-.8.44-1.12Z"/>
        <path class="f" d="M13.42,98.62c-2.35.73-3.91,2.94-3.92,5.38,0,.77,1.19.67,1.2-.1.01-1.92,1.32-3.59,3.13-4.15.74-.23.33-1.36-.4-1.13Z"/>
        <path class="g" d="M42.72,111.75c.1-1.2.08-2.39-.15-3.57-.14-.73-.27-1.9-1.04-2.16,0,0,0,0,0,0-.14-.08-.27-.1-.39-.09,0,0,0-.02,0-.02-.17-.03-.36,0-.53.15-4.65,4.18-10.22,7.21-16.23,8.89-.74.21-.36,1.34.38,1.14.25-.07.5-.15.75-.22.09.05.2.06.34.04,1.02-.19,2.13.8,2.95,1.31.93.58,1.87,1.15,2.86,1.62,1.78.83,3.75,1.33,5.71.94.57-.11,1.11-.32,1.61-.59.11,0,.23-.03.34-.11.34-.24.65-.51.93-.79.06-.02.12-.05.18-.1,1.7-1.44,2.11-4.33,2.29-6.43ZM40.93,114.83c-.07.25-.14.51-.23.77-.02.03-.05.07-.07.11-.38.78-.89,1.45-1.53,2-1.05.81-2.43,1.11-3.77.98-1.83-.18-3.5-1.04-5.06-1.97-.74-.44-1.6-1.15-2.5-1.6,4.64-1.69,8.94-4.2,12.72-7.39.04.01.07.01.11.02.04-.04.08-.07.13-.09.08-.03.18-.02.26.02.01,0,.02.01.04.02.13.03.26.12.33.24.07.12.11.26.12.4.01.14,0,.27,0,.41,0,.02,0,.03,0,.05.04.28.07.55.09.83.06.92.02,1.84-.11,2.76-.12.83-.3,1.64-.52,2.45Z"/>
        <path class="h" d="M19.27,110.49c.83-1.08.65-2.47,0-3.59-.69-1.17-1.84-2.11-3.26-1.53-.96.39-1.55,1.38-1.66,2.4-.07.19-.12.38-.14.59-.15,1.22.54,2.47,1.65,2.99,1.17.55,2.64.18,3.42-.85Z"/>
        <path class="h" d="M40.79,94.68c-1.34-1.78-4.97-1.62-5.57.76-.54,2.13,1.51,3.86,3.46,3.75.81.07,1.67-.32,2.15-.99.7-.97.68-2.56-.04-3.52Z"/>
      </g>
    </g>
    <g>
      <path class="k" d="M1023.59,135.61c4.05-2.1,7.67-5.17,10.48-9.17,5.25-7.46,6.54-16.52,4.31-24.68l-30.64-21.56c-8.44.66-16.52,4.94-21.77,12.4-2.81,3.99-4.48,8.44-5.09,12.96-17.96-1.59-36.25,6.15-47.37,21.95-16.59,23.58-10.93,56.15,12.66,72.75,23.58,16.59,56.15,10.93,72.75-12.66,11.12-15.8,12.23-35.64,4.67-52Z"/>
      <path class="i" d="M1033.87,117.66c-1.96,3.51-4.81,6.43-7.76,9.17-1.77,1.65-6.21,4.3-13.19,4.01-6.03-.25-11.61-3.77-16.04-7.86-4.43-4.09-7.51-9.76-7.96-15.77-.46-6.01,1.87-12.29,6.5-16.16,3.75-3.13,8.87-4.54,13.69-3.77,4.26.68,8.11,2.92,11.68,5.34,4.9,3.32,10.9,7.22,14.56,11.94,2.62,3.37.33,9.86-1.48,13.1Z"/>
      <path class="d" d="M1037.46,101.68c-8.13-.67-16.78-7.28-16.78-7.28,0,0-9.48-6.13-12.7-13.75l-.26-.65s20.08-.32,27.13-11.62l2.76,1.94,2.76,1.94c-8.25,10.46-1.77,29.46-1.77,29.46l-1.14-.05Z"/>
      <path class="d" d="M975.51,141.16c-.4.09-.93.36-1.61.85-.53.34-.98.62-1.37.81-.14.03-.38.07-.76.18-.51.19-.79.29-.88.35-.14.03-.51.19-1.05.53-.57.4-.95.64-1.16.74-.25.12-.63.23-1.09.29-.44.03-.89-.12-1.36-.45-.59-.42-1.02-1.06-1.22-1.91-.02-.52.16-1.78.58-3.76.37-1.55,1.27-3.06,2.68-4.59.69-.99,1.4-1.63,2.12-1.88.2.01.75.32,1.65.95.03.02.48.46,1.31,1.26.72.72,1.33,1.23,1.83,1.58l-.03.4.7.5c-.03.28,0,.67.06,1.18.09.53.07.85,0,.96-.09,1.32-.22,1.99-.41,2.02ZM977.98,155.24c.4.57,1.18,1.55,2.38,3.02,1.34,1.62,2.29,2.79,2.81,3.54.68.94,1.34,2.04,1.99,3.21.72,1.31,1.16,2.54,1.24,3.69.15,1.16-.02,2.3-.47,3.42.05.16-.07.33-.34.48-.29.17-.47.3-.53.39-.73.33-1.16.45-1.27.37-.39-.28-.75-.49-1.08-.68-.49-.26-.79-.43-.93-.53l-1.55-1.09-3.4-5.76-3.99-6.77c-2.28,1.26-4.59,3.59-6.99,7-.4.56-.97.79-1.76.65-.2-.01-.41-.08-.61-.22l-.37-.26c-.71-.12-1.63-.68-2.66-1.66-.23-.16-.36-.38-.42-.72l-.1-1.12c-.04-.49-.07-.8-.14-.94,0-.96.29-1.86.91-2.73,1.58-2.25,2.87-3.83,3.86-4.77,5.1-4.79,12.47-9.29,22.14-13.51,1.01,1.26,1.61,2.73,1.8,4.38.44,2.12-.31,3.78-2.18,4.95l-4.4,2.96c-.38.24-.83.47-1.38.71-.6.25-1.11.56-1.55.89-.41.34-.76.73-1.02,1.09ZM999.8,158.63c.2-.58.03-2.25-.6-5.01-.05-.16-.18-.46-.38-.9l-.44-.81c-.1-.16-.29-.25-.57-.32-5.05.36-8.19,1.65-9.41,3.86-1.03,2.18-1.22,3.65-.54,4.42.7.92,1.49,1.17,2.31.78.31-.2.79-.29,1.44-.25.7.03,1.16.02,1.37-.09.08.06.16.2.24.38l2.72-.57c.2.01.58.07,1.17.19.59.12,1.05.06,1.34-.11.76-.31,1.22-.83,1.36-1.57Z"/>
      <path class="e" d="M1014.75,109.9c-.54-1.58-2.13-2.76-3.8-2.82-.42-.02-.86.26-.88.72-.02.41.27.87.72.88.16,0,.32.02.47.05,0,0,.05.01.09.02,0,0,.02,0,.03,0,.08.02.15.05.23.07.07.03.15.06.22.09.04.02.07.03.11.05,0,0,.06.03.07.04.03.02.07.04.1.06.08.05.15.1.22.15.06.05.13.1.19.15.02.02.04.04.07.06.01.04.13.14.16.17.05.06.1.12.15.18.05.06.09.13.14.19,0,0,0,0,0,.01.02.03.03.06.05.09.08.15.14.31.2.46.14.4.69.6,1.06.42.42-.2.56-.63.42-1.06Z"/>
      <g>
        <path class="e" d="M1031.1,107.44s.02.02.04.03c0,0,0,0,0,0-.01,0-.02-.02-.03-.03Z"/>
        <path class="e" d="M1031.86,108.3c.05.12.06.11.04.07-.01-.02-.03-.04-.04-.07,0,0,0,0,0,0Z"/>
        <path class="e" d="M1034.21,109.55c-.31-1.76-1.29-3.28-2.64-4.13-.37-.23-.93-.07-1.16.4-.23.47-.15,1.05.24,1.3.14.09.27.18.4.28.02.01.04.03.05.04-.03-.02-.03-.03.03.02,0,0,0,0,0,0,0,0,.02.02.03.02,0,0-.01-.01-.02-.02.06.05.11.11.17.16.12.12.23.24.33.37.06.07.11.15.17.22.02.02.03.05.05.07,0,0,0,0,0,0,0,0,0,0,0,.01h0s.03.05.03.07c.06.13.15.25.21.37.08.15.15.31.21.48.03.08.06.17.09.25-.11-.27,0,.03.03.11.05.18.09.37.12.55.09.48.57.8,1,.62.45-.18.73-.69.64-1.21Z"/>
      </g>
      <g>
        <path class="e" d="M1009.97,91.43c.18-.53-.07-1.02-.56-1.26-.85-.42-1.81-.56-2.76-.51-.96.05-1.86.39-2.67.91-.2.13-.34.43-.36.65-.03.24.05.53.21.72.37.43.9.45,1.36.16.01,0,.02-.01.03-.02,0,0,0,0,0,0,0,0,.02,0,.02-.01.09-.05.17-.09.26-.13.16-.07.33-.14.49-.19-.03,0-.02,0,0,0,0,0,.02,0,.02,0,.03-.01.07-.02.1-.03-.03.01-.06.02-.08.03.02,0,.04-.01.05-.01.09-.02.18-.04.26-.05.19-.03.37-.05.56-.07.02,0,.04,0,.06,0-.06,0-.1,0,.01,0,0,0,0,0,0,0,.02,0,.04,0,.06,0-.01,0-.03,0-.05,0,.09,0,.17,0,.26.01.19.01.37.04.56.07.03,0,.06.01.09.02.08.02.16.05.24.07.19.06.37.14.55.23.46.22,1.1-.09,1.26-.56Z"/>
        <path class="e" d="M1007,91.59s.01,0,.02,0c0,0,0,0,0,0,0,0,0,0-.01,0Z"/>
        <path class="e" d="M1005.2,92.09s0,0,0,0c-.01,0-.02.01-.03.02.23-.12.14-.08.07-.04,0,0,0,0,0,0,0,0-.02.01-.03.02Z"/>
        <path class="e" d="M1006.01,91.74s.03,0,.05-.02c-.02,0-.03,0-.04.01,0,0,0,0,0,0Z"/>
      </g>
      <path class="e" d="M1015.22,121.89c.21-1.06.05-2.2-.43-3.17-.14-.28-.49-.44-.79-.29-.28.14-.44.49-.29.79.05.11.1.22.15.33,0,.02.02.05.03.07-1.26-.13-2.54-.03-3.79-.21-1.17-.17-2.29-.57-3.31-1.16-1.94-1.12-3.48-2.9-4.24-5.01.02,0,.03,0,.05,0,.31,0,.63-.2.64-.54.01-.3-.21-.64-.54-.64-1.07,0-2.11.34-2.94,1.02-.24.2-.29.6-.08.83.22.24.58.29.83.08.06-.05.13-.1.2-.15.89,2.44,2.56,4.49,4.76,5.88,1.11.7,2.36,1.22,3.64,1.48,1.51.31,3.02.57,4.54.33.15-.02.3-.05.44-.08-.01.12-.02.24-.04.35-.03.14.05.32.13.43.09.11.26.21.41.21.15,0,.31-.03.43-.13.13-.11.18-.24.21-.41Z"/>
      <g>
        <path class="e" d="M1025.84,116.94s-.08-.05-.12-.08c.19-.12.37-.24.55-.39,1.78-1.49,3.11-4.58,2.04-6.68-.35-.68-.95-1.12-1.56-1.5-.67-.42-1.36-.82-2.12-1.04-.91-.26-1.93-.15-2.77.37-.75.34-1.35,1.01-1.76,1.8-.28.55-.5,1.14-.68,1.72-.1.33-.17.67-.17,1.01-.04.21-.05.42-.02.63,0,.04.02.09.02.13,0,.34.03.68.13,1.02.26.93.8,1.62,1.48,2.14-.38.13-.71.4-.85.82-.39,1.1.58,1.9,1.27,2.42,1.19.9,3.46,1.7,4.64-.04.48-.72.55-1.8-.06-2.34ZM1022.53,111.85c-.23-.25-.42-.56-.44-.93,0-.04,0-.08,0-.12,0-.31.12-.64.34-.86.66-.67,1.62-.76,2.42-.6.35.07.7.2.99.4.37.28.72.64.79,1.16.02.14.02.27,0,.4,0,.06,0,.12-.02.17-.02.04-.04.08-.06.12,0,0,0,.01,0,.02-.03.09-.08.18-.14.26-.08.14-.17.26-.28.38-.18.18-.41.31-.65.39-.29.1-.6.15-.91.11-.79.07-1.54-.35-2.05-.91ZM1021.6,115.56c-.08-.08-.16-.18-.21-.29-.06-.14-.08-.3-.03-.46.05-.16.16-.29.29-.38.18-.12.41-.17.61-.18.22-.02.45,0,.66.04.06.01.11.03.17.04,0,0,0,0,.01,0,.18.01.36.05.54.1.04,0,.08,0,.12.02.26.06.52.16.77.26.15.04.31.09.45.16.17.07.37.15.52.27,0,0,0,0,0,0,0,0,0,0,0,0,.03.03.07.05.1.08.07.08.06.08.09.17.02.04-.03.1.02.05-.01,0-.02.02-.03.03,0,0,0,.02,0,.03l-.02.11s-.01.03-.02.05c-.01.18-.09.34-.23.47-.09.08-.21.13-.33.17-.23.13-.5.2-.76.23-.31.04-.65.02-.94-.12-.16-.02-.32-.05-.48-.1-.37-.1-.77-.28-1.07-.55-.09-.06-.17-.13-.25-.2ZM1025.27,118.58c-.03.06-.09.11-.13.16-.01.01-.03.02-.05.03-.06.06-.12.12-.2.17-.15.09-.33.16-.51.17,0,0,0,0,0,0-.48.11-1.01-.02-1.41-.18-.41-.16-.8-.4-1.15-.68-.16-.13-.32-.27-.46-.42-.09-.09-.19-.19-.27-.31-.03-.03-.06-.05-.08-.08-.03-.04-.05-.09-.06-.15-.01-.05-.01-.11,0-.16,0-.05.03-.1.06-.15,0-.01.01-.02.02-.03.01-.02.03-.04.05-.05.01-.02.03-.03.05-.05,0,0,.02-.01.02-.02.04-.02.07-.05.12-.07,0,0,.02,0,.03,0,.04-.01.08-.03.12-.03.05-.01.11,0,.16,0,.08,0,.15.02.23.04.04.01.08.03.12.05.05.02.1.05.15.08.02.02.04.04.06.05,0,0,.02.01.03.02,0,0,.02,0,.03,0,.21.13.43.24.67.32.64.22,1.3.21,1.94.01,0,0,0,0,0,0,.04-.02.07-.04.11-.04.04-.01.09-.02.13-.01.1.01.23.07.29.15.13.13.2.35.17.52,0,0,0,0,0,0,.03.12.04.25,0,.37-.01.05-.04.09-.07.14,0,.02-.02.03-.03.05-.03.04-.07.08-.11.12,0,0,0,0,0,0Z"/>
        <path class="e" d="M1010.87,102.13c.51-.82.78-1.78.62-2.71-.03-1.12-.61-2.2-1.47-2.97-.73-.65-1.58-1.13-2.44-1.59-.79-.42-1.62-.79-2.53-.78-2.8.02-4.99,2.98-5.3,5.55-.03.25-.03.51-.02.76-.05-.03-.1-.06-.16-.08-.94-.33-1.97.3-2.37,1.16-.96,2.09,1.34,3.96,3.03,4.68.97.41,2.41.97,3.25,0,.32-.37.38-.84.25-1.29.97.41,2.02.59,3.11.36.23-.05.45-.12.66-.2.43-.09.83-.29,1.16-.58.02-.01.04-.02.05-.03.33-.17.63-.42.88-.69.46-.49.91-1.02,1.26-1.59ZM1002.54,105.36c-.1.05-.2.05-.31.03-.19.01-.41-.06-.58-.11-.25-.07-.49-.15-.73-.25-.5-.2-1-.47-1.43-.8-.58-.44-1.3-1.16-1.21-1.96.02-.21.16-.46.38-.63.02-.02.08-.05.14-.08.01,0,.03-.03.04-.03.07-.02.14-.05.21-.05.07,0,.15-.01.22,0,.12.01.24.04.35.09.07.03.14.07.21.11.06.04.12.1.17.15.04.04.07.09.1.14.05.09.08.15.11.25,0,0,0,0,0,0,.25.47.57.9,1.01,1.26.2.16.41.29.62.42.07.03.15.07.21.11.09.05.17.11.25.18.22.18.43.41.48.7.02.1,0,.19-.05.28-.05.09-.12.15-.21.2ZM1004.18,103.89c-.14.01-.29-.02-.43-.06-.21-.07-.42-.16-.61-.27-.01,0-.02-.02-.03-.03-.23-.1-.45-.25-.65-.4-.39-.28-.71-.62-.99-1.01-.31-.43-.65-.95-.72-1.49,0,0,0-.01,0-.02-.02-.06-.02-.12-.03-.18,0-.02,0-.05,0-.07,0-.06,0-.13.03-.19,0-.03.02-.06.04-.09.01-.03.02-.06.04-.09.02-.05.06-.09.09-.13.03-.04.06-.09.1-.12l.1-.08s.02,0,.03,0c0-.02,0-.03,0-.05,0,.08.02,0,.07,0,.11-.01.1-.03.23,0,.05.01.1.03.15.05,0,0,0,0,0,0,0,0,0,0,0,0,.22.09.43.25.61.39.51.38.97.83,1.38,1.31,0,0,0,0,0,0,.21.12.41.28.57.46.18.19.35.41.47.64.12.21.22.46.22.71,0,.19-.06.35-.19.49-.12.14-.3.19-.48.21ZM1008.16,100.84s-.07.05-.11.07c-.38.18-.82.15-1.22.05-.96-.23-1.95-.83-2.36-1.76-.14-.32-.22-.69-.23-1.06-.05-.19-.09-.37-.12-.58l.04-.32c.04-.17.11-.32.23-.45.18-.23.38-.36.66-.46.56-.2,1.16-.05,1.68.19.4.18.76.47,1.06.78.69.72,1.24,1.72,1.01,2.74-.08.34-.32.62-.63.79Z"/>
      </g>
    </g>
  </g>
</svg>