<?xml version="1.0" encoding="UTF-8"?>
<svg id="b" data-name="圖層 2" xmlns="http://www.w3.org/2000/svg" width="1921.02" height="109.7" xmlns:xlink="http://www.w3.org/1999/xlink" viewBox="0 0 1921.02 109.7">
  <defs>
    <style>
      .f {
        fill: none;
      }

      .g {
        clip-path: url(#e);
      }

      .h {
        fill: #e50012;
      }
    </style>
    <clipPath id="e">
      <rect class="f" width="1921.02" height="109.7"/>
    </clipPath>
  </defs>
  <g id="c" data-name="b">
    <g id="d" data-name="c">
      <g class="g">
        <path class="h" d="M1975.36,32.54c-86.65-4.81-173.61-4.8-260.18,1.7-41.44,3.11-82.78,7.68-123.88,13.85-36.1,5.43-71.7,12.86-107.42,20.29-65.3,13.59-131.53,21.17-198.29,20.12-20.71-.33-41.4-1.42-62.03-3.24-11-.97-21.98-2.15-32.94-3.53-1.27-.16-2.54-.32-3.81-.49,2.36.31-.43-.06-1.04-.14-2.32-.32-4.65-.66-6.97-.99-26.5-3.87-52.93-8.26-79.35-12.59-30.42-4.98-60.83-10.04-91.26-14.96-34.58-5.6-68.87-9.91-104-8.82-30.11.93-59.86,5.5-89.87,7.66-12.13.87-24.36,1.21-36.48-.07s-25.19-6.19-37.69-9.23c-27.98-6.81-56.92-8.41-85.49-4.92s-54.25,10.55-80.85,18.17c-28.56,8.18-57.11,16.44-86.36,21.83-35.12,6.48-70.53,8.09-106.15,6.12-28.91-1.6-57.96-3.71-85.67-12.66-12.64-4.08-24.79-9.35-36.94-14.66-15.97-6.98-32.41-12.69-49.17-17.47C148.4,21.09,84.26,13.18,20.77,13.85c-20.8.22-41.57,1.42-62.26,3.53-4.7.48-8.75,3.68-8.75,8.75,0,4.36,4.02,9.23,8.75,8.75,71.67-7.3,144.53-3.46,214.83,12.47,28.44,6.44,56.18,14.89,82.93,26.58,24.25,10.6,48.56,18.9,74.86,22.49,35.68,4.88,72.44,6.82,108.38,4.37,32.45-2.22,64.45-8.28,95.88-16.5,53.09-13.89,105.83-34.25,161.62-31.11,14.4.81,28.61,3.19,42.56,6.84,13.21,3.46,25.63,7.59,39.31,8.93,26.1,2.57,52.51-1.63,78.44-4.3,35.02-3.61,70.09-5.02,105.17-1.26,30.04,3.22,59.94,9.13,89.74,14.04,57.51,9.46,115.12,20.52,173.24,25.53,72.9,6.29,146.13,2.79,218.27-9.23,30.94-5.15,61.43-12.39,92.2-18.4,39.01-7.62,78.36-13.46,117.86-17.85,85.45-9.5,171.5-12.33,257.42-10.03,21.39.57,42.77,1.45,64.14,2.64,11.25.62,11.22-16.88,0-17.5h0v-.05Z"/>
      </g>
    </g>
  </g>
</svg>