<?xml version="1.0" encoding="UTF-8"?>
<svg id="b" data-name="圖層 2" xmlns="http://www.w3.org/2000/svg" width="607" height="531.39" xmlns:xlink="http://www.w3.org/1999/xlink" viewBox="0 0 607 531.39">
  <defs>
    <style>
      .e {
        fill: url(#d);
        opacity: .5;
      }
    </style>
    <linearGradient id="d" data-name="未命名漸層 5" x1="0" y1="265.7" x2="607" y2="265.7" gradientUnits="userSpaceOnUse">
      <stop offset="0" stop-color="#fff" stop-opacity="0"/>
      <stop offset=".71" stop-color="#f2f2f2"/>
    </linearGradient>
  </defs>
  <g id="c" data-name="說明">
    <path class="e" d="M148.79,483.31s37.94,22.06,85.36-7.15c47.42-29.21,35.57-73.96-7.11-94.77,0,0,15.21,4.35,22.72-5.18,0,0-5.15,33.17,26.47,46.63,31.61,13.47,73.91-4.79,88.13-24.05,0,0,26.48,8.08,60.07-5.39,33.59-13.47,19.76-24.86,6.72-29.42-13.04-4.56-24.5-14.09-15.02-21.54,9.48-7.46,21.74-14.5,47.03-11.19,25.29,3.31,100.77,14.5,143.85-9.94,0,0-42.68,19.89-109.07,3.11-66.39-16.78-112.29-55.04-151.81-43.64-39.52,11.39-.79,23.62,7.51,26.1,8.3,2.49,9.88,14.71-18.18,14.71s-43.47-7.66-73.11-8.29c-29.64-.62-35.57.62-45.84,6.21,0,0,12.25-12.84,18.18-17.61,5.93-4.76,15.81-22.17-.79-34.18-16.6-12.02-36.75-16.37-68.37-12.02,0,0,22.92-8.08,22.92-22.79s-16.22-45.54-46.8-47.6c-39-2.62-63.39,22.46-69.32,14.38-5.93-8.08-11.07-38.53,25.69-42.88,36.75-4.35,63.23,3.52,98.4,6.84,35.17,3.31,92.08-1.45,122.51-20.51,30.43-19.06,35.96-37.08,3.95-55.93-32.01-18.85-45.45-19.27-45.45-30.45s75.09-18.35,106.3-7c31.22,11.35,37.54,28.96,37.54,28.96,0,0,1.58-13.05-29.24-29.83-30.82-16.78-92.87-36.46-175.07-32.11-82.2,4.35-88.13-2.9-108.68-11.39C87.73-3.1,49-1.24,35.17,8.71,21.34,18.65,0,49.77,0,49.77v457.83s43.27,34.01,111.44,20.7c68.17-13.3,37.34-45,37.34-45Z"/>
  </g>
</svg>