<?xml version="1.0" encoding="UTF-8"?>
<svg id="b" data-name="圖層 2" xmlns="http://www.w3.org/2000/svg" width="525.59" height="460.11" xmlns:xlink="http://www.w3.org/1999/xlink" viewBox="0 0 525.59 460.11">
  <defs>
    <style>
      .e {
        fill: url(#d);
        opacity: .5;
      }
    </style>
    <linearGradient id="d" data-name="未命名漸層 5" x1="12782.9" y1="-364.09" x2="13308.48" y2="-364.09" gradientTransform="translate(13308.48 -134.03) rotate(-180)" gradientUnits="userSpaceOnUse">
      <stop offset="0" stop-color="#fff" stop-opacity="0"/>
      <stop offset=".71" stop-color="#f2f2f2"/>
    </linearGradient>
  </defs>
  <g id="c" data-name="說明">
    <path class="e" d="M396.76,41.63s-32.85-19.1-73.91,6.19c-41.06,25.29-30.8,64.04,6.16,82.06,0,0-13.17-3.77-19.68,4.48,0,0,4.46-28.72-22.92-40.38-27.37-11.66-63.99,4.14-76.31,20.83,0,0-22.93-7-52.01,4.66-29.09,11.66-17.11,21.52-5.82,25.47,11.29,3.95,21.22,12.2,13,18.65-8.21,6.46-18.82,12.56-40.72,9.69-21.9-2.87-87.26-12.56-124.55,8.61,0,0,36.96-17.22,94.44-2.69,57.49,14.53,97.23,47.65,131.45,37.79,34.22-9.87.68-20.45-6.5-22.6-7.19-2.15-8.55-12.74,15.74-12.74,24.29,0,37.64,6.64,63.3,7.17,25.66.54,30.8-.54,39.69-5.38,0,0-10.61,11.12-15.74,15.25s-13.69,19.19.68,29.6c14.37,10.4,31.82,14.17,59.2,10.4,0,0-19.85,7-19.85,19.73s14.05,39.43,40.53,41.21c33.77,2.27,54.89-19.45,60.02-12.45,5.13,7,9.58,33.36-22.24,37.13-31.82,3.77-54.75-3.05-85.2-5.92-30.45-2.87-79.73,1.26-106.08,17.76-26.35,16.5-31.14,32.11-3.42,48.43,27.72,16.32,39.35,16.68,39.35,26.37,0,9.69-65.01,15.89-92.05,6.06-27.03-9.83-32.51-25.07-32.51-25.07,0,0-1.37,11.3,25.32,25.83,26.69,14.53,80.41,31.57,151.58,27.8,71.17-3.77,76.31,2.51,94.1,9.87s51.33,5.74,63.3-2.87c11.98-8.61,30.45-35.55,30.45-35.55V20.6s-37.47-29.45-96.49-17.93c-59.03,11.52-32.34,38.96-32.34,38.96Z"/>
  </g>
</svg>