<?xml version="1.0" encoding="UTF-8"?>
<svg id="b" data-name="圖層 2" xmlns="http://www.w3.org/2000/svg" width="16.6" height="18.01" viewBox="0 0 16.6 18.01">
  <defs>
    <style>
      .d {
        fill: #092a31;
      }
    </style>
  </defs>
  <g id="c" data-name="說明">
    <path class="d" d="M0,1.4c.24.2.49.4.74.58,1.54,1.28,5.66,4.6,6.63,8.48-1.03.05-2.72.22-4.13.83.15.12.3.24.45.35,1.09.91,4.32,3.51,4.16,6.36h.45s.45,0,.45,0c-.16-2.86,3.07-5.45,4.16-6.36.15-.11.3-.23.44-.34-1.4-.62-3.09-.79-4.12-.84.97-3.88,5.09-7.2,6.63-8.48.25-.18.49-.37.73-.57C13.05-.15,8.36,0,8.3,0c-.08,0-4.76-.16-8.3,1.39Z"/>
  </g>
</svg>