<?xml version="1.0" encoding="UTF-8"?>
<svg id="_圖層_2" data-name="圖層 2" xmlns="http://www.w3.org/2000/svg" width="375.87" height="240.56" xmlns:xlink="http://www.w3.org/1999/xlink" viewBox="0 0 375.87 240.56">
  <defs>
    <style>
      .cls-1 {
        fill: #fff;
      }

      .cls-2 {
        fill: none;
      }

      .cls-3 {
        clip-path: url(#clippath-1);
      }

      .cls-4 {
        fill: #e50012;
      }

      .cls-5 {
        clip-path: url(#clippath);
      }
    </style>
    <clipPath id="clippath">
      <rect class="cls-2" x="0" width="375.87" height="240.56"/>
    </clipPath>
    <clipPath id="clippath-1">
      <rect class="cls-2" x="100.81" y="-37.97" width="275.06" height="283.78"/>
    </clipPath>
  </defs>
  <g id="fix_按鈕" data-name="fix 按鈕">
    <g class="cls-5">
      <path class="cls-4" d="M255.31,109.02c-14.07-7.13-28.04-14.46-42.11-21.59-8.83-4.47-17.54-8.31-27.23-10.54-19.61-4.5-41-4.92-60.55.08-15.7,4.02-32.84,13.16-36.62,30.33-2.27,10.29-.09,22.13,7.83,29.52,7.16,6.67,17.61,8.9,26.11,3.45,16.23-10.41,20.29-37.4,10.01-53.06-9-13.72-26.44-21.98-42.21-15.79-15.64,6.14-27.46,19.89-40,30.53-14.26,12.1-30.62,22.06-50.03,18.9-10.66-1.74-20.73-4.57-28.68-12.23-10.57-10.19-17.52-23.38-28.31-33.46-18.37-17.17-42.29-29.78-67.97-29.07-7.7.21-15.29,1.63-22.63,3.92-4.33,1.35-2.48,8.17,1.88,6.81,26.16-8.16,52.26-1.13,73.79,14.97,10.53,7.88,18.87,17.5,26.67,28.02,5.82,7.86,12.1,15.85,20.72,20.79,15.41,8.83,36.32,10.62,52.74,3.87,15.31-6.3,27.49-18,39.65-28.87,9.49-8.48,21.55-20.39,35.4-19.36,7.65.57,14.36,5.39,19.62,10.64,6.98,6.99,8.93,17.18,7.33,26.7-1.35,8.02-5.31,17.62-13.03,21.46-10.58,5.27-20.88-5.66-22.33-15.61-2.44-16.73,9.81-28.04,24.39-33.33,17.19-6.24,36.68-6.83,54.64-4.22,21.4,3.11,39.3,13.67,58.27,23.45,6.36,3.28,12.73,6.55,19.11,9.78,4.05,2.05,7.63-4.04,3.57-6.1h0Z"/>
      <g class="cls-3">
        <g>
          <path class="cls-1" d="M368.9,127.43c-14.84-15.42-36.17-20.81-55.56-16.03-1.43-4.85-4.01-9.44-7.76-13.33-7.01-7.28-16.06-9.76-25.93-9.89l-.07.07s-20.18,1.68-31.59-8.44l-2.69,2.59-2.69,2.59c9.91,10.73,7.21,31.9,7.21,31.9l-.06.06c-.49,9.78,1.89,19.01,8.89,26.29,3.75,3.89,8.23,6.65,13.02,8.26-5.52,19.19-.95,40.71,13.89,56.13,22.15,23.01,58.76,23.71,81.77,1.57,23.01-22.15,23.71-58.76,1.57-81.77Z"/>
          <g>
            <path class="cls-4" d="M333.94,48.42c.38,1.28.88,2.51,1.45,3.73.61,1.31,1.27,2.6,1.98,3.87,1.08,1.94,2.18,3.88,3.27,5.81,1.22,2.16,2.42,4.32,3.54,6.52,1.09,2.14,2.11,4.3,2.97,6.52.68,1.76,1.26,3.55,1.67,5.38.38,1.69.6,3.41.58,5.14,0,1.25-.19,2.49-.52,3.7-.44,1.6-1.17,3.07-2.21,4.4-.14.18-.29.37-.44.54-.06.07-.09.15-.1.24,0,.12,0,.25-.02.37-.04.39-.05.77-.12,1.15-.17.96-.46,1.88-.89,2.76-.63,1.33-1.48,2.51-2.49,3.61-1.19,1.29-2.55,2.42-4.02,3.43-.59.4-1.2.78-1.8,1.18-.08.03-.15.07-.23.1-.11.03-.21.08-.28.16-.03.03-.04.06,0,.08.01,0,.04.02.05.02.12-.04.26-.04.36-.14.09-.01.17-.03.23-.1.07-.02.15-.03.22-.06.77-.28,1.54-.55,2.3-.85,2.22-.87,4.35-1.91,6.34-3.16,1.78-1.12,3.42-2.4,4.85-3.9,3.26-3.41,5.05-7.41,5.41-11.99.06-.81.09-1.61.07-2.43-.02-.7-.06-1.41-.14-2.11-.17-1.54-.47-3.07-.86-4.57-.59-2.25-1.37-4.43-2.28-6.59-1.11-2.65-2.4-5.22-3.77-7.76-1.31-2.45-2.7-4.86-4.07-7.28-1.01-1.78-2.01-3.56-2.92-5.38-.51-1.02-1-2.06-1.39-3.13-.64-1.77-.94-3.59-.92-5.45,0-.65.08-1.3.18-1.94.16-.98.41-1.93.75-2.86.56-1.54,1.34-2.97,2.29-4.32,1.13-1.6,2.46-3.05,3.94-4.37,1.14-1.02,2.37-1.94,3.7-2.74,1.57-.96,3.14-1.92,4.7-2.88.34-.21.68-.43,1.02-.65h0c.3-.12.56-.31.82-.48h0c.3-.13.55-.32.82-.48.16-.05.29-.13.37-.28-.15-.02-.26.03-.35.14,0,0,0,0,0,0-.33.14-.66.3-.95.5-.29.14-.6.25-.84.46-.1.04-.2.08-.3.13-.97.51-1.95,1.02-2.92,1.53-.16.08-.33.16-.49.24-.04-.04-.07-.08-.11-.11.06-.05.11-.09.17-.14,1.27-.91,2.55-1.82,3.82-2.73.1-.07.2-.16.3-.24.19-.06.31-.2.46-.3.21-.09.37-.23.52-.38h0s.08,0,.1-.02c.02-.02.03-.05.05-.08-.03-.01-.06-.04-.08-.03-.09.01-.17.05-.22.12,0,0,0,0,0,0-.16.09-.35.15-.48.28h0c-.17.09-.36.13-.48.28h0c-.12.05-.24.1-.35.16-1.31.68-2.63,1.37-3.94,2.06-.16.08-.33.16-.49.24h0s-.07-.07-.11-.11c.31-.22.62-.45.93-.67,1.27-.91,2.55-1.82,3.82-2.73.22-.07.38-.22.53-.38,0,0,0,0,0,0,.1,0,.17-.04.22-.11,0,0,0-.03,0-.04,0-.01-.03-.03-.04-.03-.1,0-.17.05-.21.12-.22.08-.42.18-.6.33-.1.05-.2.1-.3.15-1.32.69-2.65,1.39-3.97,2.08-.16.08-.33.16-.5.23-.05-.05-.1-.09-.14-.14.05-.05.1-.1.16-.14.39-.28.77-.55,1.16-.82.95-.68,1.9-1.36,2.84-2.04.06-.03.13-.06.19-.1.14-.09.27-.19.4-.29h0c.12-.03.22-.1.29-.2,0,0,0-.03,0-.04,0-.01-.03-.02-.04-.02-.09,0-.17.04-.21.12,0,0,0,0,0,0-.26.12-.53.22-.74.41h0c-.12.05-.23.11-.35.16-1.31.68-2.63,1.37-3.94,2.06-.16.08-.33.16-.49.24-.04-.04-.08-.08-.12-.13h0c.07-.06.13-.12.21-.17.76-.54,1.51-1.08,2.27-1.62.61-.43,1.21-.87,1.81-1.31h0c.06-.03.13-.06.19-.1.14-.09.27-.19.4-.28.16-.05.28-.14.36-.28-.19-.02-.33.05-.46.18-.15.08-.31.16-.46.24-.06.03-.11.08-.16.12-.1.04-.2.08-.3.13-1.33.69-2.66,1.39-3.99,2.08-.16.08-.33.16-.49.24-.04-.04-.08-.08-.11-.12.04-.04.08-.08.12-.11.74-.53,1.48-1.06,2.22-1.59.65-.47,1.3-.94,1.94-1.41h0c.06-.03.13-.06.19-.1.14-.09.27-.19.4-.29.16-.06.29-.14.36-.29-.19-.03-.33.06-.46.18h0c-.15.08-.31.16-.46.24-.06.03-.11.08-.16.12,0,0,0,0,0,0-.12.05-.24.1-.35.16-1.43.74-2.85,1.49-4.27,2.23-.43.22-.86.43-1.29.65-.15.08-.29.16-.43.25-.38.23-.76.46-1.13.69-.3.18-.6.36-.89.55-2.86,1.99-5.35,4.34-7.44,7.04-1.46,1.88-2.65,3.9-3.53,6.08-.7,1.73-1.16,3.52-1.4,5.36-.18,1.42-.18,2.84-.05,4.27.13,1.37.39,2.72.79,4.05Z"/>
            <path class="cls-4" d="M270.72,155.83c.97-.08,1.76-.46,2.37-1.16.07-.08.14-.17.2-.25,2.73-3.48,5.65-6.81,8.7-10.04,3.42-3.61,7-7.07,10.71-10.42,3.24-2.92,6.58-5.74,10-8.48,3.53-2.83,7.15-5.56,10.86-8.19,1.97-1.4,3.96-2.77,6-4.09.37-.24.75-.47,1.11-.72.84-.57,1.27-1.36,1.36-2.32,0-.09.02-.18.02-.26-.01-.16-.03-.32-.06-.47-.25-1.27-1.3-2.36-2.87-2.57-.79-.11-1.53.06-2.21.45-.19.11-.38.23-.56.35-1.5.96-2.98,1.95-4.45,2.95-3.48,2.39-6.87,4.87-10.2,7.43-3.1,2.39-6.13,4.84-9.09,7.37-2.48,2.12-4.91,4.28-7.28,6.5-3.01,2.81-5.93,5.71-8.73,8.7-3.02,3.22-5.9,6.53-8.61,9.98-.11.14-.23.28-.33.43-.42.63-.6,1.3-.5,2.06.23,1.74,1.96,2.88,3.57,2.74Z"/>
            <path class="cls-4" d="M312.68,54.8c1.2,2.32,2.84,4.33,4.82,6.12,1.28,1.16,2.68,2.19,4.15,3.12,2.46,1.56,4.8,3.26,6.99,5.15,1.63,1.4,3.16,2.9,4.53,4.53.97,1.16,1.85,2.37,2.6,3.66.7,1.22,1.27,2.48,1.67,3.81.16.53.27,1.06.38,1.6.02.09.08.16.17.2.05.02.11.04.16.06,1.14.44,2.18,1.06,3.11,1.81,1.08.87,2,1.88,2.79,2.99.07.1.15.2.23.3,0,.01.03.01.05.02.05.01.07,0,.08-.05.04-.24.11-.48.14-.73.17-1.42.21-2.84.05-4.27-.13-1.19-.36-2.37-.7-3.53-.6-2.03-1.49-3.96-2.6-5.79-1.3-2.13-2.85-4.08-4.6-5.91-1.72-1.8-3.59-3.45-5.56-4.99-1.83-1.43-3.74-2.76-5.71-4.01-.67-.43-1.33-.88-1.96-1.36-1.09-.83-2.09-1.74-2.97-2.77-.95-1.11-1.72-2.32-2.26-3.66-.48-1.18-.75-2.4-.81-3.66-.03-.69,0-1.37.09-2.05.14-1.16.45-2.27.96-3.34.85-1.77,1.7-3.55,2.55-5.33.11-.24.21-.48.32-.73.03-.02.06-.04.07-.07.2-.42.39-.84.58-1.26,0,0,0,0,0,0,.14-.14.19-.34.27-.51,0,0,0,0,0,0,.14-.13.17-.3.23-.47,0-.02-.03-.05-.04-.08,0,0-.04.01-.05.02-.08.13-.16.27-.24.41h0c-.09.17-.17.34-.26.51h0c-.21.36-.42.71-.62,1.07-.02.04-.03.1-.04.15-.05.07-.1.15-.14.22-.34.59-.68,1.19-1.02,1.78-.3.52-.6,1.03-.9,1.55-.03-.04-.07-.08-.1-.12h0s0,0,0,0c.03-.1.05-.2.09-.3.5-1.3,1.01-2.59,1.51-3.89.04-.1.06-.2.09-.3h0s.06-.05.07-.08c.11-.29.22-.58.33-.87.14-.14.18-.32.22-.5,0-.01-.01-.03-.03-.04,0,0-.03,0-.04,0-.14.12-.21.27-.27.43h0s0,0,0,0c-.12.21-.23.41-.34.62-.03.06-.04.12-.07.19-.06.09-.12.17-.17.27-.63,1.09-1.25,2.18-1.87,3.27-.12.21-.26.43-.38.64-.09-.05-.08-.15-.1-.23,0,0,0,0,0,0,0,0,0,0,0,0,.02-.08.04-.17.07-.25.37-.96.75-1.92,1.13-2.88.16-.42.32-.85.48-1.28.2-.28.27-.6.38-.91,0-.02-.02-.05-.04-.08-.02,0-.04.01-.05.03-.16.23-.33.46-.4.73h0c-.05.08-.1.15-.14.23-.68,1.18-1.35,2.37-2.03,3.55-.08.14-.17.27-.25.41-.07-.04-.1-.1-.1-.18,0-.05,0-.1,0-.16-.02.03-.03.06-.05.09,0-.03.03-.06.05-.09.02-.07.03-.14.05-.2.42-1.08.84-2.15,1.26-3.23.13-.33.24-.66.36-.98.13-.18.2-.35.26-.63.07-.04.11-.09.1-.17,0-.03-.03-.06-.04-.08-.02,0-.04.01-.05.03-.05.07-.09.15-.13.22h0s0,0,0,0c-.09.17-.24.31-.26.51-.52.9-1.04,1.81-1.56,2.71-.38.66-.76,1.31-1.14,1.97-.1-.05-.08-.15-.11-.23,0,0,0,0,0,0,0,0,0,0,0,0,.02-.07.03-.14.06-.2.39-.99.78-1.99,1.17-2.98.16-.41.3-.82.45-1.23.2-.28.27-.6.38-.91,0-.02-.02-.05-.04-.08-.02,0-.04.01-.05.03-.16.23-.33.46-.4.74-.06.09-.12.18-.17.27-.67,1.17-1.34,2.34-2.01,3.5-.08.14-.17.27-.25.41-.07-.04-.1-.1-.1-.17,0-.05,0-.1,0-.16h0c.02-.07.03-.14.05-.2.42-1.08.84-2.15,1.26-3.23.13-.33.24-.66.36-.98.13-.18.2-.35.26-.63.07-.04.11-.1.1-.17,0-.03-.03-.06-.04-.09-.02,0-.04.01-.05.03-.05.07-.09.15-.13.22h0,0c-.09.17-.24.31-.26.51-.09.15-.18.3-.27.46-.91,1.59-1.82,3.18-2.73,4.77-.13.23-.31.44-.42.68-.34.72-.73,1.42-1.06,2.15-.67,1.46-1.03,3-1.21,4.58-.16,1.4-.13,2.81.06,4.21.28,2.01.89,3.92,1.84,5.75Z"/>
            <path class="cls-4" d="M275.5,139.81c4.63-4.93,9.54-9.6,14.68-14.07,2.65-2.3,5.36-4.54,8.12-6.73,3.28-2.6,6.62-5.11,10.04-7.54,2.21-1.57,4.45-3.1,6.73-4.57.19-.12.37-.24.56-.36.09-.06.18-.12.28-.18.09-.06.1-.14.02-.22-.61-.68-1.4-1.06-2.34-1.14-.36-.04-.72,0-1.06.09-.25.06-.5.15-.74.25-1.25.52-2.48,1.08-3.7,1.67-3.6,1.75-7.07,3.69-10.43,5.81-4.44,2.8-8.64,5.88-12.58,9.27-2.8,2.41-5.45,4.97-7.92,7.68-3.66,4.03-6.88,8.35-9.58,13-.54.94-1.06,1.89-1.56,2.85-.33.64-.45,1.3-.29,2,.17.75.57,1.38,1.22,1.86.06.04.15.03.2-.03.09-.11.18-.22.27-.33,2.56-3.2,5.26-6.3,8.08-9.3Z"/>
            <path class="cls-4" d="M305.26,92.7c.31,1.51.76,2.98,1.31,4.43.91,2.43,2.06,4.78,3.33,7.07.25.44.19.44.71.21.22-.1.44-.19.67-.28.41-.17.83-.32,1.29-.37.15-.02.24-.1.27-.23.09-.42.28-.8.47-1.18.23-.46.46-.92.7-1.38.23-.44.47-.88.71-1.31.05-.1.06-.2.01-.3-.08-.18-.17-.35-.26-.53-.73-1.51-1.4-3.05-1.94-4.63-.4-1.18-.73-2.37-.9-3.6-.1-.7-.11-1.4-.02-2.11.04-.33.14-.65.28-.96.16-.35.42-.62.78-.8.1-.05.2-.1.3-.14.58-.22,1.18-.37,1.8-.42.45-.03.9,0,1.35.11.66.17,1.2.51,1.65.99.43.46.74.98.97,1.55.32.78.47,1.59.52,2.43.02.35.02.7.03,1.06,0,.04.02.07.06.07.02,0,.04,0,.05-.01.1-.13.2-.25.3-.38,1.48-1.93,3.08-3.75,4.94-5.38.05-.05.11-.1.15-.15.03-.04.04-.1.03-.15-.01-.07-.05-.13-.08-.2-.43-.93-.98-1.79-1.66-2.58-1.67-1.92-3.81-3.09-6.42-3.48-.88-.13-1.77-.15-2.65-.06-1.3.13-2.55.42-3.75.9-2.25.91-3.82,2.43-4.68,4.58-.39.98-.59,1.99-.66,3.03,0,.32-.03.63-.02.95.03,1.09.16,2.18.38,3.25Z"/>
            <path class="cls-4" d="M340.38,102.48c.99-.89,1.87-1.86,2.61-2.95.79-1.17,1.35-2.42,1.62-3.79.18-.89.21-1.78.1-2.68-.14-1.17-.51-2.27-1.08-3.32-.7-1.29-1.62-2.43-2.72-3.44-.5-.46-1.04-.88-1.63-1.24-1.32-.81-2.75-1.32-4.43-1.41-.72-.06-1.52,0-2.32.15-.93.17-1.8.48-2.65.86-1,.46-1.92,1.03-2.79,1.67-1.05.77-2.02,1.62-2.93,2.54-1.4,1.4-2.65,2.91-3.81,4.48-2.25,3.05-4.17,6.28-5.84,9.63-.09.17-.16.35-.24.53-.02.05-.03.1-.03.15,0,.03.03.07.05.08.14.05.28.09.43.13.92.25,1.67.73,2.28,1.42.08.09.17.19.25.29.05.06.12.08.2.08.07,0,.15-.03.22-.04.89-.17,1.76-.13,2.62.16,2,.68,3.2,2.45,3.15,4.29,0,.11,0,.21,0,.32,0,.05.06.1.11.09.4-.08.81-.15,1.21-.25,4.01-.98,7.76-2.5,11.26-4.57,1.57-.93,3.05-1.98,4.38-3.2ZM337.83,95.26c-.26.65-.66,1.22-1.11,1.75-.53.62-1.13,1.17-1.77,1.68-1.01.81-2.11,1.51-3.26,2.14-2.48,1.37-5.1,2.44-7.87,3.2-.81.22-1.63.39-2.47.51-.05,0-.11-.02-.15-.05-.01,0,0-.07.01-.1.02-.05.04-.1.07-.14.11-.2.21-.41.32-.61,1.14-2.13,2.41-4.2,3.84-6.17,1-1.38,2.08-2.7,3.28-3.93.86-.88,1.77-1.72,2.79-2.44.43-.31.88-.59,1.37-.82.32-.15.65-.28,1-.35.54-.11,1.04-.05,1.53.2.23.12.45.26.65.43.6.5,1.1,1.07,1.5,1.72.26.42.44.86.52,1.33.03.21.04.42.03.63-.02.36-.12.69-.26,1.02Z"/>
            <path class="cls-4" d="M335.95,92.37c-.05-.06-.15-.06-.19,0-.13.19-.25.39-.38.58-1.11,1.71-2.47,3.25-3.96,4.69-1.46,1.41-3.04,2.7-4.7,3.9-.12.02-.2.09-.27.17-.02.02-.01.05-.01.08,0,0,.03.02.05.02.12-.03.26-.04.34-.15,1.81-.7,3.53-1.53,5.17-2.53.93-.57,1.81-1.19,2.61-1.9.55-.48,1.05-1,1.46-1.59.25-.35.45-.73.58-1.13.08-.24.09-.48.04-.73-.1-.54-.39-.99-.74-1.41Z"/>
          </g>
        </g>
      </g>
    </g>
  </g>
</svg>