<?xml version="1.0" encoding="UTF-8"?>
<svg id="_圖層_2" data-name="圖層 2" xmlns="http://www.w3.org/2000/svg" width="1982.43" height="567.56" viewBox="0 0 1982.43 567.56">
  <defs>
    <style>
      .cls-1 {
        fill: #fff;
      }

      .cls-2 {
        fill: #e50012;
      }
    </style>
  </defs>
  <g id="icon">
    <path class="cls-2" d="M1697.41,178.9c-55.51.32-111.41,7.56-164.56,23.83-48.92,14.97-95.71,37.14-138.26,65.52-21.45,14.3-41.91,30.16-61.12,47.35-16.2,14.49-31.12,30.32-47.49,44.64-31.02,27.14-66.35,49.96-106.24,61.41-41.87,12.01-86.07,10.55-127.95-.59-38.79-10.32-77.05-22.73-115.41-34.51-33.52-10.3-66.64-22.05-101.86-24.59-34.93-2.52-70.66,1.11-104.62,9.55-54.5,13.54-130.48,49.11-124.63,116.79,1.68,19.44,8.84,39.06,23.74,52.27s35.42,20.24,54.32,14.26c30.78-9.73,43.27-45.92,44.07-75.23.47-17.09-2.92-34.34-10.39-49.74-7.69-15.86-20.12-27.38-35.06-36.35-22.73-13.64-49.78-20.41-75.17-10.09-23.75,9.66-41.75,29.19-57.71,48.6-18.41,22.39-35.1,46.19-54.89,67.43-9.7,10.41-20.77,20.74-31.44,28.22-12,8.41-23.53,14.3-36.97,18.09-16.55,4.67-33.44,4.75-51.35,3.75-16.88-.94-32.96-4.52-47.39-12.83-18.51-10.66-33.59-26.15-48.96-40.72-17.68-16.75-37.45-31.18-58.68-43.1-40.78-22.89-87.66-37.42-134.79-34.1-28.2,1.98-55.25,10.15-80.22,23.34-9.96,5.26-1.13,20.37,8.83,15.11,24.14-12.75,50.68-20.34,78.02-21.3,23.82-.83,47.39,3.05,70.04,10.32,19.47,6.25,38.03,14.98,55.61,25.39,21.28,12.6,39.62,28.05,57.48,45.05,14.49,13.79,29.75,27.85,47.6,37.2,15.57,8.16,32.45,11.79,49.9,12.98s36.47,1.16,54.04-3.04c14.01-3.35,27.48-9.33,39.64-17.02,48.08-30.4,74.46-82.18,113.24-122.01,4.2-4.32,8.59-8.47,13.24-12.3.58-.48,1.17-.95,1.77-1.43,1.95-1.56-1.39,1.02.6-.47.99-.74,1.98-1.47,2.99-2.18,2.37-1.66,4.8-3.22,7.32-4.66,2.25-1.28,4.55-2.44,6.9-3.52,2.13-.98-1.71.65.47-.21.65-.25,1.29-.51,1.94-.75,1.3-.48,2.61-.91,3.93-1.31,2.44-.73,4.91-1.25,7.4-1.73.39-.07,2.72-.36.43-.09.7-.08,1.39-.16,2.09-.22,1.41-.12,2.83-.2,4.25-.22,2.69-.05,5.35.11,8.02.37,2.49.24-1.83-.32.67.08.63.1,1.27.2,1.9.32,1.68.31,3.35.67,5.01,1.09,6.89,1.75,11.83,3.77,17.53,6.68,13.92,7.09,26,15.76,33.74,29,14.35,24.54,14.74,59.26,1.78,83.69-3.38,6.38-5.97,10.05-11.29,14.76-3.73,3.31-8.41,5.85-13.97,7.09s-12.78.53-20.03-2.15c-9.26-3.43-17.42-10.12-22.81-18.36-8.62-13.17-11.16-28.4-9.89-43.17.2-2.36-.05-.42.35-2.74.29-1.66.62-3.31,1.02-4.94.8-3.24,1.82-6.43,3.08-9.52-.52,1.27.89-1.96,1.15-2.49.73-1.51,1.52-3,2.35-4.46,1.68-2.96,3.56-5.81,5.59-8.55,2.58-3.49,8.31-9.58,12.76-13.56,5.35-4.79,9.73-8.02,16.01-12.06,13.26-8.53,27.28-14.98,41.86-20.16,32.08-11.39,65.84-17.12,99.73-17.85,15.5-.33,32.34.48,46.57,2.76,15.61,2.51,30.65,7.33,45.75,11.89,39.14,11.8,78.11,24.17,117.32,35.74,14.18,4.18,28.39,8.47,42.81,11.75,23.46,5.33,47.94,7.65,71.98,6.39,44.11-2.31,86.21-17.19,123.19-41.11,16.58-10.72,32.15-23.02,46.89-36.13,16.11-14.33,30.93-30.02,47.09-44.3,74.84-66.14,168.18-109.33,267.04-123.48,27.17-3.89,54.64-5.76,82.08-5.92,11.26-.06,11.28-17.56,0-17.5h0Z"/>
    <g>
      <path class="cls-1" d="M1943.89,264.38c-35.39-36.77-86.26-49.62-132.49-38.22-3.42-11.56-9.56-22.5-18.5-31.79-16.71-17.36-38.31-23.28-61.83-23.59l-.16.16s-48.12,4-75.33-20.12l-6.42,6.18-6.42,6.18c23.64,25.58,17.2,76.06,17.2,76.06l-.15.14c-1.18,23.32,4.5,45.33,21.2,62.69,8.94,9.29,19.63,15.85,31.05,19.7-13.16,45.76-2.27,97.08,33.12,133.86,52.81,54.88,140.11,56.55,194.99,3.74,54.88-52.81,56.55-140.11,3.74-194.99Z"/>
      <g>
        <path class="cls-2" d="M1860.54,75.97c.9,3.05,2.11,5.99,3.46,8.88,1.45,3.13,3.04,6.2,4.72,9.22,2.58,4.63,5.19,9.25,7.8,13.86,2.9,5.14,5.77,10.29,8.45,15.54,2.6,5.09,5.02,10.25,7.07,15.56,1.63,4.19,3.01,8.46,3.99,12.82.91,4.04,1.42,8.12,1.39,12.24-.02,2.99-.45,5.93-1.24,8.83-1.04,3.82-2.8,7.31-5.26,10.49-.34.44-.69.87-1.05,1.3-.15.17-.22.36-.24.57-.02.29-.02.59-.05.88-.09.92-.12,1.85-.28,2.75-.41,2.28-1.11,4.48-2.11,6.59-1.5,3.16-3.54,5.99-5.95,8.6-2.85,3.08-6.09,5.77-9.6,8.17-1.4.96-2.85,1.87-4.28,2.8-.18.08-.36.16-.54.23-.26.07-.49.2-.67.39-.08.08-.09.15-.02.2.03.02.09.05.12.04.29-.09.62-.1.85-.33.21-.03.41-.07.54-.24.17-.04.35-.07.51-.13,1.83-.67,3.68-1.31,5.49-2.02,5.29-2.08,10.37-4.54,15.13-7.55,4.25-2.68,8.15-5.73,11.56-9.3,7.76-8.14,12.04-17.68,12.9-28.58.15-1.92.22-3.85.16-5.78-.06-1.68-.15-3.36-.34-5.02-.41-3.68-1.12-7.31-2.06-10.91-1.4-5.36-3.27-10.57-5.43-15.71-2.66-6.31-5.73-12.44-8.98-18.5-3.13-5.83-6.43-11.58-9.7-17.35-2.4-4.24-4.8-8.49-6.97-12.84-1.22-2.44-2.38-4.91-3.31-7.46-1.54-4.22-2.25-8.56-2.2-13,.02-1.55.19-3.09.44-4.63.37-2.33.98-4.59,1.78-6.82,1.33-3.67,3.19-7.08,5.46-10.3,2.69-3.82,5.86-7.27,9.41-10.42,2.73-2.42,5.66-4.62,8.81-6.54,3.75-2.28,7.48-4.58,11.22-6.88.82-.5,1.62-1.03,2.43-1.55h0c.72-.28,1.33-.73,1.96-1.15h0c.7-.31,1.31-.76,1.96-1.15.37-.13.7-.3.87-.66-.36-.05-.62.08-.83.34,0,0,0,0,0,0-.8.34-1.57.7-2.27,1.2-.7.33-1.42.61-2.01,1.1-.24.1-.49.19-.72.31-2.32,1.21-4.64,2.43-6.96,3.64-.39.2-.78.38-1.18.57-.09-.09-.18-.18-.27-.27.13-.11.26-.22.4-.32,3.04-2.17,6.08-4.34,9.11-6.51.25-.18.47-.37.7-.56.45-.13.74-.48,1.11-.71.5-.21.89-.54,1.25-.92h0c.08-.01.18,0,.24-.05.06-.04.08-.13.12-.19-.07-.03-.14-.09-.19-.08-.21.03-.41.11-.54.29,0,0,0,0,0,0-.38.22-.83.35-1.14.67h0c-.4.2-.85.32-1.15.67h0c-.28.13-.56.24-.83.38-3.13,1.63-6.26,3.27-9.39,4.9-.39.2-.78.38-1.17.58h0c-.09-.09-.17-.18-.26-.27.74-.54,1.47-1.08,2.21-1.61,3.03-2.17,6.07-4.34,9.11-6.52.52-.18.9-.53,1.26-.89,0,0,0,0,0,0,.23,0,.4-.09.53-.26.02-.02.01-.07,0-.1-.02-.03-.06-.06-.09-.06-.23,0-.4.11-.51.29-.52.18-1.01.42-1.42.78-.24.12-.48.23-.71.35-3.16,1.65-6.32,3.3-9.48,4.95-.39.2-.8.37-1.19.56-.12-.11-.23-.23-.35-.34.13-.12.24-.24.38-.34.92-.66,1.85-1.31,2.76-1.97,2.26-1.62,4.52-3.24,6.78-4.87.15-.08.32-.14.46-.23.32-.22.63-.45.95-.68h0c.29-.08.52-.24.69-.48.01-.02,0-.07-.02-.1-.02-.03-.06-.05-.1-.05-.22.01-.39.11-.51.29,0,0,0,0,0,0-.61.28-1.25.51-1.75.97h0c-.28.13-.56.25-.83.39-3.13,1.63-6.27,3.27-9.4,4.9-.38.2-.79.37-1.18.56-.09-.1-.19-.2-.28-.3h0c.16-.14.31-.29.49-.41,1.8-1.29,3.61-2.57,5.41-3.85,1.45-1.04,2.88-2.08,4.32-3.13h0c.15-.08.32-.14.46-.23.32-.22.63-.45.95-.67.38-.13.67-.34.86-.68-.45-.05-.8.13-1.09.42-.36.19-.73.37-1.09.57-.14.08-.25.19-.38.29-.24.11-.48.2-.72.32-3.17,1.65-6.34,3.31-9.51,4.97-.38.2-.78.38-1.18.57-.09-.1-.18-.19-.27-.29.09-.09.18-.18.29-.26,1.77-1.26,3.54-2.52,5.3-3.78,1.55-1.11,3.09-2.24,4.64-3.36h0c.15-.08.32-.14.46-.23.32-.22.63-.45.95-.68.37-.13.68-.33.86-.68-.46-.07-.8.14-1.1.43h0c-.37.19-.74.37-1.1.57-.14.08-.25.19-.38.29,0,0,0,0,0,0-.28.13-.57.25-.84.39-3.4,1.77-6.79,3.55-10.19,5.32-1.02.53-2.05,1.02-3.07,1.54-.35.18-.69.39-1.03.59-.9.54-1.8,1.09-2.7,1.64-.71.44-1.44.85-2.12,1.32-6.83,4.75-12.76,10.34-17.75,16.78-3.48,4.49-6.32,9.3-8.43,14.49-1.67,4.13-2.77,8.39-3.33,12.77-.43,3.38-.44,6.78-.12,10.18.3,3.27.94,6.48,1.88,9.65Z"/>
        <path class="cls-2" d="M1709.79,332.1c2.32-.2,4.19-1.1,5.65-2.78.17-.19.33-.4.49-.6,6.51-8.29,13.47-16.24,20.76-23.94,8.15-8.61,16.69-16.87,25.55-24.84,7.73-6.96,15.68-13.69,23.84-20.21,8.43-6.74,17.05-13.25,25.88-19.52,4.7-3.34,9.45-6.6,14.3-9.76.88-.57,1.78-1.12,2.65-1.71,2.01-1.36,3.03-3.24,3.25-5.52.01-.21.05-.42.04-.63-.03-.38-.06-.75-.14-1.13-.59-3.02-3.1-5.62-6.84-6.13-1.9-.26-3.66.14-5.27,1.08-.46.26-.9.55-1.34.83-3.59,2.28-7.12,4.64-10.61,7.04-8.29,5.69-16.39,11.61-24.33,17.73-7.38,5.69-14.61,11.55-21.68,17.58-5.91,5.05-11.7,10.2-17.36,15.49-7.18,6.71-14.13,13.61-20.82,20.75-7.19,7.67-14.07,15.57-20.53,23.79-.26.34-.54.67-.78,1.02-.99,1.5-1.43,3.11-1.2,4.91.54,4.16,4.68,6.88,8.5,6.54Z"/>
        <path class="cls-2" d="M1809.83,91.2c2.86,5.52,6.77,10.33,11.48,14.59,3.06,2.76,6.38,5.21,9.9,7.44,5.87,3.72,11.45,7.78,16.67,12.27,3.89,3.35,7.54,6.91,10.8,10.81,2.31,2.76,4.41,5.65,6.19,8.74,1.67,2.9,3.03,5.92,3.98,9.09.37,1.26.64,2.53.91,3.81.05.23.18.38.4.47.12.05.25.09.38.14,2.73,1.06,5.19,2.52,7.43,4.32,2.57,2.08,4.77,4.48,6.66,7.12.17.24.36.48.54.72.02.03.08.03.11.04.11.04.17,0,.19-.12.11-.58.25-1.15.32-1.73.41-3.38.49-6.78.13-10.17-.3-2.84-.86-5.65-1.68-8.41-1.43-4.85-3.55-9.43-6.21-13.81-3.09-5.08-6.81-9.73-10.97-14.08-4.09-4.29-8.55-8.22-13.27-11.9-4.37-3.41-8.92-6.58-13.62-9.56-1.6-1.02-3.17-2.09-4.67-3.23-2.6-1.98-4.98-4.15-7.08-6.6-2.27-2.65-4.1-5.54-5.39-8.72-1.14-2.82-1.78-5.73-1.92-8.72-.08-1.63,0-3.27.21-4.9.34-2.77,1.08-5.42,2.3-7.96,2.03-4.23,4.06-8.46,6.08-12.7.27-.57.51-1.16.76-1.74.06-.06.14-.1.18-.17.47-1,.93-2,1.39-3,0,0,0,0,0,0,.34-.34.45-.8.64-1.22,0,0,0,0,0,0,.33-.31.4-.72.54-1.11.02-.05-.06-.12-.1-.18,0,0-.09.02-.11.05-.2.32-.39.65-.58.97h0c-.21.4-.41.81-.62,1.21h0c-.49.85-.99,1.7-1.48,2.56-.06.1-.07.23-.1.35-.12.18-.24.35-.34.53-.81,1.42-1.62,2.84-2.44,4.26-.71,1.23-1.43,2.46-2.15,3.7-.08-.1-.16-.19-.25-.29h0s0,0,0,0c.07-.24.13-.49.22-.72,1.2-3.09,2.41-6.19,3.61-9.28.09-.23.14-.48.21-.72h0c.06-.06.14-.11.17-.18.27-.69.53-1.38.79-2.08.33-.34.42-.77.53-1.19,0-.03-.03-.08-.06-.1-.02-.01-.08,0-.1.02-.32.28-.51.64-.64,1.02h0s0,0,0,0c-.27.49-.55.98-.82,1.47-.07.14-.11.3-.16.44-.14.21-.29.42-.42.63-1.49,2.6-2.98,5.2-4.47,7.81-.29.51-.61,1.01-.91,1.52-.22-.13-.2-.35-.25-.55,0,0,0,0,0,0,0,0,0,0,0,0,.06-.2.1-.4.17-.6.89-2.29,1.8-4.58,2.68-6.88.39-1.01.76-2.03,1.14-3.04.48-.66.64-1.44.91-2.17.02-.05-.06-.12-.09-.18-.04.02-.09.03-.11.06-.38.55-.79,1.09-.96,1.74h0c-.11.18-.23.35-.34.54-1.62,2.82-3.23,5.64-4.85,8.46-.19.33-.4.64-.6.97-.16-.1-.23-.24-.23-.42,0-.12,0-.25,0-.37-.04.07-.08.14-.12.21.02-.07.06-.14.12-.21.04-.16.06-.33.12-.48,1-2.57,2.01-5.13,3-7.7.3-.78.58-1.56.87-2.35.3-.42.47-.83.63-1.51.17-.08.25-.22.25-.39,0-.07-.07-.13-.1-.2-.04.02-.09.03-.11.06-.11.17-.21.35-.32.52h0s0,0,0,0c-.2.41-.57.75-.62,1.22-1.24,2.15-2.47,4.31-3.72,6.46-.9,1.57-1.82,3.13-2.73,4.7-.24-.12-.2-.35-.25-.55,0,0,0,0,0,0,0,0,0,0,0,0,.04-.16.07-.33.13-.48.93-2.37,1.86-4.74,2.78-7.11.38-.97.72-1.95,1.08-2.93.48-.66.64-1.44.91-2.18.02-.05-.06-.12-.09-.19-.04.02-.09.03-.11.06-.38.56-.79,1.1-.96,1.75-.13.21-.28.43-.4.64-1.6,2.78-3.19,5.57-4.79,8.35-.19.33-.4.64-.6.97-.16-.1-.23-.24-.23-.42,0-.12,0-.25,0-.37h0c.04-.16.07-.33.13-.48,1-2.57,2-5.14,3-7.71.3-.78.58-1.56.87-2.35.3-.42.47-.84.63-1.51.17-.09.25-.23.25-.4,0-.07-.07-.14-.1-.2-.04.02-.09.03-.11.07-.11.17-.21.35-.32.53h0,0c-.21.41-.57.75-.62,1.22-.22.36-.44.73-.65,1.09-2.17,3.79-4.33,7.59-6.51,11.38-.32.55-.74,1.06-1.01,1.62-.82,1.72-1.74,3.39-2.53,5.12-1.59,3.49-2.46,7.16-2.9,10.93-.39,3.35-.31,6.7.15,10.04.66,4.78,2.13,9.35,4.39,13.71Z"/>
        <path class="cls-2" d="M1721.19,293.92c11.03-11.76,22.75-22.9,35-33.55,6.32-5.49,12.78-10.84,19.36-16.05,7.81-6.19,15.79-12.18,23.95-17.97,5.27-3.74,10.61-7.39,16.06-10.91.44-.28.89-.57,1.33-.85.22-.14.44-.29.66-.43.21-.14.23-.34.05-.53-1.46-1.63-3.34-2.53-5.59-2.72-.87-.1-1.71,0-2.54.21-.6.15-1.19.37-1.76.6-2.99,1.24-5.92,2.58-8.81,3.99-8.58,4.17-16.86,8.81-24.87,13.86-10.58,6.68-20.6,14.01-29.99,22.1-6.68,5.75-12.99,11.84-18.88,18.31-8.74,9.61-16.42,19.9-22.84,31.01-1.3,2.24-2.54,4.51-3.72,6.8-.79,1.51-1.07,3.1-.69,4.77.41,1.79,1.35,3.28,2.91,4.42.13.1.36.06.48-.08.22-.26.43-.53.65-.8,6.1-7.63,12.54-15.01,19.26-22.18Z"/>
        <path class="cls-2" d="M1792.14,181.58c.74,3.6,1.82,7.1,3.12,10.56,2.18,5.81,4.91,11.39,7.95,16.85.58,1.05.45,1.05,1.7.5.53-.23,1.06-.45,1.59-.67.99-.4,1.99-.75,3.07-.88.36-.04.57-.24.63-.56.21-1,.66-1.91,1.11-2.82.55-1.1,1.11-2.19,1.68-3.28.55-1.05,1.12-2.09,1.69-3.13.13-.24.15-.48.03-.72-.2-.42-.42-.84-.62-1.26-1.75-3.6-3.33-7.27-4.62-11.04-.96-2.81-1.74-5.65-2.15-8.58-.24-1.67-.26-3.35-.05-5.02.1-.8.33-1.56.67-2.29.39-.83,1-1.48,1.87-1.9.24-.12.47-.24.72-.33,1.37-.53,2.8-.88,4.29-1,1.07-.08,2.15-.02,3.21.26,1.56.41,2.86,1.21,3.93,2.35,1.03,1.09,1.76,2.34,2.3,3.69.76,1.87,1.13,3.8,1.23,5.78.05.84.05,1.68.07,2.52,0,.11.05.16.14.16.04,0,.1,0,.12-.03.24-.3.49-.6.72-.9,3.53-4.59,7.35-8.95,11.77-12.82.13-.11.27-.23.36-.37.06-.1.09-.24.07-.35-.03-.16-.12-.32-.19-.47-1.02-2.22-2.34-4.27-3.97-6.15-3.97-4.59-9.08-7.36-15.3-8.29-2.09-.31-4.21-.35-6.32-.15-3.1.3-6.09,1-8.94,2.15-5.35,2.18-9.1,5.8-11.16,10.92-.94,2.33-1.41,4.75-1.57,7.24-.02.75-.07,1.51-.05,2.26.08,2.6.37,5.19.9,7.75Z"/>
        <path class="cls-2" d="M1875.89,204.91c2.35-2.13,4.47-4.44,6.21-7.04,1.87-2.78,3.21-5.77,3.85-9.03.42-2.12.49-4.25.23-6.39-.34-2.78-1.23-5.41-2.58-7.92-1.66-3.08-3.86-5.78-6.48-8.2-1.19-1.1-2.48-2.09-3.88-2.95-3.14-1.94-6.56-3.14-10.56-3.37-1.71-.15-3.62.01-5.52.37-2.21.41-4.3,1.13-6.32,2.06-2.38,1.09-4.58,2.45-6.66,3.98-2.5,1.84-4.81,3.87-6.98,6.05-3.33,3.34-6.32,6.93-9.09,10.68-5.37,7.27-9.94,14.97-13.93,22.97-.21.42-.39.84-.57,1.27-.05.11-.07.24-.07.37,0,.07.06.18.13.2.34.12.68.22,1.02.32,2.18.6,3.98,1.75,5.43,3.38.2.23.4.46.59.69.12.15.29.2.47.18.18-.02.35-.06.53-.09,2.11-.41,4.21-.3,6.24.39,4.77,1.61,7.63,5.85,7.51,10.24,0,.25-.01.5-.02.75,0,.12.14.24.26.22.96-.2,1.93-.37,2.88-.6,9.56-2.33,18.51-5.97,26.84-10.9,3.75-2.22,7.26-4.73,10.46-7.62ZM1869.81,187.68c-.62,1.54-1.57,2.9-2.65,4.18-1.26,1.48-2.7,2.78-4.23,4.01-2.42,1.93-5.04,3.6-7.78,5.11-5.92,3.26-12.16,5.82-18.77,7.62-1.93.53-3.9.94-5.89,1.22-.11.02-.25-.06-.35-.13-.03-.02,0-.16.03-.24.04-.12.1-.23.16-.34.25-.49.51-.98.77-1.46,2.73-5.08,5.74-10.01,9.16-14.71,2.39-3.28,4.96-6.44,7.82-9.38,2.05-2.1,4.21-4.09,6.65-5.81,1.04-.73,2.11-1.41,3.27-1.96.76-.36,1.54-.66,2.38-.84,1.28-.27,2.49-.13,3.64.48.55.29,1.07.63,1.54,1.02,1.42,1.19,2.62,2.55,3.57,4.1.61.99,1.05,2.04,1.23,3.18.08.5.1,1,.07,1.5-.04.85-.3,1.64-.61,2.43Z"/>
        <path class="cls-2" d="M1865.32,180.78c-.12-.14-.36-.14-.45.01-.3.46-.6.93-.9,1.39-2.66,4.09-5.88,7.75-9.43,11.17-3.49,3.36-7.25,6.43-11.2,9.3-.28.05-.48.21-.64.4-.04.04-.03.13-.03.19,0,.02.08.05.11.04.29-.08.61-.1.81-.37,4.31-1.66,8.42-3.66,12.32-6.04,2.21-1.35,4.31-2.83,6.23-4.53,1.3-1.15,2.5-2.38,3.47-3.79.58-.84,1.06-1.74,1.37-2.7.19-.57.21-1.14.1-1.73-.23-1.28-.93-2.35-1.76-3.36Z"/>
      </g>
    </g>
  </g>
</svg>