<?xml version="1.0" encoding="UTF-8"?>
<svg id="_圖層_2" data-name="圖層 2" xmlns="http://www.w3.org/2000/svg" width="741.29" height="563.12" xmlns:xlink="http://www.w3.org/1999/xlink" viewBox="0 0 741.29 563.12">
  <defs>
    <style>
      .cls-1 {
        stroke-width: 1.82px;
      }

      .cls-1, .cls-2, .cls-3, .cls-4, .cls-5, .cls-6, .cls-7, .cls-8, .cls-9, .cls-10, .cls-11 {
        stroke: #06292f;
      }

      .cls-1, .cls-2, .cls-3, .cls-4, .cls-6, .cls-7, .cls-9, .cls-10 {
        stroke-miterlimit: 10;
      }

      .cls-1, .cls-3, .cls-5, .cls-6, .cls-9 {
        fill: #02292e;
      }

      .cls-2, .cls-4, .cls-7, .cls-8, .cls-10, .cls-12, .cls-11 {
        fill: #06292f;
      }

      .cls-2, .cls-8 {
        stroke-width: 4.94px;
      }

      .cls-13 {
        fill: #231815;
      }

      .cls-14 {
        fill: #fff;
      }

      .cls-3 {
        stroke-width: 1.36px;
      }

      .cls-15 {
        fill: #e62320;
      }

      .cls-4 {
        stroke-width: 1.65px;
      }

      .cls-5, .cls-8, .cls-11 {
        stroke-linejoin: round;
      }

      .cls-5, .cls-9 {
        stroke-width: 3.68px;
      }

      .cls-16 {
        fill: #fac959;
      }

      .cls-17 {
        fill: none;
      }

      .cls-18 {
        fill: #052930;
      }

      .cls-19 {
        opacity: .5;
      }

      .cls-19, .cls-20 {
        fill: #a7583e;
      }

      .cls-6 {
        stroke-width: 3.63px;
      }

      .cls-7 {
        stroke-width: 1.28px;
      }

      .cls-8 {
        stroke-linecap: round;
      }

      .cls-21 {
        fill: #18933b;
      }

      .cls-22 {
        fill: #0088cd;
      }

      .cls-23 {
        clip-path: url(#clippath);
      }

      .cls-10 {
        stroke-width: 1.71px;
      }

      .cls-11 {
        stroke-width: 5.45px;
      }
    </style>
    <clipPath id="clippath">
      <path class="cls-17" d="M30.27,526.06s256.96,79.45,661.93,5.67l37.89-253.34L497.79,0,106.45,8.02,37.66,282.28l-7.4,243.78Z"/>
    </clipPath>
  </defs>
  <g id="icon">
    <g>
      <ellipse class="cls-18" cx="370.65" cy="508.49" rx="370.65" ry="46.34"/>
      <g class="cls-23">
        <g>
          <path class="cls-15" d="M531.02,245.88c8.48-9.42,14.89-20.94,18.29-34.06,6.36-24.52.87-49.32-12.89-68.36l-100.68-26.11c-21.28,9.95-38.13,28.97-44.49,53.48-3.4,13.11-3.39,26.3-.56,38.66-48.23,13.39-88.21,51.38-101.67,103.32-20.1,77.5,26.44,156.62,103.94,176.71,77.5,20.1,156.62-26.44,176.71-103.94,13.47-51.93-3.02-104.56-38.66-139.7Z"/>
          <path class="cls-14" d="M540.19,189.19c-1.67,11.03-6.23,21.41-11.2,31.4-2.99,6.01-11.94,17.24-30.37,23.31-15.9,5.24-33.87,1.55-49.37-4.76-15.51-6.31-29.04-18.04-36.11-33.22-7.06-15.18-7.14-33.78,1.12-48.34,6.69-11.79,18.63-20.46,31.9-23.18,11.74-2.41,23.92-.32,35.58,2.48,15.96,3.84,35.39,8.13,49.51,16.81,10.1,6.21,10.49,25.29,8.94,35.5Z"/>
          <path class="cls-13" d="M533.92,144.13c-21.79,6.19-50.74-2.54-50.74-2.54,0,0-30.63-6.67-46.44-23.32l-1.3-1.43s51.88-20.43,59.18-56.69l9.07,2.35,9.07,2.35c-11.24,35.24,24.18,78.3,24.18,78.3l-3.02.97Z"/>
          <path class="cls-13" d="M411.46,307.27c-.96.64-2.06,1.84-3.35,3.77-1.06,1.4-1.95,2.56-2.77,3.43-.35.21-.93.55-1.8,1.21-1.14.99-1.78,1.52-1.94,1.77-.35.21-1.14.99-2.2,2.39-1.1,1.59-1.85,2.58-2.28,3.06-.54.55-1.4,1.22-2.54,1.81-1.12.5-2.41.56-3.99.15-1.94-.5-3.69-1.75-5.04-3.78-.54-1.33-1.33-4.79-2.16-10.33-.54-4.39.31-9.2,2.49-14.56.84-3.24,2.04-5.59,3.68-6.95.53-.16,2.25.09,5.21.86.09.02,1.69.73,4.62,1.99,2.56,1.16,4.64,1.89,6.31,2.33l.32,1.07,2.31.6c.2.74.64,1.74,1.3,3,.75,1.28,1.03,2.14.93,2.51,1.06,3.53,1.37,5.39.9,5.66ZM431.63,341.43c1.59,1.1,4.59,2.87,9.13,5.53,5.08,2.9,8.67,5.01,10.77,6.45,2.7,1.79,5.48,3.99,8.31,6.4,3.15,2.69,5.49,5.47,6.81,8.38,1.53,2.87,2.2,6,2.12,9.34.3.37.15.93-.41,1.57-.59.74-.92,1.24-.99,1.52-1.59,1.56-2.57,2.3-2.94,2.2-1.29-.34-2.43-.53-3.47-.7-1.53-.2-2.48-.35-2.94-.47l-5.09-1.32-14.46-11.65-16.99-13.69c-4.68,5.5-8.42,13.81-11.32,25.01-.48,1.85-1.76,3-3.95,3.42-.53.16-1.14.2-1.79.03l-1.2-.31c-1.97.38-4.89-.18-8.54-1.72-.74-.19-1.32-.64-1.8-1.45l-1.34-2.82c-.57-1.23-.96-2.02-1.28-2.31-.93-2.51-1.05-5.11-.3-7.98,1.92-7.4,3.7-12.76,5.38-16.18,8.57-17.43,23.34-36.31,44.34-56.74,3.85,2.28,6.86,5.53,8.96,9.63,3.22,5.08,2.9,10.13-.83,14.99l-8.54,12c-.75.99-1.71,2.03-2.9,3.2-1.31,1.24-2.34,2.55-3.16,3.82-.73,1.29-1.28,2.63-1.59,3.83ZM491.65,328.95c-.05-1.69-2.13-5.88-6.45-12.44-.3-.37-.92-1.03-1.86-1.96l-1.93-1.69c-.41-.3-.99-.36-1.81-.27-12.78,5.87-19.67,12.28-20.69,19.22-.54,6.67.39,10.67,2.91,12.01,2.72,1.69,5.02,1.6,6.77-.22.61-.83,1.77-1.51,3.5-2.06,1.84-.61,3.05-1.09,3.47-1.57.28.07.6.35.99.75l6.5-4.14c.53-.16,1.58-.38,3.23-.64,1.65-.26,2.79-.86,3.38-1.59,1.68-1.54,2.35-3.34,1.99-5.41Z"/>
          <path class="cls-4" d="M482.91,187.68c-2.95-3.57-8.23-5.08-12.63-3.62-1.11.37-1.97,1.52-1.6,2.73.34,1.1,1.54,1.99,2.73,1.6.42-.14.84-.25,1.28-.33.02,0,.15-.02.24-.04.03,0,.06,0,.08,0,.22-.02.44-.03.66-.03.22,0,.44,0,.66.02.11,0,.22.01.33.02,0,0,.18.02.23.03.11.02.22.04.32.06.24.05.48.11.72.18.21.06.42.13.63.2.08.03.15.06.23.09.07.1.47.23.58.28.19.1.38.22.57.33.19.12.36.25.55.37.02.01.02.01.03.02.07.06.15.12.22.19.35.31.67.65.97,1.02.75.9,2.37.88,3.16.05.89-.94.85-2.19.05-3.16Z"/>
          <g>
            <path class="cls-4" d="M523.02,165.32s.08.03.13.05c0,0-.01,0-.02,0-.04-.01-.07-.02-.11-.04Z"/>
            <path class="cls-4" d="M525.83,166.82c.24.27.25.24.17.15-.05-.05-.11-.09-.16-.14,0,0,0,0-.02-.01Z"/>
            <path class="cls-4" d="M533.16,167.77c-2.54-4.27-6.55-7.27-10.89-8.17-1.19-.25-2.49.71-2.64,2.17-.15,1.44.63,2.88,1.9,3.14.44.09.88.2,1.31.34.06.02.12.04.18.06-.09-.04-.12-.05.09.03,0,0,.01,0,.02,0,.03.01.06.02.09.03-.02,0-.05-.01-.07-.02.2.08.39.16.59.25.42.19.83.41,1.23.65.22.13.44.27.65.41.07.05.14.09.21.14,0,0,0,0-.02-.02,0,.01.02.02.03.03h.01c.06.05.11.1.14.14.29.27.63.5.91.76.35.33.7.67,1.02,1.04.16.18.32.38.48.56-.54-.6.05.08.18.25.31.42.59.86.86,1.32.69,1.17,2.26,1.53,3.22.64.98-.91,1.23-2.51.49-3.76Z"/>
          </g>
          <g>
            <path class="cls-4" d="M452.46,144.36c-.05-1.57-1.17-2.58-2.67-2.73-2.63-.26-5.26.31-7.67,1.37-2.44,1.08-4.46,2.84-6.05,4.96-.39.52-.45,1.44-.3,2.04.16.64.64,1.34,1.23,1.66,1.39.75,2.78.28,3.69-.92.02-.03.05-.05.07-.08,0,0,0,0,0,0,.02-.02.03-.04.05-.06.18-.21.37-.41.56-.6.34-.35.71-.67,1.1-.97-.06.05-.04.03.02-.02.02-.02.04-.03.06-.05.08-.06.16-.12.24-.18-.08.06-.14.11-.19.15.04-.03.08-.06.11-.08.21-.14.42-.27.63-.4.45-.27.92-.51,1.39-.72.05-.02.11-.05.16-.07-.14.06-.25.09.03-.01,0,0,0,0,0,0,.05-.02.1-.04.15-.06-.04.02-.09.04-.13.06.23-.08.46-.16.69-.23.5-.15,1.01-.27,1.53-.36.09-.01.17-.03.26-.04.23-.02.46-.04.69-.05.55-.02,1.09,0,1.64.05,1.41.14,2.77-1.3,2.73-2.67Z"/>
            <path class="cls-4" d="M444.89,147.67s.03-.01.05-.02c0,0,0,0-.01,0-.01,0-.02.01-.04.02Z"/>
            <path class="cls-4" d="M440.7,150.73s-.01,0-.02.02c-.02.03-.04.05-.07.08.49-.53.29-.34.14-.17,0,0,0,0,0,0-.02.02-.04.05-.05.07Z"/>
            <path class="cls-4" d="M442.47,149.03s.06-.05.12-.09c-.04.03-.07.06-.1.08,0,0-.01.01-.02.02Z"/>
          </g>
          <path class="cls-4" d="M495.85,218.39c-.49-2.96-2.03-5.77-4.22-7.81-.63-.59-1.72-.66-2.33,0-.59.64-.67,1.7,0,2.33.25.23.49.47.71.72.05.05.09.11.14.16-3.4.89-6.62,2.4-10.06,3.14-3.21.69-6.51.74-9.74.21-6.14-1.01-11.87-4.13-15.91-8.87.04-.02.08-.03.12-.05.81-.29,1.43-1.14,1.14-2.03-.26-.79-1.17-1.45-2.03-1.14-2.79,1.02-5.16,2.94-6.65,5.52-.43.74-.18,1.84.6,2.25.79.41,1.79.19,2.25-.6.12-.2.24-.39.37-.58,4.68,5.47,11.04,9.18,18.11,10.63,3.55.73,7.31.86,10.9.31,4.22-.65,8.41-1.47,12.11-3.58.37-.21.74-.42,1.07-.65.08.32.18.63.24.95.06.38.44.8.76.98.35.2.87.29,1.27.16.4-.13.78-.38.98-.76.22-.42.23-.81.16-1.27Z"/>
          <g>
            <path class="cls-4" d="M518.61,195.17c-.13-.05-.26-.06-.39-.08.38-.49.74-.99,1.05-1.55,3.16-5.62,3.62-14.95-1.22-19.35-1.57-1.43-3.55-1.99-5.52-2.39-2.15-.43-4.33-.81-6.54-.63-2.61.21-5.16,1.48-6.83,3.66-1.61,1.63-2.53,3.94-2.82,6.39-.2,1.7-.19,3.45-.09,5.14.05.95.21,1.91.55,2.78.11.57.29,1.13.56,1.67.05.11.12.21.18.31.31.88.74,1.74,1.33,2.54,1.58,2.16,3.66,3.43,5.94,4.13-.87.7-1.44,1.74-1.42,2.98.06,3.24,3.37,4.36,5.66,5.05,3.97,1.19,10.66,1.04,12.01-4.63.56-2.33-.33-5.21-2.44-6.01ZM505.03,185.16c-.83-.42-1.64-1.05-2.05-2-.04-.1-.06-.21-.09-.31-.3-.82-.32-1.77.04-2.57,1.07-2.4,3.47-3.55,5.7-3.91.97-.16,2.02-.18,2.96.08,1.24.35,2.49.97,3.19,2.24.19.35.31.69.39,1.04.08.15.13.3.12.47,0,.13-.02.25-.03.38,0,.02,0,.03,0,.05.01.28-.03.55-.1.81-.07.43-.18.85-.36,1.26-.28.64-.78,1.2-1.32,1.65-.66.55-1.42.97-2.25,1.18-1.98.95-4.34.59-6.21-.37ZM506.26,195.7c-.3-.13-.6-.3-.83-.55-.28-.31-.51-.7-.52-1.17-.02-.47.12-.9.39-1.28.35-.5.9-.83,1.41-1.07.56-.26,1.16-.44,1.75-.54.16-.03.32-.03.48-.05.01,0,.03,0,.04,0,.49-.14.99-.23,1.51-.27.11-.02.22-.06.33-.07.74-.1,1.51-.1,2.27-.07.44-.03.89-.05,1.33-.04.52.02,1.11.02,1.62.18,0,0,0,0,0,0,0,0,0,0,0,0,.11.04.23.07.33.12.26.13.23.16.4.35.08.09.01.28.11.12-.02.03-.03.07-.05.11,0,.02.03.04.04.06l.06.31s0,.1,0,.15c.14.48.1.98-.15,1.44-.16.3-.42.54-.7.75-.48.55-1.1,1.01-1.75,1.35-.77.41-1.67.69-2.56.61-.44.1-.88.17-1.33.21-1.05.1-2.28.03-3.32-.37-.29-.08-.58-.16-.85-.28ZM518.74,199.99c-.03.19-.12.37-.19.55-.02.05-.06.08-.09.13-.1.23-.21.43-.37.64-.31.39-.71.73-1.17.94,0,0,0,0,0,0-1.13.76-2.65.93-3.85.91-1.23-.02-2.47-.26-3.64-.64-.55-.18-1.09-.4-1.62-.64-.32-.15-.69-.31-1-.55-.1-.04-.2-.07-.28-.14-.13-.08-.23-.19-.31-.32-.09-.13-.13-.27-.15-.41-.04-.15-.03-.3.01-.45,0-.03.01-.06.02-.09.02-.06.05-.12.07-.18.02-.05.04-.12.07-.17.01-.02.03-.05.04-.07.07-.1.15-.2.23-.29.02-.02.04-.04.06-.05.09-.07.19-.15.29-.21.13-.08.28-.13.41-.18.2-.08.41-.1.63-.12.12-.01.24-.01.36,0,.15.02.31.03.46.07.07.02.14.05.21.08.03,0,.06.01.09.02.02-.02.05-.03.07-.05.67.13,1.35.2,2.05.18,1.87-.05,3.58-.74,5.06-1.86,0,0,0,0,0,0,.07-.09.15-.16.25-.23.1-.07.21-.12.32-.15.28-.07.66-.04.91.12.48.21.85.71.95,1.2,0,0,0,.02,0,.03.19.29.34.6.36.96,0,.14-.02.28-.04.42,0,.05-.01.1-.03.14-.04.14-.11.28-.18.42,0,0,0,0,0,0Z"/>
            <path class="cls-4" d="M465.23,171.28c.53-2.64.28-5.38-1.03-7.66-1.18-2.87-3.73-5.12-6.71-6.3-2.52-.99-5.23-1.4-7.9-1.74-2.45-.31-4.98-.46-7.33.45-7.26,2.79-10.05,12.63-8.36,19.61.17.69.41,1.35.68,1.99-.16-.03-.32-.07-.49-.07-2.77.06-4.84,2.72-5.02,5.34-.44,6.37,7.36,8.99,12.45,9.21,2.93.13,7.21.17,8.45-3.16.47-1.27.18-2.56-.6-3.61,2.92.11,5.82-.45,8.45-2.1.56-.35,1.06-.75,1.52-1.17,1.03-.66,1.88-1.56,2.44-2.64.03-.05.07-.09.11-.14.7-.77,1.22-1.71,1.62-2.66.72-1.72,1.36-3.53,1.73-5.36ZM446.76,187.82c-.2.23-.48.33-.77.38-.49.22-1.12.25-1.62.29-.71.06-1.42.09-2.13.07-1.51-.04-3.06-.25-4.51-.68-1.94-.57-4.51-1.74-5.05-3.91-.14-.56-.03-1.35.38-2.02.04-.07.15-.2.28-.34.03-.04.05-.09.08-.12.16-.13.31-.26.5-.35.18-.08.37-.17.57-.22.31-.08.66-.13.99-.11.22.01.44.04.66.09.21.05.41.13.6.22.15.07.27.16.4.26.22.17.34.31.52.55,0,0,0,0,0,0,1.1.99,2.38,1.79,3.86,2.29.67.22,1.34.37,2.02.48.22.01.44.04.66.07.28.04.56.12.83.21.75.26,1.51.64,1.94,1.35.14.23.18.51.15.77-.03.29-.15.51-.34.73ZM449.56,182.39c-.36.18-.78.25-1.17.27-.62.03-1.25-.02-1.86-.1-.04,0-.07-.02-.11-.03-.71-.03-1.42-.22-2.09-.4-1.27-.34-2.46-.92-3.56-1.65-1.22-.81-2.62-1.82-3.32-3.16-.01-.01-.03-.03-.04-.04-.11-.13-.19-.3-.26-.45-.03-.06-.05-.12-.07-.18-.04-.16-.1-.34-.11-.51,0-.09,0-.18,0-.27,0-.09,0-.19.01-.28.02-.14.06-.28.1-.41.04-.15.08-.29.15-.42l.19-.3s.05-.03.06-.05c0-.04,0-.09-.02-.13.06.21.04-.01.17-.08.27-.14.24-.17.6-.21.14-.02.29-.01.43,0,0,0,0,0,.01,0,0,0,0,0,0,0,.66.02,1.36.23,1.97.41,1.69.48,3.33,1.2,4.86,2.07,0,0,.01,0,.02.01.67.1,1.33.33,1.93.63.66.33,1.3.73,1.86,1.2.51.44,1.04.98,1.27,1.63.17.49.18.98,0,1.47-.18.48-.59.8-1.03,1.02ZM456.94,170.57c-.07.1-.13.2-.22.29-.81.83-1.99,1.18-3.12,1.32-2.72.33-5.88-.24-7.85-2.27-.68-.7-1.24-1.58-1.62-2.53-.33-.44-.61-.87-.87-1.39l-.22-.88c-.07-.48-.02-.94.16-1.38.23-.77.64-1.3,1.26-1.83,1.27-1.07,2.96-1.25,4.54-1.15,1.2.07,2.43.49,3.51,1,2.49,1.19,4.9,3.27,5.3,6.15.13.96-.23,1.94-.87,2.68Z"/>
          </g>
        </g>
        <g>
          <path class="cls-22" d="M330.79,199.32c3.33-12.23,3.87-25.41,1-38.65-5.36-24.76-21.42-44.44-42.28-55.24l-101.65,22.01c-14.52,18.47-21.01,43.03-15.65,67.78,2.87,13.24,8.81,25.02,16.9,34.77-37.03,33.67-55.64,85.59-44.28,138.02,16.94,78.25,94.11,127.95,172.36,111.01,78.25-16.94,127.95-94.11,111.01-172.36-11.35-52.44-49.76-92.01-97.41-107.35Z"/>
          <path class="cls-14" d="M313.73,144.52c3.47,10.61,4.08,21.92,4.13,33.08.03,6.71-2.91,20.77-16.63,34.49-11.84,11.84-29.54,16.63-46.23,17.98-16.69,1.35-34.05-3.03-47.19-13.41-13.14-10.38-21.58-26.95-20.76-43.67.67-13.53,7.42-26.65,18.05-35.06,9.4-7.44,21.22-11.05,32.89-13.8,15.98-3.76,35.26-8.67,51.78-7.28,11.82,1,20.75,17.86,23.96,27.67Z"/>
          <path class="cls-13" d="M287.58,107.16c-16.67,15.34-46.45,20.57-46.45,20.57,0,0-30.36,7.83-51.97.08l-1.81-.69s37.13-41.6,27.33-77.26l9.16-1.98,9.16-1.98c5.83,36.52,56.84,59.04,56.84,59.04l-2.26,2.23Z"/>
          <path class="cls-13" d="M268.01,326.4c.32.13.75,1.21,1.18,3.17.26,1.21.06,6.15-.74,14.63l-1.45,5.5c-.73,2.5-1.02,4.33-1.08,5.42-.24.25-.82,1.64-1.92,4.23-.79,2.23-1.53,3.75-2.19,4.78-1.52-.26-2.49.24-2.81,1.49-.82-.61-1.25-.8-1.4-.58-1.91,2.47-3.41,2.79-4.58.99-.44.68-1,.8-1.68.36l-.43.29-.33.27c-.34-.22-.73-.23-1.29-.11-.51-2.34-1.1-4.16-1.72-5.69,1.48-4.92,2.31-7.84,2.53-8.66,4.56-10.08,6.44-17.24,5.68-21.67-.34-.22-.74-.23-1.07.04-.45.19-.93.2-1.56.04-2.27-.1-4.16.22-5.46.99-3.92,2.22-6.48,3.95-7.47,5.24-.24.25-.45.19-.51-.09s-.17-.35-.43-.2c-1.93,1.49-4.73,2.1-8.41,1.82-.1-.47-.54-.67-1.38-.48-.4-.5-1.2-1.01-2.27-1.46-1.17-.43-1.85-.87-2.05-1.32-.25-.24-.32-1.01-.3-2.28l-.45-.29c.1-.9-.31-1.89-1.18-3.17.22-.34.17-1.01-.22-1.91-.3-.91-.34-1.59-.12-1.93.65-.14,1.15-.54,1.52-1.11.05-.7,3.95-3.01,11.57-7.1,1.17.43,3.13,0,5.81-1.16,3.76-1.6,9.82-1.15,18.19,1.34.8.51,2.29,1.07,4.42,1.88l2.72,2.64.89,4.11ZM295.36,321.26c-.29.45-.31.85-.11,1.3,1.63,3.46,3.78,11.6,6.53,24.31-.14,2.08.19,4.95,1.02,8.78l1.52,7.01c-.28.06-.35.17-.33.27s-.15.23-.43.29c.06.28.26.73.58,1.34l.16.75c.15.26.19.45.31.52l.04.19c-.51.8-.86,1.46-.96,1.87.13,1.05-.16,1.99-.63,2.97-.62,1.21-.96,1.87-.92,2.06-.28.06-.87.48-1.87,1.29-1,.8-1.65.94-2.05.44-.29.45-.68.93-1.27,1.35-.65.63-1.05,1.01-1.27,1.35-.71-.14-1.89-1.94-3.48-5.21-2.26-2.74-4.4-6.77-6.38-12.31-.26-.73-.28-1.31,0-1.76-.91-1.95-1.91-4.77-2.89-8.37-.8-3.25-1.43-6.15-1.86-8.59-.3-2.28-1.02-5.16-2.05-8.55.14-.71,0-1.76-.48-3.12-.44-1.57-.7-2.78-.56-3.5l-.45-.29c-.34-.22-.38-.41.09-.51.37-.08.45-.2.11-.41l-.45-.29c-.11-.07-.08-.37-.04-1.07.11-.41-.07-.77-.41-.99.14-.71.03-1.67-.44-2.94-.42-1.47-.66-2.6-.52-3.31-.47.1-.7-.53-.82-1.97l-.49-6.35c.94-2.45.82-4.77-.28-7.18.46-1.96.26-3.77-.69-5.43.44-.68.64-1.12.58-1.4l-.26-1.21c1.32-2.04,2.69-2.93,4.21-2.67-.06-.28.51-.8,1.79-1.66.57.37.91.59,1.06.85.42.59.78.91,1.06.85.56-.12,1.54.35,2.97,1.51.26-.15.56-.12,1.13.24.51.09.94.29,1.19.53,1.65,1.3,3.04,3.65,4.12,6.83-.56.12-.78.46-.66,1.02s.11.96-.11,1.3l.45.29.97,4.48c-.41.38-.45,1.08.07,2.14.56,1.25.89,1.86.82,1.98-.31.85-.06,1.97.71,3.27.21,3.67.77,6.29,1.68,7.75ZM319.66,323.73l-.74.65-.76.56c.02,1.46-.6,2.67-1.81,3.82l.34,1.59c2.05,1.81,5.02,3.32,8.92,4.62,3.97,2.07,8.14,4.59,12.38,7.49,2.2.7,3.87,1.61,5.01,2.83,2.09.62,3.99,2.17,5.81,4.71-1.69,1.24-1.98,2.58-.8,3.99-.5.4-.66,1.02-.48,1.86.2.93.14,1.53-.12,1.69-2.15,1.35-3.25,2.17-3.37,2.49-.76,1.93-1.3,3.02-1.52,3.36-3.33-.45-5.34-1.19-6.13-2.1-.47.1-.98.02-1.32-.2-1.51-.65-3.63-1.86-6.28-3.72-2.2-1.58-4.22-2.8-5.85-3.53-.41-.99-1.57-1.81-3.6-2.64-1.87-1.85-2.95-2.78-3.23-2.72-.12-.56-.3-.91-.64-1.13-.73-.23-4.57-3.51-11.35-9.96l.11-.41.09-.51c-2.43-3.09-2.49-8.36-.29-15.78.56-.12.76-.56.58-1.4.67-1.42,1.34-2.83,2.15-4.08,1.1-1.71,1.77-3.12,2.15-4.08.93-.69,2.52-2.8,4.81-6.23,3.03-2.71,4.79-5.44,5.23-8.37.03-.3.27-.55.65-.63,1.02.66,1.68,1.01,1.97.94,1.39-.79,2.7-.19,3.89,1.7.02.09.32.13.92.19.53.18.83.21.94.28.34.22.63.65.73,1.11.14.66.32,1.01.64,1.13,4.07,1.17,5.68,3.66,4.82,7.37.34.22.65.74.81,1.49-.22.34-.62,1.21-1.16,2.79-.64,2-1.17,3.19-1.43,3.34-7.73,3.14-11.8,5.59-12.07,7.5Z"/>
          <g>
            <path class="cls-2" d="M262.05,171.71c-1.35-2.59-4.15-4.29-7.12-3.68-2.77.57-4.78,2.94-5.14,5.71-.27,2.12,3.03,2.54,3.3.41.38-3.02,4.39-4.03,5.87-1.17.98,1.89,4.07.63,3.08-1.27Z"/>
            <path class="cls-8" d="M292.61,132.11c-5.6-4.78-13.64-5.86-20.3-2.73-1.94.91-.67,3.99,1.27,3.08,5.65-2.66,12.23-1.77,16.98,2.28,1.63,1.39,3.67-1.24,2.05-2.63Z"/>
            <path class="cls-8" d="M216.16,142.53c-6.84.1-12.72,4.75-14.67,11.24-.62,2.05,2.65,2.72,3.26.68,1.53-5.09,6.33-8.51,11.6-8.59,2.14-.03,1.96-3.36-.19-3.32Z"/>
            <path class="cls-2" d="M283.88,200.51c1.21-3.1,2.09-6.31,2.42-9.63.2-2.05.78-5.28-1.09-6.56,0,0,0,0-.01-.01-.32-.33-.64-.49-.96-.53,0-.02,0-.04.01-.07-.44-.22-.98-.27-1.53,0-15.65,7.47-32.89,11.17-50.22,10.93-2.14-.03-2.01,3.3.13,3.33.73.01,1.45,0,2.17,0,.21.19.49.33.87.37,2.86.29,5.04,3.8,6.82,5.8,2.02,2.27,4.07,4.53,6.35,6.55,4.08,3.61,8.95,6.49,14.46,6.99,1.61.15,3.2.03,4.74-.31.29.1.63.1,1-.03,1.08-.38,2.12-.84,3.11-1.37.18,0,.37-.05.57-.13,5.67-2.5,9.03-9.86,11.16-15.31ZM276.68,207.31c-.38.61-.78,1.25-1.21,1.87-.09.07-.18.14-.26.24-1.62,1.77-3.51,3.16-5.66,4.13-3.44,1.32-7.33,1.05-10.8-.36-4.73-1.92-8.51-5.52-11.92-9.22-1.62-1.76-3.36-4.31-5.41-6.23,13.69-.86,27.12-4.16,39.69-9.69.09.06.19.1.29.13.13-.07.28-.11.42-.13.23-.02.5.09.67.25.03.03.05.06.08.09.33.19.59.53.68.89.1.39.08.78,0,1.17-.07.37-.21.73-.35,1.08-.02.04-.04.08-.05.13-.11.77-.24,1.53-.41,2.29-.55,2.5-1.39,4.92-2.46,7.26-.96,2.11-2.08,4.14-3.31,6.11Z"/>
            <path class="cls-12" d="M222.42,178.73c3.05-2.23,3.68-6.07,2.81-9.56-.91-3.67-3.23-7.07-7.48-6.64-2.88.29-5.21,2.46-6.3,5.08-.33.45-.62.93-.84,1.45-1.36,3.12-.51,6.99,2.04,9.24,2.68,2.38,6.88,2.55,9.78.43Z"/>
            <path class="cls-12" d="M292.14,153.55c-2.16-5.8-11.96-8.22-15.43-2.36-3.11,5.25.98,11.48,6.27,12.69,2.1.82,4.7.46,6.5-.94,2.63-2.04,3.83-6.27,2.66-9.4Z"/>
          </g>
        </g>
        <g>
          <g>
            <path class="cls-20" d="M644.41,378.52c8.12-10.38,13.95-22.79,16.55-36.63,4.85-25.89-2.61-51.23-18.25-69.99l-106.3-19.9c-21.37,11.84-37.48,32.77-42.33,58.65-2.59,13.85-1.64,27.53,2.18,40.14-49.07,17.33-87.83,59.59-98.1,114.42-15.32,81.83,38.6,160.58,120.43,175.89,81.83,15.32,160.58-38.6,175.89-120.43,10.26-54.83-10.59-108.25-50.07-142.16Z"/>
            <path class="cls-14" d="M650.16,319.11c-.95,11.56-4.93,22.65-9.38,33.37-2.68,6.45-11.16,18.73-29.84,26.35-16.12,6.57-35.02,4.02-51.56-1.41-16.54-5.44-31.41-16.64-39.82-31.88-8.41-15.24-9.82-34.53-2.28-50.22,6.1-12.7,17.86-22.55,31.44-26.32,12.01-3.33,24.79-2.04,37.08.04,16.83,2.84,37.29,5.9,52.56,13.9,10.92,5.72,12.69,25.49,11.81,36.18Z"/>
            <path class="cls-13" d="M640.16,272.77c-22.16,7.98-52.81.98-52.81.98,0,0-32.25-4.74-49.84-20.88l-1.45-1.39s52.36-24.9,57.35-63.03l9.58,1.79,9.58,1.79c-9.14,37.35,30.67,79.5,30.67,79.5l-3.06,1.23Z"/>
            <path class="cls-13" d="M564.48,549.04c-1.56.22-3.29.3-5.1.26-2.24.09-3.66.12-4.4.29-1.15-.32-2.07-.29-2.75.09-.27-.15-1.07-.2-2.56-.38-1.29-.14-2.25-.42-2.88-.84-.29-.06-.72.07-1.3.46-.43-.38-1.2-.63-2.29-.73-1.31-.04-2.01-.07-2.09-.19-.52.1-1.25.17-2.36.17-.9-.07-1.7-.12-2.34.07-.29-.06-.37-.17-.35-.27s-.06-.21-.26-.25c-1.03.11-2.55.13-4.43-.12-2.07-.29-3.49-.25-4.43-.12l-.35-.27-.26-.25-.54.2c-.4-.58-1.18-.73-2.58-.28l-2.88-.84c-1.25-.34-2.19-.71-2.72-1.12-1.33.05-2.28-.23-2.88-.84-1.15.19-3.26-.41-6.53-1.83l-.45.22c-.3-.56-1.01-1.1-2.05-1.49-1.21-.53-1.94-.97-2.2-1.22l-.45.22-4.84-8.69c.25-.26.32-.65.3-1.06-.09-.62-.11-1.03-.07-1.23.09-.49-.05-.82-.54-.91-.35-1.38-.05-2.44.88-3.07.93-.64,2.33-1.08,4.1-1.36,1.77-.28,2.94-.56,3.52-.96.57.21.92.48.98.69.97-.32,2.39-.36,4.3-.31.49.09.82-.05,1.01-.52,1.52-.02,3.57-.14,6.27-.54,2.38-.26,4.94-.49,7.6-.6,3.59.27,5.6.34,6.12.24.42-.63.6-1.61.68-3.11-.04-1.42.05-2.42.24-2.89l-.09-1.13c-.07-.72.02-1.21.37-1.45.07-.9.28-2.58.6-4.84.4-2.15.52-3.85.33-4.99-.33.14-.82.05-1.25-.34-.63-.42-.98-.69-1.18-.73-.92.03-2.58-.28-5.16-1.07l-1.45-.37c-.66-.23-1.22-.53-1.65-.92-.49-.09-.82.05-.91.54-.49-.09-.84-.36-.98-.69-4.07.65-7.27-1.66-9.62-6.96l-.76-.24c.07-.39.09-1-.04-1.93-.11-1.03-.06-1.83.13-2.3,6.23-4.09,13.97-6.59,23.32-7.36l.25-.26.37-.34c.28.15,1.29.14,3,.16l.24-.76c.47.19.98.18,1.5.08l1.67-.29c.05-.29-.02-.41-.12-.43s-.08-.12-.02-.41c.58-.4,1.12-1.11,1.51-2.14.49-1.02.8-1.57,1.15-1.81-.24-.35-.13-.94.35-1.86.36-.84.51-1.62.4-2.15.62-.59,1.41-1.05,2.26-1.3.29.05.37.17.35.27s.06.21.26.25c1.51-.52,2.65-.11,3.49,1.36.67.22,1.37.76,2.36,1.45,1.14.92,1.77,1.34,1.87,1.36.28.66.76,1.36,1.43,2.09.57.71,1.21,1.64,1.73,2.65.46.79.49,1.71.19,2.77,11.32,2.73,18.82,5.85,22.49,9.47,1.36,2.48,2.04,4.22,2.05,5.24.42.48.6,1.12.55,1.92.05.82.13,1.44.27,1.77-.12.08-.48.41-1.13,1.2-.46.82-.74,1.28-.76,1.37-.72.07-1.53.62-2.34,1.69-1.24.17-2.28-.23-3.19-1.31-.12.08-.41.03-.84.15-.39-.07-.82.05-1.32.05l-1.44.13c-1.25.17-2.57.23-3.9.28-.27-.15-1.07-.2-2.46-.36-1.01.01-1.87-.25-2.7-.71-.85.24-2.24.09-4.06-.46-1.1.5-3.34,1.09-6.68,1.68-.19.47-.76,1.37-1.51,2.65-.19.47-.46,1.94-.92,4.38-.31,2.17-.87,3.58-1.59,4.15.03.92-.04,1.81-.3,2.67l-.77,2.48c.16.23.26.76.22,1.56l-.29,1.56,3.56.97.32.46c.38-.43,1.15-.19,2.5.67.05-.29.84-.15,2.27.32.58-.4,1.05-.21,1.45.37.72-.07,1.89.15,3.52.66,1.64.41,2.81.63,3.44.54.24.35,1.08.71,2.43,1.06l.45-.22c.26.25.51.5.98.69l.46-.32c.43.39,1.37.76,2.63,1.1,1.33.45,2.17.81,2.61,1.2l.46-.32c.2.54.83.96,1.81,1.15.7.03,1.45.37,2.27.83l.46-.32.43.39c.37.17.65.32.82.46,2.54,3.71,3.79,6.78,3.66,9.08-.26.86-.49,1.53-.84,1.76.16.23.18.64,0,1.11-1.4.45-2.33,1.08-2.78,1.91-1.83.06-3.19.31-4.2.83-4.32-1.21-7.27-1.16-8.93.15-1.24.68-2.64,1.12-4.2,1.34Z"/>
          </g>
          <path class="cls-10" d="M562.89,277.72c-2.95-2.14-6.7-2.55-10.22-2.03-3.34.49-6.47,2.03-9.45,3.53-1.2.61-1.7,2.34-1,3.49.75,1.23,2.21,1.64,3.49,1,2.63-1.33,4.82-2.42,7.69-2.95.1-.02.88-.13.57-.1.37-.04.74-.06,1.11-.06.37,0,.74,0,1.11.03.18.01.37.03.55.05-.18-.03-.18-.03,0,0,.68.11,1.33.3,1.97.54.3.12.34.13.12.05.16.08.32.16.48.25.32.18.62.38.91.6,1.09.79,2.9.29,3.53-.86.72-1.3.31-2.68-.86-3.53Z"/>
          <path class="cls-10" d="M617.62,287.96c3.52-.93,7.17.05,10.26,1.81,2.94,1.67,5.3,4.23,7.53,6.71.9,1,.74,2.8-.33,3.62-1.14.87-2.65.73-3.62-.33-1.97-2.19-3.61-4-6.1-5.53-.08-.05-.77-.44-.5-.3-.33-.17-.67-.32-1.01-.46-.34-.14-.69-.27-1.04-.38-.18-.06-.35-.11-.53-.15.18.03.18.03,0,0-.67-.14-1.35-.2-2.03-.21-.32,0-.36,0-.13,0-.18.02-.36.04-.54.06-.36.05-.71.13-1.07.23-1.3.34-2.81-.78-2.98-2.07-.2-1.47.68-2.61,2.07-2.98Z"/>
          <path class="cls-10" d="M635.17,323.39c-1.67-2.07-3.34-4.13-5.01-6.2-.43-.54-.95-.94-1.65-1.07-.61-.11-1.38.02-1.89.39-.57-.11-1.2,0-1.82.47-6.22,4.69-15.45,5.17-21.94.67-1.14-.79-2.64-.87-3.62.26-.83.96-.89,2.83.26,3.62,3.68,2.55,7.99,3.98,12.37,4.25,0,.04,0,.09,0,.13.5,2.41,1.01,4.82,1.51,7.23.14.68.33,1.25.88,1.73.48.42,1.25.7,1.9.62.65-.08,1.31-.35,1.72-.88.4-.5.76-1.24.62-1.9-.5-2.38-.99-4.76-1.49-7.14.91-.13,1.81-.31,2.7-.54.15.37.36.71.66,1.04,2.11,2.29,4.23,4.57,6.34,6.86.42.46,1.3.67,1.9.62.62-.05,1.33-.39,1.73-.88.42-.53.71-1.21.62-1.9-.09-.7-.4-1.21-.88-1.73-1.82-1.97-3.65-3.95-5.47-5.92.87-.46,1.72-.96,2.53-1.53,1.26,1.56,2.53,3.13,3.79,4.69.43.54.95.94,1.65,1.07.62.12,1.41-.02,1.92-.41.53-.4.98-.97,1.07-1.65.09-.64.02-1.4-.4-1.92Z"/>
          <path class="cls-10" d="M561.63,310.29c-5.08.62-10.49.26-15.31-1.58-3.08-1.18-6.72-3.3-6.75-6.97-.01-1.39-1.47-2.45-2.77-2.34-.58.05-1.04.31-1.42.66-.43.05-.83.19-1.19.43-1.97,1.09-3.94,2.19-5.9,3.28-.54.3-.96,1.06-1.07,1.65-.12.62.02,1.41.4,1.92.4.53.97.98,1.65,1.07.23.01.46.02.69.04.45-.04.86-.19,1.23-.44,1.35-.75,2.7-1.5,4.04-2.25.07.17.17.32.25.48-1.31,1.13-2.61,2.25-3.92,3.38-.29.18-.51.42-.67.71-.21.27-.35.58-.4.93-.12.62.02,1.41.4,1.92.4.53.97.98,1.65,1.07.63.09,1.42.03,1.92-.41,1.4-1.2,2.8-2.41,4.19-3.61.01,0,.02-.02.04-.03,1.33,1.12,2.86,2.02,4.4,2.71-.08.13-.16.27-.24.4-.73,1.05-1.57,2.02-2.51,2.89-.12.1-.23.2-.35.3-.54.43-.94.95-1.07,1.65-.12.62.02,1.41.41,1.92.4.53.97.98,1.65,1.07.64.09,1.4.02,1.92-.41,2.12-1.7,3.85-3.76,5.15-6.14,4.57,1.15,9.42,1.37,14.03.81,3.27-.4,2.86-5.52-.43-5.12Z"/>
          <path class="cls-10" d="M589.5,331.14c-3.81-4.67-11-6.2-16.32-3.26-1.09.6-1.79,1.95-1.18,3.15.55,1.08,1.99,1.82,3.15,1.18.5-.28,1.02-.5,1.56-.71.02,0,.02,0,.04-.02,0,0,0,0,0,0,.12-.03.25-.07.37-.09.28-.07.56-.12.84-.16.28-.04.57-.07.85-.09.05,0,.09,0,.12,0,.1,0,.19,0,.29,0,.61.01,1.21.08,1.8.19.11.02.22.05.34.07.02,0,.04.01.07.02.27.08.55.17.82.26.27.1.53.21.79.32.12.05.23.11.34.16.02.01.03.02.05.02.48.3.96.6,1.4.97.1.08.19.17.29.25.01,0,0,0,.01,0,.01.02,0,.01.03.03.22.23.43.47.63.71.79.96,2.39,1.19,3.35.34.96-.86,1.18-2.32.34-3.35Z"/>
          <path class="cls-10" d="M607.53,355.05c-.1-1.05-.94-2.05-2.7-2.25-17.83-2.03-35.58-4.97-53.15-8.77-.56-.26-1.21-.38-1.87-.36-2.63-.4-3.84,1.65-3.11,3.3.46,5.27,3.85,10.25,8.33,14.38,5.12,4.72,11.59,9.38,19.33,10.59,14.49,2.28,28.2-4.98,33.2-14.95.35-.7.28-1.36-.03-1.94ZM575.31,366.91c-6.08-.96-11.29-4.8-15.3-8.52-2.83-2.63-5.08-5.51-6.16-8.65,15.2,3.19,30.52,5.73,45.92,7.6-4.83,6.46-14.26,11.17-24.46,9.57Z"/>
          <ellipse class="cls-19" cx="530.82" cy="330.05" rx="3.67" ry="9.99" transform="translate(108.73 791.08) rotate(-79.4)"/>
          <ellipse class="cls-19" cx="625.16" cy="347.71" rx="3.67" ry="9.99" transform="translate(168.36 898.22) rotate(-79.4)"/>
          <g>
            <path class="cls-7" d="M527.28,331.12c-.66-1.77-1.31-3.55-1.97-5.32-.16-.42-.66-.69-1.09-.52-.43.17-.68.65-.52,1.09.66,1.77,1.31,3.55,1.97,5.32.16.42.66.69,1.09.52.43-.17.68-.65.52-1.09Z"/>
            <path class="cls-7" d="M532.86,332.86c-.97-2.29-1.94-4.58-2.91-6.87-.18-.42-.64-.68-1.09-.52-.42.15-.7.67-.52,1.09l2.91,6.87c.18.42.64.68,1.09.52.42-.15.7-.67.52-1.09Z"/>
            <path class="cls-7" d="M538.96,333.96c-1.31-2.29-2.46-4.65-3.48-7.08-.18-.43-.64-.68-1.09-.52-.42.15-.7.67-.52,1.09,1.07,2.56,2.3,5.06,3.68,7.47.23.4.83.47,1.19.22.41-.28.45-.79.22-1.19Z"/>
            <path class="cls-7" d="M621.73,349.16c-.91-2.06-1.82-4.11-2.73-6.17-.19-.42-.64-.68-1.09-.52-.41.15-.71.67-.52,1.09.91,2.06,1.82,4.11,2.73,6.17.19.42.64.68,1.09.52.41-.15.71-.67.52-1.09Z"/>
            <path class="cls-7" d="M627.74,350.62c-.86-2.27-1.72-4.54-2.58-6.81-.16-.43-.65-.68-1.09-.52-.43.15-.68.66-.52,1.09.86,2.27,1.72,4.54,2.58,6.81.16.43.65.67,1.09.52.43-.15.68-.66.52-1.09Z"/>
            <path class="cls-7" d="M633.32,351.02c-.5-1.82-1.1-3.62-1.8-5.37-.17-.41-.65-.7-1.09-.52-.42.17-.7.65-.52,1.09.7,1.75,1.31,3.55,1.8,5.37.12.43.69.68,1.09.52.46-.19.64-.63.52-1.09Z"/>
          </g>
        </g>
        <path class="cls-16" d="M251.3,358c2.75-13.89,2.32-28.62-1.92-43.15-7.92-27.17-27.37-47.84-51.47-58.24l-111.56,32.53c-14.73,21.72-20.03,49.61-12.11,76.78,4.24,14.53,11.79,27.19,21.57,37.42-38.63,40.44-55.27,99.77-38.49,157.32,25.04,85.88,114.96,135.2,200.84,110.16,85.88-25.04,135.2-114.96,110.16-200.84-16.78-57.55-62.7-98.64-117.01-111.98Z"/>
        <path class="cls-14" d="M227.92,298.09c4.7,11.55,6.27,24.11,7.2,36.54.56,7.48-1.6,23.38-15.82,39.75-12.27,14.12-31.62,20.86-50.11,23.67-18.49,2.82-38.19-.7-53.65-11.23-15.46-10.53-26.17-28.34-26.57-47.04-.32-15.14,6.18-30.29,17.36-40.5,9.89-9.03,22.78-13.99,35.57-17.97,17.52-5.45,38.61-12.44,57.13-12.19,13.25.18,24.54,18.27,28.89,28.95Z"/>
        <path class="cls-13" d="M195.88,258.69c-17.37,18.4-50.15,26.58-50.15,26.58,0,0-33.22,11.12-57.92,4.18l-2.07-.63s38.11-49.29,24.38-88.26l10.05-2.93,10.05-2.93c9.37,40.25,67.99,61.33,67.99,61.33l-2.34,2.66Z"/>
        <path class="cls-13" d="M258.36,477.32c.31-.07.46.12.58.64-.52.12-.79.39-.78.94l-.05.78c-.08,1.11-.43,2.5-1.04,4.17-.31.07-1.29.61-2.84,1.51.12.52.08.86-.08,1.11h-.44s-.46-.13-.46-.13l-.24.38c-1.73-.38-2.51.01-2.51,1l-.83.19c-.21.05-.82-.26-1.71-.82.24-1.37-.23-2.03-1.22-2.03-.27.28-.3.62-.19,1.14-.21.05-.46-.12-.89-.57-.2-.39-.71-.72-1.4-.89l.14-.36.12-.46c-.31.07-.44-.01-.46-.12s-.13-.08-.34-.03l-.35.4c-1.01-1.09-1.96-1.42-2.62-.95-.12-.52-.31-.92-.57-1.08-.99,0-2.4-.45-4.43-1.21-1.8-.69-3.21-1.15-4.42-1.2-.68-.61-1.99-1.09-3.82-1.45-1.83-.36-3.27-.91-4.33-1.77-.31.07-.65.04-1.03-.21-.46-.12-.78-.05-.94.21-1.85-.46-6.33-1.88-13.5-4.11-1.56-.64-2.41-1-2.62-.95-2.33,2.82-3.72,4.44-3.96,4.82-.73.16-1.45.87-2.18,2.02-.6,1.23-1.22,1.91-1.74,2.03.05.21.01.54-.1,1.01-.24.38-.28.72-.21,1.03-.39.2-.8.83-1.26,1.7-.22.49-.36.85-.44.97-.26.82-.56,1.44-.78,1.92-.55,1-.77,1.48-.85,1.61.07.31.2.39.3.37s.23.06.28.27c2.91-1.19,4.56-2.11,4.89-2.62l1.88-.42c.1-.02.48-.32.98-.98.25.16.7.17,1.22.06,1.61-1.13,4.1-2.23,7.7-3.24l2.98-.88,2.17-.59c.5-.22.81-.29.92-.31.59.2,1.24.16,2.18-.05.94-.21,1.48-.22,1.74-.06.27-.28.66-.47,1.08-.57l.28.27.3.37c.52-.12.81-.29,1.05-.67.43.45,1.04.75,1.86,1.01.95.34,1.54.53,1.67.62-.01,2.41.83,3.75,2.56,4.13.53,2.4.51,4.26.04,5.57-.31.07-.44-.01-.46-.12s-.15-.19-.36-.14c-.27.28-.28.72-.16,1.24l-.73.16c-.89,1.4-2.19,2.46-3.68,3.12-.31.07-.65.03-1.22-.06-.49-.22-.78-.04-.97.55-.13-.08-.46-.12-1.03-.21-.54.01-.88-.02-1.22-.06-.98,0-1.6-.3-1.92-.78l-.32.51c-.64-.4-1.55-.09-2.51,1,.05.21.08.86.23,2.03.15,1.17.13,2.05.14,2.59.01.55.07,1.3-.03,2.31.41.35.72,1.26,1.02,2.62.25.16.59.2,1.11.08s.86-.08.93.23c-.07-.31-.09-.42.01-.44s.19-.15.14-.36c1.7-.71,3.48-1.1,5.32-1.18l.79-1.38c.94-.21,1.9-.31,2.86-.42,1.48-.22,2.37-.64,2.68-1.25.52-.12,1.22.06,2.09.52.97.44,1.56.64,1.77.59s.82.26,1.97.98c1.02.65,1.92.78,2.61.4.02.11.3.37.89.57.57.09.97.44,1.09.96l.65,2.92c-.31.07-.39.2-.37.3s-.06.23-.37.3c.3,3.32-.89,5.34-3.71,5.97-1.49,1.64-2.9,2.72-4,3.18.07.31-.01.44-.12.46s-.19.15-.12.46c-.57.89-1.19,1.03-1.88.42-.51.66-1.51,1.1-2.86,1.4.05.21-.14.36-.66.48s-.71.27-.64.58c-.64-.41-.92-.67-.99-.98-.24.38-.74.6-1.47.76s-1.23.38-1.39.64c-.2.59.09,2.39.76,5.41.85.36.99.98.42,1.88.92,1.66,1.85,4.4,2.77,8.03l1.46,5.58c.25.16,1.43.01,3.41-.43,1.05.31,2.27.37,3.63.07.41-.64.29-1.16-.35-1.56-.52.12-.96.1-1.22-.06-.02-.1-.65-.95-1.75-2.46-.05-.21.03-.34.14-.36s.18-.15.11-.46c-.78-1.03-1.36-2.65-1.82-4.74-.39-1.77-.8-3.1-1.32-3.97.57-.89,1-1.42,1.2-1.47-.58-.64-.64-1.39-.07-2.28.31-.07.42-.09.44.01s.15.19.36.14l.35-.41c2.19.5,3.89.78,4.9.88.05.21.17.29.28.27s.23.06.3.37c.14-.36.43-.53.95-.65,3.21,1.15,4.97,2.18,5.41,3.17-.16.25-.1,1.01.17,2.26.38.24.63.85.94,1.76.31.92.71,1.7,1.14,2.16.16.73-.05,1.76-.48,3.28-.43,1.52-.64,2.55-.5,3.17.31-.07.65-.03,1.22.06,1.11.08,1.91.23,2.38.35.79-.39,2.54-.89,5.25-1.5.25.16.8.15,1.53-.01.73-.16,1.34.14,1.82.8.1-.02.39-.2.89-.42.39-.2.68-.37.89-.42.12.52.39.79.94.78l.78.05.25,1.15c.98,0,2.04.31,2.93.88l.83,3.75c-.21.05-.29.17-.27.28s-.06.23-.37.3c.39.79.39,1.77.1,2.93-.37,1.29-.52,2.09-.47,2.29-.19.15-1.4,1.08-3.75,2.8-2.1-.08-3.58.14-4.58.58-.07-.31-.2-.39-.3-.37s-.23-.06-.28-.27c-.57.89-1.3,1.05-2.19.49-.88.96-2.49,1.1-4.68.6l-.57.89c-.52.12-.86.08-1.11-.08-.27.28-.66.47-1.08.57-.52.12-.81.29-1.05.67-.38-.24-.82-.25-1.55-.09s-1.27.17-1.63.04c-.28-.27-.59-.2-.94.21-.27.28-.56.45-.87.52-.78-.05-2.26.17-4.55.68-1.98.44-3.7.6-5.06.36-.16.25-.76.5-1.81.73l-2.19.49c-.52.12-1.17.15-1.95.1-1.11-.08-1.81-.25-2.06-.42-.21.05-.56.45-.96,1.09l-2.29.51-.36-.14-.46-.12c-1.49,1.64-3.21,1.81-5.37.43-.41.64-.93.75-1.56.35l-.24.38c-1.26-.27-2.25-.27-2.77-.15-3.06-2.93-4.4-6.02-4.03-9.28,3.04-.13,5.42-1.21,7.16-3.23l-.16-.73c.28.27.69.17,1.25-.28.58-.35.97-.55,1.29-.62.14-.36,1.96-1.53,5.43-3.61-1.52-3.38-3.3-8.46-5.38-15.33l-1.05-1.3c-.32-.47-.54-.97-.66-1.49-.57-.09-1.43-.01-2.36.2l-2.29.51.42.89.24.6-1.8-1.68c-.52.12-1.44.43-2.72,1.04-1.62.58-2.56.79-2.82.63l-.35.4c-.52.12-1.4.09-2.46-.22l-.22.49c-.31.07-.67-.07-1.08-.42-.59-.2-.95-.34-1.05-.31-.12-.52-.31-.91-.67-1.05-.52.12-.86.08-1.24-.16-.05-.21-1.15-.73-3.41-1.54-1.32-2-1.26-4.2.12-6.37,2.09-.46,3.5-1,4.32-1.73.31-.07.44.01.46.11s.15.19.36.14c.72-.71,2.51-1.98,5.49-3.85,2.63-1.46,4.51-2.86,5.42-4.16.89.57,1.52.43,1.88-.42-.07-.31-.02-1.09.24-2.35-.25-1.15-.41-2.32-.58-3.59-.31-1.9-.8-3.1-1.44-3.51-4.51,1.88-7.04,2.77-7.63,2.57l-.35.4c-.42.09-.86.08-1.19.05-.34-.04-.75.06-1.27.17l-1.15.26c-.42.09-.81.29-1.29.61-.73.16-1.71.16-2.77-.15.07.31-.12.46-.64.58-.07-.31-.3-.37-.8-.15-.54.01-.93-.23-1.02-.65l-1.04.23c-.42.09-.99,0-1.73-.38-.64-.41-1.12-.63-1.33-.58-.05-.21-.07-.31-.17-.29s-.23-.06-.3-.37c-.24.38-.53.55-1.06.67-.42.09-.81.29-1.08.57l.19.83c-.31.07-.68.37-.93.75-.61.68-.86,1.07-.94,1.19-.36.85-1.17,2.12-2.28,4.01-.41.64-1.31,1.49-2.61,2.55l-2.92,2.62c-.1.02-.39.2-1.1.46-.71.27-1,.44-1.1.46-.07-.31-.2-.39-.3-.37s-.13-.08-.17-.29c-1.36,1.29-2.36,1.18-3.19-.06-.31.07-.58.35-.82.73-.24.38-.51.66-.82.73-.39-1.77-.71-2.69-1.07-2.83-.28-.27-1.03-.21-2.28.07-.36-.14-.56-.53-.72-1.26-.14-.63-.34-1.02-.7-1.16-.28-.27-.49-.22-.47.32-.03.34-.2.59-.41.64-.28-1.25-.1-1.95.62-2.11-.16-.73-.06-1.74.25-2.79l3.82-6.43c1.68-2.78,3.16-4.97,4.26-6.42,4.38-7.86,7.9-13.68,10.62-17.68,1.61-1.13,3.48-3.07,5.59-5.84,2.33-2.82,4.22-4.66,5.62-5.73,2.68-4.21,4.59-6.93,5.78-7.96-.43-.45-.29-.81.27-1.26.58-.35.8-.83.68-1.35,1.31-.51,2.73-1.48,4.48-2.97.28.27.82.25,1.55.09s1.27-.17,1.66.07c.42.89,1.56,1.62,3.44,2.19,1.88.57,3.06.96,3.57,1.29l1.88-.42c5.94,1.63,9.06,2.36,9.58,2.25l.28.27.3.37,1.04-.23,4.29,1.56c2.15.83,3.7,1.37,4.73,1.58.05.21.17.29.28.27s.13.08.2.39c1.19-.05,2.94.44,5.17,1.59,1.89,1.11,3.43,1.64,4.65,1.7,2.17,1.38,3.65,2.14,4.42,2.19.07.31.35.58.83.8.43.45.71.72.73.82.52-.12,1.17-.15,1.92-.21.54-.01,1.16.29,1.71.82.41.35.91.67,1.42,1l1.46-.32c2.71,2.35,3.88,4.17,3.64,5.54l-.1.02ZM205.59,542.12c-.51-2.29-1.69-3.67-3.67-4.22-1.24-2.13-3.27-2.88-6.08-2.26.03.65-.26,1.81-.79,3.35-.51,1.65-.75,3.01-.83,4.12-.14,1.34-.09,2.54.12,3.48l-.27.28-.37.3c-.22,2.46,1.12,4.56,3.8,6.27,1.15-.26,1.93-.65,2.44-1.31.31-.07.42-.09.44.01s.15.19.36.14c1.21-.49,2.13-1.24,2.7-2.13.57-.89,1.1-2.43,1.52-4.49.54-1.98.71-3.22.64-3.53Z"/>
        <path class="cls-9" d="M172.82,339.37c-1.37-1.01-2.81-1.79-4.5-2.14-1.69-.35-3.31-.3-4.99.01-3.11.57-5.78,2.47-7.49,5.1-.9,1.39-.18,3.58,1.27,4.29,1.64.8,3.32.21,4.29-1.27,0,0,0-.01,0-.01.02-.03.05-.07.07-.08.16-.2.34-.39.52-.57.03-.02.07-.07.11-.11.2-.14.39-.29.6-.42.2-.13.42-.24.63-.35.05-.02.1-.04.15-.06.47-.18.94-.29,1.42-.41.08,0,.16-.02.23-.03.26-.02.52-.03.78-.03.13,0,.26,0,.39,0,0,0,.02,0,.03,0,.16.02.36.05.43.06.25.05.5.11.75.18.07.02.13.04.2.06.2.1.4.18.6.29.23.13,1.07.72.19.08.7.52,1.35.88,2.26.85.77-.02,1.69-.4,2.2-1,1.01-1.17,1.28-3.42-.14-4.47Z"/>
        <path class="cls-12" d="M199.65,312.19c-.33-2.27-1.33-4.4-3.13-6.03-2.66-2.4-7.2-3.12-11.01-1.9-3.76,1.21-6.78,4.13-7.46,7.6-.4,2.03-.13,4.04.78,5.75.18,2.49,1.33,4.83,3.19,6.6,2.32,2.21,6.02,3.09,9.48,2.36.99.06,2.01-.05,2.95-.34.77-.24,1.57-.57,2.24-1.01.67-.45,1.36-.93,1.89-1.51.7-.77,1.19-1.42,1.61-2.3.43-.89.65-1.66.74-2.62.02-.25,0-.49-.02-.73-.06-.6-.12-1.21-.3-1.79-.06-.2-.15-.39-.23-.58,0-.97-.14-1.94-.48-2.87-.08-.21-.18-.41-.26-.62Z"/>
        <path class="cls-12" d="M209.25,279.94c-1.68-1.39-4.74-1.28-6.45.4-4.57,4.5-9.22,8.95-13.96,13.32-2.37,2.19-4.76,4.36-7.17,6.51-1.14,1.02-2.28,2.03-3.43,3.04-.88-1.57-3.26-2.31-5.24-1.73-2.53.74-3.76,2.99-3.32,5.09.82,3.93,4.26,9.12,9.82,6.09,2.03-1.11,3.75-2.99,5.43-4.47,1.65-1.45,3.28-2.91,4.91-4.38,6.6-5.94,13.04-12.02,19.32-18.21,1.7-1.68,1.84-4.21.07-5.66Z"/>
        <path class="cls-12" d="M147.1,315.73c-.72-2.02-2.55-3.38-4.47-2.82-1.5.44-2.63,2.2-2.44,3.97-1.19-.33-2.38-.66-3.57-1-2.52-.72-5.03-1.46-7.53-2.22-5.01-1.53-10.01-3.16-14.98-4.88-1.86-.64-3.81.71-4.2,2.7-.41,2.08.87,4.2,2.72,4.84,4.93,1.71,9.89,3.29,14.86,4.81-.02.02-.04.05-.07.07-1.3.98-1.9,2.67-2.13,4.41-.21.8-.29,1.65-.21,2.51.02.17.07.32.09.48,0,.07,0,.14,0,.2.15,2.93.99,5.81,2.48,8.34.32.54.68,1.07,1.07,1.57.57,1.31,1.46,2.46,2.71,3.2,1.82,1.09,3.88,1.17,5.58.21,2.09-.71,3.63-2.66,4.08-4.92.65-3.28.02-6.93-1-10.06-.24-.73-.79-1.35-1.47-1.7-.29-.45-.6-.88-.93-1.28.23.06.45.13.68.19,1.75.48,3.7,1.29,5.49,1.29,4.89-.01,4.57-6.12,3.23-9.89Z"/>
        <path class="cls-5" d="M166.8,320.34c-.05-.02-.05-.02-.07-.02-.04-.02-.08-.03-.11-.05-.09-.04-.24-.11-.35-.19-.02-.01-.01-.01-.05-.04-.07-.06-.14-.12-.2-.18-.08-.07-.24-.2-.32-.32,0,0,0,0-.01-.01-.05-.07-.11-.15-.16-.22-.08-.11-.15-.23-.22-.35-.08-.14-.22-.33-.26-.49.1.24.12.27.04.07-.03-.09-.06-.17-.09-.26-.06-.19-.12-.37-.17-.56-.01-.05-.08-.4-.1-.47-.05-.38-.08-.77-.09-1.15-.03-.96.05-1.91.13-2.86.08-.96-.94-1.87-1.87-1.81-1.08.06-1.73.84-1.81,1.87-.18,2.12-.3,4.4.53,6.41.82,1.98,2.23,3.56,4.32,4.22.92.29,2.04-.4,2.23-1.34.21-1.03-.36-1.92-1.34-2.23Z"/>
        <path class="cls-12" d="M202.02,355.98c-.07.79-.78,1.16-1.47,1.97-11.61,13.76-30.41,26.27-49.83,21.03-3.42-.92-3.18-6.06.31-5.51,31.98,5.04,39.26-21.63,46.33-23.05.99-.2,1.79.1,2.36.65.78.36,1.45.92,1.89,1.65.75.88.96,2.24.42,3.27Z"/>
        <g>
          <path class="cls-21" d="M452.82,348.2c6.45-12.41,10.11-26.5,10.11-41.45,0-27.95-12.73-52.93-32.71-69.46h-114.78c-19.98,16.53-32.71,41.51-32.71,69.46,0,14.95,3.66,29.04,10.11,41.45-47.81,27.67-80,79.32-80,138.53,0,88.36,71.63,159.99,159.99,159.99s159.99-71.63,159.99-159.99c0-59.21-32.19-110.87-80-138.53Z"/>
          <path class="cls-14" d="M447.22,285.1c1.27,12.25-.72,24.6-3.27,36.64-1.53,7.25-7.98,21.72-25.99,33.31-15.54,10-35.75,11.04-54.06,8.59-18.31-2.44-36.02-11.22-47.77-25.48-11.75-14.26-16.98-34.11-12.19-51.95,3.88-14.44,14.23-27.02,27.66-33.6,11.88-5.82,25.47-6.97,38.69-7.2,18.12-.32,40.05-1.12,57.55,4.24,12.51,3.83,18.21,24.11,19.39,35.44Z"/>
          <path class="cls-13" d="M427.74,238.7c-21.56,12.65-54.9,11.34-54.9,11.34,0,0-34.57,1.36-56.07-12.05l-1.79-1.17s49.76-36.2,47.52-76.95h20.69c-2.24,40.75,47.52,76.95,47.52,76.95l-2.96,1.88Z"/>
          <path class="cls-13" d="M410.49,480.61c.11,0,.31.12.61.45.53.03.74-.07.76-.39l.9,1.1c.52.13,1.14.37,1.55.6.62.24.93.36,1.24.48.21.11.31.12.42.13-.02.42.07.64.39.65.74.04,1.26.17,1.78.4.31.12.82.46,1.54.92.1.11.41.23.72.46.31.23.62.35.82.46-.03.53.07.74.28.75l.95.05c.4.44.49.76.27.96-.22.2-.34.51-.37,1.04-.01.21.19.33.62.35l.77-.6c-.01.21.2.33.62.35-.02.32.17.85.56,1.4.21.01.42.13.62.35.3.23.52.24.74.04-.02.32.17.75.58,1.08.41.23.61.45.6.66l.74.04,1.77,2.62,2.09,2.64c.49.66.99,1.32,1.69,2.09.78,1.41.71,2.78-.2,4.11-.33.3-1.3.67-2.7,1.13-.53-.03-1.6.34-3.02,1.22-.54.18-.67.71-.61,1.66-.02.32-.03.53-.04.84.09.22.08.43.18.54l-.02.32c-.63-.03-1.26-.06-2-.21-1.05-.16-1.78-.3-2.29-.64.03-.53-.07-.74-.28-.75-.53-.03-.84-.15-1.04-.37-.01.21-.23.3-.65.28-2.24-1.7-4.09-2.63-5.45-2.91.03-.53-.07-.74-.28-.75l-.44.4c-.21-.01-.42-.13-.61-.45l-.6-.66-.63-.03c-.92-.68-2.14-1.48-3.68-2.4-1.13-.59-2.17-1.06-3.09-1.63-1.73-1.25-2.55-1.92-2.53-2.13-.01.21-.23.31-.75.28-.4-.44-.91-.79-1.42-1.13-.82-.57-1.43-1.02-1.72-1.46l-.34.41c-3.25-2.59-5.08-4.05-5.38-4.39l-.74-.04c-1.09-1.43-2.32-2.23-3.47-2.5-.21-.01-.51-.34-1-1.1-.39-.65-.8-.89-1.23-.7l-2-.1c-.22.2-.38,1.25-.47,3.04l.28.65c-.22.2-.35.72-.4,1.67.17.85.22,2.02.14,3.6-.07,1.47-.02,2.53.16,3.18.37.97.54,1.82.52,2.35.28.65.34,1.6.28,2.76l-.14,2.74c-.01.21.2.33.62.35l-.33.3c.21.01.41.23.6.66l.28.75-.1,2c-.05.95.03,1.59.22,2.02-.21-.01-.33.2-.35.72-.02.42-.14.63-.35.62.2.22.29.54.26,1.07-1.08,2.59-1.89,4.13-2.24,4.64l-.05.95-.3-.33c-.22.2-.54.29-.96.27-.21-.01-.43.19-.67.71-.45.51-.67.81-.79.91l-2.05.95c-.43.19-1.27.04-2.62-.45-.22.2-.44.29-.65.28-2.48-1.07-4.12-2.21-4.8-3.3.02-.32-.08-.53-.27-.86-.3-.44-.49-.76-.59-.87-.2-.22-.3-.44-.28-.65-.29-.44-.47-1.18-.63-2.25-.16-1.06-.23-1.81-.21-2.23l-.36-11.85c0-.1.01-.21.03-.53-.09-.32-.17-.75-.14-1.49-.17-.75-.14-1.38-.21-2.12-.19-2.65-.3-4.56-.24-5.71l.26-1.04c.12-.31.14-.73.17-1.26.02-.32-.19-.43-.61-.45.24-.62.47-3.14.7-7.67l.1-2.11.33-.3-.3-.33.33-.3c-.5-.55-.81-.78-.91-.79-1.2.68-2.52,1.88-4.19,3.59-.56.71-1.34,1.41-2.12,2.22-.78.8-1.22,1.21-1.33,1.31l.3.33c-2.2,1.79-4.02,4.34-5.34,7.55-.01.21-.23.3-.65.28-.42-.02-.64.07-.65.29l.28.75c-.11,0-.54.18-1.08.58l-.03.63c-4.03,4.66-6.4,7.6-6.99,8.84-.02.32-.24.52-.78.81-.44.29-.77.6-1.01,1.11-.47.93-1.14,1.63-2.12,2.22l-.63-.03c-.21-.01-.33.2-.35.72-.95-.05-1.48.03-1.7.23l-.3-.33-.33.3-.33.3-.32-.02.02-.32.02-.32-.42-.02-.33.3-.33.3c-1.36-.28-2.16-1.16-2.5-2.77-.66.6-1.18.47-1.66-.51-.33-1.81-.41-4.56-.21-8.46.42.02.64-.07.65-.28-.21-.01-.29-.44-.25-1.39.43-.08.63.14.72.46l4.15-4.86c.12-.31.46-.82.91-1.33l1.24-1.52c.56-.71.89-1.01,1.01-1.11l.03-.63c.76-.49,1.44-1.3,2.13-2.43.69-1.13,1.36-1.94,2.13-2.43-.21-.01-.33.2-.35.62l.3.33c1.19-.57,2.52-1.78,3.99-3.71,1.57-1.82,2.58-2.94,3.02-3.34.44-.4.57-.92.4-1.67l-.3-.33-1.1.9c.54-.29.99-.69,1.54-1.3.22-.2.55-.5.89-.8.34-.41.67-.71.78-.81l.29.44c1.05-1.95,2.26-3.06,3.43-3.21.21.01.33-.2.35-.72-.19-.43-.94-.26-2.35.62l-.63-.03.45-.51.22-.2c-.8-.88-1.44-.81-2.02.22-.02.32.19.43.72.46-.22.2-.54.29-1.07.26l.33-.3c-.18-.54-1.03-.58-2.63-.13-.01.21.2.33.72.35-1.37-.07-2.22.1-2.67.5-.04.74-.16,1.05-.47,1.03-.42-.02-1.06.16-1.93.54-.53-.03-1.36-.28-2.71-.77l-.33.3c-.2-.22-.72-.46-1.44-.71-.83-.36-1.44-.81-1.74-1.14-.4-.44-.62-.35-.65.28l.33-.3-1-1.11-.63-.03-.7-.77c-.1-.11-.19-.43-.48-.98l-.74-.04-.85-2.05c.22-.2.34-.4.35-.61l-1.6-1.77c-.3-.33.05-.95.84-1.97.68-.92,2.86-2.29,6.44-4.12.33-.3.67-.71.9-1.01.34-.41.77-.7,1.1-.9l.77-.7.74.04c4.68-2.72,9.2-4.4,13.77-5.02-.01.21-.12.31-.33.3l-.53-.03-.42-.02-.02.32c-.01.21.62.35,1.88.41,1.83-.65,4.18-1.17,7.06-1.76,2.45-.51,4.7-1.03,6.73-1.57-.2-.22-.28-.75-.13-1.7l.04-.74c.12-.31.13-.52.24-.62,0-.11.01-.21.02-.32l.66-.6c-.21-.01-.3-.23-.28-.75,0-.1.13-.42.25-.83.13-.42.35-.72.46-.82.53.03.74-.07.75-.28l-.3-.33c-.32-.02-.31-.12-.09-.32.55-.5,1.01-1.22,1.49-2.36.37-1.04.94-1.86,1.61-2.56.56-.71,1.41-.78,2.55-.3l.33-.3.59.77c.42.02.64-.07.65-.39l.7.78c1.05.05,1.97.73,2.85,2.15.59.87.64,2.04.15,3.39l.3.33c-.47.93-.72,1.65-.73,1.97s.3.44.93.47l-.03.63c-.02.42.07.64.28.65-.21-.01-.33.2-.35.72.4.44.81.67,1.34.7,1.19-.57,2.04-.64,2.65-.18l.66-.6c.41.23,1.67.4,3.67.5.95.05,2.64.02,5.28-.06,2.65-.18,4.65-.09,5.9.29.93.47,1.55.71,1.97.73l.33-.2.32-.09c1.65.71,3.32,1.12,4.9,1.19l.77-.6c.11,0,.52.13,1.14.37.52.24.84.15,1.17-.26.2.22.51.45,1.02.68.51.34.92.57,1.12.79l1.37.07c.42.02,1.04.26,1.76.72.92.57,1.54.82,1.75.83,2.23,1.8,3.65,3.03,4.15,3.59.5.55,1.39,1.76,2.47,3.5.48.97.56,1.51.23,1.7-.01.21-.12.31-.33.3s-.32.09-.33.3c.29,2.76-.76,4.61-3.24,5.65l-.63-.03c-.11.1-.22.2-.55.4l-.65.39c-.54.29-.97.48-1.2.79-.02.42-.14.63-.35.62-.53-.03-1.39.25-2.37.94-1.19.57-2.05.85-2.68.82.02-.42-.07-.64-.39-.65-.41-.23-.93-.36-1.56-.4s-1.05-.16-1.35-.49c-.33.3-.55.4-.65.39l-.3-.44c-.33.3-.86.38-1.71.34l-.3-.44c-.03.53-.45.61-1.18.36-.62-.35-1.14-.48-1.45-.49.02-.42-.07-.64-.28-.65-.01.21-.23.3-.65.28-.53-.03-.74.07-.75.28.01-.21-.2-.33-.41-.34l-.33.3-.3-.33-.33.3c.01-.21-.2-.33-.72-.35-.22.2-.44.29-.65.28-.41-.23-1.56-.39-3.57-.49-.33.2-.54.29-.75.28s-.31-.12-.4-.44l-.18-.54-1,.9c-.32-.02-.52-.13-.72-.35-.21-.01-.32.09-.33.2s-.11.1-.32.09l-.51-.34c-.31-.23-.52-.24-.74-.04.41.23,1.27-.04,2.68-.82-.71-.56-3.02-.89-6.92-1.08-.21-.01-.33.3-.37,1.04l-.3-.33-.44.29-.33.3-.63-.03c-.23.3-.55.39-.87.48-.22.09-.64.18-1.17.26-.53.08-.85.17-.96.16l.34-.41c.01-.21-.2-.33-.62-.35-.33.3-.45.61-.47,1.03-.65.39-1.37,2.04-2.15,4.96l.28.65c-.22.2-.35.62-.38,1.35.1.11.18.54.05,1.06-.12.31-.14.63-.15.94.29.54.91.78,1.86.83,3.72-.55,10.83.96,21.32,4.44.11,0,.52.24,1.02.68.4.44.71.67.92.68h-.21Z"/>
          <g>
            <path class="cls-1" d="M355.3,278.29c.7-1.51.34-3.93-1.44-4.6-4.21-1.58-8.58-1.86-12.96-.79-4.02.99-7.82,3.26-10.55,6.37-1.17,1.34-1.26,3.6.17,4.82,1.37,1.17,3.56,1.27,4.82-.17.46-.52.96-.99,1.46-1.46,0,0,.09-.08.18-.17.06-.06.12-.11.17-.16-.06.06-.1.1-.15.14.05-.04.09-.08.13-.11.17-.13.34-.25.51-.38.35-.24.7-.48,1.07-.69.37-.22.74-.42,1.12-.62,0,0,0,0,.01,0,.12-.01.36-.17.45-.2.79-.33,1.6-.59,2.42-.81.22-.06.94-.1,1.11-.24,0,0,0,0,.01,0,.21-.03.42-.06.63-.08.85-.09,1.7-.12,2.55-.1.14,0,.28.01.42.02.06,0,.12.01.18.02.42.05.84.12,1.26.2.38.08.76.16,1.14.27.21.06.41.12.61.18.23.07,1.05.38.05,0,.88.33,1.66.52,2.6.23.8-.25,1.64-.9,2-1.67Z"/>
            <path class="cls-1" d="M336.8,282.47s.06-.05.21-.19c0,0-.02.02-.03.02-.06.06-.12.11-.18.17Z"/>
          </g>
          <path class="cls-1" d="M426.33,275.17c-7.63-3.61-16.37-4.54-24.64-2.93-1.81.35-2.96,2.34-2.56,4.09.42,1.85,2.28,2.91,4.09,2.56,7.09-1.38,14.29-.4,21.01,2.77,1.67.79,3.78-.61,4.29-2.2.62-1.94-.53-3.5-2.2-4.29Z"/>
          <path class="cls-3" d="M416.13,285.99c-3.77.3-7.51.84-11.21,1.59-.91-.02-1.87.41-2.33,1.17,0,0,0,.01,0,.02-.43.57-.65,1.29-.48,2.03.21.91.86,1.67,1.69,2.01,2.5,1.94,5.07,3.78,7.72,5.5,1.17.76,2.94.52,3.7-.72.74-1.22.53-2.88-.72-3.7-1.01-.66-1.99-1.35-2.98-2.03,1.85-.26,3.71-.47,5.58-.62,1.39-.11,2.44-1.79,2.14-3.1-.35-1.53-1.61-2.26-3.1-2.14Z"/>
          <path class="cls-3" d="M354.44,289.12c-.71-.68-1.55-.87-2.49-.94-1.09-.09-2.19-.16-3.28-.24-2.19-.16-4.38-.32-6.56-.47-.63-.05-1.44.41-1.85.86-.44.48-.76,1.25-.7,1.91.06.69.32,1.39.86,1.85.57.48,1.17.65,1.91.7,1.28.09,2.56.18,3.83.28-1.47,1.07-2.96,2.11-4.48,3.11-1.16.76-1.64,2.5-.8,3.68.82,1.17,2.43,1.62,3.68.8,1.76-1.15,3.48-2.35,5.17-3.6.84-.62,1.68-1.26,2.5-1.91.41-.32.82-.65,1.23-.98.59-.48,1.19-.89,1.55-1.58.6-1.15.36-2.57-.57-3.47Z"/>
          <path class="cls-6" d="M385.99,289.8c-.73-1.27-1.72-2.42-2.85-3.34-1.21-.98-2.73-1.92-4.28-2.24-1.91-.39-3.65.65-5.14,1.73-1.27.93-2.44,2.04-3.41,3.28-.8,1.02-.84,2.62.24,3.49,1,.8,2.64.85,3.49-.24.36-.46.75-.91,1.16-1.32.11-.12.23-.23.35-.34.02-.01.07-.07.12-.11.08-.07.19-.16.21-.18.1-.08.2-.16.31-.24.46-.36.95-.69,1.46-.99.11-.07.22-.13.33-.19.02,0,.04.01.05.02.14.06.28.12.41.18.24.12.48.24.72.38.1.06.19.12.29.18,0,0,0,0,.01,0,.22.16.43.33.64.5.21.18.4.36.6.55.01.01.14.15.21.22.01.01.02.03.03.04.36.44.68.91.96,1.41.65,1.12,2.42,1.41,3.43.66,1.14-.85,1.35-2.23.66-3.43Z"/>
          <path class="cls-11" d="M404.87,330.29c1.99-3.09,3.63-6.37,4.71-9.89.67-2.17,1.99-5.54.25-7.34,0,0,0-.01,0-.02-.27-.43-.59-.66-.93-.79,0-.02.02-.05.03-.07-.43-.33-1-.5-1.65-.34-18.56,4.68-38.01,4.95-56.71.92-2.31-.5-2.89,3.13-.58,3.63.78.17,1.57.32,2.35.47.18.25.46.47.86.59,3.03.94,4.63,5.2,6.12,7.76,1.69,2.89,3.42,5.79,5.44,8.47,3.63,4.79,8.27,8.97,14.13,10.7,1.71.51,3.46.72,5.19.7.29.17.66.24,1.09.19,1.25-.17,2.47-.45,3.66-.81.19.03.4.03.64-.02,6.67-1.47,11.91-8.7,15.4-14.14ZM395.61,336.08c-.55.58-1.12,1.18-1.72,1.76-.11.05-.22.12-.34.2-2.14,1.57-4.48,2.65-7.02,3.24-4.01.68-8.16-.46-11.61-2.74-4.7-3.11-8-7.82-10.89-12.56-1.37-2.25-2.7-5.39-4.49-7.92,14.99,2.04,30.24,1.39,45.05-1.86.09.08.18.15.28.21.16-.05.32-.06.49-.04.26.03.52.21.67.42.02.03.04.07.06.11.32.27.52.7.54,1.11.02.44-.08.86-.25,1.26-.16.39-.38.75-.61,1.1-.03.04-.06.08-.09.13-.29.81-.59,1.6-.94,2.39-1.14,2.59-2.58,5.02-4.23,7.32-1.5,2.07-3.15,4.03-4.91,5.89Z"/>
        </g>
      </g>
    </g>
  </g>
</svg>