<?xml version="1.0" encoding="UTF-8"?>
<svg id="_圖層_2" data-name="圖層 2" xmlns="http://www.w3.org/2000/svg" width="182.23" height="265.71" viewBox="0 0 182.23 265.71">
  <defs>
    <style>
      .cls-1 {
        fill: #fff;
      }
    </style>
  </defs>
  <g id="icon">
    <g>
      <g>
        <g>
          <path class="cls-1" d="M23.08,89.23c-5.98.89-9.3,1.29-9.94,1.19-.22-.02-.52-.12-.89-.3-.49,2.3-1.06,4.13-1.71,5.49-.42.84-1.39,2.4-2.89,4.67-.62.91-1.66,1.79-3.12,2.63-.4.22-.73.33-1,.33-.45,0-.54-.25-.3-.74l1.78-4.41c.52-1.31,1.09-3.45,1.71-6.42.59-2.79.96-5.01,1.11-6.64.3-3.14.44-5.57.44-7.31,0-.77-.13-1.61-.39-2.52-.26-.91-.39-1.57-.39-1.97,0-.91.26-1.27.78-1.08.64.22,1.3.45,1.97.67.82.32,1.47.67,1.97,1.04,4.89-2.47,8.41-3.72,10.53-3.75,1.01-.02,2.29.48,3.82,1.52,1.46.96,2.31,1.78,2.56,2.45.1.27.15.54.15.82,0,.79-.33,1.27-1,1.45,0,.05.01.77.04,2.15.05,1.56.07,2.55.07,2.97l.3,17.28v.82c.02.32.04.59.04.82,0,1.85-.66,2.93-1.97,3.23-.3.07-.59.11-.89.11-.99,0-2.04-.46-3.15-1.37-.91-.87-1.83-1.73-2.74-2.6-1.06-.99-2.13-1.98-3.19-2.97-1.33-1.31-2.57-2.67-3.71-4.08-.12-.15-.19-.3-.19-.45,0-.35.23-.52.7-.52.12,0,.21.02.26.07,1.36,1.09,2.72,2.18,4.08,3.26,1.78,1.33,3.19,2.04,4.23,2.11.02,0,.09.02.2.06.11.04.19.06.24.06.2,0,.31-.2.33-.59.07-.94.12-3.44.15-7.49ZM12.85,86.97c2.6-.37,5.35-.91,8.27-1.63l.56-.37c.49.05.96.14,1.41.26,0-.74-.01-2.08-.04-4-2.25.47-5.49,1.17-9.72,2.11-.12,1.21-.29,2.42-.48,3.63ZM13.66,79.48c1.85-.45,4.54-1.11,8.05-2-.07,0,.06-.12.41-.37.3-.02.59,0,.89.07-.03-.69-.04-1.14-.04-1.33-.05-1.53-.2-2.34-.44-2.41-3.07.59-6.02,1.66-8.86,3.19.05.74.05,1.69,0,2.86Z"/>
          <path class="cls-1" d="M1.81,128.38c2.55-.72,5.85-1.51,9.9-2.37.3-.82.51-1.54.63-2.19.05-.35.1-.72.15-1.11-2.1.42-3.42.67-3.97.74-.92.15-2-.07-3.26-.67-.94-.44-1.41-.94-1.41-1.48,0-.15.05-.27.15-.37.32-.32,1.1-.65,2.34-1,1.66-.45,3.84-.96,6.56-1.56.02-.47-.03-1-.15-1.58-.12-.58-.19-1.01-.19-1.28,0-.79.56-1.13,1.67-1,.62.07,1.32.4,2.11.98s1.4,1.19,1.82,1.84c.91-.15,1.67-.23,2.26-.26.35-.02.68-.16,1-.41.32-.25.54-.37.67-.37.72,0,1.89.4,3.52,1.19.79-.87,1.24-1.37,1.33-1.52.45-.62.83-.93,1.15-.93.49,0,1.13.4,1.89,1.19.77.79,1.21,1.43,1.33,1.93.1.4-.15.82-.74,1.26-.89.94-2.4,2.52-4.52,4.75,1.41.12,2.86.56,4.34,1.3,1.48.74,2.14,1.36,1.97,1.85-.44,1.29-1.16,1.93-2.15,1.93-.42,0-.88-.09-1.37-.26-1.41-.49-3.75-.67-7.01-.52-3.07,3.14-5.27,5.33-6.6,6.56.52.57.9,1.08,1.15,1.52,1.66-1.24,3.16-2.56,4.52-3.97,1.06-1.11,1.64-1.8,1.74-2.08v-.82c.05-.4.26-.53.63-.41.49.12,1.19.52,2.08,1.19,1.04.74,1.53,1.31,1.48,1.71-.07.62-.33,1.14-.78,1.56-.54.57-1.07,1.13-1.59,1.67-.94.94-1.82,1.62-2.63,2.04-.82.42-1.64.85-2.49,1.3-.96.47-1.9.77-2.82.89-.12,1.58-.04,2.55.26,2.89.2.2,1.03.3,2.49.3,1.53,0,3.09-.1,4.67-.3,1.73-.22,2.71-.48,2.93-.76.22-.28.32-1.7.3-4.25,0-.62.12-.93.37-.93.3,0,.52.25.67.74.2.67.52,1.66.96,2.97.1.3.59.8,1.48,1.52.74.64,1.11,1.32,1.11,2.04,0,.22-.03.45-.07.67-.27,1.19-1.66,1.97-4.15,2.34-1.46.22-3.66.31-6.6.26-2.28-.03-3.82-.15-4.64-.37-1.26-.32-2.39-1.06-3.37-2.23-.87-.99-1.22-3.21-1.08-6.68-1.04.89-2.78,2.23-5.23,4.01-.89.57-1.68.99-2.37,1.26-.77.32-1.31.58-1.63.78-.96.57-1.73.72-2.3.44-.57-.3-.38-.82.56-1.56.87-.69,1.87-1.61,3-2.74,1.31-1.33,2.64-2.68,3.99-4.04,1.35-1.36,3.55-3.62,6.62-6.79l-.3.04c-.67.12-2.55.59-5.64,1.41-2.74.77-4.34,1.15-4.78,1.15-.52,0-1.2-.25-2.04-.74-.91-.54-1.37-1.06-1.37-1.56,0-.47.48-.84,1.45-1.11ZM17.53,125.04l1.04-.15,3.82-4c-.92.12-2.26.35-4.04.67-.15,1.46-.42,2.62-.82,3.49Z"/>
          <path class="cls-1" d="M26.41,185.42c-1.21.15-2.02.19-2.41.11-.17-.02-.35-.07-.52-.15-.27,3.09-.66,5.15-1.15,6.19-.37.79-.85,1.53-1.45,2.23-.79.87-1.51,1.3-2.15,1.3-.25,0-.37-.11-.37-.33,0-.12.04-.27.11-.44.32-.77.61-2.02.85-3.75h-1.37c-.69.02-1.74.14-3.15.33,0,1.66-.06,2.71-.17,3.17-.11.46-.42.82-.93,1.09-.51.27-.97.41-1.39.41-.2,0-.31-.04-.33-.11-.15-.32-.22-1.16-.22-2.52,0-.27.02-.79.07-1.56-1.63.27-2.57.41-2.82.41-.27,0-.69-.2-1.24-.61-.56-.41-.83-.75-.83-1.02,0-.32.16-.53.48-.63.99-.3,2.5-.63,4.52-1v-1.33l-.19.04c-.22.42-.63.63-1.22.63-.2,0-.42-.05-.67-.15-.25-.1-.78-.79-1.59-2.08-.1-.15-.22-.63-.37-1.45-.2-.91-.31-1.71-.33-2.37-.07.54-.17,1.14-.3,1.78-.72,4.4-1.58,7.28-2.6,8.64-1.01,1.36-1.84,2.16-2.49,2.41-.84.3-1.3.33-1.37.11-.03-.1.07-.56.3-1.37.37-1.36.71-2.92,1.02-4.67.31-1.75.66-3.94,1.06-6.56.62-4.67.87-7.97.74-9.9-.69-.57-.99-1.05-.89-1.45.12-.44,1.14-.96,3.04-1.56,1.53-.52,4.18-1.11,7.94-1.78-.05-.37-.21-.68-.48-.93-.37-.35-.57-.52-.59-.52-.17-.27-.26-.56-.26-.85,0-1.06.65-1.59,1.97-1.59,1.06,0,2.24.32,3.52.96,1.29.64,2.05,1.3,2.3,1.97,2.23-.25,4.19-.36,5.9-.33.25-.1.52-.19.82-.26.87.25,1.76.67,2.67,1.26,1.14.77,1.71,1.46,1.71,2.08,0,.17-.05.33-.15.48-.4.64-.92.96-1.56.96-.3,0-.88-.12-1.76-.35-.88-.23-1.61-.35-2.21-.35-3.66.02-7.95.59-12.87,1.71,1.36.74,2.01,1.36,1.97,1.85-.03.12-.04.27-.04.44.37-.1.62-.15.74-.15.3-.07.68-.03,1.15.13.47.16.95.33,1.45.5.35.1.52.31.52.63,0,.27-.11.57-.33.91s-.73.56-1.52.69c-.52.07-1.19.22-2,.44v1.15c.47-.1.79-.12.96-.07.62.17,1.3.48,2.06.93.75.44,1.19.8,1.32,1.08.25.64.36,1.11.33,1.41-.07.89-.39,1.95-.95,3.17-.56,1.22-.97,1.86-1.24,1.91-.72.12-1.1.17-1.15.15-.17-.05-.35-.15-.52-.3-.37.03-.8.07-1.3.15.22.22.35.68.37,1.37l1.15-.15c.15-.02.37-.11.67-.26.22-.1.4-.14.52-.11.32.12,1.11.58,2.37,1.37.3-2.42.52-5.17.67-8.23.12-2.77.15-4.75.07-5.93,0-.2-.14-.51-.41-.93-.1-.12-.11-.31-.04-.56.1-.22.21-.32.33-.3.44.1.96.32,1.56.67,2.35-1.31,3.82-2.01,4.41-2.11.15-.07.3-.15.45-.22.2-.07.41-.06.63.04.49.2.99.4,1.48.59.74.35,1.2.72,1.37,1.11.1.3.14.67.11,1.11-.05.82-.07,1.15-.07,1,0,12.21,0,18.28,0,18.21-.12,1.26-.47,1.92-1.04,1.97-1.06.07-1.77-.18-2.11-.76-.35-.58-.89-1.44-1.63-2.58-.32-.32-.89-1.05-1.71-2.19-.17-.27-.22-.51-.15-.7.05-.2.15-.23.3-.11,1.58,1.48,2.4,2.23,2.45,2.23s.07-.03.07-.07c.07-.64.11-2.56.11-5.75ZM11.99,174.89v-1.19s-.1-.27-.3-.89c-.07-.22.04-.52.33-.89-1.01.32-2.57.72-4.67,1.19.47.42.74.88.82,1.37.05.22.06.78.04,1.67.84-.32,2.1-.74,3.78-1.26ZM8.65,180.56c.15-.1.79-.26,1.93-.48.82-.15,1.24-.45,1.26-.89l.04-1.08-1.11.33c-.12.03-.26.04-.41.04-.67,0-1.43-.2-2.3-.59-.05.67-.14,1.43-.26,2.3.07-.1.17-.11.3-.04.17.12.36.26.56.41ZM15.07,184.53c.77-1.53,1.15-2.84,1.15-3.93-.03-.4-.21-.57-.56-.52-.82.07-2.67.64-5.56,1.71.05.07.15.35.3.82.69-.2,1.62-.46,2.78-.78.02,0,.12-.04.28-.13.16-.09.29-.12.39-.09.25.12.49.24.74.33.35.17.54.35.59.52.07.2.06.43-.06.69-.11.26-.29.4-.54.43l-3.63.82c.1.35.19.64.26.89.52-.07,1.8-.32,3.86-.74ZM23.82,177.26c1.26-.3,2.09-.51,2.48-.63-.03-1.11-.06-1.8-.09-2.06-.04-.26-.16-.38-.35-.35-.4.05-1.15.41-2.26,1.08.15.3.22.95.22,1.97ZM23.67,182.97c.96-.1,1.78-.25,2.45-.44.07-.02.16-.04.26-.04v-2.82c-1.16.22-2.03.37-2.6.44-.02.96-.06,1.92-.11,2.86Z"/>
        </g>
        <g>
          <path class="cls-1" d="M169.78,96.33l-9.68.92h-.15c-.42.44-.96.66-1.62.66-.22,0-.44-.03-.66-.07-.66-.17-1.37-.87-2.13-2.1-.61-.96-1.03-1.82-1.25-2.58-.37-1.32-.82-4.31-1.36-8.94-.56-4.76-.8-7.91-.7-9.46-.1-.44-.17-1.08-.22-1.91.15-.83.44-1.18.88-1.03.78.22,1.52.54,2.21.96,6.23-2.26,11.24-3.39,15.01-3.39.61,0,1.18.04,1.69.11.81.12,2,.99,3.57,2.61,1.64,1.69,2.65,3.23,3.02,4.6.05.15.07.27.07.37,0,.17-.09.37-.26.59-.17.22-.29.44-.37.66-.42,2.99-.85,5.99-1.29,8.98-.86,5.74-1.66,9.07-2.39,9.97-.32.37-.71.55-1.18.55-.51,0-1.31-.25-2.39-.74-.32-.15-.59-.4-.81-.77ZM157.15,75.87c.07.54.28,2.38.62,5.52,5.81-.88,9.83-1.36,12.03-1.44.54-.02,1.35.33,2.43,1.07.29-3.24.37-5.62.22-7.14-.05-.44-1.13-.66-3.24-.66s-4.53.38-7.4,1.14c-2.23.56-3.79,1.07-4.67,1.51ZM159.55,92.8c3.98-.44,7.45-.72,10.41-.85.76-1.79,1.38-4.31,1.88-7.54-.69-.12-1.16-.18-1.44-.18-1.33.03-5.36.58-12.11,1.66.44,3.51.86,5.81,1.25,6.92Z"/>
          <path class="cls-1" d="M171.42,132.7c-5.94.88-9.22,1.27-9.86,1.18-.22-.02-.52-.12-.88-.29-.49,2.28-1.05,4.1-1.69,5.45-.42.83-1.37,2.38-2.87,4.64-.61.91-1.64,1.78-3.09,2.61-.39.22-.72.33-.99.33-.44,0-.54-.25-.29-.74l1.77-4.38c.52-1.3,1.08-3.42,1.69-6.37.59-2.77.96-4.97,1.1-6.59.29-3.12.44-5.53.44-7.25,0-.76-.13-1.6-.39-2.5s-.39-1.56-.39-1.95c0-.91.26-1.26.77-1.07.64.22,1.29.44,1.95.66.81.32,1.46.66,1.95,1.03,4.86-2.45,8.34-3.69,10.45-3.72,1.01-.02,2.27.48,3.79,1.51,1.45.96,2.29,1.77,2.54,2.43.1.27.15.54.15.81,0,.79-.33,1.26-1,1.44,0,.05.01.76.04,2.13.05,1.55.07,2.53.07,2.94l.29,17.15v.81c.02.32.04.59.04.81,0,1.84-.65,2.91-1.95,3.2-.29.07-.59.11-.88.11-.98,0-2.02-.45-3.13-1.36-.91-.86-1.82-1.72-2.72-2.58-1.06-.98-2.11-1.96-3.16-2.94-1.33-1.3-2.55-2.65-3.68-4.05-.12-.15-.18-.29-.18-.44,0-.34.23-.52.7-.52.12,0,.21.03.26.07,1.35,1.08,2.7,2.16,4.05,3.24,1.77,1.33,3.16,2.02,4.2,2.1.02,0,.09.02.2.06.11.04.19.06.24.06.2,0,.31-.2.33-.59.07-.93.12-3.41.15-7.43ZM161.27,130.45c2.58-.37,5.31-.91,8.21-1.62l.55-.37c.49.05.96.14,1.4.26,0-.74-.01-2.06-.04-3.97-2.23.47-5.45,1.16-9.64,2.1-.12,1.2-.28,2.4-.48,3.61ZM162.08,123.02c1.84-.44,4.5-1.11,7.99-1.99-.07,0,.06-.12.4-.37.29-.02.59,0,.88.07-.03-.69-.04-1.13-.04-1.33-.05-1.52-.2-2.32-.44-2.39-3.04.59-5.97,1.64-8.79,3.16.05.74.05,1.68,0,2.83Z"/>
          <path class="cls-1" d="M154.59,178.62c-.27.03-.51.14-.72.33-.21.2-.41.39-.61.59-.05-.05-.09-.1-.11-.15,0-.12.04-.29.11-.5.07-.21.13-.35.18-.42-.59.1-1.23-.16-1.93-.77s-1.05-1.18-1.05-1.69c0-.15.04-.27.11-.37.27-.37.96-.86,2.08-1.49,1.12-.63,1.85-.93,2.19-.9,1,.05,1.75.11,2.24.18.91.17,1.53.45,1.88.85.61.69.92,1.37.92,2.06,0,.64-.38,1.09-1.14,1.36-1.06.49-2.44.8-4.16.92ZM151.79,189.33c.34.22.58.29.7.22.81-.52,2.26-2.45,4.34-5.81,1.96-3.19,2.96-4.77,2.98-4.75.12-.05.18,0,.18.15,0,.25-.16.77-.48,1.58-.42,1.05-.65,1.66-.7,1.8-.07.27-.11.54-.11.81,0,.25.16.86.48,1.84.07.25.11.54.11.88,0,1.15-.29,2.4-.88,3.75-.52,1.13-1.11,2.16-1.77,3.09-.56.79-.87,1.26-.92,1.44-.24.83-.69,1.25-1.32,1.25-.59,0-1.25-.33-1.99-.99-.66-.59-1.14-1.22-1.44-1.88-.12-.29-.18-.64-.18-1.03,0-.59.12-1.16.37-1.71.24-.55.45-.77.63-.64ZM156.17,169.49c-.22,0-.61.15-1.18.44-.03-.15,0-.41.07-.77.05-.2-.01-.34-.18-.44-.47-.2-.94-.6-1.42-1.22-.48-.61-.71-1.09-.68-1.44.05-.37.4-.73,1.07-1.1.66-.37,1.29-.58,1.88-.63,1.11-.12,2.39.26,3.87,1.14,1.59.93,2.32,1.93,2.17,2.98-.39.98-1.13,1.47-2.21,1.47-.37,0-.93-.07-1.67-.22-.75-.15-1.32-.22-1.71-.22ZM169.42,184.8c.05.37-.06.6-.33.7-.81.32-1.57.37-2.28.15-.34-.1-.72-.41-1.14-.92-.56-.64-.87-.98-.92-1.03-.22-.17-.53-.72-.94-1.66-.4-.93-.66-1.63-.75-2.1-.42-2.45-.47-3.7-.15-3.75.47-.05.81-.05,1.03,0,.51.1,1.08.33,1.69.7,3.7-1,6.24-1.59,7.62-1.77,1.84-.22,3.2-.16,4.09.18,2.23.86,3.35,1.62,3.35,2.28,0,.07-.02.15-.07.22-.22.25-.37.66-.44,1.25-.2,1.35-.59,2.65-1.18,3.9-.34.71-.6,1.19-.77,1.44-.34.52-.72.79-1.14.81-.81.02-1.51-.17-2.1-.59-.25-.02-.69-.06-1.33-.11h-.33c.52.64.8,1.2.85,1.69v.07c1.05-.12,1.78-.22,2.17-.29.39-.07.85-.24,1.36-.51,1.03.25,1.77.45,2.21.63.93.34,1.66.81,2.17,1.4.1.12.15.26.15.4,0,.27-.17.55-.5.83-.33.28-.68.42-1.05.42-.66-.02-1.72-.02-3.16,0-.27,0-1.35.12-3.24.37-.05,1.77-.18,3.18-.4,4.23-.15.69-.49,1.29-1.01,1.8-.53.51-1.12.77-1.78.77-.34,0-.63-.17-.85-.52-.12-.17-.26-.85-.4-2.02-.1-.78-.12-2.01-.07-3.68-3.12.39-4.86.58-5.23.55-.96-.07-1.83-.37-2.63-.88-.8-.51-1.2-.97-1.2-1.36,0-.2.12-.32.37-.37,1.15-.29,4.06-.71,8.72-1.25v-.07c0-.54-.06-1.18-.18-1.91h-.18ZM168.17,168.57c-.02-.49-.07-.93-.15-1.33-1.18.2-1.83.29-1.95.29-.66,0-1.28-.18-1.84-.55-.47-.29-.73-.56-.81-.81-.05-.29.2-.54.74-.74,1.35-.49,3.26-.94,5.74-1.36,2.36-.37,4.39-.59,6.11-.66l.66-.59c.44.07,1.15.37,2.13.88,1.13.61,1.77,1.13,1.91,1.55.07.27-.07.55-.44.83-.37.28-1.04.3-2.02.06-.15-.05-.5-.06-1.07-.04-.56,0-.86.02-.88.07,0,.12-.05.47-.15,1.03,1.5-.07,2.77.15,3.83.66,1.2.59,1.86,1.26,1.99,2.02.1.61-.02.98-.37,1.1-.27.54-.54,1.08-.81,1.62-.59,1.1-1.09,1.77-1.51,1.99-.78.39-1.37.56-1.77.52-1.08-.17-1.86-.59-2.35-1.25-1.67.1-4.23.5-7.69,1.22-.02.15-.07.29-.15.44-.12.27-.5.4-1.14.4-.54,0-.94-.07-1.22-.2-.27-.13-.61-.58-1.03-1.34-.34-.69-.71-1.03-1.11-1.03,0-.22-.02-.5-.07-.85-.47-1.25-.7-2.6-.7-4.05,0-.69.08-1.02.26-.99.64.1,1.27.31,1.91.62.79.37,1.23.75,1.33,1.14v.04c.71-.22,1.58-.45,2.61-.7ZM168.28,172.81c-.07-.59-.1-1.33-.07-2.21-.81.25-1.47.48-1.99.7.22.52.48,1.11.77,1.77.34-.07.77-.16,1.29-.26ZM166.99,178.8c.1.22.2.49.29.81,1.79-.34,3.59-.65,5.41-.92.42,0,.7-.02.85-.07.66.07,1.38.34,2.17.81.17-.42.27-.77.29-1.05.02-.28.06-.56.11-.83.02-.27-.02-.4-.15-.4-1.37-.07-3.64.26-6.81.99-.56.17-1.29.39-2.17.66ZM168.06,181.78c.15.29.28.6.4.92,1.62-.22,2.86-.38,3.72-.48.07,0,.18-.03.33-.09s.33-.08.55-.06c.22.03.58.11,1.07.26.44-.47.77-.98.99-1.55-.64-.12-1.04-.18-1.22-.18-.47.07-2.42.47-5.85,1.18ZM170.27,166.92c.27.29.5.64.7,1.03.71-.15,1.37-.27,1.99-.37.07-.47.12-.82.15-1.07-.88.12-1.83.26-2.83.41ZM171.26,169.79c.07.83.1,1.68.07,2.54l1.18-.18c-.07-.44-.01-1.31.18-2.61-.49.07-.97.16-1.44.26ZM175.82,169.31c-.17,1.08-.28,1.88-.33,2.39.74-.1,1.18-.16,1.33-.18.17,0,.34.04.52.11.54-.71.81-1.29.81-1.73,0-.15-.06-.26-.18-.33-.27-.2-.82-.28-1.66-.26h-.48Z"/>
        </g>
      </g>
      <g>
        <path class="cls-1" d="M67.38,78.68c-.86-.94-1.29-2.09-1.29-3.46,0-.66.16-1,.47-1,1.17-.08,2.35-.45,3.52-1.11-1.29-.51-1.98-1.78-2.05-3.81v-9.21c-.04-9.31-.08-13.79-.12-13.44.04-1.37.16-3.05.35-5.05.08-.31.35-.47.82-.47.66,0,1.39.22,2.17.65l.41.23c3.91-3.01,6.73-4.44,8.45-4.28,3.05.23,5.28,1.6,6.69,4.11.43.78.65,1.66.65,2.64,0,.51-.08.98-.23,1.41.04.12.14,2.15.29,6.1.12,4.34.18,7.9.18,10.68,0,2.58-.06,4.15-.18,4.69-.23.98-.98,1.68-2.23,2.11-1.02.39-2.07.55-3.17.47l-.06-.06-.06.12c-1.37,1.76-3.42,4.01-6.16,6.75-1.8,1.84-3.05,2.97-3.76,3.4-.39.23-.8.35-1.23.35-1.21,0-2.37-.61-3.46-1.82ZM79.99,51.45c0-2.82-.06-5.87-.18-9.15-.04-.12-.14-.18-.29-.18-.66,0-2.35.74-5.05,2.23.55.74.84,1.6.88,2.58.04.7.1,2.76.18,6.16,1.8-1.02,2.97-1.58,3.52-1.7.23-.04.55-.02.94.06ZM75.65,68.88c.94-.86,2.43-2.15,4.46-3.87-.04-.82-.08-3.56-.12-8.21-1.02.59-2.44,1.39-4.28,2.41.04,2.82.02,6.04-.06,9.68ZM106.34,61.96c-3.76,1.41-6.61,2.07-8.57,1.99-.31,2.78-.84,5.57-1.58,8.39-.59,2.27-1.06,3.72-1.41,4.34-1.02,1.8-1.72,2.99-2.11,3.58-.9,1.25-1.9,2.19-2.99,2.82-.78.43-1.35.65-1.7.65-.31,0-.47-.2-.47-.59,0-.27.1-.74.29-1.41.27-.86.43-1.37.47-1.53,1.49-6.77,2.44-15.2,2.87-25.29.27-6.61.41-10.87.41-12.79,0-2.46-.14-3.86-.41-4.2-.27-.33-.59-.83-.94-1.5-.08-1.17.33-1.76,1.23-1.76.55,0,1.42.2,2.61.59,1.19.39,1.98.74,2.38,1.06,4.85-2.27,8.39-3.38,10.62-3.34,1.29,0,2.7.31,4.22.94,1.68.7,2.66,1.49,2.93,2.35.12.35.18.7.18,1.06,0,.67-.24,1.44-.73,2.32-.49.88-.73,1.44-.73,1.67,0,1.96.04,6.04.12,12.26.04,1.88.2,6.55.47,14.02.23,6.57.33,10.39.29,11.44-.04,1.99-.12,3.23-.23,3.7-.27,1.09-.92,1.68-1.94,1.76-1.37.08-2.72-.37-4.05-1.35-.78-.55-1.46-1.47-2.02-2.76-.57-1.29-1.79-3.66-3.67-7.1-.55-1.06-.82-1.86-.82-2.41,0-.23.04-.35.12-.35.2,0,.49.25.88.76,2.46,3.05,3.79,4.58,3.99,4.58.12,0,.18-.1.18-.29.16-1.96.2-6.49.12-13.61ZM106.16,50.51c-3.29,1.21-5.91,1.86-7.86,1.94l-.23,5.93c2.27-.35,5.01-1.04,8.21-2.05-.04-1.99-.08-3.93-.12-5.81ZM98.41,46.82c2.23-.39,4.83-1.06,7.8-1.99.04-4.93-.02-7.39-.18-7.39-.86,0-3.44.84-7.74,2.52.12,1.41.16,3.7.12,6.86Z"/>
        <path class="cls-1" d="M98.58,122.4c-9.47,1.41-14.71,2.03-15.72,1.88-.35-.04-.82-.2-1.41-.47-.78,3.64-1.68,6.53-2.7,8.68-.67,1.33-2.19,3.79-4.58,7.39-.98,1.45-2.62,2.84-4.93,4.17-.63.35-1.15.53-1.58.53-.7,0-.86-.39-.47-1.17l2.82-6.98c.82-2.07,1.72-5.46,2.7-10.15.94-4.42,1.53-7.92,1.76-10.5.47-4.97.7-8.82.7-11.56,0-1.21-.21-2.54-.62-3.99-.41-1.45-.62-2.48-.62-3.11,0-1.45.41-2.01,1.23-1.7,1.02.35,2.05.7,3.11,1.06,1.29.51,2.33,1.06,3.11,1.64,7.74-3.91,13.3-5.89,16.66-5.93,1.6-.04,3.62.76,6.04,2.41,2.31,1.53,3.66,2.82,4.05,3.87.16.43.23.86.23,1.29,0,1.25-.53,2.01-1.58,2.29,0,.08.02,1.21.06,3.4.08,2.46.12,4.03.12,4.69l.47,27.34v1.29c.04.51.06.94.06,1.29,0,2.93-1.04,4.64-3.11,5.1-.47.12-.94.18-1.41.18-1.56,0-3.23-.72-4.99-2.17-1.45-1.37-2.89-2.74-4.34-4.11-1.68-1.56-3.36-3.13-5.05-4.69-2.11-2.07-4.07-4.22-5.87-6.45-.2-.23-.29-.47-.29-.7,0-.55.37-.82,1.11-.82.2,0,.33.04.41.12,2.15,1.72,4.3,3.44,6.45,5.16,2.82,2.11,5.05,3.23,6.69,3.34.04,0,.15.03.32.09.18.06.3.09.38.09.31,0,.49-.31.53-.94.12-1.49.2-5.44.23-11.85ZM82.38,118.82c4.11-.59,8.47-1.45,13.08-2.58l.88-.59c.78.08,1.53.22,2.23.41,0-1.17-.02-3.29-.06-6.34-3.56.74-8.68,1.86-15.37,3.34-.2,1.92-.45,3.83-.76,5.75ZM83.68,106.97c2.93-.7,7.18-1.76,12.73-3.17-.12,0,.1-.2.65-.59.47-.04.94,0,1.41.12-.04-1.09-.06-1.8-.06-2.11-.08-2.43-.31-3.7-.7-3.81-4.85.94-9.52,2.62-14.02,5.05.08,1.17.08,2.68,0,4.52Z"/>
        <path class="cls-1" d="M93.02,182.32c-.27.82-.61,1.53-1,2.11,3.68-.74,6.61-1.13,8.8-1.17h1.35c1.13.16,2.64,1.04,4.52,2.64,2.15,1.92,3.17,3.74,3.05,5.46-.12,1.13-1.23,3.07-3.34,5.81.94.63,1.45,1.43,1.53,2.41.04.78-.76,1.86-2.41,3.23-.39.31-1.66.45-3.81.41-1.41-.08-2.8-.14-4.17-.18-.74-.04-4.67.39-11.79,1.29-.51.82-1.25,1.23-2.23,1.23-.43,0-.86-.1-1.29-.29-4.3-1.96-7.8-6.71-10.5-14.26v.06c-.51-1.41-.76-2.66-.76-3.76,0-1.02.21-1.53.65-1.53,2.23-.04,4.13.76,5.69,2.41,1.25-.39,2.46-.74,3.64-1.06.94-.66,1.84-1.41,2.7-2.23-2.5-1.09-4.32-3.21-5.46-6.34-.7-1.92-1.08-3.83-1.11-5.75-.04-.86.05-1.67.26-2.43.22-.76.48-1.11.79-1.03.74.23,1.55.7,2.41,1.41,3.01-1.02,6.4-1.9,10.15-2.64,3.91-.78,6.73-1.1,8.45-.94l.35-.29c.98.08,1.97.53,2.99,1.35,1.06-.63,1.99-1.34,2.82-2.14.82-.8,1.23-1.38,1.23-1.73,0-.16-.1-.25-.29-.29-.59-.08-1.31-.12-2.17-.12-3.56,0-8.61.65-15.14,1.94-6.02,1.21-11.62,2.62-16.78,4.22,0,.23-.04.9-.12,1.99-.12,1.49-.43,2.82-.94,3.99-.23.59-.76,1-1.58,1.23-.67.2-1.17.22-1.53.06-.98-.47-1.87-1.53-2.67-3.17-.8-1.64-1.2-3.17-1.2-4.58,0-.47.06-.88.18-1.23,1.02-2.27,2.07-4.93,3.17-7.98.04-.39.23-.59.59-.59.63,0,1.33.39,2.11,1.17.78.78,1.31,1.53,1.58,2.23.16.47.29,1,.41,1.58,2.42-.63,6.82-1.72,13.2-3.29.16-.27.27-.53.35-.76-2.27-1.64-3.4-2.93-3.4-3.87,0-.51.37-.94,1.11-1.29.43-.2,1.35-.49,2.76-.88.51-.04,1.09-.06,1.76-.06,3.91,0,7.14,1.06,9.68,3.17.31.23.51.55.59.94,2.97-.35,5.61-.45,7.92-.29l.65-.35c.98-.12,2.8.61,5.46,2.17,2.86,1.72,4.24,3.31,4.17,4.75-.04.55-.41,1.21-1.11,1.99-.86,1.02-2.05,1.92-3.58,2.7-.78.39-1.55.59-2.29.59-.63,0-1.06-.12-1.29-.35-.55-.66-1.23-1.15-2.05-1.47-.63,0-1.55.16-2.76.47,1.02,1.02,1.53,1.98,1.53,2.87,0,.27-.06.48-.18.62-.12.14-.51.85-1.17,2.14-.78,1.49-1.66,2.74-2.64,3.76.23.2.37.37.41.53.08.35-.25.86-.97,1.53-.72.66-1.44,1.1-2.14,1.29-1.21.12-2.78.29-4.69.53l-.41.06ZM83.51,197.75c2.5-.27,6.02-.53,10.56-.76,1.95-1.68,3.62-3.66,4.99-5.93,1.17-1.96,1.62-2.95,1.35-2.99-.35-.08-.78-.12-1.29-.12-2.11,0-5.32.57-9.62,1.7-3.52.94-6.61,1.92-9.27,2.93l3.29,5.16ZM93.78,176.92c1.33-1.96,2.11-3.64,2.35-5.05-.08-.04-.22-.06-.41-.06-2.15,0-6.24.96-12.26,2.87.51.94,1.23,2.29,2.17,4.05,1.99-.43,4.71-1.04,8.16-1.82Z"/>
      </g>
      <g>
        <g>
          <path class="cls-1" d="M61.29,227.92c-.53,0-1.03-.03-1.49-.1s-.86-.19-1.21-.36c-.34-.17-.62-.4-.81-.71-.2-.3-.3-.68-.3-1.14v-.06s0-.05.01-.07h2.24s0,.05,0,.07v.07c0,.2.06.35.17.46.11.11.27.18.48.21.21.04.44.06.7.06.11,0,.22,0,.33,0,.11,0,.22-.01.33-.03s.2-.04.29-.07.15-.08.2-.13c.05-.06.07-.13.07-.21,0-.13-.06-.22-.19-.29-.13-.07-.31-.13-.53-.17-.23-.04-.48-.08-.75-.12-.28-.04-.56-.09-.86-.15-.3-.06-.59-.14-.86-.23-.28-.1-.53-.22-.75-.39-.22-.16-.4-.37-.53-.61-.13-.25-.2-.54-.2-.9,0-.4.09-.74.28-1.01.19-.28.44-.5.77-.68.32-.17.69-.3,1.11-.38.42-.08.85-.12,1.3-.12s.9.04,1.31.12c.41.08.77.2,1.08.37s.56.39.74.65.27.59.27.96v.12h-2.22v-.04c0-.12-.04-.24-.11-.35-.07-.11-.19-.19-.35-.25-.16-.06-.37-.09-.64-.09s-.47.02-.65.06c-.17.04-.3.09-.39.16-.09.07-.13.14-.13.22,0,.12.07.22.2.29.13.07.31.13.53.18.22.05.47.09.75.13.28.04.57.09.87.14.3.05.58.12.86.21.28.09.53.21.75.37.23.16.4.35.53.58.13.23.19.52.19.85,0,.56-.15,1.02-.44,1.37-.29.35-.7.61-1.21.77-.51.16-1.09.24-1.73.24Z"/>
          <path class="cls-1" d="M69.57,227.92c-.83,0-1.52-.12-2.09-.36s-.99-.59-1.28-1.06-.43-1.04-.43-1.72v-3.82h2.33v3.75c0,.46.13.84.38,1.11.25.28.61.42,1.08.42s.84-.14,1.09-.42c.25-.28.38-.65.38-1.11v-3.75h2.33v3.82c0,.68-.14,1.26-.43,1.72-.29.47-.71.82-1.27,1.06s-1.26.36-2.09.36Z"/>
          <path class="cls-1" d="M74.82,227.8v-6.84h2.01l2.75,2.65s.11.12.2.21c.09.1.18.2.27.3s.17.19.23.25h.07v-3.42h2.15v6.84h-1.99l-2.8-2.71c-.13-.13-.25-.25-.36-.37-.12-.12-.22-.23-.3-.32h-.07c0,.12,0,.24,0,.39v3.02h-2.16Z"/>
          <path class="cls-1" d="M86.3,227.8v-6.84h3.46l.74,2.46c.04.11.09.26.14.45.05.19.11.39.16.6.05.21.1.4.14.56h.07c.03-.14.07-.3.12-.49s.1-.38.16-.58c.06-.2.11-.38.15-.54l.74-2.46h3.34v6.84h-2.28v-2.72c0-.22,0-.45,0-.69,0-.24,0-.47.02-.69,0-.22,0-.41,0-.56h-.08c-.03.14-.07.3-.12.5s-.1.38-.15.57-.1.34-.15.48l-.97,3.12h-1.91l-.98-3.12c-.05-.17-.11-.35-.16-.55s-.11-.38-.15-.55c-.04-.18-.08-.32-.11-.44h-.08c0,.14.01.32.02.53,0,.21.01.44.01.69s0,.49,0,.72v2.72h-2.13Z"/>
          <path class="cls-1" d="M100.83,227.92c-.85,0-1.59-.14-2.21-.41-.62-.28-1.09-.68-1.42-1.2-.33-.53-.5-1.17-.5-1.92s.17-1.41.5-1.93c.33-.53.8-.93,1.42-1.2.62-.27,1.35-.41,2.21-.41s1.6.14,2.22.41c.62.27,1.09.67,1.42,1.2.33.53.5,1.17.5,1.93s-.17,1.4-.5,1.92c-.33.53-.81.93-1.42,1.2-.62.27-1.36.41-2.22.41ZM100.83,226.25c.28,0,.53-.04.74-.12s.4-.19.55-.34c.15-.15.27-.32.34-.53s.11-.43.11-.67v-.44c0-.24-.04-.46-.11-.66s-.19-.38-.34-.52c-.15-.15-.34-.26-.55-.34-.22-.08-.46-.12-.74-.12s-.52.04-.74.12c-.22.08-.4.19-.55.34-.15.15-.26.32-.34.52-.08.2-.11.42-.11.66v.44c0,.25.04.47.11.67.08.2.19.38.34.53.15.15.33.26.55.34s.46.12.74.12Z"/>
          <path class="cls-1" d="M109.98,227.92c-.85,0-1.59-.14-2.21-.41-.62-.28-1.09-.68-1.42-1.2-.33-.53-.5-1.17-.5-1.92s.17-1.41.5-1.93c.33-.53.8-.93,1.42-1.2s1.35-.41,2.21-.41,1.6.14,2.22.41c.62.27,1.09.67,1.42,1.2.33.53.5,1.17.5,1.93s-.17,1.4-.5,1.92c-.33.53-.81.93-1.42,1.2-.62.27-1.36.41-2.22.41ZM109.98,226.25c.28,0,.53-.04.74-.12s.4-.19.55-.34c.15-.15.27-.32.34-.53s.11-.43.11-.67v-.44c0-.24-.04-.46-.11-.66s-.19-.38-.34-.52c-.15-.15-.34-.26-.55-.34-.22-.08-.46-.12-.74-.12s-.52.04-.74.12c-.22.08-.4.19-.55.34-.15.15-.26.32-.34.52-.08.2-.11.42-.11.66v.44c0,.25.04.47.11.67.08.2.19.38.34.53.15.15.33.26.55.34s.46.12.74.12Z"/>
          <path class="cls-1" d="M115.3,227.8v-6.84h2.01l2.75,2.65s.11.12.2.21.18.2.27.3c.09.1.17.19.23.25h.07v-3.42h2.15v6.84h-1.99l-2.8-2.71c-.13-.13-.25-.25-.36-.37-.12-.12-.22-.23-.3-.32h-.07c0,.12.01.24.01.39v3.02h-2.16Z"/>
        </g>
        <g>
          <path class="cls-1" d="M74.44,238.27v-6.84h2.33v5.02h3.98v1.82h-6.3Z"/>
          <path class="cls-1" d="M81.02,238.27l2.9-6.84h2.63l2.9,6.84h-2.49l-.35-.93h-2.87l-.34.93h-2.4ZM84.36,235.71h1.67l-.4-1.12c-.03-.07-.06-.15-.09-.25s-.07-.21-.1-.33c-.04-.12-.07-.24-.1-.36s-.07-.22-.1-.32h-.07c-.03.12-.07.25-.12.4-.05.15-.1.3-.14.45s-.09.28-.14.4l-.4,1.12Z"/>
          <path class="cls-1" d="M90.27,238.27v-6.84h2.33v2.97l2.87-2.97h2.88l-2.73,2.8,2.8,4.04h-2.79l-1.69-2.56-1.34,1.17v1.39h-2.33Z"/>
          <path class="cls-1" d="M99.35,238.27v-6.84h6.61v1.67h-4.28v.91h3.68v1.59h-3.68v.99h4.35v1.67h-6.68Z"/>
        </g>
      </g>
      <g>
        <g>
          <path class="cls-1" d="M20.27,50.61l-9.37-5.76,2.91-4.74,3.99,1.06c.19.04.43.1.74.19s.62.18.95.28c.33.1.63.2.89.28l.06-.1c-.16-.16-.35-.36-.56-.58-.21-.22-.43-.46-.66-.71-.23-.25-.43-.47-.61-.67l-2.75-3.08,2.81-4.58,9.38,5.76-1.92,3.12-3.73-2.29c-.3-.18-.61-.38-.94-.58-.32-.21-.64-.41-.93-.6-.3-.2-.55-.36-.76-.49l-.07.11c.16.16.35.36.58.59.22.23.44.46.65.69.21.23.39.43.53.61l3.46,3.96-1.61,2.62-5.11-1.28c-.28-.07-.58-.15-.89-.24-.31-.08-.6-.17-.88-.26-.28-.09-.51-.16-.7-.22l-.07.11c.2.11.44.25.74.42.3.17.61.36.95.56.34.2.67.4,1,.6l3.73,2.29-1.79,2.92Z"/>
          <path class="cls-1" d="M29.61,36.81l-8.09-7.45,2.54-2.75,8.09,7.45-2.54,2.75Z"/>
          <path class="cls-1" d="M33.37,32.49l-6.86-8.6,2.53-2.02,6.13.57c.1.01.26.03.46.07.2.03.42.07.64.11.22.04.4.07.54.09l.08-.08c-.14-.18-.29-.37-.46-.58s-.31-.39-.43-.54l-2.52-3.16,2.7-2.16,6.86,8.6-2.5,2-6.25-.6c-.28-.03-.56-.07-.83-.1-.27-.04-.5-.07-.71-.1l-.08.08c.11.13.25.28.4.47.15.19.28.35.39.49l2.63,3.3-2.71,2.16Z"/>
          <path class="cls-1" d="M49.7,21.34c-1.8.94-3.36,1.22-4.71.85-1.34-.37-2.45-1.4-3.33-3.08-.58-1.12-.83-2.17-.75-3.16.08-.99.47-1.91,1.17-2.76.7-.84,1.67-1.6,2.93-2.25.76-.4,1.51-.69,2.26-.88.75-.19,1.46-.27,2.13-.23.67.04,1.27.22,1.8.53.53.31.96.78,1.28,1.39l-3.2,1.67c-.11-.21-.26-.36-.46-.47-.2-.11-.43-.16-.69-.17-.26,0-.54.03-.84.11-.29.08-.59.2-.88.35-.45.24-.82.5-1.11.78-.29.28-.49.58-.61.91-.12.32-.16.66-.13,1,.04.35.15.71.35,1.09l.33.62c.27.51.59.89.97,1.14.38.25.81.36,1.29.34.48-.02,1.02-.19,1.6-.49.41-.21.76-.46,1.05-.73.3-.27.5-.56.62-.85s.11-.56-.01-.8l-.03-.06-2.59,1.36-1.04-1.98,5.8-3.03,2.84,5.44-1.8.94-.85-.86c-.2.43-.45.84-.76,1.23-.31.39-.68.75-1.11,1.09-.43.34-.93.66-1.51.96Z"/>
          <path class="cls-1" d="M61.16,16.11l-1.33-4.09-6.76-4.85,4.14-1.34,3.49,2.73.09-.03,1.22-4.26,3.96-1.29-2.58,7.89,1.33,4.09-3.56,1.16Z"/>
          <path class="cls-1" d="M76.41,12.49c-1.32.21-2.45.2-3.41-.03-.96-.23-1.72-.69-2.3-1.35-.58-.67-.95-1.54-1.13-2.63l-.98-6.06,3.69-.6.96,5.95c.12.74.41,1.29.89,1.67.47.38,1.08.51,1.83.39.76-.12,1.3-.44,1.63-.94.33-.51.43-1.13.31-1.87l-.96-5.95,3.7-.6.98,6.06c.18,1.08.1,2.03-.24,2.85-.33.82-.92,1.48-1.75,2.01s-1.91.89-3.22,1.1Z"/>
          <path class="cls-1" d="M84.44,11.22l-.23-11,10.63-.22.05,2.69-6.89.14.03,1.47,5.92-.12.05,2.56-5.92.12.03,1.6,7-.14.06,2.69-10.75.22Z"/>
          <path class="cls-1" d="M103.67,11.84l1.19-8.01-4.1-.61.43-2.88,11.9,1.77-.43,2.88-4.1-.61-1.19,8.01-3.7-.55Z"/>
          <path class="cls-1" d="M112.69,13.32l3.08-10.56,10.21,2.98-.75,2.58-6.62-1.93-.41,1.41,5.68,1.66-.72,2.46-5.68-1.66-.45,1.54,6.73,1.96-.75,2.58-10.32-3.01Z"/>
          <path class="cls-1" d="M124.43,16.69l4.84-9.88,5,2.45-.67,4.07c-.02.19-.06.44-.12.75-.06.31-.12.64-.19.97s-.14.64-.2.91l.1.05c.15-.18.32-.38.52-.62.2-.23.42-.48.64-.73.22-.25.43-.48.61-.67l2.8-3.03,4.83,2.36-4.84,9.88-3.29-1.61,1.93-3.94c.15-.32.32-.65.49-.99.17-.34.34-.67.51-.99.17-.32.3-.58.41-.8l-.11-.06c-.15.18-.32.39-.53.63-.21.24-.42.48-.62.71-.21.23-.39.43-.55.58l-3.62,3.82-2.76-1.35.79-5.21c.04-.29.09-.59.15-.91s.11-.62.18-.9c.06-.28.11-.52.15-.72l-.12-.06c-.09.21-.2.46-.34.78-.14.31-.3.64-.46,1-.17.36-.34.71-.51,1.05l-1.93,3.94-3.07-1.5Z"/>
          <path class="cls-1" d="M139.26,24.36l6.63-8.78,6.13,4.62c.56.42.96.93,1.2,1.51.24.58.31,1.19.22,1.83-.1.63-.37,1.25-.82,1.84-.46.61-.99,1.06-1.58,1.33-.59.27-1.2.37-1.83.3s-1.21-.32-1.77-.74l-3.14-2.37-2.05,2.72-2.99-2.25ZM145.9,21.77l2.22,1.68c.31.24.61.34.88.3.27-.04.52-.21.74-.5.15-.2.24-.4.27-.59.03-.19,0-.36-.08-.53-.08-.17-.23-.33-.44-.49l-2.22-1.68-1.37,1.81Z"/>
          <path class="cls-1" d="M148.91,31.88l8.07-7.48,2.55,2.74-5.92,5.49,4.35,4.69-2.15,1.99-6.9-7.44Z"/>
          <path class="cls-1" d="M156.4,40.14l9.4-5.72,5.53,9.09-2.3,1.4-3.58-5.89-1.26.76,3.08,5.06-2.19,1.33-3.08-5.06-1.37.83,3.64,5.99-2.3,1.4-5.59-9.18Z"/>
        </g>
        <g>
          <path class="cls-1" d="M11.04,223.68l8.37-5.73,2.9,4.23-2.39,2.96c-.1.14-.25.33-.44.55-.19.22-.39.45-.6.69s-.4.45-.57.64l.06.09c.2-.08.43-.16.7-.26.27-.09.55-.19.84-.29.29-.1.56-.19.79-.27l3.62-1.16,2.8,4.09-8.37,5.73-1.91-2.79,3.33-2.28c.27-.18.55-.37.84-.57.29-.2.58-.38.86-.56s.51-.33.7-.46l-.07-.1c-.2.08-.44.16-.71.26-.28.1-.55.2-.82.29-.27.09-.51.16-.71.22l-4.64,1.42-1.6-2.34,2.99-3.82c.17-.21.34-.43.53-.66.19-.23.37-.44.55-.64s.33-.37.45-.51l-.07-.1c-.16.12-.37.28-.63.47-.25.19-.53.38-.83.59-.3.21-.59.41-.88.61l-3.33,2.28-1.78-2.6Z"/>
          <path class="cls-1" d="M20.95,237.33l10.05-4.52,2.87,2.65-3.73,10.37-2.7-2.5.56-1.37-3.13-2.89-1.31.68-2.61-2.41ZM27.16,237.91l1.82,1.68.7-1.62c.04-.1.09-.22.15-.36.06-.14.14-.3.22-.46.08-.17.16-.33.25-.49s.15-.31.21-.45l-.08-.07c-.16.1-.34.2-.54.31s-.41.23-.61.34-.39.22-.56.3l-1.56.82Z"/>
          <path class="cls-1" d="M33.42,248.02l4.22-6.15-3.15-2.16,1.52-2.21,9.15,6.27-1.52,2.21-3.15-2.16-4.22,6.15-2.85-1.95Z"/>
          <path class="cls-1" d="M46.28,255.82c-1.17-.57-2.07-1.23-2.68-1.97-.61-.74-.94-1.56-1-2.45-.05-.89.17-1.85.68-2.88.75-1.54,1.77-2.49,3.06-2.85,1.29-.36,2.81-.12,4.55.73.97.47,1.75,1.05,2.32,1.71.58.67.93,1.4,1.05,2.18.13.78,0,1.58-.41,2.39l-2.99-1.46c.16-.34.23-.67.2-.99-.03-.33-.15-.63-.37-.91-.21-.28-.52-.52-.93-.72-.49-.24-.93-.34-1.33-.3s-.76.19-1.06.45-.56.6-.76,1.01l-.29.6c-.2.41-.31.81-.32,1.22s.08.78.28,1.12c.21.34.55.63,1.02.86.44.22.85.33,1.22.35s.69-.06.97-.23c.28-.17.5-.42.66-.74l2.9,1.42c-.38.79-.91,1.37-1.58,1.76-.67.39-1.45.56-2.33.52s-1.83-.31-2.86-.81Z"/>
          <path class="cls-1" d="M54.12,259.18l3.04-9.68,3.29,1.03-1.09,3.47,4.29,1.35,1.09-3.47,3.29,1.03-3.04,9.68-3.29-1.03,1.14-3.63-4.29-1.35-1.14,3.63-3.29-1.03Z"/>
          <path class="cls-1" d="M68.45,263.47l1.49-10.03,5.07.75.54,3.76c.03.17.07.41.11.69.04.29.07.59.1.91.03.32.06.6.08.85l.1.02c.08-.2.18-.43.29-.69s.23-.53.36-.82c.13-.28.24-.54.34-.76l1.61-3.44,4.9.73-1.49,10.03-3.34-.5.59-4c.05-.32.1-.66.16-1,.06-.35.11-.69.17-1.01.06-.32.1-.6.14-.82l-.12-.02c-.08.2-.18.43-.29.7-.11.27-.23.54-.35.8-.12.26-.23.48-.32.67l-2.11,4.37-2.8-.42-.76-4.79c-.04-.26-.08-.54-.12-.84-.04-.29-.07-.57-.1-.84-.03-.27-.05-.49-.07-.67l-.12-.02c-.02.21-.05.46-.09.78-.04.31-.08.65-.13,1.01s-.1.72-.15,1.07l-.59,4-3.12-.46Z"/>
          <path class="cls-1" d="M84.32,265.56l4.43-10.09,3.91.05,4.18,10.2-3.69-.05-.5-1.39-4.26-.05-.52,1.38-3.55-.04ZM89.32,261.83l2.48.03-.57-1.67c-.04-.1-.08-.22-.13-.37-.05-.15-.1-.31-.15-.49-.05-.18-.1-.35-.15-.53-.05-.18-.09-.34-.14-.47h-.1c-.05.18-.12.37-.19.59-.08.22-.15.44-.22.66-.07.22-.14.42-.21.59l-.61,1.66Z"/>
          <path class="cls-1" d="M99.36,265.47l-1.3-10.06,3.42-.44.57,4.37,3.66-4.92,4.24-.55-3.49,4.64,4.89,5.4-4.11.53-2.97-3.45-1.75,1.98.26,2.05-3.42.44Z"/>
          <path class="cls-1" d="M113.81,263.32l-2.61-9.8,9.47-2.53.64,2.39-6.14,1.64.35,1.31,5.27-1.41.61,2.28-5.27,1.41.38,1.42,6.24-1.66.64,2.39-9.57,2.55Z"/>
          <path class="cls-1" d="M126.16,259.84l-3.91-9.36,6.99-2.92c.7-.29,1.34-.39,1.93-.3.59.09,1.09.32,1.52.68.43.36.76.81.98,1.35.25.61.34,1.21.26,1.8-.08.59-.32,1.14-.7,1.64l3.33,2.76-3.59,1.5-2.68-2.44-2.2.92,1.27,3.03-3.18,1.33ZM127.15,253.27l2.84-1.19c.25-.1.42-.27.51-.52.1-.24.08-.51-.04-.81-.08-.19-.19-.34-.32-.44-.13-.1-.28-.17-.45-.19s-.33,0-.49.07l-2.84,1.19.79,1.89Z"/>
          <path class="cls-1" d="M146.83,249.51c-1.54,1.05-2.95,1.48-4.22,1.29-1.27-.19-2.4-1.01-3.38-2.46-.65-.96-1-1.9-1.03-2.81-.03-.92.22-1.8.77-2.65s1.36-1.64,2.44-2.38c.65-.44,1.31-.79,1.97-1.05.66-.26,1.3-.4,1.92-.44.62-.04,1.19.06,1.71.29.52.23.96.61,1.32,1.13l-2.75,1.88c-.12-.18-.28-.31-.47-.38s-.41-.1-.65-.08c-.24.02-.49.09-.75.19-.26.11-.52.25-.77.42-.39.27-.7.54-.93.83-.23.29-.38.59-.46.89-.08.31-.08.62,0,.93.07.31.22.63.44.96l.37.54c.3.44.63.75,1.01.94.37.19.78.24,1.21.17.44-.07.91-.28,1.41-.63.35-.24.64-.5.88-.78.24-.28.4-.56.48-.84.08-.28.04-.52-.1-.73l-.03-.05-2.23,1.52-1.16-1.7,4.98-3.4,3.19,4.68-1.55,1.06-.87-.69c-.13.41-.32.81-.56,1.2-.24.39-.54.76-.9,1.12s-.78.7-1.28,1.04Z"/>
          <path class="cls-1" d="M159,239.5c-.89.9-1.81,1.53-2.74,1.89-.93.36-1.85.44-2.75.24s-1.75-.7-2.54-1.49c-.8-.8-1.31-1.64-1.51-2.54-.21-.9-.13-1.81.23-2.75.36-.93.98-1.85,1.88-2.75.9-.91,1.82-1.54,2.75-1.9.93-.36,1.85-.44,2.75-.24s1.75.7,2.55,1.5c.79.79,1.3,1.63,1.5,2.53.21.9.13,1.82-.22,2.75-.35.94-.98,1.86-1.88,2.76ZM157.24,237.75c.29-.29.51-.59.65-.9.14-.31.21-.62.22-.94,0-.32-.06-.62-.2-.91-.13-.29-.33-.57-.59-.82l-.46-.46c-.25-.25-.52-.44-.81-.57-.29-.13-.59-.19-.91-.18s-.62.08-.93.23c-.31.14-.61.36-.9.65-.28.29-.5.59-.64.9-.15.31-.22.62-.22.93,0,.31.06.61.2.9.13.29.32.56.58.81l.46.46c.26.26.53.45.83.58.29.13.59.2.91.2s.63-.08.94-.22.61-.36.89-.65Z"/>
          <path class="cls-1" d="M165.42,232.16l-8.52-5.5,2.79-4.32c.66-1.02,1.37-1.78,2.15-2.29.78-.51,1.61-.75,2.48-.72.88.03,1.79.35,2.73.95.93.6,1.59,1.3,1.99,2.09s.51,1.65.37,2.56c-.14.92-.54,1.89-1.2,2.9l-2.79,4.32ZM165.21,227.92l.85-1.31c.2-.31.34-.62.4-.92.07-.3.07-.59,0-.87-.06-.27-.18-.53-.37-.76-.18-.23-.42-.45-.72-.64l-.52-.34c-.29-.19-.58-.31-.87-.38-.29-.07-.57-.08-.85-.02s-.54.18-.78.36c-.24.19-.47.44-.67.75l-.85,1.31,4.36,2.81Z"/>
        </g>
      </g>
    </g>
  </g>
</svg>