<?xml version="1.0" encoding="UTF-8"?>
<svg id="_圖層_2" data-name="圖層 2" xmlns="http://www.w3.org/2000/svg" width="923.08" height="309.19" viewBox="0 0 923.08 309.19">
  <defs>
    <style>
      .cls-1 {
        fill: #052930;
      }

      .cls-2 {
        fill: #092a31;
      }
    </style>
  </defs>
  <g id="icon">
    <g>
      <g>
        <path class="cls-1" d="M386.1,36.11l7.08-.52.38,5.24-45.28,3.29-.38-5.24,10.72-.78c.72-4.28,1.42-8.49,2.09-12.62l-10.27.75-.38-5.24,11.42-.83c.48-3.46.84-6.57,1.08-9.33l-15.16,1.1-.38-5.24,42.29-3.07.38,5.24-20.65,1.5c-.23,2.37-.59,5.48-1.08,9.33l16.86-1.22,1.28,17.64ZM378.72,24.18l-11.42.83-1.79,12.6,14.11-1.03-.9-12.4Z"/>
        <path class="cls-1" d="M430.55,16.88c.46,2.49,1.4,4.72,2.83,6.71,1.43,1.99,3.57,3.94,6.41,5.85,2.84,1.91,6.66,3.98,11.45,6.22l-3.48,5.43c-4.69-2.36-8.37-4.44-11.05-6.23-2.68-1.79-4.79-3.8-6.34-6.03-1.55-2.22-2.53-4.87-2.93-7.96h-.5c-.26,3.17-1.08,5.88-2.46,8.16-1.38,2.28-3.33,4.36-5.86,6.26-2.52,1.9-6.02,4.14-10.5,6.71l-3.77-5.26c4.58-2.42,8.2-4.66,10.87-6.71,2.67-2.05,4.63-4.1,5.89-6.13,1.25-2.04,2.02-4.32,2.29-6.85l-18.34.42-.12-5.35,18.6-.43-.25-10.6,6.6-.15.25,10.6,19.44-.45.12,5.35-19.15.44Z"/>
        <path class="cls-1" d="M480.64,1.43l27.19.66-.97,40.05-5.35-.13.06-2.41-16.6-.4-.06,2.41-5.25-.13.18-7.44-3.29,3.49c-1.63-1.67-3.12-3.17-4.49-4.48-1.8,2.75-4.2,5.52-7.2,8.29l-3.4-4.05c2.89-2.4,5.17-4.97,6.84-7.72-1.5-1.28-3.5-2.94-5.98-4.96,1.18-3.45,2.29-7.72,3.31-12.8l-3.35-.08.11-4.72,4.15.1c.5-2.78.89-5.15,1.17-7.1l5.39.44c-.32,2.37-.7,4.63-1.11,6.79l6.65.16-.08,3.16c-.36,3.77-.85,7.09-1.49,9.97-.64,2.88-1.47,5.5-2.49,7.85l5.28,5.03.77-31.98ZM470.63,24.76c.64-1.74,1.16-3.63,1.56-5.69.4-2.05.75-4.42,1.05-7.08l-2.4-.06c-.76,3.93-1.57,7.6-2.42,11l2.21,1.84ZM485.77,6.59l-.66,27.58,16.6.4.66-27.58-16.6-.4ZM496.33,18.65c.12,1.82.56,3.39,1.31,4.73.75,1.34,2.09,2.84,4.02,4.49l-2.86,4.39c-1.76-1.65-3.02-3.18-3.77-4.59-.75-1.41-1.14-3.06-1.16-4.93h-.5c-.08,1.92-.53,3.59-1.35,4.99-.82,1.41-2.11,2.91-3.88,4.5l-2.64-4.65c1.97-1.62,3.36-3.08,4.16-4.4.8-1.32,1.3-2.87,1.51-4.64l-4.5-.11.12-4.9,4.55.11.14-5.7,5.05.12-.14,5.7,4.55.11-.12,4.9-4.5-.11Z"/>
        <path class="cls-1" d="M518.37,38.61c.74-1.94,1.32-3.78,1.75-5.53.42-1.74.78-3.69,1.07-5.84l4.2.88c-.36,2.66-.77,5.02-1.23,7.1-.47,2.08-1.07,4.05-1.8,5.9l-3.98-2.52ZM567.03,27.6c-1.83,1.78-4.09,3.51-6.79,5.19,1.02,2.61,2.64,5.18,4.86,7.72l-3.61,4.21c-2.68-3.23-4.61-6.73-5.79-10.51-1.18-3.78-1.77-7.84-1.76-12.19l-.4-.03c-.82.66-1.7,1.29-2.64,1.91,1.23,2.47,2.16,4.9,2.79,7.28.63,2.38.88,4.55.74,6.51-.13,1.87-.44,3.28-.93,4.24-.49.96-1.23,1.61-2.24,1.94-1.01.33-2.43.43-4.26.3l-2.24-.16-1.08-4.5c-1.51.58-3.22,1.1-5.12,1.56l-1.75-4.24c5.05-1.01,9.23-2.42,12.53-4.24-.06-.51-.18-.98-.35-1.41-2.71,1.39-6.01,2.55-9.92,3.49l-1.71-4.1c4.24-.86,7.69-1.88,10.34-3.06l-.7-1.48c-2.58,1.1-5.12,1.94-7.6,2.54l-.95-2.17-3.27.93-.33-1.72c-1.48.07-2.58.11-3.32.12l-1.26,17.73-5.04-.36,1.24-17.33c-1.57,0-3.96-.04-7.16-.15l-.18-4.57c1.73.12,3.03.2,3.89.23,1.11-1.08,2.25-2.34,3.43-3.78-1.69-2.15-3.7-4.34-6.05-6.6l3.3-3.43,1.03,1.06c1.44-1.98,2.81-4.19,4.08-6.63l4.51,2.06c-2.26,3.62-4.07,6.29-5.43,8.01l1.48,1.8c1.92-2.51,3.41-4.69,4.47-6.52l4.28,2.54c-1.42,2.1-2.96,4.18-4.63,6.24-1.67,2.06-3.27,3.86-4.82,5.42,1.73.03,3.46.02,5.17-.03-.31-1.24-.66-2.43-1.05-3.56l3.89-1.11c.76,2.41,1.47,4.96,2.11,7.66,3.22-.66,6.1-1.62,8.63-2.87l-8.08-.58.29-4.04,16.36,1.17.62-1.65-15.26-1.09c2.17-4.67,3.79-8.62,4.85-11.85l5.12.54-.69,1.87,14.61,1.04c-1.17,3.82-2.48,7.66-3.93,11.51l5.74.41-.29,4.04-8.13-.58c-.02,2.17.13,4.21.47,6.11,1.62-1.19,3.12-2.55,4.5-4.06l3.43,3.19ZM535.66,28.18c.61,3.65.96,6.92,1.06,9.81l-4.34,1.16c.02-4.11-.21-7.54-.72-10.28l4.01-.7ZM547.02,39.71c.76.05,1.33.04,1.68-.06.36-.09.61-.31.75-.64.14-.33.24-.88.29-1.65l.04-.58c-1.88,1.06-3.87,1.96-5.96,2.7l3.19.23ZM558.01,12.8l.83-2.53-9.58-.68-.93,2.52,9.68.69Z"/>
      </g>
      <g>
        <path class="cls-2" d="M308.29,102.27l.97,10.49-15.77,1.45,4.28,46.45-11.81,1.09-4.28-46.45-15.77,1.45-.97-10.49,43.34-4Z"/>
        <path class="cls-2" d="M367.75,155.82l-11.83.71-1.41-23.67-22.42,1.34,1.41,23.67-11.83.71-3.4-57.07,11.83-.71,1.37,22.97,22.42-1.34-1.37-22.97,11.83-.71,3.4,57.07Z"/>
        <path class="cls-2" d="M418.33,143.78l.29,10.53-38.36,1.05-1.56-57.15,38.36-1.05.29,10.53-26.51.72.34,12.48,22.92-.63.29,10.45-22.92.63.36,13.18,26.51-.72Z"/>
        <path class="cls-2" d="M460.61,130.59l-.28,23.71-11.86-.14.68-57.17,37.44.44-.12,10.53-25.58-.3-.15,12.48,21.99.26-.12,10.45-21.99-.26Z"/>
        <path class="cls-2" d="M520.21,155.78l-26.66-.93.33-9.43,7.41.26,1.33-38.28-7.41-.26.33-9.43,26.66.93-.33,9.43-7.41-.26-1.33,38.27,7.41.26-.33,9.43Z"/>
        <path class="cls-2" d="M557.04,157.76l-13.24-.79-15.04-58.17,11.99.72,6.92,28.07,3.58,18.58.31.02,5.61-18.03,10.21-27.05,11.68.7-22.02,55.96Z"/>
        <path class="cls-2" d="M622.07,152.47l-.94,10.49-38.22-3.44,5.12-56.94,38.22,3.44-.94,10.49-26.41-2.38-1.12,12.43,22.84,2.05-.94,10.41-22.84-2.05-1.18,13.13,26.41,2.38Z"/>
      </g>
      <g>
        <path class="cls-2" d="M20.09,300.02c-4.03-1.17-7.64-3.59-10.83-7.26s-5.66-8.47-7.4-14.41c-1.77-6.04-2.27-11.51-1.49-16.43.78-4.92,2.69-9.03,5.73-12.33,3.04-3.3,7.03-5.68,11.97-7.13,4.89-1.44,9.42-1.59,13.6-.46,4.18,1.13,7.9,3.46,11.16,7l-7.74,7.96c-1.7-2.1-3.72-3.58-6.06-4.44-2.34-.86-5-.85-8,.03-3.89,1.14-6.61,3.23-8.16,6.26s-1.66,6.81-.32,11.35l2.57,8.76c1.33,4.54,3.47,7.67,6.41,9.38,2.94,1.71,6.38,1.99,10.32.83,3.19-.94,5.62-2.46,7.27-4.58,1.66-2.11,2.08-4.54,1.27-7.28l-.9-3.07-10.33,3.03-2.79-9.5,21.18-6.22,8.9,30.31-9.65,2.84-2.55-8.68-.37.11c.39,2.98-.4,5.73-2.37,8.26-1.97,2.53-4.95,4.38-8.94,5.55-4.29,1.26-8.45,1.3-12.48.13Z"/>
        <path class="cls-2" d="M74.25,265.35l5,20.78-11.53,2.77-13.37-55.59,25.86-6.22c3.39-.82,6.51-.79,9.36.07,2.86.87,5.27,2.45,7.24,4.76,1.97,2.31,3.38,5.2,4.22,8.69.94,3.89.88,7.42-.18,10.59-1.06,3.17-3.11,5.76-6.15,7.78l16.4,19.48-12.82,3.08-14.93-18.39-9.1,2.19ZM84.88,252.52c1.87-.45,3.23-1.3,4.08-2.55.85-1.25,1.04-2.83.58-4.75l-.84-3.49c-.45-1.87-1.34-3.17-2.66-3.89-1.33-.72-2.92-.86-4.79-.41l-12.97,3.12,3.63,15.09,12.97-3.12Z"/>
        <path class="cls-2" d="M156.26,258.71l2.05,10.33-37.64,7.46-11.12-56.08,37.64-7.46,2.05,10.33-26.01,5.16,2.43,12.24,22.49-4.46,2.03,10.25-22.49,4.46,2.56,12.93,26.01-5.16Z"/>
        <path class="cls-2" d="M175.77,266.04l-11.86,1.9,9.68-59.45,14.48-2.32,27.59,53.49-12.17,1.95-6.44-13.11-19.33,3.09-1.95,14.45ZM182,218.04l-3.09,23.16,13.71-2.19-10.24-21.03-.38.06Z"/>
        <path class="cls-2" d="M249.85,197.71l1.34,10.44-15.7,2.02,5.95,46.26-11.76,1.51-5.95-46.26-15.7,2.02-1.34-10.44,43.17-5.55Z"/>
        <path class="cls-2" d="M294.32,229.28l1.79,21.3-11.81.99-4.78-56.97,26.5-2.22c3.47-.29,6.55.21,9.24,1.49,2.69,1.29,4.84,3.22,6.44,5.8,1.6,2.58,2.55,5.66,2.85,9.23.33,3.99-.26,7.47-1.79,10.44-1.53,2.97-3.95,5.22-7.26,6.75l13.25,21.74-13.14,1.1-11.97-20.44-9.33.78ZM306.78,218.22c1.92-.16,3.39-.79,4.42-1.9,1.03-1.1,1.46-2.64,1.3-4.61l-.3-3.58c-.16-1.92-.84-3.33-2.04-4.25-1.2-.92-2.76-1.29-4.67-1.13l-13.29,1.12,1.3,15.47,13.29-1.12Z"/>
        <path class="cls-2" d="M376.39,234.74l.55,10.52-38.32,2-2.99-57.1,38.32-2,.55,10.52-26.48,1.38.65,12.46,22.9-1.2.55,10.44-22.9,1.2.69,13.16,26.48-1.38Z"/>
        <path class="cls-2" d="M421.04,233.55l.26,10.53-33.69.84-1.42-57.16,11.85-.29,1.16,46.63,21.83-.54Z"/>
        <path class="cls-2" d="M438.82,243.95l-12.01-.07,19.31-57.06,14.66.09,18.44,57.29-12.32-.08-4.2-13.99-19.58-.12-4.3,13.94ZM452.83,197.63l-6.85,22.34,13.88.08-6.65-22.43h-.39Z"/>
        <path class="cls-2" d="M522.81,188.37l-.32,10.53-15.83-.48-1.42,46.62-11.85-.36,1.42-46.62-15.83-.48.32-10.52,43.5,1.33Z"/>
        <path class="cls-2" d="M553.39,247.29l-26.64-1.43.51-9.42,7.4.4,2.05-38.24-7.4-.4.51-9.42,26.64,1.43-.51,9.42-7.4-.4-2.05,38.24,7.4.4-.51,9.42Z"/>
        <path class="cls-2" d="M573.36,246.24c-3.55-2.56-6.17-6.12-7.86-10.69-1.69-4.57-2.28-10.02-1.77-16.34.51-6.32,1.97-11.62,4.38-15.88,2.41-4.27,5.57-7.38,9.48-9.33,3.91-1.95,8.41-2.72,13.49-2.31,5.03.41,9.32,1.89,12.87,4.45s6.17,6.13,7.86,10.73c1.69,4.6,2.28,10.06,1.77,16.38-.51,6.32-1.97,11.61-4.37,15.84-2.41,4.24-5.56,7.34-9.48,9.29s-8.39,2.73-13.41,2.32c-5.08-.41-9.39-1.9-12.94-4.45ZM596.49,237.04c2.44-2.41,3.84-5.92,4.22-10.54l.7-8.63c.37-4.61-.45-8.3-2.47-11.08-2.02-2.77-4.92-4.31-8.7-4.62-3.89-.31-7.04.74-9.45,3.15-2.41,2.41-3.81,5.93-4.18,10.54l-.7,8.63c-.37,4.61.44,8.3,2.43,11.07,1.99,2.77,4.93,4.31,8.82,4.63,3.78.31,6.89-.75,9.33-3.16Z"/>
        <path class="cls-2" d="M632.49,254.02l-11.08-1.3,6.65-56.79,12.86,1.51,12.93,29.71,4.07,12.18.31.04,4.61-39.35,11.08,1.3-6.65,56.79-12.86-1.51-12.93-29.71-4.15-12.19-.23-.03-4.61,39.35Z"/>
        <path class="cls-2" d="M677.58,251.07l8.97-6.51c3.12,5,7.54,7.94,13.25,8.82,3.03.47,5.44.18,7.24-.86,1.79-1.04,2.86-2.69,3.21-4.95.28-1.8-.03-3.32-.92-4.56s-2.59-2.24-5.1-2.99l-5.36-1.61c-11.22-3.35-16.09-9.81-14.62-19.37.51-3.34,1.81-6.17,3.91-8.48,2.09-2.31,4.83-3.93,8.2-4.86,3.38-.93,7.2-1.07,11.47-.41,8.22,1.26,14.29,4.96,18.19,11.08l-8.97,6.51c-1.22-1.98-2.75-3.59-4.58-4.85-1.83-1.25-4.14-2.09-6.91-2.52-2.83-.43-5.04-.25-6.64.56-1.6.81-2.54,2.16-2.83,4.06-.3,1.95.03,3.49.99,4.61.96,1.12,2.69,2.08,5.2,2.89l5.33,1.77c5.65,1.92,9.66,4.43,12.02,7.53,2.37,3.1,3.19,7.01,2.46,11.74-.55,3.6-1.9,6.64-4.04,9.12-2.14,2.49-4.98,4.25-8.5,5.28-3.53,1.04-7.55,1.21-12.07.51-8.63-1.33-15.25-5.5-19.86-12.52Z"/>
        <path class="cls-2" d="M774.51,276.36l-11.64-2.25,4.51-23.28-22.05-4.27-4.51,23.28-11.64-2.25,10.86-56.13,11.64,2.25-4.37,22.59,22.05,4.27,4.37-22.59,11.64,2.25-10.86,56.13Z"/>
        <path class="cls-2" d="M810.42,284.66l-25.99-6.03,2.13-9.19,7.22,1.67,8.66-37.31-7.22-1.67,2.13-9.19,25.99,6.03-2.13,9.19-7.22-1.67-8.66,37.31,7.22,1.67-2.13,9.19Z"/>
        <path class="cls-2" d="M831.52,290.07l-11.44-3.12,15.05-55.16,25.74,7.02c3.36.92,6.1,2.45,8.21,4.58s3.47,4.71,4.08,7.7.45,6.2-.48,9.61c-.95,3.46-2.44,6.32-4.48,8.56-2.04,2.25-4.52,3.75-7.42,4.52-2.91.77-6.04.7-9.4-.22l-14.3-3.9-5.56,20.39ZM843.86,244.84l-4.07,14.9,13.02,3.55c1.86.51,3.46.42,4.8-.27,1.34-.68,2.27-1.95,2.78-3.81l.95-3.46c.51-1.86.35-3.42-.46-4.69-.81-1.27-2.15-2.16-4-2.67l-13.02-3.55Z"/>
        <path class="cls-2" d="M869.62,291.95l9.92-4.95c2.26,5.45,6.13,9.08,11.61,10.88,2.92.96,5.34,1.07,7.28.34,1.94-.73,3.26-2.18,3.98-4.36.57-1.73.52-3.28-.16-4.65-.67-1.37-2.19-2.63-4.54-3.79l-5.02-2.47c-10.51-5.15-14.26-12.32-11.24-21.51,1.06-3.21,2.8-5.78,5.25-7.72,2.44-1.93,5.4-3.08,8.89-3.44,3.48-.36,7.28.13,11.38,1.48,7.9,2.6,13.28,7.24,16.12,13.92l-9.92,4.95c-.88-2.15-2.12-3.99-3.72-5.53-1.6-1.54-3.74-2.75-6.4-3.62-2.72-.89-4.93-1.07-6.64-.54-1.71.53-2.86,1.71-3.46,3.54-.62,1.88-.54,3.45.22,4.71.76,1.26,2.31,2.5,4.65,3.71l4.97,2.62c5.26,2.82,8.8,5.96,10.62,9.4,1.82,3.45,1.99,7.44.5,11.99-1.14,3.46-2.97,6.24-5.49,8.33-2.52,2.1-5.61,3.37-9.26,3.81-3.65.44-7.65-.05-11.99-1.48-8.3-2.73-14.14-7.93-17.53-15.61Z"/>
      </g>
    </g>
  </g>
</svg>