<?xml version="1.0" encoding="UTF-8"?>
<svg id="_圖層_2" data-name="圖層 2" xmlns="http://www.w3.org/2000/svg" width="110.87" height="164.74" viewBox="0 0 110.87 164.74">
  <defs>
    <style>
      .cls-1 {
        fill: #231815;
      }

      .cls-2 {
        stroke-width: .47px;
      }

      .cls-2, .cls-3, .cls-4, .cls-5 {
        stroke: #06292f;
      }

      .cls-2, .cls-4, .cls-5 {
        fill: #02292e;
        stroke-miterlimit: 10;
      }

      .cls-3 {
        fill: #06292f;
        stroke-linejoin: round;
        stroke-width: 1.89px;
      }

      .cls-6 {
        fill: #fff;
      }

      .cls-4 {
        stroke-width: .63px;
      }

      .cls-5 {
        stroke-width: 1.26px;
      }

      .cls-7 {
        fill: #18933b;
      }
    </style>
  </defs>
  <g id="icon">
    <g>
      <g>
        <path class="cls-7" d="M95.98,71.54c3.39-3.46,6.04-7.75,7.55-12.7,2.84-9.26,1.15-18.82-3.79-26.32l-38.02-11.64c-8.29,3.45-15.04,10.43-17.88,19.69-1.52,4.95-1.73,9.99-.86,14.75-18.64,4.31-34.54,18.16-40.55,37.77-8.96,29.27,7.49,60.26,36.76,69.22,29.27,8.96,60.26-7.49,69.22-36.76,6.01-19.61.59-39.99-12.44-54Z"/>
        <path class="cls-6" d="M100.53,50.07c-.82,4.19-2.73,8.07-4.8,11.81-1.24,2.24-4.85,6.38-11.99,8.4-6.16,1.74-12.96.03-18.78-2.64-5.82-2.67-10.79-7.37-13.24-13.29-2.45-5.92-2.17-13.02,1.23-18.44,2.75-4.39,7.45-7.5,12.57-8.32,4.53-.72,9.14.28,13.55,1.54,6.03,1.73,13.38,3.69,18.63,7.24,3.76,2.54,3.59,9.83,2.83,13.71Z"/>
        <path class="cls-1" d="M98.78,32.73c-8.42,2-19.34-1.81-19.34-1.81,0,0-11.59-3.06-17.35-9.68l-.47-.57s20.15-6.94,23.55-20.67l3.43,1.05,3.43,1.05c-4.88,13.27,7.93,30.31,7.93,30.31l-1.17.32Z"/>
        <path class="cls-1" d="M65.47,111.74s.09.07.17.2c.17.05.26.04.29-.06l.21.45c.16.09.35.22.47.34.19.13.28.2.38.27.06.06.09.07.13.08-.04.14-.03.22.08.25.24.07.41.16.56.29.09.07.24.23.44.44.02.05.12.11.2.21s.18.17.24.23c-.05.17-.04.26.03.28l.31.1c.1.18.1.3,0,.35-.09.05-.16.14-.21.32-.02.07.04.13.18.17l.31-.13c-.02.07.04.13.18.17-.03.11-.02.3.07.52.07.02.13.08.18.17.08.1.15.12.24.07-.03.1,0,.27.1.41.12.11.17.2.15.27l.24.07.37,1.03.48,1.06c.11.26.22.53.39.85.14.54,0,.99-.42,1.36-.14.07-.49.12-1,.15-.17-.05-.57-.02-1.12.16-.2.02-.28.18-.35.51l-.09.28c.01.08,0,.15.02.2l-.03.11c-.21-.06-.42-.13-.65-.24-.34-.14-.57-.25-.72-.41.05-.18.04-.26-.03-.28-.17-.05-.27-.12-.32-.21-.02.07-.1.08-.24.04-.61-.76-1.15-1.23-1.58-1.44.05-.18.04-.26-.03-.28l-.18.1c-.07-.02-.13-.08-.17-.2l-.15-.27-.21-.06c-.25-.31-.59-.68-1.03-1.12-.33-.29-.64-.54-.9-.81-.48-.57-.69-.86-.67-.93-.02.07-.1.08-.28.03-.1-.18-.24-.34-.38-.5-.23-.26-.39-.46-.45-.64l-.15.11c-.87-1.15-1.36-1.79-1.43-1.93l-.24-.07c-.25-.57-.59-.95-.95-1.13-.07-.02-.14-.16-.24-.46-.08-.25-.19-.37-.35-.34l-.66-.2c-.09.05-.23.39-.41.98l.04.24c-.09.05-.18.21-.28.53-.02.3-.1.7-.26,1.22-.15.49-.22.85-.22,1.08.04.36.03.66-.03.83.04.24-.02.57-.14.95l-.28.91c-.02.07.04.13.18.17l-.14.07c.07.02.12.11.15.27l.03.28-.2.66c-.1.31-.13.53-.1.7-.07-.02-.13.04-.18.21-.04.14-.1.2-.17.18.05.09.05.21,0,.38-.58.78-.99,1.23-1.15,1.37l-.1.31-.07-.14c-.09.05-.21.05-.35,0-.07-.02-.16.03-.28.18-.19.13-.3.22-.34.24l-.77.15c-.16.03-.43-.09-.84-.37-.09.05-.17.06-.24.04-.74-.57-1.19-1.09-1.33-1.52.03-.11.02-.19-.02-.31-.06-.17-.1-.3-.12-.34-.05-.09-.06-.17-.04-.24-.06-.17-.06-.44-.02-.81.04-.37.08-.63.12-.77l.88-4.01.05-.17c0-.12,0-.27.08-.51,0-.27.07-.48.11-.73.16-.91.29-1.56.4-1.94l.18-.33c.07-.09.11-.23.16-.41.03-.1-.03-.16-.17-.2.13-.19.43-1.02.89-2.52l.21-.7.14-.07-.07-.14.14-.07c-.12-.23-.2-.33-.24-.34-.46.13-1.01.42-1.71.85-.25.19-.57.36-.9.57-.33.2-.51.3-.56.33l.07.14c-.89.41-1.72,1.12-2.43,2.08-.02.07-.1.08-.24.04s-.22-.03-.24.04l.03.28s-.2.02-.41.1l-.06.21c-1.75,1.22-2.79,2.01-3.1,2.38-.03.11-.12.15-.33.2-.17.06-.31.13-.43.29-.24.27-.52.45-.9.57l-.21-.06c-.07-.02-.13.04-.18.21-.31-.1-.5-.12-.59-.07l-.07-.14-.14.07-.14.07-.1-.03.03-.11.03-.1-.14-.04-.14.07-.14.07c-.43-.21-.63-.57-.61-1.14-.27.15-.44.06-.52-.31.04-.64.25-1.57.65-2.86.14.04.22.03.24-.04-.07-.02-.06-.17.03-.49.15,0,.2.1.2.21l1.81-1.28c.07-.09.23-.24.42-.37l.55-.41c.25-.19.39-.26.43-.29l.06-.21c.3-.1.59-.32.92-.64.33-.32.62-.54.92-.64-.07-.02-.13.04-.17.18l.07.14c.45-.09,1-.38,1.65-.91.68-.48,1.11-.77,1.3-.86.18-.1.27-.26.28-.53l-.07-.14-.45.21c.21-.05.39-.15.63-.3.09-.05.23-.12.37-.19.15-.11.28-.18.33-.2l.06.17c.52-.57,1.02-.83,1.43-.79.07.02.13-.04.18-.21-.03-.16-.29-.17-.84,0l-.21-.06.19-.13.09-.05c-.19-.36-.41-.39-.7-.1-.03.1.03.16.2.21-.09.05-.21.05-.38,0l.14-.07c-.02-.2-.3-.28-.87-.27-.02.07.04.13.21.18-.45-.14-.76-.15-.94-.06-.07.24-.14.34-.25.31-.14-.04-.37-.04-.69.02-.17-.05-.43-.21-.84-.49l-.14.07c-.05-.09-.2-.21-.43-.36-.25-.19-.41-.39-.49-.53-.1-.18-.18-.17-.24.04l.14-.07-.24-.46-.21-.06-.17-.32s-.03-.16-.08-.37l-.24-.07-.11-.76c.09-.05.15-.11.17-.18l-.39-.73c-.07-.14.1-.31.45-.59.31-.25,1.15-.53,2.51-.84.14-.07.28-.18.39-.26.15-.11.32-.17.45-.21l.32-.17.24.07c1.8-.52,3.46-.7,5.05-.52-.02.07-.07.09-.14.07l-.17-.05-.14-.04-.03.11c-.02.07.18.17.6.3.67-.06,1.5-.04,2.52,0,.87.04,1.67.05,2.39.04-.05-.09-.03-.28.1-.58l.07-.24c.07-.09.09-.16.13-.19l.03-.11.27-.15c-.07-.02-.08-.1-.03-.28.01-.03.08-.13.16-.26.08-.13.18-.21.23-.24.17.05.26.04.28-.03l-.07-.14c-.1-.03-.09-.07,0-.12.23-.12.44-.32.7-.66.21-.32.47-.54.76-.72.25-.19.54-.14.88.12l.14-.07.13.31c.14.04.22.03.25-.08l.17.32c.35.11.6.41.78.96.12.34.04.74-.24,1.15l.07.14c-.24.27-.38.49-.41.6s.06.17.27.24l-.06.21c-.04.14-.03.22.04.24-.07-.02-.13.04-.18.21.1.18.22.29.39.35.45-.09.74-.04.91.16l.27-.15c.12.11.53.28,1.19.48.31.1.88.23,1.78.43.91.16,1.57.37,1.96.6.27.24.46.37.6.41l.13-.04h.12c.49.38,1.02.65,1.55.81l.31-.13s.16.09.35.22c.15.12.27.12.42.01.05.09.13.19.29.32.14.16.26.27.31.36l.45.14c.14.04.33.18.53.39.26.27.45.4.52.43.6.79.97,1.33,1.09,1.56.12.23.32.71.53,1.39.08.37.06.55-.07.59-.02.07-.07.09-.14.07s-.12,0-.14.07c-.14.95-.65,1.48-1.57,1.62l-.21-.06s-.09.05-.22.09l-.25.08c-.21.05-.37.08-.47.16-.04.14-.1.2-.17.18-.17-.05-.49-.03-.88.11-.45.09-.76.11-.97.05.04-.14.03-.22-.08-.25-.12-.11-.28-.2-.49-.27s-.34-.14-.41-.28c-.14.07-.22.09-.25.08l-.06-.17c-.14.07-.32.05-.6-.03l-.06-.17c-.05.18-.2.17-.43.02-.18-.17-.34-.26-.45-.29.04-.14.03-.22-.04-.24-.02.07-.1.08-.24.04-.17-.05-.26-.04-.28.03.02-.07-.04-.13-.11-.15l-.14.07-.07-.14-.14.07c.02-.07-.04-.13-.21-.18-.09.05-.17.06-.24.04-.12-.11-.49-.27-1.16-.47-.13.04-.21.05-.28.03s-.09-.07-.1-.18l-.02-.2-.41.22c-.1-.03-.16-.09-.21-.18-.07-.02-.12,0-.13.04s-.05.02-.12,0l-.14-.16c-.08-.1-.15-.12-.24-.07.12.11.43.09.97-.05-.19-.25-.94-.56-2.23-.95-.07-.02-.14.07-.21.32l-.07-.14-.17.06-.14.07-.21-.06c-.1.08-.22.09-.33.09-.08.01-.23,0-.42-.01-.19-.02-.3-.02-.34-.03l.15-.11c.02-.07-.04-.13-.18-.17-.14.07-.2.17-.25.31-.25.08-.63.57-1.14,1.48l.04.24c-.09.05-.17.18-.24.42.02.05.02.2-.07.36-.07.09-.1.2-.13.3.05.21.24.34.55.44,1.3.13,3.56,1.24,6.78,3.3.03.01.15.12.29.32.1.18.18.28.25.31l-.07-.02Z"/>
      </g>
      <g>
        <g>
          <path class="cls-4" d="M69.33,38.09c.38-.43.51-1.27-.02-1.67-1.24-.95-2.66-1.48-4.22-1.56-1.43-.08-2.92.29-4.14,1.05-.52.33-.78,1.07-.43,1.62.34.52,1.05.78,1.62.43.2-.13.42-.23.63-.34,0,0,.04-.02.08-.04.02-.01.05-.02.07-.04-.03.01-.04.02-.06.03.02,0,.04-.02.05-.02.07-.03.14-.05.21-.07.14-.05.28-.09.42-.12.14-.04.29-.07.43-.09,0,0,0,0,0,0,.04,0,.14-.02.17-.02.29-.03.59-.04.89-.02.08,0,.32.06.39.03,0,0,0,0,0,0,.07.01.15.02.22.04.29.05.58.13.86.22.04.02.09.03.14.05.02,0,.04.02.06.02.13.06.27.12.4.19.12.06.24.13.35.2.06.04.12.08.18.12.07.05.31.23.01,0,.26.2.5.34.84.34.29,0,.64-.14.83-.35Z"/>
          <path class="cls-4" d="M62.78,37.62s.03-.01.09-.04c0,0,0,0-.01,0-.03.01-.05.03-.08.04Z"/>
        </g>
        <path class="cls-4" d="M93.19,44.19c-2.17-1.96-4.97-3.15-7.87-3.44-.63-.06-1.22.48-1.26,1.1-.04.66.46,1.19,1.1,1.26,2.49.25,4.78,1.3,6.69,3.03.47.43,1.31.18,1.64-.3.4-.58.18-1.21-.3-1.64Z"/>
        <path class="cls-2" d="M88.72,46.75c-1.28-.28-2.57-.47-3.88-.6-.3-.1-.66-.05-.89.15,0,0,0,0,0,0-.2.15-.35.36-.36.62-.02.32.12.64.36.83.64.89,1.3,1.76,2.01,2.6.31.37.92.47,1.3.13.37-.33.46-.9.13-1.3-.27-.32-.53-.65-.78-.97.64.1,1.28.22,1.91.35.47.1.99-.35,1.02-.81.04-.54-.31-.91-.81-1.02Z"/>
        <path class="cls-2" d="M67.96,41.6c-.17-.3-.43-.44-.73-.56-.35-.14-.71-.27-1.06-.41-.71-.27-1.42-.54-2.13-.82-.21-.08-.52,0-.7.1-.19.11-.38.34-.42.56-.05.23-.04.49.1.7.14.22.32.33.56.42.41.16.83.32,1.24.48-.6.21-1.19.4-1.8.58-.46.14-.79.66-.64,1.14.16.47.64.78,1.14.64.7-.21,1.39-.43,2.07-.67.34-.12.68-.25,1.02-.38.17-.07.34-.13.51-.2.24-.1.49-.18.67-.37.31-.32.38-.82.16-1.21Z"/>
        <path class="cls-5" d="M78.35,44.99c-.11-.49-.33-.98-.61-1.39-.3-.45-.71-.91-1.19-1.17-.59-.32-1.28-.15-1.88.06-.51.18-1.01.43-1.46.74-.37.26-.54.79-.27,1.18.25.37.79.55,1.18.27.17-.12.34-.23.52-.32.05-.03.1-.05.15-.08,0,0,.03-.01.05-.02.03-.01.08-.03.09-.04.04-.02.08-.03.13-.05.19-.07.38-.13.58-.18.04-.01.09-.02.13-.03,0,0,.01,0,.01,0,.04.03.08.07.12.1.07.06.14.13.2.2.03.03.05.06.08.09,0,0,0,0,0,0,.06.08.11.15.16.23.05.08.1.16.14.24,0,0,.03.06.05.09,0,0,0,.01,0,.02.08.18.13.37.18.56.1.44.66.71,1.07.56.46-.17.67-.6.56-1.07Z"/>
        <path class="cls-3" d="M80.54,60.31c.97-.83,1.84-1.75,2.55-2.81.44-.65,1.22-1.64.82-2.41,0,0,0,0,0,0-.05-.17-.13-.28-.23-.35,0,0,.01-.01.02-.02-.11-.15-.28-.27-.51-.28-6.62-.31-13.1-2.18-18.89-5.39-.72-.4-1.27.75-.56,1.14.24.13.49.26.73.39.03.1.11.2.23.28.91.61,1.01,2.19,1.25,3.19.27,1.13.55,2.26.96,3.35.72,1.95,1.84,3.8,3.61,4.97.52.34,1.07.59,1.65.75.08.08.19.15.34.17.43.07.86.1,1.29.1.06.03.13.05.22.06,2.36.18,4.82-1.69,6.53-3.14ZM76.89,61.3c-.24.14-.49.28-.75.41-.04,0-.09.02-.13.03-.87.3-1.75.43-2.65.37-1.4-.18-2.66-.97-3.57-2.07-1.25-1.5-1.87-3.4-2.35-5.26-.23-.88-.35-2.06-.69-3.08,4.77,2.18,9.89,3.5,15.12,3.91.02.04.05.07.07.1.06,0,.11.01.17.03.08.04.15.12.18.21,0,.01,0,.03.01.04.08.12.1.28.07.42-.04.15-.11.28-.21.39-.09.11-.2.21-.31.3-.01.01-.03.02-.04.03-.18.24-.36.47-.55.7-.64.74-1.36,1.41-2.14,2-.7.54-1.45,1.02-2.22,1.46Z"/>
      </g>
    </g>
  </g>
</svg>