<?xml version="1.0" encoding="UTF-8"?>
<svg id="_圖層_2" data-name="圖層 2" xmlns="http://www.w3.org/2000/svg" width="819.25" height="504.7" viewBox="0 0 819.25 504.7">
  <g id="icon">
    <g>
      <path d="m790.65,146.35l-34.69-13.16C710.56,56.91,583.65,2,434.2,2S157.84,56.91,112.43,133.19l-34.69,13.16c-22.66,8.6-34.21,33.81-25.91,56.58l42.28,272.62c6.43,17.65,23.29,29.32,42.07,29.14l286.11-2.51,286.11,2.51c18.78.19,35.64-11.49,42.07-29.14l66.09-272.62c8.3-22.77-3.25-47.99-25.91-56.58Z" fill="#092a31"/>
      <path d="m759,149.37l-35.41-13.44C677.24,58.06,547.68,2,395.1,2S112.97,58.06,66.61,135.94l-35.41,13.44c-23.14,8.78-34.92,34.52-26.45,57.77l55.32,248.57c6.56,18.02,23.77,29.94,42.95,29.75l292.09-2.56,292.09,2.56c19.17.19,36.39-11.73,42.95-29.75l55.32-248.57c8.47-23.25-3.32-48.99-26.45-57.77Z" fill="gray" stroke="#092a31" stroke-miterlimit="10" stroke-width="4"/>
    </g>
    <g>
      <path d="m275.16,274.28c-3.9-4.37-5.84-10.71-5.84-19,0-5.56.89-10.31,2.67-14.25,1.78-3.94,4.32-6.94,7.62-8.99,3.3-2.05,7.19-3.07,11.65-3.07s8.27.96,11.28,2.87c3.01,1.91,5.42,4.88,7.24,8.88l-8.95,4.58c-1.55-4.74-4.74-7.11-9.57-7.11-3.33,0-5.98,1.12-7.96,3.35-1.98,2.23-2.97,5.38-2.97,9.43v7.93c0,4.01.99,7.13,2.97,9.36,1.98,2.23,4.64,3.35,7.96,3.35,2.55,0,4.67-.69,6.36-2.08,1.68-1.39,2.96-3.22,3.83-5.5l8.47,4.85c-3.83,7.97-10.05,11.96-18.66,11.96-6.83,0-12.2-2.19-16.09-6.56Z" fill="#fff"/>
      <path d="m325.22,277.87c-3.28-1.98-5.82-4.91-7.62-8.78-1.8-3.87-2.7-8.59-2.7-14.15s.9-10.29,2.7-14.18c1.8-3.89,4.34-6.83,7.62-8.82,3.28-1.98,7.15-2.97,11.62-2.97s8.27.99,11.55,2.97c3.28,1.98,5.82,4.92,7.62,8.82,1.8,3.9,2.7,8.62,2.7,14.18s-.9,10.28-2.7,14.15c-1.8,3.87-4.34,6.8-7.62,8.78-3.28,1.98-7.13,2.97-11.55,2.97s-8.34-.99-11.62-2.97Zm19.55-9.67c1.96-2.28,2.94-5.44,2.94-9.5v-7.59c0-4.05-.98-7.22-2.94-9.5-1.96-2.28-4.6-3.42-7.93-3.42s-6.09,1.14-8.03,3.42c-1.94,2.28-2.9,5.44-2.9,9.5v7.59c0,4.06.97,7.22,2.9,9.5,1.94,2.28,4.61,3.42,8.03,3.42s5.97-1.14,7.93-3.42Z" fill="#fff"/>
      <path d="m377.84,279.96h-9.77v-50.09h11l12.64,23.92h.21l12.44-23.92h11.07v50.09h-9.77v-33.97h-.21l-3.69,7.45-10.05,18.25-9.84-18.18-3.83-7.93h-.21v34.38Z" fill="#fff"/>
      <path d="m448.17,279.96h-23.37v-8.27h6.49v-33.56h-6.49v-8.27h23.37v8.27h-6.49v33.56h6.49v8.27Z" fill="#fff"/>
      <path d="m467.3,279.96h-9.77v-50.09h11.34l14.28,24.53,4.78,10.18h.27v-34.72h9.77v50.09h-11.35l-14.28-24.54-4.85-10.18h-.21v34.72Z" fill="#fff"/>
      <path d="m517.33,277.87c-3.1-1.98-5.54-4.91-7.31-8.78s-2.67-8.52-2.67-13.94.93-10.24,2.8-14.18c1.87-3.94,4.49-6.93,7.86-8.95,3.37-2.03,7.31-3.04,11.82-3.04s8.31.99,11.55,2.97c3.23,1.98,5.79,4.86,7.65,8.64l-8.47,4.78c-.91-2.19-2.24-3.93-4-5.23-1.75-1.3-4-1.95-6.73-1.95-3.55,0-6.36,1.08-8.41,3.25-2.05,2.16-3.08,5.32-3.08,9.46v8c0,4.15,1.03,7.3,3.08,9.47s4.87,3.25,8.47,3.25c2.92,0,5.33-.68,7.24-2.05,1.91-1.37,2.87-3.3,2.87-5.81v-2.8h-9.43v-8.68h19.34v27.68h-8.82v-7.93h-.34c-.41,2.6-1.75,4.72-4.03,6.36-2.28,1.64-5.24,2.46-8.88,2.46-3.92,0-7.43-.99-10.52-2.97Z" fill="#fff"/>
      <path d="m313.77,340.43l6.9-6.83c3.37,3.92,7.59,5.88,12.64,5.88,2.69,0,4.74-.57,6.15-1.71,1.41-1.14,2.12-2.71,2.12-4.72,0-1.59-.47-2.87-1.4-3.83-.93-.96-2.54-1.59-4.82-1.91l-4.85-.68c-10.16-1.41-15.24-6.36-15.24-14.83,0-2.96.75-5.58,2.26-7.86,1.5-2.28,3.66-4.04,6.46-5.3,2.8-1.25,6.09-1.88,9.88-1.88,7.29,0,13.03,2.39,17.22,7.18l-6.9,6.83c-1.32-1.55-2.86-2.74-4.61-3.59-1.75-.84-3.86-1.26-6.32-1.26s-4.4.46-5.67,1.37c-1.28.91-1.91,2.21-1.91,3.9s.49,3.02,1.47,3.86c.98.84,2.61,1.45,4.89,1.81l4.85.82c5.15.91,8.95,2.55,11.41,4.92,2.46,2.37,3.69,5.65,3.69,9.84,0,3.19-.76,6-2.29,8.44-1.53,2.44-3.75,4.34-6.66,5.71-2.92,1.37-6.38,2.05-10.39,2.05-7.65,0-13.94-2.73-18.86-8.2Z" fill="#fff"/>
      <path d="m369.47,345.66c-3.28-1.98-5.82-4.91-7.62-8.78-1.8-3.87-2.7-8.59-2.7-14.15s.9-10.29,2.7-14.18c1.8-3.89,4.34-6.83,7.62-8.82,3.28-1.98,7.15-2.97,11.62-2.97s8.27.99,11.55,2.97c3.28,1.98,5.82,4.92,7.62,8.82,1.8,3.9,2.7,8.62,2.7,14.18s-.9,10.28-2.7,14.15c-1.8,3.87-4.34,6.8-7.62,8.78-3.28,1.98-7.13,2.97-11.55,2.97s-8.34-.99-11.62-2.97Zm19.55-9.67c1.96-2.28,2.94-5.44,2.94-9.5v-7.59c0-4.05-.98-7.22-2.94-9.5-1.96-2.28-4.6-3.42-7.93-3.42s-6.09,1.14-8.03,3.42c-1.94,2.28-2.9,5.44-2.9,9.5v7.59c0,4.06.97,7.22,2.9,9.5,1.94,2.28,4.61,3.42,8.03,3.42s5.97-1.14,7.93-3.42Z" fill="#fff"/>
      <path d="m420.66,345.66c-3.28-1.98-5.82-4.91-7.62-8.78-1.8-3.87-2.7-8.59-2.7-14.15s.9-10.29,2.7-14.18c1.8-3.89,4.34-6.83,7.62-8.82,3.28-1.98,7.15-2.97,11.62-2.97s8.27.99,11.55,2.97c3.28,1.98,5.82,4.92,7.62,8.82,1.8,3.9,2.7,8.62,2.7,14.18s-.9,10.28-2.7,14.15c-1.8,3.87-4.34,6.8-7.62,8.78-3.28,1.98-7.13,2.97-11.55,2.97s-8.34-.99-11.62-2.97Zm19.55-9.67c1.96-2.28,2.94-5.44,2.94-9.5v-7.59c0-4.05-.98-7.22-2.94-9.5-1.96-2.28-4.6-3.42-7.93-3.42s-6.09,1.14-8.03,3.42c-1.94,2.28-2.9,5.44-2.9,9.5v7.59c0,4.06.97,7.22,2.9,9.5,1.94,2.28,4.61,3.42,8.03,3.42s5.97-1.14,7.93-3.42Z" fill="#fff"/>
      <path d="m473.28,347.74h-9.77v-50.09h11.34l14.28,24.53,4.78,10.18h.27v-34.72h9.77v50.09h-11.35l-14.28-24.54-4.85-10.18h-.21v34.72Z" fill="#fff"/>
    </g>
  </g>
</svg>