<?xml version="1.0" encoding="UTF-8"?>
<svg id="_圖層_2" data-name="圖層 2" xmlns="http://www.w3.org/2000/svg" width="1039.32" height="214.29" viewBox="0 0 1039.32 214.29">
  <defs>
    <style>
      .cls-1 {
        fill: #231815;
      }

      .cls-2, .cls-3, .cls-4, .cls-5, .cls-6, .cls-7 {
        stroke: #06292f;
      }

      .cls-2, .cls-3, .cls-4, .cls-6, .cls-7 {
        fill: #02292e;
      }

      .cls-2, .cls-4 {
        stroke-width: 1.2px;
      }

      .cls-2, .cls-5 {
        stroke-linejoin: round;
      }

      .cls-3 {
        stroke-width: 1.19px;
      }

      .cls-3, .cls-4, .cls-6, .cls-7 {
        stroke-miterlimit: 10;
      }

      .cls-8 {
        fill: #fff;
      }

      .cls-9 {
        fill: #fac959;
      }

      .cls-5 {
        stroke-width: 1.78px;
      }

      .cls-5, .cls-10 {
        fill: #06292f;
      }

      .cls-6 {
        stroke-width: .59px;
      }

      .cls-11 {
        fill: #18933b;
      }

      .cls-7 {
        stroke-width: .45px;
      }

      .cls-12 {
        fill: #092a31;
      }
    </style>
  </defs>
  <g id="_圖層1" data-name="圖層1">
    <g>
      <path class="cls-12" d="M374.96,28.37c-3.54-1.68-7.17-3.1-10.9-4.28l2.88-4.98c1.79.51,3.63,1.15,5.53,1.93,1.9.78,3.64,1.58,5.22,2.41l-2.73,4.92ZM375.54,16.69c-3.39-1.57-6.76-2.88-10.09-3.91l2.74-4.88c3.43.96,6.78,2.27,10.04,3.92l-2.69,4.87ZM379,33.33c-.69,2.77-1.6,5.68-2.73,8.73-1.13,3.06-2.36,5.7-3.68,7.93l-5.75-3.24c2.73-3.95,4.91-8.95,6.54-15l5.62,1.58ZM409.16,46.26l-2.07-2.73c-6.15,1.57-14.99,3.34-26.52,5.34l-1.12-5.23,5.02-.72c1.72-4.18,3.15-8.64,4.27-13.39l-10.22,1.09-.54-5.02,13.04-1.4-.67-6.24-11.53,1.23-.54-5.02,11.53-1.23-.73-6.77,6.09-.65.73,6.77,12.38-1.33.54,5.03-12.38,1.33.67,6.24,13.9-1.49.54,5.02-16.26,1.74c-1.14,4.87-2.4,9.18-3.76,12.93,4.37-.74,8.43-1.49,12.18-2.26-2.17-2.52-3.96-4.48-5.36-5.87l4.56-3.53c1.75,1.72,3.64,3.72,5.69,6.02,2.04,2.29,3.84,4.46,5.38,6.5l-4.8,3.65Z"/>
      <path class="cls-12" d="M471.07,0c1.42,1.75,3.75,3.26,7.01,4.53,3.26,1.26,7.89,2.43,13.91,3.5l-2.09,5.14c-5.34-1.09-9.68-2.27-13-3.53l.08,2.07-18.32.68-.08-2.16c-2.95,1.46-7.07,2.99-12.34,4.57l-2.46-4.97c5.72-1.54,10.06-3.04,13.03-4.5,2.97-1.47,5.09-3.14,6.37-5.02l7.89-.29ZM487.01,25.23l-37.04,1.38-.47-12.67,37.04-1.38.47,12.67ZM458.17,42.7l-5.72.21-.56-14.97,33.29-1.24.56,14.97-5.82.22-.05-1.4-21.76.81.05,1.4ZM455.1,17.53l.19,5.01,4.66-.17c-.82-1.23-1.71-2.39-2.66-3.47l2.98-1.56-5.16.19ZM479.56,31.97l-.06-1.49-21.76.81.06,1.49,21.76-.81ZM457.92,36.03l.06,1.58,21.76-.81-.06-1.58-21.76.81ZM465.31,22.16l-.19-5.01-3.49.13c.95,1.05,1.8,2.16,2.56,3.34l-3.08,1.69,4.2-.16ZM472.93,7.83c-2.66-1.47-4.48-3.25-5.47-5.35l-.51.02c-.73,2.07-2.35,3.99-4.85,5.73l10.83-.4ZM470.43,16.96l.19,5.01,4.96-.18-3.04-1.24c.78-.93,1.54-2.18,2.29-3.74l-4.4.16ZM481.3,21.56l-.19-5.01-5.16.19,3.23,1.1c-.37.89-.72,1.63-1.03,2.23-.32.6-.68,1.15-1.1,1.64l4.25-.16Z"/>
      <path class="cls-12" d="M524.42,14.74c5.95-2.48,10.39-4.81,13.34-7,2.95-2.19,5.17-4.71,6.67-7.55l8.3.24c1.27,2.83,3.42,5.44,6.46,7.81,3.04,2.37,7.54,5,13.5,7.88l-3.65,5.31c-4.56-2.33-8.24-4.44-11.04-6.34-2.8-1.9-4.96-3.82-6.47-5.76s-2.44-4.04-2.78-6.31h-.51c-.47,2.23-1.48,4.28-3.04,6.15-1.56,1.87-3.73,3.67-6.51,5.41-2.78,1.74-6.42,3.63-10.9,5.67l-3.39-5.51ZM524.56,36.64c3.25-1.56,5.69-3.07,7.32-4.51,1.63-1.44,2.77-3.08,3.43-4.91.66-1.83,1.03-4.27,1.12-7.3l.08-2.84,6.43.18-.08,2.75c-.11,3.79-.62,6.94-1.54,9.46-.92,2.52-2.4,4.73-4.44,6.65-2.05,1.91-4.92,3.75-8.62,5.51l-3.71-4.98ZM560.42,42.17l-6.38-.18.69-24.4,6.38.18-.69,24.4Z"/>
      <path class="cls-12" d="M602.71,40.38c.96-1.93,1.76-3.8,2.39-5.6s1.18-3.75,1.65-5.85l4.56,1.25c-.51,2.55-1.1,4.87-1.75,6.95-.66,2.08-1.46,4.06-2.42,5.94l-4.42-2.69ZM624.8,18.77c.84,2.56,1.67,5.84,2.47,9.84l-4.59,1.2c-.04-.28-.17-.94-.37-1.98l-4.12.02-1.69,17.83-5.49-.52,1.65-17.43c-3.85-.18-6.72-.33-8.6-.45l-.05-4.81c2.45.23,4.29.39,5.5.48,1-.9,2.09-1.98,3.26-3.23-1.91-2.36-4.19-4.84-6.82-7.45l3.68-3.46c.56.54,1.01.99,1.35,1.35,1.81-2.28,3.31-4.49,4.5-6.64l4.86,2.37c-2.21,3.33-4.21,5.98-5.99,7.95.65.7,1.24,1.39,1.79,2.07,2.26-2.69,4-5,5.24-6.94l4.61,2.84c-1.55,2.09-3.23,4.14-5.03,6.16-1.8,2.02-3.52,3.8-5.16,5.33l5.63.13c-.29-1.21-.62-2.39-.99-3.54l4.38-1.13ZM623.04,30.39c1.07,3.73,1.76,7.53,2.07,11.39l-4.95,1.25c-.21-4.58-.72-8.54-1.52-11.88l4.4-.76ZM631.32,47.08l-5.6-.53,1.88-19.81,22.28,2.11-1.88,19.81-5.7-.54.2-2.07-10.99-1.04-.2,2.07ZM628.75,6.09l23.84,2.26c-.4,4.16-.72,7.14-.97,8.93-.25,1.79-.59,3.43-1,4.94-.39,1.59-1.14,2.7-2.25,3.32-1.11.62-2.67.83-4.69.64l-5.19-.49-1.1-5,5.65.54c.74.07,1.28-.01,1.63-.25.34-.24.58-.67.71-1.29.33-1.39.66-3.77.98-7.16l-6.3-.6c-.62,3.36-1.8,6.17-3.52,8.44-1.72,2.27-4.45,4.15-8.19,5.64l-2.48-4.95c2.87-1,4.93-2.28,6.16-3.86,1.23-1.58,2.03-3.51,2.38-5.8l-6.1-.58.45-4.72ZM643.74,33.03l-10.99-1.04-.78,8.22,10.99,1.04.78-8.22Z"/>
    </g>
    <g>
      <path class="cls-12" d="M213.25,170.26c-5.66-3.56-9.81-9.88-12.44-18.97-1.77-6.09-2.3-11.58-1.61-16.47.7-4.88,2.53-8.98,5.5-12.27,2.97-3.3,6.9-5.65,11.8-7.07,4.94-1.43,9.37-1.58,13.27-.44,3.9,1.14,7.49,3.62,10.76,7.44l-8.36,7.86c-3.2-4.7-7.45-6.29-12.75-4.75-3.65,1.06-6.2,3.12-7.66,6.2-1.46,3.08-1.55,6.84-.26,11.28l2.52,8.69c1.27,4.4,3.35,7.5,6.23,9.32,2.88,1.82,6.15,2.2,9.79,1.14,2.8-.81,4.9-2.24,6.3-4.3,1.41-2.06,2.22-4.47,2.45-7.25l10.83,2.63c-1.66,9.96-7.21,16.3-16.65,19.04-7.49,2.17-14.07,1.48-19.73-2.08Z"/>
      <path class="cls-12" d="M296.23,145.01l2.29,10.28-37.45,8.36-12.46-55.8,37.45-8.36,2.29,10.28-25.88,5.78,2.72,12.18,22.38-5,2.28,10.2-22.38,5,2.87,12.87,25.88-5.78Z"/>
      <path class="cls-12" d="M316.85,130.29l3.51,21.08-11.69,1.95-9.39-56.4,26.24-4.37c3.44-.57,6.55-.33,9.33.74,2.79,1.07,5.08,2.82,6.89,5.26,1.8,2.44,3,5.43,3.59,8.97.66,3.95.35,7.47-.93,10.55-1.28,3.09-3.51,5.53-6.69,7.32l14.97,20.6-13,2.17-13.59-19.4-9.23,1.54ZM328.37,118.25c1.9-.32,3.31-1.07,4.25-2.25.94-1.18,1.24-2.75.92-4.7l-.59-3.54c-.32-1.9-1.11-3.25-2.38-4.07-1.27-.82-2.85-1.07-4.75-.75l-13.16,2.19,2.55,15.31,13.16-2.19Z"/>
      <path class="cls-12" d="M399.11,129.9l1.22,10.46-38.12,4.43-6.61-56.79,38.12-4.43,1.22,10.46-26.34,3.06,1.44,12.4,22.78-2.65,1.21,10.38-22.78,2.65,1.52,13.09,26.34-3.06Z"/>
      <path class="cls-12" d="M421.79,138.54l-11.13.72-3.68-57.05,12.53-.81,16.16,26.31.23-.02,12.41-28.16,12.61-.81,3.68,57.05-11.13.72-2.5-38.69h-.23s-3.66,8.77-3.66,8.77l-10.1,21.52-12.54-19.98-4.94-8.75-.23.02,2.53,39.15Z"/>
      <path class="cls-12" d="M486.28,132.95c-3.77-2.22-6.7-5.53-8.81-9.93-2.1-4.4-3.19-9.77-3.26-16.11-.07-6.34.9-11.75,2.9-16.22,2-4.47,4.87-7.85,8.59-10.16,3.72-2.3,8.13-3.48,13.22-3.54,5.04-.06,9.45,1.03,13.22,3.25,3.77,2.22,6.7,5.54,8.81,9.97,2.1,4.42,3.19,9.81,3.26,16.15.07,6.34-.9,11.74-2.9,16.18-2.01,4.44-4.87,7.81-8.59,10.12-3.72,2.3-8.1,3.48-13.14,3.54-5.1.06-9.53-1.03-13.3-3.25ZM508.47,121.67c2.21-2.62,3.29-6.25,3.23-10.88l-.09-8.66c-.05-4.63-1.21-8.23-3.47-10.8-2.26-2.58-5.29-3.84-9.09-3.8-3.9.04-6.94,1.38-9.12,4-2.18,2.62-3.25,6.25-3.2,10.88l.1,8.66c.05,4.63,1.19,8.23,3.43,10.81,2.24,2.58,5.31,3.84,9.21,3.8,3.79-.04,6.8-1.37,9-4Z"/>
      <path class="cls-12" d="M545.72,135.5l-11.15-.41,2.08-57.14,12.94.47,15.27,28.58,5.03,11.81h.31s1.44-39.59,1.44-39.59l11.15.4-2.08,57.14-12.94-.47-15.27-28.58-5.11-11.82h-.23s-1.44,39.59-1.44,39.59Z"/>
      <path class="cls-12" d="M620.53,117.22l-1.86,22.47-11.89-.98,1.84-22.31-16.73-36.29,13.21,1.09,10.67,24.28h.16s14.2-22.22,14.2-22.22l12.83,1.06-22.44,32.9Z"/>
      <path class="cls-12" d="M687.99,147.91l-26.42-3.69,1.31-9.35,7.34,1.03,5.3-37.93-7.34-1.03,1.31-9.35,26.42,3.69-1.31,9.35-7.34-1.03-5.3,37.93,7.34,1.03-1.31,9.35Z"/>
      <path class="cls-12" d="M708.9,151.34l-10.96-2.06,10.55-56.19,12.73,2.39,10.85,30.53,3.22,12.43.31.06,7.31-38.94,10.96,2.06-10.55,56.19-12.73-2.39-10.85-30.53-3.3-12.44-.23-.04-7.31,38.94Z"/>
      <path class="cls-12" d="M772.42,140.43l-5.79,23-11.5-2.89,13.95-55.45,36.31,9.14-2.57,10.21-24.81-6.24-3.04,12.1,21.33,5.37-2.55,10.14-21.33-5.37Z"/>
      <path class="cls-12" d="M807.91,172.14c-2.85-3.32-4.57-7.39-5.14-12.23-.58-4.84.12-10.27,2.1-16.3,1.98-6.03,4.63-10.84,7.97-14.42,3.34-3.59,7.14-5.87,11.4-6.85,4.26-.98,8.81-.68,13.66.9,4.79,1.57,8.62,4.01,11.47,7.33,2.85,3.31,4.56,7.4,5.13,12.27.57,4.86-.14,10.31-2.11,16.34-1.98,6.03-4.63,10.82-7.96,14.38-3.33,3.56-7.12,5.83-11.39,6.82-4.26.98-8.79.69-13.58-.88-4.84-1.59-8.69-4.04-11.54-7.35ZM832.55,168.59c2.93-1.77,5.12-4.86,6.56-9.26l2.7-8.23c1.44-4.4,1.5-8.18.19-11.35-1.32-3.17-3.78-5.34-7.38-6.52-3.71-1.21-7.01-.93-9.92.85-2.91,1.78-5.08,4.87-6.53,9.27l-2.7,8.23c-1.44,4.4-1.52,8.18-.23,11.33,1.29,3.16,3.79,5.35,7.5,6.56,3.61,1.18,6.88.89,9.81-.89Z"/>
    </g>
    <g>
      <path class="cls-11" d="M1023.87,135.12c4.02-2.2,7.59-5.36,10.32-9.43,5.1-7.6,6.2-16.72,3.79-24.86l-31.21-20.96c-8.45.85-16.47,5.31-21.58,12.92-2.73,4.07-4.31,8.57-4.82,13.12-18.05-1.21-36.24,6.96-47.05,23.06-16.14,24.03-9.74,56.59,14.29,72.72,24.03,16.14,56.59,9.74,72.72-14.29,10.81-16.1,11.49-36.03,3.54-52.28Z"/>
      <path class="cls-8" d="M1033.87,116.93c-1.89,3.56-4.69,6.56-7.58,9.37-1.74,1.69-6.14,4.45-13.15,4.31-6.05-.12-11.74-3.53-16.27-7.54s-7.75-9.63-8.34-15.65c-.59-6.02,1.61-12.38,6.17-16.35,3.69-3.22,8.8-4.75,13.66-4.09,4.29.59,8.2,2.76,11.84,5.11,4.99,3.22,11.1,7.01,14.87,11.66,2.7,3.33.55,9.88-1.2,13.18Z"/>
      <path class="cls-1" d="M1037.04,100.76c-8.17-.5-17-6.94-17-6.94,0,0-9.65-5.94-13.05-13.52l-.27-.64s20.14-.76,26.97-12.25l2.81,1.89,2.81,1.89c-8.05,10.67-1.13,29.6-1.13,29.6l-1.15-.03Z"/>
      <path class="cls-1" d="M988.17,163.39s.06.09.08.23c.14.1.21.12.28.03l.04.46c.12.13.24.31.31.45.12.18.19.27.25.36.03.07.06.09.09.11-.08.11-.1.19-.01.25.19.14.31.28.41.43.06.09.14.28.25.53,0,.05.07.14.11.26s.1.21.14.28c-.1.14-.12.21-.06.26l.25.19c.03.19,0,.3-.1.31-.1.01-.19.08-.29.22-.04.06,0,.12.1.21l.32-.02c-.04.06,0,.12.1.21-.06.08-.11.26-.1.48.06.04.09.11.1.21.04.12.1.16.19.14-.06.08-.09.24-.04.4.07.14.08.23.04.29l.19.14v1.04s.09,1.1.09,1.1c.01.27.03.54.08.88-.05.53-.32.89-.81,1.08-.14.02-.48-.05-.94-.18-.14-.1-.5-.2-1.04-.22-.18-.05-.31.07-.47.34l-.17.22c-.01.08-.05.13-.05.18l-.06.08c-.17-.12-.33-.25-.51-.42-.26-.23-.43-.41-.51-.59.1-.14.12-.21.06-.26-.14-.1-.2-.19-.22-.29-.04.06-.12.04-.23-.04-.3-.87-.63-1.46-.95-1.79.1-.14.12-.21.06-.26l-.19.03c-.06-.04-.09-.11-.08-.23l-.04-.29-.17-.12c-.13-.35-.31-.79-.56-1.33-.2-.37-.4-.68-.54-1.01-.24-.66-.34-.99-.3-1.04-.04.06-.12.04-.26-.06-.03-.19-.1-.38-.18-.57-.12-.3-.2-.54-.2-.71l-.17.05c-.41-1.3-.64-2.03-.66-2.18l-.19-.14c-.04-.59-.22-1.03-.49-1.31-.06-.04-.08-.19-.07-.48.01-.25-.06-.39-.21-.41l-.53-.39c-.1.01-.33.27-.68.74l-.04.23c-.1.01-.23.13-.41.38-.11.26-.31.59-.62,1-.29.39-.47.69-.54.89-.08.33-.19.59-.29.73-.04.23-.2.5-.43.8l-.54.72c-.04.06,0,.12.1.21l-.14.02c.06.04.07.14.04.29l-.06.26-.39.53c-.19.25-.28.44-.31.59-.06-.04-.12,0-.23.13-.08.11-.15.15-.21.1.01.1-.02.2-.12.34-.77.51-1.27.78-1.46.85l-.19.25-.02-.14c-.1.01-.2-.02-.31-.1-.06-.04-.15-.03-.31.07-.21.06-.33.1-.38.1l-.73-.12c-.15-.03-.35-.22-.63-.6-.1.01-.17,0-.23-.04-.48-.75-.72-1.35-.7-1.77.06-.08.08-.16.08-.28,0-.17,0-.3,0-.35-.01-.1,0-.17.04-.23,0-.17.09-.41.24-.73.15-.32.27-.53.35-.64l2.06-3.29.1-.14c.03-.1.09-.23.23-.43.09-.24.21-.4.33-.62.43-.75.75-1.29.98-1.6l.26-.24c.09-.06.17-.17.28-.31.06-.08.03-.15-.08-.23.18-.12.7-.77,1.59-1.96l.41-.55.15-.02-.02-.14.14-.02c-.04-.24-.08-.36-.1-.38-.45-.03-1.03.05-1.8.21-.28.09-.62.14-.98.22-.36.08-.55.1-.6.11l.02.14c-.93.09-1.89.45-2.83,1.08-.04.06-.12.04-.23-.04s-.19-.1-.23-.04l-.06.26s-.18-.05-.4-.04l-.12.17c-1.95.53-3.13.9-3.51,1.13-.06.08-.16.1-.36.08-.17,0-.32.02-.48.12-.3.17-.61.24-.98.22l-.17-.12c-.06-.04-.12,0-.23.13-.25-.19-.41-.26-.5-.25l-.02-.14-.14.02-.15.02-.08-.06.06-.08.06-.08-.11-.08-.14.02-.15.02c-.32-.32-.37-.71-.18-1.21-.29.04-.41-.09-.36-.44.24-.55.72-1.31,1.49-2.34.11.08.19.1.23.04-.06-.04,0-.17.19-.42.13.06.15.15.11.26l2.02-.57c.09-.06.28-.14.49-.19l.61-.19c.28-.09.43-.11.48-.12l.12-.17c.3,0,.63-.09,1.02-.27.39-.18.72-.28,1.02-.27-.06-.04-.12,0-.21.1l.02.14c.43.06,1.01-.02,1.76-.28.76-.21,1.24-.33,1.43-.36.19-.03.32-.15.41-.38l-.02-.15-.46.04c.2.02.39,0,.66-.07.1-.01.24-.03.39-.06.17-.05.31-.07.36-.08v.17c.64-.34,1.17-.42,1.52-.25.06.04.12,0,.23-.13.03-.15-.21-.24-.75-.26l-.17-.12.21-.06h.1c-.06-.4-.24-.5-.59-.32-.06.08-.03.15.11.26-.1.01-.2-.02-.34-.12l.14-.02c.05-.18-.17-.35-.69-.52-.04.06,0,.12.13.23-.36-.27-.62-.38-.82-.35-.14.19-.23.26-.32.19-.11-.08-.32-.15-.62-.21-.14-.1-.32-.32-.6-.7l-.14.02c-.01-.1-.11-.26-.26-.46-.16-.25-.24-.48-.26-.63-.03-.19-.1-.21-.23-.04l.14-.02-.07-.48-.17-.12-.05-.34s.03-.15.05-.35l-.19-.14.14-.71c.1-.01.17-.05.21-.1l-.11-.77c-.02-.14.19-.25.59-.38.35-.13,1.2-.1,2.5.06.15-.02.31-.07.43-.11.17-.05.34-.05.46-.04l.34-.05.19.14c1.77.11,3.3.48,4.66,1.15-.04.06-.09.06-.14.02l-.14-.1-.11-.08-.06.08c-.04.06.1.21.44.45.62.16,1.35.45,2.24.81.76.31,1.47.58,2.12.8-.01-.1.06-.26.28-.48l.14-.19c.09-.06.13-.12.18-.12l.06-.08.29-.04c-.06-.04-.04-.12.06-.26.02-.03.11-.09.22-.18.11-.09.23-.13.28-.14.14.1.21.12.26.06l-.02-.14c-.08-.06-.06-.09.03-.1.24-.04.5-.15.84-.37.29-.22.59-.33.9-.4.28-.09.53.05.75.39l.14-.02.02.32c.11.08.19.1.25.01l.05.34c.28.21.4.56.38,1.1,0,.35-.2.67-.58.95l.02.15c-.3.17-.5.32-.56.4s0,.17.17.3l-.12.17c-.08.11-.1.19-.04.23-.06-.04-.12,0-.23.13.03.19.1.33.24.43.43.06.67.2.75.43l.29-.04c.07.14.38.41.91.81.25.19.71.49,1.45.95.75.43,1.28.83,1.55,1.16.17.3.29.48.4.56h.12s.1.04.1.04c.32.5.7.91,1.12,1.22l.32-.02s.12.13.24.31c.1.16.2.19.37.14.01.1.06.21.15.37.08.19.15.32.16.42l.36.27c.11.08.24.26.35.52.15.32.27.5.33.55.28.9.44,1.49.47,1.73.04.24.06.73.03,1.4-.05.35-.12.51-.25.51-.04.06-.09.06-.14.02s-.1-.03-.14.02c-.43.8-1.05,1.12-1.91.94l-.17-.12s-.1.01-.22,0h-.25c-.2-.03-.35-.06-.47-.02-.08.11-.15.15-.21.1-.14-.1-.42-.19-.82-.18-.43-.06-.71-.14-.88-.27.08-.11.1-.19.01-.25-.07-.14-.19-.27-.35-.39s-.26-.23-.28-.38c-.15.02-.22,0-.25-.01v-.17c-.15.02-.3-.05-.53-.22v-.17c-.1.14-.24.08-.39-.12-.1-.21-.22-.34-.31-.4.08-.11.1-.19.04-.23-.04.06-.12.04-.23-.04-.14-.1-.21-.12-.26-.06.04-.06,0-.12-.05-.17l-.14.02-.02-.14-.14.02c.04-.06,0-.12-.13-.23-.1.01-.17,0-.23-.04-.07-.14-.35-.39-.88-.79-.12,0-.2-.02-.26-.06s-.06-.09-.03-.19l.05-.18-.44.06c-.08-.06-.12-.13-.13-.23-.06-.04-.1-.03-.12,0s-.05,0-.1-.03l-.08-.19c-.04-.12-.1-.16-.19-.14.07.14.35.22.88.27-.09-.28-.66-.79-1.68-1.56-.06-.04-.15.02-.29.22l-.02-.14h-.17s-.15.02-.15.02l-.17-.12c-.12.04-.22,0-.32-.03-.08-.01-.21-.07-.37-.14-.16-.08-.26-.11-.29-.13l.17-.05c.04-.06,0-.12-.1-.21-.14.02-.23.08-.32.19-.25-.01-.75.31-1.49.96l-.04.23c-.1.01-.21.1-.35.3,0,.05-.05.18-.18.3-.09.06-.15.15-.21.23-.02.2.1.38.35.57,1.11.53,2.77,2.24,4.99,5.1.03.02.1.16.15.37.03.19.07.31.13.35l-.06-.04Z"/>
      <g>
        <path class="cls-6" d="M1010.11,98.3c.47-.28.81-1.01.45-1.51-.86-1.2-1.99-2.07-3.38-2.58-1.27-.47-2.72-.54-4.03-.19-.56.15-1,.75-.83,1.34.16.57.74,1,1.34.83.22-.06.44-.09.66-.13,0,0,.04,0,.08-.01.03,0,.05,0,.08-.01-.03,0-.05,0-.07.01.02,0,.04,0,.05,0,.07,0,.14,0,.21,0,.14,0,.28,0,.42,0,.14,0,.28.02.42.04,0,0,0,0,0,0,.04.02.13.02.16.03.27.06.54.13.81.22.07.02.27.14.35.14,0,0,0,0,0,0,.06.03.13.06.19.09.25.13.48.28.71.44.04.03.07.05.11.08.02.01.03.03.05.04.11.09.21.19.31.28.09.09.18.18.26.28.05.05.09.11.13.16.05.06.22.29.01,0,.18.25.36.45.66.54.26.08.61.05.85-.09Z"/>
        <path class="cls-6" d="M1004.32,96.05s.03,0,.09-.01c0,0,0,0-.01,0-.03,0-.05,0-.08.01Z"/>
      </g>
      <path class="cls-6" d="M1030,110.42c-1.42-2.37-3.62-4.22-6.16-5.3-.56-.23-1.23.09-1.44.64-.22.58.09,1.21.64,1.44,2.18.92,3.96,2.5,5.21,4.59.31.52,1.14.53,1.57.19.52-.41.5-1.05.19-1.57Z"/>
      <path class="cls-7" d="M1025.25,111.5c-1.08-.61-2.19-1.14-3.34-1.62-.25-.17-.58-.23-.85-.11,0,0,0,0,0,0-.22.08-.41.23-.5.46-.11.28-.07.61.09.85.33.98.69,1.95,1.1,2.91.18.42.7.68,1.14.48.42-.19.67-.69.48-1.14-.15-.36-.3-.73-.44-1.1.55.27,1.1.55,1.63.85.4.22.99-.04,1.15-.45.18-.48-.02-.91-.45-1.15Z"/>
      <path class="cls-7" d="M1007.9,101.09c-.07-.31-.26-.52-.51-.71-.28-.22-.57-.44-.85-.66-.57-.44-1.13-.89-1.7-1.33-.16-.13-.47-.15-.66-.1-.21.05-.43.2-.54.39-.11.2-.17.44-.1.66.07.24.2.39.39.54.33.26.66.52.99.78-.6.02-1.19.03-1.79.03-.46,0-.9.38-.89.85.01.47.37.88.85.89.69,0,1.38,0,2.06-.03.34-.02.69-.04,1.03-.06.17-.01.34-.03.51-.04.25-.02.49-.02.71-.15.37-.2.57-.63.48-1.05Z"/>
      <path class="cls-3" d="M1016.36,107.03c.03-.48-.02-.97-.17-1.43-.15-.49-.39-1.02-.75-1.39-.45-.46-1.11-.49-1.71-.47-.52.02-1.03.11-1.53.27-.4.13-.71.56-.57.99.13.4.56.71.99.57.18-.06.37-.11.56-.15.05-.01.1-.02.16-.03,0,0,.03,0,.05,0,.03,0,.08,0,.09,0,.04,0,.09,0,.13-.01.19-.01.38-.01.58,0,.04,0,.08,0,.13,0,0,0,0,.01,0,.01.03.04.05.08.08.12.05.08.09.15.13.23.02.03.03.07.05.1,0,0,0,0,0,0,.03.08.06.17.08.25.02.09.04.17.06.26,0,0,.01.07.02.1,0,0,0,.01,0,.02.02.19.02.37,0,.56-.03.42.4.83.81.81.47-.02.77-.36.81-.81Z"/>
      <path class="cls-5" d="M1014.1,121.49c1.11-.48,2.15-1.07,3.09-1.83.58-.47,1.55-1.14,1.41-1.95,0,0,0,0,0,0,0-.17-.04-.29-.11-.38,0,0,.01,0,.02-.01-.06-.17-.18-.32-.39-.39-5.9-2.12-11.24-5.6-15.59-10.11-.54-.56-1.36.32-.82.88.18.19.37.37.55.56,0,.1.04.21.13.32.65.81.31,2.26.25,3.23-.07,1.1-.13,2.2-.07,3.3.11,1.97.61,3.95,1.89,5.49.37.45.81.83,1.29,1.14.05.1.13.19.26.25.37.18.75.33,1.14.45.05.04.1.08.18.11,2.08.82,4.83-.19,6.77-1.03ZM1010.52,121.37c-.26.06-.52.12-.79.17-.04,0-.08,0-.13,0-.87.04-1.7-.1-2.5-.4-1.21-.55-2.13-1.62-2.66-2.86-.71-1.7-.75-3.59-.67-5.41.04-.86.25-1.96.22-2.97,3.7,3.29,7.97,5.9,12.59,7.72,0,.04.02.07.04.11.05.02.1.04.14.08.06.05.1.15.11.24,0,.01,0,.03,0,.04.04.13.01.29-.06.4-.07.12-.18.22-.3.3-.11.08-.24.13-.37.19-.02,0-.03.01-.05.02-.22.17-.45.33-.69.48-.78.5-1.62.9-2.49,1.22-.79.29-1.59.52-2.41.71Z"/>
    </g>
    <g>
      <path class="cls-9" d="M59.55,108.67c.13-4.62-.8-9.34-2.95-13.79-4.02-8.32-11.4-13.92-19.72-15.97L2.72,95.42c-3.57,7.79-3.77,17.06.25,25.37,2.15,4.45,5.27,8.12,8.97,10.88-10.25,15.11-12.4,35.11-3.89,52.73,12.7,26.3,44.32,37.32,70.62,24.61,26.3-12.7,37.32-44.32,24.61-70.62-8.51-17.62-25.52-28.37-43.73-29.73Z"/>
      <path class="cls-8" d="M48.79,90.65c2.14,3.46,3.32,7.42,4.3,11.38.59,2.38.75,7.61-2.94,13.65-3.19,5.21-9.05,8.42-14.85,10.33-5.8,1.91-12.33,1.84-17.88-.71-5.55-2.55-9.96-7.71-11.1-13.71-.92-4.86.35-10.09,3.4-13.98,2.7-3.44,6.58-5.74,10.48-7.71,5.35-2.7,11.76-6.09,17.74-7.01,4.28-.66,8.89,4.56,10.87,7.76Z"/>
      <path class="cls-1" d="M36.34,79.69c-4.6,6.86-14.71,11.27-14.71,11.27,0,0-10.09,5.38-18.42,4.48l-.7-.09s9.61-17.93,3.08-29.73l3.08-1.49,3.08-1.49c5.19,12.45,25.21,16.07,25.21,16.07l-.61.98Z"/>
      <path class="cls-1" d="M68.28,146.71c.1-.04.16.01.22.17-.16.07-.23.17-.2.34l.03.25c.03.36,0,.83-.11,1.4-.1.04-.38.27-.83.64.07.16.07.27.03.36l-.14.02h-.16s-.06.12-.06.12c-.58-.03-.81.14-.76.46l-.26.1c-.06.03-.28-.04-.6-.17,0-.45-.18-.64-.5-.59-.07.1-.06.21,0,.38-.06.03-.16-.01-.32-.13-.08-.12-.27-.19-.5-.21l.03-.12v-.16c-.08.04-.13.02-.14-.01s-.05-.02-.11,0l-.09.15c-.38-.3-.71-.35-.89-.16-.07-.16-.15-.28-.24-.32-.32.05-.8-.02-1.49-.15-.62-.13-1.1-.2-1.49-.15-.25-.16-.7-.24-1.31-.26s-1.1-.12-1.49-.34c-.1.04-.21.05-.34-.01-.16-.01-.25.03-.29.12-.62-.05-2.14-.26-4.57-.59-.54-.12-.83-.19-.89-.16-.6,1.03-.96,1.63-1.02,1.77-.23.09-.42.36-.59.77-.13.43-.29.68-.45.75.03.06.03.17.02.33-.06.14-.05.25-.01.34-.12.09-.21.31-.31.62-.04.17-.07.29-.09.34-.04.28-.1.49-.15.66-.12.35-.17.52-.19.56.04.1.08.12.12.1s.08,0,.1.07c.87-.54,1.36-.93,1.43-1.11l.58-.24s.14-.13.26-.37c.09.04.23.02.39-.05.46-.45,1.2-.94,2.3-1.46l.91-.44.67-.31c.15-.1.25-.14.28-.15.2.03.41-.01.7-.13s.47-.15.56-.11c.07-.1.19-.19.32-.24l.1.07.12.1c.16-.07.25-.14.3-.27.16.12.38.19.65.22.32.06.52.09.57.11.13.78.47,1.16,1.05,1.19.3.74.39,1.34.31,1.79-.1.04-.14.02-.16-.01s-.06-.05-.12-.03c-.07.1-.05.25.01.41l-.23.09c-.21.5-.57.91-1.02,1.2-.1.04-.21.05-.4.05-.17-.04-.25.03-.28.23-.05-.02-.16-.01-.34-.01-.17.03-.28.04-.39.05-.32.05-.53-.01-.66-.15l-.08.18c-.23-.1-.5.05-.76.46.03.06.07.27.18.64s.15.65.18.83c.03.18.09.41.11.74.15.09.3.37.47.79.09.04.2.03.36-.03s.27-.07.31.02c-.04-.1-.05-.13-.02-.14s.05-.06.03-.12c.51-.32,1.06-.54,1.65-.67l.18-.49c.29-.12.59-.2.9-.29.47-.15.73-.33.79-.55.16-.07.39-.05.7.06.34.09.54.12.6.09s.28.04.69.21c.36.15.66.15.86-.01.01.03.12.1.32.13.19,0,.34.09.4.25l.37.9c-.1.04-.12.08-.1.12s0,.08-.1.12c.28,1.05,0,1.77-.87,2.12-.39.61-.79,1.03-1.11,1.24.04.1.02.14-.01.16s-.05.06-.01.16c-.13.32-.33.4-.58.24-.13.24-.43.44-.85.61.03.06-.03.12-.19.19s-.21.12-.17.22c-.23-.1-.33-.17-.37-.26-.06.14-.21.23-.43.33s-.37.19-.41.28c-.03.2.16.76.54,1.7.29.07.37.26.24.58.38.48.84,1.32,1.33,2.43l.77,1.72c.09.04.46-.07,1.07-.32.36.04.75,0,1.17-.17.1-.23.03-.39-.2-.48-.16.07-.3.09-.39.05-.01-.03-.26-.27-.7-.7-.03-.06,0-.11.03-.12s.05-.06.01-.16c-.31-.29-.58-.78-.84-1.43-.22-.55-.43-.96-.64-1.21.13-.32.24-.51.31-.54-.22-.17-.28-.41-.15-.73.1-.04.13-.05.14-.02s.06.05.12.03l.09-.15c.73.04,1.3.04,1.63.02.03.06.07.08.1.07s.08,0,.12.1c.03-.12.11-.19.27-.26,1.1.2,1.72.43,1.91.73-.04.09.02.33.18.72.14.06.25.24.4.52.15.28.32.51.48.63.09.23.08.57.02,1.08-.06.51-.07.86.01,1.05.1-.04.21-.05.39-.05.36-.03.63-.03.78-.02.23-.17.77-.42,1.61-.77.09.04.27,0,.49-.09s.44-.03.63.16c.03-.01.12-.09.26-.18.12-.09.2-.16.26-.18.07.16.17.23.34.2l.25-.03.14.36c.32-.05.67,0,.99.13l.47,1.16c-.06.03-.08.07-.07.1s0,.08-.1.12c.17.23.22.55.19.94-.05.43-.05.7-.03.76-.05.06-.39.42-1.06,1.11-.68.09-1.14.24-1.44.43-.04-.1-.08-.12-.12-.1s-.08,0-.1-.07c-.13.32-.36.41-.68.27-.23.36-.74.49-1.47.45l-.13.32c-.16.07-.27.07-.36.03-.07.1-.19.19-.32.24-.16.07-.25.14-.3.27-.14-.06-.28-.04-.5.05s-.4.13-.52.1c-.1-.07-.2-.03-.29.12-.07.1-.15.18-.25.21-.25.03-.72.18-1.43.47-.61.25-1.16.39-1.61.39-.04.09-.22.2-.54.33l-.68.27c-.16.07-.37.11-.62.14-.36.03-.6.02-.69-.02-.06.03-.15.18-.25.4l-.71.29-.12-.02h-.16c-.39.6-.94.74-1.71.42-.1.23-.26.29-.48.2l-.06.14c-.42-.02-.74.04-.9.1-1.14-.78-1.74-1.7-1.8-2.77.97-.21,1.68-.68,2.13-1.43l-.09-.23c.1.07.23.02.39-.16.17-.14.28-.23.38-.27.03-.12.55-.6,1.55-1.46-.67-1.01-1.52-2.54-2.56-4.64l-.41-.36c-.13-.14-.23-.28-.29-.45-.19,0-.46.07-.75.19l-.71.29.18.26.11.18-.67-.44c-.16.07-.44.22-.82.48-.49.27-.78.39-.87.35l-.09.15c-.16.07-.45.11-.8.06l-.04.17c-.1.04-.22.01-.37-.08-.2-.03-.32-.06-.36-.04-.07-.16-.15-.28-.27-.3-.16.07-.27.07-.41.01-.03-.06-.41-.17-1.18-.31-.53-.57-.63-1.29-.31-2.06.65-.26,1.07-.51,1.3-.79.1-.04.14-.02.16.01s.06.05.12.03c.19-.27.7-.77,1.56-1.53.77-.61,1.3-1.16,1.52-1.63.32.13.51.06.58-.24-.04-.1-.07-.35-.05-.77-.14-.36-.26-.72-.38-1.12-.2-.6-.43-.96-.65-1.05-1.35.85-2.12,1.27-2.32,1.24l-.09.15c-.13.05-.27.07-.38.08-.11,0-.24.06-.4.12l-.36.14c-.13.05-.25.14-.38.27-.23.09-.54.15-.9.1.04.1-.01.16-.17.22-.04-.1-.12-.1-.27,0-.17.03-.31-.02-.36-.15l-.32.13c-.13.05-.32.05-.58-.03-.23-.1-.4-.14-.46-.11-.03-.06-.04-.1-.07-.08s-.08,0-.12-.1c-.06.14-.14.21-.3.27-.13.05-.25.14-.32.24l.1.26c-.1.04-.2.16-.26.29-.16.25-.22.39-.24.43-.07.29-.26.75-.52,1.41-.1.23-.34.55-.7.96l-.8,1s-.12.09-.33.21c-.21.12-.3.2-.33.21-.04-.1-.08-.12-.12-.1s-.05-.02-.07-.08c-.37.49-.7.51-1.03.15-.1.04-.17.14-.23.28-.06.14-.13.24-.23.28-.22-.55-.37-.83-.5-.85-.1-.07-.34-.01-.73.15-.12-.03-.21-.14-.3-.37-.08-.19-.16-.31-.29-.34-.1-.07-.17-.04-.14.13,0,.11-.03.2-.1.23-.16-.39-.14-.62.09-.71-.09-.23-.11-.56-.07-.91l.88-2.28c.39-.99.75-1.77,1.03-2.3.98-2.77,1.8-4.83,2.46-6.27.46-.45.95-1.18,1.49-2.18.6-1.03,1.11-1.73,1.5-2.15.63-1.5,1.1-2.48,1.43-2.88-.16-.12-.14-.25.02-.42.17-.14.21-.31.15-.47.39-.23.8-.63,1.28-1.2.1.07.28.04.51-.05s.4-.12.54-.07c.18.26.59.44,1.23.52.63.08,1.04.14,1.22.22l.58-.24c2,.2,3.04.27,3.21.2l.1.07.12.1.32-.13,1.46.27c.74.15,1.26.24,1.61.25.03.06.07.08.1.07s.05.02.08.12c.38-.08.97-.02,1.75.23.67.26,1.19.34,1.59.3.77.33,1.29.49,1.54.47.04.1.14.17.31.21.16.12.27.19.28.23.16-.07.37-.11.61-.17.17-.03.39.03.6.17.15.09.33.17.51.24l.45-.18c1,.61,1.48,1.13,1.47,1.59h-.03ZM54.79,170.42c-.29-.71-.74-1.09-1.41-1.16-.51-.62-1.21-.75-2.08-.4.05.21.02.6-.07,1.12-.08.56-.08,1.01-.05,1.37.03.44.11.82.23,1.11l-.07.1-.1.12c.06.8.61,1.41,1.56,1.81.36-.14.59-.31.72-.55.1-.04.13-.05.14-.02s.06.05.12.03c.36-.22.62-.51.75-.83.13-.32.22-.84.25-1.53.07-.67.05-1.07.01-1.17Z"/>
      <path class="cls-4" d="M33.28,106.91c-.49-.25-1-.42-1.56-.44-.56-.02-1.08.08-1.61.27-.97.35-1.73,1.11-2.14,2.05-.22.5.14,1.16.64,1.31.57.17,1.08-.11,1.31-.64,0,0,0,0,0,0,0-.01.01-.02.02-.03.04-.07.09-.14.14-.21,0,0,.02-.03.03-.04.06-.06.11-.11.17-.17.06-.05.12-.1.18-.15.02,0,.03-.02.05-.03.14-.08.29-.14.44-.21.02,0,.05-.01.07-.02.08-.02.16-.04.25-.05.04,0,.08-.01.13-.02,0,0,0,0,0,0,.05,0,.12,0,.14,0,.08,0,.17,0,.25.02.02,0,.04,0,.07,0,.07.02.14.04.21.06.08.03.38.17.07.01.25.13.48.21.77.15.25-.05.52-.22.66-.44.26-.43.23-1.17-.29-1.43Z"/>
      <path class="cls-10" d="M40.45,96.71c-.23-.71-.67-1.35-1.33-1.77-.99-.63-2.49-.62-3.65-.02-1.15.59-1.96,1.7-1.99,2.85-.02.67.18,1.31.56,1.81.19.79.69,1.48,1.38,1.95.87.59,2.11.67,3.18.25.32-.03.64-.13.93-.27.23-.12.48-.27.67-.45.19-.18.39-.37.53-.59.18-.29.31-.52.39-.83.09-.31.12-.57.1-.88,0-.08-.02-.16-.05-.23-.05-.19-.1-.38-.19-.56-.03-.06-.07-.12-.1-.17-.05-.31-.15-.62-.31-.9-.04-.06-.08-.12-.12-.18Z"/>
      <path class="cls-10" d="M41.8,85.81c-.62-.36-1.6-.16-2.06.48-1.23,1.7-2.49,3.38-3.77,5.04-.64.83-1.3,1.66-1.96,2.48-.31.39-.63.78-.94,1.16-.37-.46-1.17-.57-1.78-.28-.77.37-1.05,1.16-.79,1.82.48,1.22,1.87,2.71,3.49,1.43.59-.47,1.05-1.16,1.51-1.73.45-.56.9-1.11,1.34-1.67,1.8-2.27,3.55-4.57,5.24-6.91.46-.63.36-1.45-.28-1.83Z"/>
      <path class="cls-10" d="M23.72,100.69c-.34-.61-1-.95-1.59-.66-.46.22-.73.85-.57,1.41-.4-.04-.8-.08-1.2-.13-.85-.09-1.7-.2-2.55-.31-1.7-.22-3.39-.48-5.09-.76-.63-.11-1.19.44-1.21,1.1-.02.69.51,1.31,1.14,1.41,1.68.28,3.36.52,5.04.75,0,0-.01.02-.02.03-.36.39-.47.96-.45,1.54-.02.27,0,.55.07.82.01.05.04.1.06.15,0,.02,0,.04.01.06.21.93.63,1.82,1.25,2.55.13.16.28.31.43.45.25.39.6.71,1.05.88.64.25,1.31.17,1.81-.24.64-.34,1.03-1.05,1.05-1.8.03-1.09-.37-2.23-.87-3.19-.12-.22-.33-.39-.56-.47-.12-.13-.24-.25-.37-.36.08,0,.15.02.23.03.59.06,1.26.22,1.84.12,1.57-.27,1.14-2.22.5-3.36Z"/>
      <path class="cls-2" d="M30.31,101.11s-.02,0-.03,0c-.01,0-.03,0-.04-.01-.03,0-.08-.02-.12-.04,0,0,0,0-.02-.01-.03-.01-.05-.03-.08-.05-.03-.02-.09-.05-.12-.09,0,0,0,0,0,0-.02-.02-.04-.04-.06-.06-.03-.03-.06-.07-.09-.1-.03-.04-.09-.09-.11-.14.05.07.05.08.02.02-.02-.03-.03-.05-.04-.08-.03-.06-.06-.11-.08-.17,0-.01-.05-.12-.06-.15-.04-.12-.07-.24-.09-.37-.06-.31-.09-.62-.11-.93-.03-.31-.4-.55-.7-.48-.34.08-.51.36-.48.7.06.69.14,1.43.52,2.04.37.59.91,1.03,1.62,1.12.31.04.63-.24.65-.55.01-.34-.22-.6-.55-.65Z"/>
      <path class="cls-10" d="M42.81,112.16c0,.23-.21.35-.39.59-3.11,4.17-8.32,8.1-14.01,6.92-1-.21-1.02-1.69,0-1.59,9.31.9,10.95-6.91,12.97-7.45.28-.08.52,0,.69.15.23.09.43.24.57.44.23.24.32.63.18.94Z"/>
    </g>
  </g>
</svg>