<?xml version="1.0" encoding="UTF-8"?>
<svg id="b" data-name="圖層 2" xmlns="http://www.w3.org/2000/svg" width="17.19" height="17.21" viewBox="0 0 17.19 17.21">
  <defs>
    <style>
      .d {
        fill: #092a31;
      }
    </style>
  </defs>
  <g id="c" data-name="fix 按鈕">
    <g>
      <rect class="d" x="1.26" y="7.28" width="13" height="4.36" transform="translate(-4.42 8.26) rotate(-44.98)"/>
      <path class="d" d="M15.85.76c.78.67,1.85,1.59,1.08,2.62-.22.3-1.78,1.88-2.06,2.07-.12.08-.18.15-.35.1-.2-.05-2.9-2.74-2.87-2.94C12.3,2.09,13.86,0,14.62,0c.43,0,.9.48,1.23.76Z"/>
      <path class="d" d="M3.88,16.36l-3.88.85.85-3.88c.21-.05.24.09.36.18.54.41,2.07,1.95,2.49,2.49.09.12.24.15.18.36Z"/>
    </g>
  </g>
</svg>