<?xml version="1.0" encoding="UTF-8"?>
<svg id="b" data-name="圖層 2" xmlns="http://www.w3.org/2000/svg" width="28.98" height="29.01" viewBox="0 0 28.98 29.01">
  <defs>
    <style>
      .d {
        fill: #092a31;
      }
    </style>
  </defs>
  <g id="c" data-name="icon">
    <g>
      <rect class="d" x="2.12" y="12.28" width="21.92" height="7.35" transform="translate(-7.45 13.92) rotate(-44.98)"/>
      <path class="d" d="M26.71,1.28c1.32,1.12,3.11,2.68,1.82,4.42-.38.51-3,3.17-3.47,3.48-.21.14-.3.25-.58.17-.34-.09-4.89-4.62-4.83-4.96C20.73,3.52,23.36,0,24.64,0c.72,0,1.52.81,2.07,1.28Z"/>
      <path class="d" d="M6.54,27.58l-6.54,1.43,1.43-6.54c.35-.09.41.15.61.3.9.7,3.5,3.29,4.19,4.19.16.21.4.26.3.61Z"/>
    </g>
  </g>
</svg>