<?xml version="1.0" encoding="UTF-8"?>
<svg id="_文字_圖" data-name="文字/圖" xmlns="http://www.w3.org/2000/svg" width="497.75" height="503.49" viewBox="0 0 497.75 503.49">
  <path d="m471.99,166.41l-20.03,1.9h-.3c-.86.91-1.98,1.37-3.35,1.37-.46,0-.91-.05-1.37-.15-1.37-.35-2.84-1.8-4.42-4.34-1.27-1.98-2.13-3.76-2.59-5.33-.76-2.74-1.7-8.91-2.82-18.5-1.17-9.85-1.65-16.37-1.45-19.57-.2-.91-.35-2.23-.46-3.96.3-1.72.91-2.44,1.83-2.13,1.62.46,3.15,1.12,4.57,1.98,12.89-4.67,23.25-7.01,31.07-7.01,1.27,0,2.44.08,3.5.23,1.68.25,4.14,2.06,7.39,5.4,3.4,3.51,5.48,6.68,6.24,9.52.1.3.15.56.15.76,0,.35-.18.76-.53,1.22-.36.46-.61.91-.76,1.37-.86,6.19-1.75,12.39-2.66,18.58-1.78,11.88-3.42,18.76-4.95,20.64-.66.76-1.47,1.14-2.44,1.14-1.06,0-2.72-.51-4.95-1.52-.66-.3-1.22-.84-1.68-1.6Zm-26.12-42.34c.15,1.12.58,4.92,1.29,11.42,12.03-1.83,20.33-2.82,24.9-2.97,1.11-.05,2.79.69,5.02,2.21.61-6.7.76-11.62.46-14.77-.1-.91-2.34-1.37-6.7-1.37s-9.37.79-15.31,2.36c-4.62,1.17-7.84,2.21-9.67,3.12Zm4.95,35.03c8.23-.91,15.41-1.5,21.55-1.75,1.57-3.71,2.87-8.91,3.88-15.61-1.42-.25-2.41-.38-2.97-.38-2.74.05-11.09,1.2-25.05,3.43.91,7.26,1.77,12.03,2.59,14.32Z" fill="#231815"/>
  <path d="m475.4,241.66c-12.29,1.83-19.09,2.64-20.4,2.44-.46-.05-1.07-.25-1.83-.61-1.02,4.72-2.18,8.48-3.51,11.27-.86,1.72-2.84,4.92-5.94,9.59-1.27,1.87-3.4,3.68-6.39,5.41-.81.46-1.5.68-2.06.68-.91,0-1.12-.51-.61-1.52l3.65-9.06c1.07-2.69,2.23-7.08,3.51-13.17,1.22-5.73,1.98-10.28,2.28-13.63.61-6.45.91-11.45.91-15,0-1.57-.27-3.3-.8-5.18-.53-1.88-.8-3.22-.8-4.03,0-1.88.54-2.61,1.6-2.21,1.32.46,2.66.91,4.03,1.37,1.68.66,3.02,1.37,4.04,2.13,10.05-5.08,17.26-7.64,21.62-7.69,2.08-.05,4.7.99,7.84,3.12,3,1.98,4.75,3.65,5.26,5.02.2.56.3,1.12.3,1.67,0,1.63-.69,2.61-2.06,2.97,0,.1.03,1.57.08,4.42.1,3.2.15,5.23.15,6.09l.61,35.48v1.67c.05.66.07,1.22.07,1.68,0,3.81-1.35,6.02-4.03,6.63-.61.15-1.22.23-1.83.23-2.03,0-4.19-.94-6.47-2.82-1.88-1.78-3.76-3.55-5.63-5.33-2.19-2.03-4.37-4.06-6.55-6.09-2.74-2.69-5.28-5.48-7.62-8.38-.25-.3-.38-.61-.38-.91,0-.71.48-1.07,1.45-1.07.25,0,.43.05.54.15,2.79,2.23,5.58,4.47,8.38,6.7,3.65,2.74,6.55,4.19,8.68,4.34.05,0,.19.04.42.11.23.08.39.11.49.11.41,0,.64-.41.69-1.22.15-1.93.25-7.05.3-15.38Zm-21.01-4.65c5.33-.76,10.99-1.88,16.98-3.35l1.14-.76c1.01.1,1.98.28,2.89.53,0-1.52-.03-4.26-.08-8.22-4.62.96-11.27,2.41-19.95,4.34-.25,2.49-.58,4.97-.99,7.46Zm1.67-15.38c3.81-.91,9.31-2.29,16.52-4.11-.15,0,.12-.25.84-.76.61-.05,1.22,0,1.83.15-.05-1.42-.08-2.34-.08-2.74-.1-3.15-.41-4.8-.91-4.95-6.29,1.22-12.36,3.4-18.2,6.55.1,1.52.1,3.48,0,5.87Z" fill="#231815"/>
  <path d="m440.56,336.68c-.56.05-1.05.28-1.48.69-.43.41-.85.81-1.26,1.22-.1-.1-.18-.2-.23-.3,0-.25.08-.6.23-1.03.15-.43.28-.72.38-.88-1.22.2-2.55-.33-4-1.6-1.45-1.27-2.17-2.44-2.17-3.5,0-.3.08-.56.23-.76.56-.76,1.99-1.79,4.3-3.08,2.31-1.3,3.82-1.91,4.53-1.86,2.08.1,3.63.23,4.64.38,1.88.36,3.17.94,3.88,1.75,1.27,1.42,1.9,2.84,1.9,4.26,0,1.32-.79,2.26-2.36,2.82-2.19,1.01-5.05,1.65-8.61,1.9Zm-5.78,22.16c.71.46,1.19.61,1.45.46,1.67-1.07,4.67-5.08,8.99-12.03,4.06-6.6,6.12-9.87,6.17-9.82.25-.1.38,0,.38.3,0,.51-.33,1.6-.99,3.27-.86,2.18-1.35,3.42-1.45,3.73-.15.56-.23,1.12-.23,1.68,0,.51.33,1.78.99,3.81.15.51.23,1.12.23,1.83,0,2.39-.61,4.97-1.83,7.77-1.07,2.33-2.29,4.47-3.66,6.39-1.17,1.63-1.8,2.61-1.9,2.97-.51,1.73-1.42,2.59-2.74,2.59-1.22,0-2.59-.69-4.11-2.06-1.37-1.22-2.36-2.51-2.97-3.88-.25-.61-.38-1.32-.38-2.13,0-1.22.25-2.4.76-3.54.51-1.14.94-1.59,1.3-1.33Zm9.06-41.04c-.46,0-1.27.3-2.43.91-.05-.3,0-.84.15-1.6.1-.41-.03-.71-.38-.91-.96-.41-1.94-1.24-2.93-2.51-.99-1.27-1.46-2.26-1.41-2.97.1-.76.84-1.52,2.21-2.28,1.37-.76,2.67-1.19,3.88-1.3,2.29-.25,4.95.54,8,2.36,3.3,1.93,4.8,3.98,4.49,6.17-.81,2.03-2.34,3.05-4.57,3.05-.76,0-1.92-.15-3.46-.46-1.55-.3-2.73-.46-3.54-.46Zm27.41,31.68c.1.76-.13,1.24-.69,1.45-1.68.66-3.25.76-4.72.3-.71-.2-1.5-.84-2.36-1.9-1.17-1.32-1.8-2.03-1.9-2.13-.46-.35-1.1-1.5-1.94-3.42-.84-1.93-1.36-3.38-1.56-4.34-.86-5.08-.97-7.66-.3-7.77.96-.1,1.67-.1,2.13,0,1.06.2,2.23.69,3.5,1.45,7.66-2.08,12.92-3.3,15.76-3.65,3.81-.46,6.63-.33,8.45.38,4.62,1.78,6.93,3.35,6.93,4.72,0,.15-.05.3-.15.46-.46.51-.76,1.37-.91,2.59-.41,2.79-1.22,5.48-2.44,8.07-.71,1.47-1.25,2.46-1.6,2.97-.71,1.07-1.5,1.63-2.36,1.68-1.67.05-3.12-.35-4.34-1.22-.51-.05-1.42-.13-2.74-.23h-.69c1.07,1.32,1.65,2.49,1.75,3.5v.15c2.18-.25,3.68-.46,4.49-.61.81-.15,1.75-.51,2.82-1.06,2.13.51,3.66.94,4.57,1.3,1.93.71,3.42,1.67,4.49,2.89.2.25.3.53.3.84,0,.56-.34,1.13-1.03,1.71-.69.58-1.41.87-2.17.87-1.37-.05-3.55-.05-6.55,0-.56,0-2.79.25-6.7.76-.1,3.66-.38,6.57-.84,8.76-.3,1.42-1,2.66-2.1,3.73-1.09,1.06-2.32,1.6-3.69,1.6-.71,0-1.3-.36-1.75-1.07-.25-.35-.53-1.75-.84-4.19-.2-1.62-.25-4.16-.15-7.61-6.45.81-10.05,1.19-10.81,1.14-1.98-.15-3.79-.76-5.44-1.83-1.65-1.06-2.47-2.01-2.47-2.82,0-.41.25-.66.76-.76,2.39-.61,8.4-1.47,18.05-2.59v-.15c0-1.11-.13-2.44-.38-3.96h-.38Zm-2.59-33.58c-.05-1.01-.15-1.93-.3-2.74-2.44.41-3.78.61-4.03.61-1.37,0-2.64-.38-3.81-1.14-.96-.61-1.52-1.17-1.67-1.67-.1-.61.41-1.12,1.52-1.52,2.79-1.01,6.75-1.96,11.88-2.82,4.87-.76,9.09-1.22,12.64-1.37l1.37-1.22c.91.15,2.39.76,4.42,1.83,2.34,1.27,3.66,2.33,3.96,3.2.15.56-.15,1.13-.91,1.71-.76.58-2.16.62-4.19.11-.3-.1-1.04-.13-2.21-.08-1.17,0-1.78.05-1.83.15,0,.25-.1.96-.3,2.13,3.1-.15,5.73.3,7.92,1.37,2.49,1.22,3.86,2.61,4.11,4.19.2,1.27-.05,2.03-.76,2.28-.56,1.12-1.12,2.24-1.67,3.35-1.22,2.28-2.26,3.66-3.12,4.11-1.62.81-2.84,1.17-3.66,1.07-2.23-.35-3.86-1.22-4.87-2.59-3.45.2-8.76,1.04-15.92,2.51-.05.3-.15.61-.3.91-.25.56-1.04.84-2.36.84-1.12,0-1.96-.14-2.51-.42-.56-.28-1.27-1.21-2.13-2.78-.71-1.42-1.47-2.13-2.29-2.13,0-.46-.05-1.04-.15-1.75-.97-2.59-1.45-5.38-1.45-8.38,0-1.42.17-2.11.53-2.06,1.32.2,2.64.64,3.96,1.29,1.63.76,2.54,1.55,2.74,2.36v.08c1.47-.46,3.27-.94,5.41-1.45Zm.23,8.76c-.15-1.22-.2-2.74-.15-4.57-1.67.51-3.05.99-4.11,1.45.46,1.07.99,2.29,1.6,3.66.71-.15,1.6-.33,2.66-.53Zm-2.66,12.41c.2.46.41,1.02.61,1.68,3.71-.71,7.44-1.35,11.19-1.9.86,0,1.45-.05,1.75-.15,1.37.15,2.87.71,4.49,1.68.35-.86.56-1.59.61-2.17.05-.59.13-1.15.23-1.71.05-.56-.05-.84-.3-.84-2.84-.15-7.54.53-14.09,2.06-1.17.35-2.66.81-4.49,1.37Zm2.21,6.17c.3.61.58,1.25.84,1.9,3.35-.46,5.91-.79,7.69-.99.15,0,.38-.06.69-.19.3-.13.69-.16,1.14-.12.46.05,1.19.23,2.21.54.91-.96,1.6-2.03,2.06-3.2-1.32-.25-2.16-.38-2.51-.38-.96.15-5,.96-12.11,2.43Zm4.57-30.76c.56.61,1.04,1.32,1.45,2.13,1.47-.3,2.84-.56,4.11-.76.15-.96.25-1.7.3-2.21-1.83.25-3.78.54-5.86.84Zm2.06,5.94c.15,1.72.2,3.47.15,5.25l2.44-.38c-.15-.91-.03-2.72.38-5.41-1.02.15-2.01.33-2.97.54Zm9.44-.99c-.35,2.23-.58,3.88-.69,4.95,1.52-.2,2.44-.33,2.74-.38.35,0,.71.07,1.07.23,1.11-1.47,1.67-2.66,1.67-3.58,0-.3-.13-.53-.38-.69-.56-.41-1.7-.58-3.42-.53h-.99Z" fill="#231815"/>
</svg>