<?xml version="1.0" encoding="UTF-8"?>
<svg id="_圖層_2" data-name="圖層 2" xmlns="http://www.w3.org/2000/svg" width="410.74" height="209.66" viewBox="0 0 410.74 209.66">
  <g id="icon">
    <g>
      <g>
        <g>
          <path d="m29.46,49.16c-7.64,1.14-11.86,1.64-12.68,1.51-.28-.03-.66-.16-1.14-.38-.63,2.93-1.36,5.27-2.18,7-.54,1.07-1.77,3.06-3.69,5.96-.79,1.17-2.11,2.29-3.98,3.36-.51.28-.93.43-1.28.43-.57,0-.69-.32-.38-.95l2.27-5.63c.66-1.67,1.39-4.4,2.18-8.19.76-3.56,1.23-6.39,1.42-8.47.38-4.01.57-7.11.57-9.32,0-.98-.16-2.05-.5-3.22-.33-1.17-.5-2-.5-2.51,0-1.17.33-1.62.99-1.37.82.28,1.66.57,2.51.85,1.04.41,1.88.85,2.51,1.32,6.25-3.15,10.73-4.75,13.44-4.78,1.29-.03,2.92.62,4.87,1.94,1.86,1.23,2.95,2.27,3.27,3.12.13.35.19.69.19,1.04,0,1.01-.43,1.63-1.28,1.85,0,.06.02.98.05,2.74.06,1.99.1,3.25.1,3.79l.38,22.05v1.04c.03.41.05.76.05,1.04,0,2.37-.84,3.74-2.51,4.12-.38.09-.76.14-1.14.14-1.26,0-2.6-.58-4.02-1.75-1.17-1.1-2.34-2.21-3.5-3.31-1.36-1.26-2.71-2.52-4.07-3.79-1.7-1.67-3.28-3.41-4.73-5.21-.16-.19-.24-.38-.24-.57,0-.44.3-.66.9-.66.16,0,.27.03.33.09,1.73,1.39,3.47,2.78,5.21,4.16,2.27,1.7,4.07,2.6,5.4,2.7.03,0,.12.02.26.07.14.05.24.07.31.07.25,0,.4-.25.43-.76.1-1.2.16-4.38.19-9.56Zm-13.06-2.89c3.31-.47,6.83-1.17,10.55-2.08l.71-.47c.63.06,1.23.17,1.8.33,0-.95-.02-2.65-.05-5.11-2.87.6-7,1.5-12.4,2.7-.16,1.55-.36,3.09-.62,4.64Zm1.04-9.56c2.37-.57,5.79-1.42,10.27-2.56-.1,0,.08-.16.52-.47.38-.03.76,0,1.14.09-.03-.88-.05-1.45-.05-1.7-.06-1.96-.25-2.98-.57-3.08-3.91.76-7.68,2.11-11.31,4.07.06.95.06,2.16,0,3.64Z" fill="#231815"/>
          <path d="m2.3,99.12c3.25-.91,7.46-1.92,12.64-3.03.38-1.04.65-1.97.81-2.79.06-.44.13-.92.19-1.42-2.68.54-4.37.85-5.06.95-1.17.19-2.56-.1-4.16-.85-1.2-.57-1.8-1.2-1.8-1.89,0-.19.06-.35.19-.47.41-.41,1.4-.84,2.98-1.28,2.11-.57,4.91-1.23,8.38-1.99.03-.6-.03-1.27-.19-2.01-.16-.74-.24-1.29-.24-1.63,0-1.01.71-1.44,2.13-1.28.79.1,1.69.51,2.7,1.25,1.01.74,1.78,1.52,2.32,2.34,1.17-.19,2.13-.3,2.89-.33.44-.03.87-.2,1.28-.52.41-.31.69-.47.85-.47.91,0,2.41.51,4.5,1.51,1.01-1.1,1.58-1.75,1.7-1.94.57-.79,1.06-1.18,1.47-1.18.63,0,1.44.51,2.41,1.51.98,1.01,1.55,1.83,1.7,2.46.13.51-.19,1.04-.95,1.61-1.14,1.2-3.06,3.22-5.77,6.06,1.8.16,3.64.71,5.54,1.66,1.89.95,2.73,1.74,2.51,2.37-.57,1.64-1.48,2.46-2.74,2.46-.54,0-1.12-.11-1.75-.33-1.8-.63-4.78-.85-8.94-.66-3.91,4.01-6.72,6.8-8.42,8.38.66.73,1.15,1.37,1.47,1.94,2.11-1.58,4.04-3.27,5.77-5.06,1.36-1.42,2.1-2.3,2.22-2.65v-1.04c.06-.5.33-.68.8-.52.63.16,1.51.66,2.65,1.51,1.32.95,1.96,1.67,1.89,2.18-.1.79-.43,1.45-.99,1.99-.69.73-1.37,1.44-2.03,2.13-1.2,1.2-2.32,2.07-3.36,2.6-1.04.54-2.1,1.09-3.17,1.66-1.23.6-2.43.98-3.6,1.14-.16,2.02-.05,3.25.33,3.69.25.25,1.31.38,3.17.38,1.96,0,3.94-.13,5.96-.38,2.21-.28,3.46-.61,3.74-.97.28-.36.41-2.17.38-5.42,0-.79.16-1.18.47-1.18.38,0,.66.32.85.95.25.85.66,2.11,1.23,3.79.13.38.76,1.03,1.89,1.94.95.82,1.42,1.69,1.42,2.6,0,.28-.03.57-.09.85-.35,1.51-2.11,2.51-5.3,2.98-1.86.28-4.67.39-8.42.33-2.9-.03-4.87-.19-5.92-.47-1.61-.41-3.05-1.36-4.31-2.84-1.1-1.26-1.56-4.1-1.37-8.52-1.33,1.14-3.55,2.84-6.67,5.11-1.14.72-2.15,1.26-3.03,1.61-.98.41-1.67.74-2.08.99-1.23.72-2.21.91-2.93.57-.73-.38-.49-1.04.71-1.99,1.1-.88,2.38-2.05,3.83-3.5,1.67-1.7,3.37-3.42,5.09-5.16,1.72-1.73,4.54-4.62,8.45-8.66l-.38.05c-.85.16-3.25.76-7.19,1.8-3.5.98-5.54,1.47-6.11,1.47-.66,0-1.53-.31-2.6-.95-1.17-.69-1.75-1.36-1.75-1.99,0-.6.62-1.07,1.85-1.42Zm20.06-4.26l1.33-.19,4.87-5.11c-1.17.16-2.89.44-5.16.85-.19,1.86-.54,3.34-1.04,4.45Z" fill="#231815"/>
          <path d="m33.71,171.91c-1.55.19-2.57.24-3.08.14-.22-.03-.44-.09-.66-.19-.35,3.94-.84,6.58-1.47,7.9-.47,1.01-1.09,1.96-1.85,2.84-1.01,1.1-1.93,1.66-2.75,1.66-.32,0-.47-.14-.47-.43,0-.16.05-.35.14-.57.41-.98.77-2.57,1.09-4.78h-1.75c-.88.03-2.22.17-4.02.43,0,2.11-.07,3.46-.21,4.05-.14.58-.54,1.05-1.18,1.4-.65.35-1.24.52-1.77.52-.25,0-.4-.05-.43-.14-.19-.41-.28-1.48-.28-3.22,0-.35.03-1.01.09-1.99-2.08.35-3.28.52-3.6.52-.35,0-.88-.26-1.59-.78-.71-.52-1.06-.95-1.06-1.3,0-.41.2-.68.61-.8,1.26-.38,3.19-.81,5.77-1.28v-1.7l-.24.05c-.28.54-.81.81-1.56.81-.25,0-.54-.06-.85-.19-.32-.13-.99-1.01-2.04-2.65-.13-.19-.28-.81-.47-1.85-.25-1.17-.4-2.18-.43-3.03-.09.69-.22,1.45-.38,2.27-.92,5.62-2.02,9.29-3.31,11.03-1.29,1.74-2.35,2.76-3.17,3.08-1.07.38-1.66.43-1.75.14-.03-.13.09-.71.38-1.75.47-1.74.91-3.72,1.3-5.96.39-2.24.84-5.03,1.35-8.38.79-5.96,1.1-10.17.95-12.64-.88-.73-1.26-1.34-1.14-1.85.16-.57,1.45-1.23,3.88-1.99,1.96-.66,5.33-1.42,10.13-2.27-.06-.47-.27-.87-.62-1.18-.47-.44-.73-.66-.76-.66-.22-.35-.33-.71-.33-1.09,0-1.36.84-2.04,2.51-2.04,1.36,0,2.86.41,4.5,1.23,1.64.82,2.62,1.66,2.93,2.51,2.84-.31,5.35-.46,7.52-.43.32-.13.66-.24,1.04-.33,1.1.31,2.24.85,3.41,1.61,1.45.98,2.18,1.86,2.18,2.65,0,.22-.06.43-.19.61-.51.82-1.17,1.23-1.99,1.23-.38,0-1.13-.15-2.25-.45-1.12-.3-2.06-.45-2.82-.45-4.67.03-10.14.76-16.42,2.18,1.73.95,2.57,1.74,2.51,2.37-.03.16-.05.35-.05.57.47-.13.79-.19.95-.19.38-.09.87-.04,1.47.17.6.21,1.21.42,1.85.64.44.13.66.4.66.8,0,.35-.14.73-.43,1.16-.28.43-.93.72-1.94.88-.66.09-1.51.28-2.56.57v1.47c.6-.13,1.01-.16,1.23-.09.79.22,1.66.61,2.63,1.18.96.57,1.52,1.03,1.68,1.37.31.82.46,1.42.43,1.8-.09,1.14-.5,2.49-1.21,4.05-.71,1.56-1.24,2.37-1.59,2.44-.92.16-1.4.22-1.47.19-.22-.06-.44-.19-.66-.38-.47.03-1.03.09-1.66.19.28.28.44.87.47,1.75l1.47-.19c.19-.03.47-.14.85-.33.28-.13.5-.17.66-.14.41.16,1.42.74,3.03,1.75.38-3.09.66-6.59.85-10.51.16-3.53.19-6.06.1-7.57,0-.25-.17-.65-.52-1.18-.13-.16-.14-.39-.05-.71.13-.28.27-.41.43-.38.57.13,1.23.41,1.99.85,3-1.67,4.87-2.57,5.63-2.7.19-.09.38-.19.57-.28.25-.1.52-.08.8.05.63.25,1.26.51,1.89.76.95.44,1.53.92,1.75,1.42.13.38.17.85.14,1.42-.06,1.04-.09,1.47-.09,1.28,0,15.59,0,23.33,0,23.24-.16,1.61-.6,2.44-1.33,2.51-1.36.1-2.26-.23-2.7-.97-.44-.74-1.14-1.84-2.08-3.29-.41-.41-1.14-1.34-2.18-2.79-.22-.35-.28-.65-.19-.9.06-.25.19-.3.38-.14,2.02,1.89,3.06,2.84,3.12,2.84s.09-.03.09-.09c.09-.82.14-3.27.14-7.34Zm-18.41-13.44v-1.51s-.13-.35-.38-1.14c-.09-.28.05-.66.43-1.14-1.29.41-3.28.92-5.96,1.51.6.54.95,1.12,1.04,1.75.06.28.08.99.05,2.13,1.07-.41,2.68-.95,4.83-1.61Zm-4.26,7.24c.19-.13,1.01-.33,2.46-.61,1.04-.19,1.58-.57,1.61-1.14l.05-1.37-1.42.43c-.16.03-.33.05-.52.05-.85,0-1.83-.25-2.93-.76-.06.85-.17,1.83-.33,2.93.1-.13.22-.14.38-.05.22.16.46.33.71.52Zm8.19,5.06c.98-1.96,1.47-3.63,1.47-5.02-.03-.5-.27-.73-.71-.66-1.04.09-3.41.82-7.1,2.18.06.09.19.44.38,1.04.88-.25,2.07-.58,3.55-.99.03,0,.15-.05.36-.16.2-.11.37-.15.5-.12.31.16.63.3.95.43.44.22.69.44.76.66.1.25.07.54-.07.87-.14.33-.37.51-.69.54l-4.64,1.04c.13.44.24.82.33,1.14.66-.1,2.3-.41,4.92-.95Zm11.17-9.28c1.61-.38,2.67-.65,3.17-.81-.03-1.42-.07-2.29-.12-2.63-.05-.33-.2-.48-.45-.45-.51.06-1.47.52-2.89,1.37.19.38.28,1.22.28,2.51Zm-.19,7.29c1.23-.13,2.27-.31,3.12-.57.09-.03.2-.05.33-.05v-3.6c-1.48.28-2.59.47-3.31.57-.03,1.23-.08,2.45-.14,3.64Z" fill="#231815"/>
        </g>
        <g>
          <path d="m394.86,58.22l-12.35,1.17h-.19c-.53.56-1.22.85-2.06.85-.28,0-.56-.03-.85-.09-.84-.22-1.75-1.11-2.72-2.68-.78-1.22-1.32-2.32-1.6-3.29-.47-1.69-1.05-5.49-1.74-11.41-.72-6.07-1.02-10.1-.89-12.07-.13-.56-.22-1.38-.28-2.44.19-1.06.56-1.5,1.13-1.32,1,.28,1.94.69,2.82,1.22,7.95-2.88,14.34-4.32,19.16-4.32.78,0,1.5.05,2.16.14,1.03.16,2.55,1.27,4.55,3.33,2.1,2.16,3.38,4.12,3.85,5.87.06.19.09.34.09.47,0,.22-.11.47-.33.75-.22.28-.38.56-.47.84-.53,3.82-1.08,7.64-1.64,11.46-1.1,7.33-2.11,11.57-3.05,12.73-.41.47-.91.7-1.5.7-.66,0-1.67-.31-3.05-.94-.41-.19-.75-.52-1.03-.99Zm-16.11-26.11c.09.69.36,3.04.8,7.04,7.42-1.13,12.54-1.74,15.36-1.83.69-.03,1.72.42,3.1,1.36.38-4.13.47-7.17.28-9.11-.06-.56-1.44-.84-4.13-.84s-5.78.49-9.44,1.46c-2.85.72-4.84,1.36-5.96,1.92Zm3.05,21.6c5.07-.56,9.5-.92,13.29-1.08.97-2.29,1.77-5.49,2.4-9.63-.88-.16-1.49-.24-1.83-.24-1.69.03-6.84.74-15.45,2.11.56,4.48,1.09,7.42,1.6,8.83Z" fill="#231815"/>
          <path d="m396.96,104.63c-7.58,1.13-11.77,1.63-12.58,1.5-.28-.03-.66-.16-1.13-.38-.63,2.91-1.35,5.23-2.16,6.95-.53,1.06-1.75,3.04-3.66,5.92-.78,1.16-2.1,2.27-3.94,3.33-.5.28-.92.42-1.27.42-.56,0-.69-.31-.38-.94l2.25-5.59c.66-1.66,1.38-4.37,2.16-8.12.75-3.54,1.22-6.34,1.41-8.41.38-3.98.56-7.06.56-9.25,0-.97-.17-2.04-.49-3.19-.33-1.16-.49-1.99-.49-2.49,0-1.16.33-1.61.99-1.36.81.28,1.64.56,2.49.84,1.03.41,1.86.85,2.49,1.32,6.2-3.13,10.64-4.71,13.34-4.74,1.28-.03,2.9.61,4.84,1.93,1.85,1.22,2.93,2.25,3.24,3.1.12.34.19.69.19,1.03,0,1-.42,1.61-1.27,1.83,0,.06.02.97.05,2.72.06,1.97.09,3.23.09,3.76l.38,21.88v1.03c.03.41.05.75.05,1.03,0,2.35-.83,3.71-2.49,4.09-.38.09-.75.14-1.13.14-1.25,0-2.58-.58-3.99-1.74-1.16-1.1-2.32-2.19-3.47-3.29-1.35-1.25-2.69-2.5-4.04-3.76-1.69-1.66-3.26-3.38-4.7-5.17-.16-.19-.24-.38-.24-.56,0-.44.3-.66.89-.66.16,0,.27.03.33.09,1.72,1.38,3.44,2.75,5.17,4.13,2.25,1.69,4.04,2.58,5.35,2.68.03,0,.12.02.26.07.14.05.24.07.3.07.25,0,.39-.25.42-.75.09-1.19.16-4.35.19-9.49Zm-12.96-2.87c3.29-.47,6.78-1.16,10.47-2.07l.7-.47c.63.06,1.22.17,1.78.33,0-.94-.02-2.63-.05-5.07-2.85.59-6.95,1.49-12.3,2.68-.16,1.53-.36,3.07-.61,4.6Zm1.03-9.49c2.35-.56,5.74-1.41,10.19-2.54-.09,0,.08-.16.52-.47.38-.03.75,0,1.13.09-.03-.88-.05-1.44-.05-1.69-.06-1.94-.25-2.96-.56-3.05-3.88.75-7.62,2.1-11.22,4.04.06.94.06,2.15,0,3.62Z" fill="#231815"/>
          <path d="m375.47,163.23c-.34.03-.65.17-.91.42-.27.25-.52.5-.77.75-.06-.06-.11-.12-.14-.19,0-.16.05-.37.14-.63.09-.27.17-.45.23-.54-.75.13-1.57-.2-2.47-.98s-1.34-1.5-1.34-2.16c0-.19.05-.34.14-.47.34-.47,1.23-1.1,2.65-1.9,1.42-.8,2.36-1.18,2.8-1.15,1.28.06,2.24.14,2.86.23,1.16.22,1.96.58,2.4,1.08.78.88,1.17,1.75,1.17,2.63,0,.82-.49,1.39-1.46,1.74-1.35.63-3.12,1.02-5.31,1.17Zm-3.57,13.67c.44.28.74.38.89.28,1.03-.66,2.88-3.13,5.54-7.42,2.5-4.07,3.77-6.09,3.8-6.06.16-.06.24,0,.24.19,0,.31-.2.98-.61,2.02-.53,1.35-.83,2.11-.89,2.3-.09.34-.14.69-.14,1.03,0,.31.2,1.1.61,2.35.09.31.14.69.14,1.13,0,1.47-.38,3.07-1.13,4.79-.66,1.44-1.41,2.75-2.25,3.94-.72,1-1.11,1.61-1.17,1.83-.31,1.07-.88,1.6-1.69,1.6-.75,0-1.6-.42-2.54-1.27-.84-.75-1.46-1.55-1.83-2.4-.16-.38-.23-.82-.23-1.32,0-.75.15-1.48.47-2.18.31-.7.58-.98.8-.82Zm5.59-25.31c-.28,0-.78.19-1.5.56-.03-.19,0-.52.09-.99.06-.25-.02-.44-.24-.56-.59-.25-1.2-.77-1.81-1.55-.61-.78-.9-1.39-.87-1.83.06-.47.52-.94,1.36-1.41.85-.47,1.65-.74,2.4-.8,1.41-.15,3.05.33,4.93,1.46,2.03,1.19,2.96,2.46,2.77,3.8-.5,1.25-1.44,1.88-2.82,1.88-.47,0-1.18-.09-2.14-.28-.96-.19-1.68-.28-2.18-.28Zm16.91,19.54c.06.47-.08.77-.42.89-1.03.41-2,.47-2.91.19-.44-.13-.92-.52-1.46-1.17-.72-.81-1.11-1.25-1.17-1.32-.28-.22-.68-.92-1.2-2.11-.52-1.19-.84-2.08-.96-2.68-.53-3.13-.6-4.73-.19-4.79.59-.06,1.03-.06,1.32,0,.66.13,1.38.42,2.16.89,4.73-1.28,7.97-2.03,9.72-2.25,2.35-.28,4.09-.2,5.21.23,2.85,1.1,4.27,2.07,4.27,2.91,0,.09-.03.19-.09.28-.28.31-.47.84-.56,1.6-.25,1.72-.75,3.38-1.5,4.98-.44.91-.77,1.52-.98,1.83-.44.66-.92,1-1.46,1.03-1.03.03-1.92-.22-2.68-.75-.31-.03-.88-.08-1.69-.14h-.42c.66.81,1.02,1.53,1.08,2.16v.09c1.34-.15,2.27-.28,2.77-.38.5-.09,1.08-.31,1.74-.66,1.32.31,2.25.58,2.82.8,1.19.44,2.11,1.03,2.77,1.78.12.16.19.33.19.52,0,.34-.21.7-.63,1.06-.42.36-.87.54-1.34.54-.84-.03-2.19-.03-4.04,0-.34,0-1.72.16-4.13.47-.06,2.25-.24,4.05-.52,5.4-.19.88-.62,1.64-1.29,2.3-.67.66-1.43.99-2.28.99-.44,0-.8-.22-1.08-.66-.16-.22-.33-1.08-.52-2.58-.13-1-.16-2.57-.09-4.7-3.98.5-6.2.74-6.67.7-1.22-.09-2.34-.47-3.36-1.13-1.02-.66-1.53-1.24-1.53-1.74,0-.25.16-.41.47-.47,1.47-.38,5.18-.91,11.13-1.6v-.09c0-.69-.08-1.5-.24-2.44h-.23Zm-1.6-20.71c-.03-.63-.09-1.19-.19-1.69-1.5.25-2.33.38-2.49.38-.85,0-1.63-.23-2.35-.7-.59-.38-.94-.72-1.03-1.03-.06-.38.25-.69.94-.94,1.72-.63,4.16-1.21,7.33-1.74,3.01-.47,5.6-.75,7.8-.84l.84-.75c.56.09,1.47.47,2.72,1.13,1.44.78,2.25,1.44,2.44,1.97.09.34-.09.7-.56,1.06-.47.36-1.33.38-2.58.07-.19-.06-.64-.08-1.36-.05-.72,0-1.1.03-1.13.09,0,.16-.06.59-.19,1.32,1.91-.09,3.54.19,4.88.84,1.53.75,2.38,1.61,2.54,2.58.13.78-.03,1.25-.47,1.41-.34.69-.69,1.38-1.03,2.07-.75,1.41-1.39,2.25-1.93,2.54-1,.5-1.75.72-2.25.66-1.38-.22-2.38-.75-3-1.6-2.13.13-5.4.64-9.82,1.55-.03.19-.09.38-.19.56-.16.34-.64.52-1.46.52-.69,0-1.21-.09-1.55-.26-.34-.17-.78-.74-1.31-1.71-.44-.88-.91-1.32-1.41-1.32,0-.28-.03-.64-.09-1.08-.6-1.6-.89-3.32-.89-5.17,0-.88.11-1.3.33-1.27.81.13,1.63.39,2.44.8,1,.47,1.57.96,1.69,1.46v.05c.91-.28,2.02-.58,3.33-.89Zm.14,5.4c-.09-.75-.12-1.69-.09-2.82-1.03.31-1.88.61-2.54.89.28.66.61,1.41.98,2.25.44-.09.99-.2,1.64-.33Zm-1.64,7.65c.13.28.25.63.38,1.03,2.29-.44,4.59-.83,6.9-1.17.53,0,.89-.03,1.08-.09.84.09,1.77.44,2.77,1.03.22-.53.34-.98.38-1.34.03-.36.08-.71.14-1.06.03-.34-.03-.52-.19-.52-1.75-.09-4.65.33-8.69,1.27-.72.22-1.64.5-2.77.84Zm1.36,3.8c.19.38.36.77.52,1.17,2.07-.28,3.65-.49,4.74-.61.09,0,.24-.04.42-.12s.42-.1.7-.07c.28.03.74.14,1.36.33.56-.59.98-1.25,1.27-1.97-.82-.15-1.33-.23-1.55-.23-.59.09-3.08.59-7.47,1.5Zm2.82-18.97c.34.38.64.81.89,1.31.91-.19,1.75-.34,2.54-.47.09-.59.16-1.05.19-1.36-1.13.16-2.33.33-3.62.52Zm1.27,3.66c.09,1.06.12,2.14.09,3.24l1.5-.24c-.09-.56-.02-1.67.24-3.33-.63.09-1.24.2-1.83.33Zm5.82-.61c-.22,1.38-.36,2.4-.42,3.05.94-.12,1.5-.2,1.69-.23.22,0,.44.05.66.14.69-.91,1.03-1.64,1.03-2.21,0-.19-.08-.33-.24-.42-.34-.25-1.05-.36-2.11-.33h-.61Z" fill="#231815"/>
        </g>
      </g>
      <g>
        <g>
          <g>
            <path d="m66.09,43.63l-6.25-17.16,7.22-2.63,5.27,6.62c.2.25.46.58.77.99.31.42.63.84.95,1.28.32.44.6.83.84,1.18l.17-.06c-.02-.37-.05-.8-.09-1.3-.04-.5-.08-1.01-.11-1.54-.03-.53-.06-1.01-.09-1.44l-.22-8.46,7.04-2.56,6.25,17.16-4.72,1.72-2.95-8.09c-.19-.53-.39-1.09-.6-1.68-.2-.59-.39-1.13-.56-1.65s-.3-.92-.38-1.21l-.2.07c.02.31.05.72.09,1.23s.08,1.01.12,1.53c.04.52.06.96.06,1.34l.19,10-4.15,1.51-6.28-7.78c-.27-.33-.56-.7-.87-1.11-.31-.41-.6-.81-.86-1.2-.27-.39-.5-.72-.69-.99l-.2.07c.14.33.3.74.5,1.25.19.5.4,1.04.62,1.6.22.56.43,1.1.62,1.61l2.95,8.09-4.45,1.62Z" fill="#231815"/>
            <path d="m92.22,34.57l-5.19-17.5,4.87-1.44,5.19,17.5-4.87,1.44Z" fill="#231815"/>
            <path d="m101.35,31.79l-4.32-17.74,4.39-1.07,9.84,6.36c.19.1.42.25.7.45s.56.4.86.6c.29.2.53.38.72.54l.17-.07c-.08-.33-.17-.7-.28-1.11-.11-.41-.2-.77-.28-1.08l-1.96-8.06,4.65-1.13,4.32,17.74-4.36,1.06-9.97-6.46c-.39-.25-.79-.52-1.19-.8s-.74-.52-1.01-.71l-.17.07c.08.25.17.57.26.96.1.39.19.77.28,1.15l1.99,8.19-4.62,1.13Z" fill="#231815"/>
            <path d="m133.79,25c-3.26.57-5.86.24-7.8-1.01-1.94-1.24-3.18-3.44-3.73-6.58-.36-2.06-.24-3.85.36-5.38.6-1.53,1.65-2.78,3.15-3.75,1.49-.97,3.37-1.66,5.62-2.05,1.38-.24,2.69-.33,3.95-.26,1.25.07,2.38.3,3.39.69,1,.39,1.83.96,2.47,1.71.64.75,1.07,1.69,1.26,2.83l-4.87.85c-.09-.49-.29-.89-.62-1.21s-.73-.56-1.22-.72c-.49-.16-1.03-.25-1.63-.27-.6-.02-1.22.02-1.86.14-.92.16-1.73.41-2.43.75s-1.26.77-1.68,1.29c-.42.52-.7,1.12-.84,1.79-.14.67-.14,1.42,0,2.24l.16.89c.2,1.15.58,2.07,1.14,2.74.56.68,1.28,1.12,2.17,1.35.88.22,1.93.23,3.13.02,1.01-.18,1.88-.45,2.61-.82.73-.37,1.26-.82,1.61-1.34s.47-1.09.36-1.72l-.02-.13-5.55.97-.59-3.35,10.44-1.83,1.74,9.95-2.93.51-.83-1.93c-.5.63-1.1,1.18-1.79,1.66-.69.48-1.46.88-2.31,1.2-.85.32-1.81.57-2.87.76Z" fill="#231815"/>
            <path d="m155,21.5l-.84-7.21-9.29-10,5.89-.68,5.49,6.24.18-.02,3.91-7.33,5.62-.65-6.73,11.86.84,7.21-5.07.59Z" fill="#231815"/>
            <path d="m180.29,19.5c-2.09.13-3.86-.08-5.32-.61-1.46-.54-2.59-1.39-3.39-2.56-.8-1.17-1.26-2.62-1.36-4.37l-.65-10.4,5.09-.32.64,10.24c.09,1.4.54,2.46,1.36,3.19.82.73,1.94,1.05,3.37.96,1.45-.09,2.54-.55,3.27-1.38.73-.83,1.05-1.94.96-3.34l-.64-10.24,5.07-.31.65,10.4c.11,1.75-.16,3.25-.81,4.51-.65,1.26-1.66,2.24-3.04,2.96-1.38.71-3.11,1.14-5.19,1.27Z" fill="#231815"/>
            <path d="m194.25,18.46l-.22-18.26,17.06-.2.05,3.85-11.99.14.04,3.24,10.47-.13.05,3.77-10.47.13.04,3.51,12.17-.14.05,3.88-17.25.21Z" fill="#231815"/>
            <path d="m227.24,18.74l.69-14.12-6.93-.34.2-4.11,18.9.93-.2,4.11-6.9-.34-.69,14.12-5.07-.25Z" fill="#231815"/>
            <path d="m242.24,19.57l1.77-18.17,16.98,1.65-.37,3.84-11.93-1.16-.31,3.23,10.42,1.01-.36,3.76-10.42-1.01-.34,3.49,12.12,1.18-.38,3.86-17.17-1.67Z" fill="#231815"/>
            <path d="m263.13,21.63l2.84-18.04,7.59,1.19,1.4,8.35c.06.31.12.73.19,1.24.07.51.14,1.04.21,1.58.07.54.12,1.02.16,1.44l.18.03c.16-.33.34-.73.55-1.18s.42-.92.65-1.4c.23-.48.43-.92.62-1.3l3.9-7.51,7.4,1.17-2.84,18.04-4.96-.78,1.34-8.51c.09-.56.18-1.15.29-1.76.11-.61.21-1.18.31-1.71.1-.53.18-.94.25-1.24l-.21-.03c-.14.28-.31.66-.51,1.12s-.42.93-.64,1.39c-.22.47-.42.87-.59,1.2l-4.67,8.84-4.36-.69-1.73-9.85c-.08-.42-.15-.89-.22-1.39-.07-.51-.13-.99-.17-1.47s-.08-.87-.12-1.2l-.21-.03c-.04.35-.09.8-.17,1.33s-.15,1.1-.23,1.7c-.08.6-.16,1.17-.24,1.71l-1.34,8.51-4.67-.74Z" fill="#231815"/>
            <path d="m290.43,26.17l3.99-17.82,11.77,2.64c1.19.27,2.16.75,2.92,1.44.75.7,1.27,1.54,1.54,2.54.28,1,.28,2.09.01,3.28-.27,1.19-.74,2.19-1.43,2.99-.69.8-1.53,1.35-2.52,1.66-.99.3-2.09.32-3.28.06l-6.74-1.51-1.31,5.84-4.95-1.11Zm7.1-8.49l5.47,1.22c.76.17,1.38.11,1.86-.2.48-.3.79-.81.95-1.52.11-.48.11-.91.01-1.28-.1-.37-.3-.67-.6-.92-.3-.25-.71-.43-1.23-.55l-5.47-1.23-1,4.46Z" fill="#231815"/>
            <path d="m310.86,30.9l5-17.56,4.88,1.39-3.86,13.57,10.1,2.87-1.13,3.99-14.98-4.26Z" fill="#231815"/>
            <path d="m328.72,36.08l6.1-17.21,16.08,5.7-1.29,3.63-11.3-4.01-1.08,3.06,9.87,3.5-1.26,3.56-9.87-3.5-1.17,3.31,11.47,4.07-1.3,3.66-16.26-5.76Z" fill="#231815"/>
          </g>
          <g>
            <path d="m57.67,177.2l7.62-16.59,6.98,3.21-.91,8.41c-.03.32-.08.73-.15,1.25-.07.51-.15,1.04-.23,1.58-.08.54-.16,1.01-.23,1.43l.17.08c.24-.28.53-.61.85-.98.32-.38.66-.77,1.01-1.17.35-.4.67-.77.95-1.08l5.79-6.17,6.81,3.13-7.62,16.59-4.57-2.1,3.6-7.82c.24-.52.49-1.05.76-1.61.27-.56.52-1.08.76-1.56.24-.48.43-.86.57-1.12l-.19-.09c-.21.24-.47.55-.8.94-.32.39-.65.78-.99,1.17-.34.39-.63.72-.89.99l-6.9,7.24-4.01-1.84,1-9.95c.04-.43.09-.9.16-1.4s.14-.99.23-1.46c.09-.47.16-.86.21-1.19l-.19-.09c-.13.33-.31.74-.52,1.24-.22.5-.44,1.02-.68,1.57-.24.56-.47,1.08-.7,1.58l-3.6,7.82-4.3-1.98Z" fill="#231815"/>
            <path d="m81.57,187.92l13.39-14.73,5.53,1.89,1.63,19.84-5.18-1.77-.2-3.3-8.07-2.75-2.17,2.49-4.93-1.68Zm9.69-3.89l5.28,1.8-.19-4.05c0-.21,0-.47-.02-.78s0-.64,0-1c0-.36,0-.7,0-1.04,0-.34,0-.61,0-.82l-.18-.06c-.2.27-.45.58-.73.95-.28.36-.56.71-.82,1.05-.27.34-.49.63-.69.86l-2.65,3.08Z" fill="#231815"/>
            <path d="m107.29,196.21l3.71-13.64-6.69-1.82,1.08-3.98,18.26,4.96-1.08,3.98-6.67-1.81-3.71,13.64-4.9-1.33Z" fill="#231815"/>
            <path d="m130.53,202.13c-2.22-.46-4.01-1.18-5.37-2.17-1.36-.99-2.28-2.25-2.77-3.78-.48-1.53-.51-3.32-.09-5.39.62-3.02,1.96-5.14,4.02-6.35,2.06-1.21,4.74-1.48,8.03-.81,1.82.37,3.38.99,4.66,1.86,1.29.87,2.21,1.94,2.78,3.2.56,1.26.69,2.68.37,4.24l-4.87-1c.16-.76.1-1.45-.16-2.07-.26-.61-.7-1.13-1.31-1.56-.61-.42-1.38-.73-2.29-.92-1.11-.23-2.08-.21-2.9.04-.82.26-1.49.73-2.01,1.41-.52.68-.88,1.53-1.09,2.56l-.18.89c-.21,1.02-.21,1.95,0,2.78.21.83.64,1.53,1.28,2.09.64.57,1.51.96,2.61,1.19.99.2,1.86.24,2.62.1.76-.13,1.38-.43,1.86-.88.48-.45.8-1.05.95-1.8l4.71.97c-.31,1.53-.96,2.76-1.95,3.7-.99.94-2.24,1.55-3.76,1.85-1.52.29-3.23.25-5.14-.14Z" fill="#231815"/>
            <path d="m143.66,204.35l2.52-18.08,5.03.7-.96,6.84,9.11,1.27.96-6.84,5.03.7-2.52,18.08-5.03-.7,1-7.16-9.11-1.27-1,7.16-5.03-.7Z" fill="#231815"/>
            <path d="m167.43,207.57l1.34-18.21,7.66.56,2.09,8.2c.08.31.18.71.3,1.22.11.51.23,1.03.34,1.56.11.53.21,1.01.28,1.42h.19c.13-.33.28-.74.45-1.21.17-.47.35-.95.54-1.45.19-.5.36-.95.51-1.35l3.27-7.81,7.47.55-1.34,18.21-5.01-.37.63-8.59c.04-.56.09-1.16.14-1.77.05-.62.11-1.2.17-1.73.06-.54.11-.96.15-1.26l-.21-.02c-.11.29-.25.68-.42,1.16-.17.48-.34.96-.52,1.44-.18.48-.34.9-.49,1.24l-3.93,9.2-4.4-.32-2.54-9.67c-.11-.42-.22-.87-.34-1.37-.12-.5-.21-.98-.29-1.45-.08-.47-.15-.86-.22-1.19l-.21-.02c0,.36-.03.8-.06,1.34-.03.54-.06,1.11-.09,1.71-.03.6-.06,1.18-.1,1.73l-.63,8.59-4.72-.35Z" fill="#231815"/>
            <path d="m193.35,209.37l8.17-18.15,5.85.08,7.7,18.36-5.47-.07-1.21-3.07-8.53-.12-1.29,3.04-5.21-.07Zm8.01-6.7l5.58.07-1.44-3.79c-.07-.2-.15-.44-.26-.73s-.21-.61-.32-.95-.22-.67-.32-.99c-.1-.32-.19-.58-.26-.77h-.19c-.11.32-.25.69-.4,1.12s-.31.85-.45,1.26c-.15.41-.28.75-.39,1.03l-1.57,3.75Z" fill="#231815"/>
            <path d="m217.63,209.59l-.73-18.24,5.07-.2.34,8.47,8.24-8.81,6.37-.25-7.3,7.79,8.18,10.45-6.19.25-5.5-7.31-3.59,3.34.17,4.33-5.07.2Z" fill="#231815"/>
            <path d="m240.82,208.52l-1.7-18.18,16.99-1.59.36,3.84-11.93,1.12.3,3.23,10.43-.98.35,3.76-10.43.98.33,3.49,12.12-1.13.36,3.86-17.17,1.61Z" fill="#231815"/>
            <path d="m261.78,206.46l-2.72-18.05,12.75-1.92c1.33-.2,2.47-.11,3.43.28s1.72.98,2.29,1.79c.57.81.93,1.74,1.09,2.79.17,1.16.06,2.23-.33,3.23-.4,1-1.07,1.84-2.03,2.52l4.73,6.46-5.65.85-3.92-5.72-5.55.83.93,6.18-5.02.76Zm3.53-10.66l6.41-.96c.65-.1,1.13-.38,1.46-.84.32-.46.43-1.04.33-1.74-.07-.44-.21-.8-.43-1.09-.22-.29-.5-.5-.85-.63s-.73-.16-1.17-.09l-6.41.97.66,4.39Z" fill="#231815"/>
            <path d="m299.91,199.83c-3.22.77-5.84.59-7.85-.53-2.01-1.12-3.38-3.24-4.12-6.34-.49-2.03-.47-3.83.04-5.39.51-1.56,1.48-2.87,2.91-3.93,1.43-1.06,3.26-1.86,5.48-2.39,1.36-.33,2.67-.49,3.92-.5,1.26,0,2.39.15,3.42.48,1.03.33,1.88.85,2.57,1.56s1.17,1.62,1.43,2.74l-4.81,1.15c-.12-.48-.35-.87-.69-1.17-.35-.3-.77-.51-1.26-.64-.5-.13-1.04-.18-1.64-.17-.6.02-1.22.1-1.85.25-.91.22-1.71.52-2.38.9-.67.38-1.21.84-1.59,1.39-.39.55-.63,1.16-.73,1.84-.1.68-.06,1.43.14,2.23l.21.88c.27,1.14.71,2.03,1.31,2.67.6.64,1.35,1.04,2.24,1.21.9.17,1.94.11,3.13-.17,1-.24,1.85-.56,2.55-.98.7-.41,1.21-.89,1.53-1.43.32-.54.4-1.12.25-1.74l-.03-.13-5.48,1.31-.79-3.31,10.31-2.46,2.35,9.82-2.9.69-.94-1.88c-.46.66-1.02,1.25-1.68,1.77-.66.52-1.4.97-2.23,1.34-.83.37-1.77.68-2.82.93Z" fill="#231815"/>
            <path d="m324.39,192.99c-2.11.68-4.04.93-5.8.74-1.76-.19-3.27-.82-4.52-1.88-1.26-1.06-2.21-2.57-2.84-4.53-.64-1.95-.76-3.73-.36-5.33.39-1.6,1.25-2.99,2.56-4.17,1.31-1.18,3.02-2.11,5.13-2.8,2.14-.7,4.08-.95,5.83-.76,1.75.19,3.25.81,4.51,1.87,1.26,1.06,2.21,2.57,2.84,4.53.64,1.95.76,3.73.36,5.33-.39,1.6-1.24,2.99-2.54,4.18-1.3,1.19-3.02,2.13-5.16,2.82Zm-1.19-3.66c.83-.27,1.53-.62,2.1-1.06.57-.44,1.02-.94,1.35-1.52.33-.57.51-1.2.56-1.89.05-.69-.05-1.41-.3-2.17l-.28-.86c-.25-.76-.59-1.4-1.03-1.93-.44-.53-.96-.93-1.56-1.2-.6-.27-1.26-.41-1.98-.42-.72,0-1.49.12-2.32.39-.81.26-1.51.61-2.09,1.04-.59.43-1.04.93-1.36,1.5-.32.57-.5,1.2-.54,1.88-.04.68.06,1.4.31,2.16l.28.86c.25.76.58,1.4,1.02,1.93.43.53.95.93,1.54,1.21s1.25.42,1.98.43c.73.01,1.5-.11,2.31-.37Z" fill="#231815"/>
            <path d="m338.3,187.9l-7.21-16.77,8.2-3.53c1.94-.83,3.73-1.24,5.37-1.21,1.64.03,3.1.51,4.36,1.44,1.27.93,2.3,2.32,3.1,4.18.8,1.86,1.1,3.56.9,5.12-.2,1.56-.85,2.95-1.95,4.17-1.11,1.22-2.63,2.24-4.57,3.08l-8.2,3.53Zm3.13-5.57l3.37-1.45c.72-.31,1.32-.68,1.8-1.12.49-.44.85-.93,1.09-1.48.24-.55.34-1.14.3-1.78-.03-.64-.2-1.31-.5-2.01l-.35-.81c-.31-.72-.68-1.3-1.12-1.76-.44-.46-.94-.79-1.5-1-.56-.21-1.17-.29-1.82-.24s-1.34.23-2.06.54l-3.37,1.45,4.16,9.67Z" fill="#231815"/>
          </g>
        </g>
        <g>
          <path d="m73.98,122.54c-1.32-1.44-1.98-3.22-1.98-5.32,0-1.02.24-1.53.72-1.53,1.8-.12,3.61-.69,5.41-1.71-1.98-.78-3.04-2.73-3.16-5.86v-14.16c-.06-14.31-.12-21.19-.18-20.65.06-2.1.24-4.69.54-7.76.12-.48.54-.72,1.26-.72,1.02,0,2.13.33,3.34.99l.63.36c6.01-4.63,10.34-6.82,12.98-6.58,4.69.36,8.12,2.46,10.28,6.31.66,1.2.99,2.55.99,4.06,0,.78-.12,1.5-.36,2.16.06.18.21,3.31.45,9.38.18,6.67.27,12.15.27,16.41,0,3.97-.09,6.37-.27,7.21-.36,1.5-1.5,2.59-3.43,3.25-1.56.6-3.19.84-4.87.72l-.09-.09-.09.18c-2.11,2.71-5.26,6.16-9.47,10.37-2.77,2.83-4.69,4.57-5.77,5.23-.6.36-1.23.54-1.89.54-1.86,0-3.64-.93-5.32-2.8Zm19.39-41.84c0-4.33-.09-9.02-.27-14.07-.06-.18-.21-.27-.45-.27-1.02,0-3.61,1.14-7.76,3.43.84,1.14,1.29,2.47,1.35,3.97.06,1.08.15,4.24.27,9.47,2.76-1.56,4.57-2.44,5.41-2.62.36-.06.84-.03,1.44.09Zm-6.67,26.78c1.44-1.32,3.73-3.31,6.85-5.95-.06-1.26-.12-5.47-.18-12.63-1.56.9-3.76,2.14-6.58,3.7.06,4.33.03,9.29-.09,14.88Zm47.16-10.64c-5.77,2.16-10.16,3.19-13.17,3.07-.48,4.27-1.29,8.57-2.43,12.89-.9,3.49-1.62,5.71-2.16,6.67-1.56,2.76-2.65,4.6-3.25,5.5-1.38,1.92-2.92,3.37-4.6,4.33-1.2.66-2.07.99-2.62.99-.48,0-.72-.3-.72-.9,0-.42.15-1.14.45-2.16.42-1.32.66-2.1.72-2.34,2.29-10.4,3.76-23.36,4.42-38.87.42-10.16.63-16.71.63-19.66,0-3.79-.21-5.94-.63-6.45-.42-.51-.9-1.28-1.44-2.3-.12-1.8.51-2.71,1.89-2.71.84,0,2.18.3,4.01.9,1.83.6,3.05,1.14,3.65,1.62,7.45-3.49,12.89-5.2,16.32-5.14,1.98,0,4.15.48,6.49,1.44,2.59,1.08,4.09,2.29,4.51,3.61.18.54.27,1.08.27,1.62,0,1.02-.38,2.21-1.13,3.56-.75,1.35-1.13,2.21-1.13,2.57,0,3.01.06,9.29.18,18.85.06,2.89.3,10.07.72,21.55.36,10.1.51,15.96.45,17.58-.06,3.07-.18,4.96-.36,5.68-.42,1.68-1.41,2.58-2.97,2.71-2.11.12-4.18-.57-6.22-2.07-1.2-.84-2.24-2.25-3.11-4.24-.87-1.99-2.75-5.62-5.64-10.91-.84-1.62-1.26-2.86-1.26-3.7,0-.36.06-.54.18-.54.3,0,.75.39,1.35,1.17,3.79,4.69,5.83,7.03,6.13,7.03.18,0,.27-.15.27-.45.24-3.01.3-9.98.18-20.92Zm-.27-17.58c-5.05,1.86-9.08,2.86-12.08,2.98l-.36,9.11c3.49-.54,7.7-1.59,12.63-3.16-.06-3.07-.12-6.04-.18-8.93Zm-11.9-5.68c3.43-.6,7.42-1.62,11.99-3.07.06-7.58-.03-11.36-.27-11.36-1.32,0-5.29,1.29-11.9,3.88.18,2.16.24,5.68.18,10.55Z" fill="#231815"/>
          <path d="m218.04,98.19c-14.55,2.16-22.6,3.13-24.17,2.89-.54-.06-1.26-.3-2.16-.72-1.2,5.59-2.59,10.04-4.15,13.35-1.02,2.05-3.37,5.83-7.03,11.36-1.5,2.22-4.03,4.36-7.58,6.4-.96.54-1.77.81-2.43.81-1.08,0-1.32-.6-.72-1.8l4.33-10.73c1.26-3.19,2.64-8.39,4.15-15.6,1.44-6.79,2.34-12.17,2.71-16.14.72-7.63,1.08-13.56,1.08-17.76,0-1.86-.32-3.91-.95-6.13-.63-2.22-.95-3.82-.95-4.78,0-2.22.63-3.1,1.9-2.62,1.56.54,3.16,1.08,4.78,1.62,1.99.78,3.58,1.62,4.78,2.52,11.9-6.01,20.44-9.05,25.61-9.11,2.46-.06,5.56,1.17,9.29,3.7,3.55,2.35,5.62,4.33,6.22,5.95.24.66.36,1.32.36,1.98,0,1.92-.81,3.1-2.44,3.52,0,.12.03,1.86.09,5.23.12,3.79.18,6.19.18,7.21l.72,42.02v1.99c.06.78.09,1.44.09,1.98,0,4.51-1.59,7.12-4.78,7.85-.72.18-1.44.27-2.16.27-2.41,0-4.96-1.11-7.67-3.34-2.22-2.11-4.45-4.21-6.67-6.31-2.59-2.41-5.17-4.81-7.76-7.21-3.25-3.19-6.25-6.49-9.02-9.92-.3-.36-.45-.72-.45-1.08,0-.84.57-1.26,1.71-1.26.3,0,.51.06.63.18,3.31,2.65,6.61,5.29,9.92,7.94,4.33,3.25,7.76,4.96,10.28,5.14.06,0,.23.04.5.13.27.09.47.14.59.14.48,0,.75-.48.81-1.44.18-2.28.3-8.36.36-18.22Zm-24.89-5.5c6.31-.9,13.01-2.22,20.11-3.97l1.35-.9c1.2.12,2.34.33,3.43.63,0-1.8-.03-5.05-.09-9.74-5.47,1.14-13.35,2.86-23.63,5.14-.3,2.95-.69,5.89-1.17,8.84Zm1.99-18.22c4.51-1.08,11.03-2.71,19.57-4.87-.18,0,.15-.3.99-.9.72-.06,1.44,0,2.16.18-.06-1.68-.09-2.76-.09-3.25-.12-3.73-.48-5.68-1.08-5.86-7.46,1.44-14.64,4.03-21.55,7.76.12,1.8.12,4.12,0,6.94Z" fill="#231815"/>
          <path d="m302.85,96.48c-.42,1.26-.93,2.34-1.53,3.25,5.65-1.14,10.16-1.74,13.53-1.8h2.07c1.74.24,4.06,1.6,6.94,4.06,3.31,2.95,4.87,5.74,4.69,8.39-.18,1.74-1.9,4.72-5.14,8.93,1.44.96,2.22,2.19,2.34,3.7.06,1.2-1.17,2.85-3.7,4.96-.6.48-2.56.69-5.86.63-2.16-.12-4.3-.21-6.4-.27-1.14-.06-7.18.6-18.13,1.98-.78,1.26-1.92,1.89-3.43,1.89-.66,0-1.32-.15-1.99-.45-6.61-3.01-11.99-10.31-16.14-21.91v.09c-.78-2.16-1.17-4.09-1.17-5.77,0-1.56.33-2.34.99-2.34,3.43-.06,6.34,1.17,8.75,3.7,1.92-.6,3.79-1.14,5.59-1.62,1.44-1.02,2.82-2.16,4.15-3.43-3.85-1.68-6.64-4.93-8.39-9.74-1.08-2.94-1.65-5.89-1.71-8.84-.06-1.32.07-2.57.4-3.74.33-1.17.74-1.7,1.22-1.58,1.14.36,2.37,1.08,3.7,2.16,4.63-1.56,9.83-2.92,15.6-4.06,6.01-1.2,10.34-1.68,12.98-1.44l.54-.45c1.5.12,3.03.81,4.6,2.07,1.62-.96,3.07-2.06,4.33-3.29,1.26-1.23,1.9-2.12,1.9-2.66,0-.24-.15-.39-.45-.45-.9-.12-2.02-.18-3.34-.18-5.47,0-13.23.99-23.27,2.97-9.26,1.86-17.86,4.03-25.79,6.49,0,.36-.06,1.38-.18,3.06-.18,2.29-.66,4.33-1.44,6.13-.36.9-1.17,1.53-2.43,1.89-1.02.3-1.8.33-2.34.09-1.5-.72-2.87-2.34-4.1-4.87-1.23-2.53-1.85-4.87-1.85-7.03,0-.72.09-1.35.27-1.89,1.56-3.49,3.19-7.58,4.87-12.26.06-.6.36-.9.9-.9.96,0,2.04.6,3.25,1.8,1.2,1.2,2.01,2.34,2.43,3.43.24.72.45,1.53.63,2.44,3.73-.96,10.49-2.65,20.29-5.05.24-.42.42-.81.54-1.17-3.49-2.53-5.23-4.51-5.23-5.95,0-.78.57-1.44,1.71-1.99.66-.3,2.07-.75,4.24-1.35.78-.06,1.68-.09,2.71-.09,6.01,0,10.97,1.62,14.88,4.87.48.36.78.84.9,1.44,4.57-.54,8.63-.69,12.17-.45l.99-.54c1.5-.18,4.3.93,8.39,3.34,4.39,2.65,6.52,5.08,6.4,7.31-.06.84-.63,1.86-1.71,3.06-1.32,1.56-3.16,2.95-5.5,4.15-1.2.6-2.37.9-3.52.9-.96,0-1.62-.18-1.98-.54-.84-1.02-1.89-1.77-3.16-2.25-.96,0-2.37.24-4.24.72,1.56,1.56,2.34,3.04,2.34,4.42,0,.42-.09.74-.27.95-.18.21-.78,1.31-1.8,3.29-1.2,2.29-2.56,4.21-4.06,5.77.36.3.57.57.63.81.12.54-.38,1.32-1.49,2.34-1.11,1.02-2.21,1.68-3.29,1.98-1.86.18-4.27.45-7.21.81l-.63.09Zm-14.61,23.72c3.85-.42,9.26-.81,16.23-1.17,3-2.58,5.56-5.62,7.66-9.11,1.8-3.01,2.5-4.54,2.07-4.6-.54-.12-1.2-.18-1.99-.18-3.25,0-8.18.87-14.79,2.62-5.41,1.44-10.16,2.95-14.25,4.51l5.05,7.94Zm15.78-32.01c2.04-3.01,3.24-5.59,3.61-7.76-.12-.06-.33-.09-.63-.09-3.31,0-9.59,1.47-18.85,4.42.78,1.44,1.9,3.52,3.34,6.22,3.07-.66,7.24-1.59,12.54-2.8Z" fill="#231815"/>
        </g>
        <g>
          <path d="m140.6,161.05c-.74,0-1.42-.05-2.06-.14s-1.2-.26-1.68-.5c-.48-.23-.86-.56-1.13-.98-.28-.42-.41-.94-.41-1.58v-.08s0-.07.01-.1h3.11s-.01.07-.01.1v.09c0,.28.08.49.23.64.16.15.38.25.66.3.28.05.61.08.97.08.15,0,.3,0,.46,0,.16,0,.31-.02.46-.04s.28-.06.4-.1.21-.11.28-.19c.07-.08.1-.18.1-.3,0-.18-.09-.31-.27-.41-.18-.1-.43-.18-.74-.23-.31-.06-.66-.12-1.04-.17-.38-.05-.78-.12-1.19-.21-.41-.08-.81-.19-1.2-.33-.39-.13-.73-.31-1.04-.54-.31-.23-.55-.51-.74-.85-.18-.34-.28-.75-.28-1.24,0-.55.13-1.02.39-1.41.26-.39.62-.7,1.06-.94.45-.24.96-.42,1.54-.53.58-.11,1.18-.17,1.81-.17s1.25.06,1.82.17c.57.11,1.07.28,1.5.52.44.23.78.54,1.03.9s.37.81.37,1.34v.17h-3.08v-.06c0-.17-.05-.33-.15-.48-.1-.15-.26-.26-.48-.35-.22-.09-.52-.13-.88-.13s-.66.03-.9.08c-.24.06-.42.13-.54.23-.12.1-.18.2-.18.31,0,.17.09.3.28.4.18.1.43.18.74.25.31.07.66.13,1.04.18.39.05.79.12,1.2.19.41.07.81.17,1.19.3.38.13.73.29,1.04.51.31.22.56.48.74.81.18.32.27.72.27,1.19,0,.78-.2,1.42-.61,1.91-.41.49-.97.84-1.68,1.07-.71.23-1.51.34-2.4.34Z" fill="#231815"/>
          <path d="m152.09,161.05c-1.15,0-2.12-.17-2.9-.5-.78-.33-1.37-.82-1.77-1.47s-.6-1.45-.6-2.4v-5.3h3.23v5.21c0,.64.17,1.16.52,1.55.35.39.85.58,1.5.58s1.17-.19,1.52-.58c.35-.38.52-.9.52-1.55v-5.21h3.23v5.3c0,.95-.2,1.75-.59,2.4-.4.65-.99,1.14-1.77,1.47s-1.75.5-2.9.5Z" fill="#231815"/>
          <path d="m159.39,160.88v-9.5h2.79l3.82,3.69c.06.06.16.16.28.3.12.13.24.27.37.41s.23.26.32.35h.1v-4.75h2.98v9.5h-2.76l-3.89-3.77c-.17-.18-.34-.35-.5-.52-.16-.17-.3-.32-.42-.45l-.1.02c0,.15.01.32.01.53v4.19h-3Z" fill="#231815"/>
          <path d="m175.34,160.88v-9.5h4.8l1.02,3.41c.06.16.12.37.19.63.07.26.15.54.22.83.07.29.14.55.19.78h.1c.05-.19.1-.42.17-.68s.14-.53.22-.81c.08-.28.15-.53.21-.75l1.02-3.41h4.64v9.5h-3.16v-3.78c0-.3,0-.62,0-.95,0-.33.01-.65.02-.96,0-.31.01-.57.01-.78h-.11c-.05.19-.1.42-.17.69s-.14.53-.21.79-.14.48-.21.66l-1.35,4.34h-2.65l-1.37-4.34c-.07-.24-.15-.49-.23-.76s-.15-.52-.21-.77c-.06-.24-.11-.45-.16-.62h-.11c0,.19.02.44.03.73,0,.29.02.61.02.95,0,.34,0,.68,0,1.01v3.78h-2.95Z" fill="#231815"/>
          <path d="m195.51,161.05c-1.19,0-2.21-.19-3.07-.57-.86-.38-1.51-.94-1.97-1.67-.46-.73-.69-1.62-.69-2.67s.23-1.95.69-2.68c.46-.73,1.12-1.29,1.97-1.66.86-.38,1.88-.57,3.07-.57s2.22.19,3.08.57c.86.38,1.51.93,1.97,1.66.46.73.69,1.63.69,2.68s-.23,1.94-.69,2.67c-.46.73-1.12,1.29-1.97,1.67-.86.38-1.88.57-3.08.57Zm0-2.32c.39,0,.73-.06,1.03-.17s.55-.27.77-.48c.21-.21.37-.45.48-.73s.16-.59.16-.93v-.61c0-.33-.05-.64-.16-.92s-.26-.52-.48-.73c-.21-.2-.47-.36-.77-.47-.3-.11-.64-.17-1.03-.17s-.72.06-1.02.17c-.3.11-.56.27-.77.47-.21.2-.36.44-.47.73-.11.28-.16.59-.16.92v.61c0,.34.05.65.16.93.1.28.26.53.47.73.21.21.46.37.77.48.3.11.64.17,1.02.17Z" fill="#231815"/>
          <path d="m208.22,161.05c-1.19,0-2.21-.19-3.07-.57-.86-.38-1.51-.94-1.97-1.67-.46-.73-.69-1.62-.69-2.67s.23-1.95.69-2.68c.46-.73,1.12-1.29,1.97-1.66s1.88-.57,3.07-.57,2.22.19,3.08.57c.86.38,1.51.93,1.97,1.66.46.73.69,1.63.69,2.68s-.23,1.94-.69,2.67c-.46.73-1.12,1.29-1.97,1.67-.86.38-1.88.57-3.08.57Zm0-2.32c.39,0,.73-.06,1.03-.17s.55-.27.77-.48c.21-.21.37-.45.48-.73s.16-.59.16-.93v-.61c0-.33-.05-.64-.16-.92s-.26-.52-.48-.73c-.21-.2-.47-.36-.77-.47-.3-.11-.64-.17-1.03-.17s-.72.06-1.02.17c-.3.11-.56.27-.77.47-.21.2-.36.44-.47.73-.11.28-.16.59-.16.92v.61c0,.34.05.65.16.93.1.28.26.53.47.73.21.21.46.37.77.48s.64.17,1.02.17Z" fill="#231815"/>
          <path d="m215.61,160.88v-9.5h2.79l3.82,3.69c.06.06.16.16.28.3s.24.27.37.41c.13.14.23.26.32.35h.1v-4.75h2.98v9.5h-2.76l-3.89-3.77c-.18-.18-.34-.35-.5-.52-.16-.17-.3-.32-.42-.45l-.1.02c0,.15.01.32.01.53v4.19h-3Z" fill="#231815"/>
          <path d="m231.56,160.88v-9.5h3.23v6.97h5.52v2.53h-8.75Z" fill="#231815"/>
          <path d="m240.7,160.88l4.03-9.5h3.66l4.03,9.5h-3.45l-.48-1.3h-3.99l-.47,1.3h-3.33Zm4.64-3.55h2.32l-.55-1.56c-.04-.09-.08-.21-.12-.35s-.09-.29-.15-.46c-.05-.17-.1-.33-.14-.5s-.09-.31-.14-.44h-.1c-.05.17-.1.35-.17.56-.07.21-.14.41-.2.62s-.13.39-.19.56l-.55,1.56Z" fill="#231815"/>
          <path d="m253.55,160.88v-9.5h3.23v4.13l3.99-4.13h4l-3.8,3.89,3.89,5.61h-3.88l-2.35-3.56-1.86,1.63v1.93h-3.23Z" fill="#231815"/>
          <path d="m266.15,160.88v-9.5h9.18v2.32h-5.95v1.27h5.11v2.21h-5.11v1.38h6.05v2.32h-9.28Z" fill="#231815"/>
        </g>
      </g>
    </g>
  </g>
</svg>