<?xml version="1.0" encoding="UTF-8"?>
<svg id="_文字_圖" data-name="文字/圖" xmlns="http://www.w3.org/2000/svg" width="497.75" height="503.49" viewBox="0 0 497.75 503.49">
  <path d="m47.77,151.73c-12.38,1.84-19.24,2.66-20.56,2.45-.46-.05-1.07-.26-1.84-.61-1.02,4.76-2.2,8.54-3.53,11.36-.87,1.74-2.87,4.96-5.99,9.67-1.28,1.89-3.43,3.71-6.45,5.45-.82.46-1.51.69-2.07.69-.92,0-1.13-.51-.61-1.53l3.68-9.13c1.07-2.71,2.25-7.14,3.53-13.28,1.23-5.78,1.99-10.36,2.3-13.74.61-6.49.92-11.53.92-15.12,0-1.59-.27-3.32-.81-5.22-.54-1.89-.81-3.25-.81-4.07,0-1.89.54-2.63,1.61-2.23,1.33.46,2.69.92,4.07,1.38,1.69.66,3.04,1.38,4.07,2.15,10.13-5.11,17.39-7.7,21.79-7.75,2.1-.05,4.73,1,7.9,3.15,3.02,2,4.78,3.68,5.29,5.07.2.56.31,1.13.31,1.69,0,1.64-.69,2.64-2.07,2.99,0,.1.03,1.59.08,4.45.1,3.22.15,5.27.15,6.14l.61,35.76v1.69c.05.66.08,1.23.08,1.69,0,3.84-1.36,6.06-4.07,6.68-.61.15-1.23.23-1.84.23-2.05,0-4.22-.95-6.52-2.84-1.89-1.79-3.79-3.58-5.68-5.37-2.2-2.05-4.4-4.09-6.6-6.14-2.76-2.71-5.32-5.53-7.67-8.44-.26-.31-.38-.61-.38-.92,0-.72.49-1.07,1.46-1.07.26,0,.43.05.54.15,2.81,2.25,5.63,4.5,8.44,6.75,3.68,2.76,6.6,4.22,8.75,4.37.05,0,.19.04.42.11.23.08.4.12.5.12.41,0,.64-.41.69-1.23.15-1.94.26-7.11.31-15.5Zm-21.18-4.68c5.37-.77,11.07-1.89,17.11-3.38l1.15-.77c1.02.1,2,.28,2.92.54,0-1.53-.03-4.3-.08-8.29-4.66.97-11.36,2.43-20.1,4.37-.26,2.51-.59,5.02-1,7.52Zm1.69-15.5c3.84-.92,9.39-2.3,16.65-4.14-.15,0,.13-.26.84-.77.61-.05,1.23,0,1.84.15-.05-1.43-.08-2.35-.08-2.76-.1-3.17-.41-4.83-.92-4.99-6.34,1.23-12.46,3.43-18.34,6.6.1,1.53.1,3.5,0,5.91Z" fill="#231815"/>
  <path d="m3.74,232.73c5.27-1.48,12.1-3.12,20.49-4.91.61-1.69,1.05-3.2,1.31-4.53.1-.72.2-1.48.31-2.3-4.35.87-7.08,1.38-8.21,1.53-1.89.31-4.14-.15-6.75-1.38-1.94-.92-2.91-1.94-2.91-3.07,0-.31.1-.56.31-.77.66-.66,2.27-1.35,4.83-2.07,3.43-.92,7.95-2,13.58-3.22.05-.97-.05-2.06-.31-3.26-.26-1.2-.38-2.08-.38-2.65,0-1.64,1.15-2.33,3.45-2.07,1.28.15,2.74.83,4.37,2.03,1.64,1.2,2.89,2.47,3.76,3.8,1.89-.31,3.45-.49,4.68-.54.72-.05,1.41-.33,2.07-.84.66-.51,1.13-.77,1.38-.77,1.48,0,3.91.82,7.29,2.45,1.64-1.79,2.56-2.84,2.76-3.15.92-1.28,1.71-1.92,2.38-1.92,1.02,0,2.33.82,3.91,2.46,1.59,1.64,2.51,2.97,2.76,3.99.2.82-.31,1.69-1.53,2.61-1.84,1.94-4.96,5.22-9.36,9.82,2.92.26,5.91,1.15,8.98,2.69,3.07,1.53,4.42,2.81,4.07,3.84-.92,2.66-2.4,3.99-4.45,3.99-.87,0-1.82-.18-2.84-.54-2.91-1.02-7.75-1.38-14.5-1.07-6.34,6.5-10.9,11.03-13.66,13.58,1.07,1.18,1.87,2.23,2.38,3.15,3.43-2.56,6.55-5.29,9.36-8.21,2.2-2.3,3.4-3.73,3.61-4.3v-1.69c.1-.82.54-1.1,1.3-.84,1.02.26,2.46,1.07,4.3,2.45,2.15,1.53,3.17,2.71,3.07,3.53-.15,1.28-.69,2.35-1.61,3.22-1.13,1.18-2.22,2.33-3.3,3.45-1.94,1.94-3.76,3.35-5.45,4.22-1.69.87-3.4,1.76-5.14,2.69-1.99.97-3.94,1.59-5.83,1.84-.26,3.27-.08,5.27.54,5.98.41.41,2.12.61,5.14.61,3.17,0,6.39-.2,9.67-.61,3.58-.46,5.6-.98,6.06-1.57.46-.59.66-3.52.61-8.79,0-1.28.26-1.92.77-1.92.61,0,1.07.51,1.38,1.53.41,1.38,1.07,3.43,1.99,6.14.2.61,1.23,1.66,3.07,3.15,1.53,1.33,2.3,2.74,2.3,4.22,0,.46-.05.92-.15,1.38-.56,2.45-3.43,4.07-8.6,4.83-3.02.46-7.57.64-13.66.54-4.71-.05-7.9-.31-9.59-.77-2.61-.66-4.94-2.2-6.98-4.6-1.79-2.05-2.53-6.65-2.23-13.81-2.15,1.84-5.76,4.6-10.82,8.29-1.84,1.18-3.48,2.05-4.91,2.61-1.59.66-2.71,1.2-3.38,1.61-1.99,1.18-3.58,1.48-4.76.92-1.18-.61-.79-1.69,1.15-3.22,1.79-1.43,3.86-3.32,6.22-5.68,2.71-2.76,5.46-5.55,8.25-8.36,2.79-2.81,7.35-7.49,13.7-14.04l-.61.08c-1.38.26-5.27,1.23-11.66,2.91-5.68,1.59-8.98,2.38-9.9,2.38-1.07,0-2.48-.51-4.22-1.53-1.89-1.12-2.84-2.2-2.84-3.22,0-.97,1-1.74,2.99-2.3Zm32.53-6.91l2.15-.31,7.9-8.29c-1.89.26-4.68.72-8.36,1.38-.31,3.02-.87,5.42-1.69,7.21Z" fill="#231815"/>
  <path d="m54.65,350.75c-2.51.31-4.17.38-4.99.23-.36-.05-.72-.15-1.07-.31-.56,6.4-1.36,10.67-2.38,12.82-.77,1.64-1.77,3.17-2.99,4.6-1.64,1.79-3.12,2.69-4.45,2.69-.51,0-.77-.23-.77-.69,0-.26.08-.56.23-.92.66-1.59,1.25-4.17,1.76-7.75h-2.84c-1.43.05-3.61.28-6.52.69,0,3.43-.11,5.61-.35,6.56-.23.95-.87,1.7-1.92,2.26-1.05.56-2.01.84-2.88.84-.41,0-.64-.08-.69-.23-.31-.67-.46-2.41-.46-5.22,0-.56.05-1.64.15-3.22-3.38.56-5.32.84-5.83.84-.56,0-1.42-.42-2.57-1.27-1.15-.85-1.73-1.55-1.73-2.11,0-.66.33-1.1,1-1.3,2.05-.61,5.17-1.31,9.36-2.07v-2.76l-.38.08c-.46.87-1.31,1.31-2.53,1.31-.41,0-.87-.1-1.38-.31-.51-.2-1.61-1.64-3.3-4.3-.2-.31-.46-1.31-.77-2.99-.41-1.89-.64-3.53-.69-4.91-.15,1.13-.36,2.35-.61,3.68-1.49,9.11-3.28,15.06-5.37,17.88-2.1,2.81-3.81,4.48-5.14,4.99-1.74.61-2.69.69-2.84.23-.05-.2.15-1.15.61-2.84.77-2.81,1.47-6.04,2.11-9.67.64-3.63,1.37-8.16,2.19-13.58,1.28-9.67,1.79-16.5,1.53-20.49-1.43-1.18-2.05-2.17-1.84-2.99.26-.92,2.35-1.99,6.29-3.22,3.17-1.07,8.64-2.3,16.42-3.68-.1-.77-.44-1.41-1-1.92-.77-.72-1.18-1.07-1.23-1.07-.36-.56-.54-1.15-.54-1.76,0-2.2,1.35-3.3,4.07-3.3,2.2,0,4.63.66,7.29,1.99,2.66,1.33,4.25,2.69,4.76,4.07,4.6-.51,8.67-.74,12.2-.69.51-.2,1.07-.38,1.69-.54,1.79.51,3.63,1.38,5.52,2.61,2.35,1.59,3.53,3.02,3.53,4.3,0,.36-.1.69-.31,1-.82,1.33-1.89,1.99-3.22,1.99-.61,0-1.83-.24-3.64-.73-1.82-.48-3.34-.73-4.57-.73-7.57.05-16.45,1.23-26.63,3.53,2.81,1.53,4.17,2.81,4.07,3.84-.05.26-.08.56-.08.92.77-.2,1.28-.31,1.53-.31.61-.15,1.41-.06,2.38.27.97.33,1.97.68,2.99,1.04.72.2,1.07.64,1.07,1.3,0,.56-.23,1.19-.69,1.88-.46.69-1.51,1.16-3.15,1.42-1.07.15-2.46.46-4.14.92v2.38c.97-.2,1.64-.26,1.99-.15,1.28.36,2.7,1,4.26,1.92,1.56.92,2.47,1.66,2.72,2.23.51,1.33.74,2.3.69,2.91-.15,1.84-.81,4.03-1.96,6.56-1.15,2.53-2.01,3.85-2.57,3.95-1.48.26-2.28.36-2.38.31-.36-.1-.72-.31-1.07-.61-.77.05-1.66.15-2.69.31.46.46.72,1.41.77,2.84l2.38-.31c.31-.05.77-.23,1.38-.54.46-.2.82-.28,1.07-.23.66.26,2.3,1.2,4.91,2.84.61-5.01,1.07-10.69,1.38-17.04.26-5.73.31-9.82.15-12.28,0-.41-.28-1.05-.85-1.92-.2-.26-.23-.64-.08-1.15.2-.46.43-.66.69-.61.92.2,1.99.66,3.22,1.38,4.86-2.71,7.9-4.17,9.13-4.37.31-.15.61-.31.92-.46.41-.15.84-.13,1.3.08,1.02.41,2.05.82,3.07,1.23,1.53.72,2.48,1.48,2.84,2.3.2.61.28,1.38.23,2.3-.1,1.69-.15,2.38-.15,2.07,0,25.27,0,37.83,0,37.68-.26,2.61-.97,3.96-2.15,4.07-2.2.15-3.66-.37-4.37-1.57-.72-1.2-1.84-2.98-3.38-5.33-.66-.66-1.84-2.18-3.53-4.53-.36-.56-.46-1.05-.31-1.46.1-.41.31-.49.61-.23,3.27,3.07,4.96,4.6,5.07,4.6s.15-.05.15-.15c.15-1.33.23-5.29.23-11.89Zm-29.85-21.79v-2.46c0,.05-.2-.56-.61-1.84-.15-.46.08-1.07.69-1.84-2.1.66-5.32,1.48-9.67,2.45.97.87,1.53,1.82,1.69,2.84.1.46.13,1.61.08,3.45,1.74-.66,4.35-1.53,7.83-2.61Zm-6.91,11.74c.31-.2,1.64-.54,3.99-1,1.69-.31,2.56-.92,2.61-1.84l.08-2.23-2.3.69c-.26.05-.54.08-.84.08-1.38,0-2.97-.41-4.76-1.23-.1,1.38-.28,2.97-.54,4.76.15-.2.36-.23.61-.08.36.26.74.54,1.15.84Zm13.28,8.21c1.58-3.17,2.38-5.88,2.38-8.13-.05-.82-.44-1.18-1.15-1.07-1.69.15-5.53,1.33-11.51,3.53.1.15.31.72.61,1.69,1.43-.41,3.35-.94,5.76-1.61.05,0,.24-.09.58-.27.33-.18.6-.24.81-.19.51.26,1.02.49,1.53.69.72.36,1.13.72,1.23,1.07.15.41.11.88-.11,1.42-.23.54-.6.83-1.11.88l-7.52,1.69c.2.72.38,1.33.54,1.84,1.07-.15,3.73-.66,7.98-1.53Zm18.11-15.04c2.61-.61,4.32-1.05,5.14-1.31-.05-2.3-.11-3.72-.19-4.26-.08-.54-.32-.78-.73-.73-.82.1-2.38.84-4.68,2.23.31.61.46,1.97.46,4.07Zm-.31,11.82c1.99-.2,3.68-.51,5.06-.92.15-.05.33-.08.54-.08v-5.83c-2.4.46-4.19.77-5.37.92-.05,1.99-.13,3.97-.23,5.91Z" fill="#231815"/>
</svg>