<?xml version="1.0" encoding="UTF-8"?>
<svg id="_圖層_2" data-name="圖層 2" xmlns="http://www.w3.org/2000/svg" width="497.75" height="503.49" viewBox="0 0 497.75 503.49">
  <g id="_文字_圖" data-name="文字/圖">
    <g>
      <g>
        <path d="m72.99,67.24c-1.71.94-3.38,1.7-5,2.27-1.62.57-3.15.88-4.58.91-1.44.03-2.76-.28-3.95-.94-1.19-.66-2.2-1.74-3.03-3.25-.04-.07-.08-.14-.12-.22-.04-.08-.08-.17-.11-.28l6.41-3.51c.03.1.06.21.11.32.05.11.09.21.14.3.39.71.93,1.15,1.62,1.32.69.17,1.49.12,2.41-.16.92-.28,1.92-.72,3.02-1.32.53-.29,1.03-.59,1.51-.9.48-.31.92-.63,1.3-.96.38-.33.69-.67.93-1.02.24-.35.39-.7.45-1.05s0-.69-.19-1.03c-.28-.5-.73-.78-1.37-.83-.64-.05-1.4.03-2.29.25-.89.22-1.87.51-2.95.88-1.08.37-2.2.74-3.36,1.11-1.16.37-2.33.65-3.5.85-1.17.2-2.3.24-3.38.14-1.08-.1-2.08-.44-2.99-1.02-.91-.57-1.69-1.45-2.34-2.64-.68-1.23-.98-2.46-.9-3.68.08-1.22.47-2.4,1.2-3.55.72-1.15,1.7-2.25,2.93-3.28,1.23-1.03,2.65-1.99,4.25-2.86,1.6-.88,3.16-1.55,4.67-2.02s2.92-.69,4.24-.65c1.31.04,2.49.35,3.53.94,1.04.59,1.9,1.49,2.58,2.68l.23.41-6.34,3.48-.13-.24c-.28-.5-.7-.85-1.26-1.05-.57-.19-1.25-.22-2.05-.08s-1.69.48-2.67,1.02c-1.1.6-1.97,1.18-2.61,1.74s-1.06,1.09-1.25,1.58c-.19.49-.18.93.03,1.32.26.48.7.74,1.32.79s1.38-.05,2.27-.29,1.88-.55,2.95-.92c1.07-.38,2.19-.75,3.35-1.12,1.16-.37,2.33-.66,3.48-.88s2.28-.28,3.35-.19c1.08.09,2.06.42,2.96.97.9.55,1.66,1.4,2.28,2.54,1.03,1.87,1.36,3.66,1,5.36-.36,1.7-1.26,3.28-2.7,4.76-1.44,1.47-3.25,2.81-5.45,4.01Z" fill="#231815"/>
        <path d="m102.51,53.57c-2.86,1.12-5.44,1.64-7.73,1.55-2.29-.09-4.26-.78-5.91-2.05-1.65-1.27-2.94-3.11-3.89-5.51l-5.6-14.26,6.99-2.74,5.52,14.05c.75,1.92,1.87,3.2,3.34,3.85,1.48.65,3.19.59,5.16-.18,1.99-.78,3.31-1.91,3.96-3.4.65-1.49.6-3.19-.16-5.1l-5.52-14.05,6.95-2.73,5.6,14.26c.94,2.4,1.24,4.63.9,6.68-.34,2.05-1.31,3.89-2.92,5.51-1.6,1.62-3.83,3-6.7,4.12Z" fill="#231815"/>
        <path d="m121.94,45.88l-7.11-25.9,6.41-1.76,14.74,8.93c.28.14.63.35,1.04.63.41.28.84.56,1.29.84s.8.54,1.08.76l.25-.11c-.13-.48-.29-1.02-.46-1.62-.18-.6-.33-1.13-.45-1.58l-3.23-11.76,6.79-1.86,7.11,25.9-6.37,1.75-14.94-9.07c-.58-.35-1.18-.73-1.79-1.13-.61-.4-1.11-.73-1.51-1l-.25.11c.13.37.27.84.43,1.4.15.57.31,1.12.46,1.68l3.28,11.95-6.75,1.85Z" fill="#231815"/>
        <path d="m165.63,34.83l-3.97-26.56,11.17-1.67,5.65,11.09c.22.42.49.97.82,1.66.33.69.66,1.4.99,2.12.33.73.62,1.38.86,1.95l.27-.04c.08-.54.16-1.17.25-1.89s.19-1.48.3-2.26c.11-.78.21-1.48.3-2.1l2.16-12.26,10.9-1.63,3.97,26.56-7.31,1.09-1.87-12.53c-.12-.82-.25-1.69-.37-2.59-.12-.9-.23-1.75-.32-2.54-.09-.79-.16-1.41-.2-1.85l-.31.05c-.06.46-.14,1.06-.23,1.79-.09.74-.18,1.48-.28,2.24-.1.75-.2,1.4-.3,1.94l-2.66,14.47-6.42.96-6.77-13.06c-.3-.56-.61-1.18-.93-1.86-.33-.68-.62-1.34-.89-1.98s-.5-1.19-.7-1.64l-.31.05c.1.51.22,1.16.35,1.94s.27,1.61.43,2.48c.16.87.29,1.71.41,2.51l1.87,12.53-6.88,1.03Z" fill="#231815"/>
        <path d="m220.73,28.73c-3.25.21-6.1-.15-8.53-1.06-2.44-.92-4.36-2.36-5.76-4.33-1.41-1.97-2.2-4.47-2.4-7.49-.19-3.02.28-5.59,1.43-7.73,1.14-2.14,2.86-3.81,5.16-5.01,2.3-1.2,5.08-1.91,8.33-2.12,3.3-.21,6.16.14,8.59,1.04,2.42.9,4.33,2.34,5.74,4.32,1.41,1.97,2.2,4.47,2.4,7.49.19,3.02-.28,5.6-1.43,7.73-1.14,2.14-2.86,3.81-5.14,5.03-2.29,1.22-5.08,1.93-8.38,2.14Zm-.36-5.66c1.27-.08,2.4-.33,3.38-.74.98-.41,1.81-.97,2.48-1.67s1.17-1.52,1.49-2.48c.32-.96.44-2.03.36-3.2l-.08-1.33c-.08-1.17-.33-2.21-.77-3.12-.44-.91-1.03-1.67-1.79-2.28-.76-.6-1.65-1.04-2.67-1.32s-2.17-.37-3.45-.29c-1.25.08-2.37.32-3.36.72-.99.4-1.82.95-2.48,1.65-.66.7-1.14,1.52-1.45,2.48-.31.96-.42,2.02-.34,3.19l.08,1.33c.07,1.17.32,2.21.75,3.13.42.91,1.01,1.67,1.75,2.28s1.63,1.05,2.67,1.34c1.04.29,2.18.39,3.43.31Z" fill="#231815"/>
        <path d="m256.75,27.8c-3.26-.04-6.07-.6-8.43-1.7-2.36-1.1-4.17-2.68-5.42-4.75-1.25-2.07-1.86-4.62-1.83-7.64.03-3.02.7-5.56,2-7.6,1.3-2.04,3.14-3.58,5.52-4.61S253.8-.03,257.06,0c3.31.04,6.14.6,8.49,1.68,2.35,1.08,4.15,2.66,5.4,4.73,1.25,2.07,1.86,4.62,1.83,7.64-.03,3.02-.7,5.56-2,7.6-1.3,2.04-3.14,3.59-5.51,4.63-2.37,1.04-5.21,1.54-8.52,1.51Zm.06-5.67c1.28.01,2.42-.15,3.43-.49,1.01-.34,1.87-.83,2.6-1.48.72-.64,1.28-1.43,1.67-2.37.39-.93.59-1.99.6-3.16l.02-1.33c.01-1.17-.17-2.23-.53-3.17-.37-.94-.91-1.74-1.62-2.4-.71-.66-1.56-1.16-2.56-1.51-1-.35-2.14-.53-3.42-.55-1.25-.01-2.39.14-3.41.47s-1.88.81-2.6,1.46c-.71.64-1.25,1.43-1.63,2.37-.38.93-.57,1.99-.58,3.16l-.02,1.33c-.01,1.17.16,2.23.51,3.17s.88,1.74,1.58,2.4c.7.66,1.55,1.17,2.56,1.53,1.01.36,2.14.55,3.4.57Z" fill="#231815"/>
        <path d="m278.18,27.83l2.31-26.76,6.62.57,10.73,13.48c.22.23.47.54.76.95.29.41.6.82.91,1.24s.57.78.75,1.08l.28-.02c.04-.49.08-1.05.13-1.68s.08-1.17.12-1.64l1.05-12.15,7.01.61-2.31,26.76-6.58-.57-10.86-13.69c-.43-.53-.85-1.09-1.29-1.68-.43-.59-.79-1.07-1.07-1.47l-.28.02c0,.39-.04.88-.09,1.46s-.1,1.16-.15,1.73l-1.06,12.35-6.97-.6Z" fill="#231815"/>
        <path d="m322.76,32.58l4.78-26.43,7.35,1.33-3.69,20.43,15.2,2.75-1.08,6-22.55-4.07Z" fill="#231815"/>
        <path d="m347.07,36.89l18.06-23.04,8.32,2.17,4.52,28.94-7.79-2.04-.64-4.81-12.14-3.17-2.91,3.88-7.41-1.94Zm13.8-6.74l7.94,2.07-.72-5.92c-.03-.3-.06-.68-.11-1.14-.04-.46-.08-.94-.12-1.47-.04-.52-.07-1.03-.11-1.52s-.06-.89-.09-1.2l-.27-.07c-.27.41-.59.9-.97,1.46s-.74,1.11-1.09,1.63-.66.97-.91,1.34l-3.56,4.81Z" fill="#231815"/>
        <path d="m382,46.3l9.34-25.18,7,2.6-4.34,11.69,16.18-7.3,8.8,3.26-14.32,6.45,5.2,18.81-8.54-3.17-3.34-13.04-6.76,2.5-2.22,5.97-7-2.6Z" fill="#231815"/>
        <path d="m414.14,58.68l12.28-23.89,22.32,11.48-2.59,5.04-15.68-8.06-2.18,4.24,13.7,7.04-2.54,4.94-13.7-7.04-2.36,4.59,15.92,8.19-2.61,5.08-22.56-11.6Z" fill="#231815"/>
      </g>
      <g>
        <path d="m44.18,430.9l19.18-18.8,7.91,8.07-5.67,11.08c-.21.42-.49.97-.86,1.64-.37.67-.75,1.35-1.14,2.05s-.75,1.31-1.07,1.84l.19.19c.48-.25,1.04-.56,1.68-.91.64-.35,1.31-.72,2-1.09.69-.37,1.32-.7,1.88-.99l11.19-5.45,7.72,7.87-19.18,18.81-5.17-5.28,9.04-8.87c.59-.59,1.22-1.19,1.88-1.82.66-.63,1.28-1.21,1.87-1.75.59-.54,1.05-.95,1.38-1.24l-.22-.22c-.41.22-.94.51-1.58.87-.65.36-1.31.73-1.97,1.09-.67.36-1.25.66-1.75.89l-13.28,6.34-4.54-4.63,6.6-13.15c.28-.57.6-1.18.96-1.84.36-.66.72-1.29,1.08-1.88.36-.6.67-1.1.91-1.53l-.22-.22c-.36.38-.81.86-1.37,1.42s-1.15,1.17-1.76,1.81c-.61.64-1.21,1.24-1.79,1.81l-9.04,8.87-4.87-4.97Z" fill="#231815"/>
        <path d="m73.6,458.54l23.33-17.68,7.49,4.22-3,29.14-7.02-3.95.61-4.82-10.93-6.16-3.81,3.02-6.68-3.76Zm15.06-3l7.15,4.03.82-5.91c.05-.3.11-.68.19-1.13.08-.45.16-.93.26-1.45.09-.51.19-1.01.28-1.5s.17-.88.22-1.18l-.24-.13c-.37.33-.8.72-1.31,1.17-.51.45-1,.88-1.47,1.3-.48.42-.88.77-1.23,1.06l-4.67,3.74Z" fill="#231815"/>
        <path d="m109.42,477.12l7.84-19.26-9.45-3.85,2.28-5.61,25.78,10.5-2.28,5.61-9.41-3.83-7.84,19.26-6.92-2.82Z" fill="#231815"/>
        <path d="m142.95,489.32c-3.21-.92-5.75-2.18-7.64-3.8-1.88-1.61-3.09-3.56-3.63-5.86-.54-2.29-.38-4.93.48-7.91,1.25-4.36,3.45-7.31,6.61-8.86,3.15-1.55,7.11-1.64,11.87-.28,2.63.75,4.84,1.84,6.63,3.26,1.79,1.42,3.02,3.09,3.71,5.01.68,1.92.7,4.01.06,6.26l-7.03-2.01c.32-1.1.31-2.12,0-3.05-.32-.93-.9-1.74-1.74-2.43-.85-.69-1.93-1.23-3.26-1.61-1.6-.46-3.02-.55-4.26-.27-1.23.28-2.27.9-3.11,1.83-.84.94-1.47,2.15-1.89,3.63l-.37,1.28c-.42,1.48-.53,2.84-.31,4.08.21,1.24.76,2.31,1.64,3.22.88.9,2.11,1.58,3.69,2.03,1.43.41,2.71.56,3.84.45s2.07-.47,2.83-1.08c.76-.61,1.29-1.45,1.6-2.53l6.8,1.95c-.63,2.21-1.72,3.94-3.28,5.2-1.56,1.26-3.46,2.02-5.72,2.29-2.26.26-4.76,0-7.52-.79Z" fill="#231815"/>
        <path d="m162.42,494.04l4.83-26.42,7.34,1.34-1.83,10,13.31,2.43,1.83-10,7.34,1.35-4.83,26.42-7.34-1.34,1.91-10.46-13.31-2.43-1.92,10.46-7.34-1.35Z" fill="#231815"/>
        <path d="m197.44,500.2l2.34-26.76,11.26.98,2.91,12.11c.12.46.25,1.06.41,1.8.16.75.31,1.51.47,2.3.15.79.28,1.48.39,2.09l.27.02c.2-.5.43-1.1.69-1.78s.53-1.39.81-2.13c.29-.73.55-1.39.78-1.97l4.96-11.42,10.98.96-2.34,26.76-7.36-.64,1.1-12.62c.07-.83.15-1.7.25-2.61.09-.91.19-1.76.28-2.54.09-.79.18-1.41.24-1.84l-.31-.03c-.17.43-.38.99-.64,1.69s-.52,1.4-.79,2.11-.52,1.31-.75,1.82l-5.96,13.45-6.47-.57-3.54-14.28c-.16-.62-.31-1.29-.47-2.02s-.29-1.45-.4-2.13c-.11-.69-.21-1.27-.3-1.75l-.31-.03c-.02.52-.06,1.18-.11,1.97-.06.79-.11,1.63-.16,2.52-.05.89-.11,1.73-.18,2.53l-1.1,12.62-6.93-.61Z" fill="#231815"/>
        <path d="m235.93,503.23l11.87-26.76,8.6.07,11.47,26.95-8.05-.07-1.8-4.51-12.55-.1-1.87,4.48-7.66-.06Zm11.73-9.91l8.21.07-2.14-5.57c-.1-.29-.23-.65-.38-1.08-.15-.43-.31-.89-.48-1.39-.17-.49-.32-.98-.48-1.45-.15-.47-.28-.85-.38-1.14h-.27c-.16.47-.35,1.02-.58,1.66-.23.64-.45,1.25-.66,1.85-.21.6-.4,1.1-.56,1.52l-2.27,5.53Z" fill="#231815"/>
        <path d="m271.81,503.2l-1.94-26.79,7.45-.54.9,12.44,11.7-13.35,9.36-.68-10.36,11.8,12.53,14.97-9.09.66-8.44-10.48-5.12,5.07.46,6.36-7.45.54Z" fill="#231815"/>
        <path d="m306.1,500.4l-4.02-26.55,24.82-3.76.85,5.6-17.43,2.64.71,4.72,15.23-2.3.83,5.49-15.23,2.31.77,5.1,17.7-2.68.85,5.64-25.09,3.8Z" fill="#231815"/>
        <path d="m337.02,495.5l-6.29-26.11,18.43-4.44c1.93-.46,3.61-.48,5.06-.03s2.64,1.22,3.58,2.33c.94,1.11,1.59,2.43,1.96,3.95.4,1.67.38,3.27-.07,4.78-.45,1.52-1.34,2.84-2.65,3.96l7.77,8.87-8.17,1.97-6.48-7.89-8.02,1.93,2.15,8.93-7.26,1.75Zm3.81-16.08l9.27-2.23c.94-.23,1.61-.7,2.03-1.41.42-.72.5-1.58.26-2.59-.15-.63-.41-1.15-.77-1.54s-.8-.66-1.32-.81c-.52-.14-1.09-.14-1.73.02l-9.27,2.23,1.53,6.35Z" fill="#231815"/>
        <path d="m392.27,479.55c-4.52,1.83-8.36,2.15-11.53.96s-5.63-3.96-7.39-8.31c-1.15-2.85-1.53-5.47-1.14-7.85.4-2.38,1.52-4.5,3.37-6.36,1.85-1.86,4.33-3.42,7.45-4.68,1.91-.77,3.77-1.3,5.6-1.59,1.82-.29,3.52-.31,5.08-.05,1.56.25,2.93.82,4.08,1.7,1.16.88,2.06,2.11,2.69,3.68l-6.74,2.73c-.27-.68-.69-1.2-1.26-1.56-.57-.36-1.23-.58-1.97-.66-.75-.08-1.55-.04-2.42.12s-1.75.41-2.64.77c-1.28.52-2.37,1.13-3.27,1.83-.9.7-1.57,1.49-2.01,2.38-.44.88-.66,1.83-.66,2.84,0,1.01.23,2.08.69,3.22l.5,1.23c.65,1.6,1.47,2.79,2.49,3.59,1.01.8,2.19,1.22,3.53,1.27,1.34.05,2.84-.27,4.51-.94,1.4-.57,2.57-1.23,3.5-1.99s1.57-1.56,1.91-2.42c.34-.86.34-1.72-.01-2.59l-.08-.18-7.68,3.11-1.88-4.64,14.46-5.86,5.58,13.77-4.06,1.64-1.78-2.53c-.53,1.06-1.21,2.04-2.06,2.94-.84.9-1.83,1.72-2.96,2.44-1.13.72-2.43,1.38-3.9,1.98Z" fill="#231815"/>
        <path d="m426.57,462.37c-2.76,1.73-5.43,2.78-8,3.14-2.58.36-4.95,0-7.13-1.06s-4.07-2.88-5.68-5.44c-1.61-2.56-2.42-5.05-2.43-7.47-.01-2.42.7-4.71,2.15-6.87,1.45-2.16,3.55-4.1,6.31-5.83,2.8-1.76,5.48-2.82,8.04-3.18,2.56-.36,4.93,0,7.1,1.05,2.18,1.06,4.07,2.88,5.68,5.44,1.61,2.56,2.42,5.05,2.43,7.47s-.69,4.71-2.12,6.87c-1.43,2.16-3.54,4.12-6.35,5.88Zm-3.02-4.8c1.08-.68,1.95-1.44,2.62-2.27.66-.83,1.12-1.71,1.38-2.65.26-.93.3-1.9.12-2.89s-.58-1.99-1.2-2.98l-.71-1.13c-.62-.99-1.35-1.79-2.17-2.38-.82-.59-1.71-.98-2.66-1.15-.95-.17-1.94-.13-2.97.12-1.03.25-2.09.71-3.17,1.39-1.06.67-1.93,1.41-2.61,2.24-.68.83-1.15,1.71-1.39,2.63-.25.93-.28,1.88-.09,2.87s.6,1.98,1.22,2.97l.71,1.13c.62.99,1.34,1.79,2.15,2.39s1.68.99,2.63,1.17c.94.18,1.94.14,2.99-.1,1.05-.24,2.1-.7,3.16-1.36Z" fill="#231815"/>
        <path d="m446.1,448.38l-20.47-17.39,8.51-10.01c2.01-2.36,4.1-4.06,6.28-5.1,2.18-1.04,4.41-1.36,6.69-.96,2.28.4,4.55,1.56,6.82,3.48,2.26,1.92,3.78,3.98,4.54,6.16s.81,4.44.15,6.77c-.66,2.33-2,4.67-4.01,7.04l-8.51,10.01Zm.49-9.38l3.49-4.11c.74-.87,1.29-1.76,1.64-2.66.35-.9.51-1.78.46-2.66-.04-.87-.3-1.72-.76-2.54-.47-.82-1.12-1.6-1.98-2.32l-.98-.84c-.87-.74-1.75-1.27-2.63-1.59-.88-.32-1.75-.43-2.63-.34-.88.09-1.73.38-2.56.87s-1.61,1.18-2.36,2.05l-3.49,4.11,11.8,10.03Z" fill="#231815"/>
      </g>
      <path d="m47.77,151.73c-12.38,1.84-19.24,2.66-20.56,2.45-.46-.05-1.07-.26-1.84-.61-1.02,4.76-2.2,8.54-3.53,11.36-.87,1.74-2.87,4.96-5.99,9.67-1.28,1.89-3.43,3.71-6.45,5.45-.82.46-1.51.69-2.07.69-.92,0-1.13-.51-.61-1.53l3.68-9.13c1.07-2.71,2.25-7.14,3.53-13.28,1.23-5.78,1.99-10.36,2.3-13.74.61-6.49.92-11.53.92-15.12,0-1.59-.27-3.32-.81-5.22-.54-1.89-.81-3.25-.81-4.07,0-1.89.54-2.63,1.61-2.23,1.33.46,2.69.92,4.07,1.38,1.69.66,3.04,1.38,4.07,2.15,10.13-5.11,17.39-7.7,21.79-7.75,2.1-.05,4.73,1,7.9,3.15,3.02,2,4.78,3.68,5.29,5.07.2.56.31,1.13.31,1.69,0,1.64-.69,2.64-2.07,2.99,0,.1.03,1.59.08,4.45.1,3.22.15,5.27.15,6.14l.61,35.76v1.69c.05.66.08,1.23.08,1.69,0,3.84-1.36,6.06-4.07,6.68-.61.15-1.23.23-1.84.23-2.05,0-4.22-.95-6.52-2.84-1.89-1.79-3.79-3.58-5.68-5.37-2.2-2.05-4.4-4.09-6.6-6.14-2.76-2.71-5.32-5.53-7.67-8.44-.26-.31-.38-.61-.38-.92,0-.72.49-1.07,1.46-1.07.26,0,.43.05.54.15,2.81,2.25,5.63,4.5,8.44,6.75,3.68,2.76,6.6,4.22,8.75,4.37.05,0,.19.04.42.11.23.08.4.12.5.12.41,0,.64-.41.69-1.23.15-1.94.26-7.11.31-15.5Zm-21.18-4.68c5.37-.77,11.07-1.89,17.11-3.38l1.15-.77c1.02.1,2,.28,2.92.54,0-1.53-.03-4.3-.08-8.29-4.66.97-11.36,2.43-20.1,4.37-.26,2.51-.59,5.02-1,7.52Zm1.69-15.5c3.84-.92,9.39-2.3,16.65-4.14-.15,0,.13-.26.84-.77.61-.05,1.23,0,1.84.15-.05-1.43-.08-2.35-.08-2.76-.1-3.17-.41-4.83-.92-4.99-6.34,1.23-12.46,3.43-18.34,6.6.1,1.53.1,3.5,0,5.91Z" fill="#231815"/>
      <path d="m3.74,232.73c5.27-1.48,12.1-3.12,20.49-4.91.61-1.69,1.05-3.2,1.31-4.53.1-.72.2-1.48.31-2.3-4.35.87-7.08,1.38-8.21,1.53-1.89.31-4.14-.15-6.75-1.38-1.94-.92-2.91-1.94-2.91-3.07,0-.31.1-.56.31-.77.66-.66,2.27-1.35,4.83-2.07,3.43-.92,7.95-2,13.58-3.22.05-.97-.05-2.06-.31-3.26-.26-1.2-.38-2.08-.38-2.65,0-1.64,1.15-2.33,3.45-2.07,1.28.15,2.74.83,4.37,2.03,1.64,1.2,2.89,2.47,3.76,3.8,1.89-.31,3.45-.49,4.68-.54.72-.05,1.41-.33,2.07-.84.66-.51,1.13-.77,1.38-.77,1.48,0,3.91.82,7.29,2.45,1.64-1.79,2.56-2.84,2.76-3.15.92-1.28,1.71-1.92,2.38-1.92,1.02,0,2.33.82,3.91,2.46,1.59,1.64,2.51,2.97,2.76,3.99.2.82-.31,1.69-1.53,2.61-1.84,1.94-4.96,5.22-9.36,9.82,2.92.26,5.91,1.15,8.98,2.69,3.07,1.53,4.42,2.81,4.07,3.84-.92,2.66-2.4,3.99-4.45,3.99-.87,0-1.82-.18-2.84-.54-2.91-1.02-7.75-1.38-14.5-1.07-6.34,6.5-10.9,11.03-13.66,13.58,1.07,1.18,1.87,2.23,2.38,3.15,3.43-2.56,6.55-5.29,9.36-8.21,2.2-2.3,3.4-3.73,3.61-4.3v-1.69c.1-.82.54-1.1,1.3-.84,1.02.26,2.46,1.07,4.3,2.45,2.15,1.53,3.17,2.71,3.07,3.53-.15,1.28-.69,2.35-1.61,3.22-1.13,1.18-2.22,2.33-3.3,3.45-1.94,1.94-3.76,3.35-5.45,4.22-1.69.87-3.4,1.76-5.14,2.69-1.99.97-3.94,1.59-5.83,1.84-.26,3.27-.08,5.27.54,5.98.41.41,2.12.61,5.14.61,3.17,0,6.39-.2,9.67-.61,3.58-.46,5.6-.98,6.06-1.57.46-.59.66-3.52.61-8.79,0-1.28.26-1.92.77-1.92.61,0,1.07.51,1.38,1.53.41,1.38,1.07,3.43,1.99,6.14.2.61,1.23,1.66,3.07,3.15,1.53,1.33,2.3,2.74,2.3,4.22,0,.46-.05.92-.15,1.38-.56,2.45-3.43,4.07-8.6,4.83-3.02.46-7.57.64-13.66.54-4.71-.05-7.9-.31-9.59-.77-2.61-.66-4.94-2.2-6.98-4.6-1.79-2.05-2.53-6.65-2.23-13.81-2.15,1.84-5.76,4.6-10.82,8.29-1.84,1.18-3.48,2.05-4.91,2.61-1.59.66-2.71,1.2-3.38,1.61-1.99,1.18-3.58,1.48-4.76.92-1.18-.61-.79-1.69,1.15-3.22,1.79-1.43,3.86-3.32,6.22-5.68,2.71-2.76,5.46-5.55,8.25-8.36,2.79-2.81,7.35-7.49,13.7-14.04l-.61.08c-1.38.26-5.27,1.23-11.66,2.91-5.68,1.59-8.98,2.38-9.9,2.38-1.07,0-2.48-.51-4.22-1.53-1.89-1.12-2.84-2.2-2.84-3.22,0-.97,1-1.74,2.99-2.3Zm32.53-6.91l2.15-.31,7.9-8.29c-1.89.26-4.68.72-8.36,1.38-.31,3.02-.87,5.42-1.69,7.21Z" fill="#231815"/>
      <path d="m54.65,350.75c-2.51.31-4.17.38-4.99.23-.36-.05-.72-.15-1.07-.31-.56,6.4-1.36,10.67-2.38,12.82-.77,1.64-1.77,3.17-2.99,4.6-1.64,1.79-3.12,2.69-4.45,2.69-.51,0-.77-.23-.77-.69,0-.26.08-.56.23-.92.66-1.59,1.25-4.17,1.76-7.75h-2.84c-1.43.05-3.61.28-6.52.69,0,3.43-.11,5.61-.35,6.56-.23.95-.87,1.7-1.92,2.26-1.05.56-2.01.84-2.88.84-.41,0-.64-.08-.69-.23-.31-.67-.46-2.41-.46-5.22,0-.56.05-1.64.15-3.22-3.38.56-5.32.84-5.83.84-.56,0-1.42-.42-2.57-1.27-1.15-.85-1.73-1.55-1.73-2.11,0-.66.33-1.1,1-1.3,2.05-.61,5.17-1.31,9.36-2.07v-2.76l-.38.08c-.46.87-1.31,1.31-2.53,1.31-.41,0-.87-.1-1.38-.31-.51-.2-1.61-1.64-3.3-4.3-.2-.31-.46-1.31-.77-2.99-.41-1.89-.64-3.53-.69-4.91-.15,1.13-.36,2.35-.61,3.68-1.49,9.11-3.28,15.06-5.37,17.88-2.1,2.81-3.81,4.48-5.14,4.99-1.74.61-2.69.69-2.84.23-.05-.2.15-1.15.61-2.84.77-2.81,1.47-6.04,2.11-9.67.64-3.63,1.37-8.16,2.19-13.58,1.28-9.67,1.79-16.5,1.53-20.49-1.43-1.18-2.05-2.17-1.84-2.99.26-.92,2.35-1.99,6.29-3.22,3.17-1.07,8.64-2.3,16.42-3.68-.1-.77-.44-1.41-1-1.92-.77-.72-1.18-1.07-1.23-1.07-.36-.56-.54-1.15-.54-1.76,0-2.2,1.35-3.3,4.07-3.3,2.2,0,4.63.66,7.29,1.99,2.66,1.33,4.25,2.69,4.76,4.07,4.6-.51,8.67-.74,12.2-.69.51-.2,1.07-.38,1.69-.54,1.79.51,3.63,1.38,5.52,2.61,2.35,1.59,3.53,3.02,3.53,4.3,0,.36-.1.69-.31,1-.82,1.33-1.89,1.99-3.22,1.99-.61,0-1.83-.24-3.64-.73-1.82-.48-3.34-.73-4.57-.73-7.57.05-16.45,1.23-26.63,3.53,2.81,1.53,4.17,2.81,4.07,3.84-.05.26-.08.56-.08.92.77-.2,1.28-.31,1.53-.31.61-.15,1.41-.06,2.38.27.97.33,1.97.68,2.99,1.04.72.2,1.07.64,1.07,1.3,0,.56-.23,1.19-.69,1.88-.46.69-1.51,1.16-3.15,1.42-1.07.15-2.46.46-4.14.92v2.38c.97-.2,1.64-.26,1.99-.15,1.28.36,2.7,1,4.26,1.92,1.56.92,2.47,1.66,2.72,2.23.51,1.33.74,2.3.69,2.91-.15,1.84-.81,4.03-1.96,6.56-1.15,2.53-2.01,3.85-2.57,3.95-1.48.26-2.28.36-2.38.31-.36-.1-.72-.31-1.07-.61-.77.05-1.66.15-2.69.31.46.46.72,1.41.77,2.84l2.38-.31c.31-.05.77-.23,1.38-.54.46-.2.82-.28,1.07-.23.66.26,2.3,1.2,4.91,2.84.61-5.01,1.07-10.69,1.38-17.04.26-5.73.31-9.82.15-12.28,0-.41-.28-1.05-.85-1.92-.2-.26-.23-.64-.08-1.15.2-.46.43-.66.69-.61.92.2,1.99.66,3.22,1.38,4.86-2.71,7.9-4.17,9.13-4.37.31-.15.61-.31.92-.46.41-.15.84-.13,1.3.08,1.02.41,2.05.82,3.07,1.23,1.53.72,2.48,1.48,2.84,2.3.2.61.28,1.38.23,2.3-.1,1.69-.15,2.38-.15,2.07,0,25.27,0,37.83,0,37.68-.26,2.61-.97,3.96-2.15,4.07-2.2.15-3.66-.37-4.37-1.57-.72-1.2-1.84-2.98-3.38-5.33-.66-.66-1.84-2.18-3.53-4.53-.36-.56-.46-1.05-.31-1.46.1-.41.31-.49.61-.23,3.27,3.07,4.96,4.6,5.07,4.6s.15-.05.15-.15c.15-1.33.23-5.29.23-11.89Zm-29.85-21.79v-2.46c0,.05-.2-.56-.61-1.84-.15-.46.08-1.07.69-1.84-2.1.66-5.32,1.48-9.67,2.45.97.87,1.53,1.82,1.69,2.84.1.46.13,1.61.08,3.45,1.74-.66,4.35-1.53,7.83-2.61Zm-6.91,11.74c.31-.2,1.64-.54,3.99-1,1.69-.31,2.56-.92,2.61-1.84l.08-2.23-2.3.69c-.26.05-.54.08-.84.08-1.38,0-2.97-.41-4.76-1.23-.1,1.38-.28,2.97-.54,4.76.15-.2.36-.23.61-.08.36.26.74.54,1.15.84Zm13.28,8.21c1.58-3.17,2.38-5.88,2.38-8.13-.05-.82-.44-1.18-1.15-1.07-1.69.15-5.53,1.33-11.51,3.53.1.15.31.72.61,1.69,1.43-.41,3.35-.94,5.76-1.61.05,0,.24-.09.58-.27.33-.18.6-.24.81-.19.51.26,1.02.49,1.53.69.72.36,1.13.72,1.23,1.07.15.41.11.88-.11,1.42-.23.54-.6.83-1.11.88l-7.52,1.69c.2.72.38,1.33.54,1.84,1.07-.15,3.73-.66,7.98-1.53Zm18.11-15.04c2.61-.61,4.32-1.05,5.14-1.31-.05-2.3-.11-3.72-.19-4.26-.08-.54-.32-.78-.73-.73-.82.1-2.38.84-4.68,2.23.31.61.46,1.97.46,4.07Zm-.31,11.82c1.99-.2,3.68-.51,5.06-.92.15-.05.33-.08.54-.08v-5.83c-2.4.46-4.19.77-5.37.92-.05,1.99-.13,3.97-.23,5.91Z" fill="#231815"/>
      <path d="m471.99,166.41l-20.03,1.9h-.3c-.86.91-1.98,1.37-3.35,1.37-.46,0-.91-.05-1.37-.15-1.37-.35-2.84-1.8-4.42-4.34-1.27-1.98-2.13-3.76-2.59-5.33-.76-2.74-1.7-8.91-2.82-18.5-1.17-9.85-1.65-16.37-1.45-19.57-.2-.91-.35-2.23-.46-3.96.3-1.72.91-2.44,1.83-2.13,1.62.46,3.15,1.12,4.57,1.98,12.89-4.67,23.25-7.01,31.07-7.01,1.27,0,2.44.08,3.5.23,1.68.25,4.14,2.06,7.39,5.4,3.4,3.51,5.48,6.68,6.24,9.52.1.3.15.56.15.76,0,.35-.18.76-.53,1.22-.36.46-.61.91-.76,1.37-.86,6.19-1.75,12.39-2.66,18.58-1.78,11.88-3.42,18.76-4.95,20.64-.66.76-1.47,1.14-2.44,1.14-1.06,0-2.72-.51-4.95-1.52-.66-.3-1.22-.84-1.68-1.6Zm-26.12-42.34c.15,1.12.58,4.92,1.29,11.42,12.03-1.83,20.33-2.82,24.9-2.97,1.11-.05,2.79.69,5.02,2.21.61-6.7.76-11.62.46-14.77-.1-.91-2.34-1.37-6.7-1.37s-9.37.79-15.31,2.36c-4.62,1.17-7.84,2.21-9.67,3.12Zm4.95,35.03c8.23-.91,15.41-1.5,21.55-1.75,1.57-3.71,2.87-8.91,3.88-15.61-1.42-.25-2.41-.38-2.97-.38-2.74.05-11.09,1.2-25.05,3.43.91,7.26,1.77,12.03,2.59,14.32Z" fill="#231815"/>
      <path d="m475.4,241.66c-12.29,1.83-19.09,2.64-20.4,2.44-.46-.05-1.07-.25-1.83-.61-1.02,4.72-2.18,8.48-3.51,11.27-.86,1.72-2.84,4.92-5.94,9.59-1.27,1.87-3.4,3.68-6.39,5.41-.81.46-1.5.68-2.06.68-.91,0-1.12-.51-.61-1.52l3.65-9.06c1.07-2.69,2.23-7.08,3.51-13.17,1.22-5.73,1.98-10.28,2.28-13.63.61-6.45.91-11.45.91-15,0-1.57-.27-3.3-.8-5.18-.53-1.88-.8-3.22-.8-4.03,0-1.88.54-2.61,1.6-2.21,1.32.46,2.66.91,4.03,1.37,1.68.66,3.02,1.37,4.04,2.13,10.05-5.08,17.26-7.64,21.62-7.69,2.08-.05,4.7.99,7.84,3.12,3,1.98,4.75,3.65,5.26,5.02.2.56.3,1.12.3,1.67,0,1.63-.69,2.61-2.06,2.97,0,.1.03,1.57.08,4.42.1,3.2.15,5.23.15,6.09l.61,35.48v1.67c.05.66.07,1.22.07,1.68,0,3.81-1.35,6.02-4.03,6.63-.61.15-1.22.23-1.83.23-2.03,0-4.19-.94-6.47-2.82-1.88-1.78-3.76-3.55-5.63-5.33-2.19-2.03-4.37-4.06-6.55-6.09-2.74-2.69-5.28-5.48-7.62-8.38-.25-.3-.38-.61-.38-.91,0-.71.48-1.07,1.45-1.07.25,0,.43.05.54.15,2.79,2.23,5.58,4.47,8.38,6.7,3.65,2.74,6.55,4.19,8.68,4.34.05,0,.19.04.42.11.23.08.39.11.49.11.41,0,.64-.41.69-1.22.15-1.93.25-7.05.3-15.38Zm-21.01-4.65c5.33-.76,10.99-1.88,16.98-3.35l1.14-.76c1.01.1,1.98.28,2.89.53,0-1.52-.03-4.26-.08-8.22-4.62.96-11.27,2.41-19.95,4.34-.25,2.49-.58,4.97-.99,7.46Zm1.67-15.38c3.81-.91,9.31-2.29,16.52-4.11-.15,0,.12-.25.84-.76.61-.05,1.22,0,1.83.15-.05-1.42-.08-2.34-.08-2.74-.1-3.15-.41-4.8-.91-4.95-6.29,1.22-12.36,3.4-18.2,6.55.1,1.52.1,3.48,0,5.87Z" fill="#231815"/>
      <path d="m440.56,336.68c-.56.05-1.05.28-1.48.69-.43.41-.85.81-1.26,1.22-.1-.1-.18-.2-.23-.3,0-.25.08-.6.23-1.03.15-.43.28-.72.38-.88-1.22.2-2.55-.33-4-1.6-1.45-1.27-2.17-2.44-2.17-3.5,0-.3.08-.56.23-.76.56-.76,1.99-1.79,4.3-3.08,2.31-1.3,3.82-1.91,4.53-1.86,2.08.1,3.63.23,4.64.38,1.88.36,3.17.94,3.88,1.75,1.27,1.42,1.9,2.84,1.9,4.26,0,1.32-.79,2.26-2.36,2.82-2.19,1.01-5.05,1.65-8.61,1.9Zm-5.78,22.16c.71.46,1.19.61,1.45.46,1.67-1.07,4.67-5.08,8.99-12.03,4.06-6.6,6.12-9.87,6.17-9.82.25-.1.38,0,.38.3,0,.51-.33,1.6-.99,3.27-.86,2.18-1.35,3.42-1.45,3.73-.15.56-.23,1.12-.23,1.68,0,.51.33,1.78.99,3.81.15.51.23,1.12.23,1.83,0,2.39-.61,4.97-1.83,7.77-1.07,2.33-2.29,4.47-3.66,6.39-1.17,1.63-1.8,2.61-1.9,2.97-.51,1.73-1.42,2.59-2.74,2.59-1.22,0-2.59-.69-4.11-2.06-1.37-1.22-2.36-2.51-2.97-3.88-.25-.61-.38-1.32-.38-2.13,0-1.22.25-2.4.76-3.54.51-1.14.94-1.59,1.3-1.33Zm9.06-41.04c-.46,0-1.27.3-2.43.91-.05-.3,0-.84.15-1.6.1-.41-.03-.71-.38-.91-.96-.41-1.94-1.24-2.93-2.51-.99-1.27-1.46-2.26-1.41-2.97.1-.76.84-1.52,2.21-2.28,1.37-.76,2.67-1.19,3.88-1.3,2.29-.25,4.95.54,8,2.36,3.3,1.93,4.8,3.98,4.49,6.17-.81,2.03-2.34,3.05-4.57,3.05-.76,0-1.92-.15-3.46-.46-1.55-.3-2.73-.46-3.54-.46Zm27.41,31.68c.1.76-.13,1.24-.69,1.45-1.68.66-3.25.76-4.72.3-.71-.2-1.5-.84-2.36-1.9-1.17-1.32-1.8-2.03-1.9-2.13-.46-.35-1.1-1.5-1.94-3.42-.84-1.93-1.36-3.38-1.56-4.34-.86-5.08-.97-7.66-.3-7.77.96-.1,1.67-.1,2.13,0,1.06.2,2.23.69,3.5,1.45,7.66-2.08,12.92-3.3,15.76-3.65,3.81-.46,6.63-.33,8.45.38,4.62,1.78,6.93,3.35,6.93,4.72,0,.15-.05.3-.15.46-.46.51-.76,1.37-.91,2.59-.41,2.79-1.22,5.48-2.44,8.07-.71,1.47-1.25,2.46-1.6,2.97-.71,1.07-1.5,1.63-2.36,1.68-1.67.05-3.12-.35-4.34-1.22-.51-.05-1.42-.13-2.74-.23h-.69c1.07,1.32,1.65,2.49,1.75,3.5v.15c2.18-.25,3.68-.46,4.49-.61.81-.15,1.75-.51,2.82-1.06,2.13.51,3.66.94,4.57,1.3,1.93.71,3.42,1.67,4.49,2.89.2.25.3.53.3.84,0,.56-.34,1.13-1.03,1.71-.69.58-1.41.87-2.17.87-1.37-.05-3.55-.05-6.55,0-.56,0-2.79.25-6.7.76-.1,3.66-.38,6.57-.84,8.76-.3,1.42-1,2.66-2.1,3.73-1.09,1.06-2.32,1.6-3.69,1.6-.71,0-1.3-.36-1.75-1.07-.25-.35-.53-1.75-.84-4.19-.2-1.62-.25-4.16-.15-7.61-6.45.81-10.05,1.19-10.81,1.14-1.98-.15-3.79-.76-5.44-1.83-1.65-1.06-2.47-2.01-2.47-2.82,0-.41.25-.66.76-.76,2.39-.61,8.4-1.47,18.05-2.59v-.15c0-1.11-.13-2.44-.38-3.96h-.38Zm-2.59-33.58c-.05-1.01-.15-1.93-.3-2.74-2.44.41-3.78.61-4.03.61-1.37,0-2.64-.38-3.81-1.14-.96-.61-1.52-1.17-1.67-1.67-.1-.61.41-1.12,1.52-1.52,2.79-1.01,6.75-1.96,11.88-2.82,4.87-.76,9.09-1.22,12.64-1.37l1.37-1.22c.91.15,2.39.76,4.42,1.83,2.34,1.27,3.66,2.33,3.96,3.2.15.56-.15,1.13-.91,1.71-.76.58-2.16.62-4.19.11-.3-.1-1.04-.13-2.21-.08-1.17,0-1.78.05-1.83.15,0,.25-.1.96-.3,2.13,3.1-.15,5.73.3,7.92,1.37,2.49,1.22,3.86,2.61,4.11,4.19.2,1.27-.05,2.03-.76,2.28-.56,1.12-1.12,2.24-1.67,3.35-1.22,2.28-2.26,3.66-3.12,4.11-1.62.81-2.84,1.17-3.66,1.07-2.23-.35-3.86-1.22-4.87-2.59-3.45.2-8.76,1.04-15.92,2.51-.05.3-.15.61-.3.91-.25.56-1.04.84-2.36.84-1.12,0-1.96-.14-2.51-.42-.56-.28-1.27-1.21-2.13-2.78-.71-1.42-1.47-2.13-2.29-2.13,0-.46-.05-1.04-.15-1.75-.97-2.59-1.45-5.38-1.45-8.38,0-1.42.17-2.11.53-2.06,1.32.2,2.64.64,3.96,1.29,1.63.76,2.54,1.55,2.74,2.36v.08c1.47-.46,3.27-.94,5.41-1.45Zm.23,8.76c-.15-1.22-.2-2.74-.15-4.57-1.67.51-3.05.99-4.11,1.45.46,1.07.99,2.29,1.6,3.66.71-.15,1.6-.33,2.66-.53Zm-2.66,12.41c.2.46.41,1.02.61,1.68,3.71-.71,7.44-1.35,11.19-1.9.86,0,1.45-.05,1.75-.15,1.37.15,2.87.71,4.49,1.68.35-.86.56-1.59.61-2.17.05-.59.13-1.15.23-1.71.05-.56-.05-.84-.3-.84-2.84-.15-7.54.53-14.09,2.06-1.17.35-2.66.81-4.49,1.37Zm2.21,6.17c.3.61.58,1.25.84,1.9,3.35-.46,5.91-.79,7.69-.99.15,0,.38-.06.69-.19.3-.13.69-.16,1.14-.12.46.05,1.19.23,2.21.54.91-.96,1.6-2.03,2.06-3.2-1.32-.25-2.16-.38-2.51-.38-.96.15-5,.96-12.11,2.43Zm4.57-30.76c.56.61,1.04,1.32,1.45,2.13,1.47-.3,2.84-.56,4.11-.76.15-.96.25-1.7.3-2.21-1.83.25-3.78.54-5.86.84Zm2.06,5.94c.15,1.72.2,3.47.15,5.25l2.44-.38c-.15-.91-.03-2.72.38-5.41-1.02.15-2.01.33-2.97.54Zm9.44-.99c-.35,2.23-.58,3.88-.69,4.95,1.52-.2,2.44-.33,2.74-.38.35,0,.71.07,1.07.23,1.11-1.47,1.67-2.66,1.67-3.58,0-.3-.13-.53-.38-.69-.56-.41-1.7-.58-3.42-.53h-.99Z" fill="#231815"/>
      <path d="m249.53,208.01c-30.14,0-54.66-24.52-54.66-54.66s24.52-54.66,54.66-54.66,54.66,24.52,54.66,54.66-24.52,54.66-54.66,54.66Zm0-102.97c-26.64,0-48.31,21.67-48.31,48.31s21.67,48.31,48.31,48.31,48.31-21.67,48.31-48.31-21.67-48.31-48.31-48.31Z" fill="#231815"/>
      <path d="m249.53,417.01c-70.27,0-127.44-57.17-127.44-127.44s57.17-127.44,127.44-127.44,127.44,57.17,127.44,127.44-57.17,127.44-127.44,127.44Zm0-248.52c-66.76,0-121.08,54.32-121.08,121.08s54.32,121.08,121.08,121.08,121.08-54.32,121.08-121.08-54.32-121.08-121.08-121.08Z" fill="#231815"/>
      <path d="m247.88,124.39c-5.27,0-20.99-.6-31.78-7.33l3.36-5.39c11.22,6.99,29.75,6.35,29.94,6.34h.12s.12,0,.12,0c.18,0,18.11.61,29.35-5.99l3.21,5.48c-12.46,7.31-30.83,6.92-32.69,6.86-.25,0-.82.02-1.64.02Z" fill="#231815"/>
      <path d="m280.41,116.28c-1.15-.84-27.01-19.91-28.2-42.95h-5.36c-1.2,23.04-27.05,42.11-28.2,42.95l-3.74-5.14c.27-.2,26.76-19.77,25.6-40.82l-.18-3.35h18.42l-.18,3.35c-1.16,21.1,25.33,40.62,25.6,40.82l-3.74,5.14Z" fill="#231815"/>
    </g>
  </g>
</svg>