<?xml version="1.0" encoding="UTF-8"?>
<svg id="_文字_圖" data-name="文字/圖" xmlns="http://www.w3.org/2000/svg" width="497.75" height="503.49" xmlns:xlink="http://www.w3.org/1999/xlink" viewBox="0 0 497.75 503.49">
  <defs>
    <clipPath id="clippath">
      <rect x="-1263.01" y="804.64" width="1919.65" height="975.52" transform="translate(-606.38 2584.79) rotate(180)" fill="none"/>
    </clipPath>
    <linearGradient id="_未命名漸層_5" data-name="未命名漸層 5" x1="5236.94" y1="16980.78" x2="5242" y2="17362.97" gradientTransform="translate(-5548.32 -16382.05)" gradientUnits="userSpaceOnUse">
      <stop offset="0" stop-color="#fff" stop-opacity="0"/>
      <stop offset=".71" stop-color="#f2f2f2"/>
    </linearGradient>
  </defs>
  <g fill="none" opacity=".5">
    <g clip-path="url(#clippath)" fill="none">
      <rect x="-1263.01" y="495.25" width="1919.65" height="1443.05" transform="translate(-606.38 2433.55) rotate(180)" fill="url(#_未命名漸層_5)" opacity=".82"/>
    </g>
  </g>
  <g>
    <path d="m72.99,67.24c-1.71.94-3.38,1.7-5,2.27-1.62.57-3.15.88-4.58.91-1.44.03-2.76-.28-3.95-.94-1.19-.66-2.2-1.74-3.03-3.25-.04-.07-.08-.14-.12-.22-.04-.08-.08-.17-.11-.28l6.41-3.51c.03.1.06.21.11.32.05.11.09.21.14.3.39.71.93,1.15,1.62,1.32.69.17,1.49.12,2.41-.16.92-.28,1.92-.72,3.02-1.32.53-.29,1.03-.59,1.51-.9.48-.31.92-.63,1.3-.96.38-.33.69-.67.93-1.02.24-.35.39-.7.45-1.05s0-.69-.19-1.03c-.28-.5-.73-.78-1.37-.83-.64-.05-1.4.03-2.29.25-.89.22-1.87.51-2.95.88-1.08.37-2.2.74-3.36,1.11-1.16.37-2.33.65-3.5.85-1.17.2-2.3.24-3.38.14-1.08-.1-2.08-.44-2.99-1.02-.91-.57-1.69-1.45-2.34-2.64-.68-1.23-.98-2.46-.9-3.68.08-1.22.47-2.4,1.2-3.55.72-1.15,1.7-2.25,2.93-3.28,1.23-1.03,2.65-1.99,4.25-2.86,1.6-.88,3.16-1.55,4.67-2.02s2.92-.69,4.24-.65c1.31.04,2.49.35,3.53.94,1.04.59,1.9,1.49,2.58,2.68l.23.41-6.34,3.48-.13-.24c-.28-.5-.7-.85-1.26-1.05-.57-.19-1.25-.22-2.05-.08s-1.69.48-2.67,1.02c-1.1.6-1.97,1.18-2.61,1.74s-1.06,1.09-1.25,1.58c-.19.49-.18.93.03,1.32.26.48.7.74,1.32.79s1.38-.05,2.27-.29,1.88-.55,2.95-.92c1.07-.38,2.19-.75,3.35-1.12,1.16-.37,2.33-.66,3.48-.88s2.28-.28,3.35-.19c1.08.09,2.06.42,2.96.97.9.55,1.66,1.4,2.28,2.54,1.03,1.87,1.36,3.66,1,5.36-.36,1.7-1.26,3.28-2.7,4.76-1.44,1.47-3.25,2.81-5.45,4.01Z" fill="#231815"/>
    <path d="m102.51,53.57c-2.86,1.12-5.44,1.64-7.73,1.55-2.29-.09-4.26-.78-5.91-2.05-1.65-1.27-2.94-3.11-3.89-5.51l-5.6-14.26,6.99-2.74,5.52,14.05c.75,1.92,1.87,3.2,3.34,3.85,1.48.65,3.19.59,5.16-.18,1.99-.78,3.31-1.91,3.96-3.4.65-1.49.6-3.19-.16-5.1l-5.52-14.05,6.95-2.73,5.6,14.26c.94,2.4,1.24,4.63.9,6.68-.34,2.05-1.31,3.89-2.92,5.51-1.6,1.62-3.83,3-6.7,4.12Z" fill="#231815"/>
    <path d="m121.94,45.88l-7.11-25.9,6.41-1.76,14.74,8.93c.28.14.63.35,1.04.63.41.28.84.56,1.29.84s.8.54,1.08.76l.25-.11c-.13-.48-.29-1.02-.46-1.62-.18-.6-.33-1.13-.45-1.58l-3.23-11.76,6.79-1.86,7.11,25.9-6.37,1.75-14.94-9.07c-.58-.35-1.18-.73-1.79-1.13-.61-.4-1.11-.73-1.51-1l-.25.11c.13.37.27.84.43,1.4.15.57.31,1.12.46,1.68l3.28,11.95-6.75,1.85Z" fill="#231815"/>
    <path d="m165.63,34.83l-3.97-26.56,11.17-1.67,5.65,11.09c.22.42.49.97.82,1.66.33.69.66,1.4.99,2.12.33.73.62,1.38.86,1.95l.27-.04c.08-.54.16-1.17.25-1.89s.19-1.48.3-2.26c.11-.78.21-1.48.3-2.1l2.16-12.26,10.9-1.63,3.97,26.56-7.31,1.09-1.87-12.53c-.12-.82-.25-1.69-.37-2.59-.12-.9-.23-1.75-.32-2.54-.09-.79-.16-1.41-.2-1.85l-.31.05c-.06.46-.14,1.06-.23,1.79-.09.74-.18,1.48-.28,2.24-.1.75-.2,1.4-.3,1.94l-2.66,14.47-6.42.96-6.77-13.06c-.3-.56-.61-1.18-.93-1.86-.33-.68-.62-1.34-.89-1.98s-.5-1.19-.7-1.64l-.31.05c.1.51.22,1.16.35,1.94s.27,1.61.43,2.48c.16.87.29,1.71.41,2.51l1.87,12.53-6.88,1.03Z" fill="#231815"/>
    <path d="m220.73,28.73c-3.25.21-6.1-.15-8.53-1.06-2.44-.92-4.36-2.36-5.76-4.33-1.41-1.97-2.2-4.47-2.4-7.49-.19-3.02.28-5.59,1.43-7.73,1.14-2.14,2.86-3.81,5.16-5.01,2.3-1.2,5.08-1.91,8.33-2.12,3.3-.21,6.16.14,8.59,1.04,2.42.9,4.33,2.34,5.74,4.32,1.41,1.97,2.2,4.47,2.4,7.49.19,3.02-.28,5.6-1.43,7.73-1.14,2.14-2.86,3.81-5.14,5.03-2.29,1.22-5.08,1.93-8.38,2.14Zm-.36-5.66c1.27-.08,2.4-.33,3.38-.74.98-.41,1.81-.97,2.48-1.67s1.17-1.52,1.49-2.48c.32-.96.44-2.03.36-3.2l-.08-1.33c-.08-1.17-.33-2.21-.77-3.12-.44-.91-1.03-1.67-1.79-2.28-.76-.6-1.65-1.04-2.67-1.32s-2.17-.37-3.45-.29c-1.25.08-2.37.32-3.36.72-.99.4-1.82.95-2.48,1.65-.66.7-1.14,1.52-1.45,2.48-.31.96-.42,2.02-.34,3.19l.08,1.33c.07,1.17.32,2.21.75,3.13.42.91,1.01,1.67,1.75,2.28s1.63,1.05,2.67,1.34c1.04.29,2.18.39,3.43.31Z" fill="#231815"/>
    <path d="m256.75,27.8c-3.26-.04-6.07-.6-8.43-1.7-2.36-1.1-4.17-2.68-5.42-4.75-1.25-2.07-1.86-4.62-1.83-7.64.03-3.02.7-5.56,2-7.6,1.3-2.04,3.14-3.58,5.52-4.61S253.8-.03,257.06,0c3.31.04,6.14.6,8.49,1.68,2.35,1.08,4.15,2.66,5.4,4.73,1.25,2.07,1.86,4.62,1.83,7.64-.03,3.02-.7,5.56-2,7.6-1.3,2.04-3.14,3.59-5.51,4.63-2.37,1.04-5.21,1.54-8.52,1.51Zm.06-5.67c1.28.01,2.42-.15,3.43-.49,1.01-.34,1.87-.83,2.6-1.48.72-.64,1.28-1.43,1.67-2.37.39-.93.59-1.99.6-3.16l.02-1.33c.01-1.17-.17-2.23-.53-3.17-.37-.94-.91-1.74-1.62-2.4-.71-.66-1.56-1.16-2.56-1.51-1-.35-2.14-.53-3.42-.55-1.25-.01-2.39.14-3.41.47s-1.88.81-2.6,1.46c-.71.64-1.25,1.43-1.63,2.37-.38.93-.57,1.99-.58,3.16l-.02,1.33c-.01,1.17.16,2.23.51,3.17s.88,1.74,1.58,2.4c.7.66,1.55,1.17,2.56,1.53,1.01.36,2.14.55,3.4.57Z" fill="#231815"/>
    <path d="m278.18,27.83l2.31-26.76,6.62.57,10.73,13.48c.22.23.47.54.76.95.29.41.6.82.91,1.24s.57.78.75,1.08l.28-.02c.04-.49.08-1.05.13-1.68s.08-1.17.12-1.64l1.05-12.15,7.01.61-2.31,26.76-6.58-.57-10.86-13.69c-.43-.53-.85-1.09-1.29-1.68-.43-.59-.79-1.07-1.07-1.47l-.28.02c0,.39-.04.88-.09,1.46s-.1,1.16-.15,1.73l-1.06,12.35-6.97-.6Z" fill="#231815"/>
    <path d="m322.76,32.58l4.78-26.43,7.35,1.33-3.69,20.43,15.2,2.75-1.08,6-22.55-4.07Z" fill="#231815"/>
    <path d="m347.07,36.89l18.06-23.04,8.32,2.17,4.52,28.94-7.79-2.04-.64-4.81-12.14-3.17-2.91,3.88-7.41-1.94Zm13.8-6.74l7.94,2.07-.72-5.92c-.03-.3-.06-.68-.11-1.14-.04-.46-.08-.94-.12-1.47-.04-.52-.07-1.03-.11-1.52s-.06-.89-.09-1.2l-.27-.07c-.27.41-.59.9-.97,1.46s-.74,1.11-1.09,1.63-.66.97-.91,1.34l-3.56,4.81Z" fill="#231815"/>
    <path d="m382,46.3l9.34-25.18,7,2.6-4.34,11.69,16.18-7.3,8.8,3.26-14.32,6.45,5.2,18.81-8.54-3.17-3.34-13.04-6.76,2.5-2.22,5.97-7-2.6Z" fill="#231815"/>
    <path d="m414.14,58.68l12.28-23.89,22.32,11.48-2.59,5.04-15.68-8.06-2.18,4.24,13.7,7.04-2.54,4.94-13.7-7.04-2.36,4.59,15.92,8.19-2.61,5.08-22.56-11.6Z" fill="#231815"/>
  </g>
</svg>