<?xml version="1.0" encoding="UTF-8"?>
<svg id="_文字_圖" data-name="文字/圖" xmlns="http://www.w3.org/2000/svg" width="497.75" height="503.49" viewBox="0 0 497.75 503.49">
  <path d="m44.18,430.9l19.18-18.8,7.91,8.07-5.67,11.08c-.21.42-.49.97-.86,1.64-.37.67-.75,1.35-1.14,2.05s-.75,1.31-1.07,1.84l.19.19c.48-.25,1.04-.56,1.68-.91.64-.35,1.31-.72,2-1.09.69-.37,1.32-.7,1.88-.99l11.19-5.45,7.72,7.87-19.18,18.81-5.17-5.28,9.04-8.87c.59-.59,1.22-1.19,1.88-1.82.66-.63,1.28-1.21,1.87-1.75.59-.54,1.05-.95,1.38-1.24l-.22-.22c-.41.22-.94.51-1.58.87-.65.36-1.31.73-1.97,1.09-.67.36-1.25.66-1.75.89l-13.28,6.34-4.54-4.63,6.6-13.15c.28-.57.6-1.18.96-1.84.36-.66.72-1.29,1.08-1.88.36-.6.67-1.1.91-1.53l-.22-.22c-.36.38-.81.86-1.37,1.42s-1.15,1.17-1.76,1.81c-.61.64-1.21,1.24-1.79,1.81l-9.04,8.87-4.87-4.97Z" fill="#231815"/>
  <path d="m73.6,458.54l23.33-17.68,7.49,4.22-3,29.14-7.02-3.95.61-4.82-10.93-6.16-3.81,3.02-6.68-3.76Zm15.06-3l7.15,4.03.82-5.91c.05-.3.11-.68.19-1.13.08-.45.16-.93.26-1.45.09-.51.19-1.01.28-1.5s.17-.88.22-1.18l-.24-.13c-.37.33-.8.72-1.31,1.17-.51.45-1,.88-1.47,1.3-.48.42-.88.77-1.23,1.06l-4.67,3.74Z" fill="#231815"/>
  <path d="m109.42,477.12l7.84-19.26-9.45-3.85,2.28-5.61,25.78,10.5-2.28,5.61-9.41-3.83-7.84,19.26-6.92-2.82Z" fill="#231815"/>
  <path d="m142.95,489.32c-3.21-.92-5.75-2.18-7.64-3.8-1.88-1.61-3.09-3.56-3.63-5.86-.54-2.29-.38-4.93.48-7.91,1.25-4.36,3.45-7.31,6.61-8.86,3.15-1.55,7.11-1.64,11.87-.28,2.63.75,4.84,1.84,6.63,3.26,1.79,1.42,3.02,3.09,3.71,5.01.68,1.92.7,4.01.06,6.26l-7.03-2.01c.32-1.1.31-2.12,0-3.05-.32-.93-.9-1.74-1.74-2.43-.85-.69-1.93-1.23-3.26-1.61-1.6-.46-3.02-.55-4.26-.27-1.23.28-2.27.9-3.11,1.83-.84.94-1.47,2.15-1.89,3.63l-.37,1.28c-.42,1.48-.53,2.84-.31,4.08.21,1.24.76,2.31,1.64,3.22.88.9,2.11,1.58,3.69,2.03,1.43.41,2.71.56,3.84.45s2.07-.47,2.83-1.08c.76-.61,1.29-1.45,1.6-2.53l6.8,1.95c-.63,2.21-1.72,3.94-3.28,5.2-1.56,1.26-3.46,2.02-5.72,2.29-2.26.26-4.76,0-7.52-.79Z" fill="#231815"/>
  <path d="m162.42,494.04l4.83-26.42,7.34,1.34-1.83,10,13.31,2.43,1.83-10,7.34,1.35-4.83,26.42-7.34-1.34,1.91-10.46-13.31-2.43-1.92,10.46-7.34-1.35Z" fill="#231815"/>
  <path d="m197.44,500.2l2.34-26.76,11.26.98,2.91,12.11c.12.46.25,1.06.41,1.8.16.75.31,1.51.47,2.3.15.79.28,1.48.39,2.09l.27.02c.2-.5.43-1.1.69-1.78s.53-1.39.81-2.13c.29-.73.55-1.39.78-1.97l4.96-11.42,10.98.96-2.34,26.76-7.36-.64,1.1-12.62c.07-.83.15-1.7.25-2.61.09-.91.19-1.76.28-2.54.09-.79.18-1.41.24-1.84l-.31-.03c-.17.43-.38.99-.64,1.69s-.52,1.4-.79,2.11-.52,1.31-.75,1.82l-5.96,13.45-6.47-.57-3.54-14.28c-.16-.62-.31-1.29-.47-2.02s-.29-1.45-.4-2.13c-.11-.69-.21-1.27-.3-1.75l-.31-.03c-.02.52-.06,1.18-.11,1.97-.06.79-.11,1.63-.16,2.52-.05.89-.11,1.73-.18,2.53l-1.1,12.62-6.93-.61Z" fill="#231815"/>
  <path d="m235.93,503.23l11.87-26.76,8.6.07,11.47,26.95-8.05-.07-1.8-4.51-12.55-.1-1.87,4.48-7.66-.06Zm11.73-9.91l8.21.07-2.14-5.57c-.1-.29-.23-.65-.38-1.08-.15-.43-.31-.89-.48-1.39-.17-.49-.32-.98-.48-1.45-.15-.47-.28-.85-.38-1.14h-.27c-.16.47-.35,1.02-.58,1.66-.23.64-.45,1.25-.66,1.85-.21.6-.4,1.1-.56,1.52l-2.27,5.53Z" fill="#231815"/>
  <path d="m271.81,503.2l-1.94-26.79,7.45-.54.9,12.44,11.7-13.35,9.36-.68-10.36,11.8,12.53,14.97-9.09.66-8.44-10.48-5.12,5.07.46,6.36-7.45.54Z" fill="#231815"/>
  <path d="m306.1,500.4l-4.02-26.55,24.82-3.76.85,5.6-17.43,2.64.71,4.72,15.23-2.3.83,5.49-15.23,2.31.77,5.1,17.7-2.68.85,5.64-25.09,3.8Z" fill="#231815"/>
  <path d="m337.02,495.5l-6.29-26.11,18.43-4.44c1.93-.46,3.61-.48,5.06-.03s2.64,1.22,3.58,2.33c.94,1.11,1.59,2.43,1.96,3.95.4,1.67.38,3.27-.07,4.78-.45,1.52-1.34,2.84-2.65,3.96l7.77,8.87-8.17,1.97-6.48-7.89-8.02,1.93,2.15,8.93-7.26,1.75Zm3.81-16.08l9.27-2.23c.94-.23,1.61-.7,2.03-1.41.42-.72.5-1.58.26-2.59-.15-.63-.41-1.15-.77-1.54s-.8-.66-1.32-.81c-.52-.14-1.09-.14-1.73.02l-9.27,2.23,1.53,6.35Z" fill="#231815"/>
  <path d="m392.27,479.55c-4.52,1.83-8.36,2.15-11.53.96s-5.63-3.96-7.39-8.31c-1.15-2.85-1.53-5.47-1.14-7.85.4-2.38,1.52-4.5,3.37-6.36,1.85-1.86,4.33-3.42,7.45-4.68,1.91-.77,3.77-1.3,5.6-1.59,1.82-.29,3.52-.31,5.08-.05,1.56.25,2.93.82,4.08,1.7,1.16.88,2.06,2.11,2.69,3.68l-6.74,2.73c-.27-.68-.69-1.2-1.26-1.56-.57-.36-1.23-.58-1.97-.66-.75-.08-1.55-.04-2.42.12s-1.75.41-2.64.77c-1.28.52-2.37,1.13-3.27,1.83-.9.7-1.57,1.49-2.01,2.38-.44.88-.66,1.83-.66,2.84,0,1.01.23,2.08.69,3.22l.5,1.23c.65,1.6,1.47,2.79,2.49,3.59,1.01.8,2.19,1.22,3.53,1.27,1.34.05,2.84-.27,4.51-.94,1.4-.57,2.57-1.23,3.5-1.99s1.57-1.56,1.91-2.42c.34-.86.34-1.72-.01-2.59l-.08-.18-7.68,3.11-1.88-4.64,14.46-5.86,5.58,13.77-4.06,1.64-1.78-2.53c-.53,1.06-1.21,2.04-2.06,2.94-.84.9-1.83,1.72-2.96,2.44-1.13.72-2.43,1.38-3.9,1.98Z" fill="#231815"/>
  <path d="m426.57,462.37c-2.76,1.73-5.43,2.78-8,3.14-2.58.36-4.95,0-7.13-1.06s-4.07-2.88-5.68-5.44c-1.61-2.56-2.42-5.05-2.43-7.47-.01-2.42.7-4.71,2.15-6.87,1.45-2.16,3.55-4.1,6.31-5.83,2.8-1.76,5.48-2.82,8.04-3.18,2.56-.36,4.93,0,7.1,1.05,2.18,1.06,4.07,2.88,5.68,5.44,1.61,2.56,2.42,5.05,2.43,7.47s-.69,4.71-2.12,6.87c-1.43,2.16-3.54,4.12-6.35,5.88Zm-3.02-4.8c1.08-.68,1.95-1.44,2.62-2.27.66-.83,1.12-1.71,1.38-2.65.26-.93.3-1.9.12-2.89s-.58-1.99-1.2-2.98l-.71-1.13c-.62-.99-1.35-1.79-2.17-2.38-.82-.59-1.71-.98-2.66-1.15-.95-.17-1.94-.13-2.97.12-1.03.25-2.09.71-3.17,1.39-1.06.67-1.93,1.41-2.61,2.24-.68.83-1.15,1.71-1.39,2.63-.25.93-.28,1.88-.09,2.87s.6,1.98,1.22,2.97l.71,1.13c.62.99,1.34,1.79,2.15,2.39s1.68.99,2.63,1.17c.94.18,1.94.14,2.99-.1,1.05-.24,2.1-.7,3.16-1.36Z" fill="#231815"/>
  <path d="m446.1,448.38l-20.47-17.39,8.51-10.01c2.01-2.36,4.1-4.06,6.28-5.1,2.18-1.04,4.41-1.36,6.69-.96,2.28.4,4.55,1.56,6.82,3.48,2.26,1.92,3.78,3.98,4.54,6.16s.81,4.44.15,6.77c-.66,2.33-2,4.67-4.01,7.04l-8.51,10.01Zm.49-9.38l3.49-4.11c.74-.87,1.29-1.76,1.64-2.66.35-.9.51-1.78.46-2.66-.04-.87-.3-1.72-.76-2.54-.47-.82-1.12-1.6-1.98-2.32l-.98-.84c-.87-.74-1.75-1.27-2.63-1.59-.88-.32-1.75-.43-2.63-.34-.88.09-1.73.38-2.56.87s-1.61,1.18-2.36,2.05l-3.49,4.11,11.8,10.03Z" fill="#231815"/>
</svg>