<?xml version="1.0" encoding="UTF-8"?>
<svg id="_圖層_2" data-name="圖層 2" xmlns="http://www.w3.org/2000/svg" width="67.71" height="11.17" viewBox="0 0 67.71 11.17">
  <g id="icon">
    <g>
      <g>
        <path d="m5.09,5.59s.07-1.95-.57-3.4c-.08.1-.16.2-.24.3-.61.74-2.36,2.91-4.28,2.8v.6c1.92-.11,3.67,2.07,4.28,2.8.07.1.15.2.23.3.64-1.46.58-3.38.57-3.4Z" fill="#092a31"/>
        <path d="m12.11,5.59c0-.06.11-3.2-.93-5.59-.13.16-.27.33-.39.5-1.01,1.21-3.87,4.77-7.03,4.6v.98c3.15-.17,6.02,3.39,7.03,4.6.12.17.25.33.38.49,1.05-2.39.94-5.55.94-5.58Z" fill="#092a31"/>
      </g>
      <g>
        <path d="m31.51,10.71V.45h4.49c.84,0,1.5.24,1.99.71.49.48.73,1.12.73,1.92,0,.7-.17,1.23-.52,1.58-.35.35-.76.56-1.23.62v.08c.32,0,.64.1.96.27s.59.44.82.8c.22.36.34.81.34,1.34s-.11,1.05-.34,1.5c-.23.45-.54.8-.94,1.06s-.85.38-1.34.38h-4.94Zm4.21-5.89c.42,0,.75-.11.99-.34.24-.22.36-.54.36-.94v-.46c0-.4-.12-.71-.36-.94-.24-.22-.57-.34-.99-.34h-2.63v3.01h2.63Zm.27,4.54c.45,0,.8-.12,1.05-.36.25-.24.38-.58.38-1.01v-.49c0-.43-.13-.76-.38-1-.25-.24-.6-.36-1.05-.36h-2.9v3.22h2.9Z" fill="#092a31"/>
        <path d="m41.64,10.71h-1.61L43.55.45h1.99l3.5,10.26h-1.65l-.94-2.83h-3.88l-.92,2.83Zm2.83-8.82l-1.53,4.63h3.12l-1.53-4.63h-.07Z" fill="#092a31"/>
        <path d="m51,9.55c-.75-.9-1.13-2.2-1.13-3.9,0-1.14.17-2.11.51-2.91.34-.8.83-1.41,1.48-1.83.64-.42,1.41-.63,2.28-.63,1.74,0,2.94.77,3.63,2.31l-1.32.73c-.42-1.08-1.19-1.62-2.31-1.62-.8,0-1.43.28-1.9.85-.46.56-.69,1.34-.69,2.32v1.54c0,.97.23,1.73.69,2.28.46.55,1.09.82,1.9.82.59,0,1.08-.15,1.49-.46.41-.31.71-.73.92-1.27l1.27.77c-.34.76-.83,1.34-1.45,1.76-.62.42-1.37.62-2.23.62-1.34,0-2.39-.45-3.14-1.35Z" fill="#092a31"/>
        <path d="m61.22,10.71h-1.58V.45h1.58v5.26h.06l1.48-1.86,2.83-3.4h1.86l-3.7,4.33,3.96,5.94h-1.9l-3.16-4.84-1.43,1.62v3.22Z" fill="#092a31"/>
      </g>
    </g>
  </g>
</svg>