<?xml version="1.0" encoding="UTF-8"?>
<svg id="_圖層_2" data-name="圖層 2" xmlns="http://www.w3.org/2000/svg" width="182.24" height="13.66" viewBox="0 0 182.24 13.66">
  <g id="icon">
    <g>
      <g>
        <path d="m2.58,8.17v5.17H0V.88h8.16v2.3H2.58v2.72h4.8v2.28H2.58Z" fill="#dee2dd"/>
        <path d="m10.7,12.81c-.52-.5-.77-1.17-.77-2,0-.97.35-1.69,1.05-2.18s1.69-.73,2.98-.73h1.51v-.61c0-1.03-.54-1.55-1.62-1.55-.49,0-.89.1-1.22.3-.32.2-.6.47-.84.82l-1.5-1.32c.39-.58.87-1.01,1.46-1.32.59-.3,1.34-.46,2.26-.46,1.29,0,2.28.29,2.95.88.67.58,1.01,1.43,1.01,2.53v4.22h.88v1.96h-1.39c-.48,0-.87-.15-1.18-.44s-.5-.69-.57-1.19h-.1c-.15.6-.46,1.06-.95,1.38-.49.32-1.09.48-1.8.48-.93,0-1.65-.25-2.17-.75Zm4.29-1.33c.32-.22.48-.54.48-.97v-1.18h-1.34c-.54,0-.96.1-1.24.29-.28.19-.43.47-.43.84v.27c0,.72.44,1.08,1.31,1.08.5,0,.91-.11,1.22-.33Z" fill="#dee2dd"/>
        <path d="m23.36,13.34h-2.62l3.11-4.74-3.06-4.61h2.86l1.8,3.01h.09l1.77-3.01h2.65l-3.11,4.68,3.13,4.68h-2.86l-1.85-3.13h-.08l-1.82,3.13Z" fill="#dee2dd"/>
        <path d="m32.98,13.19c-.26-.25-.38-.58-.38-.99v-.34c0-.41.13-.74.38-.99s.63-.37,1.11-.37.86.12,1.11.37.38.58.38.99v.34c0,.41-.13.74-.38.99s-.63.37-1.11.37-.86-.12-1.11-.37Z" fill="#dee2dd"/>
      </g>
      <g>
        <path d="m51.42,11.9c-.84-1.18-1.26-2.86-1.26-5.06s.42-3.88,1.26-5.07c.84-1.18,2.09-1.77,3.76-1.77s2.92.59,3.76,1.77c.84,1.18,1.26,2.87,1.26,5.07s-.42,3.88-1.26,5.06c-.84,1.18-2.09,1.76-3.76,1.76s-2.92-.59-3.76-1.76Zm5.37-1.37c.32-.56.48-1.39.48-2.46v-2.47c0-1.08-.16-1.9-.48-2.47-.32-.56-.85-.85-1.61-.85s-1.29.28-1.61.85c-.32.56-.48,1.39-.48,2.47v2.47c0,1.08.16,1.9.48,2.46.32.56.85.85,1.61.85s1.29-.28,1.61-.85Z" fill="#fffbf3"/>
        <path d="m70.23,10.87v2.56h-2.57v-2.56h-5.85v-2.3L67.02.23h3.2v8.55h1.69v2.09h-1.69Zm-2.57-7.9h-.18l-3.51,5.81h3.69V2.97Z" fill="#fffbf3"/>
        <path d="m80.94,8.96h-5.56v-2.59h5.56v2.59Z" fill="#fffbf3"/>
        <path d="m85.74,13.43v-2.48l4.1-3.53c.73-.64,1.25-1.19,1.55-1.66.3-.47.45-.98.45-1.53v-.27c0-.5-.18-.9-.54-1.19-.36-.29-.79-.43-1.3-.43-.6,0-1.08.17-1.43.52-.35.35-.6.81-.75,1.39l-2.36-.92c.32-.98.88-1.79,1.68-2.4.8-.62,1.83-.93,3.1-.93.92,0,1.72.17,2.39.5.67.34,1.18.8,1.54,1.4.35.6.53,1.28.53,2.05,0,.71-.15,1.35-.45,1.93-.3.58-.68,1.11-1.15,1.58s-1.09,1.01-1.85,1.62l-2.59,2.07h6.34v2.27h-9.27Z" fill="#fffbf3"/>
        <path d="m97.44,13.43v-2.48l4.1-3.53c.73-.64,1.25-1.19,1.55-1.66.3-.47.45-.98.45-1.53v-.27c0-.5-.18-.9-.54-1.19-.36-.29-.79-.43-1.3-.43-.6,0-1.08.17-1.43.52-.35.35-.6.81-.75,1.39l-2.36-.92c.32-.98.88-1.79,1.68-2.4.8-.62,1.83-.93,3.1-.93.92,0,1.72.17,2.39.5.67.34,1.18.8,1.54,1.4.35.6.53,1.28.53,2.05,0,.71-.15,1.35-.45,1.93-.3.58-.68,1.11-1.15,1.58s-1.09,1.01-1.85,1.62l-2.59,2.07h6.34v2.27h-9.27Z" fill="#fffbf3"/>
        <path d="m117.04,10.87v2.56h-2.57v-2.56h-5.85v-2.3L113.84.23h3.2v8.55h1.69v2.09h-1.69Zm-2.57-7.9h-.18l-3.51,5.81h3.69V2.97Z" fill="#fffbf3"/>
        <path d="m130.07,2.57l-4.32,10.85h-2.84l4.48-11h-4.3v2.41h-2.29V.23h9.27v2.34Z" fill="#fffbf3"/>
        <path d="m139.36,13.02c-.73-.43-1.29-1.03-1.68-1.82-.39-.79-.58-1.71-.58-2.76,0-1.18.23-2.29.69-3.35.46-1.06,1.05-1.99,1.77-2.81.72-.82,1.49-1.5,2.3-2.05h3.65c-1.72,1.22-3.02,2.33-3.9,3.32-.88.99-1.45,2.1-1.7,3.32l.14.05c.29-.6.66-1.08,1.12-1.44.46-.36,1.07-.54,1.84-.54.72,0,1.37.17,1.96.51.59.34,1.05.82,1.39,1.44.34.62.5,1.34.5,2.15,0,.89-.2,1.68-.6,2.39-.4.7-.97,1.25-1.71,1.64-.74.39-1.59.59-2.56.59-1.02,0-1.9-.21-2.63-.64Zm4.16-2.02c.36-.37.54-.89.54-1.58v-.29c0-.68-.18-1.21-.54-1.58-.36-.37-.87-.55-1.53-.55s-1.17.18-1.54.55c-.37.37-.55.89-.55,1.58v.29c0,.68.18,1.21.55,1.58s.88.55,1.54.55,1.17-.18,1.53-.55Z" fill="#fffbf3"/>
        <path d="m149.98,13.43c1.73-1.22,3.04-2.33,3.92-3.33.89-1,1.46-2.1,1.71-3.31l-.14-.05c-.29.6-.66,1.08-1.12,1.44-.46.36-1.07.54-1.84.54-.72,0-1.37-.17-1.96-.51-.59-.34-1.05-.82-1.39-1.44-.34-.62-.5-1.33-.5-2.15,0-.89.2-1.68.6-2.38.4-.7.97-1.25,1.71-1.64s1.59-.58,2.56-.58c1.02,0,1.9.21,2.63.64.73.43,1.29,1.03,1.68,1.82.39.79.58,1.71.58,2.76,0,1.18-.23,2.29-.68,3.35-.46,1.06-1.04,1.99-1.76,2.81-.72.82-1.48,1.5-2.29,2.05h-3.73Zm5.1-7.33c.37-.37.55-.89.55-1.58v-.29c0-.68-.18-1.21-.55-1.58-.37-.37-.88-.55-1.54-.55s-1.17.18-1.53.55c-.36.37-.54.89-.54,1.58v.29c0,.68.18,1.21.54,1.58.36.37.87.55,1.53.55s1.17-.18,1.54-.55Z" fill="#fffbf3"/>
        <path d="m160.76,13.43v-2.48l4.1-3.53c.73-.64,1.25-1.19,1.55-1.66.3-.47.45-.98.45-1.53v-.27c0-.5-.18-.9-.54-1.19-.36-.29-.79-.43-1.3-.43-.6,0-1.08.17-1.43.52-.35.35-.6.81-.75,1.39l-2.36-.92c.32-.98.88-1.79,1.68-2.4.8-.62,1.83-.93,3.1-.93.92,0,1.72.17,2.39.5.67.34,1.18.8,1.54,1.4.35.6.53,1.28.53,2.05,0,.71-.15,1.35-.45,1.93-.3.58-.68,1.11-1.15,1.58s-1.09,1.01-1.85,1.62l-2.59,2.07h6.34v2.27h-9.27Z" fill="#fffbf3"/>
        <path d="m182.24,11.25v2.18h-9.13v-2.18h3.56V2.2h-.16l-2.75,3.46-1.71-1.37,3.19-4.05h4.14v11.02h2.86Z" fill="#fffbf3"/>
      </g>
    </g>
  </g>
</svg>