<?xml version="1.0" encoding="UTF-8"?>
<svg id="_圖層_2" data-name="圖層 2" xmlns="http://www.w3.org/2000/svg" width="99.01" height="150.65" viewBox="0 0 99.01 150.65">
  <g id="_圖層_1-2" data-name="圖層 1">
    <g>
      <path d="m74.41,58.38c2.01-3.83,3.16-8.19,3.18-12.81.03-8.65-3.88-16.39-10.04-21.53l-35.52-.13c-6.2,5.09-10.17,12.81-10.2,21.45-.02,4.63,1.1,8.99,3.08,12.84C10.09,66.7.07,82.65,0,100.97c-.1,27.34,21.98,49.59,49.32,49.69,27.34.1,49.59-21.98,49.69-49.32.07-18.32-9.83-34.34-24.59-42.96Z" fill="#18933b"/>
      <path d="m72.75,38.84c.38,3.79-.25,7.61-1.05,11.33-.48,2.24-2.5,6.71-8.08,10.28-4.82,3.08-11.07,3.37-16.74,2.6s-11.13-3.51-14.75-7.94-5.22-10.57-3.71-16.09c1.22-4.46,4.43-8.34,8.6-10.37,3.68-1.79,7.89-2.13,11.98-2.18,5.61-.08,12.39-.3,17.8,1.38,3.87,1.2,5.61,7.48,5.96,10.99Z" fill="#fff"/>
      <path d="m66.78,24.47c-6.69,3.89-17,3.45-17,3.45,0,0-10.7.38-17.34-3.79l-.55-.36S47.32,12.61,46.68,0h3.2s3.2.02,3.2.02c-.74,12.61,14.62,23.87,14.62,23.87l-.92.58Z" fill="#231815"/>
      <path d="m58.71,100.63s.1.03.2.13c.16,0,.23-.03.23-.13l.29.33c.16.03.36.1.49.16.2.07.29.1.39.13.07.03.1.03.13.03,0,.13.03.2.13.2.23,0,.39.03.55.1.1.03.26.13.49.26.03.03.13.07.23.13s.2.1.26.13c0,.16.03.23.1.23h.29c.13.13.16.23.1.3-.07.07-.1.16-.1.33,0,.07.06.1.2.1l.23-.2c0,.07.06.1.2.1,0,.1.06.26.19.42.07,0,.13.03.2.1.1.07.16.07.23,0,0,.1.06.23.19.33.13.07.2.13.19.2h.23s.58.79.58.79l.68.79c.16.2.32.39.55.62.26.43.26.85,0,1.27-.1.1-.39.23-.82.39-.16,0-.49.13-.92.42-.16.06-.2.23-.17.52v.26c.03.07.03.13.06.16v.1c-.2,0-.39,0-.62-.04-.33-.03-.55-.07-.72-.17,0-.16-.03-.23-.1-.23-.16,0-.26-.03-.33-.1,0,.07-.07.1-.2.1-.72-.49-1.3-.76-1.73-.82,0-.16-.03-.23-.1-.23l-.13.13c-.07,0-.13-.03-.2-.13l-.2-.2h-.2c-.29-.2-.68-.43-1.17-.69-.36-.16-.68-.3-.98-.46-.55-.36-.81-.56-.81-.62,0,.07-.07.1-.23.1-.13-.13-.29-.23-.46-.33-.26-.16-.46-.3-.55-.43l-.1.13c-1.04-.75-1.63-1.18-1.73-1.28h-.23c-.36-.43-.75-.66-1.11-.72-.07,0-.16-.1-.33-.33-.13-.2-.26-.26-.39-.2h-.62c-.07.06-.1.39-.1.94l.1.2c-.07.07-.1.23-.1.52.06.26.1.62.09,1.11,0,.46.03.78.09.98.13.29.19.56.19.72.1.2.13.49.13.85v.85c0,.07.06.1.19.1l-.1.1c.07,0,.13.07.2.2l.1.23v.62c0,.29.03.49.09.62-.07,0-.1.06-.1.23,0,.13-.03.2-.1.2.07.07.1.16.1.33-.3.82-.53,1.3-.63,1.47v.29s-.1-.1-.1-.1c-.07.07-.16.1-.29.1-.07,0-.13.06-.2.23-.13.16-.2.26-.23.29l-.62.32c-.13.06-.39.03-.82-.1-.07.07-.13.1-.2.1-.78-.3-1.3-.63-1.53-.95,0-.1-.03-.16-.1-.26-.1-.13-.16-.23-.19-.26-.07-.07-.1-.13-.1-.2-.1-.13-.16-.36-.23-.69-.06-.33-.1-.56-.1-.69l-.28-3.66v-.16c-.03-.1-.06-.23-.06-.46-.06-.23-.06-.42-.1-.65-.09-.82-.16-1.4-.16-1.76l.07-.33c.03-.1.03-.23.03-.39,0-.1-.06-.13-.2-.13.07-.2.1-.98.11-2.38v-.65s.1-.1.1-.1l-.1-.1.1-.1c-.16-.16-.26-.23-.29-.23-.36.23-.75.62-1.24,1.17-.16.23-.39.46-.62.72-.23.26-.36.39-.39.42l.1.1c-.66.58-1.18,1.4-1.54,2.41,0,.07-.07.1-.2.1s-.2.03-.2.1l.1.23s-.16.06-.33.19v.2c-1.18,1.5-1.87,2.44-2.03,2.83,0,.1-.07.16-.23.26-.13.1-.23.2-.29.36-.13.29-.33.52-.62.72h-.2c-.07,0-.1.06-.1.23-.29,0-.46.03-.52.1l-.1-.1-.1.1-.1.1h-.1s0-.1,0-.1v-.1s-.13,0-.13,0l-.1.1-.1.1c-.42-.07-.68-.33-.81-.82-.2.2-.36.16-.52-.13-.13-.56-.19-1.4-.19-2.61.13,0,.2-.03.2-.1-.07,0-.1-.13-.1-.42.13-.03.2.03.23.13l1.21-1.56c.03-.1.13-.26.26-.42l.36-.49c.16-.23.26-.33.29-.36v-.2c.23-.16.43-.42.62-.78.2-.36.39-.62.62-.78-.07,0-.1.06-.1.2l.1.1c.36-.19.75-.58,1.18-1.2.46-.59.75-.94.89-1.07.13-.13.16-.29.1-.52l-.1-.1-.33.29c.16-.1.29-.23.46-.42.07-.07.16-.16.26-.26.1-.13.2-.23.23-.26l.1.13c.3-.62.66-.98,1.02-1.04.07,0,.1-.06.1-.23-.06-.13-.29-.07-.72.23h-.2s.13-.16.13-.16l.07-.07c-.26-.26-.46-.23-.62.1,0,.1.06.13.23.13-.07.07-.16.1-.33.1l.1-.1c-.06-.16-.33-.16-.82,0,0,.07.06.1.23.1-.42,0-.69.06-.82.19,0,.23-.03.33-.13.33-.13,0-.33.06-.59.19-.16,0-.42-.07-.85-.2l-.1.1c-.07-.07-.23-.13-.46-.2-.26-.1-.46-.23-.55-.33-.13-.13-.2-.1-.2.1l.1-.1-.33-.33h-.2s-.23-.23-.23-.23c-.03-.03-.06-.13-.16-.29h-.23s-.29-.62-.29-.62c.07-.06.1-.13.1-.2l-.52-.52c-.1-.1,0-.29.23-.62.2-.29.85-.75,1.93-1.36.1-.1.2-.23.26-.33.1-.13.23-.23.33-.29l.23-.23h.23c1.41-.91,2.78-1.49,4.18-1.75,0,.07-.03.1-.1.1h-.16s-.13,0-.13,0v.1c0,.07.2.1.59.1.56-.23,1.27-.42,2.16-.64.75-.19,1.44-.39,2.06-.58-.07-.07-.1-.23-.06-.52v-.23c.03-.1.03-.16.07-.2v-.1s.2-.19.2-.19c-.07,0-.1-.07-.1-.23,0-.03.03-.13.07-.26.03-.13.1-.23.13-.26.16,0,.23-.03.23-.1l-.1-.1c-.1,0-.1-.03-.03-.1.16-.16.3-.39.43-.75.1-.33.26-.59.46-.81.16-.23.43-.26.78-.13l.1-.1.19.23c.13,0,.2-.03.2-.13l.23.23c.33,0,.62.2.91.62.19.26.23.62.09,1.04l.1.1c-.13.29-.2.52-.2.62s.1.13.29.13v.2c0,.13.03.2.1.2-.07,0-.1.06-.1.23.13.13.26.2.42.2.36-.19.62-.23.82-.09l.2-.2c.13.07.52.1,1.14.1.29,0,.82-.03,1.63-.09.82-.09,1.44-.09,1.83,0,.29.13.49.2.62.2l.1-.06.1-.03c.52.2,1.04.3,1.53.3l.23-.2s.16.03.36.1c.16.07.26.03.36-.1.07.07.16.13.33.2.16.1.29.16.36.23h.42c.13,0,.33.07.55.2.29.16.49.23.55.23.72.53,1.17.89,1.33,1.05.16.16.46.52.81,1.05.16.29.19.46.1.52,0,.07-.03.1-.1.1s-.1.03-.1.1c.13.85-.17,1.44-.92,1.79h-.2s-.07.06-.16.13l-.2.13c-.16.1-.29.16-.36.26,0,.13-.03.2-.1.2-.16,0-.42.1-.72.32-.36.19-.62.29-.82.29,0-.13-.03-.2-.13-.2-.13-.07-.29-.1-.49-.1s-.33-.03-.42-.13c-.1.1-.16.13-.2.13l-.1-.13c-.1.1-.26.13-.52.13l-.1-.13c0,.16-.13.2-.36.13-.2-.1-.36-.13-.46-.13,0-.13-.03-.2-.1-.2,0,.07-.07.1-.2.1-.16,0-.23.03-.23.1,0-.07-.06-.1-.13-.1l-.1.1-.1-.1-.1.1c0-.07-.06-.1-.23-.1-.07.07-.13.1-.2.1-.13-.07-.49-.1-1.11-.1-.1.06-.16.1-.23.1s-.1-.03-.13-.13l-.06-.16-.29.29c-.1,0-.16-.03-.23-.1-.07,0-.1.03-.1.06s-.03.03-.1.03l-.16-.1c-.1-.07-.16-.07-.23,0,.13.07.39-.03.82-.29-.23-.16-.95-.23-2.15-.24-.07,0-.1.1-.1.33l-.1-.1-.13.1-.1.1h-.2c-.07.1-.16.13-.26.16-.07.03-.2.06-.36.1-.16.03-.26.06-.29.06l.1-.13c0-.07-.06-.1-.2-.1-.1.1-.13.2-.13.33-.2.13-.39.65-.59,1.56l.1.2c-.07.07-.1.2-.1.42.03.03.06.16.03.33-.03.1-.03.2-.03.29.1.16.29.23.59.23,1.14-.22,3.36.14,6.65,1.07.03,0,.16.07.33.2.13.13.23.2.29.2h-.07Z" fill="#231815"/>
    </g>
    <g>
      <g>
        <path d="m42.98,36.67c.22-.47.11-1.22-.45-1.42-1.3-.49-2.65-.58-4.01-.25-1.24.3-2.42,1.01-3.26,1.97-.36.41-.39,1.11.05,1.49.42.36,1.1.39,1.49-.05.14-.16.3-.31.45-.45,0,0,.03-.03.06-.05.02-.02.04-.03.05-.05-.02.02-.03.03-.05.04.01-.01.03-.03.04-.03.05-.04.11-.08.16-.12.11-.08.22-.15.33-.21.11-.07.23-.13.35-.19,0,0,0,0,0,0,.04,0,.11-.05.14-.06.24-.1.49-.18.75-.25.07-.02.29-.03.34-.07,0,0,0,0,0,0,.07,0,.13-.02.2-.02.26-.03.53-.04.79-.03.04,0,.09,0,.13,0,.02,0,.04,0,.06,0,.13.02.26.04.39.06.12.02.24.05.35.08.06.02.13.04.19.06.07.02.32.12.01,0,.27.1.51.16.8.07.25-.08.51-.28.62-.52Z" fill="#02292e" stroke="#06292f" stroke-miterlimit="10" stroke-width=".56"/>
        <path d="m37.25,37.96s.02-.02.06-.06c0,0,0,0,0,0-.02.02-.04.03-.06.05Z" fill="#02292e" stroke="#06292f" stroke-miterlimit="10" stroke-width=".56"/>
      </g>
      <path d="m64.96,35.71c-2.36-1.12-5.07-1.41-7.62-.91-.56.11-.92.72-.79,1.26.13.57.7.9,1.26.79,2.19-.43,4.42-.12,6.5.86.52.24,1.17-.19,1.33-.68.19-.6-.16-1.08-.68-1.33Z" fill="#02292e" stroke="#06292f" stroke-miterlimit="10" stroke-width=".56"/>
      <path d="m61.8,39.06c-1.17.09-2.32.26-3.47.49-.28,0-.58.13-.72.36,0,0,0,0,0,0-.13.18-.2.4-.15.63.06.28.27.52.52.62.77.6,1.57,1.17,2.39,1.7.36.24.91.16,1.14-.22.23-.38.16-.89-.22-1.14-.31-.2-.62-.42-.92-.63.57-.08,1.15-.15,1.73-.19.43-.03.76-.55.66-.96-.11-.47-.5-.7-.96-.66Z" fill="#02292e" stroke="#06292f" stroke-miterlimit="10" stroke-width=".42"/>
      <path d="m42.71,40.02c-.22-.21-.48-.27-.77-.29-.34-.03-.68-.05-1.02-.07-.68-.05-1.35-.1-2.03-.15-.2-.01-.44.13-.57.27-.14.15-.23.39-.22.59.02.21.1.43.27.57.18.15.36.2.59.22.4.03.79.06,1.19.09-.46.33-.92.65-1.39.96-.36.24-.51.77-.25,1.14.26.36.75.5,1.14.25.54-.36,1.08-.73,1.6-1.11.26-.19.52-.39.78-.59.13-.1.25-.2.38-.3.18-.15.37-.28.48-.49.19-.36.11-.8-.18-1.07Z" fill="#02292e" stroke="#06292f" stroke-miterlimit="10" stroke-width=".42"/>
      <path d="m52.47,40.23c-.22-.39-.53-.75-.88-1.03-.37-.3-.84-.6-1.32-.69-.59-.12-1.13.2-1.59.53-.39.29-.75.63-1.06,1.01-.25.31-.26.81.07,1.08.31.25.82.26,1.08-.07.11-.14.23-.28.36-.41.04-.04.07-.07.11-.11,0,0,.02-.02.04-.03.02-.02.06-.05.07-.06.03-.03.06-.05.09-.08.14-.11.29-.21.45-.31.03-.02.07-.04.1-.06,0,0,.01,0,.01,0,.04.02.09.04.13.06.08.04.15.08.22.12.03.02.06.04.09.06,0,0,0,0,0,0,.07.05.13.1.2.15.06.05.13.11.18.17,0,0,.04.05.07.07,0,0,0,0,.01.01.11.14.21.28.3.44.2.35.75.44,1.06.2.35-.26.42-.69.2-1.06Z" fill="#02292e" stroke="#06292f" stroke-miterlimit="10" stroke-width="1.12"/>
      <path d="m58.31,52.76c.62-.96,1.12-1.97,1.46-3.06.21-.67.62-1.71.08-2.27,0,0,0,0,0,0-.09-.13-.18-.21-.29-.24,0,0,0-.01,0-.02-.13-.1-.31-.16-.51-.11-5.74,1.45-11.76,1.52-17.55.28-.72-.15-.89.97-.18,1.12.24.05.49.1.73.15.06.08.14.14.27.18.94.29,1.43,1.61,1.89,2.4.52.9,1.06,1.79,1.68,2.62,1.12,1.48,2.56,2.78,4.37,3.31.53.16,1.07.22,1.61.22.09.05.2.08.34.06.39-.05.76-.14,1.13-.25.06,0,.13,0,.2,0,2.07-.46,3.69-2.69,4.77-4.37Zm-2.87,1.79c-.17.18-.35.37-.53.54-.03.02-.07.04-.1.06-.66.48-1.39.82-2.17,1-1.24.21-2.52-.14-3.59-.85-1.45-.96-2.48-2.42-3.37-3.89-.42-.7-.83-1.67-1.39-2.45,4.64.63,9.36.43,13.94-.57.03.02.06.05.09.06.05-.02.1-.02.15-.01.08,0,.16.07.21.13,0,.01.01.02.02.03.1.08.16.22.17.34,0,.14-.03.26-.08.39-.05.12-.12.23-.19.34,0,.01-.02.03-.03.04-.09.25-.18.5-.29.74-.35.8-.8,1.55-1.31,2.26-.46.64-.97,1.25-1.52,1.82Z" fill="#06292f" stroke="#06292f" stroke-linejoin="round" stroke-width="1.69"/>
    </g>
  </g>
</svg>