<?xml version="1.0" encoding="UTF-8"?>
<svg id="_圖層_2" data-name="圖層 2" xmlns="http://www.w3.org/2000/svg" width="99.01" height="150.65" viewBox="0 0 99.01 150.65">
  <g id="_圖層_1-2" data-name="圖層 1">
    <g>
      <path d="m74.1,58.2c1.98-3.85,3.1-8.21,3.08-12.84-.03-8.65-4-16.36-10.2-21.46l-35.52.12c-6.16,5.14-10.08,12.88-10.05,21.53.02,4.63,1.17,8.98,3.17,12.82C9.84,66.98-.06,83,0,101.32c.1,27.34,22.34,49.43,49.68,49.33,27.34-.1,49.43-22.34,49.33-49.68-.06-18.32-10.08-34.27-24.9-42.78Z" fill="#fac959"/>
      <path d="m72.3,38.68c.41,3.79-.2,7.61-.97,11.34-.47,2.24-2.45,6.73-8.01,10.34-4.8,3.11-11.05,3.45-16.72,2.72s-11.16-3.43-14.81-7.83c-3.65-4.4-5.29-10.53-3.83-16.06,1.19-4.47,4.37-8.37,8.52-10.43,3.67-1.82,7.87-2.18,11.97-2.27,5.61-.12,12.39-.39,17.81,1.25,3.88,1.17,5.66,7.44,6.04,10.95Z" fill="#fff"/>
      <path d="m66.22,24.34c-6.66,3.94-16.98,3.57-16.98,3.57,0,0-10.7.46-17.36-3.67l-.55-.36S46.69,12.63,45.95.02h3.2s3.2-.02,3.2-.02c-.65,12.61,14.79,23.76,14.79,23.76l-.91.58Z" fill="#231815"/>
      <path d="m61.62,94.39c.1,0,.13.06.13.23-.16,0-.26.07-.29.23l-.06.23c-.1.33-.29.72-.58,1.18-.1,0-.42.1-.95.26,0,.16-.03.26-.1.33l-.13-.03-.13-.06-.1.1c-.49-.23-.75-.16-.82.13h-.26c-.07,0-.23-.13-.46-.36.16-.39.06-.62-.23-.68-.1.07-.13.16-.13.33-.07,0-.13-.06-.23-.23-.03-.13-.16-.26-.36-.36l.06-.1.06-.13c-.1,0-.13-.03-.13-.06s-.03-.03-.1-.03l-.13.1c-.23-.39-.49-.55-.72-.45,0-.16-.03-.29-.1-.36-.29-.06-.69-.29-1.24-.65-.49-.32-.88-.55-1.24-.65-.16-.23-.52-.46-1.05-.68s-.92-.49-1.18-.81c-.1,0-.2-.03-.29-.13-.13-.06-.23-.06-.29,0-.52-.26-1.77-.97-3.76-2.11-.43-.29-.65-.45-.72-.45-.88.69-1.4,1.08-1.5,1.18-.23,0-.49.17-.78.46-.26.33-.49.49-.65.49,0,.07-.03.16-.1.29-.1.1-.13.2-.13.29-.13.03-.29.2-.49.43-.1.13-.16.23-.2.26-.13.23-.26.39-.36.52-.23.26-.33.39-.36.43,0,.1.03.13.07.13s.07.03.07.1c.95-.17,1.5-.33,1.63-.46h.59s.16-.07.36-.23c.07.07.2.1.36.1.55-.23,1.37-.4,2.51-.47l.95-.07.69-.03c.16-.03.26-.03.29-.03.16.1.36.13.65.13s.46.03.52.1c.1-.07.23-.1.36-.1l.07.1.07.13c.16,0,.26-.03.36-.13.1.16.26.29.49.42.26.16.43.26.46.29-.16.72,0,1.18.49,1.4,0,.75-.13,1.31-.35,1.67-.1,0-.13-.03-.13-.06s-.03-.07-.1-.06c-.1.07-.13.2-.13.36h-.23c-.36.36-.81.59-1.3.69-.1,0-.2-.03-.36-.1-.13-.1-.23-.06-.33.1-.03-.03-.13-.06-.29-.13-.16-.03-.26-.06-.36-.1-.29-.06-.46-.19-.52-.36l-.13.13c-.16-.16-.46-.13-.82.13,0,.07-.03.26-.06.62s-.1.62-.13.78c-.03.16-.06.39-.16.69.1.13.13.42.13.85.07.07.16.1.33.1s.26.03.26.13c0-.1,0-.13.03-.13s.07-.03.06-.1c.55-.1,1.11-.1,1.66,0l.33-.36c.29,0,.59.03.88.06.46.03.75-.04.88-.2.16,0,.36.1.59.29.26.19.43.29.49.29s.23.13.52.42c.26.26.52.36.75.29,0,.03.07.13.23.23.16.06.26.2.26.36v.91c-.09,0-.13.03-.13.07s-.03.07-.13.07c-.13,1.01-.61,1.54-1.5,1.54-.55.39-1.04.62-1.4.69,0,.1-.03.13-.06.13s-.07.03-.06.13c-.23.23-.42.23-.59,0-.2.16-.52.23-.95.23,0,.07-.06.1-.23.1s-.23.03-.23.13c-.16-.16-.23-.26-.23-.36-.1.1-.26.13-.49.13s-.39.03-.46.1c-.1.16-.13.72-.12,1.67.23.16.23.36,0,.59.17.55.27,1.44.3,2.58l.07,1.76c.07.06.42.1,1.04.09.29.16.65.26,1.08.26.16-.16.16-.33,0-.49-.16,0-.29-.03-.36-.1,0-.03-.13-.33-.36-.85,0-.07.03-.1.06-.1s.06-.03.06-.13c-.16-.36-.23-.88-.23-1.53,0-.55-.04-.98-.14-1.27.23-.23.39-.36.46-.36-.13-.23-.1-.46.13-.69.1,0,.13,0,.13.03s.03.07.1.06l.13-.1c.62.29,1.11.49,1.41.58,0,.07.03.1.07.1s.07.03.07.13c.06-.1.16-.13.33-.13.88.55,1.34.97,1.41,1.3-.07.07-.1.29-.1.69.1.1.13.29.17.59.03.29.1.55.2.72,0,.23-.13.52-.36.95-.23.43-.36.72-.36.92.1,0,.2.03.36.1.33.1.56.19.69.26.26-.07.82-.1,1.66-.1.07.07.23.1.46.1s.39.13.49.36c.03,0,.13-.03.29-.07.13-.03.23-.07.29-.07,0,.16.07.26.23.29l.23.06v.36c.3.06.59.23.82.45v1.18c-.06,0-.09.03-.09.07s-.03.07-.13.07c.07.26,0,.55-.16.88-.19.36-.29.59-.29.65-.07.03-.49.23-1.3.59-.62-.16-1.08-.19-1.4-.13,0-.1-.03-.13-.07-.13s-.07-.03-.07-.1c-.23.23-.46.23-.69,0-.33.23-.82.17-1.44-.13l-.23.23c-.16,0-.26-.03-.33-.1-.1.07-.23.1-.36.1-.16,0-.26.03-.36.13-.1-.1-.23-.13-.46-.13s-.39-.03-.49-.1c-.07-.1-.16-.1-.29,0-.1.07-.2.1-.29.1-.23-.06-.69-.1-1.4-.09-.62,0-1.14-.06-1.53-.22-.07.07-.26.1-.59.1h-.69c-.16,0-.36-.03-.59-.09-.33-.1-.52-.19-.59-.26-.07,0-.2.1-.36.26h-.72s-.1-.06-.1-.06l-.13-.06c-.55.39-1.08.33-1.63-.22-.16.16-.33.16-.49,0l-.1.1c-.36-.16-.65-.23-.82-.23-.72-1.07-.92-2.09-.6-3.03.91.16,1.7,0,2.35-.5v-.23c.06.1.2.1.39,0,.2-.07.33-.1.42-.1.06-.1.68-.33,1.86-.72-.23-1.11-.43-2.74-.6-4.93l-.23-.46c-.07-.16-.1-.33-.1-.49-.16-.06-.42-.1-.72-.1h-.72s.07.3.07.3l.03.2-.43-.62c-.16,0-.46.03-.88.13-.52.07-.82.07-.88,0l-.13.1c-.16,0-.42-.06-.72-.23l-.1.13c-.1,0-.2-.06-.29-.19-.16-.1-.26-.16-.29-.16,0-.16-.03-.29-.13-.36-.16,0-.26-.03-.36-.13,0-.07-.29-.29-.92-.68-.26-.68-.1-1.34.45-1.89.65,0,1.11-.07,1.4-.23.1,0,.13.03.13.06s.03.07.1.06c.26-.16.88-.43,1.89-.79.88-.26,1.53-.56,1.89-.89.23.23.43.23.59,0,0-.1.06-.33.23-.69,0-.36.03-.72.06-1.11.03-.59-.04-.98-.2-1.14-1.47.27-2.28.37-2.45.27l-.13.1c-.13,0-.26-.03-.36-.06-.1-.03-.23-.03-.39-.03h-.36c-.13,0-.26.04-.42.1-.23,0-.52-.06-.82-.23,0,.1-.06.13-.23.13,0-.1-.07-.13-.23-.1-.16-.03-.26-.13-.26-.26h-.33c-.13,0-.29-.06-.49-.23-.16-.16-.29-.26-.36-.26,0-.07,0-.1-.03-.1s-.07-.03-.07-.13c-.1.1-.2.13-.36.13-.13,0-.26.03-.36.1v.26c-.1,0-.23.07-.32.16-.23.16-.33.26-.36.29-.16.23-.49.56-.94,1.05-.16.16-.49.36-.94.59l-1.04.59s-.13.03-.36.07c-.23.03-.33.07-.36.07,0-.1-.03-.13-.07-.13s-.03-.03-.03-.1c-.49.3-.78.2-.95-.23-.1,0-.2.07-.29.16-.1.1-.2.16-.29.16,0-.55-.04-.85-.13-.91-.07-.1-.29-.13-.69-.13-.1-.06-.13-.2-.13-.42,0-.2-.03-.33-.13-.39-.07-.1-.13-.1-.16.07-.03.1-.1.16-.16.16,0-.39.1-.59.32-.59,0-.23.1-.52.26-.82l1.56-1.67c.68-.72,1.27-1.28,1.69-1.64,1.82-2.06,3.25-3.57,4.32-4.58.55-.23,1.24-.69,2.05-1.38.88-.69,1.56-1.12,2.05-1.35,1.07-1.08,1.82-1.77,2.25-2-.1-.16-.03-.26.16-.36.2-.07.29-.2.29-.36.42-.07.91-.26,1.53-.59.07.1.23.13.46.13s.39.03.49.13c.07.29.36.59.88.88.52.29.85.49.98.62h.59c1.67.87,2.55,1.29,2.71,1.29l.07.1.07.13h.33s1.18.75,1.18.75c.59.39,1.01.65,1.31.78,0,.07.03.1.07.1s.03.03.03.13c.36.06.85.32,1.44.81.49.45.92.71,1.28.81.56.55.95.88,1.18.94,0,.1.07.2.2.29.1.16.16.26.16.29.16,0,.36.03.59.06.16.03.33.16.46.36.1.13.23.26.36.39h.46c.66.88.89,1.5.72,1.89h-.03Zm-19.99,15.9c0-.72-.27-1.21-.82-1.5-.23-.72-.79-1.07-1.67-1.07-.03.2-.19.52-.45.95-.26.46-.42.85-.52,1.18-.13.39-.19.75-.19,1.05l-.1.07-.13.07c-.23.72.04,1.44.73,2.12.36,0,.62-.07.82-.23.1,0,.13,0,.13.03s.03.07.1.06c.39-.07.72-.23.94-.46.23-.23.49-.65.75-1.24.29-.56.42-.92.42-1.01Z" fill="#231815"/>
    </g>
    <path d="m52.58,47.3c-.27-.44-.59-.83-1.03-1.12-.44-.29-.9-.47-1.41-.57-.95-.2-1.92.03-2.71.58-.42.29-.46.99-.14,1.36.37.42.92.44,1.36.14,0,0,0,0,0,0,.01,0,.02-.01.03-.02.07-.04.14-.07.21-.1,0,0,.03-.01.04-.02.07-.02.14-.04.22-.05.07-.01.14-.02.22-.03.02,0,.03,0,.05,0,.15,0,.3.03.45.05.02,0,.05.01.07.02.08.02.15.05.22.08.04.01.07.03.11.05,0,0,0,0,0,0,.04.03.1.06.11.07.07.04.13.09.19.14.02.01.03.03.05.04.05.05.09.1.14.15.05.06.22.33.05.04.14.23.28.41.54.5.22.08.52.08.74-.03.42-.21.76-.82.48-1.28Z" fill="#02292e" stroke="#06292f" stroke-miterlimit="10" stroke-width="1.12"/>
    <path d="m62.94,42.67c.17-.68.13-1.4-.19-2.07-.47-.99-1.68-1.72-2.9-1.81-1.2-.09-2.39.39-2.99,1.29-.35.53-.5,1.13-.44,1.72-.24.73-.18,1.52.14,2.24.4.89,1.35,1.57,2.41,1.76.27.13.57.22.87.24.24.02.51.02.75-.03.24-.05.49-.1.71-.21.29-.14.5-.27.72-.47.22-.2.38-.39.51-.66.03-.07.06-.14.08-.21.05-.18.11-.36.12-.54,0-.06,0-.13,0-.19.11-.27.18-.57.2-.87,0-.07,0-.14,0-.21Z" fill="#06292f"/>
    <path d="m69.75,34.69c-.32-.59-1.19-.91-1.87-.63-1.81.75-3.64,1.47-5.49,2.16-.92.35-1.85.68-2.78,1.01-.44.16-.88.31-1.32.46-.07-.55-.66-1.03-1.28-1.1-.8-.08-1.41.41-1.53,1.06-.22,1.21.15,3.07,2.08,2.86.7-.08,1.41-.41,2.05-.64.63-.22,1.26-.44,1.89-.67,2.55-.92,5.08-1.9,7.57-2.92.68-.28,1-.98.67-1.59Z" fill="#06292f"/>
    <path d="m48.03,37.64c.03-.65-.33-1.25-.94-1.31-.48-.05-1,.32-1.15.84-.3-.23-.6-.46-.9-.7-.63-.49-1.25-.99-1.88-1.5-1.24-1.01-2.47-2.05-3.67-3.11-.45-.4-1.16-.24-1.5.28-.36.54-.24,1.29.21,1.68,1.2,1.05,2.42,2.07,3.65,3.08,0,0-.02,0-.03.01-.48.13-.85.54-1.11,1-.15.2-.27.43-.35.68-.01.05-.02.1-.03.15,0,.02-.02.04-.02.06-.3.84-.39,1.76-.26,2.65.03.19.07.38.12.57,0,.44.13.86.4,1.22.39.52.96.78,1.56.7.67.04,1.34-.33,1.72-.92.56-.85.81-1.96.88-2.96.02-.23-.07-.47-.22-.65-.03-.16-.07-.32-.12-.47.06.04.11.09.17.13.44.34.9.79,1.41,1,1.39.56,2-1.2,2.06-2.43Z" fill="#06292f"/>
    <path d="m53.07,41.22s-.01-.01-.02-.01c0,0-.02-.02-.03-.03-.02-.02-.05-.06-.08-.09,0,0,0,0-.01-.02-.01-.02-.03-.05-.04-.07-.01-.03-.05-.09-.05-.13,0,0,0,0,0,0,0-.03-.01-.05-.02-.08,0-.04-.02-.08-.02-.12,0-.05-.03-.12-.02-.17,0,.08,0,.09,0,.02,0-.03,0-.06,0-.08,0-.06,0-.12.02-.18,0-.01.02-.12.03-.14.03-.11.07-.23.11-.34.1-.27.23-.53.37-.79.13-.26-.05-.64-.32-.73-.31-.11-.59.04-.73.32-.3.58-.59,1.21-.59,1.87,0,.65.22,1.27.73,1.69.23.19.62.12.79-.12.18-.27.12-.59-.12-.79Z" fill="#02292e" stroke="#06292f" stroke-linejoin="round" stroke-width="1.12"/>
    <path d="m58.75,57.05c-.11.21-.32.37-.64.39-5.5.22-11.09.37-16.35-1.48-1.02-.36-.29-1.88.72-1.52.53.18,1.06.34,1.59.48.03,0,.07-.01.11,0,.58.09,1.16.17,1.74.23l2.94.14c.91-.06,1.82-.09,2.73-.1,2.14-.39,4.32-.66,6.49-.24.3.06.5.24.59.46.18.19.3.43.34.68.11.34.01.75-.26.97Z" fill="#06292f"/>
  </g>
</svg>