<?xml version="1.0" encoding="UTF-8"?>
<svg id="_圖層_2" data-name="圖層 2" xmlns="http://www.w3.org/2000/svg" width="1106.74" height="1106.89" xmlns:xlink="http://www.w3.org/1999/xlink" viewBox="0 0 1106.74 1106.89">
  <defs>
    <clipPath id="clippath">
      <rect width="1106.74" height="1106.89" fill="none"/>
    </clipPath>
  </defs>
  <g id="_圖層_1-2" data-name="圖層 1">
    <g clip-path="url(#clippath)" fill="none">
      <g>
        <path d="m-2.67,375.16h1127.21l29.64-99.67c12.82-35.81-5.02-75.45-40.03-88.97l-53.59-20.69C990.41,45.89,794.35,10.78,563.46,10.78S136.51,45.89,66.36,165.83l-53.59,20.69c-35.01,13.52-52.85,53.16-40.03,88.97L-2.67,375.16Z" fill="#fff"/>
        <path d="m-22.85,401.7h1127.21l29.64-97.94c12.82-35.18-5.02-74.13-40.03-87.42l-53.59-20.33c-70.15-117.85-266.21-152.35-497.1-152.35S116.34,78.16,46.19,196.02l-53.59,20.33c-35.01,13.28-52.85,52.24-40.03,87.42l24.58,97.94Z" fill="#092a31"/>
      </g>
      <rect y="388.58" width="1106.74" height="775.81" fill="#092a31"/>
    </g>
  </g>
</svg>