<?xml version="1.0" encoding="UTF-8"?>
<svg id="_圖層_2" data-name="圖層 2" xmlns="http://www.w3.org/2000/svg" width="176.2" height="262.17" viewBox="0 0 176.2 262.17">
  <g id="icon">
    <g>
      <path d="m152.11,113.57c5.35-5.53,9.51-12.39,11.86-20.28,4.4-14.75,1.62-29.93-6.32-41.79l-60.55-18.07c-13.14,5.57-23.79,16.75-28.19,31.49-2.35,7.89-2.64,15.9-1.19,23.46-29.58,7.07-54.69,29.25-64.01,60.49-13.91,46.61,12.6,95.68,59.21,109.59,46.61,13.91,95.68-12.6,109.59-59.21,9.32-31.24.47-63.56-20.39-85.68Z" fill="#fac959"/>
      <path d="m159.09,79.4c-1.26,6.66-4.25,12.86-7.5,18.82-1.95,3.58-7.63,10.2-18.96,13.48-9.77,2.83-20.6.19-29.87-3.98-9.28-4.17-17.24-11.59-21.19-20.96-3.95-9.37-3.59-20.67,1.75-29.33,4.32-7.01,11.76-12.01,19.88-13.37,7.18-1.2,14.53.33,21.55,2.29,9.61,2.68,21.31,5.71,29.69,11.3,6,3.99,5.81,15.59,4.65,21.75Z" fill="#fff"/>
      <path d="m156.12,51.86c-13.37,3.28-30.75-2.66-30.75-2.66,0,0-18.45-4.73-27.69-15.18l-.76-.9s31.95-11.26,37.18-33.12l5.46,1.63,5.46,1.63c-7.6,21.15,12.95,48.08,12.95,48.08l-1.86.52Z" fill="#231815"/>
      <path d="m112.23,168.78c.17.05.19.18.11.46-.28-.08-.48-.02-.62.24l-.23.36c-.33.51-.87,1.07-1.6,1.7-.17-.05-.77-.05-1.75-.04-.08.28-.19.43-.33.51l-.21-.12-.19-.18-.22.12c-.72-.64-1.2-.66-1.46-.19l-.45-.13c-.11-.03-.32-.34-.6-.84.48-.58.43-1.02-.04-1.28-.2.06-.31.21-.39.49-.11-.03-.19-.18-.27-.51.01-.24-.15-.53-.43-.79l.16-.13.18-.19c-.17-.05-.21-.12-.19-.18s-.04-.07-.15-.11l-.27.1c-.19-.78-.55-1.2-.99-1.14.08-.28.09-.52.02-.66-.47-.26-1.02-.85-1.78-1.74-.67-.8-1.22-1.39-1.78-1.74-.16-.47-.66-1.05-1.43-1.7s-1.31-1.3-1.59-1.99c-.17-.05-.32-.15-.43-.37-.19-.18-.36-.23-.5-.15-.76-.71-2.51-2.57-5.32-5.53-.57-.72-.88-1.11-.99-1.14-1.85.72-2.94,1.12-3.16,1.24-.39-.12-.92.03-1.57.38-.61.42-1.08.59-1.36.5-.03.11-.14.26-.32.45-.22.12-.32.27-.37.43-.24-.01-.6.18-1.05.47-.23.17-.39.31-.47.35-.34.32-.64.54-.88.71-.52.33-.76.5-.83.54-.05.17-.01.24.04.26s.09.09.06.2c1.7.2,2.73.21,3.02.05l1,.3c.06.02.31-.03.73-.21.08.14.28.27.56.35,1.06-.11,2.54.03,4.52.5l1.65.37,1.18.29c.3.03.46.08.52.09.23.25.55.41,1.05.55s.76.29.84.43c.2-.06.44-.05.66.02l.06.2.04.26c.28.08.46.08.68-.04.08.33.3.63.62.97.36.41.59.66.63.73-.64,1.14-.6,2,.12,2.64-.38,1.28-.89,2.16-1.46,2.66-.17-.05-.21-.12-.19-.18s-.02-.13-.13-.16c-.2.06-.32.27-.4.55l-.39-.12c-.79.43-1.69.59-2.57.5-.17-.05-.32-.16-.56-.35-.17-.23-.36-.23-.61,0-.04-.07-.19-.18-.43-.37-.26-.14-.41-.24-.56-.35-.47-.26-.68-.57-.71-.88l-.29.16c-.19-.36-.71-.46-1.46-.19-.03.11-.19.43-.43,1.02s-.48,1.01-.62,1.27c-.14.26-.31.64-.63,1.09.1.27,0,.79-.21,1.51.08.14.23.25.51.33s.43.19.38.36c.05-.17.07-.22.12-.21s.13-.02.16-.13c1,.12,1.94.4,2.84.85l.74-.45c.5.15.98.36,1.47.56.76.29,1.3.33,1.6.11.28.08.56.35.85.8.35.47.57.72.69.75s.32.34.67.99c.31.58.71.88,1.13.88-.02.06.04.26.27.51.25.19.35.47.26.75l-.46,1.56c-.17-.05-.24-.01-.26.04s-.09.09-.26.04c-.74,1.66-1.84,2.3-3.34,1.85-1.15.38-2.1.53-2.74.45-.05.17-.12.21-.18.19s-.13.02-.18.19c-.51.27-.84.17-1-.3-.42.18-1.01.12-1.73-.09-.03.11-.16.13-.44.05s-.41-.06-.46.11c-.2-.36-.26-.56-.21-.73-.22.12-.51.09-.9-.03s-.68-.14-.83-.06c-.25.23-.59,1.16-1.07,2.77.31.39.21.73-.3,1,0,1.03-.29,2.58-.81,4.55l-.79,3.04c.08.14.67.38,1.73.7.42.43.98.78,1.7.99.36-.2.44-.47.25-.83-.28-.08-.48-.21-.56-.35.02-.06-.06-.62-.18-1.63.03-.11.11-.15.16-.13s.13-.02.18-.19c-.1-.69.06-1.62.39-2.73.28-.95.44-1.69.43-2.24.51-.27.85-.41.96-.38-.11-.46.07-.83.57-1.1.17.05.22.07.21.12s.02.13.13.16l.27-.1c.91.82,1.64,1.4,2.09,1.72-.03.11,0,.18.06.2s.09.09.04.26c.16-.13.34-.14.62-.06,1.22,1.39,1.78,2.35,1.73,2.94-.14.08-.32.45-.52,1.12.12.22.07.57-.02,1.08-.09.52-.12,1-.03,1.32-.12.39-.49.82-1.09,1.43-.61.61-.98,1.04-1.08,1.38.17.05.32.16.56.35.51.33.85.62,1.04.79.48.02,1.44.25,2.89.68.08.14.34.28.73.4s.6.42.65.86c.06.02.24.01.53.04.24.01.42,0,.53.04-.08.28-.02.48.24.62l.36.23-.18.61c.47.26.89.69,1.16,1.19l-.6,2c-.11-.03-.18,0-.2.06s-.09.09-.26.04c-.02.48-.28.95-.73,1.42-.52.51-.8.85-.83.96-.13.02-.95.14-2.53.34-.97-.59-1.74-.88-2.33-.94.05-.17.01-.24-.04-.26s-.09-.09-.06-.2c-.51.27-.9.16-1.17-.35-.67.22-1.47-.14-2.38-.95l-.51.27c-.28-.08-.43-.19-.51-.33-.2.06-.44.05-.66-.02-.28-.08-.46-.08-.68.04-.12-.22-.32-.34-.71-.46s-.65-.25-.79-.42c-.06-.2-.23-.25-.5-.15-.2.06-.38.07-.55.02-.36-.23-1.12-.52-2.34-.88-1.06-.32-1.91-.69-2.5-1.17-.14.08-.49.03-1.05-.13l-1.17-.35c-.28-.08-.6-.24-.95-.47-.51-.33-.79-.6-.87-.74-.11-.03-.38.07-.74.26l-1.22-.37-.13-.16-.19-.18c-1.14.39-2,0-2.67-1.22-.36.2-.64.11-.84-.25l-.22.12c-.53-.46-1-.72-1.28-.81-.68-2.2-.5-4.03.54-5.47,1.48.74,2.89.86,4.26.36l.12-.39c.06.2.28.27.67.2.37-.01.61,0,.77.05.16-.13,1.33-.21,3.54-.28.17-2.01.67-4.89,1.51-8.7l-.16-.9c-.03-.31,0-.61.08-.88-.25-.19-.67-.38-1.17-.53l-1.22-.37-.04.53-.04.35-.41-1.27c-.28-.08-.8-.18-1.57-.23-.92-.15-1.42-.3-1.5-.45l-.27.1c-.28-.08-.69-.33-1.11-.75l-.23.17c-.17-.05-.3-.21-.4-.48-.23-.25-.36-.41-.42-.43.08-.28.09-.52-.04-.68-.28-.08-.43-.19-.55-.41.03-.11-.35-.65-1.21-1.63-.1-1.3.51-2.33,1.74-3,1.11.33,1.93.45,2.51.32.17.05.21.12.19.18s.02.13.13.16c.53-.15,1.72-.27,3.63-.37,1.64,0,2.9-.17,3.68-.54.27.51.61.61,1,.3.05-.17.28-.52.74-1.05.18-.61.42-1.21.68-1.86.35-.99.44-1.69.25-2.05-2.64-.3-4.08-.55-4.31-.8l-.27.1c-.22-.07-.43-.19-.58-.29-.15-.11-.37-.17-.65-.26l-.61-.18c-.22-.07-.46-.08-.77-.05-.39-.12-.86-.38-1.27-.8-.05.17-.18.19-.46.11.05-.17-.04-.26-.34-.28-.26-.14-.38-.36-.31-.58l-.56-.17c-.22-.07-.47-.26-.72-.64-.2-.36-.37-.59-.48-.63.03-.11.05-.17,0-.18s-.09-.09-.04-.25c-.22.12-.4.12-.68.04-.22-.07-.46-.08-.66-.02l-.13.45c-.17-.05-.42,0-.64.11-.47.16-.69.28-.76.32-.39.31-1.12.7-2.15,1.3-.36.2-1.02.36-1.91.52l-2.08.47c-.06-.02-.24-.01-.65-.07-.41-.06-.59-.05-.65-.07.05-.17.01-.24-.04-.26s-.04-.07,0-.18c-.98.25-1.43-.07-1.5-.87-.17-.05-.37.01-.58.13-.22.12-.42.18-.58.13.28-.95.38-1.46.24-1.62-.06-.2-.43-.37-1.1-.57-.13-.16-.12-.4,0-.79.1-.33.11-.57-.02-.73-.06-.2-.17-.23-.31.03-.11.15-.25.23-.36.2.2-.67.47-.95.86-.84.12-.39.43-.84.86-1.26l3.52-2.04c1.53-.88,2.82-1.52,3.72-1.92,4.16-2.58,7.37-4.41,9.73-5.58,1.06-.11,2.46-.54,4.2-1.29,1.85-.72,3.24-1.09,4.19-1.24,2.38-1.29,4.01-2.08,4.85-2.25-.08-.33.08-.46.46-.53.37-.01.6-.18.68-.46.76.1,1.69.02,2.91-.22.06.2.32.34.71.46s.65.26.77.47c-.04.53.31,1.18,1.05,1.95.74.77,1.2,1.27,1.35,1.56l1,.3c2.39,2.35,3.68,3.52,3.95,3.6l.06.2.04.26.56.17,1.62,1.88c.8.97,1.39,1.63,1.83,2-.03.11,0,.18.06.2s.04.07-.01.24c.58.29,1.28.99,2.03,2.12.6,1.03,1.19,1.69,1.76,2.04.66,1.23,1.17,1.98,1.52,2.21-.05.17.01.37.18.6.08.33.15.53.13.58.28.08.6.24.97.41.26.14.47.44.6.84.1.27.26.56.41.85l.78.23c.66,1.84.74,3.01.26,3.59l-.06-.02Zm-42.22,16.79c.37-1.22.17-2.19-.63-2.98-.02-1.34-.79-2.23-2.29-2.68-.16.32-.6.79-1.26,1.38-.68.65-1.16,1.23-1.49,1.74-.42.6-.72,1.18-.87,1.68l-.2.06-.26.05c-.76,1.11-.68,2.47.14,3.98.61.18,1.09.2,1.51.03.17.05.22.07.21.12s.02.13.13.16c.7.09,1.34-.02,1.85-.3.51-.27,1.17-.86,1.91-1.73.78-.8,1.19-1.34,1.24-1.51Z" fill="#231815"/>
      <path d="m121.06,83.93c-.23-.89-.58-1.72-1.17-2.44-.59-.72-1.3-1.26-2.11-1.7-1.51-.82-3.29-.93-4.91-.41-.86.28-1.3,1.45-.93,2.25.42.9,1.33,1.23,2.25.93,0,0,0,0,0,0,.02,0,.04-.01.06-.01.14-.03.28-.05.41-.06.02,0,.05,0,.08-.01.13,0,.26.01.4.03.13.02.26.04.39.06.03,0,.06.02.09.03.26.08.5.2.74.31.04.02.07.05.11.07.12.08.23.16.34.25.05.04.11.09.16.14,0,0,0,0,.01.01.06.06.14.15.16.18.09.11.17.22.25.33.02.03.04.06.06.09.05.11.11.22.15.33.05.13.2.67.05.1.12.46.27.84.66,1.14.34.25.85.41,1.27.33.83-.15,1.71-1.01,1.47-1.94Z" fill="#02292e" stroke="#06292f" stroke-miterlimit="10" stroke-width="2"/>
      <path d="m141.09,81.38c.64-1.08.95-2.32.74-3.62-.3-1.93-1.97-3.79-4-4.57-2-.78-4.28-.58-5.75.66-.86.72-1.44,1.66-1.64,2.7-.78,1.11-1.09,2.5-.91,3.88.23,1.73,1.48,3.37,3.2,4.24.4.36.87.66,1.36.86.41.16.86.3,1.29.34.44.04.89.07,1.31,0,.56-.09.99-.19,1.47-.42.49-.23.84-.48,1.21-.86.09-.1.17-.2.24-.32.18-.27.37-.55.49-.86.04-.1.07-.21.1-.32.33-.41.61-.87.78-1.38.04-.12.07-.23.1-.35Z" fill="#06292f"/>
      <path d="m156.8,71.29c-.24-1.16-1.56-2.16-2.86-2.04-3.47.34-6.96.62-10.46.85-1.75.11-3.5.21-5.26.3-.83.04-1.66.08-2.49.11.17-.97-.59-2.09-1.62-2.52-1.32-.55-2.61-.03-3.14,1.01-1,1.94-1.32,5.31,2.07,5.94,1.24.23,2.61.02,3.83-.03,1.19-.05,2.38-.11,3.57-.17,4.82-.25,9.62-.62,14.4-1.08,1.29-.13,2.22-1.15,1.97-2.36Z" fill="#06292f"/>
      <path d="m118.29,65.14c.39-1.1.08-2.3-.92-2.72-.78-.33-1.86.03-2.39.84-.39-.55-.78-1.09-1.17-1.65-.82-1.16-1.62-2.34-2.42-3.52-1.59-2.36-3.14-4.76-4.66-7.19-.57-.91-1.85-1-2.7-.3-.89.74-1.07,2.07-.51,2.98,1.5,2.41,3.05,4.78,4.63,7.12-.02,0-.03,0-.05,0-.88-.03-1.72.48-2.41,1.14-.36.27-.69.6-.95.99-.05.08-.08.16-.12.23-.02.03-.05.06-.07.09-.94,1.29-1.57,2.8-1.8,4.37-.05.34-.08.68-.08,1.03-.21.75-.22,1.54.05,2.28.4,1.08,1.24,1.82,2.29,2,1.13.42,2.45.12,3.41-.68,1.4-1.16,2.38-2.92,3.02-4.6.15-.39.13-.84-.04-1.22.03-.29.05-.58.05-.86.07.1.15.21.22.31.57.8,1.12,1.81,1.88,2.42,2.07,1.67,4.03-1.02,4.75-3.08Z" fill="#06292f"/>
      <path d="m125.03,73.83s-.02-.03-.02-.03c-.01-.02-.02-.04-.03-.06-.02-.05-.06-.13-.08-.2,0-.01,0,0,0-.04-.01-.05-.02-.1-.03-.14,0-.06-.03-.17-.03-.25,0,0,0,0,0-.01,0-.05,0-.1,0-.15,0-.07.02-.15.03-.22.01-.09.02-.22.06-.29-.04.14-.04.15,0,.04.02-.05.03-.09.05-.14.04-.1.08-.2.12-.3.01-.02.1-.2.12-.23.11-.18.23-.35.36-.52.32-.41.67-.79,1.03-1.16.36-.38.24-1.11-.17-1.4-.48-.34-1.02-.24-1.4.17-.8.84-1.63,1.75-1.97,2.89-.33,1.12-.28,2.27.38,3.26.29.44,1,.53,1.4.2.44-.36.51-.93.2-1.4Z" fill="#02292e" stroke="#06292f" stroke-linejoin="round" stroke-width="2"/>
      <path d="m126.55,103.71c-.3.31-.74.47-1.29.33-9.48-2.46-19.07-5.08-27.09-10.94-1.56-1.14.47-3.35,2.02-2.22.8.58,1.62,1.12,2.46,1.64.06,0,.12.02.19.05.94.45,1.89.88,2.85,1.29l4.93,1.75c1.58.37,3.15.79,4.71,1.23,3.85.43,7.7,1.11,11.17,2.92.49.26.72.66.77,1.08.21.42.3.88.24,1.34.02.63-.36,1.28-.94,1.52Z" fill="#06292f"/>
    </g>
  </g>
</svg>