<?xml version="1.0" encoding="UTF-8"?>
<svg id="_圖層_2" data-name="圖層 2" xmlns="http://www.w3.org/2000/svg" width="176.2" height="261.83" viewBox="0 0 176.2 261.83">
  <g id="icon">
    <g>
      <path d="m152.55,113.7c5.39-5.49,9.59-12.32,12-20.19,4.51-14.71,1.83-29.92-6.02-41.84l-60.42-18.51c-13.18,5.48-23.91,16.58-28.42,31.29-2.41,7.87-2.75,15.88-1.36,23.45-29.63,6.85-54.9,28.86-64.45,60.03-14.25,46.51,11.91,95.77,58.42,110.01,46.51,14.25,95.77-11.91,110.01-58.42,9.55-31.17.93-63.55-19.77-85.82Z" fill="#18933b"/>
      <path d="m159.77,79.58c-1.31,6.65-4.35,12.83-7.63,18.76-1.98,3.57-7.71,10.15-19.05,13.35-9.79,2.76-20.6.05-29.85-4.19-9.25-4.24-17.15-11.72-21.04-21.12-3.89-9.4-3.44-20.69,1.96-29.31,4.37-6.98,11.85-11.93,19.98-13.23,7.19-1.15,14.53.44,21.53,2.45,9.59,2.75,21.27,5.87,29.61,11.51,5.97,4.04,5.7,15.63,4.49,21.78Z" fill="#fff"/>
      <path d="m157,52.02c-13.39,3.18-30.73-2.88-30.73-2.88,0,0-18.42-4.86-27.58-15.38l-.75-.9S129.97,21.82,135.36,0l5.44,1.67,5.45,1.67c-7.75,21.09,12.61,48.17,12.61,48.17l-1.86.51Z" fill="#231815"/>
      <path d="m104.06,177.59c.06.02.15.11.26.32.28.09.41.06.46-.1l.33.71c.26.14.56.35.75.53.3.21.45.32.6.43.09.09.15.11.21.12-.07.22-.05.35.12.4.39.12.65.26.89.46.15.11.38.36.7.7.04.07.19.18.32.34s.28.27.38.36c-.08.28-.06.41.05.44l.5.15c.15.29.16.47.01.55-.14.08-.25.23-.34.5-.03.11.06.2.28.27l.49-.21c-.03.11.06.2.28.27-.05.17-.03.48.11.82.11.03.21.12.28.27.13.16.24.2.39.12-.05.17,0,.42.16.66.19.18.26.32.23.44l.39.12.59,1.64.76,1.69c.18.42.35.84.62,1.34.22.86,0,1.58-.66,2.17-.22.12-.79.18-1.59.24-.28-.09-.9-.03-1.78.25-.31.03-.45.29-.55.8l-.14.44c.02.13-.01.24.03.31l-.05.17c-.33-.1-.67-.2-1.04-.38-.54-.23-.91-.4-1.14-.65.09-.28.06-.41-.05-.44-.28-.09-.43-.19-.5-.34-.03.11-.16.13-.38.06-.97-1.21-1.83-1.96-2.52-2.29.09-.28.06-.41-.05-.44l-.29.15c-.11-.03-.21-.12-.27-.32l-.23-.43-.33-.1c-.4-.49-.95-1.08-1.64-1.78-.53-.47-1.01-.86-1.43-1.29-.76-.9-1.1-1.37-1.07-1.48-.03.11-.16.13-.44.05-.15-.29-.38-.54-.61-.79-.36-.41-.62-.74-.72-1.01l-.23.17c-1.39-1.82-2.16-2.85-2.28-3.07l-.39-.12c-.39-.91-.94-1.5-1.51-1.8-.11-.03-.23-.25-.39-.72-.12-.4-.31-.58-.56-.54l-1.06-.32c-.15.08-.37.61-.66,1.56l.06.38c-.15.08-.29.34-.44.84-.03.48-.16,1.11-.41,1.94-.24.78-.35,1.35-.34,1.72.07.57.04,1.05-.04,1.32.06.38-.03.9-.22,1.51l-.44,1.44c-.03.11.06.2.28.27l-.22.12c.11.03.19.18.23.44l.05.44-.32,1.06c-.15.5-.2.85-.16,1.11-.11-.03-.2.06-.29.34-.07.22-.16.32-.27.28.08.15.08.33,0,.61-.93,1.24-1.57,1.95-1.82,2.18l-.15.5-.12-.22c-.15.08-.33.08-.55.01-.11-.03-.26.04-.45.29-.31.21-.47.34-.54.38l-1.22.23c-.26.04-.68-.15-1.34-.59-.15.08-.27.1-.38.06-1.18-.91-1.9-1.74-2.12-2.41.05-.17.03-.3-.03-.5-.1-.27-.16-.47-.2-.55-.08-.15-.1-.27-.06-.38-.1-.27-.09-.7-.03-1.28.06-.59.12-1,.19-1.22l1.41-6.37.08-.28c0-.18,0-.42.13-.81,0-.42.11-.76.17-1.16.26-1.44.45-2.47.64-3.08l.28-.52c.11-.15.17-.37.26-.65.05-.17-.04-.26-.27-.32.21-.3.68-1.61,1.41-4l.34-1.11.22-.12-.12-.22.22-.12c-.19-.36-.33-.53-.38-.54-.73.2-1.6.66-2.72,1.35-.4.3-.9.57-1.43.9-.52.32-.81.48-.89.52l.12.22c-1.42.66-2.73,1.78-3.87,3.31-.03.11-.16.13-.38.06s-.35-.05-.38.07l.05.44c-.06-.02-.31.03-.66.16l-.1.33c-2.78,1.94-4.44,3.2-4.92,3.78-.05.17-.2.24-.53.33-.27.1-.49.21-.69.46-.38.43-.83.72-1.43.9l-.33-.1c-.11-.03-.2.06-.29.34-.5-.15-.79-.18-.94-.11l-.12-.22-.22.12-.22.12-.17-.05.05-.17.05-.17-.22-.07-.22.12-.22.12c-.69-.33-1-.91-.96-1.81-.43.23-.7.09-.82-.49.07-1.01.4-2.49,1.03-4.54.22.07.35.05.38-.06-.11-.03-.1-.27.05-.77.24.01.32.16.32.34l2.87-2.04c.11-.15.36-.38.67-.59l.87-.65c.4-.3.61-.42.69-.46l.1-.33c.47-.16.94-.5,1.46-1.01.52-.51.99-.85,1.46-1.01-.11-.03-.2.06-.27.28l.12.22c.71-.15,1.58-.61,2.63-1.44,1.08-.76,1.77-1.22,2.06-1.37.29-.15.43-.41.44-.84l-.12-.22-.71.33c.33-.08.62-.24,1-.48.15-.08.36-.19.58-.31.23-.17.45-.29.53-.33l.1.27c.82-.9,1.62-1.33,2.27-1.25.11.03.2-.06.29-.34-.04-.26-.47-.26-1.34.02l-.33-.1.31-.21.15-.08c-.31-.58-.66-.63-1.11-.16-.05.17.04.26.32.34-.15.08-.33.08-.61,0l.22-.12c-.03-.31-.47-.45-1.39-.43-.03.11.06.2.34.29-.72-.22-1.2-.25-1.49-.09-.12.39-.23.54-.39.49-.22-.07-.59-.06-1.1.03-.28-.09-.69-.33-1.34-.77l-.22.12c-.08-.15-.32-.34-.68-.57-.39-.3-.66-.63-.77-.84-.15-.29-.28-.27-.38.06l.22-.12-.39-.73-.33-.1-.27-.51c-.04-.07-.04-.26-.12-.59l-.39-.12-.18-1.21c.14-.08.23-.17.27-.28l-.62-1.16c-.12-.22.15-.5.71-.94.49-.4,1.83-.84,3.99-1.33.22-.12.45-.29.61-.42.23-.17.51-.27.71-.33l.51-.27.39.12c2.86-.82,5.5-1.11,8.03-.82-.03.11-.11.15-.22.12l-.28-.08-.22-.07-.05.17c-.03.11.28.27.95.47,1.06-.1,2.39-.06,4.01.01,1.38.06,2.65.08,3.8.07-.08-.14-.05-.44.16-.92l.12-.39c.11-.15.14-.26.21-.3l.05-.17.43-.23c-.11-.03-.13-.16-.05-.44.02-.06.12-.21.25-.41.12-.21.29-.34.36-.38.28.09.41.06.44-.05l-.12-.22c-.17-.05-.15-.11,0-.18.36-.19.7-.51,1.11-1.06.34-.5.75-.86,1.2-1.15.4-.3.86-.22,1.4.19l.22-.12.21.49c.22.07.35.05.4-.12l.27.51c.56.17.95.66,1.23,1.53.2.55.07,1.17-.38,1.83l.12.22c-.37.43-.6.79-.66.95s.1.27.43.38l-.1.33c-.07.22-.05.35.06.38-.11-.03-.2.06-.29.34.15.29.34.47.62.55.71-.15,1.17-.07,1.44.26l.43-.23c.19.18.84.44,1.89.76.5.15,1.41.37,2.83.68,1.44.26,2.49.58,3.11.95.43.38.73.59.95.66l.2-.06h.18c.79.6,1.62,1.04,2.46,1.29l.49-.21c.06.02.26.14.56.35.24.2.43.19.66.02.08.15.21.31.45.5.23.25.41.43.49.58l.72.22c.22.07.52.28.84.62.42.43.71.64.83.68.95,1.26,1.54,2.11,1.73,2.47.19.36.51,1.13.84,2.2.12.58.09.88-.11.94-.03.11-.11.15-.22.12s-.18,0-.22.12c-.22,1.51-1.03,2.36-2.49,2.58l-.33-.1c-.07.04-.15.08-.35.14l-.4.12c-.33.08-.58.12-.75.26-.07.22-.16.32-.27.28-.28-.09-.77-.05-1.39.18-.71.15-1.21.18-1.54.07.07-.22.05-.35-.12-.4-.19-.18-.45-.32-.78-.42s-.54-.23-.65-.44c-.22.12-.35.14-.4.12l-.1-.27c-.22.12-.51.09-.96-.05l-.1-.27c-.09.28-.32.27-.68.04-.28-.27-.54-.41-.71-.46.07-.22.05-.35-.06-.38-.03.11-.16.13-.38.06-.28-.09-.41-.06-.44.05.03-.11-.06-.2-.17-.23l-.22.12-.12-.22-.22.12c.03-.11-.06-.2-.34-.29-.15.08-.27.1-.38.06-.19-.18-.78-.42-1.84-.74-.2.06-.33.08-.44.05s-.15-.11-.15-.29l-.03-.31-.65.35c-.17-.05-.26-.14-.34-.29-.11-.03-.18,0-.2.06s-.07.04-.18,0l-.23-.25c-.13-.16-.24-.2-.39-.12.19.18.68.15,1.54-.07-.3-.4-1.49-.88-3.55-1.51-.11-.03-.22.12-.34.5l-.12-.22-.27.1-.22.12-.33-.1c-.16.13-.35.14-.53.14-.13.02-.37,0-.66-.02-.29-.03-.48-.03-.53-.04l.23-.17c.03-.11-.06-.2-.28-.27-.22.12-.32.27-.39.49-.4.12-1.01.91-1.82,2.36l.06.38c-.15.08-.27.28-.39.67.04.07.03.31-.11.57-.11.15-.16.32-.21.48.08.33.38.54.88.69,2.06.21,5.65,1.97,10.78,5.25.06.02.24.2.45.5.15.29.29.45.4.49l-.11-.03Z" fill="#231815"/>
      <g>
        <path d="m110.19,60.55c.61-.68.81-2.02-.03-2.65-1.97-1.51-4.22-2.35-6.7-2.48-2.28-.12-4.64.47-6.57,1.68-.83.52-1.24,1.7-.68,2.57.54.83,1.68,1.24,2.57.68.33-.2.66-.37,1-.54,0,0,.06-.03.12-.06.04-.02.08-.04.12-.06-.04.02-.07.04-.1.05.03-.01.06-.03.09-.04.11-.04.22-.08.33-.12.22-.07.45-.14.67-.2.23-.06.46-.11.69-.15,0,0,0,0,0,0,.07.01.22-.03.27-.04.47-.05.94-.06,1.41-.04.12,0,.51.1.63.05,0,0,0,0,0,0,.12.02.23.04.35.06.46.09.92.21,1.36.36.07.02.14.05.22.08.03.01.06.03.09.04.21.09.43.2.63.31.19.1.38.21.56.32.1.06.2.13.29.19.11.07.49.37.02,0,.41.32.79.54,1.33.54.46,0,1.01-.21,1.32-.56Z" fill="#02292e" stroke="#06292f" stroke-miterlimit="10"/>
        <path d="m99.77,59.79s.04-.02.14-.07c0,0-.01,0-.02,0-.04.02-.08.04-.12.06Z" fill="#02292e" stroke="#06292f" stroke-miterlimit="10"/>
      </g>
      <path d="m148.11,70.23c-3.45-3.12-7.9-5-12.51-5.47-1.01-.1-1.93.76-2,1.75-.07,1.04.73,1.9,1.75,2,3.96.4,7.59,2.07,10.63,4.81.75.68,2.09.28,2.61-.47.64-.92.28-1.93-.47-2.61Z" fill="#02292e" stroke="#06292f" stroke-miterlimit="10"/>
      <path d="m141.01,74.31c-2.03-.44-4.09-.75-6.16-.95-.48-.16-1.05-.08-1.42.25,0,0,0,0,0,0-.32.23-.55.58-.58.99-.03.51.19,1.02.57,1.33,1.01,1.42,2.07,2.8,3.19,4.13.49.59,1.47.74,2.06.21.59-.52.74-1.43.21-2.06-.43-.51-.84-1.03-1.25-1.55,1.02.16,2.03.34,3.04.56.75.16,1.57-.56,1.62-1.29.06-.86-.49-1.45-1.29-1.62Z" fill="#02292e" stroke="#06292f" stroke-miterlimit="10" stroke-width=".75"/>
      <path d="m108,66.12c-.26-.47-.68-.7-1.16-.89-.56-.22-1.13-.43-1.69-.65-1.13-.43-2.26-.86-3.38-1.3-.33-.13-.82-.01-1.11.16-.31.18-.6.54-.67.9-.08.37-.06.78.16,1.11.22.35.51.53.9.67.66.25,1.32.51,1.98.76-.95.33-1.9.64-2.86.92-.74.22-1.26,1.05-1.01,1.81.25.75,1.02,1.24,1.81,1.01,1.11-.33,2.21-.68,3.3-1.07.54-.19,1.09-.4,1.62-.61.27-.1.54-.21.81-.32.39-.16.77-.28,1.07-.58.5-.51.6-1.3.25-1.92Z" fill="#02292e" stroke="#06292f" stroke-miterlimit="10" stroke-width=".75"/>
      <path d="m124.52,71.51c-.18-.78-.52-1.55-.97-2.21-.48-.71-1.13-1.45-1.9-1.86-.94-.51-2.03-.24-2.98.09-.82.29-1.61.68-2.32,1.18-.58.41-.86,1.25-.43,1.88.4.58,1.25.87,1.88.43.26-.19.54-.36.82-.51.08-.04.16-.08.24-.12.01,0,.05-.02.08-.04.05-.02.12-.05.14-.06.07-.03.13-.05.2-.08.3-.12.61-.21.92-.29.07-.02.14-.03.21-.05,0,0,.02.01.02.02.06.05.13.11.19.16.11.1.22.2.32.31.04.05.08.09.13.14,0,0,0,0,0,0,.09.12.18.24.26.37.08.13.16.25.23.38,0,.01.05.1.08.15,0,0,0,.02.01.03.12.29.21.59.28.9.16.7,1.05,1.13,1.7.89.74-.27,1.06-.96.89-1.7Z" fill="#02292e" stroke="#06292f" stroke-miterlimit="10" stroke-width="2"/>
      <path d="m128.01,95.86c1.54-1.31,2.93-2.78,4.06-4.46.7-1.04,1.93-2.6,1.3-3.83,0,0,0,0,0-.01-.08-.27-.2-.44-.36-.56,0-.01.02-.02.02-.03-.17-.24-.45-.42-.81-.44-10.53-.49-20.82-3.46-30.03-8.56-1.14-.63-2.02,1.19-.88,1.82.39.21.78.42,1.16.62.05.16.17.32.36.45,1.45.98,1.61,3.48,1.99,5.06.43,1.8.88,3.59,1.52,5.33,1.15,3.1,2.93,6.05,5.74,7.89.82.54,1.71.93,2.63,1.2.13.13.31.23.55.27.69.11,1.37.16,2.06.16.1.05.21.08.34.09,3.75.29,7.66-2.69,10.37-4.99Zm-5.81,1.57c-.38.22-.78.44-1.19.65-.07,0-.14.03-.21.05-1.38.48-2.79.68-4.22.59-2.22-.28-4.23-1.54-5.68-3.29-1.98-2.39-2.97-5.4-3.74-8.36-.36-1.41-.56-3.27-1.1-4.89,7.57,3.47,15.72,5.56,24.04,6.21.03.06.07.11.11.15.09,0,.18.02.26.05.13.06.24.2.29.33,0,.02.01.04.02.07.12.2.16.45.11.67-.06.24-.18.44-.33.63-.15.18-.32.33-.5.48-.02.02-.04.03-.07.05-.28.38-.57.75-.88,1.11-1.02,1.18-2.16,2.24-3.4,3.18-1.12.85-2.3,1.62-3.53,2.32Z" fill="#06292f" stroke="#06292f" stroke-linejoin="round" stroke-width="3"/>
    </g>
  </g>
</svg>