<?xml version="1.0" encoding="UTF-8"?>
<svg id="_圖層_2" data-name="圖層 2" xmlns="http://www.w3.org/2000/svg" width="1788.47" height="97.59" viewBox="0 0 1788.47 97.59">
  <g id="icon">
    <g>
      <path d="m106.84,78.46c-4.87-.76-9.63-1.76-14.27-3,0,3.24-.04,5.69-.12,7.34-.08,1.65-.19,3.1-.35,4.34-.39,2.07-1.1,3.69-2.15,4.86-1.04,1.17-2.67,2.02-4.87,2.53s-5.24.78-9.11.78h-16.36l-2.78-9.2h19.14c1.31,0,2.22-.14,2.73-.41.5-.27.87-.79,1.1-1.55.23-.83.35-2.48.35-4.96h-23.2c-1.78,5.1-6.17,9.01-13.17,11.73-7,2.72-16.88,4.67-29.64,5.84l-3.36-9.3c9.82-1.03,17.23-2.12,22.21-3.26s8.49-2.81,10.5-5.01h-22.74v-4.14c-4.87,1.45-10.29,2.58-16.24,3.41l-4.52-9.2c7.11-1.03,12.93-2.05,17.46-3.05,4.52-1,8.25-2.12,11.19-3.36H2.32v-9.2h37.47c.54-.76,1.16-1.79,1.86-3.1H14.85v-30.19h81.43v30.19h-41.06c-.62,1.03-1.32,2.07-2.09,3.1h55.68v9.2h-24.71c2.78,1.24,6.3,2.38,10.56,3.41,4.25,1.03,9.67,2.07,16.24,3.1l-4.06,9.1ZM42.11,18.3h-12.76v-3.93H2.78V4.76h26.56V.72h12.76v4.03h24.94V.72h12.99v4.03h28.3v9.61h-28.3v3.93h-12.99v-3.93h-24.94v3.93Zm41.3,10.34H27.49v3.1h55.91v-3.1Zm0,10.34H27.49v3.31h55.91v-3.31Zm-25.52,31.53h20.53c-4.95-2.34-9.01-4.89-12.18-7.65h-21.69c-3.17,2.76-7.12,5.31-11.83,7.65h13.22v-5.58h11.95v5.58Z" fill="#00262b"/>
      <path d="m167.04,27.29c-3.48,2.41-7.52,4.83-12.12,7.24-4.6,2.41-9.26,4.58-13.98,6.51l-6.15-9.82c10.9-3.93,19.8-8.1,26.68-12.51l5.57,8.58Zm47.33,54.38c8.27,1.72,17.63,4.03,28.07,6.93l-6.5,8.99c-13.77-4.34-26.53-7.48-38.28-9.41l4.41-6.51h-28.54l6.26,5.89c-11.76,4.96-24.86,8.3-39.32,10.03l-5.22-9.3c11.06-1.24,21.5-3.45,31.32-6.62h-19.6v-40.73h22.04l-3.6-7.55c10.13-2.41,17.44-5,21.92-7.75,4.48-2.76,6.92-5.86,7.31-9.3h-9.4c-3.25,4-6.92,7.58-11.02,10.75l-9.63-6.93c7.66-5.65,13.34-12.37,17.05-20.16l11.95,2.17c-.93,2.21-1.7,3.83-2.32,4.86h47.1v8.06c-.85,2-1.95,3.98-3.31,5.94-1.35,1.96-3.11,4.33-5.28,7.08l-10.44-4.55c2.32-2.27,4.29-4.69,5.92-7.24h-17.52c.39,3.45,3.17,6.58,8.35,9.41,5.18,2.83,13.57,5.38,25.17,7.65l-3.83,9.92-6.5-1.55v39.9h-16.59Zm-53.48-64.4c-7.12-3.03-14.42-5.41-21.92-7.13l5.1-9.1c7.42,1.65,14.65,3.96,21.69,6.93l-4.87,9.3Zm56.49,34.84v-3.41h-57.07v3.41h57.07Zm-57.07,10.85h57.07v-3.62h-57.07v3.62Zm57.07,7.24h-57.07v3.72h57.07v-3.72Zm-16.7-46.83c-.77,4.2-2.8,7.6-6.09,10.18-3.29,2.58-8.68,5.05-16.18,7.39h49.53c-8.74-2.34-15.06-4.82-18.97-7.44-3.91-2.62-6.28-6-7.13-10.13h-1.16Z" fill="#00262b"/>
      <path d="m319.46,28.53h-50v-10.85h50v10.85Zm-33.18,67.51h-12.64v-34.43h42.22v30.81h-29.58v3.62Zm-12.41-92.94h41.88v10.34h-41.88V3.1Zm.81,29.57h40.14v10.34h-40.14v-10.34Zm40.14,24.81h-40.14v-10.34h40.14v10.34Zm-11.37,14.16h-17.17v10.65h17.17v-10.65Zm51.5-40.94h21v12.1h-21v53.24h-13.92v-53.24h-20.42v-12.1h20.42V.93h13.92v29.77Z" fill="#00262b"/>
      <path d="m461.68,41.87v2.89h47.44v7.86h-106.72v-7.86h45.82v-2.89h-40.48v-7.13h40.48v-2.89h-37v-7.13h37v-3.31h-45.24v-7.44h45.24v-3.1h-37V3.72h37V.31h13.46v3.41h38.4v9.92h8.47v8.06h-8.47v10.13h-38.4v2.89h42.11v7.13h-42.11Zm46.75,52.41h-105.33v-7.86h105.33v7.86Zm-96.51-10.96v-27.6h87.7v27.6h-87.7Zm36.77-17.26v-3.41h-24.13v3.41h24.13Zm0,6.72h-24.13v3.62h24.13v-3.62Zm12.3-6.72h26.1v-3.41h-26.1v3.41Zm0,6.72v3.62h26.1v-3.62h-26.1Zm25.64-61.92h-24.94v3.1h24.94v-3.1Zm0,10.54h-24.94v3.31h24.94v-3.31Z" fill="#00262b"/>
      <path d="m604.59,52.5v35.26h-17.63V2.74h55.68v15.66h-38.05v18.56h32.71v15.54h-32.71Z" fill="#00262b"/>
      <path d="m657.37,2.74h17.17v52.2c0,6.34,1.24,11.04,3.71,14.09,2.47,3.06,6.5,4.58,12.06,4.58s9.61-1.53,12.12-4.58c2.51-3.05,3.77-7.75,3.77-14.09V2.74h17.17v50.23c0,8.51-1.08,15.41-3.25,20.71-2.17,5.3-5.67,9.22-10.5,11.77-4.83,2.55-11.27,3.83-19.31,3.83s-14.46-1.28-19.26-3.83c-4.8-2.55-8.28-6.48-10.44-11.77-2.17-5.3-3.25-12.2-3.25-20.71V2.74Z" fill="#00262b"/>
      <path d="m758.75,87.77h-16.59V2.74h19.26l24.24,41.64,8.12,17.28h.46V2.74h16.59v85.03h-19.26l-24.24-41.64-8.24-17.28h-.35v58.93Z" fill="#00262b"/>
      <path d="m830.09,87.77V2.74h31.55c11.44,0,20.49,3.64,27.14,10.9,6.65,7.27,9.98,17.83,9.98,31.67s-3.33,24.28-9.98,31.55c-6.65,7.27-15.7,10.9-27.14,10.9h-31.55Zm31.55-15.66c5.88,0,10.44-1.68,13.69-5.05,3.25-3.36,4.87-8.45,4.87-15.25v-13.11c0-6.8-1.62-11.89-4.87-15.25-3.25-3.36-7.81-5.05-13.69-5.05h-13.92v53.71h13.92Z" fill="#00262b"/>
      <path d="m961.05,55.98v31.78h-17.63V2.74h39.56c5.18,0,9.69,1.12,13.51,3.36,3.83,2.24,6.77,5.38,8.82,9.4,2.05,4.02,3.07,8.7,3.07,14.04,0,5.96-1.32,11.04-3.94,15.25-2.63,4.22-6.5,7.25-11.6,9.11l16.94,33.87h-19.6l-15.2-31.78h-13.92Zm19.84-14.85c2.86,0,5.12-.75,6.79-2.26,1.66-1.51,2.49-3.73,2.49-6.67v-5.34c0-2.86-.83-5.05-2.49-6.55-1.66-1.51-3.93-2.26-6.79-2.26h-19.84v23.08h19.84Z" fill="#00262b"/>
      <path d="m1035.76,87.77h-17.86l28.19-85.03h21.81l27.96,85.03h-18.33l-6.38-20.76h-29.12l-6.26,20.76Zm20.42-69.02l-9.98,33.29h20.65l-10.09-33.29h-.58Z" fill="#00262b"/>
      <path d="m1144.21,87.77h-39.67v-14.04h11.02V16.78h-11.02V2.74h39.67v14.04h-11.02v56.96h11.02v14.04Z" fill="#00262b"/>
      <path d="m1155.12,75.36l11.72-11.6c5.72,6.65,12.88,9.98,21.46,9.98,4.56,0,8.04-.97,10.44-2.9,2.4-1.93,3.6-4.6,3.6-8,0-2.71-.79-4.87-2.38-6.5-1.59-1.62-4.31-2.71-8.18-3.25l-8.24-1.16c-17.25-2.4-25.87-10.79-25.87-25.17,0-5.03,1.28-9.47,3.83-13.34,2.55-3.87,6.21-6.86,10.96-8.99,4.76-2.13,10.34-3.19,16.76-3.19,12.37,0,22.12,4.06,29.23,12.18l-11.72,11.6c-2.24-2.63-4.85-4.66-7.83-6.09-2.98-1.43-6.55-2.15-10.73-2.15s-7.46.77-9.63,2.32c-2.17,1.55-3.25,3.75-3.25,6.61s.83,5.12,2.49,6.55c1.66,1.43,4.43,2.46,8.29,3.07l8.24,1.39c8.74,1.55,15.2,4.33,19.37,8.35,4.18,4.02,6.26,9.59,6.26,16.7,0,5.41-1.3,10.19-3.89,14.33-2.59,4.14-6.36,7.37-11.31,9.69-4.95,2.32-10.83,3.48-17.63,3.48-12.99,0-23.66-4.64-32.02-13.92Z" fill="#00262b"/>
      <path d="m1271.81,87.77h-39.67v-14.04h11.02V16.78h-11.02V2.74h39.67v14.04h-11.02v56.96h11.02v14.04Z" fill="#00262b"/>
      <path d="m1304.29,87.77h-16.59V2.74h19.26l24.24,41.64,8.12,17.28h.46V2.74h16.59v85.03h-19.26l-24.24-41.64-8.24-17.28h-.35v58.93Z" fill="#00262b"/>
      <path d="m1389.21,84.23c-5.26-3.36-9.4-8.33-12.41-14.91-3.02-6.57-4.52-14.46-4.52-23.66s1.58-17.38,4.76-24.07c3.17-6.69,7.62-11.75,13.34-15.2,5.72-3.44,12.41-5.16,20.07-5.16s14.11,1.68,19.6,5.05c5.49,3.36,9.82,8.26,12.99,14.67l-14.38,8.12c-1.55-3.71-3.81-6.67-6.79-8.87-2.98-2.2-6.79-3.31-11.43-3.31-6.03,0-10.79,1.84-14.27,5.51-3.48,3.67-5.22,9.03-5.22,16.07v13.57c0,7.04,1.74,12.39,5.22,16.07,3.48,3.67,8.27,5.51,14.38,5.51,4.95,0,9.05-1.16,12.3-3.48,3.25-2.32,4.87-5.61,4.87-9.86v-4.76h-16.01v-14.73h32.83v46.98h-14.96v-13.46h-.58c-.7,4.41-2.98,8-6.84,10.79-3.87,2.78-8.89,4.18-15.08,4.18-6.65,0-12.61-1.68-17.86-5.05Z" fill="#00262b"/>
      <path d="m1508.92,87.77h-17.63V2.74h39.67c5.18,0,9.7,1.12,13.57,3.36,3.87,2.24,6.82,5.39,8.87,9.45,2.05,4.06,3.07,8.72,3.07,13.98s-1.03,10.02-3.07,14.04c-2.05,4.02-5.01,7.15-8.87,9.4-3.87,2.24-8.39,3.36-13.57,3.36h-22.04v31.44Zm0-69.72v22.97h20.07c2.86,0,5.12-.75,6.79-2.26,1.66-1.51,2.49-3.69,2.49-6.55v-5.34c0-2.86-.83-5.05-2.49-6.55-1.66-1.51-3.93-2.26-6.79-2.26h-20.07Z" fill="#00262b"/>
      <path d="m1620.97,72.11v15.66h-50.11V2.74h17.63v69.37h32.48Z" fill="#00262b"/>
      <path d="m1647.65,87.77h-17.86l28.19-85.03h21.81l27.96,85.03h-18.33l-6.38-20.76h-29.12l-6.26,20.76Zm20.42-69.02l-9.98,33.29h20.65l-10.09-33.29h-.58Z" fill="#00262b"/>
      <path d="m1736.39,87.77h-16.59V2.74h19.26l24.24,41.64,8.12,17.28h.46V2.74h16.59v85.03h-19.26l-24.24-41.64-8.24-17.28h-.35v58.93Z" fill="#00262b"/>
    </g>
  </g>
</svg>