<?xml version="1.0" encoding="UTF-8"?>
<svg id="_圖層_2" data-name="圖層 2" xmlns="http://www.w3.org/2000/svg" width="340.74" height="361.57" viewBox="0 0 340.74 361.57">
  <g id="icon">
    <g>
      <path d="m303.64,241.55c-1.67-1.96-3.41-3.87-4.85-6.01-4.05-6.02-4.69-12.47-2.44-19.29.07-.22.04-.59.49-.62.52,2.16,1.6,4.02,3.11,5.64,1.16,1.25,2.46,2.36,3.8,3.42.18.15.38.29.59.39,1.54.76,3.16-.28,3.14-1.99,0-.74-.35-1.27-.91-1.72-1.21-.96-2.4-1.95-3.44-3.1-.72-.8-1.33-1.67-1.74-2.67-.39-.94-.49-1.91-.37-2.91.06-.47.31-.64.73-.42.49.25.99.51,1.45.82,1.09.73,2.06,1.61,3.01,2.51,7.98,7.48,15.97,14.96,23.96,22.43.26.24.52.5.81.69.92.59,2.06.41,2.8-.41.74-.82.76-1.95.03-2.81-.18-.21-.39-.39-.59-.58-7-6.56-14-13.12-21.01-19.67-1.82-1.7-3.63-3.44-5.56-5.02-1.3-1.06-2.7-1.94-4.34-2.4-2.59-.73-4.86-.15-6.83,1.64-1.13,1.03-1.93,2.31-2.57,3.68-1.21,2.62-1.88,5.39-2.1,8.25-.48,6.19,1.07,11.86,4.59,16.98.17.24.46.44.39.86-.55-.09-1.09-.16-1.63-.28-.58-.13-1.15-.29-1.71-.5-3.31-1.22-4.93-3.5-5.03-7.02-.05-1.84.21-3.64.59-5.42,2.09-9.7,5.41-18.95,10.21-27.65.17-.31.37-.62.5-.94.43-1.07.02-2.21-.98-2.75-1.04-.56-2.13-.3-2.82.68-.14.19-.24.41-.35.62-5.11,9.22-8.67,19.01-10.85,29.31-.51,2.41-.78,4.85-.6,7.32.08,1.1.44,2.15.65,3.28-3.14.85-6.24,1.39-9.44,1.1-3.55-.32-5.83-2.17-6.91-5.58-.61-1.92-.74-3.89-.59-5.88.35-4.83,1.15-9.59,2.21-14.31.78-3.44,1.74-6.83,2.82-10.18.42-1.31-.1-2.4-1.27-2.79-1.22-.42-2.37.16-2.86,1.43-.11.29-.2.6-.29.9-2.51,7.75-4.16,15.69-4.89,23.8-.22,2.45-.16,4.91.43,7.33.65,2.68,1.89,5.03,4.09,6.97-2.92,2.35-6.11,3.76-9.64,4.42-.58.11-1.19.08-1.78.06-1.28-.03-2.26-.65-3.03-1.63-.52-.66-.85-1.43-1.09-2.23-.4-1.38-.52-2.8-.53-4.23-.04-6.38-.09-12.76-.13-19.14,0-1.35,0-2.7-.03-4.04-.03-1.33-.89-2.21-2.12-2.24-1.26-.03-2.15.9-2.19,2.29,0,.2,0,.4,0,.59,0,6.38.02,12.76.02,19.15,0,1.86.04,3.73.22,5.58.33,3.46,1.37,6.6,4.33,8.77.4.29.42.58.28,1.01-.35,1.07-.87,2.03-1.65,2.86-.47.5-1.03.86-1.56,1.28-.94.74-1.09,2.01-.41,2.98.65.93,1.8,1.17,2.85.6.21-.11.4-.26.59-.39,2.12-1.49,3.55-3.5,4.29-5.97.2-.67.5-.89,1.14-.91.67-.02,1.35-.09,2.01-.22,4.45-.86,8.41-2.77,11.83-5.75.53-.47,1-.61,1.7-.44,1.12.27,2.27.35,3.42.37,3.36.05,6.63-.56,9.83-1.49.6-.17,1-.14,1.49.29,1.49,1.29,3.23,2.13,5.13,2.66,2.31.65,4.67.87,7.05.92.49.01.9.07,1.25.5,1.08,1.32,2.18,2.62,3.12,4.05,1.32,2.02,2.22,4.2,2.44,6.62.32,3.53-.99,6.01-4.04,7.31-.84.36-1.69.69-2.54,1-9.95,3.64-16.26,10.69-19.36,20.71-.81,2.63-1.17,5.34-1.11,8.09.03,1.38.93,2.21,2.28,2.16,1.21-.04,2.03-.86,2.04-2.16.01-1.63.12-3.26.48-4.84,2.15-9.38,7.51-16.09,16.57-19.66,1.25-.49,2.54-.9,3.75-1.49,4.12-2,6.1-5.38,6.29-9.87.11-2.71-.6-5.25-1.76-7.68-1.25-2.6-2.99-4.85-4.85-7.02Z" fill="none"/>
      <path d="m79.99,361.14c-.15-2.25-.31-4.5-.45-6.75-.23-3.71-.48-7.42-.74-11.13-.22-3.04-.31-6.09-.56-9.12-.11-1.3-.13-2.61-.24-3.91-.19-2.17-.37-4.33-.45-6.51-.02-.63.2-1.03.67-1.41,2.28-1.86,4.35-3.94,6.21-6.21,5.71-7.01,8.78-15.05,9.3-24.06.19-3.28.09-6.57-.22-9.85-.03-.28-.09-.55-.22-.79-.12-.11-.26-.17-.43-.19-2.16-.17-4.21-.8-6.16-1.7-3.03-1.39-5.26-3.54-5.88-6.97-.16-.88-.63-1.15-1.46-1.21-2.57-.19-5.16-.29-7.65-1.01-3.49-1.01-6.14-2.82-6.2-6.93-.01-.74-.43-1.05-1.17-.98-2.65.27-5.31.19-7.96.1-4.65-.16-8.48-1.71-10.03-6.63-.19-.6-.59-.91-1.22-.94-.83-.04-1.67-.03-2.5-.02-1.63.02-1.93.42-1.64,2.04.58,3.31,2.45,5.69,5.23,7.45,1.71,1.08,3.5,2.02,5.32,2.9,8.18,3.99,14.04,10.19,17.58,18.57,2.34,5.52,3.02,11.3,2.64,17.23-.04.59-.14,1.18-.3,1.76-.23.85-.77,1.38-1.7,1.37-.84,0-1.56-.64-1.76-1.51-.08-.35-.08-.71-.04-1.07.69-5.84-.11-11.45-2.46-16.85-1.71-3.95-4.13-7.41-7.17-10.41-2.68-2.65-5.88-4.55-9.26-6.17-2.08-.99-4.1-2.08-5.97-3.44-3.44-2.5-5.31-5.89-5.88-10.07-.69-5.12.21-10.03,1.95-14.82.98-2.71,2.43-5.17,4.42-7.27,2.28-2.4,3.66-5.25,4.38-8.44,1.1-4.88.99-9.84.87-14.79-.03-1.37-.25-2.76-.63-4.11-.2-.73-.42-1.46-.84-2.09-.34-.51-.77-.64-.99.1-.66,2.24-1.86,4.19-3.08,6.15-1.34,2.15-2.67,4.32-4.18,6.36-.78,1.06-1.93,1.27-2.81.65-.88-.61-.95-1.7-.16-2.84.75-1.08,1.48-2.16,2.19-3.26,1.38-2.17,2.81-4.32,3.9-6.66.71-1.52.43-2.6-.76-3.47-1.09-.81-2.29-.74-3.49.18-1.53,1.18-2.66,2.72-3.71,4.3-3.85,5.82-7.61,11.7-11.44,17.53-3.57,5.43-7.12,10.88-10.67,16.33-.19.3-.38.6-.61.88-.73.85-1.71,1.03-2.53.47-.82-.56-1-1.38-.52-2.42.13-.29.31-.55.48-.82,4.26-6.5,8.5-13.01,12.76-19.51,2.87-4.38,5.74-8.75,8.58-13.15,1.32-2.04,2.73-3.98,4.47-5.69,4.49-4.42,10.76-3.99,14.58,1.03,1.71,2.25,2.63,4.82,2.87,7.58.51,5.85.58,11.71-.54,17.52-.73,3.77-2.22,7.25-4.84,10.06-3.44,3.71-5.15,8.11-5.89,13-.19,1.25.18,1.69,1.45,1.74,4.85.19,9.56-.51,14.12-2.2,3.81-1.41,6.06-3.95,6.46-8.13.35-3.67.41-7.35.61-11.02.18-3.28-.09-6.57-.2-9.86-.09-2.73-.38-5.45-.61-8.17-.25-3-.78-5.97-1.11-8.96-.14-1.31.48-2.15,1.55-2.27,1.09-.13,1.87.52,2.07,1.81,1.1,6.97,1.8,13.99,1.93,21.04.08,4,.1,8-.18,12-.16,2.33-.26,4.66-.58,6.98-.65,4.71-3.32,7.84-7.64,9.67-2.42,1.03-4.95,1.68-7.51,2.23-1.16.25-1.4.9-.76,1.89.44.68,1.05,1.18,1.76,1.56,1.52.8,3.17,1.07,4.84,1.04,4-.08,8-.17,11.99-.5,3.13-.26,6.21-.83,9.14-2.02,3.56-1.45,5.8-4.06,6.75-7.76.64-2.5.94-5.06,1.2-7.63.26-2.6.42-5.21.56-7.82.21-3.76.2-7.52,0-11.28-.11-2.05-.41-4.1-.32-6.16.04-.87.47-1.42,1.33-1.57.87-.15,1.56.15,2,.94.16.28.23.59.26.91.22,2.52.49,5.04.5,7.58.03,5.39.1,10.78-.48,16.14-.38,3.55-.7,7.1-1.68,10.55-1.04,3.68-3.2,6.51-6.54,8.41-2.37,1.35-4.9,2.23-7.57,2.72-1.17.22-2.35.34-3.53.54-1.47.24-2,1.43-1.28,2.74.33.61.84,1.04,1.44,1.39.8.47,1.66.74,2.57.91,4.16.77,8.35.85,12.56.69,3.82-.14,6.27-1.95,7.55-5.7,1.83-5.38,3.47-10.79,4.44-16.39.28-1.6.4-3.23.76-4.81.28-1.21,1.18-1.82,2.24-1.62,1.01.2,1.5,1.03,1.34,2.29-.6,4.81-1.53,9.55-2.83,14.21-.88,3.13-1.93,6.21-3.15,9.22-1.28,3.17-3.58,5.17-6.91,5.97-1.24.3-2.48.48-3.76.52-1.22.04-1.45.48-.96,1.6.46,1.05,1.21,1.84,2.16,2.47,1.24.83,2.61,1.39,4.05,1.67,1.83.35,3.22,1.02,3.44,3.09,2.06-.5,3.91-1.49,5.71-2.56,3.07-1.84,5.45-4.32,6.93-7.61.82-1.82,1.18-3.76,1.58-5.7.75-3.73,1.28-7.48,1.31-11.29.01-1.78,0-3.56-.26-5.33-.37-2.44-.98-4.79-2.31-6.92-1.38-2.22-3.13-4.07-5.19-5.66-.42-.33-.59-.67-.61-1.19-.09-2.33-.29-4.65-.68-6.95-.69-4-2.55-7.39-5.41-10.22-1.75-1.73-3.71-3.21-5.81-4.5-.65-.4-1.06-.86-1.2-1.65-.13-.73-.42-1.44-.68-2.15-1.84-5.07-5.4-8.24-10.6-9.64-4.17-1.12-8.38-1.01-12.61-.61-.47.04-.96.15-1.36.37-.61.34-1.09.21-1.66-.09-2.09-1.12-4.24-2.15-6.46-3-5.37-2.06-10.85-3.32-16.67-2.86-3.36.27-6.55,1.05-9.59,2.45-2.53,1.17-4.83,2.73-6.76,4.76-2.33,2.44-3.96,5.34-5.3,8.4-2.6,5.9-5.13,11.84-7.51,17.83-2.03,5.11-4.17,10.18-5.95,15.38-1.39,4.05-2.53,8.15-2.89,12.44-.06.68-.01,1.43-.41,2.06v5.23c.35.64.38,1.37.42,2.06.2,3.01.74,5.96,1.33,8.9,1.19,5.96,2.51,11.91,3.79,17.85,2.02,9.34,4.06,18.68,6.06,28.03.25,1.19.66,2.36.56,3.62-.2,2.56-.35,5.13-.55,7.69-.2,2.56-.45,5.12-.68,7.68-.17,1.93-.34,3.86-.53,5.79-.21,2.12-.43,4.25-.64,6.37-.19,1.97-.34,3.94-.54,5.91-.22,2.16-.45,4.32-.67,6.48h71.47c0-.14-.02-.29-.03-.43Z" fill="#fac959"/>
      <path d="m261.44,65.35c1.15.46,2.37-.01,2.9-1.13.12-.25.19-.52.28-.78,6.5-18.52,12.99-37.04,19.49-55.56.58-1.64,1.17-3.28,1.72-4.93.44-1.32,0-2.2-1.31-2.74-.14-.06-.28-.14-.42-.21h-.71c-1.07.42-1.58,1.25-1.96,2.32-5.98,17.11-11.99,34.21-17.99,51.31-1.06,3.02-2.13,6.05-3.16,9.08-.4,1.18.09,2.22,1.14,2.64Z" fill="#fac959"/>
      <path d="m218.7,360.04c-.36-5.38-.69-10.76-1.04-16.13-.45-6.8-.91-13.6-1.37-20.4-.37-5.5-.75-10.99-1.11-16.49-.3-4.51-.56-9.02-.85-13.53-.38-5.89-.77-11.78-1.15-17.67-.25-3.91-.5-7.83-.75-11.74-.37-5.61-.75-11.23-1.11-16.84-.43-6.6-.84-13.21-1.25-19.81-.82.26-.98,1.07-1.34,1.68-.46.78-.77,1.65-1.38,2.34-.63.72-1.42.82-2.26.43-.78-.36-1.25-1.3-.92-2.08.75-1.74,1.62-3.42,2.72-4.97.48-.67,1.24-.81,2.03-.58.73.22,1.05.78,1.13,1.51.04.34,0,.73.35.96.09-.13.19-.24.26-.38,3.74-7.52,7.13-15.19,10.21-23,2.87-7.3,5.2-14.78,7.79-22.18,2.38-6.8,4.68-13.63,6.09-20.72,1.1-5.54,1.7-11.12.85-16.76-.95-6.32-3.69-11.66-8.59-15.82-.81-.69-1.88-1.18-2.47-2.01-.62-.86-.82-2.03-1.21-3.07-.01-.03-.05-.06-.08-.08-.34.21-.35.6-.52.91-.67,1.26-1.84,1.5-2.95.58-.28-.23-.52-.49-.77-.74-5.02-4.9-9.72-10.12-14.76-15-.23-.22-.43-.47-.64-.71-2.49-2.78-5.11-5.43-7.99-7.79-1.45-1.19-3.01-2.2-4.81-2.8-1.4-.47-2.56.2-2.81,1.66-.22,1.29-.04,2.5.77,3.61,1.13,1.56,2.73,2.51,4.26,3.56,1.02.7,1.38,1.82.85,2.76-.49.87-1.58,1.05-2.74.45-.88-.46-1.68-1.07-2.44-1.69-2.17-1.78-4.17-3.7-4.52-6.72-.03-.23-.11-.46-.2-.68-.24-.55-.54-.51-.85-.08-.35.49-.57,1.04-.71,1.63-.95,4-.55,7.88,1.19,11.59,1.42,3.03,3.41,5.72,5.37,8.4,3.19,4.35,6.73,8.42,10.41,12.36,1.48,1.59,2.32,3.45,2.59,5.62.33,2.69-.19,5.29-.79,7.87-1.05,4.48-2.96,8.5-6.41,11.71-1.67,1.55-3.53,2.81-5.39,4.1-4.5,3.12-8.87,6.4-12.45,10.61-1.96,2.31-3.63,4.8-4.93,7.53-2.8,5.86-2.84,12.03-2.03,18.28.42,3.22,1.15,6.4,1.88,9.57.29,1.27-.31,2.25-1.39,2.51-1.13.26-1.92-.31-2.24-1.7-1.4-6.11-2.58-12.24-2.32-18.58.13-3.29.7-6.46,1.83-9.52,2.42-6.6,6.92-11.66,12.13-16.17,2.92-2.52,6.04-4.76,9.3-6.82,5.97-3.77,8.26-9.58,9.1-16.2.16-1.28-.26-1.56-1.54-1.18-.91.27-1.8.62-2.68.98-3.66,1.52-7.39,2.67-11.43,2.12-.53-.07-.89.23-1.27.54-5.47,4.45-11.78,6.2-18.75,5.66-.99-.08-1.7.14-2.28.89-1.38,1.75-3.01,3.26-4.62,4.79-2.78,2.66-6.02,4.5-9.84,5.2-1.78.33-1.77.33-2.19,2.17-.56,2.48-1.84,4.56-3.76,6.2-2.61,2.24-5.78,3.42-9.01,4.44-1.07.34-1.83-.04-2.16-.9-.38-.99-.07-1.93.83-2.46.55-.32,1.17-.49,1.77-.7,2.18-.76,4.3-1.67,6.08-3.19,1.32-1.13,2.28-2.51,2.59-4.28.15-.86-.05-1.42-.97-1.73-2.88-.96-4.9-2.98-6.48-5.5-.91-1.45-1.54-3.04-2.27-4.58-3.29-6.91-5.58-14.15-7.21-21.61-.29-1.36-.57-2.72-.78-4.09-.05-.31-.11-.63-.1-.94.03-1.04.64-1.79,1.58-1.94.91-.15,1.73.41,1.99,1.47.5,2.04.79,4.13,1.25,6.18,1.79,7.89,4.56,15.42,8.2,22.64.69,1.37,1.46,2.74,2.78,3.66,2.84,1.99,5.93,2.12,9.08,1.02,3.95-1.38,6.76-4.34,9.54-7.29.65-.69.28-1.22-.36-1.65-1.25-.83-2.15-1.96-2.98-3.19-1.24-1.83-2-3.88-2.64-5.96-1.39-4.51-2.76-9.02-3.99-13.58-1.23-4.55-2.67-9.06-3.38-13.73-.33-2.19-.45-4.43.39-6.57.43-1.09,1.37-1.57,2.36-1.31.98.26,1.48,1.01,1.13,2.26-.77,2.85-.22,5.58.44,8.33,1.51,6.2,3.2,12.36,5.07,18.46.81,2.65,1.48,5.35,2.55,7.92,1.43,3.45,3.91,5.53,7.66,5.92,1.86.19,3.72.09,5.57-.19,3.07-.46,5.89-1.58,8.51-3.2,1.14-.7,1.24-1.22.42-2.06-1.52-1.57-2.54-3.44-3.29-5.46-2.13-5.74-3.47-11.69-4.58-17.7-.8-4.37-1.33-8.77-1.6-13.2-.18-2.92-.29-5.87.43-8.76.57-2.32,1.53-4.42,3.35-6.04.94-.84,2.09-.81,2.87.01.73.76.68,1.7-.25,2.61-1.56,1.52-2.21,3.41-2.58,5.49-.53,2.94-.13,5.86.09,8.77.43,5.65,1.26,11.26,2.59,16.78,1.02,4.24,2.03,8.49,3.95,12.44,1.76,3.61,4.64,4.97,8.62,4.21,2.79-.53,5.36-1.71,8.01-2.63,2.37-.82,2.48-1.11.73-2.91-3.95-4.08-7.47-8.52-10.89-13.04-4.16-5.51-7.11-11.43-6.54-18.62.17-2.1.58-4.08,1.6-5.91,1.9-3.4,5.82-5.33,9.63-4.8,3.42.48,6.28,2.13,8.87,4.3,2.8,2.35,5.21,5.09,7.78,7.68,5.16,5.21,10.15,10.59,15.41,15.7.33.32.62.75,1.19.67.04-.38-.16-.69-.28-1.02-1.66-4.5-3.46-8.93-5.34-13.34-2.38-5.58-5.2-10.94-7.62-16.5-.41-.94-.91-1.85-1.43-2.74-1.29-2.2-2.76-4.25-4.77-5.87-1.69-1.36-3.6-1.77-5.69-1.4-.93.17-1.86.4-2.76.69-5.16,1.65-10.33,3.3-15.47,5-1.95.64-3.92,1.3-5.59,2.56-.42.31-.73.12-1.09-.01-1.67-.6-3.37-.81-5.14-.56-1.59.22-3.08.72-4.53,1.36-3.66,1.61-7.3,3.25-10.94,4.9-1.34.6-2.61,1.34-3.76,2.26-1.99,1.6-3.3,3.61-3.7,6.17-.04.26-.02.56-.32.71-3.63-1.45-5.63-1.31-8.64.37-2.77,1.55-5.38,3.35-7.83,5.37-3.4,2.81-4.61,6.43-3.96,10.71.1.64-.06.92-.61,1.19-1.82.88-3.54,1.94-5.13,3.2-5.78,4.55-8.05,10.53-7.15,17.74.74,5.9,1.96,11.71,3.52,17.45.71,2.6,1.35,5.21,2.54,7.65,1.73,3.56,4.44,5.69,8.48,5.98,1.03.07,1.05.11,1.04,1.1-.08,11.34.35,22.67,1.03,33.98.22,3.6.57,7.19,1.4,10.71,1.43,6.05,4.33,11.22,9.19,15.16,1.67,1.36,2.38,2.96,2.21,5.07-.3,3.55-.51,7.11-.77,10.67-.45,5.93-.91,11.85-1.37,17.77-.25,3.12-.5,6.24-.77,9.36-.36,4.26-.74,8.52-1.12,12.79-.26,2.92-.51,5.84-.78,8.76-.45,4.85-.92,9.7-1.37,14.55-.35,3.87-.68,7.73-1.02,11.6-.44,5.09-.89,10.18-1.33,15.27-.35,3.99-.67,7.97-1.04,11.96-.3,3.19-.6,6.38-.92,9.57h88.92c-.03-.51-.07-1.02-.1-1.53Z" fill="#fac959"/>
      <path d="m71.63,10.55c8.2,18.97,15.6,38.24,22.14,57.84.24.71.45,1.44.74,2.13.43,1,1.52,1.51,2.55,1.24.99-.26,1.67-1.11,1.65-2.18-.03-.37-.22-.81-.37-1.26-5.07-15.29-10.67-30.38-16.76-45.29-2.05-5.02-4.19-10-6.32-14.98-.53-1.25-1.58-1.67-2.69-1.2-1.15.48-1.69,1.63-1.31,2.82.1.3.24.59.36.88Z" fill="#fac959"/>
      <path d="m42.58,52.34c8.54,10.1,17.09,20.21,25.63,30.31,1.97,2.33,3.93,4.67,5.92,6.98.7.82,1.61,1.07,2.44.7.87-.38,1.32-1.1,1.4-1.91.03-.95-.45-1.53-.94-2.11-8.68-10.25-17.35-20.51-26.02-30.76-1.87-2.21-3.73-4.42-5.6-6.62-.91-1.06-2.07-1.23-3.03-.49-1.03.79-1.16,2.16-.32,3.27.17.22.35.43.53.64Z" fill="#fac959"/>
      <path d="m289.94,78.47c.92.21,1.74-.13,2.23-.97.8-1.37,1.53-2.77,2.29-4.16,4.29-7.86,8.57-15.71,12.86-23.57.28-.52.64-1.01.59-1.62,0-.98-.56-1.78-1.48-2.11-.9-.33-1.83-.05-2.42.75-.19.25-.32.55-.47.82-3.95,7.23-7.89,14.46-11.84,21.68-1.04,1.91-2.07,3.83-3.13,5.74-.32.58-.53,1.16-.35,1.81.24.87.83,1.43,1.72,1.63Z" fill="#fac959"/>
      <path d="m327.34,361.47c-.14-3.24-.26-6.49-.35-9.73-.07-2.45-.04-4.91-.22-7.36-.35-4.86-.42-9.72-.62-14.59-.2-4.74-.4-9.49-.59-14.23-.08-1.97-.13-3.95-.35-5.92-.19-1.76-.11-3.5.63-5.23,4.14-9.74,7.92-19.62,10.91-29.78,1.57-5.33,2.94-10.7,3.69-16.21.24-1.76.04-3.55.3-5.31v-5.71c-.3-.29-.19-.67-.22-1.01-.33-3.53-1.32-6.69-4.71-8.53-.4-.22-.5-.48-.43-.96.51-3.74.61-7.49.14-11.25-.59-4.7-2.28-8.96-5.18-12.72-4.55-5.91-9.43-11.53-14.81-16.71-1.8-1.73-3.68-3.38-6.01-4.4-2.07-.91-4.2-1.08-6.38-.56-1.62.39-3.01,1.22-4.16,2.4-.43.45-.72.43-1.17.03-.77-.68-1.58-1.32-2.42-1.92-3.31-2.37-6.81-4.35-10.95-4.87-4.11-.52-7.57.74-10.31,3.87-1.37,1.57-2.34,3.39-3.12,5.3-.23.57-.57.81-1.17.66-.19-.05-.38-.09-.58-.13-3.57-.75-7.16-1.34-10.83-1.07-1.94.14-3.72.7-5.25,1.96-1.55,1.27-2.53,2.93-3.3,4.73-.81,1.9-1.36,3.88-1.72,5.91-.21,1.14-.22,1.09-1.33,1.22-2.2.26-4.39.58-6.48,1.38-2.17.83-4.01,2.08-5.24,4.09-.91,1.5-1.54,3.12-1.92,4.84-.68,3.03-.94,6.1-.94,9.19,0,3.45-.02,6.89.18,10.34.09,1.47.23,2.92.55,4.35.86,3.88,2.78,7.03,6.28,9.11,2.48,1.48,5.17,2.37,7.95,3.06.82.2.82.19.78,1.06-.23,4.15-.54,8.29-.69,12.45-.15,4.24.08,8.47.35,12.7.21,3.32.51,6.62,1.01,9.91.66,4.3,2.4,8.09,5.4,11.28,2.06,2.19,4.5,3.87,7.15,5.26.57.3.75.6.65,1.29-.34,2.43-.56,4.87-.84,7.3-.26,2.28-.51,4.56-.78,6.83-.36,2.94-.74,5.88-1.1,8.82-.28,2.28-.52,4.56-.79,6.83-.37,3.06-.76,6.12-1.13,9.18-.26,2.12-.51,4.24-.77,6.36-.27,2.2-.55,4.39-.82,6.59h71.73s0-.07,0-.1Zm-17.09-105.21c-.19,4.49-2.17,7.87-6.29,9.87-1.21.59-2.5.99-3.75,1.49-9.06,3.57-14.41,10.28-16.57,19.66-.36,1.58-.47,3.21-.48,4.84-.01,1.3-.83,2.11-2.04,2.16-1.35.05-2.24-.78-2.28-2.16-.07-2.76.3-5.47,1.11-8.09,3.1-10.03,9.41-17.08,19.36-20.71.86-.31,1.71-.64,2.54-1,3.05-1.31,4.36-3.79,4.04-7.31-.22-2.42-1.12-4.6-2.44-6.62-.93-1.43-2.03-2.73-3.12-4.05-.35-.43-.76-.49-1.25-.5-2.38-.06-4.75-.27-7.05-.92-1.89-.53-3.64-1.37-5.13-2.66-.49-.43-.89-.46-1.49-.29-3.21.93-6.47,1.54-9.83,1.49-1.15-.02-2.3-.1-3.42-.37-.7-.17-1.17-.02-1.7.44-3.42,2.98-7.38,4.89-11.83,5.75-.66.13-1.34.2-2.01.22-.64.02-.94.25-1.14.91-.74,2.47-2.17,4.47-4.29,5.97-.19.14-.39.28-.59.39-1.05.57-2.2.33-2.85-.6-.68-.97-.53-2.24.41-2.98.53-.42,1.09-.78,1.56-1.28.77-.83,1.3-1.78,1.65-2.86.14-.43.12-.72-.28-1.01-2.96-2.17-4-5.31-4.33-8.77-.18-1.85-.22-3.72-.22-5.58,0-6.38-.01-12.76-.02-19.15,0-.2,0-.4,0-.59.04-1.39.93-2.32,2.19-2.29,1.23.02,2.09.91,2.12,2.24.03,1.35.02,2.7.03,4.04.05,6.38.09,12.76.13,19.14,0,1.43.13,2.85.53,4.23.23.8.56,1.57,1.09,2.23.77.98,1.76,1.6,3.03,1.63.59.02,1.2.05,1.78-.06,3.53-.66,6.72-2.06,9.64-4.42-2.21-1.94-3.44-4.3-4.09-6.97-.59-2.41-.65-4.87-.43-7.33.72-8.12,2.38-16.05,4.89-23.8.1-.3.18-.61.29-.9.49-1.27,1.64-1.84,2.86-1.43,1.17.4,1.69,1.48,1.27,2.79-1.08,3.36-2.04,6.74-2.82,10.18-1.07,4.72-1.86,9.48-2.21,14.31-.15,1.99-.02,3.96.59,5.88,1.08,3.41,3.37,5.26,6.91,5.58,3.2.29,6.31-.25,9.44-1.1-.21-1.13-.57-2.18-.65-3.28-.18-2.48.09-4.92.6-7.32,2.18-10.3,5.74-20.09,10.85-29.31.12-.21.22-.42.35-.62.69-.99,1.79-1.25,2.82-.68,1,.54,1.41,1.68.98,2.75-.13.33-.33.63-.5.94-4.8,8.7-8.12,17.95-10.21,27.65-.38,1.78-.64,3.59-.59,5.42.09,3.52,1.71,5.8,5.03,7.02.56.2,1.13.36,1.71.5.53.12,1.08.19,1.63.28.08-.42-.22-.61-.39-.86-3.51-5.13-5.06-10.79-4.59-16.98.22-2.86.89-5.63,2.1-8.25.64-1.38,1.43-2.65,2.57-3.68,1.97-1.79,4.24-2.37,6.83-1.64,1.64.46,3.04,1.34,4.34,2.4,1.94,1.58,3.74,3.31,5.56,5.02,7.01,6.55,14.01,13.11,21.01,19.67.2.19.42.37.59.58.73.86.71,1.99-.03,2.81-.74.82-1.89,1-2.8.41-.3-.19-.55-.45-.81-.69-7.99-7.48-15.98-14.95-23.96-22.43-.96-.9-1.92-1.78-3.01-2.51-.46-.31-.95-.57-1.45-.82-.42-.21-.67-.05-.73.42-.12,1-.02,1.97.37,2.91.41,1,1.02,1.87,1.74,2.67,1.04,1.15,2.23,2.14,3.44,3.1.56.44.9.97.91,1.72.02,1.71-1.61,2.75-3.14,1.99-.21-.1-.41-.24-.59-.39-1.34-1.06-2.64-2.16-3.8-3.42-1.5-1.62-2.58-3.48-3.11-5.64-.45.03-.41.4-.49.62-2.25,6.81-1.61,13.27,2.44,19.29,1.44,2.14,3.17,4.06,4.85,6.01,1.86,2.17,3.6,4.43,4.85,7.02,1.16,2.43,1.87,4.97,1.76,7.68Z" fill="#fac959"/>
    </g>
  </g>
</svg>