<?xml version="1.0" encoding="UTF-8"?>
<svg id="_圖層_2" data-name="圖層 2" xmlns="http://www.w3.org/2000/svg" width="125.78" height="155.13" viewBox="0 0 125.78 155.13">
  <g id="_文字_圖" data-name="文字/圖">
    <g>
      <path d="m125.02,62.92c.04.21.15.09.11-.48l-.18-.4.07.88Z" fill="#fd4248"/>
      <path d="m125.2,59.1c-.13-.66-.33-1.42-.45-.98.21.65.15.81.4,1.51.04.57-.03.99-.09.9.05.2-.01.88.1,1.18.09-.74.12-1.68-.07-2.65.02-.21.08-.01.11.04Z" fill="#fd4248"/>
      <path d="m99.24,11.88l.28.22c-.07-.07-.17-.14-.28-.22Z" fill="#fd4248"/>
      <path d="m67.09.32c.26.02.37,0,.39,0-.25,0-.45-.01-.39,0Z" fill="#fd4248"/>
      <path d="m61.17.03c.13,0,.23,0,.35,0-.13-.01-.27-.02-.35,0Z" fill="#fd4248"/>
      <path d="m99.24,11.88l-.72-.58c-.08,0,.36.31.72.58Z" fill="#fd4248"/>
      <path d="m123.87,51.56c.04.19.08.34.13.48-.03-.15-.07-.3-.1-.46-.01,0-.02-.01-.03-.02Z" fill="#fd4248"/>
      <path d="m110.58,22.05l.18.21c.07.05.14.09.2.13l-.39-.35Z" fill="#fd4248"/>
      <path d="m117.37,31.59c-.13-.23-.29-.24-.4-.3.12.1.25.26.37.45.03,0,.04-.06.03-.15Z" fill="#fd4248"/>
      <path d="m123.9,48.9l.09.32c-.02-.08-.06-.22-.09-.32Z" fill="#fd4248"/>
      <path d="m104.73,16.03s-.02-.07-.05-.11c-.01.01,0,.05.05.11Z" fill="#fd4248"/>
      <path d="m123.25,76.19s.02,0,.02,0c0-.07,0-.09-.02,0Z" fill="#fd4248"/>
      <path d="m125.39,62.92v.19s.05.04.08.04l-.08-.23Z" fill="#fd4248"/>
      <path d="m50.36,1.06s.03,0,.05,0c.28-.07.12-.03-.05,0Z" fill="#fd4248"/>
      <path d="m1.34,76.25c-.13-1.12.57,1.75.32.07-.02.17-.56-1.46-.32-.07Z" fill="#fd4248"/>
      <path d="m123.84,51.27c-.03-.15-.06-.31-.08-.47.03.21.06.36.08.47Z" fill="#fd4248"/>
      <path d="m1.67,76.32h0l-.03-.17c.01.07.02.11.03.17Z" fill="#fd4248"/>
      <path d="m27.45,10.82c.06,0,.15-.05.24-.1-.02,0-.07.01-.24.1Z" fill="#fd4248"/>
      <path d="m44.25,2.91l-.44.13c.18-.05.32-.09.44-.13Z" fill="#fd4248"/>
      <path d="m20.03,17.03c-.19.16-.26.21-.5.46.03-.02.05-.04.09-.06.08-.1.19-.22.41-.4Z" fill="#fd4248"/>
      <path d="m13.27,24.45s.09-.09.14-.13c.06-.08.13-.17.19-.25l-.33.38Z" fill="#fd4248"/>
      <path d="m110.1,102.88c.17-.14.29-.21.4-.26-.18.05.75-1.07-.4.26Z" fill="#fd4248"/>
      <path d="m123.95,51.54c-.05-.05-.08-.13-.11-.28.02.11.04.22.07.32.03.02.05.03.05-.04Z" fill="#fd4248"/>
      <path d="m20.5,18.11l-1.15,1.07c.32-.3.74-.69,1.15-1.07Z" fill="#fd4248"/>
      <path d="m45.83,122.36l.35.08c-.13-.04-.26-.07-.35-.08Z" fill="#fd4248"/>
      <path d="m16.2,22.61c-.22.18-.44.39-.65.61-.03.06-.08.12-.09.16l.74-.77Z" fill="#fd4248"/>
      <path d="m110.5,102.61h0s0,0,0,0Z" fill="#fd4248"/>
      <path d="m116.16,93.96c-.75,1.29-.19.7-.26,1.03-.92,1.54-.56.63-.97,1.09-.55.97-.88,1.78-1.39,2.44-.06.03-.16.16-.08-.02-.54,1.07-2.08,2.82-2.81,4-.08.07-.13.1-.15.11.22-.11.31-.08.33,0-.44.51-.73,1.02-.99,1.14.27-.31.26-.37.36-.54l-.42.57c-.55.37.59-.77.49-.85-.42.54-.88,1.13-1.31,1.69-.45.54-.9,1.04-1.28,1.4-.27.04,1.66-1.83.58-.91.4-.37.78-.76,1.14-1.16-1.02.76.66-.73-.3-.06-.72.79-1.12,1.23-1.52,1.67-.4.44-.77.91-1.58,1.62-.28.4.21,0-.07.39-1.04,1.12-1.55,1.44-2,1.69-.44.25-.8.44-1.57,1.26-.37.45-.42.75-1.74,1.65l.31-.49c-1.64,1.27-.77.94-2.61,2.11.27-.29,1.29-1,1.02-.83-1.23.69-.75.67-1.63,1.29h-.28c-1.83,1.21-3.84,2.61-6.01,3.74.1-.11.45-.34-.09-.13-1.34.77-2.85,1.43-4.35,2.07-1.53.57-3.05,1.13-4.48,1.53l-1.03.5c-.25.08-.49.07-.22-.03-1.13.26-.03.1-.55.31-.63.19-.86.16-.47,0-1.91.76-5.61,1.65-7.76,1.85l.41-.12c-1.66.2-1.84.55-3.4.62l.29-.06c-3.63.35-7.68.49-10.45.12-.54.18-3.59-.37-3.85-.15-2.05-.41-1.46-.35-4.32-.97-.77-.14-1.18-.05-2.13-.24v-.16s-1.31-.14-1.31-.14c-.21-.11-.42-.23-.63-.36l-.88-.21c.34.11.72.28.66.3-.69-.16-1.52-.42-2.17-.65-.65-.25-1.11-.49-1.12-.53-1.07-.31-2.15-.62-3.2-1.02.09-.03.62.16,1.05.28-1.72-.51-.24-.27-1.82-.74.19.11-.15.04-.19.06-.73-.38-2.42-1.15-3.67-1.71l.28.02c-2.2-1.14-4.67-2.37-6.98-3.93.81.58.52.61-.18.18l-.19-.31c-.5-.2.69.51-.3.03-.85-.61-.47-.56.05-.25l-1.07-.69c-.03-.08.22.07.32.06-.48-.23-1.7-1.38-2.37-1.72l-.03-.08c-1.1-.85-1.9-1.48-2.61-2.1-.73-.6-1.41-1.17-2.22-1.96-.13.07-.75-.56-1.32-.95-.56-.62-1.14-1.29-1.76-1.98-.61-.7-1.2-1.46-1.87-2.21-.96-1.04-.36-.24-.82-.68.03-.16-1.22-1.74-.5-.97-.77-.93-1.21-1.57-1.71-2.25-.26-.34-.52-.7-.84-1.12-.3-.44-.65-.94-1.08-1.57.13.31.32.64.18.5-.32-.46-.64-1.09-.54-1.06l.09.12c-2.01-2.82-3.48-7.11-4.7-9.54l.07.14c-.38-.86-.81-1.71-1.13-2.6-.4-1.24.34.71.11-.23-.29-.71-.54-1.35-.75-1.94-.18-.61-.34-1.17-.48-1.72-.32-1.09-.52-2.15-.87-3.36-.03-.49-.12-1.16-.23-1.93-.11-.77-.31-1.63-.42-2.53-.12-.9-.26-1.81-.36-2.67-.06-.86-.1-1.66-.09-2.32l-.08.16c-.14-.67-.02-.82,0-1.32-.07.07-.06.74-.12.32-.16-2.87-.11-5.85.24-8.82.37-2.96.87-5.92,1.64-8.76.52-2.08-.13-1.3.79-3.86l-.05.79c1.04-4.23,2.99-8.37,4.91-12.17-.09.24-.06.27-.25.64.53-.74,1.65-2.88,1.57-2.95.37-.55.16-.08.42-.4.55-.71,1.08-2,1.47-2.32.06-.05-.12.23-.2.37.29-.51,1.6-2.22,1.16-1.85.49-.64.95-1.25,1.38-1.82.44-.57.83-1.14,1.29-1.58.43-.73,1.83-2.03,1.88-2.35.09.24,2.04-1.92,2.74-2.67-.2.28.69-.56.46-.21.82-.81,1.61-1.51,1.37-1.47,1.76-1.21,3.16-2.9,4.33-3.34,2.67-2.15,5.38-3.84,8.09-5.33-.02.21-2.98,1.66-2.74,1.81.62-.39,1.17-.74,1.69-1.07.53-.31,1.03-.6,1.53-.89.99-.59,2.03-1.09,3.37-1.66.7-.28-.35.27-.57.41,1.3-.67,2.64-1.14,3.91-1.65,1.31-.42,2.55-.91,3.79-1.3,0,.02-.26.12-.51.21.49-.15,1.16-.29,1.07-.38l-.47.16c-.83.08,1.88-.86,1.95-.96-.78.48,2.53-.51,1.27.16.32-.09.73-.24.64-.29.49-.09.66-.09.18.1,1.78-.47,1.13-.4,2.77-.71,0,.05-.33.13-.48.22.81-.24,1.63-.51,3.04-.63-.08.04.09.06-.33.11,1.2-.16,2.21-.37,3.27-.48,1.05-.14,2.14-.26,3.48-.23-.78.24.91.05,1.05.23.47-.04.95-.05,1.43-.05l-.57-.1c1.25.05,2.36-.1,3.44.04-.31,0-.62,0-.93.03.78,0,1.56.08,2.34.12l-1.32-.17c1.27,0-.12-.25,1.54-.07-.34,0,1.26.08,1.89.3h0c.62.02,1.27.04,2.18.2.23.09-.22.18-.07.24.63-.05,2.9.45,3.69.46-.26-.02-.29.07-.21.11h.53c.56.16.64.2.53.26,1.7.42-.49-.36,1.51.21-.16-.03-.09,0-.43-.05,2.01.56,3.91.98,5.69,1.68.47.36-1.6-.49-1.04-.13,2.63.8,5.42,1.8,7.81,3l-.43-.24c.45-.06,1.72,1.01,2.96,1.54-.29-.15-.45-.08-.36-.07.78.47,1.6.92,2.53,1.42.9.54,1.93,1.11,3.09,1.86l-.32-.14c.84.69,2.31,1.64,3.19,2.41.31.16.83.58.57.25,2.55,2.53,5.33,4.33,7.26,6.91-.26-.27-.67-.62-.46-.4.65.62,1.23,1.32,1.85,1.98-.05-.24-.18-.31-.49-.8.28.21.82.76,1.26,1.27-.87-.87-.12.12.15.58-.03-.09.11.03.12-.03.72,1.24.33.04,1.42,1.65l-.11-.04c.48.54.91,1.06,1.36,1.71.08.34-.5-.59-.62-.57.64.89,1.48,1.61,1.89,2.54-.28-.37-.64-.94-.95-1.29.5.97.57,1.07.99,1.75l-.04-.07c.31.54.64,1.06.93,1.6-.06-.15-.14-.28-.21-.42.51.49.86,1.1,1.24,1.75.39.65.77,1.38,1.28,2.16-1.01-1.5-.25-.21-.44-.26.18.44.46,1.1.33.94.52.72.57,1.34,1.23,2.39-.02.07.38.85.19.72.5,1.02-.03-.28.06-.22.87,1.54,1.38,3.87,2.37,6.19.37,1.02.59,1.63.83,2.21.24.58.46,1.15.71,2.13.08.68-.3-.5-.3-.5.17,1.09.4,1.88.64,2.89-.08-.2-.08.02-.07.34.16.81.27.52.39,1.61-.09-.18-.21-.4-.34-.78.11.47.23.95.35,1.43.09.48.18.97.28,1.47-.05.28-.2-.59-.3-.94.18,1.12.46,2.91.59,3.25v-.73c.03.41-.1.22-.16-.08-.23-.96-.13-1.4-.09-1.46l.12.71c.1-.38,0-1.11-.16-1.91-.15-.8-.41-1.67-.53-2.39l.31.56-.43-1.44c-.01-.32.07-.56.23.14-.1-1.05-.27-.89-.35-1.79,0-.1.01-.06.04.03l-.29-.98c.09.19.1-.2.22.42-.28-1.83-.93-2.82-.94-3.53l.05.14c-.82-2.41-.21-.2-.97-1.95l-.06-1.34-.22-.19c-.09-.25-.27-.73-.18-.67-.46-.87,0,.18-.3-.31-.17-.61-.49-1.42-.79-2.11-.31-.68-.56-1.26-.51-1.44-.29-.37.42,1.14-.21-.06.04-.23-.13-.58-.36-1.01-.24-.42-.55-.92-.76-1.46.28.25.72,1.26.3.18-.51-.52-.98-2.03-1.53-2.85-.09.02-.37-.43-.74-1.06-.37-.62-.88-1.4-1.34-2.08.13.04-1.64-2.61-2.53-3.85l.05.02c-.34-.11-1.24-1.4-2.03-2.23.11-.04.29.09.72.53-.23-.28-.47-.55-.7-.82-.21-.15-.46-.39-.93-.9l.28.11c-.46-.55-.98-1.05-1.54-1.59-.56-.53-1.11-1.15-1.76-1.8-.16.02.81,1.26-.66-.02,0-.1.03-.23.41.1-.13-.11-.47-.37-.69-.62l.64.45c-.57-.62-.38-.23-.86-.7.08-.06-.31-.39-.19-.38.13.11.4.43.61.58-.53-.54-1.16-1.21-1.35-1.45.01.08-.09.1-.52-.25-1.09-.93-.29-.41-.89-1-.3-.19-.98-.8-1.09-.7-.33-.26-.35-.36-.45-.49-.32-.2-.99-.75-1.54-1.13-.56-.38-.96-.63-.66-.32l.15.12s-.07-.04-.1-.07h0s0,0,0,0c-1.03-.65-2.04-1.39-3.1-2.08-1.03-.73-2.11-1.37-3.17-1.95l.03-.04c-1.28-.65-2.85-1.47-3.82-1.81-.39-.17-.88-.5-.69-.47-1.02-.41-1.14-.45-2.59-1.1,1.06.33-.33-.21,1.08.36-1.32-.56-1.59-.77-3.07-1.19.54.05-.97-.5-1.63-.68l.92.41c-.73-.23-1.36-.45-2-.68l.4-.04c-2.76-1.06-5.18-1.09-7.31-1.83-.79-.02,1.55.36.84.37-1.32-.26-2.66-.75-3.08-.81-1.83-.31-1.74,0-3.66-.25.24.08.46.25-.98.2-1.34-.12-1.64-.37-.78-.36.32.02.48.05.46.07.44.01,1.01.03.48-.08l-.18.05c-.33-.06-.96-.12-1.45-.17-.49-.05-.85-.07-.63-.11-1.02.03-.44.09.31.14-1.73-.11-2.71-.12-4.49-.1.28.03.55.09.26.1-2.61.01-1.15.1-2.91.25-1.01-.01.34-.24-1.43-.03-1.09.02-.25-.14.18-.22-1.62.2-3.03.28-3.96.35l.85-.16c-.51.1-.93.14-1.35.21.17,0,.34.03.5.05-.5.03-.92.13-.92.08-.5.17.42.12-.57.41-.67.07-2,.41-2.25.32,2.08-.35-.26-.12,1.49-.47-.34.08-.75.15-1.25.22-.08,0,.06-.05.2-.08-2.01.3-.87.38-2.91.84.24-.15-.51-.05-.84.07.81-.23.43.03-.3.31-1.31.3-1.39.45-2.06.63l.78-.19c-.24.15-.88.32-1.75.66-.1-.04.79-.32.46-.24-.93.49-2.28.56-3.58,1.22-.65.19-.12-.13-.69.05-1.47.69-1.67.57-3.2,1.35.5-.09.56-.16-.48.44l2.52-1.23-1.57.9c.77-.34,1.59-.82,2.07-.98-.76.41-.68.37-.27.29-1.12.32-2.05,1.01-3.29,1.5l-.09-.28c-1.86.79-3.11,1.77-5.37,3.07.25-.13.48-.28.74-.4-.24.27-1.35.88-2.04,1.37.01-.12-.45.13-.79.28.08.03-1.56,1.1-1.64,1.4-.34.19-.69.37-1.02.58-1.69,1.27-1.74,1.68-3.27,2.99.39-.48-.35.07.62-.88-.51.44-.98.83-.95.89-.35.2-1.31,1.35-1.81,1.72-.18.23-.17.37-.73.88-.07.04-.03-.04-.03-.04.02.03-.79.89-.25.49-1.68,1.27-3.95,4.25-5.21,5.56-.91,1.16-1.88,2.65-2.64,3.75.02-.09-.04-.03.11-.24-1.07,1.51-.38,1.1-1.58,2.82-.68.84.5-1,.11-.46-.43.08-1.26,2.2-2.08,3.36l.14-.31c-.58.92-1.13,2.39-1.84,4,0,0,0-.09-.04-.03-.37,1.16-1.16,3.3-1.68,4.91.05-.54.18-.75-.04-.49-.23.73.27-.14-.19,1.31-.22.45-.64,1.46-.8,1.56.12-.46.29-.91.44-1.37-.42.64-.57,1.77-.79,2.49l-.05-.11c-.59,2.12-.36,2.21-.92,4.5l.11-.23c-.08,1.3-.31,1.04-.41,2.33l-.26.35c-.13.84-.24,2.98-.36,4.49-.08-.87.09-2.65.15-3.77-.12.84-.35,2.85-.31,3.3.02-.34.03-.77.1-1.1,0,1.04,0,2.41-.14,4.08-.4-.32-.24,4.37-.44,5.6.25,2.97.3,5.92.98,9.34.08-1.27.19,1,.45.73.16.79.25,1.08.24,1.16l.38,2.43c.06.59-.26-.73-.29-.64.41,1.73.06.75.29,1.91.04-.26.32.55.56,1.54l-.25-1.41c.82,2.34.39,2.12,1.32,4.45l-.34-.72c.44,1.21,1.71,4.43,2.48,5.46.06.22.11.53-.14.02,1.26,2.81,3.34,5.95,4.56,7.99l-.19-.15c.33.47.64.77,1,1.39-.05-.01-.2-.15-.05.07.2.23.99,1.16,1.39,1.8l-.44-.48c.82,1.25,1.62,2.09,2.33,2.91.76.78,1.49,1.5,2.34,2.42-.16.13,1.38,1.92,2.22,2.75h-.05c2.47,2.46,4.52,3.83,7.14,5.69,1.44,1.42,5.56,3.88,8.39,5.42-.42-.26.15-.12.67.12.64.41,1.95.74,1.75.89l-.24-.11c.44.41,1.86,1.04,3,1.46l.28-.17c2.8,1.58,7.9,2.5,9.51,3.13.76.12,1.69.29,2.45.35l-.07.13c1.04.21,1.82.37,2.67.46.85.09,1.76.27,3.07.33l-.54.06c1.48.11,1.89-.24,3.25-.19l.4.22c1.29.03,2.58.13,3.88.09.65,0,1.29,0,1.93-.05.64-.06,1.28-.13,1.91-.23-.04.03-.11.1-.53.14,1.21-.03,4.69-.38,4.21-.6.06.22,2.63-.41,3.97-.76l-.18.19c1.11-.44,1.13-.49,2.71-.91.38-.07.36.03-.15.11,1.27-.25.94-.39,2.46-.74l-.54.24c1.28-.36,1.17-.35,1.83-.69.77-.32,2.4-.77,2.62-.72.14-.14.78-.5,1.52-.75.12,0-.14.14-.27.2,1.05-.35,1.8-.71,2.46-1.06.66-.34,1.24-.62,1.96-.89.05.03.15,0,.27-.04-1.59.76-2.9,1.31-2.78,1.26.05.12,1.36-.45.4.18.5-.28,1.19-.66,1.89-1.06.7-.41,1.42-.83,2.06-1.12.07-.02.13-.04.18-.04l-.12.08c.29-.14.54-.27.77-.42.4-.2.65-.33,1.02-.54.19,0,1.46-.75,2.06-1.14-.12-.09.67-.57-.12-.2.1-.05-.1.09-.5.34-.09.06-.19.12-.26.16l.04-.03c-.4.23-.93.54-1.53.89.45-.34.93-.69,1.65-1.01.27-.27.56-.56.72-.72.92-.35,2.56-1.29,2.83-1.36.87-.66,1.91-1.41,2.8-2.18.45-.38.88-.74,1.25-1.09.36-.36.66-.68.87-.95.44-.43.58-.41.79-.53-.25.25-.57.53-.7.68.91-.83,2.69-2.48,2.77-2.82,1.17-1.02-.5.74.99-.79l-.16.25c.78-.71,1.45-1.39,2.05-2.08.58-.71,1.11-1.4,1.64-2.1,1.03-1.44,2.07-2.92,3.55-4.73-.21.25-.31.38-.37.41,3.22-4.25,5.48-9.45,7.55-14.25.53-1.39.47-1.59.67-2.47l.25-.26c.1-.51.18-1.03.26-1.54.25-1.07.59-1.96.88-2.95.15-.49.31-1,.45-1.56.12-.56.21-1.18.28-1.88l-.16.34c.09-.49.23-1.27.32-1.91.08-.64.15-1.14.2-1.05,0-.1-.06-.34.04-.72l.08-.02c.07-.82.1-1.64.11-2.46.19-1.9.32.32.48-2.46,0-1.04-.16-2.95-.22-2.56-.01.42-.08,1.06-.16,1.09l-.02-.94c-.23-.17-.45-.89-.67,1.4l.1,1.6-.15.51c.04-.45.04-.89.05-1.34-.11.76-.06,1.24-.04,1.79-.07.12-.13.34-.17.66l.1,1.58c-.11.18-.1-.72-.27.32.01.74.29-.68.21.54-.2.75-.26.51-.28,1.42-.08.12-.09-.08-.07-.43,0,.8-.27,2.09-.23,2.52-.13.38-.24,1.05-.35,1.6-.12.55-.24.99-.34.93,0,.25-.15,1.41-.3,2.13.09-1.36-.75,2.64-.94,2.22,0,.51-.27,1.37-.58,2.31-.29.95-.67,1.96-.94,2.8.02-.1.05-.29.12-.43-.38.91-.55,1.15-.83,1.72.13.19-.46,1.61-.7,2.42-.67,1.02.1-.77-.23-.5.08,0-.09.5-.27.95-.19.44-.36.85-.2.7-.53.77-.42.69-.78,1.03.14.26-.34.79-.6,1.53-.77,1.1-.37.19-1.04,1.5-.41.57.16-.61.16-.61Zm-24.75,24.08h0c.27-.14.5-.26.64-.34-.13.07-.32.17-.64.34Zm-2.65,1.3c.33-.15.74-.32,1.17-.53.11,0,.04.1-.23.22.13-.1-.51.17-.93.31Zm6.03-2.04c-.4.25-.55.31-.62.32.19-.12.42-.25.71-.43.01-.01.03-.03.04-.04-.03.05-.06.09-.13.15Z" fill="#fd4248"/>
      <path d="m95.43,116.71c.06-.04.09-.06.16-.11-.09.04-.17.08-.26.12-.04.04-.08.08-.12.12.07-.04.15-.09.22-.13Z" fill="#fd4248"/>
      <path d="m99.58,12.14l-.05-.04s.08.07.1.09c-.03-.03-.03-.03-.05-.05Z" fill="#fd4248"/>
      <polygon points="49.01 123.12 49.01 123.15 49.27 123.18 49.01 123.12" fill="#fd4248"/>
      <path d="m111.11,23.66s.04.09.1.19c0-.01-.05-.09-.1-.19Z" fill="#fd4248"/>
      <path d="m115.2,29.37l.49.86c-.21-.38-.37-.65-.49-.86Z" fill="#fd4248"/>
      <path d="m117.86,34.07c.05.05.08.06.1.07h0s-.1-.07-.1-.07Z" fill="#fd4248"/>
      <path d="m44.88,3.71c-.07.02-.14.04-.2.06-.46.17-.15.06.2-.06Z" fill="#fd4248"/>
      <path d="m70.11,1.13c-.27-.01-.54-.02-.82-.04.45.07.8.12.82.04Z" fill="#fd4248"/>
      <path d="m20.63,18h0s-.08.08-.13.12l.13-.12Z" fill="#fd4248"/>
      <path d="m68.1,1c.45.06.83.08,1.19.09-.37-.04-.81-.09-1.19-.09Z" fill="#fd4248"/>
      <path d="m124.56,56.32l.03.26s.02,0,.02.03l-.05-.29Z" fill="#fd4248"/>
      <path d="m124.61,56.61l.04.29c-.01-.13-.02-.25-.04-.29Z" fill="#fd4248"/>
      <path d="m124.73,57.5l-.08-.6c.02.21.03.47.08.6Z" fill="#fd4248"/>
      <path d="m123.46,49.27l-.07-.07s.04.07.07.07Z" fill="#fd4248"/>
      <path d="m122.94,47.16c.13.5.19,1.29.39,1.98l.05.06c-.16-.31-.23-1.59-.45-2.04Z" fill="#fd4248"/>
      <path d="m120.59,38.35c.23.57.43,1.15.64,1.72-.07-.32-.15-.74.16.03-.7-2.22.07.49-.81-1.76Z" fill="#fd4248"/>
      <path d="m118.19,33.18c.47.87.06-.05.12-.02-.34-.53-.43-.65-.12.02Z" fill="#fd4248"/>
      <path d="m88.51,5.63l.14-.08c-.7-.3-.03.04-.14.08Z" fill="#fd4248"/>
      <path d="m80.95,3.5c.23.09.46.18.68.29h.37c-.35-.11-.69-.21-1.04-.29Z" fill="#fd4248"/>
      <polygon points="76.69 1.45 77.02 1.5 75.77 1.26 76.69 1.45" fill="#fd4248"/>
      <path d="m14.28,22.96l.27-.08c.32-.41.25-.61-.27.08Z" fill="#fd4248"/>
      <path d="m1.52,49.75c-.16.3-.36,1.12-.37,1.64.13-.66.3-1.31.37-1.64Z" fill="#fd4248"/>
      <path d="m41.1,122.09l-.58-.17c.36.12.71.26,1.08.36-.17-.06-.34-.12-.5-.19Z" fill="#fd4248"/>
    </g>
    <g>
      <path d="m53.57,128.63c.04.09.14.04.11-.2l-.17-.16.06.36Z" fill="#fd4248"/>
      <path d="m53.79,127.05c-.09-.27-.25-.58-.39-.39.17.26.11.33.31.61.03.23-.03.41-.1.37.05.08-.02.36.09.49.11-.31.1-.7-.03-1.1.03-.09.08,0,.11.01Z" fill="#fd4248"/>
      <path d="m43.15,107.38l.11.11s-.06-.07-.11-.11Z" fill="#fd4248"/>
      <path d="m29.77,102.53c.11,0,.16-.01.16-.03-.1,0-.19.01-.16.03Z" fill="#fd4248"/>
      <path d="m27.3,102.29c.05,0,.1,0,.15,0-.06-.01-.11-.02-.15,0Z" fill="#fd4248"/>
      <path d="m43.15,107.38l-.28-.27c-.05.03.14.15.28.27Z" fill="#fd4248"/>
      <path d="m53.03,123.97c.02.08.04.14.07.19l-.05-.19h-.03Z" fill="#fd4248"/>
      <path d="m47.93,111.56l.08.09s.08.02.12.03l-.2-.12Z" fill="#fd4248"/>
      <path d="m50.77,115.54c-.05-.1-.19-.06-.27-.06.08.02.15.08.21.16.02-.01.04-.04.06-.09Z" fill="#fd4248"/>
      <path d="m53.36,122.8l.05.13s-.04-.09-.05-.13Z" fill="#fd4248"/>
      <path d="m45.49,109.05s0-.05,0-.07c-.01.01,0,.04,0,.07Z" fill="#fd4248"/>
      <path d="m52.64,134.04s.02,0,.02,0c0-.03-.01-.04-.02,0Z" fill="#fd4248"/>
      <path d="m53.94,128.63v.08s.06.02.08.02l-.08-.09Z" fill="#fd4248"/>
      <path d="m22.75,102.61s.01,0,.02,0c.12-.03.05-.02-.02,0Z" fill="#fd4248"/>
      <path d="m2.19,134.22c0-.48.35.71.31,0-.04.08-.37-.58-.31,0Z" fill="#fd4248"/>
      <path d="m53.03,123.85l-.03-.19c0,.09.02.15.03.19Z" fill="#fd4248"/>
      <path d="m2.5,134.22h0v-.07s0,.05,0,.07Z" fill="#fd4248"/>
      <path d="m13.14,106.75s.08,0,.12-.01c-.01,0-.04,0-.12.01Z" fill="#fd4248"/>
      <path d="m20.22,103.54l-.19.05c.08-.01.14-.03.19-.05Z" fill="#fd4248"/>
      <path d="m10.11,109.46c-.08.06-.12.07-.22.18.01,0,.03,0,.04-.02.02-.05.07-.1.17-.17Z" fill="#fd4248"/>
      <path d="m7.29,112.56l.07-.04s.05-.08.07-.11l-.14.16Z" fill="#fd4248"/>
      <path d="m47.31,144.96c.09-.04.16-.05.22-.06-.12-.02.25-.48-.22.06Z" fill="#fd4248"/>
      <path d="m53.11,123.95s-.06-.05-.08-.11l.03.13s.04,0,.05-.02Z" fill="#fd4248"/>
      <path d="m10.75,110.38l-.49.42c.14-.11.32-.26.49-.42Z" fill="#fd4248"/>
      <path d="m21.04,152.92l.15.02c-.05-.02-.11-.03-.15-.02Z" fill="#fd4248"/>
      <path d="m9,112.21c-.11.05-.22.12-.32.2,0,.03-.02.05-.02.08l.34-.28Z" fill="#fd4248"/>
      <path d="m47.53,144.9h0s0,0,0,0Z" fill="#fd4248"/>
      <path d="m49.67,141.24c-.32.52,0,.34.03.5-.34.65-.29.22-.5.38-.19.42-.24.81-.46,1.07-.04,0-.09.05-.07-.03-.17.47-.84,1.15-1.05,1.71-.04.02-.07.03-.08.02.13,0,.21.04.25.1-.18.21-.26.46-.42.46.12-.12.09-.17.11-.25l-.16.25c-.31.08.22-.33.12-.42-.34.45-.68,1.04-1,1.33-.18-.05.64-.79.14-.46l.5-.45c-.54.2.29-.29-.24-.13-.63.6-.57.81-1.24,1.37-.08.2.15.06.07.26-.81.97-1.01.34-1.53,1.12-.11.24-.05.45-.65.76l.06-.29c-.69.49-.22.51-1.01.94.08-.16.5-.45.38-.39-.55.22-.26.33-.62.6l-.17-.09c-.77.47-1.52,1.15-2.41,1.62.03-.07.16-.19-.08-.14-.55.31-1.16.6-1.77.86-.64.2-1.28.38-1.86.54l-.39.3c-.1.04-.21-.01-.11-.06-.47.06,0,.09-.2.21-.26.08-.37,0-.22-.08-.39.16-.95.38-1.53.56-.57.21-1.19.23-1.64.24l.16-.07c-.69.04-.73.42-1.38.38l.12-.04c-1.49.06-3.15.27-4.28-.06-.23.21-1.46-.17-1.59.07-.83-.27-.58-.29-1.74-.57-.31-.05-.5.08-.89.02l.03-.15-.56.02-.23-.25-.37-.05c.14.05.29.14.25.18-.29-.04-.63-.15-.89-.27-.26-.13-.43-.27-.43-.31l-1.33-.35c.05-.05.27.01.46.04-.74-.1-.07-.2-.75-.29.07.06-.08.07-.11.09-.28-.19-.95-.55-1.48-.75l.14-.05c-.92-.42-1.9-.97-2.87-1.56.32.25.14.36-.15.2l-.02-.21c-.24-.03.27.23-.18.1-.34-.26-.13-.32.1-.22l-.45-.26c0-.06.12,0,.18-.04-.23-.05-.61-.66-.96-.71v-.06c-.92-.65-1.28-1.03-1.99-1.62-.11.09-.36-.18-.64-.28-.43-.54-.86-1.18-1.42-1.77-.42-.4-.2-.05-.43-.21.07-.12-.43-.77-.1-.48-.31-.39-.5-.63-.72-.91-.11-.13-.23-.27-.37-.44-.13-.18-.27-.38-.46-.63.03.14.09.29,0,.24-.14-.18-.22-.47-.15-.48l.04.04c-.44-.55-.82-1.28-1.04-2.03-.24-.74-.55-1.4-.83-1.89l.03.05-.53-1.04c-.16-.51.2.27.14-.13-.16-.27-.28-.53-.38-.77-.07-.25-.13-.48-.18-.71-.1-.46-.18-.88-.38-1.37.05-.42,0-1.12-.16-1.84-.07-.36-.15-.73-.19-1.08-.02-.35-.01-.68.04-.95l-.09.07c-.1-.27.03-.34.04-.54-.07.03-.06.3-.12.13-.17-1.17-.02-2.39.09-3.6.08-.6.23-1.2.35-1.79l.18-.89.26-.86c.24-.84-.32-.6.16-1.62l.08.35c.15-.88.51-1.72.81-2.57.39-.81.78-1.62,1.1-2.44-.02.11.02.13-.06.28.27-.27.7-1.16.62-1.22.15-.23.11,0,.24-.12.25-.27.34-.88.56-.97.04-.02-.03.1-.06.17.09-.23.68-.88.43-.78.45-.48.69-1.05,1.09-1.39.11-.35.81-.78.72-1,.14.19.88-.74,1.14-1.07-.05.14.31-.19.26-.01.35-.32.64-.64.5-.67.79-.4,1.22-1.27,1.82-1.3.26-.23.52-.46.78-.69.28-.2.55-.39.82-.58.55-.36,1.05-.78,1.62-1.05.05.19-1.21.7-1.04.88.24-.18.45-.34.66-.5.21-.14.41-.27.61-.4.4-.25.81-.49,1.36-.72.29-.11-.12.17-.2.25.51-.33,1.07-.48,1.6-.68.53-.18,1.03-.42,1.53-.59,0,.02-.1.07-.2.11.2-.06.48-.09.43-.18l-.19.08c-.37-.06.73-.51.75-.59-.28.37,1.05-.19.58.31.13-.05.29-.14.24-.2.2-.03.27,0,.09.12.72-.25.44-.26,1.12-.37,0,.05-.13.09-.19.16.32-.15.65-.3,1.23-.34-.03.03.04.06-.13.09.97-.2,1.66-.41,2.76-.39-.32.23.37.05.43.24.19-.04.39-.05.58-.05l-.23-.1c.51.03.97-.08,1.41,0l-.39.06h.96s-.54-.08-.54-.08c.53-.07-.04-.24.65-.15-.14.02.52.01.77.19h0c.26-.02.53-.04.9.06.09.07-.11.19-.05.24.27-.11,1.2.12,1.54.04-.11.01-.14.11-.11.13l.23-.07c.22.1.25.13.2.19.69.2-.17-.29.64.02-.07,0-.04.02-.18,0,.82.26,1.63.32,2.35.68.16.26-.66-.19-.46.05.53.18,1.1.33,1.67.48.56.16,1.09.41,1.58.66l-.18-.11c.25-.17.69.46,1.23.61-.12-.06-.23.04-.18.03.62.43,1.35.72,2.36,1.28l-.15-.03c.32.32.91.73,1.28,1.04.16.03.37.2.3.03.49.57.99,1.06,1.55,1.46.56.4,1.06.85,1.38,1.45-.11-.12-.29-.24-.21-.14l.8.78c.03-.14-.05-.15-.14-.39.15.06.4.26.59.47-.4-.32-.13.11-.05.33,0-.05.08-.02.1-.05.19.6.24-.07.61.66h-.07c.2.22.43.4.61.67-.03.18-.24-.22-.34-.17.27.36.76.56.85,1-.13-.15-.27-.38-.43-.51.14.44.17.48.33.77v-.03s.32.69.32.69l-.06-.19c.57.31.7.93,1.2,1.52-.51-.57-.16-.05-.32-.03.05.19.13.48.06.42.27.27.17.58.55.96-.03.04.16.35.01.32.24.4.03-.13.1-.12.47.59.41,1.65.99,2.54.34.83.52.95.81,1.74,0,.29-.23-.18-.23-.18.03.46.16.78.28,1.19-.05-.08-.08.02-.11.16.06.33.21.19.21.65-.07-.07-.17-.15-.24-.3.1.39.25.77.36,1.17-.07.12-.17-.23-.24-.37.11.46.27,1.18.39,1.32l.03-.31c.02.17-.1.1-.15-.02-.17-.38-.04-.58,0-.61l.08.29c.24-.34-.23-1.18-.3-1.77l.24.21-.26-.58c.03-.14.13-.25.21.04.02-.45-.16-.36-.14-.75,0-.04.02-.03.04,0l-.17-.4c.06.07.12-.1.16.16-.07-.77-.46-1.15-.38-1.47l.03.06c-.38-.99-.17-.06-.6-.75l.17-.62-.18-.05c-.03-.1-.1-.31-.02-.3-.24-.34-.04.09-.21-.1-.03-.27-.16-.61-.28-.89-.14-.28-.24-.52-.16-.62-.19-.12.14.49-.18.02.17-.25-.32-.56-.42-1.05.18.07.32.52.22.03-.32-.16-.36-.87-.63-1.19-.17.07-.52-.72-.93-1.27.1-.02-.65-1.1-.99-1.65h.04c-.23.02-.56-.55-.92-.87.09-.06.19-.03.4.14-.09-.12-.2-.22-.3-.34-.12-.04-.23-.12-.45-.33h.18c-.42-.44-.91-.81-1.4-1.4-.12.06.2.66-.46.18.03-.07.09-.18.26-.05-.06-.04-.22-.12-.3-.24l.32.13c-.22-.27-.2-.05-.4-.25.07-.07-.1-.19-.02-.22.06.04.15.19.26.24-.22-.22-.46-.52-.51-.67-.02.06-.09.1-.27-.05-.45-.4-.07-.23-.3-.5-.14-.05-.41-.34-.51-.23-.14-.11-.12-.18-.15-.25-.29-.13-1.17-.85-.98-.52l.06.06-.04-.02h0s0,0,0,0c-.86-.52-1.71-1.21-2.59-1.7l.03-.04c-.54-.26-1.21-.56-1.64-.66-.16-.08-.34-.26-.25-.28-.43-.16-.48-.16-1.08-.46.47.08-.12-.13.47.1-.54-.25-.65-.37-1.29-.46.25-.04-.37-.3-.65-.37l.36.23c-.31-.09-.56-.2-.83-.31l.19-.11c-1.14-.52-2.22-.26-3.06-.76-.34.06.64.18.33.27-.55-.11-1.09-.43-1.27-.46-.76-.2-.74.11-1.54-.03.1.06.18.23-.42.25-.55-.05-.67-.28-.31-.31.14,0,.2.02.19.04.18-.01.42-.03.21-.1l-.08.06c-.27-.07-1.05-.11-.87-.2-.43.04-.19.09.13.13-.72-.11-1.13-.1-1.88-.1.12.03.23.09.11.1-1.09-.02-.48.14-1.21.2-.42-.07.14-.22-.6-.11-.46-.04-.11-.15.07-.21-.67.12-1.27.09-1.67.11l.35-.1c-.21.06-.39.09-.56.11l.22.09c-.21.01-.39.04-.39-.01-.2.11.2.17-.21.34-.29-.01-.83.18-.95.07.88-.11-.13-.15.61-.29-.14.04-.32.06-.53.08-.03,0,.02-.04.08-.06-.86.06-.34.27-1.19.48.09-.11-.24-.11-.37-.06.34-.09.2.1-.09.25-.56.07-.58.2-.86.27l.33-.05c-.09.11-.36.17-.71.34-.05-.05.32-.17.18-.15-.35.3-.97.18-1.5.49-.29.04-.09-.15-.33-.1-.6.33-.73.18-1.34.56.24.02.26-.02-.15.3l1.02-.58-.61.48c.32-.15.63-.4.84-.45-.3.22-.27.19-.08.21-.51.04-.81.51-1.36.64l-.12-.27c-.41.13-.74.31-1.07.55-.33.25-.67.52-1.16.77l.33-.14c-.06.18-.57.36-.84.59-.03-.1-.24-.02-.4.01.06.05-.65.48-.61.69l-.47.19c-.74.49-.65.8-1.28,1.35.12-.25-.21-.05.16-.49-.21.19-.41.35-.37.4-.16.07-.49.63-.75.73-.06.11-.02.21-.25.42-.04,0-.03-.04-.03-.04.02.03-.3.4-.03.27-.78.44-1.65,1.76-2.26,2.23-.35.51-.77,1.12-1.08,1.58,0-.05-.04-.03.02-.11-.48.61,0,.56-.55,1.25-.37.3.17-.44-.03-.23-.33-.06-.54.91-.96,1.35l.05-.14c-.3.36-.37,1.05-.71,1.71,0,0-.01-.04-.04-.02-.1.51-.34,1.44-.55,2.11-.04-.25.05-.32-.12-.24-.09.3.23-.02.04.59-.13.17-.36.58-.49.6.04-.2.13-.38.19-.57-.29.23-.24.74-.34,1.04l-.06-.06c-.21.9-.02.96-.28,1.91l.08-.09c.07.56-.19.42-.13.98l-.22.13c0,.36-.02,1.26-.04,1.89-.13-.37-.06-1.12-.09-1.59-.05.35-.17,1.19-.1,1.38,0-.14-.02-.33.03-.46.06.44.14,1.02.1,1.71-.38-.14-.21,1.82-.42,2.33.11.62.11,1.24.13,1.89.07.64.12,1.31.25,2.03.21-.56.07.42.36.27.07.33.12.45.1.48l.08,1.03c-.03.26-.15-.3-.2-.25.16.73-.05.33,0,.84.08-.13.22.21.28.63v-.62c.39.96,0,.94.5,1.88l-.21-.28c.23.49.68,1.89,1.17,2.24,0,.1-.01.25-.13.04.28.58.61,1.22,1,1.78.4.56.76,1.08.96,1.55l-.11-.04c.15.19.32.29.45.56-.03,0-.12-.04-.06.06.1.09.49.44.64.71l-.23-.17c.34.53.67.89.99,1.21.35.3.71.55,1.08.92-.16.14.43.95.78,1.3h-.03c.53.52,1.03.9,1.52,1.26.49.36,1.04.63,1.59,1,.26.35.82.8,1.49,1.19.66.41,1.36.88,1.95,1.2-.17-.13.11-.14.33-.05.27.18.85.24.72.4l-.1-.05c.13.28.73.54,1.22.7l.18-.22c.55.39,1.38.71,2.15.88.78.16,1.48.29,1.8.55.32.03.72.09,1.04.07l-.04.14c.88.15,1.31.29,2.41.35l-.23.09c.62.04.82-.37,1.38-.35l.16.22c1.07.1,2.18.16,3.24-.07-.01.03-.04.09-.22.11.51.03,1.98-.09,1.75-.34.04.18,1.11-.14,1.66-.33l-.06.16c.44-.3.44-.35,1.09-.56.16-.02.17.07-.05.09.54-.06.37-.23,1.02-.32l-.21.15c.54-.13.49-.15.74-.36.31-.17.99-.33,1.12-.24.04-.1.29-.3.61-.38.06.03-.04.1-.09.13.92-.21,1.19-.71,1.83-.84.03.04.08.04.13.03-.67.32-1.21.57-1.16.54.05.12.6-.12.24.25.4-.3,1.05-.85,1.6-1.04.03,0,.06,0,.09,0l-.05.04c.13-.05.23-.11.32-.18.17-.08.28-.13.43-.22.11.06.62-.31.88-.46-.09-.11.25-.29-.12-.2.05-.02-.04.04-.21.15-.04.03-.08.06-.1.08v-.02c-.15.1-.37.24-.62.39.17-.18.34-.36.66-.47.08-.16.18-.32.23-.41.45-.04,1.18-.37,1.32-.35.67-.63,1.72-1.29,1.94-1.91.17-.2.27-.14.37-.18-.09.12-.23.24-.26.32.34-.4,1.11-1.05,1.08-1.26.53-.38-.14.38.47-.27l-.04.13c.7-.55,1.1-1.16,1.51-1.78.38-.65.73-1.31,1.47-1.98-.1.09-.15.14-.19.15,1.38-1.75,2.24-3.95,3.19-5.92.26-.57.18-.67.22-1.05l.19-.08c.01-.22,0-.45,0-.67.05-.46.24-.82.42-1.22.19-.39.36-.83.31-1.43l-.12.13c.08-.41.14-1.31.24-1.23-.01-.04-.08-.15,0-.3h.08c.02-.35,0-.69-.04-1.03.1-.79.31.15.38-1.02,0-.44-.17-1.24-.23-1.07-.01.17-.07.44-.15.45l-.02-.39c-.23-.07-.45-.36-.66.57l.11.66-.12.2.02-.55c-.12.31-.04.51.02.73-.06.05-.11.14-.14.26l.19.66c-.1.07-.15-.3-.25.12.06.31.25-.26.24.24-.15.3-.22.2-.19.57-.07.04-.09-.04-.1-.19.02.33-.1.86,0,1.04-.09.15-.12.42-.16.65-.05.23-.12.4-.22.36.03.11.03.59-.04.89-.12-.6-.29,1.08-.53.87.15.47-.39,1.4-.49,2.13,0-.04-.01-.13.02-.19-.16.37-.26.46-.39.68.16.12-.07.71-.11,1.07-.39.37-.08-.37-.31-.31.16.04-.23.84-.04.75-.27.29-.19.27-.42.37.18.17-.1.34-.15.68-.39.41-.27,0-.52.56-.21.2-.01-.29-.01-.29Zm-9.94,10.02h0c.11-.06.2-.11.26-.14-.05.03-.13.07-.26.14Zm-1.09.53c.13-.06.3-.14.48-.22.06.03.04.09-.07.14.05-.06-.22.04-.4.08Zm2.76-.34c-.16.12-.23.13-.27.12.08-.05.17-.11.29-.19v-.03s0,.07-.02.1Z" fill="#fd4248"/>
      <path d="m41.61,151.1s.03-.03.06-.05c-.04.01-.08.02-.12.03l-.04.07s.06-.04.09-.06Z" fill="#fd4248"/>
      <path d="m43.28,107.5l-.02-.02s.03.03.03.05c-.01-.02,0-.02-.01-.03Z" fill="#fd4248"/>
      <polygon points="22.36 153.19 22.35 153.22 22.46 153.22 22.36 153.19" fill="#fd4248"/>
      <path d="m47.87,112.47s0,.05.02.09c0,0,0-.05-.02-.09Z" fill="#fd4248"/>
      <path d="m49.53,114.83l.17.38c-.07-.17-.12-.28-.17-.38Z" fill="#fd4248"/>
      <path d="m50.59,116.78s.05.01.07.01h0s-.07-.01-.07-.01Z" fill="#fd4248"/>
      <path d="m20.65,104.4l-.08.03c-.18.08-.06.03.08-.03Z" fill="#fd4248"/>
      <path d="m30.99,103.16c-.11,0-.23.02-.34.02.18.04.33.06.34-.02Z" fill="#fd4248"/>
      <polygon points="10.8 110.33 10.8 110.33 10.75 110.38 10.8 110.33" fill="#fd4248"/>
      <path d="m30.16,103.15c.18.04.34.04.49.03-.15-.02-.33-.04-.49-.03Z" fill="#fd4248"/>
      <path d="m53.31,125.92v.11s.03,0,.03.01l-.03-.12Z" fill="#fd4248"/>
      <path d="m53.35,126.04l.02.12c0-.05,0-.1-.02-.12Z" fill="#fd4248"/>
      <path d="m53.42,126.4l-.05-.25c0,.09,0,.19.05.25Z" fill="#fd4248"/>
      <path d="m52.89,123.02l-.06-.02s.03.02.06.02Z" fill="#fd4248"/>
      <path d="m52.65,122.16c.04.21.03.54.13.82l.05.02c-.11-.12-.04-.66-.18-.84Z" fill="#fd4248"/>
      <path d="m52.05,118.39c.09.24.15.49.23.73,0-.15.01-.34.14-.02-.19-.97-.04.23-.38-.72Z" fill="#fd4248"/>
      <path d="m51.09,116.22c.2.36.07-.04.1-.04-.17-.21-.21-.25-.1.04Z" fill="#fd4248"/>
      <path d="m38.71,104.73l.09-.1c-.3-.12-.02.04-.09.1Z" fill="#fd4248"/>
      <path d="m35.44,104.2c.09.05.18.1.26.16l.17-.06c-.14-.04-.29-.08-.44-.1Z" fill="#fd4248"/>
      <polygon points="33.8 102.84 33.94 102.86 33.42 102.77 33.8 102.84" fill="#fd4248"/>
      <path d="m7.64,111.88l.18.03c.12-.18.01-.33-.18-.03Z" fill="#fd4248"/>
      <path d="m2.39,123.13c-.12.11-.22.45-.18.68.05-.28.15-.54.18-.68Z" fill="#fd4248"/>
      <polygon points="18.87 153.46 18.61 153.42 19.08 153.54 18.87 153.46" fill="#fd4248"/>
    </g>
  </g>
</svg>