<?xml version="1.0" encoding="UTF-8"?>
<svg id="_圖層_2" data-name="圖層 2" xmlns="http://www.w3.org/2000/svg" width="10.12" height="15.4" viewBox="0 0 10.12 15.4">
  <defs>
    <style>
      .cls-1 {
        fill: #fff;
      }
    </style>
  </defs>
  <g id="icon">
    <path class="cls-1" d="M7.59,5.96c.2-.39.32-.84.32-1.31,0-.88-.4-1.67-1.03-2.2h0,.02s-1.57-1.16-1.5-2.45h-.65c.07,1.29-1.5,2.43-1.5,2.43h.02s0,.01,0,.01c-.63.52-1.03,1.31-1.03,2.2,0,.47.12.92.32,1.31-1.51.88-2.53,2.51-2.53,4.38,0,2.8,2.27,5.06,5.06,5.06s5.06-2.27,5.06-5.06c0-1.87-1.02-3.51-2.53-4.38Z"/>
  </g>
</svg>