<?xml version="1.0" encoding="UTF-8"?>
<svg id="_圖層_2" data-name="圖層 2" xmlns="http://www.w3.org/2000/svg" width="33.16" height="33.16" viewBox="0 0 33.16 33.16">
  <g id="icon">
    <circle cx="16.58" cy="16.58" r="16.58" transform="translate(-4.09 27.65) rotate(-73.15)" fill="#fffbf3"/>
    <g>
      <path d="m16.29,9.19c-4.19,0-7.6,3.41-7.6,7.6s3.41,7.6,7.6,7.6,7.6-3.41,7.6-7.6-3.41-7.6-7.6-7.6Zm0,12.72c-2.83,0-5.13-2.3-5.13-5.13s2.3-5.13,5.13-5.13,5.13,2.3,5.13,5.13-2.3,5.13-5.13,5.13Z" fill="#092a31"/>
      <path d="m23.85,7.64c-.71,0-1.29.58-1.29,1.29s.58,1.29,1.29,1.29,1.29-.58,1.29-1.29-.58-1.29-1.29-1.29Z" fill="#092a31"/>
    </g>
  </g>
</svg>