<?xml version="1.0" encoding="UTF-8"?>
<svg id="_圖層_2" data-name="圖層 2" xmlns="http://www.w3.org/2000/svg" width="211.86" height="47.07" viewBox="0 0 211.86 47.07">
  <g id="_圖層_1-2" data-name="圖層 1">
    <g>
      <g>
        <g>
          <path d="m2.46,23.78v3.18H.87v-7.67h5.02v1.41h-3.43v1.67h2.95v1.4h-2.95Z" fill="#dee2dd"/>
          <path d="m7.46,26.63c-.32-.31-.48-.72-.48-1.23,0-.59.21-1.04.64-1.34.43-.3,1.04-.45,1.84-.45h.93v-.38c0-.63-.33-.95-.99-.95-.3,0-.55.06-.75.19-.2.12-.37.29-.52.51l-.92-.81c.24-.35.54-.62.9-.81s.83-.28,1.39-.28c.8,0,1.4.18,1.82.54s.62.88.62,1.55v2.6h.54v1.2h-.86c-.29,0-.54-.09-.73-.27-.19-.18-.31-.42-.35-.73h-.06c-.09.37-.29.65-.59.85-.3.2-.67.29-1.11.29-.57,0-1.02-.15-1.33-.46Zm2.64-.82c.19-.14.29-.33.29-.59v-.73h-.83c-.33,0-.59.06-.76.18s-.26.29-.26.52v.17c0,.44.27.66.81.66.31,0,.56-.07.75-.21Z" fill="#dee2dd"/>
          <path d="m15.25,26.96h-1.61l1.92-2.92-1.88-2.84h1.76l1.11,1.85h.05l1.09-1.85h1.63l-1.91,2.88,1.93,2.88h-1.76l-1.14-1.93h-.05l-1.12,1.93Z" fill="#dee2dd"/>
          <path d="m21.16,26.86c-.16-.15-.24-.36-.24-.61v-.21c0-.25.08-.45.24-.61.16-.15.39-.23.69-.23s.53.08.69.23c.16.15.24.36.24.61v.21c0,.25-.08.45-.24.61-.16.15-.39.23-.69.23s-.53-.08-.69-.23Z" fill="#dee2dd"/>
        </g>
        <g>
          <path d="m32.51,26.07c-.52-.72-.78-1.76-.78-3.11s.26-2.39.78-3.12c.52-.73,1.29-1.09,2.31-1.09s1.8.36,2.31,1.09c.52.73.78,1.77.78,3.12s-.26,2.39-.78,3.11c-.52.72-1.29,1.08-2.31,1.08s-1.8-.36-2.31-1.08Zm3.31-.84c.2-.35.29-.85.29-1.52v-1.52c0-.66-.1-1.17-.29-1.52-.2-.35-.53-.52-.99-.52s-.8.17-.99.52c-.2.35-.29.85-.29,1.52v1.52c0,.67.1,1.17.29,1.52.2.35.53.52.99.52s.8-.17.99-.52Z" fill="#fffbf3"/>
          <path d="m44.08,25.44v1.57h-1.58v-1.57h-3.6v-1.42l3.21-5.13h1.97v5.26h1.04v1.28h-1.04Zm-1.58-4.86h-.11l-2.16,3.58h2.27v-3.58Z" fill="#fffbf3"/>
          <path d="m50.67,24.27h-3.42v-1.59h3.42v1.59Z" fill="#fffbf3"/>
          <path d="m53.63,27.01v-1.53l2.53-2.17c.45-.39.77-.73.95-1.02s.28-.6.28-.94v-.17c0-.31-.11-.55-.33-.73-.22-.18-.49-.27-.8-.27-.37,0-.66.11-.88.32s-.37.5-.46.85l-1.45-.56c.2-.61.54-1.1,1.04-1.48.49-.38,1.13-.57,1.91-.57.57,0,1.06.1,1.47.31.41.21.73.5.95.86s.33.79.33,1.26c0,.44-.09.83-.28,1.19-.18.36-.42.68-.71.97s-.67.62-1.14,1l-1.6,1.27h3.9v1.4h-5.7Z" fill="#fffbf3"/>
          <path d="m60.83,27.01v-1.53l2.53-2.17c.45-.39.77-.73.95-1.02s.28-.6.28-.94v-.17c0-.31-.11-.55-.33-.73-.22-.18-.49-.27-.8-.27-.37,0-.66.11-.88.32s-.37.5-.46.85l-1.45-.56c.2-.61.54-1.1,1.04-1.48.49-.38,1.13-.57,1.91-.57.57,0,1.06.1,1.47.31.41.21.73.5.95.86s.33.79.33,1.26c0,.44-.09.83-.28,1.19-.18.36-.42.68-.71.97s-.67.62-1.14,1l-1.6,1.27h3.9v1.4h-5.7Z" fill="#fffbf3"/>
          <path d="m72.89,25.44v1.57h-1.58v-1.57h-3.6v-1.42l3.21-5.13h1.97v5.26h1.04v1.28h-1.04Zm-1.58-4.86h-.11l-2.16,3.58h2.27v-3.58Z" fill="#fffbf3"/>
          <path d="m80.91,20.33l-2.66,6.68h-1.75l2.76-6.77h-2.65v1.48h-1.41v-2.84h5.7v1.44Z" fill="#fffbf3"/>
          <path d="m86.63,26.76c-.45-.26-.8-.63-1.04-1.12-.24-.48-.36-1.05-.36-1.7,0-.72.14-1.41.43-2.06.28-.65.65-1.23,1.09-1.73s.92-.92,1.42-1.26h2.25c-1.06.75-1.86,1.43-2.4,2.04-.54.61-.89,1.29-1.05,2.04l.09.03c.18-.37.41-.66.69-.89.28-.22.66-.33,1.13-.33.44,0,.85.1,1.21.32s.65.51.85.89c.21.38.31.82.31,1.32,0,.55-.12,1.04-.37,1.47-.25.43-.6.77-1.05,1.01-.45.24-.98.36-1.58.36-.63,0-1.17-.13-1.62-.39Zm2.56-1.24c.22-.22.33-.55.33-.97v-.18c0-.42-.11-.74-.33-.97-.22-.23-.54-.34-.94-.34s-.72.11-.95.34c-.23.23-.34.55-.34.97v.18c0,.42.11.74.34.97.23.23.54.34.95.34s.72-.11.94-.34Z" fill="#fffbf3"/>
          <path d="m93.16,27.01c1.06-.75,1.87-1.44,2.42-2.05.55-.61.9-1.29,1.05-2.04l-.09-.03c-.18.37-.41.66-.69.89-.28.22-.66.33-1.13.33-.44,0-.85-.1-1.21-.32-.36-.21-.65-.51-.85-.89-.21-.38-.31-.82-.31-1.32,0-.55.12-1.04.37-1.47.25-.43.6-.77,1.05-1.01.45-.24.98-.36,1.58-.36.63,0,1.17.13,1.62.39.45.26.8.64,1.04,1.12.24.48.36,1.05.36,1.7,0,.72-.14,1.41-.42,2.06-.28.65-.64,1.23-1.09,1.73s-.91.92-1.41,1.26h-2.29Zm3.14-4.51c.23-.23.34-.55.34-.97v-.18c0-.42-.11-.74-.34-.97-.23-.23-.54-.34-.95-.34s-.72.11-.94.34c-.22.22-.33.55-.33.97v.18c0,.42.11.74.33.97.22.23.54.34.94.34s.72-.11.95-.34Z" fill="#fffbf3"/>
          <path d="m99.8,27.01v-1.53l2.53-2.17c.45-.39.77-.73.95-1.02s.28-.6.28-.94v-.17c0-.31-.11-.55-.33-.73-.22-.18-.49-.27-.8-.27-.37,0-.66.11-.88.32s-.37.5-.46.85l-1.45-.56c.2-.61.54-1.1,1.04-1.48.49-.38,1.13-.57,1.91-.57.57,0,1.06.1,1.47.31.41.21.73.5.95.86s.33.79.33,1.26c0,.44-.09.83-.28,1.19-.18.36-.42.68-.71.97s-.67.62-1.14,1l-1.6,1.27h3.9v1.4h-5.7Z" fill="#fffbf3"/>
          <path d="m113.01,25.67v1.34h-5.62v-1.34h2.19v-5.57h-.1l-1.69,2.13-1.05-.84,1.96-2.49h2.55v6.78h1.76Z" fill="#fffbf3"/>
        </g>
      </g>
      <g>
        <g>
          <path d="m6.12.54v1.41h-2.12v6.26h-1.59V1.95H.28V.54h5.84Z" fill="#dee2dd"/>
          <path d="m7.49,7.54c-.48-.54-.73-1.28-.73-2.2s.24-1.65.71-2.2c.47-.54,1.13-.82,1.98-.82.59,0,1.09.13,1.49.39.4.26.69.61.88,1.06.19.44.28.94.28,1.48v.47h-3.74v.1c0,.41.11.73.33.96.22.23.55.34.98.34.31,0,.58-.06.8-.19.22-.12.43-.31.64-.54l.78.94c-.25.31-.58.56-1,.74s-.88.27-1.4.27c-.86,0-1.53-.27-2.01-.81Zm.87-2.73h2.13v-.11c0-.38-.09-.69-.27-.91-.18-.22-.43-.33-.76-.33s-.6.12-.81.35-.3.53-.3.91v.09Z" fill="#dee2dd"/>
          <path d="m15.44,8.21c-.52,0-.9-.13-1.16-.39-.25-.26-.38-.63-.38-1.12V.08h1.55v6.93h.73v1.2h-.74Z" fill="#dee2dd"/>
          <path d="m18.17,8.12c-.16-.15-.24-.36-.24-.61v-.21c0-.25.08-.45.24-.61.16-.15.39-.23.69-.23s.53.08.69.23c.16.15.24.36.24.61v.21c0,.25-.08.45-.24.61-.16.15-.39.23-.69.23s-.53-.08-.69-.23Z" fill="#dee2dd"/>
        </g>
        <g>
          <path d="m32.51,7.32c-.52-.72-.78-1.76-.78-3.11s.26-2.39.78-3.12c.52-.73,1.29-1.09,2.31-1.09s1.8.36,2.31,1.09c.52.73.78,1.77.78,3.12s-.26,2.39-.78,3.11c-.52.72-1.29,1.08-2.31,1.08s-1.8-.36-2.31-1.08Zm3.31-.84c.2-.35.29-.85.29-1.52v-1.52c0-.66-.1-1.17-.29-1.52-.2-.35-.53-.52-.99-.52s-.8.17-.99.52c-.2.35-.29.85-.29,1.52v1.52c0,.67.1,1.17.29,1.52.2.35.53.52.99.52s.8-.17.99-.52Z" fill="#fffbf3"/>
          <path d="m44.08,6.69v1.57h-1.58v-1.57h-3.6v-1.42L42.11.14h1.97v5.26h1.04v1.28h-1.04Zm-1.58-4.86h-.11l-2.16,3.58h2.27V1.83Z" fill="#fffbf3"/>
          <path d="m50.67,5.52h-3.42v-1.59h3.42v1.59Z" fill="#fffbf3"/>
          <path d="m53.1,8.26v-1.53l2.53-2.17c.45-.39.77-.73.95-1.02s.28-.6.28-.94v-.17c0-.31-.11-.55-.33-.73-.22-.18-.49-.27-.8-.27-.37,0-.66.11-.88.32s-.37.5-.46.85l-1.45-.56c.2-.61.54-1.1,1.04-1.48.49-.38,1.13-.57,1.91-.57.57,0,1.06.1,1.47.31.41.21.73.5.95.86s.33.79.33,1.26c0,.44-.09.83-.28,1.19-.18.36-.42.68-.71.97s-.67.62-1.14,1l-1.6,1.27h3.9v1.4h-5.7Z" fill="#fffbf3"/>
          <path d="m60.3,8.26v-1.53l2.53-2.17c.45-.39.77-.73.95-1.02s.28-.6.28-.94v-.17c0-.31-.11-.55-.33-.73-.22-.18-.49-.27-.8-.27-.37,0-.66.11-.88.32s-.37.5-.46.85l-1.45-.56c.2-.61.54-1.1,1.04-1.48.49-.38,1.13-.57,1.91-.57.57,0,1.06.1,1.47.31.41.21.73.5.95.86s.33.79.33,1.26c0,.44-.09.83-.28,1.19-.18.36-.42.68-.71.97s-.67.62-1.14,1l-1.6,1.27h3.9v1.4h-5.7Z" fill="#fffbf3"/>
          <path d="m72.36,6.69v1.57h-1.58v-1.57h-3.6v-1.42l3.21-5.13h1.97v5.26h1.04v1.28h-1.04Zm-1.58-4.86h-.11l-2.16,3.58h2.27V1.83Z" fill="#fffbf3"/>
          <path d="m77.06,3.38c.43,0,.75-.08.96-.25.21-.17.32-.39.32-.68v-.08c0-.31-.1-.56-.3-.74-.2-.18-.48-.28-.83-.28s-.65.08-.94.25-.52.41-.71.73l-1.05-.97c.33-.44.71-.77,1.14-1.01s.97-.35,1.62-.35c.56,0,1.06.09,1.48.27.43.18.76.43.99.75.23.33.35.7.35,1.13,0,.5-.15.9-.44,1.22-.29.32-.66.53-1.1.62v.06c.5.1.91.31,1.22.65s.47.77.47,1.31c0,.48-.13.9-.38,1.26-.25.36-.61.64-1.07.84-.46.2-.99.3-1.59.3-.75,0-1.35-.14-1.81-.42-.46-.28-.84-.65-1.15-1.12l1.22-.95c.2.37.44.65.71.85.27.2.62.29,1.03.29s.73-.1.96-.31.34-.49.34-.84v-.09c0-.34-.13-.6-.38-.78s-.61-.27-1.07-.27h-.76v-1.38h.78Z" fill="#fffbf3"/>
          <path d="m89.71,6.69v1.57h-1.58v-1.57h-3.6v-1.42l3.21-5.13h1.97v5.26h1.04v1.28h-1.04Zm-1.58-4.86h-.11l-2.16,3.58h2.27V1.83Z" fill="#fffbf3"/>
          <path d="m98.06,6.92v1.34h-5.62v-1.34h2.19V1.35h-.1l-1.69,2.13-1.05-.84,1.96-2.49h2.55v6.78h1.76Z" fill="#fffbf3"/>
          <path d="m104.1,6.69v1.57h-1.58v-1.57h-3.6v-1.42l3.21-5.13h1.97v5.26h1.04v1.28h-1.04Zm-1.58-4.86h-.11l-2.16,3.58h2.27V1.83Z" fill="#fffbf3"/>
          <path d="m107.67,8.01c-.45-.26-.8-.63-1.04-1.12-.24-.48-.36-1.05-.36-1.7,0-.72.14-1.41.43-2.06.28-.65.65-1.23,1.09-1.73s.92-.92,1.42-1.26h2.25c-1.06.75-1.86,1.43-2.4,2.04-.54.61-.89,1.29-1.05,2.04l.09.03c.18-.37.41-.66.69-.89.28-.22.66-.33,1.13-.33.44,0,.85.1,1.21.32s.65.51.85.89c.21.38.31.82.31,1.32,0,.55-.12,1.04-.37,1.47-.25.43-.6.77-1.05,1.01-.45.24-.98.36-1.58.36-.63,0-1.17-.13-1.62-.39Zm2.56-1.24c.22-.22.33-.55.33-.97v-.18c0-.42-.11-.74-.33-.97-.22-.23-.54-.34-.94-.34s-.72.11-.95.34c-.23.23-.34.55-.34.97v.18c0,.42.11.74.34.97.23.23.54.34.95.34s.72-.11.94-.34Z" fill="#fffbf3"/>
          <path d="m131.94,7.32c-.52-.72-.78-1.76-.78-3.11s.26-2.39.78-3.12c.52-.73,1.29-1.09,2.31-1.09s1.8.36,2.31,1.09c.52.73.78,1.77.78,3.12s-.26,2.39-.78,3.11c-.52.72-1.29,1.08-2.31,1.08s-1.8-.36-2.31-1.08Zm3.31-.84c.2-.35.29-.85.29-1.52v-1.52c0-.66-.1-1.17-.29-1.52-.2-.35-.53-.52-.99-.52s-.8.17-.99.52c-.2.35-.29.85-.29,1.52v1.52c0,.67.1,1.17.29,1.52.2.35.53.52.99.52s.8-.17.99-.52Z" fill="#fffbf3"/>
          <path d="m139.84,8.1c-.45-.2-.8-.48-1.04-.84-.24-.36-.35-.77-.35-1.22,0-.5.14-.92.43-1.25.28-.33.68-.57,1.18-.71v-.09c-.42-.16-.75-.39-1-.7-.24-.31-.37-.7-.37-1.15,0-.42.11-.79.32-1.11s.53-.57.95-.75c.42-.18.91-.27,1.49-.27s1.07.09,1.49.27c.42.18.73.43.95.75.21.32.32.69.32,1.11,0,.45-.12.83-.37,1.15-.24.31-.58.55-1,.7v.09c.5.14.9.38,1.18.71.28.33.43.75.43,1.25,0,.46-.12.87-.35,1.22-.24.36-.58.64-1.04.84-.45.2-.99.3-1.61.3s-1.16-.1-1.61-.3Zm2.54-1.26c.22-.19.33-.46.33-.81v-.23c0-.34-.11-.61-.33-.8-.22-.19-.53-.29-.93-.29s-.71.1-.93.29c-.22.19-.33.46-.33.8v.23c0,.35.11.62.33.81.22.19.53.29.93.29s.71-.1.93-.29Zm-.04-3.61c.21-.18.31-.43.31-.75v-.19c0-.32-.1-.58-.31-.75-.21-.18-.5-.27-.89-.27s-.68.09-.89.27c-.21.18-.31.43-.31.75v.19c0,.33.1.58.31.75.21.18.5.27.89.27s.68-.09.89-.27Z" fill="#fffbf3"/>
          <path d="m146.34,7.32c-.52-.72-.78-1.76-.78-3.11s.26-2.39.78-3.12c.52-.73,1.29-1.09,2.31-1.09s1.8.36,2.31,1.09c.52.73.78,1.77.78,3.12s-.26,2.39-.78,3.11c-.52.72-1.29,1.08-2.31,1.08s-1.8-.36-2.31-1.08Zm3.31-.84c.2-.35.29-.85.29-1.52v-1.52c0-.66-.1-1.17-.29-1.52-.2-.35-.53-.52-.99-.52s-.8.17-.99.52c-.2.35-.29.85-.29,1.52v1.52c0,.67.1,1.17.29,1.52.2.35.53.52.99.52s.8-.17.99-.52Z" fill="#fffbf3"/>
          <path d="m153.54,7.32c-.52-.72-.78-1.76-.78-3.11s.26-2.39.78-3.12c.52-.73,1.29-1.09,2.31-1.09s1.8.36,2.31,1.09c.52.73.78,1.77.78,3.12s-.26,2.39-.78,3.11c-.52.72-1.29,1.08-2.31,1.08s-1.8-.36-2.31-1.08Zm3.31-.84c.2-.35.29-.85.29-1.52v-1.52c0-.66-.1-1.17-.29-1.52-.2-.35-.53-.52-.99-.52s-.8.17-.99.52c-.2.35-.29.85-.29,1.52v1.52c0,.67.1,1.17.29,1.52.2.35.53.52.99.52s.8-.17.99-.52Z" fill="#fffbf3"/>
          <path d="m163.62,5.52h-3.42v-1.59h3.42v1.59Z" fill="#fffbf3"/>
          <path d="m165.15,8.26v-1.53l2.53-2.17c.45-.39.77-.73.95-1.02s.28-.6.28-.94v-.17c0-.31-.11-.55-.33-.73-.22-.18-.49-.27-.8-.27-.37,0-.66.11-.88.32s-.37.5-.46.85l-1.45-.56c.2-.61.54-1.1,1.04-1.48.49-.38,1.13-.57,1.91-.57.57,0,1.06.1,1.47.31.41.21.73.5.95.86s.33.79.33,1.26c0,.44-.09.83-.28,1.19-.18.36-.42.68-.71.97s-.67.62-1.14,1l-1.6,1.27h3.9v1.4h-5.7Z" fill="#fffbf3"/>
          <path d="m172.35,8.26v-1.53l2.53-2.17c.45-.39.77-.73.95-1.02s.28-.6.28-.94v-.17c0-.31-.11-.55-.33-.73-.22-.18-.49-.27-.8-.27-.37,0-.66.11-.88.32s-.37.5-.46.85l-1.45-.56c.2-.61.54-1.1,1.04-1.48.49-.38,1.13-.57,1.91-.57.57,0,1.06.1,1.47.31.41.21.73.5.95.86s.33.79.33,1.26c0,.44-.09.83-.28,1.19-.18.36-.42.68-.71.97s-.67.62-1.14,1l-1.6,1.27h3.9v1.4h-5.7Z" fill="#fffbf3"/>
          <path d="m185.57,6.92v1.34h-5.62v-1.34h2.19V1.35h-.1l-1.69,2.13-1.05-.84,1.96-2.49h2.55v6.78h1.76Z" fill="#fffbf3"/>
          <path d="m190.12,5.52h-3.42v-1.59h3.42v1.59Z" fill="#fffbf3"/>
          <path d="m192.22,8.26c1.06-.75,1.87-1.44,2.42-2.05.55-.61.9-1.29,1.05-2.04l-.09-.03c-.18.37-.41.66-.69.89-.28.22-.66.33-1.13.33-.44,0-.85-.1-1.21-.32-.36-.21-.65-.51-.85-.89-.21-.38-.31-.82-.31-1.32,0-.55.12-1.04.37-1.47.25-.43.6-.77,1.05-1.01.45-.24.98-.36,1.58-.36.63,0,1.17.13,1.62.39.45.26.8.64,1.04,1.12.24.48.36,1.05.36,1.7,0,.72-.14,1.41-.42,2.06-.28.65-.64,1.23-1.09,1.73s-.91.92-1.41,1.26h-2.29Zm3.14-4.51c.23-.23.34-.55.34-.97v-.18c0-.42-.11-.74-.34-.97-.23-.23-.54-.34-.95-.34s-.72.11-.94.34c-.22.22-.33.55-.33.97v.18c0,.42.11.74.33.97.22.23.54.34.94.34s.72-.11.95-.34Z" fill="#fffbf3"/>
          <path d="m200.05,8.1c-.45-.2-.8-.48-1.04-.84-.24-.36-.35-.77-.35-1.22,0-.5.14-.92.43-1.25.28-.33.68-.57,1.18-.71v-.09c-.42-.16-.75-.39-1-.7-.24-.31-.37-.7-.37-1.15,0-.42.11-.79.32-1.11s.53-.57.95-.75c.42-.18.91-.27,1.49-.27s1.07.09,1.49.27c.42.18.73.43.95.75.21.32.32.69.32,1.11,0,.45-.12.83-.37,1.15-.24.31-.58.55-1,.7v.09c.5.14.9.38,1.18.71.28.33.43.75.43,1.25,0,.46-.12.87-.35,1.22-.24.36-.58.64-1.04.84-.45.2-.99.3-1.61.3s-1.16-.1-1.61-.3Zm2.54-1.26c.22-.19.33-.46.33-.81v-.23c0-.34-.11-.61-.33-.8-.22-.19-.53-.29-.93-.29s-.71.1-.93.29c-.22.19-.33.46-.33.8v.23c0,.35.11.62.33.81.22.19.53.29.93.29s.71-.1.93-.29Zm-.04-3.61c.21-.18.31-.43.31-.75v-.19c0-.32-.1-.58-.31-.75-.21-.18-.5-.27-.89-.27s-.68.09-.89.27c-.21.18-.31.43-.31.75v.19c0,.33.1.58.31.75.21.18.5.27.89.27s.68-.09.89-.27Z" fill="#fffbf3"/>
          <path d="m207.25,8.1c-.45-.2-.8-.48-1.04-.84-.24-.36-.35-.77-.35-1.22,0-.5.14-.92.43-1.25.28-.33.68-.57,1.18-.71v-.09c-.42-.16-.75-.39-1-.7-.24-.31-.37-.7-.37-1.15,0-.42.11-.79.32-1.11s.53-.57.95-.75c.42-.18.91-.27,1.49-.27s1.07.09,1.49.27c.42.18.73.43.95.75.21.32.32.69.32,1.11,0,.45-.12.83-.37,1.15-.24.31-.58.55-1,.7v.09c.5.14.9.38,1.18.71.28.33.43.75.43,1.25,0,.46-.12.87-.35,1.22-.24.36-.58.64-1.04.84-.45.2-.99.3-1.61.3s-1.16-.1-1.61-.3Zm2.54-1.26c.22-.19.33-.46.33-.81v-.23c0-.34-.11-.61-.33-.8-.22-.19-.53-.29-.93-.29s-.71.1-.93.29c-.22.19-.33.46-.33.8v.23c0,.35.11.62.33.81.22.19.53.29.93.29s.71-.1.93-.29Zm-.04-3.61c.21-.18.31-.43.31-.75v-.19c0-.32-.1-.58-.31-.75-.21-.18-.5-.27-.89-.27s-.68.09-.89.27c-.21.18-.31.43-.31.75v.19c0,.33.1.58.31.75.21.18.5.27.89.27s.68-.09.89-.27Z" fill="#fffbf3"/>
        </g>
      </g>
      <g>
        <path d="m6.23,37.98c1.04.94,2.34,2.3,2.91,3.21l-.86.64c-.17-.28-.39-.59-.64-.91-6.09.32-6.8.34-7.3.52-.04-.21-.22-.72-.33-1.01.27-.04.54-.28.91-.63.39-.37,1.64-1.73,2.45-3.07l1.03.44c-.8,1.12-1.74,2.19-2.65,3.06l5.15-.21c-.48-.53-.99-1.06-1.46-1.51l.8-.54Zm-5.4,4.31h7.18v4.7h-1.1v-.56H1.87v.59H.83v-4.72Zm1.04.99v2.15h5.04v-2.15H1.87Z" fill="#fff"/>
        <path d="m23.51,38.78v5.29h-1.07v-.6h-2.88v3.52h-1.07v-3.52h-2.87v.65h-1.03v-5.35h3.9v-1.93h1.07v1.93h3.96Zm-5.03,3.69v-2.68h-2.87v2.68h2.87Zm3.95,0v-2.68h-2.88v2.68h2.88Z" fill="#fff"/>
        <path d="m34.16,39.41v1.37h3.56v3.8c0,.54-.11.85-.52,1.01-.41.17-1.03.18-1.93.18-.04-.29-.21-.73-.37-1.01.66.02,1.33.02,1.51.02.19-.01.24-.06.24-.21v-2.78h-2.49v5.18h-1.07v-5.18h-2.34v4h-1.04v-5.01h3.38v-1.37h-4.39v-1.01h4.59c-.18-.42-.43-.94-.65-1.35l1.01-.3c.3.51.69,1.22.84,1.65h4.15v1.01h-4.48Z" fill="#fff"/>
        <path d="m47.96,44.09l.18.92c-1.57.67-3.28,1.36-4.55,1.87l-.47-1.04c.78-.25,1.87-.64,3.04-1.08v-4.19h-2.68v-1.03h2.68v-2.5h1.06v7.32l.74-.28Zm3.64,1.52c.45,0,.52-.52.59-2.57.25.21.71.42.99.49-.1,2.28-.34,3.09-1.48,3.09h-1.41c-1.07,0-1.38-.38-1.38-1.68v-7.89h1.07v2.49h2.98v1.02h-2.98v4.39c0,.56.07.66.45.66h1.17Z" fill="#fff"/>
        <path d="m66.33,45.87c.55,0,.65-.27.74-1.35.24.18.66.35.95.41-.14,1.41-.44,1.87-1.63,1.87h-2.37c-1.34,0-1.73-.35-1.73-1.72v-1.22h-3.4v-3.79h1.02v2.83h2.38v-3.61h-4.09v-.98h4.09v-1.46h1.06v1.46h4.02v.98h-4.02v3.61h2.42v-2.83h1.07v3.79h-3.49v1.23c0,.65.1.78.75.78h2.22Z" fill="#fff"/>
        <path d="m80.45,45.59c.64,0,1.5-.04,1.92-.13.03.27.1.74.16.97-.34.09-1.24.11-2.1.11h-4.64c-1.81,0-2.65-.57-2.65-2.35v-5.98h-.44v-.91h9.29v.91h-7.84v6.06c0,.94.38,1.32,1.54,1.32h4.77Zm-5.61-3.6h2.94v2.89h-2.94v-2.89Zm.84,2.16h1.21v-1.43h-1.21v1.43Zm4.52-2.79h-4.19v-2.51h4.19v2.51Zm-1.02-1.82h-2.22v1.11h2.22v-1.11Zm2.27,5.34h-3.02v-2.89h3.02v2.89Zm-.9-2.16h-1.27v1.43h1.27v-1.43Z" fill="#fff"/>
        <path d="m89.89,42.05c-.2.97-.5,2.03-.88,2.85.2.12.45.31.83.54.78.47,1.78.53,3.08.53s3.21-.1,4.44-.25c-.12.28-.28.79-.3,1.06-.86.06-2.89.12-4.19.12-1.45,0-2.4-.12-3.21-.59-.44-.25-.84-.64-1.09-.64s-.62.72-.93,1.4l-.7-.95c.37-.48.73-.89,1.07-1.12.3-.6.56-1.42.74-2.18h-1.4c.28-.65.62-1.58.9-2.45h-1.13v-.9h2.39c-.25.78-.57,1.68-.86,2.46h.61l.17-.04.44.17Zm-1.58-3.05c-.13-.49-.4-1.26-.59-1.85l.86-.24c.22.58.49,1.32.64,1.79l-.92.3Zm2.25-.17c.23.2.53.48.76.71.28-.28.5-.61.71-.95h-2.05v-.85h2.46c.11-.28.21-.59.29-.91l.97.16c-.07.27-.14.51-.22.75h3.51v.85h-2.12c.19.33.42.67.68.95.23-.24.48-.53.62-.73l.76.43c-.3.28-.61.57-.89.81.4.34.84.64,1.31.84-.2.18-.49.51-.63.74-.32-.17-.64-.37-.93-.61v1.88h-1.99v2.71h-.97v-2.71h-1.82v-1.83c-.28.2-.58.37-.89.53-.14-.2-.49-.58-.7-.75.48-.2.91-.46,1.3-.76-.23-.27-.54-.59-.81-.83l.64-.43Zm1.62,4.56c-.45.61-1.12,1.35-1.64,1.82-.15-.15-.5-.45-.71-.59.53-.41,1.11-1.01,1.5-1.53l.85.3Zm2.65-2.96h-2.87v.58h2.87v-.58Zm0,1.22h-2.87v.58h2.87v-.58Zm-1.71-3.07c-.21.42-.45.82-.73,1.17h2.23c-.25-.37-.5-.76-.68-1.17h-.82Zm2.07,4.46c.49.47,1.14,1.13,1.47,1.53l-.74.54c-.32-.41-.96-1.11-1.44-1.61l.71-.47Z" fill="#fff"/>
        <path d="m105.41,37.66c-.31.93-.7,2.08-1.05,2.95.75.88.92,1.64.92,2.3s-.13,1.1-.45,1.32c-.17.11-.38.19-.6.22-.21.02-.48.02-.73.01-.01-.25-.09-.64-.24-.89.23.02.42.02.56.01.13,0,.24-.03.34-.1.15-.11.2-.38.2-.7,0-.55-.18-1.27-.9-2.07.28-.74.56-1.73.78-2.48h-1.19v8.77h-.91v-9.7h2.44l.15-.03.68.39Zm2.14,4.64c-.11.23-.22.45-.35.67h4.33l-.03.38c-.11,2.16-.25,3-.53,3.31-.18.21-.37.29-.63.32-.22.03-.61.04-1.02.02-.02-.27-.1-.63-.23-.86.34.03.65.04.79.04.14,0,.22-.01.31-.11.14-.19.25-.79.35-2.29h-.52c-.46,1.31-1.24,2.46-2.14,3.2-.13-.14-.47-.44-.65-.59.8-.61,1.48-1.54,1.88-2.61h-.75c-.63,1.23-1.63,2.3-2.67,3-.11-.17-.4-.5-.58-.65.91-.55,1.75-1.38,2.3-2.35h-.76c-.39.49-.82.9-1.29,1.23-.13-.18-.47-.49-.64-.64.76-.49,1.45-1.22,1.89-2.06h-1.33v-.84h6.59v.84h-4.32Zm3.47-1.4h-4.83v-3.64h4.83v3.64Zm-.97-2.89h-2.91v.71h2.91v-.71Zm0,1.42h-2.91v.72h2.91v-.72Z" fill="#fff"/>
        <path d="m126.3,45.43v1.02h-9.78v-1.02h2.64c.2-.96.41-2.14.62-3.35h-1.97v-1.01h2.14c.11-.74.21-1.47.31-2.17h-3.06v-1.01h8.35v1.01h-4.17c-.1.7-.21,1.43-.32,2.17h2.44l.2-.04.8.07c-.08,1.24-.22,2.9-.39,4.33h2.19Zm-5.42-3.35c-.2,1.22-.41,2.39-.6,3.35h2.74c.13-1.11.24-2.37.31-3.35h-2.45Z" fill="#fff"/>
        <path d="m133.95,39.4c-.24.54-.55,1.07-.89,1.58v6.04h-.95v-4.76c-.28.31-.56.61-.84.85-.1-.2-.4-.71-.58-.92.91-.75,1.81-1.92,2.34-3.1l.92.31Zm-.27-2.22c-.56.92-1.46,1.94-2.3,2.59-.12-.21-.39-.58-.55-.78.74-.54,1.53-1.43,1.92-2.16l.94.34Zm4.39,8.52c-1.58.21-3.23.4-4.44.54l-.11-.95c.51-.04,1.13-.11,1.81-.18v-1.54h-1.5v-.89h1.5v-1.25h.98v1.25h1.51v.89h-1.51v1.43c.56-.07,1.16-.13,1.74-.2l.03.9Zm-2.73-6.68h-1.37v-.88h1.37v-1.31h.96v1.31h1.38v.88h-1.38v1.3h1.57v.91h-4.12v-.91h1.58v-1.3Zm5.73,2.3h-.93v4.5c0,.53-.1.84-.45,1-.34.18-.89.19-1.66.19-.03-.29-.17-.73-.29-1.03.53.01,1.03.02,1.19.01.15,0,.2-.04.2-.19v-4.48h-1.05v-.92h3v.92Zm-.14-2.95h-2.77v-.92h2.77v.92Z" fill="#fff"/>
        <path d="m146.05,45.08h1.78v-5.67h-1.46v-.81c.76-.14,1.31-.33,1.77-.62h.96v7.1h1.6v1.05h-4.65v-1.05Z" fill="#fff"/>
        <path d="m155.26,45.16l.62-.82c.48.49,1.09.9,1.93.9.92,0,1.55-.51,1.55-1.35,0-.91-.58-1.5-2.42-1.5v-.94c1.61,0,2.14-.61,2.14-1.43,0-.72-.48-1.17-1.25-1.19-.63.01-1.16.32-1.63.78l-.67-.8c.64-.58,1.4-.99,2.34-.99,1.46,0,2.49.75,2.49,2.1,0,.94-.54,1.6-1.41,1.92v.06c.94.23,1.68.94,1.68,2.04,0,1.47-1.23,2.34-2.73,2.34-1.28,0-2.12-.51-2.66-1.12Z" fill="#fff"/>
        <path d="m165.76,45.08h1.78v-5.67h-1.46v-.81c.76-.14,1.31-.33,1.77-.62h.96v7.1h1.6v1.05h-4.65v-1.05Z" fill="#fff"/>
        <path d="m178.73,42.9s-.01.24-.02.38c-.14,2.09-.28,2.96-.58,3.27-.18.21-.38.29-.68.32-.24.03-.66.03-1.12,0-.01-.25-.11-.62-.25-.85.42.03.81.04.97.04.16,0,.25-.02.34-.11.17-.18.3-.76.4-2.24h-2.19c.13-.49.3-1.14.41-1.76h-.9v-.9h4.02v.9h-2.25c-.07.32-.13.65-.2.95h2.04Zm.17-2.61h-3.26v-3h3.26v3Zm-.8-2.25h-1.71v1.5h1.71v-1.5Zm5.79,3.9c.19,0,.55-.01.71-.07.01.27.03.52.07.75-.17.07-.47.08-.74.08h-1.25c-.8,0-.97-.38-.97-1.16v-.17l-.94.1-.1-.72,1.04-.1v-.83h-1.24v1.98c0,1.54-.16,3.75-1.1,5.22-.14-.17-.55-.44-.75-.54.85-1.36.95-3.27.95-4.69v-2.79h2.15v-2.16h.98v.69h2.17v.83h-2.17v.64h1.89l.16-.04.62.16c-.12.68-.3,1.47-.44,1.98l-.76-.19c.07-.29.14-.69.21-1.09h-1.78v.74l1.25-.12.09.71-1.34.13v.28c0,.27.03.38.27.38h1.05Zm-1.84,1.23c-.08,1.79-.32,3.08-1.54,3.85-.1-.21-.35-.54-.55-.67,1-.62,1.19-1.7,1.24-3.18h.85Zm2.19,2.72c.1,0,.21-.01.25-.05.04-.03.1-.11.12-.21.02-.18.04-.59.03-1.07.18.16.49.33.73.41-.01.52-.06,1.06-.12,1.25-.08.22-.19.37-.34.46-.14.08-.39.13-.6.13h-.6c-.24,0-.52-.06-.68-.21-.18-.17-.21-.33-.21-.89v-2.53h.85v2.49c0,.07.01.13.07.17.04.03.11.05.21.05h.28Z" fill="#fff"/>
      </g>
    </g>
  </g>
</svg>