<?xml version="1.0" encoding="UTF-8"?>
<svg id="_圖層_2" data-name="圖層 2" xmlns="http://www.w3.org/2000/svg" width="141.93" height="216.01" viewBox="0 0 141.93 216.01">
  <g id="_圖層_1-2" data-name="圖層 1">
    <g>
      <path d="m105.36,82.98c2.76-5.56,4.28-11.83,4.16-18.46-.22-12.4-6.06-23.38-15.05-30.55l-50.91.9c-8.73,7.49-14.18,18.66-13.96,31.06.12,6.63,1.85,12.85,4.81,18.3C13.42,96.87-.45,120.04.01,146.3c.69,39.19,33.02,70.4,72.21,69.7,39.19-.69,70.4-33.02,69.7-72.21-.46-26.26-15.14-48.92-36.56-60.81Z" fill="#18933b"/>
      <path d="m102.38,55.04c.66,5.42-.13,10.91-1.16,16.28-.62,3.23-3.37,9.7-11.27,14.98-6.81,4.56-15.77,5.17-23.91,4.23s-16.06-4.7-21.39-10.93c-5.32-6.23-7.8-14.99-5.81-22.94,1.61-6.44,6.1-12.09,12-15.12,5.22-2.68,11.24-3.29,17.11-3.5,8.03-.28,17.76-.81,25.56,1.43,5.58,1.6,8.27,10.55,8.88,15.57Z" fill="#fff"/>
      <path d="m93.38,34.61c-9.46,5.78-24.26,5.46-24.26,5.46,0,0-15.32.87-24.96-4.9l-.8-.5S65.14,18.22,63.82.16l4.59-.08,4.59-.08c-.68,18.09,21.68,33.76,21.68,33.76l-1.3.86Z" fill="#231815"/>
      <path d="m84.15,144.02s.14.04.28.18c.23,0,.33-.05.32-.19l.43.46c.23.04.52.13.71.22.28.09.42.13.56.18.09.04.14.04.19.04,0,.19.05.28.19.28.33,0,.56.04.8.13.14.04.38.18.71.36.05.05.19.09.33.18s.28.14.38.18c0,.23.05.33.15.32h.42c.19.18.24.32.15.41-.09.1-.14.24-.13.47,0,.09.1.14.28.14l.32-.29c0,.09.1.14.28.14,0,.14.1.37.29.6.09,0,.19.04.28.14.14.09.24.09.33,0,0,.14.1.33.29.46.19.09.28.18.29.28h.33s.86,1.1.86,1.1l1,1.11c.24.28.48.55.81.87.39.6.4,1.21.03,1.82-.14.14-.56.34-1.16.58-.23,0-.7.2-1.3.63-.23.1-.28.33-.22.75v.37c.06.09.06.19.1.23v.14c-.28,0-.56,0-.89-.03-.47-.04-.8-.08-1.03-.22,0-.23-.05-.33-.15-.33-.23,0-.38-.04-.47-.13,0,.09-.09.14-.28.14-1.04-.68-1.89-1.04-2.5-1.13,0-.23-.05-.33-.15-.33l-.18.19c-.09,0-.19-.04-.28-.18l-.29-.28h-.28c-.43-.27-.99-.59-1.7-.95-.52-.23-.99-.4-1.42-.63-.8-.5-1.18-.77-1.19-.87,0,.09-.09.14-.32.15-.19-.18-.43-.32-.66-.46-.38-.23-.66-.41-.81-.59l-.14.19c-1.52-1.05-2.37-1.64-2.51-1.78h-.33c-.53-.59-1.09-.91-1.61-1-.09,0-.24-.14-.48-.46-.19-.28-.38-.37-.57-.27l-.89.02c-.09.1-.13.56-.12,1.36l.14.28c-.09.1-.13.33-.13.75.1.37.16.89.17,1.59.01.65.07,1.12.17,1.4.19.42.29.79.3,1.02.15.28.2.7.21,1.21l.02,1.22c0,.09.1.14.28.14l-.14.14c.09,0,.19.09.29.28l.15.32.02.89c0,.42.06.7.16.89-.09,0-.14.1-.13.33,0,.19-.04.28-.14.28.1.09.14.23.15.47-.4,1.18-.72,1.88-.85,2.12v.42s-.14-.14-.14-.14c-.09.1-.23.14-.42.15-.09,0-.19.1-.28.33-.18.24-.27.38-.32.43l-.88.48c-.19.1-.56.06-1.17-.12-.09.1-.18.14-.28.14-1.13-.4-1.89-.86-2.22-1.32,0-.14-.05-.23-.15-.37-.14-.18-.24-.32-.29-.37-.1-.09-.14-.18-.15-.28-.14-.18-.24-.51-.34-.98-.1-.47-.15-.79-.16-.98l-.51-5.23v-.23c-.05-.14-.1-.33-.11-.65-.1-.33-.1-.61-.16-.93-.16-1.17-.27-2.01-.28-2.52l.09-.47c.04-.14.04-.33.04-.56,0-.14-.1-.19-.28-.18.09-.28.12-1.41.08-3.42l-.02-.94.14-.14-.14-.14.14-.14c-.24-.23-.38-.32-.43-.32-.51.34-1.06.91-1.75,1.72-.23.33-.55.67-.87,1.05-.32.38-.5.57-.55.62l.14.14c-.92.86-1.65,2.04-2.14,3.5,0,.09-.09.14-.28.14s-.28.05-.28.15l.15.32s-.23.1-.46.29v.28c-1.64,2.18-2.6,3.56-2.82,4.12,0,.14-.09.24-.32.38-.18.14-.32.29-.41.52-.18.42-.45.76-.87,1.04h-.28c-.09,0-.14.1-.13.34-.42,0-.65.06-.75.15l-.14-.14-.14.14-.14.14h-.14s0-.14,0-.14v-.14s-.19,0-.19,0l-.14.14-.14.14c-.61-.08-.99-.45-1.19-1.15-.28.29-.51.24-.75-.17-.2-.79-.32-2.01-.35-3.74.19,0,.28-.05.28-.14-.09,0-.14-.18-.15-.61.19-.05.28.04.33.18l1.69-2.28c.04-.14.18-.38.36-.61l.5-.71c.23-.33.37-.47.41-.52v-.28c.32-.24.59-.62.86-1.14.27-.52.55-.9.87-1.14-.09,0-.14.1-.14.28l.14.14c.51-.29,1.06-.86,1.65-1.76.64-.85,1.05-1.38,1.24-1.57.18-.19.23-.42.13-.75l-.14-.14-.46.43c.23-.14.42-.33.64-.62.09-.1.23-.24.37-.38.14-.19.28-.33.32-.38l.14.18c.41-.9.91-1.42,1.42-1.52.09,0,.14-.1.13-.33-.1-.18-.42-.09-1.02.35h-.28s.18-.23.18-.23l.09-.1c-.38-.37-.66-.32-.89.16,0,.14.1.19.33.18-.09.1-.23.14-.47.15l.14-.14c-.1-.23-.47-.23-1.17.02,0,.09.1.14.33.13-.61.01-.98.11-1.16.3,0,.33-.04.47-.18.47-.19,0-.47.1-.84.29-.23,0-.61-.08-1.22-.26l-.14.14c-.1-.09-.33-.18-.66-.27-.38-.13-.66-.32-.8-.45-.19-.18-.28-.14-.28.14l.14-.14-.48-.46h-.28s-.33-.32-.33-.32c-.05-.05-.1-.19-.24-.42h-.33s-.44-.88-.44-.88c.09-.09.14-.19.14-.28l-.76-.74c-.14-.14,0-.42.31-.89.27-.43,1.2-1.1,2.73-2.01.14-.14.28-.33.37-.47.14-.19.32-.33.46-.43l.32-.33h.33c1.99-1.35,3.94-2.23,5.94-2.64,0,.09-.04.14-.14.14h-.23s-.19,0-.19,0v.14c0,.09.29.14.85.13.79-.34,1.81-.64,3.07-.99,1.07-.3,2.05-.6,2.93-.89-.1-.09-.15-.32-.11-.75v-.33c.04-.14.04-.24.08-.28v-.14s.27-.29.27-.29c-.09,0-.14-.09-.15-.33,0-.05.04-.19.09-.38.04-.19.13-.33.18-.38.23,0,.33-.05.33-.15l-.14-.14c-.14,0-.14-.04-.05-.14.23-.24.41-.57.59-1.09.13-.47.36-.85.63-1.18.23-.33.6-.39,1.12-.21l.14-.14.29.32c.19,0,.28-.05.28-.19l.33.32c.47,0,.89.26,1.33.87.29.37.34.88.17,1.49l.14.14c-.18.42-.27.75-.26.89s.14.18.42.18v.28c0,.19.06.28.15.28-.09,0-.14.1-.13.33.19.18.38.27.61.27.51-.29.88-.34,1.17-.16l.28-.29c.19.09.75.13,1.64.11.42,0,1.17-.07,2.34-.18,1.17-.16,2.06-.18,2.62-.05.42.18.71.27.89.27l.14-.1.14-.05c.75.27,1.5.39,2.21.38l.32-.29s.23.04.52.13c.24.09.37.04.51-.15.1.09.24.18.47.27.24.14.42.23.52.32h.61c.19-.01.47.07.8.26.43.23.71.31.8.31,1.04.73,1.71,1.23,1.94,1.46.24.23.67.74,1.2,1.48.24.42.29.65.15.75,0,.09-.04.14-.14.14s-.14.05-.14.14c.21,1.21-.2,2.06-1.26,2.6h-.28c-.05.05-.09.1-.23.2l-.28.19c-.23.14-.42.24-.51.38,0,.19-.04.28-.14.28-.23,0-.61.15-1.02.49-.51.29-.88.44-1.16.44,0-.19-.05-.28-.19-.28-.19-.09-.42-.13-.7-.13s-.47-.04-.61-.18c-.14.14-.23.19-.28.19l-.14-.18c-.14.14-.37.19-.75.2l-.14-.18c0,.23-.18.28-.51.2-.28-.14-.52-.18-.66-.18,0-.19-.05-.28-.15-.28,0,.09-.09.14-.28.14-.23,0-.33.05-.33.15,0-.09-.1-.14-.19-.14l-.14.14-.14-.14-.14.14c0-.09-.1-.14-.33-.13-.09.1-.18.14-.28.14-.19-.09-.7-.13-1.59-.11-.14.1-.23.14-.33.15s-.14-.04-.19-.18l-.1-.23-.41.43c-.14,0-.23-.04-.33-.13-.09,0-.14.05-.14.1s-.05.05-.14.05l-.24-.14c-.14-.09-.24-.09-.33,0,.19.09.56-.06,1.16-.44-.33-.23-1.36-.3-3.09-.27-.09,0-.14.14-.13.47l-.14-.14-.18.14-.14.14h-.28c-.09.15-.23.2-.37.25-.09.05-.28.1-.51.15-.23.05-.37.1-.42.1l.14-.19c0-.09-.1-.14-.28-.14-.14.14-.18.28-.18.47-.28.19-.55.95-.8,2.26l.15.28c-.09.1-.14.28-.13.61.05.05.1.23.06.47-.04.14-.04.28-.04.42.14.23.43.32.85.31,1.63-.36,4.82.1,9.57,1.33.05,0,.24.09.47.27.19.18.33.28.43.27h-.09Z" fill="#231815"/>
      <g>
        <path d="m60.69,50.51c.29-.61.14-1.6-.59-1.88-1.72-.65-3.5-.76-5.29-.32-1.64.4-3.19,1.33-4.3,2.6-.48.55-.52,1.47.07,1.97.56.48,1.45.52,1.97-.07.19-.21.39-.4.6-.6,0,0,.04-.03.07-.07.02-.02.05-.04.07-.07-.03.02-.04.04-.06.06.02-.02.04-.03.05-.04.07-.05.14-.1.21-.15.14-.1.29-.19.44-.28.15-.09.3-.17.46-.25,0,0,0,0,0,0,.05,0,.15-.07.18-.08.32-.13.65-.24.99-.33.09-.02.38-.04.45-.1,0,0,0,0,0,0,.09-.01.17-.02.26-.03.35-.04.69-.05,1.04-.04.06,0,.11,0,.17,0,.02,0,.05,0,.07,0,.17.02.34.05.51.08.16.03.31.07.46.11.08.02.17.05.25.07.09.03.43.15.02,0,.36.14.68.21,1.06.09.33-.1.67-.37.82-.68Z" fill="#02292e" stroke="#06292f" stroke-miterlimit="10" stroke-width=".74"/>
        <path d="m53.14,52.21s.02-.02.08-.08c0,0,0,0-.01,0-.02.02-.05.05-.07.07Z" fill="#02292e" stroke="#06292f" stroke-miterlimit="10" stroke-width=".74"/>
      </g>
      <path d="m89.67,49.24c-3.11-1.47-6.68-1.85-10.05-1.19-.74.14-1.21.95-1.04,1.67.17.75.93,1.19,1.67,1.04,2.89-.56,5.83-.16,8.58,1.13.68.32,1.54-.25,1.75-.9.25-.79-.22-1.43-.9-1.75Z" fill="#02292e" stroke="#06292f" stroke-miterlimit="10" stroke-width=".74"/>
      <path d="m85.51,53.65c-1.54.12-3.06.34-4.57.65-.37,0-.76.17-.95.48,0,0,0,0,0,0-.18.23-.27.53-.2.83.09.37.35.68.69.82,1.02.79,2.07,1.54,3.15,2.25.48.31,1.2.21,1.51-.3.3-.5.21-1.18-.3-1.51-.41-.27-.81-.55-1.22-.83.76-.11,1.52-.19,2.28-.25.57-.05,1-.73.87-1.26-.14-.62-.66-.92-1.26-.87Z" fill="#02292e" stroke="#06292f" stroke-miterlimit="10" stroke-width=".56"/>
      <path d="m60.34,54.93c-.29-.28-.63-.35-1.02-.38-.45-.04-.89-.06-1.34-.1-.89-.06-1.79-.13-2.68-.19-.26-.02-.59.17-.75.35-.18.2-.31.51-.29.78.02.28.13.57.35.75.23.2.48.26.78.29.52.04,1.04.08,1.57.11-.6.44-1.21.86-1.83,1.27-.48.31-.67,1.02-.33,1.5.34.48.99.66,1.5.33.72-.47,1.42-.96,2.11-1.47.34-.25.69-.51,1.02-.78.17-.13.34-.27.5-.4.24-.19.49-.36.63-.64.25-.47.15-1.05-.23-1.42Z" fill="#02292e" stroke="#06292f" stroke-miterlimit="10" stroke-width=".56"/>
      <path d="m73.21,55.21c-.3-.52-.7-.99-1.16-1.36-.49-.4-1.11-.78-1.75-.91-.78-.16-1.49.26-2.1.71-.52.38-.99.83-1.39,1.34-.33.42-.34,1.07.1,1.42.41.33,1.08.35,1.42-.1.15-.19.3-.37.47-.54.05-.05.09-.09.14-.14,0,0,.03-.03.05-.05.03-.03.08-.06.09-.07.04-.03.08-.07.13-.1.19-.15.39-.28.59-.4.04-.03.09-.05.14-.08,0,0,.02,0,.02,0,.06.02.11.05.17.07.1.05.2.1.29.15.04.02.08.05.12.07,0,0,0,0,0,0,.09.07.18.13.26.2.08.07.17.15.24.22,0,0,.06.06.09.09,0,0,0,.01.01.02.15.18.28.37.39.58.26.46.99.58,1.4.27.47-.35.55-.91.27-1.4Z" fill="#02292e" stroke="#06292f" stroke-miterlimit="10" stroke-width="1.48"/>
      <path d="m80.92,71.73c.81-1.26,1.48-2.6,1.92-4.04.27-.88.81-2.26.1-2.99,0,0,0,0,0,0-.11-.17-.24-.27-.38-.32,0,0,0-.02.01-.03-.18-.14-.41-.21-.67-.14-7.57,1.91-15.51,2.02-23.14.37-.94-.2-1.18,1.28-.24,1.48.32.07.64.13.96.19.07.1.19.19.35.24,1.24.38,1.89,2.12,2.5,3.17.69,1.18,1.39,2.36,2.22,3.45,1.48,1.95,3.37,3.66,5.77,4.37.7.21,1.41.29,2.12.28.12.07.27.1.45.08.51-.07,1.01-.18,1.49-.33.08.01.17.01.26,0,2.72-.6,4.86-3.55,6.28-5.77Zm-3.78,2.36c-.22.24-.46.48-.7.72-.05.02-.09.05-.14.08-.87.64-1.83,1.08-2.87,1.32-1.64.28-3.33-.19-4.74-1.12-1.92-1.27-3.27-3.19-4.45-5.13-.56-.92-1.1-2.2-1.83-3.23,6.12.83,12.34.57,18.39-.76.04.03.07.06.11.08.06-.02.13-.03.2-.02.1.01.21.09.27.17,0,.01.02.03.03.05.13.11.21.29.22.45,0,.18-.03.35-.1.51-.06.16-.16.31-.25.45-.01.02-.02.03-.04.05-.12.33-.24.65-.38.97-.47,1.06-1.05,2.05-1.73,2.99-.61.85-1.28,1.65-2,2.4Z" fill="#06292f" stroke="#06292f" stroke-linejoin="round" stroke-width="2.22"/>
    </g>
  </g>
</svg>