<?xml version="1.0" encoding="UTF-8"?>
<svg id="_圖層_2" data-name="圖層 2" xmlns="http://www.w3.org/2000/svg" width="222.65" height="329.04" viewBox="0 0 222.65 329.04">
  <g id="icon">
    <g>
      <path d="m194.9,144.23c7.01-6.74,12.56-15.21,15.89-25.07,6.23-18.42,3.4-37.72-6.08-53.06l-75.65-25.57c-16.85,6.44-30.8,20.07-37.03,38.49-3.33,9.85-4.05,19.95-2.57,29.57-37.67,7.58-70.39,34.46-83.58,73.48-19.68,58.23,11.57,121.39,69.8,141.07,58.23,19.68,121.39-11.57,141.07-69.8,13.19-39.02,3.48-80.23-21.87-109.11Z" fill="#fac959"/>
      <path d="m205.26,101.4c-1.89,8.35-5.95,16.05-10.32,23.42-2.63,4.43-10.1,12.54-24.55,16.17-12.47,3.13-26.02-.69-37.54-6.38s-21.24-15.42-25.81-27.43c-4.57-12.01-3.6-26.26,3.54-36.95,5.77-8.65,15.4-14.63,25.71-15.98,9.13-1.19,18.34,1.08,27.11,3.87,12.01,3.82,26.65,8.18,36.98,15.61,7.39,5.31,6.63,19.95,4.88,27.67Z" fill="#fff"/>
      <path d="m202.75,66.48c-17.03,3.53-38.71-4.76-38.71-4.76,0,0-23.09-6.81-34.27-20.43l-.92-1.17S169.71,27.36,177.31,0l6.82,2.3,6.82,2.3c-10.56,26.36,14.18,61.3,14.18,61.3l-2.37.58Z" fill="#231815"/>
      <path d="m142.03,212.14c.21.07.23.23.11.58-.35-.12-.6-.05-.79.27l-.3.44c-.44.63-1.14,1.32-2.1,2.08-.21-.07-.97-.1-2.2-.12-.12.35-.26.53-.44.62l-.25-.16-.23-.23-.28.14c-.88-.84-1.48-.89-1.83-.31l-.56-.19c-.14-.05-.39-.44-.71-1.09.63-.72.59-1.27,0-1.62-.26.07-.4.25-.51.6-.14-.05-.23-.23-.32-.65.02-.3-.16-.67-.51-1.02l.21-.16.23-.23c-.21-.07-.25-.16-.23-.23s-.05-.09-.19-.14l-.35.11c-.2-1-.64-1.53-1.2-1.49.12-.35.14-.65.05-.84-.58-.35-1.25-1.12-2.17-2.28-.81-1.05-1.48-1.82-2.17-2.28-.18-.6-.78-1.35-1.73-2.21-.95-.86-1.59-1.7-1.92-2.58-.21-.07-.39-.21-.53-.49-.23-.23-.44-.3-.63-.21-.92-.93-3.05-3.35-6.47-7.22-.69-.93-1.06-1.44-1.2-1.49-2.37.83-3.77,1.28-4.04,1.42-.49-.16-1.16,0-2,.41-.79.51-1.4.69-1.74.57-.05.14-.19.32-.42.55-.28.14-.42.32-.49.53-.3-.02-.77.21-1.35.55-.3.21-.51.37-.61.42-.44.39-.84.65-1.14.85-.67.39-.98.6-1.07.65-.07.21-.02.3.05.33s.12.12.07.26c2.13.33,3.43.39,3.81.2l1.25.42c.07.02.39-.02.93-.23.09.19.35.35.69.47,1.35-.09,3.2.15,5.68.84l2.06.54,1.48.42c.37.05.58.12.65.14.28.33.67.54,1.3.75s.95.4,1.04.58c.26-.07.56-.04.83.05l.07.26.05.33c.35.12.58.12.86-.02.09.42.34.81.74,1.26.44.54.72.86.76.96-.86,1.41-.85,2.5.03,3.34-.54,1.6-1.22,2.69-1.96,3.29-.21-.07-.25-.16-.23-.23s-.02-.16-.16-.21c-.26.07-.42.32-.54.67l-.49-.16c-1.02.51-2.16.66-3.27.52-.21-.07-.39-.21-.69-.47-.21-.3-.44-.3-.77-.03-.05-.09-.23-.23-.53-.49-.32-.19-.51-.33-.69-.47-.58-.35-.83-.75-.85-1.14l-.37.18c-.23-.46-.88-.61-1.83-.31-.05.14-.26.53-.59,1.27s-.66,1.25-.84,1.57c-.19.32-.42.79-.84,1.34.11.35-.03,1-.33,1.9.09.19.28.33.62.44s.53.26.46.47c.07-.21.09-.28.16-.25s.16-.02.21-.16c1.25.19,2.43.59,3.55,1.2l.95-.53c.63.21,1.23.49,1.83.77.95.4,1.62.47,2.02.22.35.12.69.47,1.04,1.05.42.6.69.93.83.98s.39.44.81,1.28c.37.74.85,1.14,1.39,1.17-.02.07.05.33.32.65.3.26.42.61.3.95l-.66,1.95c-.21-.07-.3-.03-.33.05s-.12.12-.33.05c-1.01,2.06-2.43,2.82-4.3,2.19-1.46.43-2.67.57-3.48.45-.07.21-.16.25-.23.23s-.16.02-.23.23c-.65.32-1.07.18-1.25-.42-.53.21-1.28.11-2.18-.2-.05.14-.21.16-.56.04s-.51-.1-.58.11c-.23-.47-.3-.72-.23-.93-.28.14-.65.09-1.14-.08s-.86-.21-1.04-.12c-.33.28-.79,1.44-1.48,3.45.37.51.23.93-.42,1.25-.05,1.3-.48,3.25-1.23,5.7l-1.13,3.8c.09.18.83.51,2.15.96.51.56,1.2,1.03,2.11,1.33.47-.23.58-.58.35-1.04-.35-.12-.6-.28-.69-.47.02-.07-.04-.79-.15-2.07.05-.14.14-.18.21-.16s.16-.02.23-.23c-.09-.88.15-2.04.62-3.43.4-1.18.64-2.11.64-2.81.65-.32,1.09-.48,1.23-.44-.11-.58.12-1.04.77-1.37.21.07.28.09.25.16s.02.16.16.21l.35-.12c1.11,1.07,2.01,1.84,2.57,2.26-.05.14,0,.23.07.26s.11.12.04.33c.21-.16.44-.16.79-.04,1.48,1.82,2.15,3.05,2.05,3.79-.19.09-.42.55-.7,1.39.14.28.07.72-.07,1.37-.14.65-.19,1.25-.1,1.67-.16.49-.65,1.02-1.45,1.76-.79.74-1.28,1.27-1.42,1.69.21.07.39.21.69.47.63.44,1.04.82,1.27,1.05.6.05,1.81.38,3.62.99.09.19.42.37.9.54s.74.56.78,1.12c.07.02.3.02.67.07.3.02.53.03.67.07-.12.35-.05.6.27.79l.44.3-.26.76c.58.35,1.09.91,1.41,1.56l-.85,2.5c-.14-.05-.23,0-.25.07s-.12.12-.33.05c-.05.6-.4,1.18-.98,1.76-.68.62-1.05,1.04-1.1,1.18-.16.02-1.21.14-3.2.31-1.2-.79-2.15-1.19-2.9-1.29.07-.21.02-.3-.05-.33s-.12-.12-.07-.26c-.65.32-1.14.16-1.46-.49-.86.25-1.86-.24-2.97-1.31l-.65.32c-.35-.12-.53-.26-.63-.44-.26.07-.56.04-.83-.05-.35-.12-.58-.12-.86.02-.14-.28-.39-.44-.88-.61s-.81-.35-.97-.56c-.07-.26-.28-.33-.63-.21-.26.07-.49.07-.7,0-.44-.3-1.39-.7-2.92-1.22-1.32-.45-2.39-.96-3.1-1.59-.19.09-.63.02-1.32-.21l-1.46-.49c-.35-.12-.74-.33-1.18-.63-.63-.44-.97-.79-1.06-.98-.14-.05-.49.07-.95.3l-1.53-.52-.16-.21-.23-.23c-1.46.43-2.53-.08-3.31-1.66-.47.23-.81.11-1.04-.35l-.28.14c-.65-.61-1.23-.96-1.57-1.07-.75-2.81-.44-5.11.93-6.89,1.83,1.01,3.62,1.22,5.36.65l.16-.49c.07.26.35.35.83.28.46,0,.77.03.97.1.21-.16,1.7-.2,4.48-.19.31-2.53,1.07-6.15,2.3-10.92l-.16-1.14c-.02-.39.03-.76.14-1.11-.3-.26-.83-.51-1.46-.73l-1.53-.52-.07.67-.07.44-.46-1.63c-.35-.12-1-.26-1.97-.36-1.16-.24-1.79-.45-1.88-.63l-.35.11c-.35-.12-.86-.44-1.36-1l-.3.21c-.21-.07-.37-.28-.48-.63-.28-.33-.44-.54-.51-.56.12-.35.14-.65-.02-.86-.35-.12-.53-.26-.67-.54.05-.14-.41-.84-1.45-2.12-.06-1.65.75-2.92,2.34-3.7,1.39.47,2.41.66,3.15.52.21.07.25.16.23.23s.02.16.16.21c.67-.16,2.18-.27,4.6-.31,2.07.08,3.67-.08,4.67-.51.32.65.74.79,1.25.42.07-.21.37-.65.98-1.29.26-.76.59-1.51.94-2.32.49-1.23.64-2.11.41-2.57-3.32-.5-5.12-.88-5.4-1.21l-.35.11c-.28-.09-.53-.26-.72-.4-.18-.14-.46-.23-.81-.35l-.77-.26c-.28-.09-.58-.12-.97-.1-.49-.16-1.07-.51-1.57-1.07-.07.21-.23.23-.58.11.07-.21-.05-.33-.42-.37-.32-.19-.46-.47-.37-.74l-.69-.23c-.28-.09-.58-.35-.88-.84-.23-.47-.44-.77-.58-.82.05-.14.07-.21,0-.23s-.12-.12-.04-.32c-.28.14-.51.14-.86.02-.28-.09-.58-.12-.84-.05l-.19.56c-.21-.07-.53-.03-.81.11-.6.18-.88.32-.98.37-.51.37-1.44.83-2.77,1.54-.47.23-1.3.41-2.44.57l-2.65.5c-.07-.02-.3-.02-.81-.12-.51-.1-.74-.1-.81-.12.07-.21.02-.3-.05-.33s-.05-.09,0-.23c-1.25.27-1.81-.15-1.85-1.17-.21-.07-.46,0-.74.14-.28.14-.53.21-.74.14.4-1.18.54-1.83.38-2.04-.07-.26-.53-.49-1.37-.77-.16-.21-.14-.51.03-1,.14-.42.17-.72,0-.93-.07-.25-.21-.3-.39.02-.14.19-.33.28-.47.23.28-.83.63-1.18,1.12-1.02.16-.49.58-1.04,1.14-1.55l4.53-2.42c1.98-1.04,3.63-1.8,4.79-2.25,5.37-3.06,9.51-5.23,12.53-6.61,1.35-.09,3.14-.57,5.37-1.44,2.37-.83,4.14-1.24,5.34-1.37,3.07-1.52,5.16-2.44,6.23-2.62-.09-.42.12-.58.61-.65.46,0,.77-.21.88-.55.95.17,2.14.1,3.69-.15.07.26.39.44.88.61s.81.35.95.63c-.07.67.34,1.51,1.24,2.51.9,1,1.45,1.65,1.64,2.03l1.25.42c2.91,3.07,4.48,4.61,4.83,4.73l.07.26.04.33.7.24,1.96,2.44c.97,1.26,1.68,2.12,2.22,2.61-.05.14,0,.23.07.26s.05.09-.02.3c.72.4,1.57,1.31,2.47,2.77.71,1.33,1.43,2.19,2.12,2.65.78,1.58,1.38,2.56,1.82,2.86-.07.21,0,.46.21.77.09.42.16.67.14.74.35.12.74.33,1.2.56.32.19.58.58.71,1.09.11.35.3.72.48,1.09l.97.33c.76,2.35.8,3.83.17,4.55l-.07-.02Zm-54.08,19.29c.52-1.53.31-2.76-.66-3.79.03-1.69-.89-2.86-2.77-3.49-.21.39-.79.97-1.65,1.69-.89.79-1.51,1.5-1.96,2.13-.56.74-.96,1.46-1.17,2.08l-.26.07-.32.05c-1,1.36-.96,3.08,0,5.03.77.26,1.37.31,1.9.1.21.07.28.09.25.16s.02.16.16.21c.88.14,1.69.03,2.35-.29.65-.32,1.51-1.04,2.49-2.1,1.02-.97,1.56-1.64,1.63-1.85Z" fill="#231815"/>
      <g>
        <path d="m157.33,101.34c-.25-.99-.63-1.9-1.28-2.7-.65-.8-1.43-1.4-2.33-1.89-1.67-.91-3.63-1.04-5.43-.47-.95.3-1.44,1.6-1.04,2.48.46,1,1.47,1.36,2.48,1.04,0,0,0,0,0,0,.02,0,.05-.01.06-.01.15-.03.3-.05.46-.06.02,0,.06,0,.09-.01.15,0,.29.02.44.03.14.02.28.05.43.07.03,0,.06.02.09.03.29.09.55.22.82.35.04.03.08.05.12.08.13.09.25.18.37.28.06.05.12.1.18.15,0,0,0,0,.01.01.07.07.15.16.18.19.1.12.19.24.28.37.02.03.05.07.07.1.06.12.12.24.17.36.06.15.22.74.06.11.13.51.29.92.73,1.26.37.28.94.46,1.4.37.91-.16,1.89-1.11,1.63-2.13Z" fill="#02292e" stroke="#06292f" stroke-miterlimit="10" stroke-width="2.21"/>
        <path d="m179.47,98.59c.71-1.19,1.05-2.56.83-4-.32-2.13-2.17-4.19-4.41-5.06-2.21-.86-4.72-.65-6.36.71-.96.79-1.6,1.83-1.82,2.97-.86,1.23-1.22,2.76-1.02,4.29.24,1.91,1.63,3.73,3.52,4.7.44.4.95.74,1.5.96.45.18.95.33,1.43.38.48.05.98.09,1.45.01.62-.09,1.09-.21,1.63-.46.54-.25.93-.52,1.34-.94.1-.11.19-.23.27-.35.2-.3.41-.61.54-.95.05-.11.08-.24.11-.36.37-.45.67-.96.87-1.52.05-.13.08-.26.11-.39Z" fill="#06292f"/>
        <path d="m196.86,87.5c-.26-1.28-1.72-2.4-3.16-2.26-3.84.36-7.69.66-11.56.9-1.93.12-3.87.22-5.81.31-.92.04-1.83.08-2.75.11.19-1.07-.64-2.31-1.78-2.8-1.46-.62-2.89-.04-3.48,1.11-1.11,2.14-1.48,5.87,2.26,6.57,1.37.26,2.88.03,4.23-.02,1.32-.05,2.63-.11,3.95-.17,5.33-.26,10.64-.65,15.92-1.14,1.43-.13,2.45-1.26,2.18-2.61Z" fill="#06292f"/>
        <path d="m154.33,80.56c.43-1.21.09-2.54-1.01-3.01-.87-.37-2.06.02-2.64.92-.43-.61-.86-1.21-1.28-1.82-.9-1.29-1.79-2.59-2.66-3.9-1.75-2.62-3.46-5.27-5.12-7.96-.62-1.01-2.05-1.12-2.98-.34-.98.81-1.19,2.29-.57,3.29,1.65,2.67,3.36,5.29,5.09,7.88-.02,0-.04,0-.06,0-.98-.04-1.9.53-2.67,1.25-.4.29-.76.66-1.05,1.09-.06.08-.09.17-.14.26-.02.03-.05.07-.07.1-1.04,1.42-1.74,3.08-2.01,4.83-.06.38-.09.76-.1,1.13-.23.83-.25,1.7.05,2.52.43,1.2,1.36,2.02,2.52,2.22,1.25.46,2.7.14,3.77-.74,1.55-1.28,2.64-3.22,3.35-5.07.17-.43.14-.93-.04-1.35.04-.32.06-.64.05-.95.08.12.16.23.24.35.63.89,1.23,2.01,2.07,2.69,2.28,1.85,4.45-1.11,5.26-3.38Z" fill="#06292f"/>
        <path d="m161.75,90.19s-.02-.03-.03-.04c-.01-.02-.02-.04-.03-.07-.02-.05-.07-.14-.09-.22,0-.01,0,0,0-.04-.01-.05-.02-.11-.03-.16,0-.07-.04-.19-.03-.27,0,0,0,0,0-.01,0-.05,0-.11.01-.16,0-.08.02-.16.03-.25.02-.1.02-.24.07-.32-.04.15-.05.17,0,.05.02-.05.03-.1.05-.16.04-.11.09-.22.14-.33.01-.03.11-.22.13-.26.12-.2.25-.39.39-.57.35-.45.75-.87,1.15-1.28.4-.42.27-1.23-.18-1.55-.53-.38-1.12-.27-1.55.18-.89.92-1.81,1.93-2.19,3.19-.37,1.23-.31,2.51.41,3.6.32.48,1.1.59,1.55.22.49-.4.56-1.03.22-1.55Z" fill="#02292e" stroke="#06292f" stroke-linejoin="round" stroke-width="2.21"/>
        <path d="m163.32,123.22c-.33.34-.82.52-1.43.36-10.47-2.75-21.06-5.68-29.9-12.18-1.71-1.26.53-3.7,2.24-2.45.88.65,1.79,1.24,2.71,1.82.07,0,.14.02.21.05,1.04.5,2.09.98,3.15,1.44l5.44,1.95c1.74.42,3.47.88,5.2,1.37,4.26.49,8.5,1.25,12.33,3.27.54.28.8.73.85,1.2.23.46.33.98.26,1.48.02.7-.4,1.41-1.05,1.68Z" fill="#06292f"/>
      </g>
    </g>
  </g>
</svg>