<?xml version="1.0" encoding="UTF-8"?>
<svg id="_圖層_2" data-name="圖層 2" xmlns="http://www.w3.org/2000/svg" width="7682.1" height="983.03" viewBox="0 0 7682.1 983.03">
  <g id="_畫" data-name="畫">
    <path d="m.01,949.73c404.61,8.97,795.82,9.32,798.1-23.49.04-.51.03-2.47-4.29-5.31-35.81-23.49-145.96-34.75-141.53-49.1,6.37-20.63,693.52-30.95,744.06-67.62.98-.71,2.04-1.65,2.02-2.83-.27-24.9-499.32-43.08-480.74-52.91,34.08-18.03,538-13.61,722.76-.35,147.34,10.58,368.16,16.05,867.79,35.62,348.37,13.65,671.96,11.59,673.01-6.82,1.27-22.27-469.12-66.52-467.06-90.8.06-.73.53-1.26.95-1.66,35.64-34.11,615.57-23.25,649.41-36.27.89-.34,3.59-1.38,3.84-3.24,1.59-11.58-95.75-30.02-94.06-42.6.03-.21.17-1.04,1.27-2.03,19.61-17.59,269.15-12.64,270.61-18.95,4.67-20.1-435.67-15.79-484.96-17.23-1.96-.06-5.93-.37-11.01-1.59-33.84-8.09-43.35-25.57-48.62-26.66-10.06-2.09-16.43,18.66-35.65,23.75-33.25,8.79-77.54-104.85-118.96-97.26-20.9,3.83-53.85,31.26-83.75,67.84-.57.7-8.72,13.01-41.31,29.5-28.42,14.38-328.63,5.44-331.37,2.7-4.31-4.31,47.21.07,80.5-29.96,18.11-16.34,21.86-36.16,37.15-37.24,15.87-1.12,18.84,19.74,37.13,23.59,29.43,6.2,44.89-43,90.69-49.94,31.58-4.78,64.29,12.54,63.62,20.42-.53,6.35-22.95,9.24-30.02,10.15-12.99,1.67-84.85,10.92-124.03-40.19-23.01-30.02-22.09-64.35-21.77-71.13,2.54-55.26,48.99-125.45,125.45-125.45,78.41,0,126.28,73.83,125.45,125.45-1.53,95.73-58.91,97.83-61,110.71-.06.34-.12.89.18,1.33,3.61,5.13,41.32-30.63,75.97-30.95,50.45-.47,56.87,55.82,179.12,5.81,23.49-9.61,157.64-312,207.66-312,25.77,0,18.57,11.13,103.59,36.38,18.55,5.51,30.89,8.07,51.02,9.85,34.82,3.08,43.83,91.54,61.64,91.2,28.2-.55,45.2-223.06,75.54-223.07,12.36,0,27.05,9.33,38.58,10.61,31.15,3.46,45.96-6.67,47.82-9.35,21.52-30.92,38.04-74.4,57.22-77.91,20.14-3.69,52.64,34.94,92.84,82.71.61.72,1.22,1.47,2.35,2.04,8.4,4.26,21.11-13.94,30.56-10.24,2.83,1.11,88.35,62.43,85.59,65.19-4.1,4.1-61.28-34.26-94.24,24.61-9.08,16.22-87.3,213.2-109.14,204.88-47.75-18.19-47.89-192.88-125.16-189.66-27.28,1.14-57.32,168.49-93.11,166.83-120.51-5.59-192.81-114.86-205.77-123.82-20.84-14.4-107.65,76.49-134.44,161.55-20.84,66.2-41.49,106.37-49.73,104.47-1.27-.29-1.96-1.56-2.31-2.23-7.64-14.21,45.4-104.82,105.01-108.04,28.04-1.52,52.13,27.56,62.15,31.83,10.54,4.5,30.67,9.31,69.35-25.77,9.62-8.73,19.6-27.04,28.93-36.13,21.16-20.62,83.56,49.25,163.2,49.39,64.48.11,73.9-45.62,131.87-36.76,59.09,9.03,88.06,62.45,116.8,47.24,7.54-3.99,39.8-25.79,53.32-49.13.43-.74,1.28-2.24,2.89-2.64,17.29-4.26,64.5,134.24,61.18,135.65-.08.03-22.75-16.52-22.75-16.52h0c-5.53-3.85-71.23-46-106.85-47.14-12.17-.39-62.62,13.03-81.35,18.03-27.02,7.22-144.03,30.64-263.49,50.51-34.37,5.72-68.37-58.56-112.64-53.51-36.66,4.18-80.83,38.38-128.62,69.11-.3.2,1.41-.09,1.61-.16,9.56-2.99,250.72,13.18,318.47,9.25,78.44-4.55,284.35,31.99,283.45,58.36-.73,21.42-76.39,27.66-112.17,36.38-3.64.89-11.8,2.76-11.81,5.39-.04,6.96,59.62,17.86,116.15,46.91,19.23,9.88,27.86,18.66,60.48,34.28,5.79,2.77,22.76,10.75,44.61,16.89,12.86,3.62,22.22,5.13,28.09,5.91,9.71,1.28,17.01,1.47,18.83,1.53,32.11,1.02,433.28,27.33,515.31-57.41.36-.37.7-.73,1.68-1.74,32.77-33.8,64.03-66.03,87.62-56.83h0c30.57,14.67,95.64,67.17,125.86,72.31,36.42,6.2,57.81-59.97,104.59-54.27,17.19,2.1,21.42,11.9,43.43,11.93,23.69.03,33.51-11.32,52.33-16.1,19.2-4.88,35.25.26,86.69,24.25,102.28,47.71,394.96,53.72,422.93,52.76,23.39-.8,35.08-1.2,43.19-4.2,27.1-10.02,63.04-34.06,79.34-39.75,14.93-5.21,38.65-10.7,52-10.7h0c37.03,0,78.61,8.93,87.41-3.68.27-.39.37-.6.42-.72,4.22-9.6-31.28-45.99-67.45-51.03-38.2-5.32-44.19,28.9-96.16,29.81-27.76.48-55.69-8.77-68.88-13.13-12.41-4.11-22.11-7.39-34.01-14.52-15.93-9.55-30.17-22.62-41.02-32.66-15.85-14.67-20.71-23.14-29.35-21.14-381.62,88.12-685.89,57.64-664.32,42.05,3.85-2.78,111.66-89.43,171.42-92.86,4.53-.26,58.5,38.94,67.75,37.96,7.54-.79,8.59-18.49,15.74-18.61,3.75-.07,39.42,24.52,39.06,27.03-.7,4.85-61.62-3.38-63.31,3.97-.82,3.56,11.71,13.03,27.22,15.17,43.06,5.92,90.52-45.35,108.19-44.26,15.09.93,39.6,50,48.82,50.31,130.04,4.37,334.18-267.59,375.98-252.18,26.41,9.74,167.72,110.79,160.29,121.12-1.32,1.84-107.84,1.16-158.15-2.01-102.11-6.42-229.14,82.86-220.63,92.55,8.36,9.52,158.27-127.33,224.17-110.49,47.18,12.06,50.4,47.37,145.3,79.42,4.77,1.61,16.35-48.03,33.29-51.82,8.86-1.98,13.01,9.85,48.75,35.31,16.34,11.64,149.55,97.71,167.53,93.22,5.05-1.26-19.11-20.15-38.27-17.43-25.81,3.65-31.96,47.83-44.34,46.99-22.35-1.52-72.85-108.31-97.52-110.65-77.81,60.13-149.23,86.65-148.04,88.83.04.07.14.11.2.1,41.48-8.59,101.61-31.58,114.24-31.58,8.43,0,72.9,110.06,28.55,140.53-84.88,58.29-413.56,41.62-413.56,41.62s-238.46-28.6-291.03,2.27c-.42.25-1.74,1.02-1.79,2.12-.28,5.91,36.1,10.93,78.34,20.61,29.41,6.75,68.3,15.67,67.77,20.6-.73,6.8-77.01,10.44-154.93,4.41,0,0-114.7-8.87-129.6,10.61-.38.49-.95,1.24-1.05,2.34-1.06,11.69,56.14,20.86,55.51,32.4-.13,2.47-4.77,5.06-14.04,10.23-15.55,8.68-23.4,9.82-23.89,14.11-.58,5.05,9.56,10.09,11.77,11.16,97.39,47.25,200.59,63.16,200.59,63.16,219.79,23.49,363.4-11.43,405.73,3.05,47.38,16.21,95.57,10.87,125.81-9.35,4.49-3,17.95-12.2,16.36-20.74-2.59-13.86-42.68-14.24-48.11-35.33-.31-1.21-.48-1.85-.42-2.78.54-8.46,17.91-16.75,81.18-26.8,0,0,115.85-18.41,150.64-43.35.45-.32,1.37-1,1.33-1.86-.63-11.5-195.16-6.01-197.69-26.54-.23-1.88,23.26-6.5,46.86-17.81,15.03-7.2,84.89-28.81,113.31-102.69,3.79-9.85,15.41-15.41,34.69-1.75,14.48,10.25,25.06-31.15,40.84-32.93,21.74-2.46,47.79,53.5,42.31,57.75-2.59,2-9.42-9.64-22.61-11.19-20.3-2.39-37.08,21.34-50.02,35.87-48.92,54.9-108.6,51.84-106.61,65.18,3.91,26.15,230.96,21.32,248.22-35.47.89-2.94,12.5-43.11,24.67-43.01,1.53.01,4.89.67,8.67-1.06,5.21-2.39,5.43-6.67,8.83-8.58,5.89-3.31,14.54,5.46,23.38,9.03,103.83,41.95,186.35,27.56,229.91,20.86,40.28-6.2,54.81-14.58,66.43-18.7,9.26-3.28,62.91,29.18,138.48,28.97,0,0,0,0,0,0h0s53.72,2.11-19.5-18.74c-51.92-14.78,235.54-60.38,225.85-69.35-12.51-11.57-79.33-19.77-120.19-29.18-30.32-6.98-5.36,8.56-49.57,8.56-36.7.6-114.32-.1-127.31-.16-62.92-4.58,88.61-9.12,98.51-13.33,1.67-.71-166.8-4.71-167.24-6.69-.18-.82,13.56-5.03,28.29-7.33,108.63-16.93,100.53-38.05,114.53-43.51,1.39-.54,4.34-1.72,6.92-.48,1.75.84,21.52,6.45,22.8,6.81,48.52,13.44,96.27,3.56,201.44-32.65,26.45-9.11,36.76-13.5,41.35-14.42,4.57-.92,13.13,18.17,42.1,29.97,19.81,8.06,85.36,30.8,150.27,35.29,9.97.69,59.62-92.95,98.65-68.2,31.58,20.02,111.1,83.66,128.2,77.03,20.35-12.83,101.96,27.61,89.86,27.12-70.58-2.84-142.84,5.73-212.9-3.27-18.24-5.93-32.8-28.54-54.71-15.82-55.08,31.99-161.53-55.27-233.74-24.99-106.25,44.56-52.29-19.14-111.16,29.25-15.56,12.79,21.01,13.08,98.25,15.31,46.01,1.33,454.05,16.67,459.66,22.54,12.09,12.65-451.76,5.7-406.61,20.15,24.98,8,170.41,3.9,151.2,30.44-16.5,22.81,75.28-20.59,189.47-17.05,73.52,3.62,9.85,83.75-123.16,155.37,0,0-12.77,4.7-11.24,2.27,5.37-8.53,10.38-11.94,9.74-14.8-1.71-7.72-17.4-6.14-22.67-17.66-2.73-5.97-1.27-12.38-5.53-14.27-1.21-.54-14.09-1.27-14.91-1.99-3.1-2.76,2.06-9.42,1.23-15.99-1.56-12.25-24.12-24.75-40.68-18.89-6.06,2.15-14.55,7.89-14.17,14.64.3,5.5,6.48,11.45,10.25,10.42.14-.04.29-.11.41-.18,6.61-3.98-1.13-11.25-8.29-12.61-4.71-.89-8.62.88-13.24,2.97-3.64,1.65-7.46,3.38-10.38,6.66-7.53,8.47-.15,17.25-6.81,28.12-4.73,7.72-10.35,6.38-12.73,13.36-2.26,6.65-.26,16.96,6.08,21.18,11.77,7.85,30.18-10.86,43.19-1.99,2.9,1.98,6.08,5.7,8.07,9.8,1.4,2.89,6,13.89,9.79,17,.56.46,4.58,3.28,12.8,3.22,7.74-.06,3.32,41.87-11.17,45.1-5.07,1.13-9.79-2.42-10.13-2.69-7.61-5.91-7.52-19.82-6.2-20.15,1.56-.39,9.56,17.02,5.01,21.35-2.03,1.93-6.73,1.43-10.18-.62-13.59-8.08-11.77-42.73-18.52-46.49-.13-.07-.27-.15-.27-.15-.52-.27-5.46-2.78-9.84-1.1-3.68,1.41-26.1,17.77-15.63,23.89,4.11,2.4,25.78-2.78,14.02-10.61-11.72-7.8-101.56-46.23-135.28,6.44-2.63,4.1-4.25,18.91.37,22.71.35.29,1.74,1.34,3.6,2.47,3.48,2.12,6.07,2.97,6.98,3.38,8.42,3.8,7.96,30.61,6.35,30.82-.14.02-.26-.16-.35-.28-3.96-5.44-29.64-24.83-27.29-34.18.02-.06.32-1.16.92-3.36,1.38-5.02,1.56-5.64,1.83-6.66,1.14-4.4,1.71-6.6,1.63-7.61-.63-7.41-14.2-7.85-15.36-15.67-.43-2.86.88-6.16-1.37-10.43-.29-.55-.61-1.15-1.2-1.85-3.89-4.57-11.27-3.26-11.76-3.16-3.59.69-8.42,3.07-8.24,5.4.18,2.32,5.29,4.81,7.01,3.5,4.23-3.22-7.89-32.6-15.48-31.72-7.69.89-13.2,33.11-6.6,36.51,1.66.86,4.42.05,4.93-1.26,1.08-2.78-7.18-10.06-10.87-8.34-1.11.52-1.54,1.72-1.79,2.39-4.13,11.12-9.9,18.12-10.15,28.66-.01.61-.02,1.77.6,2.99,2.16,4.24,9.9,5.33,10.76,3.75.8-1.48-3.41-7.15-7.85-7.4-9.64-.55-20.27,24.49-17.34,26.79.32.25.75.19.97.17,3.24-.41,6.73-9.43,3.41-12.7-1.56-1.54-4.75-1.95-7.01-1.03-1.35.54-2.25,1.51-2.64,1.18,0,0-.42-.34.63-3.94,0-.01,0-.01,0-.02,0,0,0,0,0,0,0,0,0,0,0,0,0,0,.35-11.48.35-11.48,0,0,0,0,0,0s0,0,0,0c0,0-17.07-10.36-22.25-14.34,0,0-10.47-8.03-13.79-22.71,0-.02,0-.03,0-.03-1.6-7.13,1.26-10.24-.07-14.25-.52-1.58-2.39-4.9-2.39-4.9s-.16-.23-.32-.46c-3.16-4.24-8.34-5.01-8.34-5.01-4.1-.61-6.99,1.13-10.54,3.27-1.25.76-3.6,2.2-3.36,3.52.11.57.65.9.81,1,2.48,1.52,8.28-1.27,10.91-5.87.1-.18.45-.79.69-1.43,2.39-6.36-4.42-20.6-13.76-22.43-9.27-1.82-17.45,9.28-20.08,6.82-1.39-1.3-.64-5.85,1.64-8.34,1.81-1.97,4.53-2.58,4.54-4.29,0-.75-.52-1.32-.79-1.61-4.27-4.51-21.98-2.49-24.86-8.07-.39-.76-1.25-3.1-3.66-4.97,0,0-.69-.53-1.37-.9-5.57-3-21.26,11.12-22.91,14.77-1.09,2.41-.48,4.13-.48,4.13,0,0,.02.06.04.12,1.24,3.13,9.17,4.75,10.62,7.07.05.08.1.18.07.25-.32.67-6.19-2.9-10.33-2.59-7.46.55-12.53,13.97-14.99,20.46,0,0-7.45,19.68-11.21,23.72-1.47,1.58-2.71,2.12-2.71,2.12-.41.18-.62.29-1.03.49-.22.11-.61.31-1.09.63h0c-.68.46-1.58,1.42-1.67,1.54-1,1.24-.89,16.52-4.99,23.92-3.38,6.09-7.96,3.89-9.65,9.35-1.77,5.72.83,15.96-.8,17.42-.04.04-.48.42-1.09.98,0,0-.78.72-1.48,1.42-1.66,1.65-4.53,7.13-7.9,10.75-1.56,1.68-4.35,4.15-5.1,3.61-.8-.57,1.37-3.97,2.73-8.72,1.31-4.56,3.12-14.66-.4-16.87-3.86-2.42-10.86,6.64-20.69,4.74-.98-.19-3.24-.65-3.59-1.96-.51-1.92,3.35-4.75,6.27-6.23,6.7-3.42,10.24-.72,14.9-3.5,3.37-2.02,7.11-6.78,6.56-11.23-1.11-8.97-18.78-10.09-21.31-21.94-.49-2.3,0-3.08-.97-4.74-3.24-5.52-17.77-23.85-19.05-26.08-3.4-5.93-12.1-2.65-15.83-9.3-.81-1.43-3.38-12.46-4.35-13.69-3.42-4.35-16.61-3.59-19.59,3.05-1.35,3.01-.62,7.31.89,7.73,2.2.62,7.86-6.43,6.75-13.06-.15-.89-.79-4.7-3.54-6.19-1.53-.83-2.75-.41-5.86-1.63-1.11-.43-2.36-1.03-3.04-1.49-4.71-3.16-10.32-16.19-17.26-14.6-9.57,2.2-32.7,23.6-36.2,31.83-1.56,3.67,4.22,4.24,5.59,4.19,4.41-.17,4.6,6.75,4.49,7.22-.15.63-2.7,43.59,8.74,17.76,13.64-30.82-59.12,44.46-67.07,53.2-9.27,10.18-16.03,25.18-16.12,30.08h0s-.08,4.28,4.39,10.61c0,0,0,0,0,0,0,0,0,0,0,0,0,0,0,0,.01.01,0,0,2.29,3.2,1.98,3.46,0,0-2.89-.17-2.89-.17-13.71,2.05-2.15,14.89,1.49,14.12,15.59-7.06,88.89-11.32,163.09-2.98,222.06,24.96,415.36,31.1,549.26-20.43,112.57-82.79,121.13-164.79,204.85-162.98,55.68,1.21,75.02,55.77,101.8,34.19,3.48-2.8,8.01-8.05,11.56-45.53,6.99-73.86-2.37-194.02-3.45-193.75h-.01c-2.41,1.56-26.64,2.15-26.61,1.37,0-.03.04-.05.08-.07,3.56-1.77,38.66-14.55,39.64-24.65.28-2.84-2.18-5.11-2.35-5.27-7.58-6.82-30.89,6.63-31.11,6.11-.05-.12,127.42-178.61,133.27-175.23,4.06,2.35-6.34,23.38-33.6,57.6-34.85,43.74-97.49,88.89-97.64,87.79-.63-4.67,110.92-137.03,120.04-170.94,2.42-8.99,9.23-32.56,12.97-31.8,1.95.39,38.11,15.34,45.09,17.81,22.75,8.06,99.66,32.59,140.18,48.3,182.62,70.83,232.83,30.66,230.81,40.71-2.52,12.55,6.51,22.83,3.83,24.73-2.17,1.54-8.57-4.83-13.32-8.4-18.03-13.57-42.4-9.64-53.11-8.72-50.69,4.37-152.27-27.61-247.93-57.72-23.35-7.35-53.83-16.95-66.26-26.22-.57-.43-4.92-3.69-11.48-5.81-9.31-3-19.94-2.67-21.34.79-.36.9-.2,2.23-.16,2.53,0,0,.31,2.47,2.42,4.66,4.13,4.27,16.58.57,29.92,4.44,3.5,1.01,5.6,2.13,7.83,3.17,13.13,6.13,75.27,30.63,140.21,50.89,90.49,28.24,135.73,42.36,163.13,39.79,10.39-.98,27.01-3.48,43.21,5.61,28.29,15.87,41.41,59.3,40.18,59.99-.07.04-.2-.06-.45-.29-6.19-5.64-21.14-28.59-27.73-36.92-.74-.93-4.24-5.26-10.16-7.54-1.88-.73-2.83-1.09-3.31-.71-3.87,3.05,27.52,44.74,23.52,48.2-3.51,3.03-32.6-24.69-35.2-27.17-18.49-17.69-27.6-30.08-29.61-28.71-2.03,1.38,4.66,15.78,10.72,26.17,8.87,15.19,16.41,21.82,14.68,24.17-1.86,2.53-12.97-1.87-22.59-7.21-33.33-18.5-50.29-49.25-51.05-48.72-.97.67,31.35,46.91,27.9,49.68-.43.35-1.3-.08-1.75-.31-15.75-8.15-59.81-61.43-65.43-58.32-.14.08-.22.17-.25.21-3.04,4,29.4,41.69,37.39,52.04.17.22.51.67.36.94-.93,1.71-21.05-4.65-34.72-15.09-21.1-16.11-26.61-41.74-27.28-41.43-.42.19,2.78,9.75,9.34,23.5,8.49,17.79,11.99,20.31,10.36,23.24-5.19,9.31-45.49-7.7-53.56-16.67-1.16-1.29-1.46-2.2-1.46-2.98,0-4.69,10.86-4.99,18.38-13.7,4.2-4.86,7.25-12.21,4.93-15.15-.74-.94-1.87-1.22-2.31-1.32-21.41-4.97-203.62-40.7-204.31-59.26-.03-.86.32-1.72.88-2.24,6.14-5.81,42.46,23.93,60.36,37.74,53.26,41.08,101.35,68.18,134.61,78.58,176.38,55.18,215.29,37.58,217.21,40.38.12.17.21.31.22.49.17,3.18-27.58,9.68-39.41,8.72-173.43-14.14-290.3-71.8-315.05-87.73-25.29-16.28-41.24-38.87-49.4-34.67-.12.06-.22.13-.3.24-2.72,4.03,41.58,41.08,73.99,62.37,65.53,43.06,125.02,49.68,124.02,54.1-1.04,4.6-64-9.34-147.03-14.27-87.73-5.22-164.44,1.6-167.87,20.72-2.08,11.58,23.48,23.44,19.08,35.84-3.21,9.04-17.52,4.85-27.79,13.8-24.13,21.03,20.08,179.89-3.92,205.46-14.32,15.26,34.37-181.84,73.26-125.54,36.13,52.29,15.13,43.98,15.13,43.98,0-.02.01-.02,0-.03-4.28-1.26-1.26-8.79.07-12.25.52-1.36,2.04-3.74,2.21-3.97.09-.12.18-.24.18-.24s.16-.2.32-.39c3.16-3.64,8.34-4.3,8.34-4.3,4.1-.52,6.99.97,10.54,2.81,1.25.65,3.6,1.89,3.36,3.02-.11.49-.65.78-.81.86-2.48,1.31-8.28-1.09-10.91-5.04-.1-.15-.45-.68-.69-1.22-2.39-5.46,4.42-17.7,13.76-19.27,9.27-1.56,17.45,7.97,20.08,5.86,1.39-1.12.64-5.03-1.64-7.16-1.81-1.69-4.53-2.22-4.54-3.68,0-.65.52-1.14.79-1.38,4.27-3.87,21.98-2.14,24.86-6.93.39-.66,1.25-2.67,3.66-4.27,0,0,.69-.46,1.37-.77,5.57-2.57,21.26,9.55,22.91,12.69,1.09,2.07.48,3.55.48,3.55,0,0-.02.05-.04.1-1.24,2.69-9.17,4.08-10.62,6.07-.05.07-.1.15-.07.22.32.58,6.19-2.49,10.33-2.22,7.46.48,12.53,12,14.99,17.58,0,0,.87,21.11,4.64,24.58.95.87,5.54-2.05,8.7-4.24,1.84-1.28,4.36-.92,5.77.82.58.72,1.03,1.29,1.07,1.33,1,1.06-1.59,16.17,2.52,22.53,3.38,5.23,7.96,3.35,9.65,8.03,1.77,4.91,7.9,23.15,11.27,26.26,1.56,1.44,4.35,3.57,5.1,3.1.8-.49-1.37-3.41-2.73-7.49-1.31-3.92-3.12-12.59.4-14.49,3.86-2.08,10.86,5.71,20.69,4.08.98-.16,3.24-.56,3.59-1.69.51-1.65-3.35-4.08-6.27-5.36-6.7-2.93-10.24-.62-14.9-3.01-3.37-1.73-7.11-5.82-6.56-9.65,1.11-7.71,18.78-8.67,21.31-18.85.49-1.98,0-2.65.97-4.07,3.24-4.74,17.77-20.49,19.05-22.4,3.4-5.1,12.1-2.28,15.83-7.99.8-1.23,3.38-10.71,4.35-11.76,3.42-3.73,16.61-3.08,19.59,2.62,1.35,2.59.62,6.28-.89,6.64-2.2.53-7.86-5.53-6.75-11.22.15-.76.79-4.04,3.54-5.32,1.53-.71,2.75-.35,5.86-1.4,1.11-.37,2.36-.89,3.04-1.28,4.71-2.71.89-10.28,4.89-13.17,1.97-1.42,5.43-.74,12.37.63,9.57,1.89,32.7,20.28,36.2,27.35,1.56,3.15-4.22,3.65-5.59,3.6-4.41-.15-4.6,5.8-4.49,6.2.15.54,1.36,26.1-3.81,13.92-2.98-7,6.09-5.48,17.24,4.07,2.31,1.98,50.57,47.23,58.1,51.65,11.37,6.67,2.83,32.14,2.93,36.35h0s.08,3.68-4.39,9.12c0,0,0,0,0,0,0,0,0,0,0,0,0,0,0,0-.01.01,0,0-2.29,2.75-1.98,2.98,0,0,2.89-.15,2.89-.15,13.71,1.76,2.15,12.79-1.49,12.13l6.29,1.33c70.19,3.2,79.08,11.9,79.12,12.51.03.66-89.86.69-157.11.72-71.02.03-392.83-7.23-398.65-3.54-.04.03-.07.06-.08.1-.11,2.83,171.41,9.01,171.36,15.06-.04,4.62-100,7.45-99.9,11.65,0,.21.26.37.36.42,8.36,4.81,193.43,5.81,235.88,8.14,97.91,5.36,173.2,58.01,170.22,69.6-5.15,20.01-267.54,11.47-270.19,14.71-.01.01-.03.04-.04.08-.06,2.25,76.78,5.76,102.73,7.18,118.15,6.49,256.95,28.89,256.55,45.85-.19,8.07-31.83,12.02-31.07,19.33.64,6.18,23.84,8.9,43.96,10.23" fill="none" stroke="red" stroke-miterlimit="10"/>
  </g>
</svg>