<?xml version="1.0" encoding="UTF-8"?>
<svg id="_圖層_2" data-name="圖層 2" xmlns="http://www.w3.org/2000/svg" width="140.79" height="213.97" viewBox="0 0 140.79 213.97">
  <g id="_圖層_1-2" data-name="圖層 1">
    <g>
      <path d="m111.28,86.29c3.35-5.16,5.55-11.18,6.18-17.72,1.18-12.24-3.34-23.72-11.39-31.8l-50.27-4.85c-9.45,6.39-16.08,16.79-17.26,29.03-.63,6.55.38,12.87,2.67,18.58C19.12,89.62,2.83,110.88.33,136.81c-3.74,38.69,24.6,73.09,63.3,76.83,38.69,3.74,73.09-24.6,76.83-63.3,2.5-25.93-9.41-49.91-29.17-64.05Z" fill="#0088cd"/>
      <path d="m111.49,58.42c.04,5.42-1.36,10.74-2.98,15.91-.98,3.11-4.41,9.18-12.79,13.49-7.23,3.72-16.12,3.32-24.04,1.48-7.92-1.84-15.3-6.44-19.84-13.18-4.54-6.74-6-15.65-3.14-23.27,2.31-6.16,7.37-11.23,13.53-13.54,5.45-2.05,11.45-1.97,17.25-1.52,7.95.63,17.59,1.2,25.02,4.29,5.32,2.21,6.96,11.33,6.99,16.34Z" fill="#fff"/>
      <path d="m104.93,37.28c-9.98,4.63-24.52,2.64-24.52,2.64,0,0-15.2-.87-24.05-7.65l-.73-.59s23.32-13.75,24.06-31.69l4.53.44,4.53.44c-2.71,17.75,17.55,35.71,17.55,35.71l-1.37.7Z" fill="#231815"/>
      <path d="m63.45,135.78c.13.11.17.67.07,1.64-.06.6-.88,2.85-2.51,6.66l-1.48,2.33c-.71,1.05-1.11,1.85-1.3,2.35-.15.08-.62.64-1.51,1.67-.69.91-1.26,1.51-1.72,1.89-.67-.34-1.19-.26-1.52.27-.29-.4-.46-.56-.56-.47-1.25.86-1.99.79-2.26-.22-.3.25-.58.22-.83-.08l-.24.07-.19.07c-.13-.15-.31-.22-.58-.24.11-1.16.11-2.09.05-2.89,1.41-2.06,2.23-3.28,2.45-3.63,3.6-3.99,5.53-7.02,5.83-9.18-.13-.15-.31-.22-.5-.14-.24.02-.46-.04-.73-.21-1.04-.38-1.96-.51-2.67-.35-2.14.45-3.58.87-4.23,1.32-.15.08-.24.02-.22-.11s-.03-.19-.17-.16c-1.11.41-2.5.27-4.16-.4.02-.23-.15-.39-.56-.43-.11-.29-.4-.65-.83-1.01-.48-.37-.73-.68-.75-.91-.08-.15,0-.51.2-1.1l-.17-.2c.18-.4.14-.92-.07-1.64.15-.12.23-.44.18-.91,0-.47.08-.79.23-.91.32.03.61-.08.87-.29.12-.31,2.27-.81,6.4-1.57.48.37,1.45.47,2.86.32,1.98-.18,4.71.92,8.21,3.31.29.36.9.83,1.76,1.52l.87,1.62-.2,2.03Zm13.41,1.67c-.2.17-.27.35-.24.58.24,1.84.03,5.92-.57,12.21-.37.94-.64,2.32-.83,4.21l-.33,3.47c-.14-.01-.19.03-.19.07s-.1.08-.24.07c-.01.14.01.37.07.71l-.04.37c.03.14.02.24.07.29v.09c-.36.29-.62.55-.73.72-.09.5-.37.9-.73,1.28-.46.47-.72.72-.73.82-.14-.01-.48.09-1.06.32-.58.22-.9.19-1.02-.1-.2.17-.45.33-.79.44-.39.19-.64.31-.79.44-.31-.17-.59-1.18-.84-2.93-.64-1.6-1.03-3.78-1.13-6.64-.01-.37.06-.65.26-.81-.13-1.04-.18-2.49-.1-4.3.11-1.62.25-3.05.41-4.25.2-1.1.29-2.54.32-4.26.17-.31.27-.81.24-1.52.03-.79.09-1.39.26-1.7l-.17-.2c-.13-.15-.12-.24.11-.22.18.02.24-.02.11-.18l-.17-.2c-.04-.05.02-.18.14-.5.11-.18.08-.37-.04-.52.17-.31.26-.77.23-1.42.03-.74.08-1.3.25-1.61-.23-.02-.25-.35-.09-1.03l.71-3.01c.8-1,1.09-2.09.93-3.36.5-.84.68-1.71.49-2.61.3-.25.46-.42.47-.56l.06-.6c.91-.75,1.68-.96,2.34-.61.01-.14.35-.29,1.07-.5.21.25.33.41.37.55.11.34.23.53.37.55.28.03.66.39,1.15,1.14.14-.03.28.03.49.28.22.11.39.27.47.42.57.85.87,2.14.9,3.77-.28-.03-.43.1-.46.38s-.09.46-.24.58l.17.2-.21,2.22c-.24.12-.37.43-.28,1,.08.66.14.99.09,1.03-.27.35-.32.9-.16,1.62-.45,1.73-.57,3.02-.37,3.83Zm10.87,4.73l-.44.19-.43.14c-.21.68-.67,1.15-1.4,1.5l-.08.78c.68,1.14,1.83,2.28,3.44,3.46,1.53,1.55,3.08,3.33,4.62,5.3.92.65,1.55,1.31,1.9,2.05.87.6,1.52,1.59,1.99,3.04-.96.33-1.3.9-.96,1.73-.29.11-.46.38-.5.79-.04.46-.16.73-.31.76-1.2.3-1.82.52-1.93.65-.63.78-1.05,1.2-1.2,1.33-1.47-.7-2.29-1.34-2.52-1.88-.23-.02-.45-.14-.58-.29-.6-.52-1.4-1.39-2.36-2.65-.78-1.05-1.54-1.92-2.18-2.5-.04-.52-.46-1.07-1.28-1.76-.59-1.13-.95-1.72-1.09-1.74.03-.28,0-.47-.13-.62-.31-.22-1.6-2.3-3.78-6.29l.11-.18.11-.22c-.67-1.79.08-4.24,2.2-7.34.28.03.43-.14.47-.56.52-.56,1.04-1.11,1.6-1.57.76-.63,1.28-1.18,1.6-1.57.53-.18,1.58-.92,3.15-2.17,1.8-.8,3.02-1.81,3.66-3.1.06-.13.21-.21.39-.2.38.46.63.71.77.73.76-.16,1.28.31,1.55,1.36,0,.05.13.11.4.23.22.16.35.22.39.27.12.15.19.39.17.62-.03.32,0,.51.13.62,1.71,1.14,2.09,2.53,1.14,4.12.12.15.19.44.15.81-.15.12-.46.47-.95,1.12-.59.83-1.01,1.3-1.15,1.33-4.04.31-6.28.84-6.69,1.69Z" fill="#231815"/>
      <g>
        <path d="m82.11,64.07c-.08-1.14-.82-2.2-1.99-2.44-1.09-.23-2.18.31-2.74,1.26-.43.72.7,1.39,1.13.66.61-1.03,2.21-.77,2.3.5.06.83,1.37.86,1.31.02Z" fill="#06292f" stroke="#06292f" stroke-miterlimit="10" stroke-width="1.94"/>
        <path d="m99.31,54.57c-1.27-2.6-4-4.24-6.89-4.16-.84.03-.86,1.33-.02,1.31,2.45-.07,4.69,1.27,5.76,3.48.37.76,1.52.13,1.15-.63Z" fill="#06292f" stroke="#06292f" stroke-linecap="round" stroke-linejoin="round" stroke-width="1.94"/>
        <path d="m70.13,46.39c-2.48-1.03-5.32-.27-7.04,1.76-.54.64.53,1.39,1.07.75,1.35-1.6,3.61-2.08,5.52-1.29.78.32,1.23-.9.45-1.23Z" fill="#06292f" stroke="#06292f" stroke-linecap="round" stroke-linejoin="round" stroke-width="1.94"/>
        <path d="m85.48,77.86c.92-.93,1.74-1.95,2.38-3.09.39-.71,1.1-1.78.63-2.53,0,0,0,0,0,0-.06-.17-.16-.28-.26-.34,0,0,0-.01.01-.02-.12-.15-.31-.25-.55-.24-6.81.25-13.6-1.11-19.8-3.9-.77-.35-1.24.87-.47,1.22.26.12.52.23.78.34.04.1.12.2.26.27.98.55,1.22,2.15,1.55,3.16.37,1.13.76,2.27,1.26,3.35.91,1.94,2.21,3.74,4.12,4.78.56.3,1.15.51,1.76.63.09.08.21.13.37.15.45.03.89.03,1.33,0,.07.02.14.04.23.04,2.43-.02,4.79-2.14,6.41-3.77Zm-3.66,1.32c-.23.16-.48.33-.73.49-.04.01-.09.02-.13.04-.86.39-1.76.59-2.69.6-1.45-.06-2.81-.77-3.84-1.82-1.41-1.43-2.2-3.32-2.86-5.18-.31-.89-.54-2.08-.97-3.09,5.07,1.83,10.42,2.74,15.82,2.71.02.03.05.06.08.09.06,0,.12,0,.17.02.09.03.17.11.2.2,0,.01,0,.03.01.04.09.12.13.28.11.43-.03.15-.09.29-.18.42-.08.12-.19.23-.29.34-.01.01-.03.02-.04.04-.16.26-.33.51-.5.76-.59.82-1.27,1.56-2.02,2.23-.68.61-1.4,1.17-2.15,1.68Z" fill="#06292f" stroke="#06292f" stroke-miterlimit="10" stroke-width="1.94"/>
        <path d="m66.73,60.41c1.45-.33,2.27-1.62,2.5-3.01.24-1.47-.06-3.05-1.66-3.56-1.08-.35-2.26.07-3.06.85-.19.11-.37.24-.53.39-.98.91-1.27,2.44-.71,3.65.59,1.27,2.08,1.99,3.46,1.68Z" fill="#06292f"/>
        <path d="m95.79,62.23c.13-2.43-3.03-4.83-5.19-3.26-1.94,1.41-1.44,4.29.28,5.55.63.62,1.62.9,2.49.68,1.27-.33,2.36-1.66,2.43-2.97Z" fill="#06292f"/>
      </g>
    </g>
  </g>
</svg>