<?xml version="1.0" encoding="UTF-8"?>
<svg id="_圖層_2" data-name="圖層 2" xmlns="http://www.w3.org/2000/svg" width="165.99" height="208.43" viewBox="0 0 165.99 208.43">
  <g id="_圖層_1-2" data-name="圖層 1">
    <g>
      <path d="m85.41,56.48c-.69-6.61-2.93-13.16-6.84-19.09-7.32-11.09-18.91-17.67-31.16-18.99L1.88,48.44c-3.6,11.79-2.11,25.03,5.21,36.12,3.91,5.93,9.05,10.56,14.86,13.8-11.72,23.49-10.97,52.41,4.53,75.9,23.13,35.05,70.3,44.72,105.35,21.59,35.05-23.13,44.72-70.3,21.59-105.35-15.5-23.49-41.79-35.56-68-34.02Z" fill="#e62320"/>
      <path d="m66.67,32.92c3.71,4.53,6.15,9.95,8.29,15.39,1.29,3.28,2.52,10.71-1.59,20.02-3.55,8.03-11.29,13.74-19.2,17.56-7.91,3.83-17.23,4.98-25.62,2.4-8.39-2.58-15.67-9.08-18.43-17.42-2.24-6.75-1.43-14.44,2.18-20.57,3.19-5.42,8.28-9.43,13.47-12.99,7.1-4.87,15.6-10.93,23.94-13.38,5.97-1.75,13.54,4.8,16.97,8.99Z" fill="#fff"/>
      <path d="m46.8,19.61c-5.24,10.66-18.81,18.87-18.81,18.87,0,0-13.36,9.59-25.4,9.9h-1.02S11.84,21,.28,5.42l4.1-2.71L8.49,0c9.78,16.76,39,18.09,39,18.09l-.68,1.52Z" fill="#231815"/>
      <path d="m75.03,123.24c-.09.6,0,1.45.29,2.63.18.91.31,1.66.36,2.28-.04.21-.11.56-.16,1.13-.02.79-.03,1.22,0,1.38-.04.21-.02.79.16,1.7.23.99.35,1.63.39,1.96.03.4-.02.97-.19,1.63-.2.61-.63,1.14-1.34,1.61-.88.58-1.98.82-3.24.64-.71-.25-2.33-1.17-4.78-2.79-1.9-1.33-3.47-3.35-4.8-6.09-.97-1.47-1.46-2.76-1.41-3.87.13-.26.82-.84,2.16-1.73.04-.03.88-.4,2.4-1.1,1.35-.59,2.37-1.14,3.12-1.64l.53.25,1.05-.69c.36.18.9.37,1.62.55.76.16,1.19.35,1.31.52,1.75.83,2.58,1.36,2.52,1.64Zm20.39,4.14c.99-.23,2.73-.78,5.36-1.62,2.91-.96,5-1.62,6.29-1.93,1.64-.42,3.48-.73,5.41-.99,2.16-.28,4.06-.22,5.66.29,1.65.41,3.11,1.25,4.38,2.45.25.02.42.27.47.71.08.49.16.79.25.92.05,1.17,0,1.81-.18,1.92-.59.39-1.06.76-1.49,1.11-.61.53-1.01.84-1.21.98l-2.3,1.52-9.62,1.54-11.3,1.81c.5,3.76,2.42,8.13,5.76,13.2.55.84.55,1.74-.05,2.74-.13.26-.32.51-.62.71l-.54.36c-.55.9-1.79,1.84-3.67,2.72-.33.22-.71.29-1.2.19l-1.57-.47c-.68-.21-1.13-.34-1.35-.31-1.31-.52-2.36-1.39-3.21-2.69-2.21-3.35-3.67-5.93-4.41-7.78-3.78-9.46-5.95-21.85-6.53-37.2,2.24-.7,4.56-.73,6.9-.11,3.11.53,4.97,2.43,5.55,5.59l1.67,7.54c.12.64.19,1.38.23,2.25.02.95.17,1.81.38,2.57.25.74.58,1.42.94,1.97Zm16.22-27.76c-.68-.57-3.04-1.24-7.11-1.86-.25-.02-.72,0-1.42.03l-1.34.16c-.26.05-.49.26-.74.61-2.2,7.04-2.13,11.98.22,14.81,2.41,2.56,4.29,3.59,5.7,3.09,1.62-.46,2.38-1.39,2.29-2.71-.11-.53.03-1.22.43-2.08.41-.93.65-1.57.61-1.9.13-.08.35-.11.64-.12l.67-3.99c.13-.26.41-.75.88-1.48.48-.73.65-1.39.56-1.87,0-1.2-.48-2.09-1.41-2.68Z" fill="#231815"/>
      <path d="m46.68,57.61c-2.02-.11-4.07,1.15-4.9,3-.21.46-.09,1.08.41,1.32.45.21,1.09.09,1.32-.41.08-.18.17-.35.27-.51,0,0,.04-.05.06-.09,0,0,.01-.02.02-.03.06-.08.12-.15.18-.22.06-.07.13-.14.2-.21.03-.03.07-.07.1-.1,0,0,.06-.05.08-.07.04-.03.08-.06.12-.09.09-.06.18-.12.27-.18.08-.05.17-.1.25-.14.03-.02.06-.03.1-.05.05,0,.21-.09.26-.1.09-.03.18-.06.28-.08.09-.03.19-.04.28-.07,0,0,.01,0,.02,0,.04,0,.08-.01.12-.01.2-.02.41-.02.61-.01.51.03.98-.5.95-1-.04-.56-.46-.92-1-.95Z" fill="#06292f" stroke="#06292f" stroke-miterlimit="10" stroke-width=".72"/>
      <g>
        <path d="m51.33,38.1s.03-.02.05-.03c0,0,0,0,0,0-.02,0-.03.02-.05.02Z" fill="#06292f" stroke="#06292f" stroke-miterlimit="10" stroke-width=".72"/>
        <path d="m52.64,37.64c.16,0,.15-.01.1-.01-.03,0-.06,0-.09,0,0,0,0,0,0,0Z" fill="#06292f" stroke="#06292f" stroke-miterlimit="10" stroke-width=".72"/>
        <path d="m55.11,35.56c-2.12-.44-4.28-.04-5.84,1.09-.43.31-.51,1.01-.08,1.49.42.47,1.11.65,1.57.32.16-.12.32-.22.5-.32.02-.01.05-.03.07-.04-.04.02-.05.02.04-.02,0,0,0,0,0,0,.01,0,.03-.01.04-.02,0,0-.02.01-.03.02.08-.04.17-.08.26-.11.19-.08.38-.15.57-.2.11-.03.22-.06.33-.09.04,0,.07-.02.11-.02,0,0,0,0-.01,0,0,0,.01,0,.02,0h0s.06,0,.08,0c.17-.02.35-.06.51-.07.21-.02.42-.03.64-.02.11,0,.21,0,.32.01-.35,0,.04,0,.13.02.23.03.45.06.68.11.58.12,1.16-.28,1.16-.84,0-.59-.44-1.14-1.07-1.27Z" fill="#06292f" stroke="#06292f" stroke-miterlimit="10" stroke-width=".72"/>
      </g>
      <g>
        <path d="m23.75,54.62c-.52-.45-1.18-.39-1.67.06-.86.77-1.45,1.79-1.82,2.87-.37,1.1-.4,2.28-.19,3.41.05.28.33.57.57.7.25.14.62.19.9.09.65-.23.91-.81.79-1.46,0-.02,0-.03,0-.05,0,0,0,0,0,0,0-.01,0-.02,0-.03-.01-.12-.02-.24-.03-.36-.01-.21,0-.43.01-.64,0,.03,0,.02,0-.01,0-.01,0-.02,0-.03,0-.04,0-.09.01-.13,0,.04,0,.08,0,.11,0-.02,0-.04,0-.06.02-.11.04-.21.06-.32.05-.22.11-.44.18-.66,0-.02.02-.05.03-.07-.02.06-.05.11,0-.01,0,0,0,0,0,0,0-.02.02-.04.02-.07,0,.02-.01.04-.02.06.04-.1.08-.19.13-.29.1-.21.21-.4.34-.6.02-.03.04-.06.06-.09.06-.08.12-.16.19-.24.16-.18.32-.35.5-.51.46-.41.4-1.28-.06-1.67Z" fill="#06292f" stroke="#06292f" stroke-miterlimit="10" stroke-width=".72"/>
        <path d="m22.57,58.04s0-.01,0-.02c0,0,0,0,0,0,0,0,0,.01,0,.02Z" fill="#06292f" stroke="#06292f" stroke-miterlimit="10" stroke-width=".72"/>
        <path d="m22.32,60.29s0,0,0,.01c0,.02,0,.03,0,.04-.03-.32-.02-.19-.01-.1,0,0,0,0,0,0,0,.01,0,.03,0,.04Z" fill="#06292f" stroke="#06292f" stroke-miterlimit="10" stroke-width=".72"/>
        <path d="m22.3,59.22s0-.03,0-.07c0,.02,0,.04,0,.06,0,0,0,0,0,.01Z" fill="#06292f" stroke="#06292f" stroke-miterlimit="10" stroke-width=".72"/>
      </g>
      <path d="m60.39,62.51c-1.1-.72-2.46-1.05-3.76-.95-.37.03-.72.36-.69.75.03.38.35.72.75.69.15-.01.29-.02.44-.02.03,0,.06,0,.09,0-.72,1.36-1.18,2.84-1.96,4.17-.72,1.24-1.68,2.31-2.81,3.2-2.14,1.68-4.83,2.6-7.55,2.5,0-.02.01-.04.02-.05.14-.35.05-.8-.32-.97-.33-.15-.81-.05-.97.32-.49,1.2-.58,2.53-.19,3.77.11.36.54.6.9.47.37-.13.59-.52.47-.9-.03-.1-.05-.19-.08-.29,3.14.11,6.21-.84,8.77-2.69,1.28-.93,2.44-2.1,3.32-3.42,1.04-1.55,2.01-3.14,2.42-4.96.04-.18.08-.36.11-.54.13.07.26.13.38.2.14.09.39.09.54.04.17-.05.35-.2.43-.36.08-.17.11-.36.04-.54-.07-.19-.19-.31-.36-.43Z" fill="#06292f" stroke="#06292f" stroke-miterlimit="10" stroke-width=".72"/>
      <g>
        <path d="m59.63,48.33c-.05.03-.1.07-.14.1-.04-.26-.1-.53-.19-.8-.88-2.67-3.74-5.58-6.59-5.32-.92.08-1.69.56-2.4,1.07-.77.56-1.54,1.16-2.13,1.92-.7.9-1.05,2.1-.84,3.28.05,1,.52,1.98,1.22,2.79.49.57,1.05,1.08,1.63,1.55.32.26.68.5,1.06.64.22.13.45.24.7.31.05.01.1.02.15.03.38.16.78.27,1.21.32,1.16.13,2.19-.16,3.08-.69-.03.49.13.98.54,1.33,1.06.94,2.4.2,3.3-.33,1.56-.93,3.48-3.12,2.06-5.23-.59-.87-1.77-1.43-2.66-.99Zm-7.23,1.41c-.38.14-.82.22-1.25.07-.05-.02-.08-.04-.13-.06-.35-.15-.66-.42-.81-.77-.46-1.05-.12-2.17.42-2.99.24-.36.54-.7.9-.93.48-.3,1.05-.52,1.66-.36.17.04.31.1.45.18.07.02.14.05.19.1.04.04.08.08.11.12,0,0,.01,0,.02.01.09.08.17.17.23.27.12.15.22.31.3.49.12.28.16.6.14.91-.02.37-.11.74-.29,1.07-.28.92-1.09,1.57-1.95,1.89Zm3.76,2.72c-.13.06-.27.1-.42.1-.18,0-.37-.04-.53-.18-.16-.13-.25-.31-.3-.5-.06-.26,0-.54.07-.77.08-.26.2-.5.34-.72.04-.06.08-.11.13-.17,0,0,0,0,0-.01.1-.2.22-.39.36-.57.03-.04.05-.09.07-.13.19-.27.41-.51.65-.75.12-.15.25-.3.38-.44.16-.16.33-.35.54-.47,0,0,0,0,0,0,0,0,0,0,0,0,.04-.03.09-.05.14-.07.12-.04.12-.03.23-.03.05,0,.09.08.07,0,0,.02.01.03.02.05,0,0,.02,0,.03,0l.12.07s.03.03.05.04c.2.1.34.26.42.47.05.14.05.3.04.45.04.32,0,.65-.08.96-.1.37-.27.74-.56,1.01-.1.17-.21.34-.33.49-.28.37-.66.74-1.1.96-.11.07-.22.14-.34.19Zm5.07-2.75c.05.07.09.15.12.22,0,.02,0,.05.01.07.04.1.08.19.1.31.03.22.03.44-.04.66,0,0,0,0,0,0-.09.59-.48,1.13-.84,1.51-.37.39-.81.72-1.28.99-.22.12-.45.23-.68.33-.14.06-.31.13-.47.16-.04.02-.08.04-.13.05-.06.02-.13.02-.19,0-.07-.01-.12-.04-.18-.08-.06-.03-.11-.08-.14-.14,0-.01-.02-.02-.02-.03-.01-.02-.03-.05-.04-.08-.01-.02-.02-.05-.03-.07,0-.01,0-.02,0-.03-.01-.05-.02-.11-.02-.16,0-.01,0-.02,0-.03,0-.05,0-.1.02-.15.01-.06.04-.13.06-.19.03-.09.09-.16.15-.24.03-.04.07-.08.11-.11.05-.04.1-.09.16-.13.03-.02.06-.03.09-.04.01,0,.02-.02.03-.02,0-.01,0-.02,0-.04.24-.18.46-.37.66-.6.54-.61.82-1.37.9-2.18,0,0,0,0,0,0,0-.05,0-.1,0-.15,0-.05.02-.1.04-.15.06-.11.18-.22.31-.26.21-.09.48-.06.66.05,0,0,0,0,0,0,.15.02.29.07.42.17.05.04.09.09.13.14.01.02.03.03.04.05.03.06.06.12.08.18,0,0,0,0,0,0Z" fill="#06292f" stroke="#06292f" stroke-miterlimit="10" stroke-width=".72"/>
        <path d="m36.18,58.46c-.69-.95-1.65-1.68-2.77-1.93-1.27-.47-2.75-.31-4.01.3-1.06.52-1.99,1.27-2.89,2.03-.82.7-1.62,1.47-2.02,2.49-1.25,3.16,1.1,6.97,3.85,8.48.27.15.55.27.84.37-.06.04-.12.08-.17.14-.8.91-.55,2.36.24,3.19,1.92,2.02,5.07.28,6.64-1.29.91-.91,2.19-2.27,1.48-3.65-.27-.53-.77-.81-1.34-.87.9-.91,1.58-2.01,1.82-3.34.05-.29.07-.56.07-.83.09-.53.05-1.07-.13-1.57,0-.02,0-.05-.01-.07-.04-.45-.19-.9-.38-1.31-.34-.74-.74-1.48-1.22-2.14Zm-.13,10.83c.02.13-.04.25-.1.36-.07.22-.25.43-.39.61-.19.24-.39.48-.61.71-.46.48-.98.91-1.55,1.25-.76.46-1.89.94-2.75.47-.22-.12-.44-.39-.54-.72-.01-.04-.02-.11-.03-.19,0-.02-.02-.04-.02-.06,0-.09,0-.18.04-.26.03-.08.05-.17.1-.25.07-.12.15-.25.26-.35.07-.07.14-.13.22-.19.08-.05.16-.09.25-.13.07-.03.13-.04.2-.05.12-.02.2-.02.33,0,0,0,0,0,0,0,.64-.06,1.28-.24,1.88-.57.27-.15.51-.32.75-.51.07-.07.14-.13.22-.19.1-.08.2-.15.31-.2.31-.16.65-.3,1.01-.23.12.02.22.09.29.18.08.1.12.2.13.32Zm-.92-2.51c-.05.17-.15.32-.26.46-.17.21-.37.4-.58.57-.01.01-.03.02-.04.02-.22.22-.49.39-.74.55-.49.31-1.02.52-1.58.66-.62.15-1.36.31-2,.13,0,0-.02,0-.03,0-.07,0-.15-.03-.22-.05-.03,0-.05-.02-.08-.03-.07-.03-.14-.07-.2-.12-.03-.02-.06-.05-.09-.08-.03-.03-.06-.06-.09-.09-.04-.05-.07-.1-.1-.15-.03-.06-.07-.11-.09-.17l-.04-.15s0-.02,0-.04c-.02,0-.03-.02-.05-.03.08.04,0-.02.03-.08.04-.13.02-.13.11-.25.04-.05.08-.1.12-.14,0,0,0,0,0,0,0,0,0,0,0,0,.2-.21.48-.37.71-.51.65-.4,1.37-.72,2.1-.95,0,0,0,0,0,0,.23-.19.5-.33.77-.43.3-.12.62-.2.94-.24.29-.04.62-.04.9.07.21.09.37.23.47.43.1.2.08.42.02.63Zm-1.63-5.86c0,.05.03.1.03.16.03.51-.21.99-.5,1.39-.7.97-1.81,1.82-3.05,1.86-.43.01-.87-.07-1.29-.23-.24-.02-.46-.06-.71-.13l-.35-.19c-.18-.12-.31-.27-.4-.46-.18-.3-.23-.59-.21-.95.03-.72.47-1.32.97-1.8.38-.36.87-.64,1.36-.83,1.12-.45,2.5-.61,3.54.11.35.24.56.65.61,1.07Z" fill="#06292f" stroke="#06292f" stroke-miterlimit="10" stroke-width=".72"/>
      </g>
    </g>
  </g>
</svg>