<?xml version="1.0" encoding="UTF-8"?>
<svg id="_圖層_2" data-name="圖層 2" xmlns="http://www.w3.org/2000/svg" width="138.05" height="204.01" viewBox="0 0 138.05 204.01">
  <g id="_圖層_1-2" data-name="圖層 1">
    <g>
      <path d="m120.84,89.43c4.35-4.18,7.79-9.43,9.85-15.54,3.86-11.42,2.11-23.39-3.77-32.9l-46.9-15.85c-10.45,3.99-19.1,12.44-22.96,23.87-2.06,6.11-2.51,12.37-1.59,18.33-23.36,4.7-43.64,21.37-51.82,45.56-12.2,36.1,7.18,75.27,43.28,87.47,36.1,12.2,75.27-7.18,87.47-43.28,8.18-24.19,2.16-49.75-13.56-67.65Z" fill="#fac959"/>
      <path d="m127.26,62.87c-1.17,5.18-3.69,9.95-6.4,14.52-1.63,2.75-6.26,7.77-15.22,10.02-7.73,1.94-16.13-.43-23.28-3.95s-13.17-9.56-16-17.01c-2.83-7.45-2.23-16.28,2.19-22.91,3.58-5.37,9.55-9.07,15.94-9.91,5.66-.74,11.37.67,16.81,2.4,7.45,2.37,16.52,5.07,22.93,9.68,4.58,3.29,4.11,12.37,3.03,17.16Z" fill="#fff"/>
      <path d="m125.71,41.22c-10.56,2.19-24-2.95-24-2.95,0,0-14.31-4.22-21.25-12.67l-.57-.72s25.33-7.92,30.04-24.88l4.23,1.43,4.23,1.43c-6.55,16.34,8.79,38.01,8.79,38.01l-1.47.36Z" fill="#231815"/>
      <path d="m88.06,131.53c.13.04.14.14.07.36-.22-.07-.37-.03-.49.17l-.19.27c-.28.39-.71.82-1.3,1.29-.13-.04-.6-.06-1.37-.08-.07.22-.16.33-.27.39l-.16-.1-.14-.14-.17.09c-.54-.52-.92-.55-1.14-.19l-.35-.12c-.09-.03-.24-.27-.44-.68.39-.44.36-.79,0-1.01-.16.04-.25.16-.32.37-.09-.03-.14-.14-.2-.4.02-.19-.1-.42-.31-.63l.13-.1.14-.14c-.13-.04-.16-.1-.14-.14s-.03-.06-.11-.09l-.22.07c-.13-.62-.4-.95-.74-.92.07-.22.09-.4.03-.52-.36-.22-.77-.69-1.35-1.42-.5-.65-.92-1.13-1.35-1.42-.11-.37-.49-.84-1.07-1.37s-.99-1.05-1.19-1.6c-.13-.04-.24-.13-.33-.3-.14-.14-.27-.19-.39-.13-.57-.58-1.89-2.08-4.01-4.48-.43-.58-.66-.9-.74-.92-1.47.51-2.33.8-2.51.88-.3-.1-.72,0-1.24.25-.49.31-.87.43-1.08.36-.03.09-.12.2-.26.34-.17.09-.26.2-.3.33-.19-.01-.48.13-.84.34-.19.13-.32.23-.38.26-.27.24-.52.4-.71.53-.42.24-.61.37-.66.4-.04.13-.02.19.03.2s.07.07.04.16c1.32.21,2.13.24,2.36.12l.78.26s.24-.01.58-.14c.06.12.21.22.43.29.83-.05,1.99.09,3.52.52l1.28.34.92.26c.23.03.36.07.4.09.17.2.42.33.8.46s.59.25.65.36c.16-.04.35-.03.52.03l.04.16.03.2c.22.07.36.07.53-.01.06.26.21.51.46.78.27.33.44.53.47.59-.54.88-.52,1.55.02,2.07-.34.99-.75,1.67-1.22,2.04-.13-.04-.16-.1-.14-.14s-.01-.1-.1-.13c-.16.04-.26.2-.33.42l-.3-.1c-.63.31-1.34.41-2.03.32-.13-.04-.24-.13-.43-.29-.13-.19-.27-.19-.47-.02-.03-.06-.14-.14-.33-.3-.2-.12-.32-.2-.43-.29-.36-.22-.52-.46-.53-.71l-.23.11c-.14-.29-.55-.38-1.14-.19-.03.09-.16.33-.36.79s-.41.78-.52.98c-.12.2-.26.49-.52.83.07.22-.02.62-.21,1.18.06.12.17.2.39.28s.33.16.29.29c.04-.13.06-.17.1-.16s.1-.01.13-.1c.78.12,1.51.37,2.2.74l.59-.33c.39.13.76.31,1.13.48.59.25,1.01.29,1.25.13.22.07.43.29.64.65.26.37.43.58.52.61s.24.27.5.79c.23.46.53.71.86.72-.01.04.03.2.2.4.19.16.26.38.18.59l-.41,1.21c-.13-.04-.19-.02-.2.03s-.07.07-.2.03c-.62,1.28-1.5,1.75-2.67,1.36-.91.27-1.66.35-2.16.28-.04.13-.1.16-.14.14s-.1.01-.14.14c-.4.2-.66.11-.78-.26-.33.13-.79.07-1.35-.12-.03.09-.13.1-.35.03s-.32-.06-.36.07c-.14-.29-.19-.45-.14-.58-.17.09-.4.06-.7-.05s-.53-.13-.65-.07c-.2.17-.49.89-.92,2.14.23.32.14.58-.26.78-.03.81-.3,2.01-.76,3.54l-.7,2.36c.06.11.52.32,1.34.6.32.35.75.64,1.31.83.29-.14.36-.36.22-.65-.22-.07-.37-.17-.43-.29.01-.04-.03-.49-.1-1.28.03-.09.09-.11.13-.1s.1-.01.14-.14c-.06-.55.09-1.27.38-2.13.25-.73.39-1.31.4-1.74.4-.2.68-.3.76-.27-.07-.36.07-.65.48-.85.13.04.17.06.16.1s.01.1.1.13l.22-.07c.69.67,1.25,1.14,1.59,1.4-.03.09,0,.14.04.16s.07.07.03.2c.13-.1.27-.1.49-.03.92,1.13,1.33,1.89,1.27,2.35-.12.06-.26.34-.44.86.09.17.04.45-.05.85-.09.4-.12.78-.06,1.04-.1.3-.41.63-.9,1.09-.49.46-.79.79-.88,1.05.13.04.24.13.43.29.39.27.65.51.79.65.37.03,1.12.23,2.24.61.06.12.26.23.56.33s.46.35.49.69c.04.01.19.01.42.04.19.01.33.02.42.04-.07.22-.03.37.17.49l.27.19-.16.47c.36.22.67.56.87.97l-.52,1.55c-.09-.03-.14,0-.16.04s-.07.07-.2.03c-.03.37-.25.73-.61,1.09-.42.39-.65.65-.68.73-.1.01-.75.08-1.99.19-.75-.49-1.33-.74-1.8-.8.04-.13.02-.19-.03-.2s-.07-.07-.04-.16c-.4.2-.71.1-.9-.31-.53.16-1.15-.15-1.84-.81l-.4.2c-.22-.07-.33-.16-.39-.27-.16.04-.35.03-.52-.03-.22-.07-.36-.07-.53.01-.09-.17-.24-.27-.55-.38s-.5-.22-.6-.35c-.04-.16-.17-.2-.39-.13-.16.04-.3.04-.43,0-.27-.19-.86-.43-1.81-.76-.82-.28-1.48-.6-1.92-.99-.12.06-.39.01-.82-.13l-.9-.31c-.22-.07-.46-.2-.73-.39-.39-.27-.6-.49-.66-.61-.09-.03-.3.04-.59.18l-.95-.32-.1-.13-.14-.14c-.91.27-1.57-.05-2.05-1.03-.29.14-.5.07-.65-.22l-.17.09c-.4-.38-.76-.59-.98-.67-.47-1.74-.27-3.17.58-4.27,1.13.62,2.24.76,3.32.4l.1-.3c.04.16.21.22.52.17.29,0,.48.02.6.06.13-.1,1.05-.13,2.78-.12.19-1.57.66-3.81,1.42-6.77l-.1-.71c-.01-.24.02-.47.09-.69-.19-.16-.52-.32-.9-.45l-.95-.32-.04.42-.04.27-.28-1.01c-.22-.07-.62-.16-1.22-.22-.72-.15-1.11-.28-1.16-.39l-.22.07c-.22-.07-.53-.27-.85-.62l-.19.13c-.13-.04-.23-.17-.3-.39-.17-.2-.27-.33-.32-.35.07-.22.09-.4-.01-.53-.22-.07-.33-.16-.42-.33.03-.09-.26-.52-.9-1.31-.04-1.02.47-1.81,1.45-2.3.86.29,1.49.41,1.96.32.13.04.16.1.14.14s.01.1.1.13c.42-.1,1.35-.17,2.85-.19,1.28.05,2.27-.05,2.89-.32.2.4.46.49.78.26.04-.13.23-.4.61-.8.16-.47.36-.93.58-1.44.31-.76.39-1.31.25-1.6-2.06-.31-3.18-.55-3.35-.75l-.22.07c-.17-.06-.33-.16-.45-.25-.11-.09-.29-.15-.5-.22l-.47-.16c-.17-.06-.36-.07-.6-.06-.3-.1-.66-.32-.98-.67-.04.13-.14.14-.36.07.04-.13-.03-.2-.26-.23-.2-.12-.29-.29-.23-.46l-.43-.15c-.17-.06-.36-.22-.54-.52-.14-.29-.27-.48-.36-.51.03-.09.04-.13,0-.14s-.07-.07-.03-.2c-.17.09-.32.08-.53.01-.17-.06-.36-.07-.52-.03l-.12.35c-.13-.04-.33-.02-.5.07-.37.11-.55.2-.61.23-.32.23-.89.51-1.72.96-.29.14-.81.26-1.51.35l-1.64.31s-.19-.01-.5-.07c-.32-.06-.46-.06-.5-.07.04-.13.02-.19-.03-.2s-.03-.06,0-.14c-.78.17-1.12-.09-1.15-.72-.13-.04-.29,0-.46.08-.17.09-.33.13-.46.08.25-.73.34-1.14.24-1.26-.04-.16-.33-.3-.85-.48-.1-.13-.09-.32.02-.62.09-.26.1-.45,0-.58-.04-.16-.13-.19-.24.01-.09.12-.2.17-.29.14.17-.52.39-.73.69-.63.1-.3.36-.65.71-.96l2.81-1.5c1.23-.64,2.25-1.11,2.97-1.4,3.33-1.9,5.9-3.24,7.77-4.1.83-.05,1.94-.35,3.33-.89,1.47-.51,2.56-.77,3.31-.85,1.9-.94,3.2-1.51,3.86-1.62-.06-.26.07-.36.38-.4.29,0,.48-.13.55-.34.59.1,1.32.06,2.29-.09.04.16.24.27.55.38s.5.22.59.39c-.05.42.21.94.77,1.56.56.62.9,1.03,1.02,1.26l.78.26c1.81,1.91,2.78,2.86,3,2.93l.04.16.03.2.43.15,1.22,1.52c.6.78,1.04,1.31,1.37,1.62-.03.09,0,.14.04.16s.03.06-.02.19c.44.25.97.81,1.53,1.72.44.82.89,1.36,1.32,1.65.49.98.86,1.59,1.13,1.77-.04.13,0,.29.13.48.06.26.1.42.08.46.22.07.46.2.75.35.2.12.36.36.44.68.07.22.18.45.3.68l.6.2c.47,1.46.49,2.38.1,2.82h-.04Zm-33.53,11.96c.32-.95.19-1.71-.41-2.35.02-1.05-.55-1.77-1.72-2.17-.13.24-.49.6-1.03,1.05-.55.49-.94.93-1.21,1.32-.35.46-.59.9-.72,1.29l-.16.04-.2.03c-.62.85-.6,1.91,0,3.12.47.16.85.19,1.18.06.13.04.17.06.16.1s.01.1.1.13c.55.09,1.05.02,1.45-.18.4-.2.94-.64,1.55-1.3.64-.6.97-1.02,1.01-1.15Z" fill="#231815"/>
      <g>
        <path d="m97.55,62.83c-.16-.61-.39-1.18-.8-1.68-.41-.5-.89-.87-1.45-1.17-1.03-.57-2.25-.65-3.36-.29-.59.19-.89.99-.64,1.54.29.62.91.84,1.54.64,0,0,0,0,0,0,.01,0,.03,0,.04,0,.09-.02.19-.03.28-.04.01,0,.04,0,.06,0,.09,0,.18,0,.27.02.09.01.18.03.26.04.02,0,.04.01.06.02.18.06.34.14.51.22.02.02.05.03.07.05.08.05.16.11.23.17.04.03.07.06.11.09,0,0,0,0,0,0,.04.04.09.1.11.12.06.07.12.15.17.23.01.02.03.04.04.06.04.08.07.15.1.23.04.09.14.46.04.07.08.32.18.57.45.78.23.18.58.28.87.23.57-.1,1.17-.69,1.01-1.32Z" fill="#02292e" stroke="#06292f" stroke-miterlimit="10" stroke-width="1.37"/>
        <path d="m111.28,61.13c.44-.74.65-1.58.52-2.48-.2-1.32-1.34-2.6-2.73-3.14-1.37-.54-2.93-.4-3.94.44-.59.49-.99,1.14-1.13,1.84-.54.76-.75,1.71-.63,2.66.15,1.18,1.01,2.31,2.18,2.91.27.25.59.46.93.6.28.11.59.21.88.24.3.03.61.05.9,0,.38-.06.68-.13,1.01-.29.33-.16.58-.33.83-.58.06-.07.12-.14.17-.22.12-.19.25-.38.34-.59.03-.07.05-.15.07-.22.23-.28.42-.59.54-.94.03-.08.05-.16.07-.24Z" fill="#06292f"/>
        <path d="m122.06,54.25c-.16-.8-1.07-1.49-1.96-1.4-2.38.22-4.77.41-7.17.56-1.2.07-2.4.14-3.6.19-.57.03-1.14.05-1.71.07.12-.66-.4-1.43-1.1-1.73-.9-.38-1.79-.02-2.16.69-.69,1.33-.92,3.64,1.4,4.07.85.16,1.79.02,2.62-.01.82-.03,1.63-.07,2.45-.11,3.3-.16,6.59-.4,9.87-.71.89-.08,1.52-.78,1.35-1.62Z" fill="#06292f"/>
        <path d="m95.69,49.95c.27-.75.06-1.57-.63-1.87-.54-.23-1.28.01-1.64.57-.27-.38-.53-.75-.8-1.13-.56-.8-1.11-1.6-1.65-2.42-1.09-1.62-2.14-3.27-3.18-4.94-.39-.62-1.27-.69-1.85-.21-.61.5-.74,1.42-.35,2.04,1.02,1.65,2.08,3.28,3.16,4.89-.01,0-.02,0-.04,0-.6-.02-1.18.33-1.65.77-.25.18-.47.41-.65.67-.03.05-.05.11-.09.16-.01.02-.03.04-.05.06-.65.88-1.08,1.91-1.25,2.99-.04.23-.05.47-.06.7-.14.51-.16,1.05.03,1.56.27.74.85,1.25,1.56,1.37.77.29,1.68.09,2.34-.46.96-.79,1.64-1.99,2.08-3.14.1-.27.09-.58-.02-.84.02-.2.03-.4.03-.59.05.07.1.14.15.21.39.55.77,1.25,1.28,1.66,1.42,1.15,2.76-.69,3.26-2.1Z" fill="#06292f"/>
        <path d="m100.29,55.92s-.01-.02-.02-.02c0-.01-.01-.03-.02-.04-.02-.03-.04-.09-.06-.14,0,0,0,0,0-.02,0-.03-.01-.07-.02-.1,0-.04-.02-.12-.02-.17,0,0,0,0,0,0,0-.03,0-.07,0-.1,0-.05.01-.1.02-.15,0-.06.01-.15.04-.2-.03.09-.03.1,0,.03.01-.03.02-.06.03-.1.03-.07.05-.14.08-.2,0-.02.07-.13.08-.16.07-.12.16-.24.24-.36.22-.28.46-.54.71-.8.25-.26.17-.76-.11-.96-.33-.23-.7-.16-.96.11-.55.57-1.12,1.2-1.36,1.97-.23.76-.19,1.55.25,2.23.2.3.68.36.96.14.3-.25.35-.64.14-.96Z" fill="#02292e" stroke="#06292f" stroke-linejoin="round" stroke-width="1.37"/>
        <path d="m101.27,76.4c-.2.21-.51.32-.89.22-6.49-1.71-13.06-3.52-18.54-7.55-1.06-.78.33-2.3,1.39-1.52.55.4,1.11.77,1.68,1.13.04,0,.08.01.13.03.64.31,1.3.61,1.95.89l3.37,1.21c1.08.26,2.15.55,3.22.85,2.64.3,5.27.78,7.65,2.03.33.18.49.45.53.74.14.29.2.61.16.92,0,.43-.25.87-.65,1.04Z" fill="#06292f"/>
      </g>
    </g>
  </g>
</svg>