<?xml version="1.0" encoding="UTF-8"?>
<svg id="_圖層_2" data-name="圖層 2" xmlns="http://www.w3.org/2000/svg" width="238.08" height="310.34" viewBox="0 0 238.08 310.34">
  <g id="icon">
    <g>
      <path d="m208.44,144.71c8.27-5.12,15.48-12.24,20.8-21.17,9.95-16.71,11.24-36.17,5.18-53.16l-68.6-40.87c-17.82,2.76-34.32,13.16-44.28,29.87-5.32,8.94-8.15,18.66-8.72,28.37-38.42-.49-76.05,18.92-97.13,54.31-31.46,52.81-14.15,121.12,38.65,152.58,52.81,31.46,121.12,14.15,152.58-38.65,21.08-35.39,20.24-77.72,1.51-111.27Z" fill="#a7583e"/>
      <path d="m227.56,105.01c-3.6,7.77-9.19,14.44-15,20.73-3.5,3.78-12.51,10.14-27.39,10.66-12.85.45-25.29-6.13-35.37-14.11-10.08-7.98-17.53-19.53-19.48-32.24-1.94-12.71,1.99-26.43,11.21-35.39,7.46-7.25,18.12-11.08,28.49-10.23,9.17.75,17.7,4.9,25.69,9.47,10.94,6.26,24.34,13.59,32.88,23.02,6.11,6.75,2.3,20.89-1.03,28.08Z" fill="#fff"/>
      <path d="m232.43,70.34c-17.39-.12-36.85-12.77-36.85-12.77,0,0-21.15-11.5-29.22-27.16l-.65-1.34s42.63-3.92,55.8-29.07l6.18,3.68,6.18,3.68c-15.85,23.56,1,62.91,1,62.91l-2.44.07Z" fill="#231815"/>
      <path d="m116.48,230.98c-1.13-.25-2.36-.63-3.6-1.12-1.57-.51-2.57-.85-3.12-.92-.72-.51-1.36-.73-1.93-.64-.15-.18-.69-.41-1.68-.91-.86-.42-1.45-.86-1.78-1.32-.19-.11-.52-.14-1.02,0-.2-.38-.67-.74-1.4-1.09-.89-.36-1.37-.56-1.4-.66-.39-.06-.91-.2-1.68-.49-.6-.28-1.15-.51-1.64-.55-.19-.11-.21-.21-.18-.28s.01-.16-.11-.24c-.74-.19-1.8-.56-3.04-1.21-1.36-.73-2.36-1.06-3.04-1.21l-.18-.28-.11-.24h-.43c-.13-.5-.63-.8-1.71-.85l-1.78-1.32c-.78-.55-1.34-1.05-1.6-1.47-.93-.3-1.53-.74-1.78-1.32-.84-.16-2.16-1.11-4.06-2.93l-.36.04c-.06-.47-.42-1.02-1.04-1.56-.71-.68-1.1-1.17-1.21-1.41l-.37.04-1.14-7.26c.24-.11.39-.37.48-.66.1-.45.19-.74.26-.87.19-.32.17-.58-.14-.77.11-1.04.59-1.7,1.39-1.9s1.89-.16,3.18.1,2.18.36,2.68.23c.34.29.52.56.51.73.76.02,1.75.36,3.06.88.31.19.58.17.83-.1,1.06.37,2.51.81,4.48,1.22,1.71.42,3.55.92,5.42,1.52,2.42,1.1,3.79,1.66,4.18,1.72.45-.33.83-.96,1.27-1.98.34-1,.65-1.66.9-1.94l.22-.81c.14-.52.32-.83.63-.91.28-.6.85-1.71,1.65-3.2.83-1.39,1.34-2.53,1.5-3.38-.26.01-.58-.17-.78-.55-.33-.45-.51-.73-.63-.8-.64-.21-1.71-.85-3.3-2.05l-.91-.63c-.4-.33-.71-.68-.91-1.05-.32-.19-.58-.17-.77.14-.31-.19-.49-.46-.51-.73-2.99-.58-4.62-3.01-4.89-7.27l-.47-.36c.15-.25.31-.67.46-1.35.19-.74.43-1.29.68-1.56,5.36-1.25,11.36-1.01,18.04.84l.24-.11.34-.14c.15.18.86.43,2.04.88l.36-.47c.28.25.63.38,1.02.44l1.23.22c.11-.19.09-.29.02-.33s-.03-.1.09-.29c.5-.13,1.06-.48,1.59-1.1.6-.58.95-.88,1.26-.96-.08-.3.15-.68.71-1.2.46-.49.76-1,.83-1.39.58-.25,1.24-.37,1.9-.32.19.11.21.21.18.28s-.01.16.11.24c1.18.02,1.86.6,2.07,1.83.4.33.76.88,1.26,1.61.56.93.88,1.38.95,1.42.03.53.18,1.13.46,1.81.22.64.42,1.45.52,2.28.12.67-.1,1.31-.57,1.97,7.15,4.77,11.55,8.85,13.18,12.29.31,2.06.34,3.45.09,4.15.17.44.13.93-.11,1.47-.18.58-.27,1.03-.26,1.3-.1.03-.44.16-1.09.55-.53.45-.84.69-.88.76-.52-.14-1.22.04-2.05.57-.91-.2-1.52-.74-1.88-1.72-.1.03-.29-.09-.62-.11-.25-.15-.58-.17-.93-.3l-1.03-.27c-.91-.2-1.84-.5-2.77-.8-.15-.18-.69-.41-1.61-.88-.71-.25-1.24-.65-1.69-1.18-.65-.05-1.57-.51-2.7-1.35-.89.07-2.59-.09-5.06-.54-.25.28-.88.76-1.72,1.45-.25.28-.81,1.22-1.75,2.8-.76,1.42-1.52,2.26-2.16,2.47-.21.64-.49,1.25-.89,1.78l-1.17,1.53c.05.2-.01.59-.25,1.13l-.6,1.01,2.22,1.58.1.4c.38-.2.84.16,1.56,1.1.11-.19.62.11,1.49.8.5-.13.78.12.91.63.52.14,1.27.59,2.27,1.35,1.03.7,1.79,1.15,2.24,1.25.08.3.57.77,1.41,1.35l.36-.04c.11.24.23.48.51.73l.4-.1c.2.38.76.88,1.54,1.43.81.65,1.3,1.12,1.5,1.49l.4-.1c0,.43.33.88.96,1.26.48.2.91.63,1.36,1.15l.4-.1.2.38c.22.21.37.39.45.53.82,3.22.9,5.66.22,7.22-.4.53-.73.93-1.03,1.01.05.2-.04.49-.29.77-1.08-.05-1.89.16-2.41.61-1.29-.43-2.29-.6-3.12-.49-2.69-1.94-4.74-2.65-6.22-2.17-1.03.15-2.12.11-3.25-.14Z" fill="#231815"/>
      <path d="m181.74,63.35c-1.06-1.88-2.99-3.03-5.02-3.62-1.93-.56-3.99-.5-5.98-.43-.8.03-1.5.84-1.4,1.64.1.85.79,1.43,1.64,1.4,1.75-.07,3.2-.12,4.88.3.06.01.5.15.33.09.21.07.41.15.61.24.2.09.4.18.59.29.1.05.19.11.28.16-.09-.06-.09-.06,0,0,.34.23.65.49.93.78.13.14.15.16.05.06.07.08.13.17.2.26.13.18.24.36.35.55.39.7,1.49.87,2.12.41.71-.53.83-1.37.41-2.12Z" fill="#06292f" stroke="#06292f" stroke-miterlimit="10" stroke-width="1.02"/>
      <path d="m208.76,82.4c2.13.37,3.86,1.8,5.09,3.51,1.17,1.63,1.81,3.59,2.41,5.49.24.76-.29,1.69-1.07,1.87-.83.19-1.61-.26-1.87-1.07-.53-1.67-.96-3.05-1.92-4.49-.03-.05-.31-.43-.2-.28-.13-.17-.28-.34-.43-.5-.15-.16-.31-.31-.47-.46-.08-.07-.16-.14-.25-.21.09.06.09.06,0,0-.33-.24-.68-.44-1.05-.62-.17-.08-.2-.09-.07-.03-.1-.04-.2-.07-.31-.1-.21-.06-.42-.1-.63-.14-.79-.14-1.32-1.11-1.1-1.86.26-.84,1.01-1.24,1.86-1.1Z" fill="#06292f" stroke="#06292f" stroke-miterlimit="10" stroke-width="1.02"/>
      <path d="m209.49,105.86c-.39-1.53-.78-3.06-1.17-4.59-.1-.4-.28-.74-.62-.99-.3-.21-.75-.33-1.12-.26-.28-.2-.65-.29-1.1-.19-4.52.99-9.62-1.02-12.02-5.06-.42-.71-1.21-1.12-2.02-.75-.69.31-1.18,1.31-.75,2.02,1.36,2.28,3.33,4.12,5.63,5.35,0,.02-.02.05-.03.07-.32,1.43-.65,2.85-.97,4.28-.09.4-.13.76.05,1.15.16.34.5.69.87.8.37.12.79.13,1.15-.05.34-.17.71-.48.8-.87.32-1.41.64-2.82.96-4.22.52.15,1.05.28,1.59.37,0,.24.02.47.1.73.58,1.76,1.15,3.51,1.73,5.27.12.35.54.68.87.8.35.12.82.12,1.15-.05.36-.18.68-.48.8-.87s.08-.75-.05-1.15c-.5-1.52-1-3.03-1.49-4.55.58-.03,1.16-.09,1.75-.2.3,1.16.59,2.31.89,3.47.1.4.28.74.62.99.31.22.77.34,1.14.26.39-.08.77-.28.99-.62.21-.33.36-.75.26-1.14Z" fill="#06292f" stroke="#06292f" stroke-miterlimit="10" stroke-width="1.02"/>
      <path d="m173.01,80.62c-2.9-.92-5.73-2.45-7.88-4.64-1.37-1.4-2.81-3.44-1.92-5.43.34-.75-.19-1.69-.92-1.95-.33-.12-.64-.09-.93,0-.24-.08-.49-.1-.75-.06-1.33.1-2.67.21-4,.31-.37.03-.78.33-.99.62-.22.31-.34.77-.26,1.14.08.39.28.77.62.99.12.06.24.13.36.19.25.09.51.11.78.07.91-.07,1.83-.14,2.74-.21,0,.11.01.21.02.32-.98.29-1.97.57-2.95.86-.2.03-.38.1-.54.22-.18.09-.33.23-.45.4-.22.31-.34.77-.26,1.14.08.39.28.77.62.99.32.2.76.37,1.14.26,1.05-.31,2.1-.61,3.16-.92,0,0,.02,0,.03,0,.44.93,1.04,1.8,1.71,2.55-.08.05-.15.11-.23.16-.65.39-1.35.7-2.07.94-.09.02-.18.05-.27.07-.4.1-.74.28-.99.62-.22.31-.34.77-.26,1.14.08.39.28.77.62.99.33.21.75.35,1.14.26,1.56-.4,3.01-1.08,4.3-2.04,2.18,1.75,4.75,3.07,7.38,3.91,1.86.59,2.91-2.27,1.03-2.87Z" fill="#06292f" stroke="#06292f" stroke-miterlimit="10" stroke-width="1.02"/>
      <path d="m182.92,98.77c-.91-3.46-4.41-6.07-8-5.79-.73.06-1.45.61-1.41,1.41.03.72.62,1.47,1.41,1.41.34-.03.68-.02,1.02,0,.01,0,.02,0,.02,0,0,0,0,0,0,0,.07.02.15.03.22.04.17.03.33.07.49.12.16.05.32.1.48.16.03.01.05.02.07.03.05.02.1.05.15.07.32.16.63.34.93.55.06.04.11.08.16.12.01,0,.02.02.03.03.13.11.26.22.38.34.12.12.24.24.35.37.05.06.1.12.15.17.01.01.01.02.02.03.19.28.37.56.52.87.03.07.06.14.1.2,0,0,0,0,0,0,0,.01,0,0,0,.03.06.18.12.36.17.54.19.72.99,1.23,1.72,1.01.73-.22,1.21-.96,1.01-1.72Z" fill="#06292f" stroke="#06292f" stroke-miterlimit="10" stroke-width="1.02"/>
      <path d="m186.74,116.13c.21-.59,0-1.34-.91-1.88-9.13-5.5-17.98-11.47-26.53-17.86-.24-.28-.56-.5-.92-.66-1.32-.87-2.48-.06-2.49,1.02-1.05,2.96-.45,6.48.94,9.82,1.6,3.81,3.94,7.93,7.82,10.5,7.26,4.81,16.46,4.28,21.62.13.36-.29.49-.67.46-1.06Zm-20.33-1.56c-3.05-2.02-4.91-5.38-6.16-8.38-.88-2.12-1.38-4.23-1.19-6.19,7.42,5.48,15.06,10.63,22.92,15.45-4.2,2.3-10.46,2.51-15.57-.87Z" fill="#06292f" stroke="#06292f" stroke-miterlimit="10" stroke-width="1.02"/>
      <ellipse cx="151.5" cy="83.68" rx="2.18" ry="5.93" transform="translate(-4.19 159.28) rotate(-54.82)" fill="#a7583e" opacity=".5"/>
      <ellipse cx="198.08" cy="116.52" rx="2.18" ry="5.93" transform="translate(-11.29 211.27) rotate(-54.82)" fill="#a7583e" opacity=".5"/>
      <g>
        <path d="m149.32,83.39c.08-1.12.17-2.24.25-3.36.02-.27-.19-.54-.46-.55-.27-.01-.53.18-.55.46-.08,1.12-.17,2.24-.25,3.36-.02.26.19.54.46.55.27.01.53-.18.55-.46Z" fill="#06292f" stroke="#06292f" stroke-miterlimit="10" stroke-width=".76"/>
        <path d="m151.91,85.7c.04-1.48.08-2.95.12-4.43,0-.27-.18-.53-.46-.55-.26-.02-.54.19-.55.46l-.12,4.43c0,.27.18.53.46.55.26.02.54-.19.55-.46Z" fill="#06292f" stroke="#06292f" stroke-miterlimit="10" stroke-width=".76"/>
        <path d="m154.93,87.8c-.14-1.56-.18-3.12-.13-4.68,0-.27-.18-.53-.46-.55-.26-.02-.54.19-.55.46-.06,1.65,0,3.3.14,4.94.02.27.33.46.59.41.29-.05.44-.31.41-.59Z" fill="#06292f" stroke="#06292f" stroke-miterlimit="10" stroke-width=".76"/>
        <path d="m195.87,116.46c.02-1.34.03-2.67.05-4.01,0-.27-.18-.53-.46-.55-.26-.02-.55.19-.55.46-.02,1.34-.03,2.67-.05,4.01,0,.27.18.53.46.55.26.02.55-.19.55-.46Z" fill="#06292f" stroke="#06292f" stroke-miterlimit="10" stroke-width=".76"/>
        <path d="m198.75,118.73c.1-1.44.19-2.88.29-4.32.02-.27-.19-.53-.46-.55-.27-.02-.53.19-.55.46-.1,1.44-.19,2.88-.29,4.32-.02.27.19.53.46.55.27.02.53-.19.55-.46Z" fill="#06292f" stroke="#06292f" stroke-miterlimit="10" stroke-width=".76"/>
        <path d="m201.67,120.32c.18-1.11.3-2.22.35-3.34.01-.27-.18-.54-.46-.55-.27-.01-.54.18-.55.46-.05,1.12-.17,2.24-.35,3.34-.04.26.2.54.46.55.29.01.5-.18.55-.46Z" fill="#06292f" stroke="#06292f" stroke-miterlimit="10" stroke-width=".76"/>
      </g>
    </g>
  </g>
</svg>