<?xml version="1.0" encoding="UTF-8"?>
<svg id="_圖層_2" data-name="圖層 2" xmlns="http://www.w3.org/2000/svg" width="251.06" height="299.28" viewBox="0 0 251.06 299.28">
  <g id="icon">
    <g>
      <path d="m213.04,142.88c8.71-4.34,16.54-10.75,22.67-19.16,11.45-15.71,14.54-34.97,10.08-52.45l-64.52-47.04c-18,1.1-35.39,9.93-46.85,25.64-6.13,8.4-9.84,17.83-11.3,27.44-38.21-4.04-77.48,11.81-101.74,45.09-36.21,49.67-25.29,119.29,24.38,155.5,49.67,36.21,119.29,25.29,155.5-24.38,24.26-33.28,27.34-75.51,11.8-110.66Z" fill="#0088cd"/>
      <path d="m235.74,105.12c-4.31,7.41-10.48,13.53-16.86,19.26-3.83,3.45-13.39,8.94-28.26,8.08-12.83-.74-24.62-8.45-33.91-17.32-9.3-8.88-15.65-21.07-16.41-33.9-.76-12.83,4.43-26.13,14.44-34.2,8.1-6.53,19.07-9.35,29.32-7.55,9.06,1.59,17.17,6.52,24.7,11.81,10.32,7.24,22.98,15.78,30.61,25.96,5.46,7.28.36,21.02-3.63,27.87Z" fill="#fff"/>
      <path d="m243.81,71.05c-17.3-1.73-35.51-16.12-35.51-16.12,0,0-19.99-13.41-26.59-29.75l-.53-1.39s42.81.04,58.25-23.79l5.81,4.24,5.81,4.24c-17.96,21.99-4.82,62.73-4.82,62.73l-2.43-.16Z" fill="#231815"/>
      <path d="m108.13,171.78c.09.25-.31,1.05-1.22,2.29-.56.77-3.49,3.17-8.77,7.05l-3.89,1.98c-1.81.86-3,1.63-3.65,2.15-.26-.01-1.36.37-3.41,1.06-1.68.68-2.94,1.04-3.86,1.18-.63-1-1.41-1.3-2.29-.85-.07-.78-.18-1.13-.38-1.1-2.39.16-3.34-.53-2.91-2.12-.61.1-.97-.16-1.07-.78l-.38-.1-.32-.05c-.05-.31-.24-.54-.6-.8,1.08-1.48,1.83-2.76,2.38-3.89,3.57-1.66,5.67-2.67,6.26-2.98,8.11-2.53,13.17-5.11,15.32-7.81-.05-.31-.24-.54-.57-.59-.34-.16-.59-.43-.82-.87-1.1-1.35-2.25-2.27-3.35-2.63-3.27-1.11-5.57-1.7-6.82-1.61-.26-.01-.34-.16-.21-.33s.11-.28-.11-.35c-1.84-.34-3.62-1.64-5.34-3.89.22-.3.11-.65-.43-1.04.08-.49-.03-1.2-.32-2.05-.35-.89-.45-1.51-.29-1.85.01-.26.42-.7,1.16-1.34l-.07-.41c.57-.4.92-1.14,1.22-2.29.31-.05.67-.42.98-1.1.37-.64.73-1.01,1.04-1.06.42.3.9.38,1.41.3.42-.33,3.74.73,9.98,3.01.35.89,1.6,1.8,3.63,2.74,2.84,1.34,5.67,5.05,8.52,11.11.11.72.55,1.86,1.18,3.49l-.12,2.91-1.9,2.61Zm16.91,13.05c-.41.06-.64.26-.8.6-1.15,2.7-4.72,8.09-10.6,16.16-1.26.99-2.74,2.64-4.51,5.07l-3.24,4.45c-.18-.13-.28-.11-.32-.06s-.21.03-.38-.1c-.13.18-.29.52-.47,1.02l-.35.47c-.07.22-.16.34-.14.44l-.09.12c-.72.11-1.27.25-1.57.4-.53.61-1.22.93-2.02,1.16-1.01.26-1.56.4-1.65.52-.18-.13-.72-.25-1.69-.42-.97-.16-1.39-.47-1.3-.95-.41.06-.88.08-1.42-.04-.69-.05-1.12-.09-1.42-.04-.29-.48.15-2.07,1.21-4.66.42-2.69,1.64-5.98,3.8-9.94.29-.52.61-.83,1.02-.9.65-1.52,1.76-3.53,3.32-5.93,1.45-2.12,2.79-3.96,3.98-5.46,1.16-1.34,2.44-3.22,3.86-5.54.48-.29,1.02-.89,1.55-1.87.68-1.05,1.24-1.82,1.72-2.11l-.06-.41c-.05-.31.04-.43.33-.21.24.17.34.16.29-.15l-.06-.41c-.02-.1.17-.24.59-.57.29-.15.41-.43.36-.74.48-.29.97-.84,1.46-1.75.63-.99,1.15-1.7,1.63-1.99-.3-.22-.05-.67.71-1.48l3.39-3.52c1.88-.72,3.16-1.97,3.97-3.83,1.35-.74,2.29-1.78,2.76-3.16.61-.1.97-.2,1.1-.38l.56-.77c1.85-.29,3.05.05,3.68,1.05.13-.18.72-.11,1.87.18.08.51.13.82.06,1.04-.12.54-.12.91.06,1.04.36.26.59,1.06.65,2.47.22.07.36.26.44.77.21.33.32.69.31.95.1,1.61-.54,3.6-1.81,5.85-.36-.26-.66-.21-.92.14s-.49.55-.8.6l.07.41-2.08,2.85c-.43-.04-.85.29-1.19,1.13-.43.96-.61,1.46-.71,1.48-.64.26-1.16.97-1.51,2.08-2,1.99-3.21,3.65-3.59,4.92Zm10.99,15.19l-.75-.09-.71-.15c-.83.76-1.84,1.02-3.11.91l-.73,1.01c.01,2.1.66,4.57,1.91,7.47.84,3.34,1.52,7.01,2.03,10.92.73,1.62,1.05,3.04.94,4.32.71,1.52.79,3.39.27,5.74-1.57-.33-2.49.18-2.69,1.58-.49-.08-.92.14-1.31.68-.43.59-.81.86-1.03.79-1.87-.55-2.9-.75-3.15-.66-1.49.55-2.4.8-2.7.84-1.44-2.14-2.05-3.67-1.93-4.58-.3-.22-.51-.55-.55-.86-.4-1.2-.79-3.03-1.07-5.5-.22-2.07-.55-3.85-.97-5.15.36-.74.24-1.82-.32-3.42.1-2.01.09-3.11-.09-3.24.26-.36.37-.64.32-.94-.24-.54-.32-4.41-.08-11.59l.29-.15.33-.21c.53-2.97,3.52-5.7,8.9-8.22.36.26.71.15,1.1-.38,1.16-.34,2.31-.68,3.44-.85,1.54-.24,2.69-.58,3.44-.86.87.18,2.89.02,6.03-.42,3.1.35,5.56-.03,7.47-1.28.19-.13.45-.12.69.05.14.92.28,1.48.46,1.61,1.16.4,1.49,1.45,1.01,3.1-.04.06.09.25.36.63.17.39.3.58.32.69.05.31-.05.69-.27.99-.3.42-.42.7-.32.94,1.4,2.93.8,5.13-1.76,6.53.05.31-.09.75-.44,1.22-.31.05-1.01.26-2.19.76-1.47.65-2.42.96-2.64.89-5.75-2.83-9.23-3.91-10.46-3.09Z" fill="#231815"/>
      <g>
        <path d="m191.2,89.17c.81-1.62.64-3.65-.75-4.92-1.3-1.18-3.23-1.33-4.74-.5-1.17.64-.17,2.45,1,1.81,1.66-.91,3.63.74,2.73,2.53-.59,1.18,1.17,2.27,1.76,1.08Z" fill="#06292f" stroke="#06292f" stroke-miterlimit="10" stroke-width="3.07"/>
        <path d="m222.25,90.08c.36-4.56-2.03-8.99-6.04-11.2-1.16-.64-2.25,1.12-1.08,1.76,3.4,1.87,5.35,5.5,5.05,9.37-.1,1.33,1.96,1.39,2.07.07Z" fill="#06292f" stroke="#06292f" stroke-linecap="round" stroke-linejoin="round" stroke-width="3.07"/>
        <path d="m189.11,55.47c-2.55-3.4-7.03-4.66-11-3.27-1.25.44-.4,2.32.85,1.89,3.12-1.09,6.59.07,8.55,2.69.8,1.06,2.4-.24,1.6-1.31Z" fill="#06292f" stroke="#06292f" stroke-linecap="round" stroke-linejoin="round" stroke-width="3.07"/>
        <path d="m184.7,110.65c2-.52,3.93-1.25,5.72-2.3,1.1-.64,2.94-1.54,2.9-2.94,0,0,0,0,0-.01.05-.28,0-.5-.08-.68.01,0,.02-.01.04-.02-.05-.3-.22-.59-.55-.77-9.47-5.14-17.62-12.45-23.82-21.24-.77-1.09-2.39.19-1.62,1.28.26.37.53.73.79,1.09-.02.17.01.37.13.57.9,1.54-.07,3.92-.42,5.54-.4,1.84-.79,3.7-.97,5.58-.32,3.37,0,6.86,1.77,9.82.52.86,1.16,1.62,1.88,2.27.06.18.18.35.38.49.58.41,1.19.76,1.82,1.06.07.09.16.17.27.24,3.32,1.93,8.25.94,11.76.02Zm-6.04-1.14c-.45.03-.91.06-1.38.07-.07-.02-.14-.04-.21-.05-1.48-.17-2.87-.61-4.14-1.34-1.92-1.25-3.2-3.3-3.76-5.56-.76-3.08-.33-6.29.28-9.35.29-1.46.94-3.26,1.16-4.99,5.43,6.56,11.99,12.11,19.35,16.41,0,.07.02.13.04.19.08.04.16.1.22.17.09.11.14.29.12.43,0,.02,0,.05-.02.07.03.23-.05.49-.2.67-.16.19-.36.32-.58.43-.21.1-.44.16-.67.22-.03,0-.06.01-.08.02-.43.22-.86.44-1.3.63-1.46.64-2.98,1.1-4.54,1.41-1.41.29-2.84.47-4.28.57Z" fill="#06292f" stroke="#06292f" stroke-miterlimit="10" stroke-width="3.07"/>
        <path d="m173.21,71.82c2.23.72,4.39-.37,5.83-2.08,1.51-1.8,2.37-4.2.61-6.18-1.19-1.34-3.14-1.72-4.85-1.31-.34,0-.69.03-1.04.1-2.07.45-3.7,2.29-3.9,4.4-.22,2.21,1.23,4.39,3.35,5.07Z" fill="#06292f"/>
        <path d="m211.31,97.67c2.13-3.2-.24-9.01-4.45-8.61-3.77.36-5.41,4.68-4.09,7.78.36,1.36,1.48,2.53,2.84,2.92,1.99.57,4.55-.36,5.69-2.09Z" fill="#06292f"/>
      </g>
    </g>
  </g>
</svg>