<?xml version="1.0" encoding="UTF-8"?>
<svg id="_圖層_2" data-name="圖層 2" xmlns="http://www.w3.org/2000/svg" width="242.95" height="305.06" viewBox="0 0 242.95 305.06">
  <g id="icon">
    <g>
      <path d="m125.01,82.67c-1.01-9.68-4.28-19.26-10.01-27.94-10.71-16.23-27.67-25.86-45.6-27.8L2.75,70.9c-5.27,17.25-3.09,36.63,7.62,52.86,5.73,8.68,13.25,15.46,21.75,20.2-17.16,34.38-16.06,76.71,6.62,111.09,33.85,51.3,102.89,65.45,154.19,31.6,51.3-33.85,65.45-102.89,31.6-154.19-22.68-34.38-61.17-52.04-99.52-49.79Z" fill="#e62320"/>
      <path d="m97.58,48.18c5.43,6.63,9,14.56,12.14,22.53,1.89,4.8,3.69,15.67-2.33,29.3-5.19,11.76-16.53,20.1-28.1,25.7s-25.22,7.28-37.5,3.51c-12.29-3.78-22.93-13.3-26.98-25.49-3.28-9.87-2.09-21.14,3.19-30.11,4.67-7.93,12.12-13.8,19.71-19.01,10.4-7.13,22.83-16,35.04-19.59,8.73-2.57,19.81,7.02,24.83,13.15Z" fill="#fff"/>
      <path d="m68.5,28.7c-7.67,15.6-27.54,27.62-27.54,27.62,0,0-19.56,14.03-37.18,14.49h-1.49S17.32,30.73.41,7.93l6.01-3.96L12.42,0c14.31,24.52,57.07,26.48,57.07,26.48l-1,2.22Z" fill="#231815"/>
      <path d="m109.82,180.38c-.13.87-.01,2.12.43,3.85.26,1.32.46,2.42.53,3.34-.06.31-.17.81-.23,1.65-.03,1.16-.05,1.79.01,2.02-.06.31-.03,1.16.23,2.48.34,1.45.52,2.38.58,2.87.04.59-.03,1.42-.28,2.38-.29.89-.92,1.66-1.96,2.35-1.29.85-2.9,1.21-4.75.93-1.04-.37-3.41-1.71-7-4.08-2.78-1.95-5.09-4.91-7.02-8.91-1.41-2.14-2.14-4.04-2.07-5.67.18-.39,1.21-1.24,3.17-2.53.06-.04,1.28-.58,3.51-1.61,1.98-.87,3.47-1.67,4.57-2.4l.77.37,1.53-1.01c.53.27,1.32.53,2.38.8,1.12.23,1.75.52,1.91.76,2.56,1.21,3.78,1.99,3.69,2.4Zm29.85,6.06c1.45-.34,3.99-1.14,7.85-2.36,4.26-1.4,7.32-2.37,9.21-2.83,2.41-.62,5.09-1.07,7.92-1.45,3.16-.41,5.94-.32,8.28.43,2.42.6,4.55,1.83,6.41,3.59.37.02.61.39.69,1.04.12.71.24,1.16.36,1.34.07,1.71-.01,2.65-.26,2.81-.86.57-1.55,1.11-2.19,1.62-.9.77-1.47,1.23-1.78,1.44l-3.37,2.22-14.07,2.25-16.54,2.65c.73,5.5,3.55,11.9,8.44,19.31.81,1.22.8,2.55-.08,4.01-.18.39-.47.75-.9,1.03l-.8.53c-.8,1.32-2.62,2.69-5.37,3.98-.49.32-1.04.42-1.75.28l-2.3-.68c-1-.31-1.65-.5-1.97-.46-1.91-.76-3.45-2.03-4.7-3.93-3.23-4.9-5.37-8.68-6.46-11.39-5.53-13.85-8.7-31.97-9.55-54.45,3.28-1.02,6.68-1.07,10.09-.16,4.56.78,7.27,3.56,8.12,8.18l2.45,11.04c.18.94.28,2.02.33,3.3.03,1.38.25,2.65.55,3.77.36,1.08.84,2.08,1.37,2.88Zm23.74-40.63c-.99-.84-4.45-1.81-10.41-2.72-.37-.02-1.06,0-2.08.05l-1.95.23c-.39.08-.71.38-1.08.89-3.22,10.3-3.12,17.53.32,21.68,3.52,3.74,6.28,5.26,8.34,4.52,2.36-.68,3.49-2.04,3.36-3.97-.16-.77.05-1.79.63-3.05.6-1.36.95-2.3.89-2.78.18-.12.51-.16.94-.18l.99-5.84c.18-.39.6-1.1,1.29-2.17.7-1.08.95-2.03.83-2.74-.01-1.75-.7-3.06-2.06-3.92Z" fill="#231815"/>
      <path d="m68.32,84.32c-2.96-.15-5.95,1.69-7.17,4.38-.31.68-.13,1.58.59,1.93.66.31,1.6.13,1.93-.59.12-.26.25-.51.4-.74,0,0,.05-.08.09-.13.01-.01.02-.03.03-.04.09-.11.18-.22.27-.32.09-.1.19-.21.29-.3.05-.05.1-.1.15-.14,0,0,.09-.08.11-.1.06-.04.11-.08.17-.13.13-.09.26-.18.4-.26.12-.07.24-.14.37-.21.05-.02.09-.05.14-.07.08,0,.31-.13.38-.15.13-.05.27-.09.4-.12.14-.04.27-.07.41-.1.01,0,.02,0,.02,0,.06,0,.12-.02.18-.02.3-.03.6-.03.9-.02.75.04,1.44-.74,1.39-1.46-.06-.82-.67-1.35-1.46-1.39Z" fill="#06292f" stroke="#06292f" stroke-miterlimit="10" stroke-width="1.05"/>
      <g>
        <path d="m75.12,55.76s.05-.03.08-.04c0,0,0,0-.01,0-.02.01-.04.02-.07.04Z" fill="#06292f" stroke="#06292f" stroke-miterlimit="10" stroke-width="1.05"/>
        <path d="m77.04,55.09c.23,0,.22-.02.14-.02-.04,0-.09.01-.13.01,0,0,0,0-.01,0Z" fill="#06292f" stroke="#06292f" stroke-miterlimit="10" stroke-width="1.05"/>
        <path d="m80.66,52.04c-3.11-.65-6.26-.05-8.55,1.6-.63.45-.74,1.48-.12,2.18.61.69,1.63.95,2.3.47.23-.17.48-.33.73-.47.03-.02.07-.04.11-.06-.05.03-.08.03.05-.03,0,0,0,0,.01,0,.02-.01.04-.02.05-.03-.01,0-.03.02-.04.02.12-.06.25-.11.37-.17.27-.11.55-.21.84-.3.16-.05.32-.09.48-.13.05-.01.1-.02.16-.04,0,0,0,0-.02,0,0,0,.02,0,.03,0h0s.09-.01.12-.01c.25-.02.51-.08.75-.1.31-.03.62-.04.93-.03.16,0,.31.01.47.01-.52,0,.06,0,.19.02.33.04.66.09,1,.16.85.18,1.7-.41,1.69-1.24,0-.86-.65-1.66-1.56-1.86Z" fill="#06292f" stroke="#06292f" stroke-miterlimit="10" stroke-width="1.05"/>
      </g>
      <g>
        <path d="m34.75,79.94c-.76-.65-1.72-.57-2.44.08-1.26,1.13-2.13,2.61-2.67,4.2-.55,1.62-.59,3.33-.28,5,.08.41.48.84.83,1.03.37.2.91.28,1.31.14.96-.33,1.33-1.18,1.16-2.13,0-.02,0-.05,0-.07,0,0,0,0,0,0,0-.02,0-.03,0-.05-.02-.17-.03-.35-.04-.52-.01-.31,0-.63.02-.94,0,.05,0,.03,0-.02,0-.02,0-.03,0-.05,0-.06.01-.13.02-.19,0,.06,0,.12-.01.16,0-.03,0-.07,0-.09.02-.16.05-.31.08-.47.07-.33.16-.65.26-.97.01-.03.02-.07.04-.1-.04.09-.07.16,0-.02,0,0,0,0,0,0,.01-.03.03-.06.03-.1,0,.03-.02.06-.03.09.06-.14.12-.28.19-.42.15-.3.31-.59.49-.87.03-.05.06-.09.09-.14.09-.12.18-.23.28-.34.23-.27.47-.51.73-.75.67-.61.58-1.87-.08-2.44Z" fill="#06292f" stroke="#06292f" stroke-miterlimit="10" stroke-width="1.05"/>
        <path d="m33.04,84.94s0-.02.01-.03c0,0,0,0,0,0,0,0,0,.02,0,.02Z" fill="#06292f" stroke="#06292f" stroke-miterlimit="10" stroke-width="1.05"/>
        <path d="m32.67,88.24s0,0,0,.01c0,.02,0,.04,0,.07-.04-.46-.04-.28-.02-.14,0,0,0,0,0,0,0,.02,0,.04,0,.05Z" fill="#06292f" stroke="#06292f" stroke-miterlimit="10" stroke-width="1.05"/>
        <path d="m32.63,86.67s0-.05,0-.1c0,.03,0,.06,0,.08,0,0,0,.01,0,.02Z" fill="#06292f" stroke="#06292f" stroke-miterlimit="10" stroke-width="1.05"/>
      </g>
      <path d="m88.39,91.5c-1.61-1.05-3.6-1.54-5.51-1.39-.55.04-1.05.52-1,1.1.05.55.51,1.05,1.1,1,.22-.02.43-.03.65-.03.05,0,.09,0,.14,0-1.05,1.99-1.73,4.16-2.87,6.1-1.06,1.81-2.46,3.38-4.11,4.68-3.13,2.46-7.07,3.81-11.06,3.66.01-.03.02-.05.03-.08.21-.51.08-1.17-.47-1.41-.49-.22-1.19-.08-1.41.47-.72,1.75-.84,3.7-.28,5.52.16.53.79.88,1.32.69.54-.2.86-.76.69-1.32-.04-.14-.08-.28-.11-.43,4.6.16,9.1-1.24,12.83-3.94,1.88-1.36,3.57-3.07,4.86-5,1.52-2.27,2.94-4.6,3.55-7.26.06-.27.12-.53.16-.79.18.1.38.19.55.3.21.13.57.13.79.06.25-.08.51-.29.62-.53.11-.24.16-.53.06-.79-.1-.28-.28-.46-.53-.62Z" fill="#06292f" stroke="#06292f" stroke-miterlimit="10" stroke-width="1.05"/>
      <g>
        <path d="m87.28,70.74c-.08.04-.14.1-.21.15-.07-.39-.15-.78-.28-1.16-1.28-3.91-5.48-8.16-9.65-7.79-1.35.12-2.47.81-3.51,1.57-1.13.82-2.26,1.69-3.12,2.81-1.03,1.32-1.53,3.07-1.23,4.8.07,1.46.76,2.89,1.79,4.09.71.83,1.54,1.58,2.38,2.27.47.38.99.73,1.55.94.32.2.66.35,1.03.46.07.02.15.03.23.05.55.24,1.14.4,1.77.47,1.7.19,3.2-.24,4.51-1.01-.05.71.2,1.43.79,1.95,1.55,1.37,3.51.3,4.82-.48,2.28-1.35,5.1-4.57,3.01-7.66-.86-1.27-2.6-2.09-3.89-1.45Zm-10.58,2.07c-.56.21-1.21.32-1.83.1-.07-.02-.12-.06-.19-.09-.51-.21-.97-.62-1.19-1.13-.67-1.54-.17-3.17.62-4.38.34-.52.79-1.03,1.32-1.36.7-.43,1.53-.76,2.43-.53.25.06.46.15.66.27.1.03.2.07.27.15.06.06.11.12.16.18,0,0,.02.01.02.02.14.11.24.25.34.4.17.22.32.45.44.72.18.41.23.89.21,1.33-.03.55-.16,1.09-.42,1.57-.41,1.34-1.6,2.3-2.86,2.77Zm5.5,3.98c-.19.09-.4.15-.62.15-.27,0-.55-.06-.78-.26-.23-.2-.37-.45-.43-.73-.08-.38,0-.78.1-1.13.12-.38.29-.73.5-1.06.05-.09.12-.16.18-.25,0,0,0-.01.01-.02.14-.29.32-.57.52-.83.04-.06.07-.13.11-.19.28-.39.6-.75.95-1.1.18-.22.36-.44.56-.64.23-.24.49-.51.79-.69,0,0,0,0,0,0,0,0,0,0,0,0,.07-.04.13-.08.2-.1.18-.06.17-.04.34-.04.08,0,.14.12.1,0,0,.02.02.05.03.07.01,0,.03,0,.04,0l.17.1s.05.04.07.06c.29.14.5.38.62.69.07.21.07.43.05.66.05.47,0,.96-.12,1.41-.14.54-.4,1.08-.82,1.47-.14.25-.3.49-.48.72-.41.54-.97,1.09-1.61,1.4-.16.1-.33.2-.5.28Zm7.41-4.03c.08.1.12.22.17.33.01.03.01.07.02.1.07.14.11.28.14.45.05.32.04.65-.06.96,0,0,0,0,0,0-.13.86-.71,1.65-1.23,2.21-.54.57-1.19,1.06-1.87,1.44-.32.18-.66.34-1,.49-.21.09-.45.19-.69.23-.06.03-.12.06-.19.07-.09.03-.19.03-.28,0-.1-.01-.18-.05-.26-.11-.09-.05-.15-.11-.21-.2-.01-.02-.02-.03-.03-.05-.02-.04-.04-.08-.05-.11-.02-.03-.04-.07-.05-.11,0-.02-.01-.03-.01-.05-.02-.08-.03-.16-.04-.24,0-.02,0-.03,0-.05,0-.08.01-.15.03-.23.02-.09.06-.19.09-.27.05-.13.13-.24.21-.35.04-.06.1-.12.15-.17.07-.06.15-.13.23-.19.04-.03.08-.04.13-.06.02-.01.03-.02.05-.03,0-.02,0-.03,0-.05.35-.26.68-.55.97-.89.79-.9,1.2-2.01,1.31-3.19,0,0,0,0,0,0,0-.07-.01-.14,0-.22.01-.08.03-.15.06-.22.09-.16.27-.33.45-.38.31-.13.7-.09.97.07,0,0,0,0,.01.01.22.04.43.1.61.25.07.06.13.13.18.2.02.02.04.05.06.08.05.08.08.17.12.26,0,0,0,0,0,0Z" fill="#06292f" stroke="#06292f" stroke-miterlimit="10" stroke-width="1.05"/>
        <path d="m52.95,85.56c-1.02-1.39-2.42-2.46-4.05-2.83-1.86-.68-4.03-.46-5.87.44-1.56.76-2.92,1.86-4.24,2.97-1.21,1.02-2.37,2.15-2.96,3.65-1.82,4.62,1.61,10.2,5.63,12.41.4.22.81.39,1.23.54-.08.06-.17.12-.24.2-1.17,1.33-.81,3.45.35,4.67,2.81,2.96,7.42.42,9.72-1.88,1.33-1.33,3.2-3.32,2.16-5.35-.4-.77-1.13-1.19-1.96-1.28,1.32-1.33,2.31-2.93,2.66-4.89.08-.42.11-.82.11-1.22.13-.77.08-1.56-.19-2.29,0-.04,0-.07-.02-.11-.06-.66-.28-1.31-.55-1.91-.5-1.08-1.08-2.17-1.78-3.13Zm-.19,15.85c.02.19-.05.37-.15.53-.11.33-.37.63-.57.89-.28.36-.57.71-.89,1.03-.67.7-1.44,1.33-2.27,1.83-1.11.67-2.77,1.37-4.03.69-.33-.18-.65-.57-.79-1.05-.02-.05-.03-.16-.04-.28,0-.03-.02-.06-.02-.09,0-.13.01-.26.05-.38.04-.12.08-.25.14-.36.1-.18.22-.37.38-.51.1-.1.21-.19.33-.27.11-.08.24-.13.36-.19.1-.04.19-.06.29-.08.18-.03.29-.03.48,0,0,0,0,0,0,0,.94-.09,1.87-.35,2.75-.83.39-.22.75-.47,1.1-.74.1-.1.21-.19.32-.28.14-.11.3-.21.46-.3.45-.24.95-.43,1.47-.33.17.03.32.13.43.26.12.14.17.29.2.47Zm-1.35-3.67c-.07.24-.22.47-.38.67-.25.31-.55.58-.85.83-.02.02-.04.02-.06.04-.32.32-.71.57-1.09.81-.71.45-1.5.76-2.32.96-.91.22-1.99.45-2.92.2-.01,0-.02,0-.04,0-.11,0-.22-.04-.32-.07-.04-.01-.08-.03-.12-.05-.1-.05-.2-.1-.29-.17-.04-.04-.08-.08-.13-.12-.04-.04-.09-.08-.13-.13-.06-.07-.1-.15-.15-.23-.05-.08-.1-.16-.14-.25l-.06-.22s0-.03,0-.05c-.02-.01-.04-.03-.07-.05.12.06.01-.03.04-.12.05-.18.03-.19.16-.37.05-.07.12-.14.18-.21,0,0,0,0,0,0,0,0,0,0,0,0,.3-.3.7-.54,1.04-.75.96-.59,2.01-1.05,3.07-1.4,0,0,0,0,.01,0,.33-.27.73-.48,1.13-.64.44-.17.9-.3,1.37-.35.43-.05.91-.06,1.32.11.31.13.54.34.69.63.15.29.12.62.03.92Zm-2.38-8.58c.01.08.04.15.04.23.04.74-.3,1.45-.73,2.04-1.02,1.43-2.66,2.67-4.46,2.72-.63.02-1.28-.1-1.89-.33-.35-.04-.67-.09-1.03-.19l-.51-.28c-.26-.17-.45-.4-.58-.67-.26-.44-.34-.87-.31-1.38.05-1.06.69-1.93,1.42-2.64.55-.53,1.28-.94,1.99-1.22,1.64-.66,3.66-.89,5.19.16.51.35.81.95.89,1.57Z" fill="#06292f" stroke="#06292f" stroke-miterlimit="10" stroke-width="1.05"/>
      </g>
    </g>
  </g>
</svg>