<?xml version="1.0" encoding="UTF-8"?>
<svg id="_圖層_2" data-name="圖層 2" xmlns="http://www.w3.org/2000/svg" width="222.59" height="338.77" viewBox="0 0 222.59 338.77">
  <g id="icon">
    <g>
      <path d="m165.23,130.14c4.33-8.71,6.71-18.56,6.52-28.96-.34-19.44-9.5-36.66-23.6-47.91l-79.84,1.41c-13.69,11.74-22.24,29.27-21.9,48.71.18,10.4,2.9,20.15,7.54,28.71C21.05,151.93-.71,188.25.02,229.43c1.08,61.46,51.78,110.4,113.24,109.32,61.46-1.08,110.4-51.78,109.32-113.24-.73-41.18-23.75-76.72-57.34-95.37Z" fill="#18933b"/>
      <path d="m160.56,86.31c1.03,8.5-.2,17.12-1.83,25.53-.98,5.06-5.29,15.21-17.67,23.49-10.68,7.15-24.73,8.11-37.5,6.64-12.77-1.47-25.19-7.36-33.54-17.14-8.35-9.77-12.23-23.51-9.12-35.98,2.52-10.09,9.57-18.96,18.83-23.71,8.19-4.2,17.63-5.16,26.83-5.48,12.6-.45,27.85-1.27,40.08,2.24,8.75,2.51,12.96,16.55,13.92,24.41Z" fill="#fff"/>
      <path d="m146.44,54.28c-14.84,9.06-38.05,8.56-38.05,8.56,0,0-24.03,1.37-39.15-7.69l-1.26-.79S102.15,28.57,100.09.25l7.19-.13,7.19-.13c-1.06,28.37,33.99,52.94,33.99,52.94l-2.03,1.34Z" fill="#231815"/>
      <path d="m131.97,225.87c.07,0,.22.07.45.29.37,0,.51-.08.51-.3l.67.72c.37.07.81.21,1.11.35.44.14.66.21.89.28.15.07.22.07.29.07,0,.29.08.44.3.44.51,0,.88.06,1.25.2.22.07.59.28,1.11.57.07.07.3.14.52.28s.44.21.59.28c0,.37.08.51.23.51h.66c.3.28.38.5.23.64-.14.15-.21.37-.21.74,0,.15.15.22.44.21l.51-.45c0,.15.15.22.44.21,0,.22.16.58.46.95.15,0,.29.07.44.21.22.14.37.14.51,0,0,.22.16.51.45.73.3.14.45.29.45.43h.51s1.35,1.73,1.35,1.73l1.57,1.73c.37.43.75.87,1.27,1.37.6.94.62,1.9.05,2.86-.22.22-.87.53-1.82.91-.37,0-1.1.31-2.04.99-.36.15-.43.52-.35,1.18v.59c.09.15.09.29.16.36v.22c-.44,0-.88.02-1.39-.05-.73-.06-1.25-.12-1.62-.34,0-.37-.08-.51-.23-.51-.37,0-.59-.06-.74-.21,0,.15-.14.22-.44.23-1.63-1.07-2.96-1.63-3.92-1.76,0-.37-.08-.51-.23-.51l-.29.3c-.15,0-.29-.07-.45-.29l-.45-.43h-.44c-.67-.42-1.56-.92-2.67-1.49-.81-.35-1.55-.63-2.22-.99-1.26-.78-1.86-1.21-1.86-1.36,0,.15-.14.22-.51.23-.3-.29-.67-.5-1.04-.72-.59-.36-1.04-.64-1.26-.93l-.22.3c-2.38-1.65-3.72-2.58-3.94-2.79h-.51c-.82-.93-1.71-1.43-2.52-1.56-.15,0-.37-.21-.75-.72-.3-.44-.6-.58-.89-.42l-1.39.02c-.14.15-.2.88-.18,2.13l.23.44c-.14.15-.21.52-.2,1.18.16.58.24,1.39.26,2.49.02,1.03.1,1.76.26,2.2.31.65.46,1.24.47,1.61.23.44.31,1.1.33,1.9l.03,1.91c0,.15.15.22.44.21l-.22.22c.15,0,.3.14.45.43l.23.51.02,1.39c.01.66.09,1.1.24,1.39-.15,0-.22.15-.21.52,0,.29-.07.44-.21.44.15.14.23.36.23.73-.63,1.85-1.12,2.96-1.34,3.33v.66s-.21-.22-.21-.22c-.14.15-.36.23-.66.23-.15,0-.29.15-.43.52-.29.37-.43.6-.5.67l-1.38.76c-.29.15-.88.09-1.84-.19-.14.15-.29.22-.44.23-1.77-.63-2.96-1.34-3.49-2.07,0-.22-.08-.37-.23-.58-.23-.29-.38-.51-.45-.58-.15-.14-.23-.29-.23-.44-.22-.29-.38-.8-.54-1.53-.16-.73-.24-1.24-.25-1.54l-.81-8.21v-.37c-.08-.22-.16-.51-.17-1.03-.16-.51-.16-.95-.25-1.46-.25-1.83-.42-3.15-.44-3.96l.13-.74c.07-.22.06-.51.06-.88,0-.22-.15-.29-.45-.29.14-.44.18-2.2.13-5.36l-.03-1.47.22-.22-.22-.22.22-.22c-.37-.36-.6-.5-.67-.5-.8.53-1.66,1.42-2.74,2.69-.36.52-.86,1.04-1.37,1.64-.5.6-.79.89-.86.97l.22.22c-1.44,1.35-2.59,3.2-3.35,5.49,0,.15-.14.22-.44.23s-.44.08-.44.23l.23.51c-.07,0-.36.15-.73.45v.44c-2.57,3.42-4.08,5.58-4.43,6.46,0,.22-.14.37-.5.6-.29.22-.51.45-.65.82-.28.67-.71,1.19-1.37,1.64h-.44c-.15.01-.22.16-.21.53-.66.01-1.03.09-1.17.24l-.22-.22-.22.22-.22.22h-.22s0-.22,0-.22v-.22s-.3,0-.3,0l-.22.22-.22.22c-.96-.13-1.55-.71-1.87-1.8-.43.45-.8.38-1.18-.27-.32-1.24-.5-3.15-.54-5.86.29,0,.44-.08.44-.23-.15,0-.22-.29-.24-.95.29-.08.44.07.52.28l2.65-3.57c.07-.22.28-.59.57-.96l.79-1.11c.36-.52.57-.74.65-.82v-.44c.5-.38.93-.97,1.36-1.79.43-.81.86-1.41,1.36-1.79-.15,0-.22.15-.21.44l.22.22c.8-.45,1.66-1.35,2.59-2.76,1-1.34,1.65-2.16,1.94-2.46.29-.3.35-.67.2-1.18l-.22-.22-.72.67c.36-.23.65-.52,1.01-.97.14-.15.36-.37.58-.6.22-.3.43-.52.5-.6l.22.29c.64-1.41,1.43-2.23,2.23-2.39.15,0,.22-.15.21-.52-.15-.29-.66-.13-1.6.54h-.44s.29-.37.29-.37l.14-.15c-.6-.58-1.04-.5-1.39.25,0,.22.15.29.52.28-.14.15-.36.23-.73.23l.22-.22c-.15-.37-.74-.35-1.83.03,0,.15.15.22.52.21-.95.02-1.54.17-1.83.47,0,.51-.06.74-.28.74-.29,0-.73.16-1.31.46-.37,0-.96-.13-1.92-.41l-.22.22c-.15-.14-.52-.28-1.04-.42-.59-.21-1.04-.5-1.26-.71-.3-.29-.44-.21-.44.23l.22-.22-.75-.72h-.44s-.52-.5-.52-.5c-.07-.07-.15-.29-.38-.65h-.51s-.69-1.37-.69-1.37c.14-.15.22-.3.21-.44l-1.19-1.15c-.22-.22-.01-.66.49-1.4.43-.67,1.88-1.72,4.27-3.16.22-.22.43-.52.57-.74.21-.3.5-.52.72-.67l.5-.52h.51c3.12-2.12,6.18-3.49,9.32-4.14,0,.15-.07.22-.22.22h-.37s-.29.01-.29.01v.22c0,.15.45.21,1.33.2,1.24-.54,2.84-1,4.82-1.55,1.68-.47,3.21-.94,4.6-1.4-.15-.14-.23-.51-.17-1.17v-.51c.06-.22.06-.37.13-.44v-.22s.43-.45.43-.45c-.15,0-.22-.14-.23-.51,0-.07.07-.29.14-.59.07-.29.21-.52.28-.59.37,0,.51-.08.51-.23l-.22-.22c-.22,0-.22-.07-.08-.22.36-.37.64-.89.92-1.7.21-.74.56-1.33.99-1.85.36-.52.94-.6,1.76-.32l.22-.22.45.51c.29,0,.44-.08.44-.3l.52.51c.73-.01,1.4.41,2.08,1.36.45.58.54,1.39.26,2.34l.22.22c-.28.67-.42,1.18-.42,1.4s.23.29.67.28v.44c.01.29.09.44.24.44-.15,0-.22.15-.21.52.3.29.6.43.96.42.8-.45,1.39-.54,1.83-.25l.43-.45c.3.14,1.18.2,2.57.18.66-.01,1.83-.11,3.66-.29,1.83-.25,3.22-.28,4.11-.07.67.28,1.11.42,1.4.42l.22-.15.22-.08c1.18.42,2.36.62,3.46.6l.51-.45c.07,0,.37.07.81.21.37.14.59.06.8-.23.15.14.37.29.74.43.37.21.67.35.82.5l.95-.02c.29,0,.74.13,1.26.42.67.35,1.11.49,1.26.49,1.64,1.15,2.68,1.93,3.05,2.29.37.36,1.05,1.16,1.88,2.32.38.65.46,1.02.24,1.17,0,.15-.07.22-.22.22s-.22.08-.22.22c.33,1.9-.31,3.24-1.98,4.07h-.44c-.07.08-.14.16-.36.31l-.44.3c-.36.23-.65.38-.8.6,0,.29-.07.44-.21.44-.37,0-.95.24-1.6.76-.8.45-1.38.68-1.82.69,0-.29-.08-.44-.3-.43-.3-.14-.66-.21-1.1-.2s-.73-.06-.96-.28c-.22.22-.36.3-.44.3l-.23-.29c-.22.22-.58.3-1.17.31l-.23-.29c0,.37-.29.45-.8.31-.44-.21-.81-.28-1.03-.28,0-.29-.08-.44-.23-.44,0,.15-.14.22-.44.23-.37,0-.51.08-.51.23,0-.15-.15-.22-.3-.21l-.22.22-.22-.22-.22.22c0-.15-.15-.22-.52-.21-.14.15-.29.22-.44.23-.3-.14-1.1-.2-2.5-.18-.22.15-.36.23-.51.23s-.22-.07-.3-.29l-.15-.37-.65.67c-.22,0-.37-.07-.52-.21-.15,0-.22.08-.22.15s-.07.07-.22.08l-.37-.21c-.22-.14-.37-.14-.51,0,.3.14.88-.09,1.82-.69-.52-.36-2.14-.48-4.85-.43-.15,0-.22.22-.21.74l-.22-.22-.29.22-.22.22h-.44c-.14.23-.36.31-.58.38-.15.08-.44.15-.8.23-.37.08-.58.16-.66.16l.22-.3c0-.15-.15-.22-.44-.21-.22.22-.29.45-.28.74-.44.3-.86,1.48-1.26,3.54l.23.44c-.14.15-.21.44-.2.96.07.07.15.36.09.73-.07.22-.07.44-.06.66.23.36.67.5,1.33.49,2.56-.56,7.56.16,15.01,2.08.07,0,.37.14.74.43.3.29.52.43.67.43h-.15Z" fill="#231815"/>
      <g>
        <path d="m95.17,79.21c.45-.96.22-2.51-.92-2.94-2.7-1.01-5.49-1.19-8.3-.5-2.57.63-5,2.08-6.75,4.08-.75.86-.81,2.3.11,3.09.88.75,2.28.81,3.09-.11.29-.34.61-.63.94-.93,0,0,.05-.05.11-.11.04-.04.07-.07.11-.11-.04.04-.07.06-.09.09.03-.03.06-.05.08-.07.11-.08.22-.16.33-.24.22-.16.45-.3.68-.44.23-.14.47-.27.72-.39,0,0,0,0,0,0,.08,0,.23-.11.29-.13.5-.21,1.02-.38,1.55-.52.14-.04.6-.07.71-.16,0,0,0,0,0,0,.14-.02.27-.04.41-.05.54-.06,1.09-.08,1.63-.06.09,0,.18,0,.27.01.04,0,.08,0,.12.01.27.03.54.07.81.13.24.05.49.11.73.17.13.04.26.07.39.12.15.05.67.24.03,0,.57.21,1.06.34,1.66.15.51-.16,1.05-.58,1.28-1.07Z" fill="#02292e" stroke="#06292f" stroke-miterlimit="10" stroke-width="1.16"/>
        <path d="m83.34,81.88s.04-.03.13-.12c0,0-.01.01-.02.02-.04.04-.08.07-.11.11Z" fill="#02292e" stroke="#06292f" stroke-miterlimit="10" stroke-width="1.16"/>
      </g>
      <path d="m140.63,77.21c-4.88-2.31-10.48-2.91-15.77-1.87-1.16.23-1.89,1.5-1.64,2.62.27,1.18,1.46,1.86,2.62,1.64,4.54-.89,9.15-.26,13.45,1.77,1.07.5,2.42-.39,2.75-1.41.4-1.24-.34-2.24-1.41-2.75Z" fill="#02292e" stroke="#06292f" stroke-miterlimit="10" stroke-width="1.16"/>
      <path d="m134.1,84.14c-2.41.19-4.8.54-7.17,1.01-.59-.01-1.2.27-1.49.75,0,0,0,0,0,.01-.28.36-.42.83-.31,1.3.13.58.55,1.07,1.08,1.28,1.6,1.24,3.25,2.42,4.94,3.52.75.49,1.88.33,2.37-.46.48-.78.34-1.84-.46-2.37-.64-.42-1.28-.86-1.91-1.3,1.19-.17,2.38-.3,3.57-.4.89-.07,1.56-1.15,1.37-1.98-.22-.98-1.03-1.45-1.98-1.37Z" fill="#02292e" stroke="#06292f" stroke-miterlimit="10" stroke-width=".87"/>
      <path d="m94.63,86.14c-.45-.43-.99-.56-1.59-.6-.7-.06-1.4-.1-2.1-.15-1.4-.1-2.8-.2-4.2-.3-.41-.03-.92.26-1.18.55-.28.31-.49.8-.45,1.22.04.44.2.89.55,1.18.37.31.75.41,1.22.45.82.06,1.64.12,2.45.18-.94.69-1.9,1.35-2.87,1.99-.75.49-1.05,1.6-.51,2.36.53.75,1.56,1.04,2.36.51,1.12-.74,2.23-1.5,3.31-2.3.54-.4,1.07-.81,1.6-1.22.26-.21.53-.42.79-.63.38-.3.76-.57.99-1.01.38-.74.23-1.65-.37-2.22Z" fill="#02292e" stroke="#06292f" stroke-miterlimit="10" stroke-width=".87"/>
      <path d="m114.82,86.58c-.46-.81-1.1-1.55-1.82-2.14-.77-.63-1.75-1.23-2.74-1.43-1.22-.25-2.34.42-3.29,1.11-.81.59-1.56,1.3-2.18,2.1-.51.65-.54,1.68.15,2.23.64.51,1.69.54,2.23-.15.23-.3.48-.58.74-.85.07-.07.15-.15.22-.22.01,0,.05-.04.08-.07.05-.04.12-.1.14-.11.06-.05.13-.1.2-.16.3-.23.61-.44.93-.63.07-.04.14-.08.21-.12.01,0,.02,0,.03,0,.09.04.18.08.26.12.16.07.31.16.46.24.06.04.12.08.19.11,0,0,0,0,0,0,.14.1.28.21.41.32.13.11.26.23.38.35,0,0,.09.1.13.14,0,0,.01.02.02.03.23.28.44.59.62.9.41.72,1.55.9,2.2.42.73-.54.86-1.43.42-2.2Z" fill="#02292e" stroke="#06292f" stroke-miterlimit="10" stroke-width="2.32"/>
      <path d="m126.9,112.49c1.27-1.98,2.32-4.08,3.01-6.33.43-1.39,1.27-3.55.16-4.69,0,0,0,0,0-.01-.18-.27-.38-.43-.59-.5,0-.01.01-.03.02-.04-.27-.21-.64-.32-1.06-.22-11.88,3-24.33,3.16-36.3.59-1.48-.32-1.85,2-.37,2.32.5.11,1,.2,1.51.3.12.16.29.3.55.38,1.94.6,2.96,3.33,3.92,4.96,1.08,1.85,2.19,3.7,3.48,5.42,2.32,3.07,5.29,5.74,9.04,6.85,1.1.32,2.21.46,3.32.45.19.11.42.16.7.12.8-.11,1.58-.29,2.34-.52.12.02.26.02.41-.01,4.27-.94,7.62-5.57,9.86-9.05Zm-5.93,3.7c-.35.37-.72.76-1.1,1.13-.07.03-.14.07-.22.13-1.37,1-2.87,1.7-4.49,2.07-2.56.43-5.22-.3-7.43-1.75-3.01-1.99-5.12-5.01-6.97-8.04-.88-1.44-1.73-3.45-2.88-5.07,9.6,1.31,19.36.89,28.83-1.19.05.05.12.09.18.13.1-.03.21-.04.31-.03.16.02.34.14.43.27.02.02.03.05.04.07.2.18.34.45.35.71.01.28-.05.55-.16.81-.1.25-.25.48-.39.7-.02.03-.04.05-.06.08-.18.52-.38,1.03-.6,1.53-.73,1.66-1.65,3.22-2.71,4.68-.96,1.33-2.01,2.58-3.14,3.77Z" fill="#06292f" stroke="#06292f" stroke-linejoin="round" stroke-width="3.49"/>
    </g>
  </g>
</svg>