<?xml version="1.0" encoding="UTF-8"?>
<svg id="_圖層_2" data-name="圖層 2" xmlns="http://www.w3.org/2000/svg" width="163.57" height="203.42" viewBox="0 0 163.57 203.42">
  <g id="_圖層_1-2" data-name="圖層 1">
    <g>
      <path d="m141.45,96.23c5.72-3.12,10.8-7.6,14.69-13.38,7.28-10.79,8.86-23.75,5.45-35.33l-44.32-29.87c-12.02,1.18-23.43,7.52-30.71,18.31-3.89,5.77-6.14,12.17-6.88,18.64-25.66-1.76-51.54,9.81-66.95,32.67-23,34.12-13.98,80.42,20.14,103.42,34.12,23,80.42,13.98,103.42-20.14,15.41-22.86,16.42-51.19,5.16-74.32Z" fill="#a7583e"/>
      <path d="m155.71,70.41c-2.7,5.06-6.68,9.31-10.8,13.3-2.48,2.4-8.74,6.31-18.71,6.1-8.6-.18-16.68-5.04-23.11-10.75-6.44-5.71-10.99-13.71-11.82-22.27-.83-8.56,2.32-17.59,8.81-23.23,5.26-4.57,12.53-6.73,19.43-5.78,6.1.84,11.65,3.94,16.82,7.29,7.08,4.59,15.76,9.99,21.12,16.61,3.83,4.74.76,14.05-1.74,18.73Z" fill="#fff"/>
      <path d="m160.26,47.42c-11.62-.73-24.15-9.91-24.15-9.91,0,0-13.7-8.47-18.52-19.25l-.39-.92s28.64-1.03,38.38-17.35l3.99,2.69,3.99,2.69c-11.47,15.15-1.68,42.08-1.68,42.08l-1.63-.04Z" fill="#231815"/>
      <path d="m76.77,150.46c-.75-.21-1.55-.51-2.37-.88-1.03-.4-1.69-.66-2.05-.73-.46-.37-.88-.54-1.26-.5-.09-.12-.45-.3-1.09-.67-.56-.32-.94-.63-1.14-.95-.12-.08-.34-.11-.68-.04-.12-.26-.42-.52-.9-.78-.58-.28-.9-.43-.91-.5-.26-.06-.6-.17-1.1-.39-.39-.21-.75-.39-1.07-.43-.12-.08-.14-.15-.11-.19s.01-.11-.07-.16c-.49-.15-1.18-.44-1.98-.92-.88-.54-1.54-.8-1.99-.92l-.11-.19-.07-.16-.29-.02c-.07-.34-.39-.56-1.11-.63l-1.14-.95c-.5-.4-.85-.75-1.02-1.04-.61-.24-.99-.55-1.14-.95-.56-.14-1.4-.82-2.6-2.11h-.25c-.03-.3-.24-.68-.64-1.07-.45-.48-.69-.82-.76-.98h-.25s-.49-4.88-.49-4.88c.16-.07.27-.23.34-.42.08-.3.15-.49.21-.57.14-.2.14-.38-.07-.52.11-.69.45-1.12,1-1.22s1.27-.03,2.12.19,1.44.32,1.78.25c.22.21.33.4.31.51.5.04,1.16.31,2.01.71.2.14.38.14.56-.04.69.29,1.65.64,2.95.98,1.13.35,2.34.75,3.56,1.22,1.58.83,2.47,1.25,2.73,1.31.31-.2.59-.61.92-1.28.26-.65.5-1.09.67-1.26l.18-.53c.11-.34.25-.54.45-.58.21-.39.63-1.11,1.22-2.08.6-.9.99-1.64,1.13-2.2-.18,0-.38-.14-.5-.4-.2-.31-.31-.51-.39-.56-.42-.17-1.11-.63-2.13-1.5l-.58-.45c-.26-.23-.45-.48-.57-.74-.2-.14-.38-.14-.52.07-.2-.14-.31-.33-.31-.51-1.97-.5-2.97-2.18-3-5.04l-.3-.26c.11-.16.23-.43.36-.88.15-.49.33-.84.51-1.02,3.63-.64,7.63-.25,12.02,1.23l.16-.07.23-.08c.09.12.56.32,1.33.66l.26-.3c.18.18.41.27.67.33l.82.19c.08-.12.07-.19.03-.22s-.01-.07.07-.19c.34-.07.72-.28,1.11-.68.42-.37.67-.56.87-.59-.04-.21.12-.45.52-.77.33-.31.55-.64.6-.9.4-.15.85-.2,1.28-.14.12.08.14.15.11.19s-.01.11.07.16c.79.06,1.22.47,1.32,1.3.26.23.47.62.78,1.12.34.64.54.96.58.98,0,.35.08.76.24,1.23.12.44.23.98.26,1.54.05.45-.11.87-.46,1.29,4.6,3.46,7.39,6.35,8.35,8.71.13,1.39.1,2.32-.1,2.78.09.3.05.63-.13.98-.14.38-.22.68-.22.86-.07.01-.3.09-.75.32-.37.28-.59.43-.62.47-.34-.11-.82-.02-1.39.31-.6-.17-.99-.55-1.19-1.22-.07.01-.19-.07-.41-.1-.16-.11-.38-.14-.61-.23l-.68-.22c-.6-.17-1.21-.4-1.82-.64-.09-.12-.45-.3-1.05-.65-.46-.19-.8-.48-1.09-.85-.44-.06-1.03-.4-1.75-1-.6.01-1.73-.16-3.36-.55-.18.18-.62.47-1.2.91-.18.18-.59.79-1.28,1.81-.56.92-1.1,1.45-1.53,1.57-.17.42-.37.82-.66,1.15l-.84.98c.03.14-.03.4-.21.75l-.44.65,1.42,1.14.05.27c.26-.12.56.14,1,.8.08-.12.41.1.96.59.34-.07.52.11.58.45.34.11.83.44,1.47.99.66.51,1.15.84,1.45.92.04.2.35.53.89.96h.25c.07.15.13.32.31.49l.27-.05c.12.26.47.62.98,1.01.52.47.83.79.95,1.05l.27-.05c-.01.29.19.6.6.87.31.15.58.45.87.82l.27-.05.12.26c.14.15.23.27.28.37.42,2.18.39,3.82-.12,4.84-.29.34-.52.6-.73.64.03.14-.04.33-.22.5-.72-.07-1.27.03-1.64.32-.84-.33-1.51-.48-2.07-.45-1.72-1.4-3.07-1.95-4.08-1.68-.7.06-1.42,0-2.17-.22Z" fill="#231815"/>
      <path d="m126.65,40.86c-.64-1.3-1.89-2.14-3.22-2.61-1.27-.45-2.65-.48-3.98-.51-.53,0-1.03.51-1,1.04.04.57.47.99,1.04,1,1.17.02,2.14.04,3.25.38.04.01.33.12.22.07.14.05.27.12.4.18.13.07.26.14.38.21.06.04.12.08.18.12-.06-.05-.06-.05,0,0,.22.16.41.35.6.55.08.1.09.11.03.04.04.06.08.12.12.18.08.12.15.25.21.38.24.48.97.64,1.4.35.49-.33.61-.89.35-1.4Z" fill="#06292f" stroke="#06292f" stroke-miterlimit="10" stroke-width=".68"/>
      <path d="m143.99,54.6c1.41.33,2.51,1.35,3.27,2.54.72,1.13,1.08,2.47,1.41,3.76.13.52-.26,1.12-.79,1.21-.56.09-1.07-.23-1.21-.79-.29-1.14-.53-2.08-1.12-3.08-.02-.03-.19-.3-.12-.2-.08-.12-.17-.24-.27-.35-.09-.11-.19-.22-.3-.33-.05-.05-.1-.1-.16-.15.06.05.06.05,0,0-.21-.17-.44-.32-.68-.45-.11-.06-.13-.07-.05-.02-.07-.03-.13-.05-.2-.08-.14-.05-.28-.09-.42-.12-.52-.12-.84-.79-.66-1.28.2-.55.72-.79,1.28-.66Z" fill="#06292f" stroke="#06292f" stroke-miterlimit="10" stroke-width=".68"/>
      <path d="m143.6,70.31c-.2-1.04-.41-2.07-.61-3.11-.05-.27-.16-.51-.38-.68-.19-.15-.49-.25-.74-.21-.18-.14-.42-.22-.73-.17-3.06.5-6.39-1.04-7.84-3.83-.25-.49-.77-.79-1.32-.58-.47.18-.84.83-.58,1.32.82,1.58,2.07,2.88,3.56,3.79,0,.02-.02.03-.02.05-.27.94-.54,1.88-.81,2.82-.08.27-.12.5-.01.77.09.24.31.48.55.57.24.09.52.12.77.01.23-.1.5-.3.57-.55.27-.93.53-1.86.8-2.79.34.12.69.23,1.05.31-.01.16,0,.32.04.49.32,1.2.64,2.39.96,3.59.06.24.34.48.55.57.23.1.54.11.77.01.25-.11.47-.29.57-.55s.08-.5.01-.77c-.28-1.03-.55-2.06-.83-3.1.39,0,.78-.02,1.17-.07.15.78.31,1.57.46,2.35.05.27.16.51.38.68.2.16.5.25.75.21.26-.04.52-.16.68-.38.15-.21.27-.49.21-.75Z" fill="#06292f" stroke="#06292f" stroke-miterlimit="10" stroke-width=".68"/>
      <path d="m120.17,52.08c-1.9-.72-3.74-1.85-5.09-3.39-.87-.98-1.75-2.41-1.08-3.7.25-.49-.06-1.13-.54-1.34-.21-.09-.42-.08-.62-.03-.16-.06-.33-.09-.5-.07-.89.02-1.79.04-2.68.06-.25,0-.53.19-.68.38-.16.2-.25.5-.21.75.04.26.16.52.38.68.08.05.16.09.24.14.17.07.34.09.52.07.61-.01,1.23-.03,1.84-.04,0,.07,0,.14,0,.22-.67.15-1.34.31-2,.46-.14.01-.26.05-.37.13-.13.06-.23.14-.31.25-.16.2-.25.5-.21.75.04.26.16.52.38.68.21.15.49.27.75.21.71-.16,1.43-.33,2.14-.49,0,0,.01,0,.02,0,.26.64.63,1.24,1.05,1.77-.05.03-.11.07-.16.1-.45.23-.93.42-1.42.55-.06.01-.12.03-.18.04-.27.05-.51.16-.68.38-.16.2-.25.5-.21.75.04.26.16.52.38.68.21.15.49.27.75.21,1.06-.21,2.05-.61,2.95-1.21,1.39,1.25,3.06,2.23,4.78,2.89,1.22.47,2.03-1.41.8-1.88Z" fill="#06292f" stroke="#06292f" stroke-miterlimit="10" stroke-width=".68"/>
      <path d="m126.11,64.57c-.48-2.35-2.72-4.22-5.13-4.17-.49,0-.99.35-1,.89,0,.48.36,1.01.89,1,.23,0,.45.01.68.04,0,0,.01,0,.02,0,0,0,0,0,0,0,.05.01.1.02.15.03.11.03.22.06.33.1.11.04.21.08.32.12.02,0,.03.01.04.02.03.02.07.04.1.05.21.12.41.25.6.4.04.03.07.06.11.09,0,0,.01.01.02.02.08.08.16.16.24.24.08.08.15.17.22.26.03.04.06.08.09.12,0,0,0,.01.01.02.11.2.22.39.31.6.02.05.04.09.06.14,0,0,0,0,0,0,0,0,0,0,0,.02.03.12.07.24.09.37.1.49.62.86,1.11.74.5-.12.84-.6.74-1.11Z" fill="#06292f" stroke="#06292f" stroke-miterlimit="10" stroke-width=".68"/>
      <path d="m128.02,76.32c.16-.39.05-.89-.54-1.29-5.9-4.02-11.59-8.34-17.07-12.93-.15-.19-.36-.36-.59-.47-.85-.63-1.66-.13-1.7.59-.81,1.94-.55,4.32.26,6.6.93,2.61,2.34,5.44,4.84,7.31,4.67,3.48,10.84,3.47,14.45.89.25-.18.35-.43.35-.69Zm-13.53-1.8c-1.96-1.46-3.08-3.78-3.8-5.83-.51-1.45-.77-2.88-.56-4.18,4.75,3.94,9.67,7.67,14.74,11.18-2.9,1.38-7.09,1.29-10.38-1.17Z" fill="#06292f" stroke="#06292f" stroke-miterlimit="10" stroke-width=".68"/>
      <ellipse cx="105.67" cy="53.32" rx="1.46" ry="3.97" transform="translate(-1.73 103.05) rotate(-51.62)" fill="#a7583e" opacity=".5"/>
      <ellipse cx="135.58" cy="77.01" rx="1.46" ry="3.97" transform="translate(-8.96 135.48) rotate(-51.62)" fill="#a7583e" opacity=".5"/>
      <g>
        <path d="m104.23,53.04c.1-.75.19-1.49.29-2.24.02-.18-.1-.37-.29-.38-.18-.02-.36.1-.38.29-.1.75-.19,1.49-.29,2.24-.02.18.1.37.29.38.18.02.36-.1.38-.29Z" fill="#06292f" stroke="#06292f" stroke-miterlimit="10" stroke-width=".51"/>
        <path d="m105.87,54.68c.08-.99.17-1.97.25-2.96.02-.18-.1-.36-.29-.38-.17-.02-.37.11-.38.29l-.25,2.96c-.02.18.1.36.29.38.17.02.37-.11.38-.29Z" fill="#06292f" stroke="#06292f" stroke-miterlimit="10" stroke-width=".51"/>
        <path d="m107.81,56.2c-.04-1.05,0-2.09.09-3.13.02-.18-.1-.36-.29-.38-.17-.02-.37.11-.38.29-.1,1.1-.13,2.21-.09,3.31,0,.18.21.32.38.3.2-.02.3-.19.3-.38Z" fill="#06292f" stroke="#06292f" stroke-miterlimit="10" stroke-width=".51"/>
        <path d="m134.1,76.88c.06-.89.12-1.78.18-2.68.01-.18-.1-.36-.29-.38-.17-.02-.37.1-.38.29-.06.89-.12,1.78-.18,2.68-.01.18.1.36.29.38.17.02.37-.1.38-.29Z" fill="#06292f" stroke="#06292f" stroke-miterlimit="10" stroke-width=".51"/>
        <path d="m135.95,78.51c.12-.96.24-1.92.36-2.87.02-.18-.1-.36-.29-.38-.18-.03-.36.11-.38.29-.12.96-.24,1.92-.36,2.87-.02.18.1.36.29.38.18.03.36-.11.38-.29Z" fill="#06292f" stroke="#06292f" stroke-miterlimit="10" stroke-width=".51"/>
        <path d="m137.84,79.68c.16-.73.28-1.48.36-2.22.02-.18-.1-.37-.29-.38-.18-.02-.37.1-.38.29-.08.75-.2,1.49-.36,2.22-.04.17.12.37.29.38.19.02.34-.1.38-.29Z" fill="#06292f" stroke="#06292f" stroke-miterlimit="10" stroke-width=".51"/>
      </g>
    </g>
  </g>
</svg>