<?xml version="1.0" encoding="UTF-8"?>
<svg id="b" data-name="圖層 2" xmlns="http://www.w3.org/2000/svg" width="360.46" height="184" viewBox="0 0 360.46 184">
  <defs>
    <style>
      .d {
        fill: #092a31;
      }
    </style>
  </defs>
  <g id="c" data-name="說明">
    <g>
      <g>
        <g>
          <path class="d" d="M25.85,43.14c-6.7,1-10.41,1.44-11.13,1.33-.25-.03-.58-.14-1-.33-.55,2.57-1.19,4.62-1.91,6.15-.47.94-1.55,2.69-3.24,5.23-.69,1.02-1.86,2.01-3.49,2.95-.44.25-.82.37-1.12.37-.5,0-.61-.28-.33-.83l1.99-4.94c.58-1.47,1.22-3.86,1.91-7.19.66-3.13,1.08-5.61,1.25-7.43.33-3.52.5-6.24.5-8.18,0-.86-.14-1.8-.44-2.82-.29-1.02-.44-1.76-.44-2.2,0-1.02.29-1.43.87-1.2.72.25,1.45.5,2.2.75.91.36,1.65.75,2.2,1.16,5.48-2.77,9.41-4.17,11.79-4.19,1.14-.03,2.56.54,4.28,1.7,1.63,1.08,2.59,1.99,2.87,2.74.11.3.17.61.17.91,0,.89-.37,1.43-1.12,1.62,0,.06.01.86.04,2.41.06,1.74.08,2.85.08,3.32l.33,19.35v.91c.03.36.04.66.04.91,0,2.08-.73,3.28-2.2,3.61-.33.08-.66.12-1,.12-1.11,0-2.28-.51-3.53-1.54-1.02-.97-2.05-1.94-3.07-2.91-1.19-1.11-2.38-2.22-3.57-3.32-1.49-1.47-2.88-2.99-4.15-4.57-.14-.17-.21-.33-.21-.5,0-.39.26-.58.79-.58.14,0,.23.03.29.08,1.52,1.22,3.05,2.44,4.57,3.66,1.99,1.49,3.57,2.28,4.73,2.37.03,0,.1.02.23.06.12.04.21.06.27.06.22,0,.35-.22.37-.67.08-1.05.14-3.85.17-8.39ZM14.39,40.61c2.91-.42,5.99-1.02,9.26-1.83l.62-.42c.55.06,1.08.15,1.58.29,0-.83-.01-2.33-.04-4.48-2.52.53-6.15,1.32-10.88,2.37-.14,1.36-.32,2.71-.54,4.07ZM15.3,32.22c2.08-.5,5.08-1.25,9.01-2.24-.08,0,.07-.14.46-.42.33-.03.66,0,1,.08-.03-.77-.04-1.27-.04-1.49-.06-1.72-.22-2.62-.5-2.7-3.43.66-6.74,1.85-9.93,3.57.06.83.06,1.9,0,3.2Z"/>
          <path class="d" d="M2.02,86.98c2.85-.8,6.55-1.69,11.09-2.66.33-.91.57-1.73.71-2.45.05-.39.11-.8.17-1.25-2.35.47-3.83.75-4.44.83-1.03.17-2.24-.08-3.66-.75-1.05-.5-1.58-1.05-1.58-1.66,0-.17.05-.3.17-.42.36-.36,1.23-.73,2.62-1.12,1.85-.5,4.31-1.08,7.35-1.74.03-.53-.03-1.11-.17-1.76-.14-.65-.21-1.13-.21-1.43,0-.89.62-1.26,1.87-1.12.69.08,1.48.45,2.37,1.1.89.65,1.56,1.34,2.04,2.06,1.02-.17,1.87-.26,2.53-.29.39-.03.76-.18,1.12-.46.36-.28.61-.42.75-.42.8,0,2.12.44,3.95,1.33.89-.97,1.38-1.54,1.49-1.7.5-.69.93-1.04,1.29-1.04.55,0,1.26.44,2.12,1.33.86.89,1.36,1.61,1.49,2.16.11.44-.17.91-.83,1.41-1,1.05-2.69,2.82-5.07,5.32,1.58.14,3.2.62,4.86,1.45,1.66.83,2.39,1.52,2.2,2.08-.5,1.44-1.3,2.16-2.41,2.16-.47,0-.98-.1-1.54-.29-1.58-.55-4.19-.75-7.85-.58-3.43,3.52-5.9,5.97-7.39,7.35.58.64,1.01,1.2,1.29,1.7,1.85-1.38,3.54-2.87,5.07-4.44,1.19-1.25,1.84-2.02,1.95-2.33v-.91c.06-.44.29-.59.71-.46.55.14,1.33.58,2.33,1.33,1.16.83,1.72,1.47,1.66,1.91-.08.69-.37,1.27-.87,1.74-.61.64-1.2,1.26-1.79,1.87-1.05,1.05-2.04,1.81-2.95,2.28-.91.47-1.84.95-2.78,1.45-1.08.53-2.13.86-3.16,1-.14,1.77-.04,2.85.29,3.24.22.22,1.15.33,2.78.33,1.72,0,3.46-.11,5.23-.33,1.94-.25,3.03-.53,3.28-.85.25-.32.36-1.9.33-4.76,0-.69.14-1.04.42-1.04.33,0,.58.28.75.83.22.75.58,1.86,1.08,3.32.11.33.66.9,1.66,1.7.83.72,1.25,1.48,1.25,2.28,0,.25-.03.5-.08.75-.31,1.33-1.86,2.2-4.65,2.62-1.63.25-4.1.35-7.39.29-2.55-.03-4.28-.17-5.19-.42-1.41-.36-2.67-1.19-3.78-2.49-.97-1.11-1.37-3.6-1.2-7.48-1.16,1-3.11,2.49-5.86,4.49-1,.64-1.88,1.11-2.66,1.41-.86.36-1.47.65-1.83.87-1.08.64-1.94.8-2.57.5-.64-.33-.43-.91.62-1.74.97-.78,2.09-1.8,3.36-3.07,1.47-1.49,2.96-3,4.46-4.53,1.51-1.52,3.98-4.06,7.41-7.6l-.33.04c-.75.14-2.85.66-6.31,1.58-3.07.86-4.86,1.29-5.36,1.29-.58,0-1.34-.28-2.28-.83-1.02-.61-1.54-1.19-1.54-1.74,0-.53.54-.94,1.62-1.25ZM19.63,83.25l1.16-.17,4.28-4.48c-1.03.14-2.53.39-4.53.75-.17,1.63-.47,2.94-.91,3.9Z"/>
          <path class="d" d="M29.58,150.86c-1.36.17-2.26.21-2.7.12-.19-.03-.39-.08-.58-.17-.31,3.46-.73,5.77-1.29,6.94-.42.89-.96,1.72-1.62,2.49-.89.97-1.69,1.45-2.41,1.45-.28,0-.42-.12-.42-.37,0-.14.04-.31.12-.5.36-.86.68-2.26.95-4.2h-1.54c-.78.03-1.95.15-3.53.37,0,1.85-.06,3.04-.19,3.55-.12.51-.47.92-1.04,1.23-.57.3-1.09.46-1.56.46-.22,0-.35-.04-.37-.12-.17-.36-.25-1.3-.25-2.82,0-.3.03-.89.08-1.74-1.83.3-2.88.46-3.16.46-.31,0-.77-.23-1.39-.69-.62-.46-.93-.84-.93-1.14,0-.36.18-.59.54-.71,1.11-.33,2.8-.71,5.07-1.12v-1.49l-.21.04c-.25.47-.71.71-1.37.71-.22,0-.47-.06-.75-.17-.28-.11-.87-.89-1.79-2.33-.11-.17-.25-.71-.42-1.62-.22-1.02-.35-1.91-.37-2.66-.08.61-.19,1.27-.33,1.99-.8,4.93-1.77,8.15-2.91,9.68-1.14,1.52-2.06,2.42-2.78,2.7-.94.33-1.45.37-1.54.12-.03-.11.08-.62.33-1.54.42-1.52.8-3.27,1.14-5.23.35-1.96.74-4.42,1.18-7.35.69-5.23.97-8.93.83-11.09-.78-.64-1.11-1.18-1-1.62.14-.5,1.27-1.08,3.41-1.74,1.72-.58,4.68-1.25,8.89-1.99-.06-.42-.24-.76-.54-1.04-.42-.39-.64-.58-.66-.58-.19-.3-.29-.62-.29-.95,0-1.19.73-1.79,2.2-1.79,1.19,0,2.51.36,3.95,1.08,1.44.72,2.3,1.45,2.58,2.2,2.49-.28,4.69-.4,6.6-.37.28-.11.58-.21.91-.29.97.28,1.97.75,2.99,1.41,1.27.86,1.91,1.63,1.91,2.33,0,.19-.06.37-.17.54-.44.72-1.03,1.08-1.74,1.08-.33,0-.99-.13-1.97-.39-.98-.26-1.81-.39-2.47-.39-4.1.03-8.9.66-14.41,1.91,1.52.83,2.26,1.52,2.2,2.08-.03.14-.04.3-.04.5.42-.11.69-.17.83-.17.33-.08.76-.03,1.29.15.53.18,1.07.37,1.62.56.39.11.58.35.58.71,0,.31-.12.64-.37,1.02-.25.37-.82.63-1.7.77-.58.08-1.33.25-2.24.5v1.29c.53-.11.89-.14,1.08-.08.69.19,1.46.54,2.3,1.04.84.5,1.34.9,1.47,1.2.28.72.4,1.25.37,1.58-.08,1-.44,2.18-1.06,3.55-.62,1.37-1.09,2.08-1.39,2.14-.8.14-1.23.19-1.29.17-.19-.05-.39-.17-.58-.33-.42.03-.9.08-1.45.17.25.25.39.76.42,1.54l1.29-.17c.17-.03.41-.12.75-.29.25-.11.44-.15.58-.12.36.14,1.25.65,2.66,1.54.33-2.71.58-5.79.75-9.22.14-3.1.17-5.32.08-6.64,0-.22-.15-.57-.46-1.04-.11-.14-.12-.35-.04-.62.11-.25.23-.36.37-.33.5.11,1.08.36,1.74.75,2.63-1.47,4.28-2.26,4.94-2.37.17-.08.33-.17.5-.25.22-.08.46-.07.71.04.55.22,1.11.44,1.66.66.83.39,1.34.8,1.54,1.25.11.33.15.75.12,1.25-.06.91-.08,1.29-.08,1.12,0,13.68,0,20.48,0,20.39-.14,1.41-.53,2.15-1.16,2.2-1.19.08-1.98-.2-2.37-.85-.39-.65-1-1.61-1.83-2.89-.36-.36-1-1.18-1.91-2.45-.19-.3-.25-.57-.17-.79.06-.22.17-.26.33-.12,1.77,1.66,2.69,2.49,2.74,2.49s.08-.03.08-.08c.08-.72.12-2.87.12-6.44ZM13.42,139.07v-1.33s-.11-.3-.33-1c-.08-.25.04-.58.37-1-1.14.36-2.88.8-5.23,1.33.53.47.83.98.91,1.54.06.25.07.87.04,1.87.94-.36,2.35-.83,4.24-1.41ZM9.69,145.42c.17-.11.89-.29,2.16-.54.91-.17,1.38-.5,1.41-1l.04-1.2-1.25.37c-.14.03-.29.04-.46.04-.75,0-1.61-.22-2.57-.66-.06.75-.15,1.61-.29,2.57.08-.11.19-.12.33-.04.19.14.4.29.62.46ZM16.87,149.87c.86-1.72,1.29-3.18,1.29-4.4-.03-.44-.24-.64-.62-.58-.91.08-2.99.72-6.23,1.91.05.08.17.39.33.91.78-.22,1.81-.51,3.11-.87.03,0,.13-.05.31-.14.18-.1.33-.13.44-.1.28.14.55.26.83.37.39.19.61.39.66.58.08.22.06.48-.06.77-.12.29-.33.45-.6.48l-4.07.91c.11.39.21.72.29,1,.58-.08,2.02-.36,4.32-.83ZM26.67,141.73c1.41-.33,2.34-.57,2.78-.71-.03-1.25-.06-2.01-.1-2.3-.04-.29-.17-.42-.39-.39-.44.06-1.29.46-2.53,1.2.17.33.25,1.07.25,2.2ZM26.51,148.12c1.08-.11,1.99-.28,2.74-.5.08-.03.18-.04.29-.04v-3.16c-1.3.25-2.27.42-2.91.5-.03,1.08-.07,2.15-.12,3.2Z"/>
        </g>
        <g>
          <path class="d" d="M346.51,51.09l-10.84,1.03h-.16c-.47.49-1.07.74-1.81.74-.25,0-.49-.03-.74-.08-.74-.19-1.54-.97-2.39-2.35-.69-1.07-1.15-2.03-1.4-2.89-.41-1.48-.92-4.82-1.53-10.01-.63-5.33-.89-8.86-.78-10.59-.11-.49-.19-1.21-.25-2.14.16-.93.49-1.32.99-1.15.88.25,1.7.61,2.47,1.07,6.98-2.53,12.58-3.79,16.81-3.79.69,0,1.32.04,1.9.13.91.14,2.24,1.11,4,2.92,1.84,1.9,2.97,3.61,3.38,5.15.06.16.08.3.08.41,0,.19-.1.41-.29.66-.19.25-.33.49-.41.74-.47,3.35-.95,6.7-1.44,10.06-.96,6.43-1.85,10.15-2.68,11.17-.36.41-.8.62-1.32.62-.58,0-1.47-.28-2.68-.82-.36-.16-.66-.45-.91-.87ZM332.38,28.18c.08.61.32,2.67.7,6.18,6.51-.99,11-1.52,13.48-1.61.6-.03,1.51.37,2.72,1.2.33-3.63.41-6.29.25-8-.06-.49-1.26-.74-3.63-.74s-5.07.43-8.28,1.28c-2.5.63-4.24,1.19-5.23,1.69ZM335.06,47.13c4.45-.49,8.34-.81,11.66-.95.85-2.01,1.55-4.82,2.1-8.45-.77-.14-1.3-.21-1.61-.21-1.48.03-6,.65-13.56,1.86.49,3.93.96,6.51,1.4,7.75Z"/>
          <path class="d" d="M348.36,91.82c-6.65.99-10.33,1.43-11.04,1.32-.25-.03-.58-.14-.99-.33-.55,2.55-1.18,4.59-1.9,6.1-.47.93-1.54,2.66-3.21,5.19-.69,1.01-1.84,1.99-3.46,2.93-.44.25-.81.37-1.11.37-.49,0-.61-.28-.33-.82l1.98-4.9c.58-1.46,1.21-3.83,1.9-7.13.66-3.1,1.07-5.56,1.24-7.38.33-3.49.49-6.2.49-8.12,0-.85-.14-1.79-.43-2.8-.29-1.02-.43-1.74-.43-2.18,0-1.02.29-1.42.87-1.2.71.25,1.44.49,2.18.74.91.36,1.63.74,2.19,1.15,5.44-2.75,9.34-4.13,11.7-4.16,1.13-.03,2.54.54,4.25,1.69,1.62,1.07,2.57,1.98,2.84,2.72.11.3.16.61.16.91,0,.88-.37,1.42-1.11,1.61,0,.06.01.85.04,2.39.05,1.73.08,2.83.08,3.3l.33,19.2v.91c.03.36.04.66.04.91,0,2.06-.73,3.26-2.18,3.59-.33.08-.66.12-.99.12-1.1,0-2.27-.51-3.5-1.53-1.02-.96-2.03-1.92-3.05-2.88-1.18-1.1-2.36-2.2-3.54-3.3-1.48-1.46-2.86-2.97-4.12-4.53-.14-.16-.21-.33-.21-.49,0-.38.26-.58.78-.58.14,0,.23.03.29.08,1.51,1.21,3.02,2.42,4.53,3.63,1.98,1.48,3.54,2.27,4.7,2.35.03,0,.1.02.23.06.12.04.21.06.27.06.22,0,.34-.22.37-.66.08-1.04.14-3.82.16-8.32ZM336.99,89.3c2.88-.41,5.95-1.02,9.19-1.81l.62-.41c.55.06,1.07.15,1.57.29,0-.82-.01-2.31-.04-4.45-2.5.52-6.1,1.3-10.8,2.35-.14,1.35-.32,2.69-.53,4.04ZM337.89,80.98c2.06-.49,5.04-1.24,8.94-2.23-.08,0,.07-.14.45-.41.33-.03.66,0,.99.08-.03-.77-.04-1.26-.04-1.48-.06-1.7-.22-2.6-.49-2.68-3.41.66-6.69,1.84-9.85,3.54.05.82.05,1.88,0,3.17Z"/>
          <path class="d" d="M329.51,143.25c-.3.03-.57.15-.8.37-.23.22-.46.44-.68.66-.06-.05-.1-.11-.13-.16,0-.14.04-.32.13-.56.08-.23.15-.39.2-.47-.66.11-1.38-.18-2.16-.86s-1.17-1.32-1.17-1.9c0-.16.04-.3.12-.41.3-.41,1.08-.97,2.33-1.67,1.25-.7,2.07-1.04,2.45-1.01,1.13.05,1.96.12,2.51.2,1.02.19,1.72.51,2.1.95.69.77,1.03,1.54,1.03,2.31,0,.72-.43,1.22-1.28,1.53-1.18.55-2.73.89-4.66,1.03ZM326.38,155.24c.38.25.65.33.78.25.91-.58,2.53-2.75,4.86-6.51,2.2-3.57,3.31-5.34,3.34-5.32.14-.05.21,0,.21.16,0,.28-.18.86-.54,1.77-.47,1.18-.73,1.85-.78,2.02-.08.3-.12.61-.12.91,0,.28.18.96.53,2.06.08.28.13.61.13.99,0,1.29-.33,2.69-.99,4.2-.58,1.26-1.24,2.42-1.98,3.46-.63.88-.97,1.42-1.03,1.61-.27.93-.77,1.4-1.48,1.4-.66,0-1.4-.37-2.23-1.11-.74-.66-1.28-1.36-1.61-2.1-.14-.33-.2-.72-.2-1.15,0-.66.14-1.3.41-1.92.27-.62.51-.86.7-.72ZM331.28,133.03c-.25,0-.69.16-1.32.49-.03-.16,0-.45.08-.87.05-.22-.01-.38-.21-.49-.52-.22-1.05-.67-1.59-1.36-.54-.68-.79-1.22-.76-1.61.05-.41.45-.82,1.19-1.24.74-.41,1.44-.65,2.1-.7,1.24-.14,2.68.29,4.33,1.28,1.78,1.04,2.6,2.16,2.43,3.34-.44,1.1-1.26,1.65-2.47,1.65-.41,0-1.04-.08-1.88-.25-.84-.16-1.48-.25-1.92-.25ZM346.12,150.17c.05.41-.07.67-.37.78-.91.36-1.76.41-2.55.16-.39-.11-.81-.45-1.28-1.03-.63-.71-.98-1.1-1.03-1.15-.25-.19-.6-.81-1.05-1.85-.45-1.04-.74-1.83-.84-2.35-.47-2.75-.52-4.15-.16-4.2.52-.05.91-.05,1.15,0,.58.11,1.21.37,1.9.78,4.15-1.13,6.99-1.78,8.53-1.98,2.06-.25,3.59-.18,4.58.2,2.5.96,3.75,1.81,3.75,2.56,0,.08-.03.16-.08.25-.25.28-.41.74-.49,1.4-.22,1.51-.66,2.97-1.32,4.37-.38.8-.67,1.33-.86,1.61-.39.58-.81.88-1.28.91-.91.03-1.69-.19-2.35-.66-.28-.03-.77-.07-1.48-.12h-.37c.58.71.89,1.35.95,1.9v.08c1.18-.14,1.99-.25,2.43-.33.44-.08.95-.27,1.52-.58,1.15.28,1.98.51,2.47.7,1.04.38,1.85.91,2.43,1.57.11.14.16.29.16.45,0,.3-.19.61-.56.93-.37.32-.76.47-1.18.47-.74-.03-1.92-.03-3.54,0-.3,0-1.51.14-3.63.41-.06,1.98-.21,3.56-.45,4.74-.16.77-.54,1.44-1.13,2.02-.59.58-1.26.87-2,.87-.38,0-.7-.19-.95-.58-.14-.19-.29-.95-.45-2.27-.11-.88-.14-2.25-.08-4.12-3.49.44-5.44.65-5.85.62-1.07-.08-2.05-.41-2.95-.99-.89-.58-1.34-1.09-1.34-1.52,0-.22.14-.36.41-.41,1.29-.33,4.55-.8,9.77-1.4v-.08c0-.6-.07-1.32-.21-2.14h-.2ZM344.71,132c-.03-.55-.08-1.04-.16-1.48-1.32.22-2.05.33-2.18.33-.74,0-1.43-.2-2.06-.62-.52-.33-.82-.63-.91-.91-.05-.33.22-.61.82-.82,1.51-.55,3.65-1.06,6.43-1.53,2.64-.41,4.92-.66,6.84-.74l.74-.66c.49.08,1.29.41,2.39.99,1.26.69,1.98,1.26,2.14,1.73.08.3-.08.61-.49.93-.41.32-1.17.34-2.27.06-.16-.05-.56-.07-1.19-.04-.63,0-.96.03-.99.08,0,.14-.06.52-.16,1.15,1.68-.08,3.1.16,4.29.74,1.35.66,2.09,1.42,2.23,2.27.11.69-.03,1.1-.41,1.24-.3.61-.61,1.21-.91,1.81-.66,1.24-1.22,1.98-1.69,2.23-.88.44-1.54.63-1.98.58-1.21-.19-2.09-.66-2.64-1.4-1.87.11-4.74.56-8.61,1.36-.03.16-.08.33-.16.49-.14.3-.56.45-1.28.45-.61,0-1.06-.08-1.36-.23-.3-.15-.69-.65-1.15-1.5-.39-.77-.8-1.15-1.24-1.15,0-.25-.03-.56-.08-.95-.52-1.4-.78-2.91-.78-4.53,0-.77.09-1.14.29-1.11.71.11,1.43.34,2.14.7.88.41,1.38.84,1.48,1.28v.04c.8-.25,1.77-.51,2.93-.78ZM344.84,136.74c-.08-.66-.11-1.48-.08-2.47-.91.28-1.65.54-2.23.78.25.58.53,1.24.86,1.98.39-.08.87-.18,1.44-.29ZM343.39,143.45c.11.25.22.55.33.91,2.01-.39,4.02-.73,6.06-1.03.47,0,.78-.03.95-.08.74.08,1.55.39,2.43.91.19-.47.3-.86.33-1.17.03-.32.07-.63.12-.93.03-.3-.03-.45-.16-.45-1.54-.08-4.08.29-7.62,1.11-.63.19-1.44.44-2.43.74ZM344.59,146.79c.16.33.32.67.45,1.03,1.81-.25,3.2-.43,4.16-.54.08,0,.21-.03.37-.1s.37-.09.62-.06c.25.03.65.13,1.2.29.49-.52.86-1.1,1.11-1.73-.72-.14-1.17-.2-1.36-.2-.52.08-2.71.52-6.55,1.32ZM347.06,130.14c.3.33.56.71.78,1.15.8-.16,1.54-.3,2.23-.41.08-.52.14-.92.16-1.2-.99.14-2.05.29-3.17.45ZM348.18,133.36c.08.93.11,1.88.08,2.84l1.32-.21c-.08-.49-.01-1.47.21-2.93-.55.08-1.09.18-1.61.29ZM353.29,132.82c-.19,1.21-.32,2.1-.37,2.68.82-.11,1.32-.18,1.48-.2.19,0,.38.04.58.12.6-.8.91-1.44.91-1.94,0-.16-.07-.29-.21-.37-.3-.22-.92-.32-1.85-.29h-.54Z"/>
        </g>
      </g>
      <g>
        <g>
          <g>
            <path class="d" d="M58,38.29l-5.48-15.05,6.33-2.31,4.62,5.81c.18.22.4.51.68.87.27.36.55.74.83,1.12.28.39.53.73.74,1.04l.15-.06c-.02-.32-.04-.7-.08-1.14-.03-.43-.07-.89-.1-1.35-.03-.47-.06-.89-.08-1.26l-.2-7.42,6.18-2.25,5.48,15.05-4.14,1.51-2.59-7.1c-.17-.47-.34-.96-.52-1.47-.18-.51-.34-1-.49-1.45-.15-.45-.26-.8-.34-1.06l-.18.06c.02.28.04.63.08,1.08s.07.89.1,1.34c.03.45.05.84.05,1.17l.17,8.78-3.64,1.33-5.52-6.83c-.24-.29-.49-.62-.76-.97-.27-.36-.52-.71-.76-1.05-.23-.34-.43-.64-.6-.87l-.18.06c.12.29.27.65.44,1.09.17.44.35.91.55,1.4.19.49.38.96.54,1.42l2.59,7.1-3.9,1.42Z"/>
            <path class="d" d="M80.93,30.33l-4.56-15.36,4.27-1.27,4.56,15.36-4.27,1.27Z"/>
            <path class="d" d="M88.94,27.9l-3.79-15.57,3.85-.94,8.63,5.58c.17.09.37.22.61.39s.49.35.75.52c.26.18.47.33.63.47l.15-.06c-.07-.29-.15-.61-.25-.97s-.18-.68-.24-.95l-1.72-7.07,4.08-.99,3.79,15.57-3.83.93-8.75-5.67c-.34-.22-.69-.46-1.05-.71s-.65-.46-.88-.62l-.15.06c.07.22.15.5.23.84.08.34.17.68.25,1.01l1.75,7.18-4.06.99Z"/>
            <path class="d" d="M117.41,21.94c-2.86.5-5.15.21-6.84-.88-1.7-1.09-2.79-3.02-3.27-5.77-.32-1.81-.21-3.38.32-4.72.53-1.34,1.45-2.44,2.76-3.29,1.31-.85,2.95-1.45,4.93-1.8,1.21-.21,2.36-.29,3.46-.23,1.1.06,2.09.26,2.97.6.88.34,1.6.84,2.17,1.5.57.66.94,1.49,1.11,2.48l-4.27.75c-.08-.43-.26-.78-.54-1.07s-.64-.49-1.07-.63c-.43-.14-.9-.22-1.43-.23-.52-.02-1.07.02-1.64.12-.81.14-1.52.36-2.13.66-.61.3-1.1.68-1.47,1.13-.37.46-.62.98-.74,1.57-.13.59-.13,1.25,0,1.96l.14.78c.18,1.01.51,1.81,1,2.4.49.59,1.12.99,1.9,1.18.78.2,1.69.2,2.75.02.89-.16,1.65-.4,2.29-.72.64-.33,1.11-.72,1.42-1.17.31-.46.41-.96.32-1.51l-.02-.12-4.87.85-.52-2.94,9.17-1.61,1.53,8.73-2.57.45-.72-1.7c-.44.55-.96,1.04-1.57,1.46-.6.42-1.28.77-2.03,1.05-.75.28-1.59.5-2.52.67Z"/>
            <path class="d" d="M136.03,18.86l-.73-6.32-8.16-8.77,5.17-.6,4.82,5.48.16-.02,3.43-6.43,4.93-.57-5.9,10.41.73,6.32-4.45.52Z"/>
            <path class="d" d="M158.22,17.11c-1.83.11-3.39-.07-4.67-.54-1.28-.47-2.28-1.22-2.98-2.25-.7-1.02-1.1-2.3-1.2-3.84l-.57-9.13,4.47-.28.56,8.98c.08,1.23.47,2.16,1.19,2.8.72.64,1.7.92,2.96.84,1.27-.08,2.23-.48,2.87-1.21.64-.73.92-1.7.85-2.93l-.56-8.98,4.45-.28.57,9.12c.1,1.54-.14,2.86-.71,3.96-.57,1.1-1.46,1.97-2.67,2.6-1.21.63-2.73,1-4.56,1.11Z"/>
            <path class="d" d="M170.46,16.2l-.19-16.02,14.97-.18.04,3.38-10.52.13.03,2.85,9.19-.11.04,3.31-9.19.11.04,3.08,10.68-.13.04,3.4-15.14.18Z"/>
            <path class="d" d="M199.42,16.45l.61-12.39-6.08-.3.18-3.61,16.59.81-.18,3.61-6.06-.3-.61,12.39-4.45-.22Z"/>
            <path class="d" d="M212.58,17.18l1.55-15.95,14.9,1.45-.33,3.37-10.47-1.02-.28,2.83,9.15.89-.32,3.3-9.15-.89-.3,3.06,10.63,1.03-.33,3.39-15.07-1.46Z"/>
            <path class="d" d="M230.92,18.98l2.49-15.83,6.66,1.05,1.23,7.32c.05.28.11.64.17,1.09.06.45.12.91.18,1.39.06.47.11.89.14,1.26l.16.03c.14-.29.3-.64.48-1.03s.37-.81.57-1.23c.2-.43.38-.81.54-1.14l3.42-6.59,6.5,1.02-2.49,15.83-4.35-.69,1.18-7.46c.08-.49.16-1.01.25-1.54.09-.54.18-1.04.27-1.5.09-.47.16-.83.22-1.09l-.18-.03c-.12.25-.27.58-.45.98s-.37.81-.56,1.22c-.19.41-.36.76-.52,1.05l-4.1,7.76-3.82-.6-1.52-8.64c-.07-.37-.13-.78-.2-1.22-.07-.44-.12-.87-.15-1.29s-.07-.77-.11-1.06l-.18-.03c-.03.31-.08.7-.15,1.17s-.13.97-.2,1.49c-.07.53-.14,1.03-.21,1.5l-1.18,7.46-4.1-.65Z"/>
            <path class="d" d="M254.88,22.97l3.5-15.64,10.33,2.31c1.05.23,1.9.66,2.56,1.27.66.61,1.11,1.35,1.35,2.23s.25,1.84.01,2.88c-.23,1.05-.65,1.92-1.26,2.62-.6.7-1.34,1.19-2.21,1.45-.87.27-1.83.28-2.88.05l-5.92-1.32-1.15,5.12-4.35-.97ZM261.11,15.52l4.8,1.07c.67.15,1.21.09,1.63-.17.42-.27.7-.71.83-1.33.1-.42.1-.8.01-1.12-.09-.32-.26-.59-.52-.81-.26-.22-.62-.38-1.08-.48l-4.8-1.08-.88,3.92Z"/>
            <path class="d" d="M272.81,27.12l4.38-15.41,4.28,1.22-3.39,11.91,8.86,2.52-1,3.5-13.14-3.74Z"/>
            <path class="d" d="M288.47,31.66l5.35-15.1,14.11,5-1.13,3.19-9.91-3.52-.95,2.68,8.66,3.07-1.11,3.12-8.66-3.07-1.03,2.9,10.07,3.57-1.14,3.21-14.27-5.06Z"/>
          </g>
          <g>
            <path class="d" d="M50.61,155.51l6.69-14.56,6.12,2.81-.8,7.38c-.03.28-.07.64-.13,1.09-.06.45-.13.91-.2,1.38-.07.47-.14.89-.2,1.25l.15.07c.21-.24.46-.53.74-.86.28-.33.58-.68.88-1.03.31-.35.59-.67.83-.95l5.08-5.42,5.98,2.75-6.69,14.56-4.01-1.84,3.16-6.87c.21-.45.43-.92.66-1.42.23-.49.46-.95.67-1.37.21-.43.38-.75.5-.99l-.17-.08c-.18.21-.41.48-.7.82-.28.34-.57.68-.87,1.03-.3.34-.56.63-.78.87l-6.05,6.36-3.52-1.62.88-8.73c.04-.38.08-.79.14-1.23s.13-.87.2-1.28c.08-.41.14-.76.18-1.04l-.17-.08c-.12.29-.27.65-.46,1.08-.19.43-.39.89-.6,1.38-.21.49-.41.95-.61,1.39l-3.16,6.87-3.77-1.73Z"/>
            <path class="d" d="M71.58,164.91l11.75-12.92,4.86,1.65,1.43,17.42-4.55-1.55-.17-2.89-7.09-2.42-1.9,2.19-4.33-1.47ZM80.09,161.5l4.64,1.58-.17-3.56c0-.18,0-.41-.01-.68s0-.57,0-.88c0-.31,0-.62,0-.91s0-.53,0-.72l-.15-.05c-.18.23-.39.51-.64.83-.25.32-.49.63-.72.92-.23.3-.43.55-.6.76l-2.33,2.71Z"/>
            <path class="d" d="M94.15,172.19l3.25-11.97-5.87-1.6.95-3.49,16.02,4.35-.95,3.49-5.85-1.59-3.25,11.97-4.3-1.17Z"/>
            <path class="d" d="M114.55,177.39c-1.95-.4-3.52-1.04-4.72-1.91-1.19-.87-2-1.98-2.43-3.32-.42-1.34-.45-2.92-.08-4.73.54-2.65,1.72-4.51,3.52-5.58,1.8-1.07,4.16-1.3,7.05-.71,1.6.33,2.96.87,4.09,1.64,1.13.76,1.94,1.7,2.44,2.81.49,1.11.6,2.35.32,3.72l-4.27-.88c.14-.67.09-1.28-.14-1.81-.23-.54-.61-.99-1.15-1.37-.54-.37-1.21-.64-2.01-.81-.98-.2-1.82-.19-2.54.04-.72.23-1.31.64-1.76,1.23-.46.6-.78,1.34-.96,2.24l-.16.78c-.18.9-.18,1.71,0,2.44.18.73.56,1.34,1.12,1.84.56.5,1.33.84,2.29,1.04.87.18,1.64.21,2.3.09.67-.12,1.21-.37,1.63-.77.42-.4.7-.92.83-1.58l4.14.85c-.28,1.34-.85,2.42-1.71,3.24-.87.82-1.97,1.36-3.3,1.62-1.33.26-2.83.22-4.51-.13Z"/>
            <path class="d" d="M126.07,179.34l2.21-15.87,4.41.62-.84,6.01,7.99,1.12.84-6.01,4.41.62-2.21,15.87-4.41-.62.88-6.28-7.99-1.12-.88,6.28-4.41-.62Z"/>
            <path class="d" d="M146.94,182.16l1.18-15.98,6.72.5,1.83,7.2c.07.27.16.63.26,1.07.1.44.2.9.3,1.37.1.47.18.88.25,1.25h.16c.12-.29.25-.65.39-1.06.15-.41.3-.83.47-1.28.16-.44.31-.83.45-1.18l2.87-6.85,6.56.48-1.18,15.98-4.4-.32.56-7.54c.03-.5.08-1.01.13-1.56s.1-1.05.15-1.52.09-.84.13-1.1h-.18c-.1.24-.22.58-.37,1-.15.42-.3.84-.46,1.26-.16.43-.3.79-.43,1.09l-3.45,8.07-3.86-.28-2.23-8.49c-.1-.37-.2-.77-.3-1.2-.1-.44-.19-.86-.26-1.27-.07-.41-.13-.76-.19-1.04h-.19c0,.3-.02.69-.05,1.16-.03.47-.05.98-.08,1.5-.02.53-.05,1.03-.09,1.51l-.56,7.54-4.14-.31Z"/>
            <path class="d" d="M169.68,183.74l7.17-15.93,5.13.07,6.76,16.11-4.8-.07-1.06-2.7-7.49-.1-1.13,2.67-4.57-.06ZM176.71,177.86l4.9.07-1.26-3.33c-.06-.17-.13-.39-.23-.64s-.18-.53-.28-.83-.19-.59-.28-.87c-.09-.28-.16-.51-.22-.68h-.16c-.1.28-.22.61-.35.99s-.27.75-.4,1.1c-.13.36-.24.66-.34.9l-1.37,3.29Z"/>
            <path class="d" d="M190.99,183.93l-.64-16.01,4.45-.18.3,7.43,7.23-7.73,5.59-.22-6.4,6.84,7.18,9.17-5.43.22-4.83-6.41-3.15,2.93.15,3.8-4.45.18Z"/>
            <path class="d" d="M211.34,182.99l-1.49-15.95,14.91-1.4.32,3.37-10.47.98.27,2.83,9.15-.86.31,3.3-9.15.86.29,3.06,10.64-1,.32,3.39-15.07,1.41Z"/>
            <path class="d" d="M229.73,181.18l-2.38-15.84,11.19-1.68c1.17-.18,2.17-.09,3.01.24.84.34,1.51.86,2.01,1.57.5.71.82,1.53.96,2.45.15,1.01.06,1.96-.29,2.84-.35.88-.94,1.62-1.78,2.21l4.15,5.67-4.96.75-3.44-5.02-4.87.73.82,5.42-4.41.66ZM232.83,171.82l5.63-.85c.57-.09,1-.33,1.28-.74.28-.4.38-.91.29-1.53-.06-.38-.18-.7-.38-.96-.2-.25-.44-.44-.74-.55s-.64-.14-1.03-.08l-5.63.85.58,3.85Z"/>
            <path class="d" d="M263.19,175.36c-2.83.68-5.12.52-6.89-.47-1.76-.99-2.97-2.84-3.62-5.56-.43-1.79-.42-3.36.03-4.73.45-1.37,1.3-2.52,2.56-3.45,1.26-.93,2.86-1.63,4.81-2.1,1.19-.29,2.34-.43,3.44-.44s2.1.13,3,.42c.9.29,1.65.74,2.26,1.37.6.62,1.02,1.43,1.26,2.41l-4.22,1.01c-.1-.42-.3-.77-.61-1.03-.3-.26-.67-.45-1.11-.56-.43-.11-.91-.16-1.44-.15-.52.01-1.07.09-1.63.22-.8.19-1.5.45-2.09.79-.59.33-1.06.74-1.4,1.22-.34.48-.56,1.02-.64,1.62-.09.6-.05,1.25.12,1.96l.18.77c.24,1,.62,1.78,1.15,2.34.53.56,1.18.92,1.97,1.06.79.15,1.7.1,2.75-.15.88-.21,1.62-.5,2.24-.86.62-.36,1.06-.78,1.34-1.26.28-.47.35-.98.22-1.53l-.03-.11-4.81,1.15-.69-2.9,9.05-2.16,2.06,8.62-2.54.61-.83-1.65c-.41.58-.9,1.09-1.48,1.55-.58.46-1.23.85-1.96,1.18-.73.33-1.56.6-2.48.82Z"/>
            <path class="d" d="M284.68,169.37c-1.85.6-3.54.82-5.09.65-1.54-.17-2.87-.72-3.97-1.65-1.1-.93-1.94-2.26-2.49-3.97-.56-1.71-.66-3.27-.32-4.68.34-1.4,1.09-2.62,2.24-3.66,1.15-1.04,2.65-1.85,4.5-2.45,1.88-.61,3.58-.83,5.12-.67s2.85.71,3.96,1.64c1.1.93,1.94,2.26,2.49,3.97.56,1.71.66,3.27.32,4.68-.34,1.4-1.09,2.63-2.23,3.67-1.14,1.04-2.65,1.87-4.53,2.48ZM283.63,166.15c.72-.24,1.34-.55,1.84-.93.5-.38.9-.83,1.19-1.33.29-.5.45-1.05.49-1.66.04-.6-.05-1.24-.26-1.9l-.24-.75c-.22-.67-.52-1.23-.91-1.69-.39-.46-.84-.81-1.37-1.05-.53-.24-1.11-.36-1.74-.37-.63,0-1.31.11-2.04.34-.71.23-1.32.54-1.84.91-.51.38-.91.82-1.19,1.32-.28.5-.44,1.05-.47,1.65-.03.6.06,1.23.27,1.9l.25.75c.22.67.51,1.23.89,1.7.38.47.83.82,1.35,1.06s1.1.37,1.74.38c.64.01,1.32-.1,2.03-.33Z"/>
            <path class="d" d="M296.88,164.9l-6.33-14.72,7.2-3.09c1.7-.73,3.27-1.08,4.71-1.06,1.44.03,2.72.44,3.83,1.26,1.11.82,2.02,2.04,2.72,3.67.7,1.63.96,3.13.79,4.5-.17,1.37-.74,2.59-1.71,3.66-.97,1.07-2.31,1.97-4.01,2.7l-7.2,3.09ZM299.63,160.01l2.96-1.27c.63-.27,1.16-.6,1.58-.99.43-.39.74-.82.95-1.3.21-.48.3-1,.27-1.56-.03-.56-.18-1.15-.44-1.76l-.3-.71c-.27-.63-.6-1.14-.98-1.55-.38-.4-.82-.69-1.32-.88-.49-.18-1.03-.26-1.6-.21s-1.18.2-1.8.47l-2.96,1.27,3.65,8.48Z"/>
          </g>
        </g>
        <g>
          <path class="d" d="M64.92,107.54c-1.16-1.27-1.74-2.82-1.74-4.67,0-.9.21-1.34.63-1.34,1.58-.11,3.17-.61,4.75-1.5-1.74-.69-2.66-2.4-2.77-5.14v-12.42c-.05-12.56-.11-18.6-.16-18.12.05-1.85.21-4.11.47-6.81.11-.42.47-.63,1.11-.63.9,0,1.87.29,2.93.87l.55.32c5.27-4.06,9.07-5.99,11.39-5.78,4.12.32,7.12,2.16,9.02,5.54.58,1.05.87,2.24.87,3.56,0,.69-.11,1.32-.32,1.9.05.16.18,2.9.4,8.23.16,5.86.24,10.66.24,14.4,0,3.48-.08,5.59-.24,6.33-.32,1.32-1.32,2.27-3.01,2.85-1.37.53-2.8.74-4.27.63l-.08-.08-.08.16c-1.85,2.37-4.62,5.41-8.31,9.1-2.43,2.48-4.12,4.01-5.07,4.59-.53.32-1.08.47-1.66.47-1.64,0-3.19-.82-4.67-2.45ZM81.94,70.82c0-3.8-.08-7.91-.24-12.35-.05-.16-.18-.24-.4-.24-.9,0-3.17,1-6.81,3.01.74,1,1.13,2.16,1.19,3.48.05.95.13,3.72.24,8.31,2.43-1.37,4.01-2.14,4.75-2.3.32-.05.74-.03,1.27.08ZM76.08,94.32c1.27-1.16,3.27-2.9,6.01-5.22-.05-1.11-.11-4.8-.16-11.08-1.37.79-3.3,1.87-5.78,3.25.05,3.8.03,8.15-.08,13.06ZM117.47,84.98c-5.07,1.9-8.92,2.8-11.56,2.69-.42,3.75-1.14,7.52-2.14,11.32-.79,3.06-1.43,5.01-1.9,5.86-1.37,2.43-2.32,4.04-2.85,4.83-1.21,1.69-2.56,2.95-4.04,3.8-1.06.58-1.82.87-2.3.87-.42,0-.63-.26-.63-.79,0-.37.13-1,.4-1.9.37-1.16.58-1.85.63-2.06,2.01-9.13,3.3-20.5,3.88-34.11.37-8.91.55-14.67.55-17.25,0-3.32-.18-5.21-.55-5.66-.37-.45-.79-1.12-1.27-2.02-.11-1.58.45-2.37,1.66-2.37.74,0,1.91.26,3.52.79,1.61.53,2.68,1,3.2,1.43,6.54-3.06,11.32-4.56,14.32-4.51,1.74,0,3.64.42,5.7,1.27,2.27.95,3.59,2.01,3.96,3.17.16.47.24.95.24,1.42,0,.9-.33,1.94-.99,3.13-.66,1.19-.99,1.94-.99,2.26,0,2.64.05,8.15.16,16.54.05,2.53.26,8.84.63,18.91.32,8.86.45,14.01.4,15.43-.05,2.69-.16,4.35-.32,4.99-.37,1.48-1.24,2.27-2.61,2.37-1.85.1-3.67-.5-5.46-1.82-1.06-.74-1.97-1.98-2.73-3.72-.77-1.74-2.41-4.93-4.95-9.58-.74-1.43-1.11-2.51-1.11-3.25,0-.32.05-.47.16-.47.26,0,.66.34,1.19,1.03,3.32,4.11,5.12,6.17,5.38,6.17.16,0,.24-.13.24-.4.21-2.64.26-8.76.16-18.36ZM117.23,69.55c-4.43,1.64-7.97,2.51-10.6,2.61l-.32,7.99c3.06-.47,6.75-1.4,11.08-2.77-.05-2.69-.11-5.3-.16-7.84ZM106.79,64.57c3.01-.53,6.51-1.43,10.52-2.69.05-6.65-.03-9.97-.24-9.97-1.16,0-4.64,1.14-10.45,3.4.16,1.9.21,4.99.16,9.26Z"/>
          <path class="d" d="M191.34,86.17c-12.77,1.9-19.84,2.74-21.21,2.53-.47-.05-1.11-.26-1.9-.63-1.06,4.91-2.27,8.81-3.64,11.71-.9,1.8-2.96,5.12-6.17,9.97-1.32,1.95-3.53,3.82-6.65,5.62-.84.47-1.56.71-2.14.71-.95,0-1.16-.53-.63-1.58l3.8-9.42c1.11-2.8,2.32-7.36,3.64-13.69,1.27-5.96,2.06-10.68,2.37-14.17.63-6.7.95-11.9.95-15.59,0-1.63-.28-3.43-.83-5.38-.55-1.95-.83-3.35-.83-4.19,0-1.95.55-2.72,1.66-2.3,1.37.47,2.77.95,4.19,1.43,1.74.69,3.14,1.42,4.19,2.21,10.45-5.27,17.94-7.94,22.48-7.99,2.16-.05,4.88,1.03,8.15,3.24,3.11,2.06,4.93,3.8,5.46,5.22.21.58.32,1.16.32,1.74,0,1.69-.71,2.72-2.14,3.09,0,.11.03,1.63.08,4.59.11,3.32.16,5.44.16,6.33l.63,36.88v1.74c.05.68.08,1.27.08,1.74,0,3.96-1.4,6.25-4.19,6.89-.63.16-1.27.24-1.9.24-2.11,0-4.35-.98-6.73-2.93-1.95-1.85-3.9-3.69-5.86-5.54-2.27-2.11-4.54-4.22-6.81-6.33-2.85-2.8-5.49-5.7-7.91-8.71-.26-.32-.4-.63-.4-.95,0-.74.5-1.11,1.5-1.11.26,0,.45.05.55.16,2.9,2.32,5.8,4.64,8.71,6.96,3.8,2.85,6.81,4.35,9.02,4.51.05,0,.2.04.44.12.24.08.41.12.52.12.42,0,.66-.42.71-1.27.16-2,.26-7.33.32-15.99ZM169.5,81.34c5.54-.79,11.42-1.95,17.65-3.48l1.19-.79c1.05.11,2.06.29,3.01.55,0-1.58-.03-4.43-.08-8.55-4.8,1-11.71,2.51-20.73,4.51-.26,2.59-.61,5.17-1.03,7.76ZM171.24,65.36c3.96-.95,9.68-2.37,17.17-4.27-.16,0,.13-.26.87-.79.63-.05,1.27,0,1.9.16-.05-1.48-.08-2.43-.08-2.85-.11-3.27-.42-4.99-.95-5.14-6.54,1.27-12.85,3.53-18.91,6.81.1,1.58.1,3.61,0,6.09Z"/>
          <path class="d" d="M265.78,84.67c-.37,1.11-.82,2.06-1.34,2.85,4.96-1,8.91-1.53,11.87-1.58h1.82c1.53.21,3.56,1.4,6.09,3.56,2.9,2.59,4.27,5.04,4.12,7.36-.16,1.53-1.66,4.14-4.51,7.84,1.27.84,1.95,1.92,2.06,3.24.05,1.05-1.03,2.51-3.24,4.35-.53.42-2.24.61-5.14.55-1.9-.11-3.77-.18-5.62-.24-1-.05-6.3.53-15.91,1.74-.69,1.11-1.69,1.66-3.01,1.66-.58,0-1.16-.13-1.74-.4-5.8-2.64-10.52-9.05-14.17-19.23v.08c-.69-1.9-1.03-3.59-1.03-5.07,0-1.37.29-2.06.87-2.06,3.01-.05,5.56,1.03,7.68,3.24,1.69-.53,3.32-1,4.91-1.42,1.27-.9,2.48-1.9,3.64-3.01-3.38-1.48-5.83-4.33-7.36-8.55-.95-2.58-1.45-5.17-1.5-7.75-.05-1.16.06-2.26.35-3.28.29-1.03.65-1.49,1.07-1.39,1,.32,2.08.95,3.24,1.9,4.06-1.37,8.63-2.56,13.69-3.56,5.27-1.05,9.07-1.48,11.39-1.27l.48-.4c1.32.11,2.66.71,4.04,1.82,1.42-.84,2.69-1.81,3.8-2.89,1.11-1.08,1.66-1.86,1.66-2.33,0-.21-.13-.34-.4-.4-.79-.11-1.77-.16-2.93-.16-4.8,0-11.61.87-20.42,2.61-8.13,1.64-15.67,3.54-22.63,5.7,0,.32-.05,1.21-.16,2.69-.16,2.01-.58,3.8-1.27,5.38-.32.79-1.03,1.34-2.14,1.66-.9.26-1.58.29-2.06.08-1.32-.63-2.52-2.06-3.6-4.27-1.08-2.22-1.62-4.27-1.62-6.17,0-.63.08-1.19.24-1.66,1.37-3.06,2.8-6.65,4.27-10.76.05-.53.32-.79.79-.79.84,0,1.79.53,2.85,1.58,1.05,1.06,1.77,2.06,2.14,3.01.21.63.4,1.35.55,2.14,3.27-.84,9.21-2.32,17.81-4.43.21-.37.37-.71.47-1.03-3.06-2.22-4.59-3.96-4.59-5.22,0-.69.5-1.27,1.5-1.74.58-.26,1.82-.66,3.72-1.19.68-.05,1.48-.08,2.37-.08,5.27,0,9.63,1.43,13.06,4.27.42.32.69.74.79,1.27,4.01-.47,7.57-.61,10.68-.4l.87-.47c1.32-.16,3.77.82,7.36,2.93,3.85,2.32,5.72,4.46,5.62,6.41-.05.74-.55,1.63-1.5,2.69-1.16,1.37-2.77,2.59-4.83,3.64-1.06.53-2.08.79-3.09.79-.84,0-1.42-.16-1.74-.47-.74-.9-1.66-1.55-2.77-1.98-.84,0-2.08.21-3.72.63,1.37,1.37,2.06,2.66,2.06,3.88,0,.37-.08.65-.24.83-.16.18-.69,1.15-1.58,2.89-1.06,2.01-2.24,3.69-3.56,5.07.32.26.5.5.55.71.1.47-.33,1.16-1.31,2.06-.98.9-1.94,1.48-2.89,1.74-1.64.16-3.75.4-6.33.71l-.55.08ZM252.96,105.48c3.38-.37,8.12-.71,14.25-1.03,2.64-2.27,4.88-4.93,6.73-7.99,1.58-2.64,2.19-3.98,1.82-4.04-.47-.11-1.06-.16-1.74-.16-2.85,0-7.17.77-12.98,2.3-4.75,1.27-8.92,2.59-12.5,3.96l4.43,6.96ZM266.81,77.39c1.79-2.64,2.85-4.91,3.16-6.81-.11-.05-.29-.08-.55-.08-2.9,0-8.42,1.29-16.54,3.88.69,1.27,1.66,3.09,2.93,5.46,2.69-.58,6.36-1.4,11-2.45Z"/>
        </g>
        <g>
          <path class="d" d="M123.39,141.33c-.65,0-1.25-.04-1.81-.13s-1.05-.23-1.47-.44c-.42-.21-.75-.49-.99-.86-.24-.37-.36-.83-.36-1.39v-.07s0-.06.01-.09h2.73s-.01.06-.01.09v.08c0,.24.07.43.21.56.14.13.33.22.58.26.25.05.53.07.85.07.13,0,.26,0,.4,0,.14,0,.27-.02.4-.04s.25-.05.35-.09.19-.09.25-.16c.06-.07.09-.16.09-.26,0-.15-.08-.27-.24-.36-.16-.08-.37-.15-.65-.21-.28-.05-.58-.1-.92-.15-.34-.05-.68-.11-1.05-.18-.36-.07-.72-.17-1.05-.29-.34-.12-.64-.27-.92-.47-.27-.2-.49-.45-.65-.74-.16-.3-.24-.66-.24-1.09,0-.48.12-.9.35-1.23.23-.34.54-.61.93-.82.39-.21.84-.36,1.35-.46.51-.1,1.04-.15,1.59-.15s1.1.05,1.59.15.94.25,1.32.45c.38.21.68.47.9.79s.33.71.33,1.18v.15h-2.7v-.05c0-.15-.04-.29-.13-.42-.09-.13-.23-.23-.42-.31-.19-.08-.45-.11-.78-.11s-.58.03-.79.07c-.21.05-.37.11-.47.2-.11.08-.16.18-.16.27,0,.15.08.26.24.35.16.09.38.16.65.22.27.06.58.11.91.16.34.05.69.1,1.05.17.36.06.71.15,1.05.26.34.11.64.26.91.45.27.19.49.43.65.71.16.28.24.63.24,1.04,0,.69-.18,1.24-.54,1.67-.36.43-.85.74-1.47.94-.62.2-1.32.3-2.11.3Z"/>
          <path class="d" d="M133.47,141.33c-1.01,0-1.86-.15-2.54-.44-.69-.29-1.21-.72-1.56-1.29s-.53-1.27-.53-2.1v-4.65h2.84v4.57c0,.57.15,1.02.46,1.36.31.34.75.51,1.32.51s1.03-.17,1.33-.51c.31-.34.46-.79.46-1.36v-4.57h2.84v4.65c0,.83-.17,1.53-.52,2.1-.35.57-.86,1-1.55,1.29s-1.54.44-2.54.44Z"/>
          <path class="d" d="M139.88,141.19v-8.34h2.45l3.36,3.24c.06.06.14.14.24.26.11.12.21.24.33.36s.21.23.28.31h.08v-4.17h2.62v8.34h-2.42l-3.42-3.31c-.15-.15-.3-.31-.44-.45-.14-.15-.27-.28-.37-.4h-.08c0,.14.01.3.01.48v3.68h-2.63Z"/>
          <path class="d" d="M153.87,141.19v-8.34h4.22l.9,2.99c.05.14.11.32.17.55.06.23.13.47.19.73.06.25.12.48.17.69h.08c.04-.17.09-.37.15-.59s.12-.46.19-.71c.07-.25.13-.47.19-.66l.9-2.99h4.07v8.34h-2.77v-3.32c0-.27,0-.54,0-.84,0-.29.01-.57.02-.84,0-.27.01-.5.01-.69h-.1c-.04.17-.09.37-.15.61s-.12.46-.19.69-.12.42-.18.58l-1.19,3.8h-2.33l-1.2-3.8c-.07-.21-.13-.43-.2-.67s-.13-.46-.18-.67c-.05-.21-.1-.4-.14-.54h-.1c0,.17.02.39.02.64,0,.26.01.54.02.84,0,.3,0,.59,0,.88v3.32h-2.59Z"/>
          <path class="d" d="M171.57,141.33c-1.04,0-1.94-.17-2.69-.5-.75-.34-1.33-.82-1.73-1.47-.4-.64-.61-1.42-.61-2.34s.2-1.71.61-2.36c.4-.64.98-1.13,1.73-1.46.75-.33,1.65-.5,2.69-.5s1.95.17,2.7.5c.75.33,1.33.82,1.73,1.46.4.64.61,1.43.61,2.36s-.2,1.7-.61,2.34c-.4.64-.98,1.13-1.73,1.47-.75.33-1.65.5-2.7.5ZM171.57,139.3c.34,0,.64-.05.9-.15s.49-.24.67-.42c.19-.18.33-.4.42-.64s.14-.52.14-.82v-.53c0-.29-.05-.56-.14-.81s-.23-.46-.42-.64c-.19-.18-.41-.31-.67-.41-.26-.1-.56-.15-.9-.15s-.63.05-.9.15c-.27.1-.49.23-.67.41-.18.18-.32.39-.41.64-.09.25-.14.52-.14.81v.53c0,.3.05.57.14.82.09.25.23.46.41.64.18.18.41.32.67.42.27.1.56.15.9.15Z"/>
          <path class="d" d="M182.73,141.33c-1.04,0-1.94-.17-2.69-.5-.75-.34-1.33-.82-1.73-1.47-.4-.64-.61-1.42-.61-2.34s.2-1.71.61-2.36c.4-.64.98-1.13,1.73-1.46s1.65-.5,2.69-.5,1.95.17,2.7.5c.75.33,1.33.82,1.73,1.46.4.64.61,1.43.61,2.36s-.2,1.7-.61,2.34c-.4.64-.98,1.13-1.73,1.47-.75.33-1.65.5-2.7.5ZM182.73,139.3c.34,0,.64-.05.9-.15s.49-.24.67-.42c.19-.18.33-.4.42-.64s.14-.52.14-.82v-.53c0-.29-.05-.56-.14-.81s-.23-.46-.42-.64c-.19-.18-.41-.31-.67-.41-.26-.1-.56-.15-.9-.15s-.63.05-.9.15c-.27.1-.49.23-.67.41-.18.18-.32.39-.41.64-.09.25-.14.52-.14.81v.53c0,.3.05.57.14.82.09.25.23.46.41.64.18.18.41.32.67.42s.56.15.9.15Z"/>
          <path class="d" d="M189.21,141.19v-8.34h2.45l3.36,3.24c.06.06.14.14.24.26s.21.24.33.36c.11.12.21.23.28.31h.08v-4.17h2.62v8.34h-2.42l-3.42-3.31c-.15-.15-.3-.31-.44-.45-.14-.15-.26-.28-.37-.4h-.09c0,.14.01.3.01.48v3.68h-2.63Z"/>
          <path class="d" d="M203.21,141.19v-8.34h2.84v6.12h4.85v2.22h-7.68Z"/>
          <path class="d" d="M211.23,141.19l3.54-8.34h3.21l3.54,8.34h-3.03l-.42-1.14h-3.5l-.41,1.14h-2.92ZM215.3,138.07h2.03l-.48-1.37c-.03-.08-.07-.18-.11-.3s-.08-.25-.13-.4c-.04-.15-.09-.29-.13-.44s-.08-.27-.12-.39h-.08c-.04.15-.09.31-.15.49-.06.18-.12.36-.18.55s-.11.35-.17.49l-.48,1.37Z"/>
          <path class="d" d="M222.51,141.19v-8.34h2.84v3.62l3.5-3.62h3.51l-3.33,3.42,3.42,4.92h-3.4l-2.06-3.13-1.64,1.43v1.7h-2.84Z"/>
          <path class="d" d="M233.57,141.19v-8.34h8.06v2.03h-5.22v1.11h4.48v1.94h-4.48v1.21h5.31v2.03h-8.14Z"/>
        </g>
      </g>
    </g>
  </g>
</svg>