<?xml version="1.0" encoding="UTF-8"?>
<svg id="b" data-name="圖層 2" xmlns="http://www.w3.org/2000/svg" width="151.69" height="41.33" viewBox="0 0 151.69 41.33">
  <defs>
    <style>
      .d, .e {
        fill: #fff;
      }

      .e {
        stroke: #092a31;
        stroke-miterlimit: 10;
        stroke-width: 1.34px;
      }

      .f {
        fill: #092a31;
      }
    </style>
  </defs>
  <g id="c" data-name="fix 按鈕">
    <g>
      <rect class="e" x=".67" y=".67" width="150.35" height="40" rx="19.33" ry="19.33"/>
      <rect class="f" x=".67" y=".22" width="146.51" height="36.67" rx="18.33" ry="18.33"/>
      <path class="d" d="M115.92,18.55c0,.07-.14,4.24,1.24,7.39.18-.21.35-.43.51-.66,1.33-1.6,5.13-6.31,9.3-6.08v-.65s0-.65,0-.65c-4.17.23-7.97-4.49-9.3-6.08-.16-.22-.33-.44-.5-.65-1.39,3.16-1.25,7.34-1.25,7.39Z"/>
      <g>
        <path class="d" d="M43.1,13.38l.66.3c-.04.06-.1.1-.15.12-.98,2.23-3.17,4.06-5.25,5.01-.13-.19-.38-.46-.57-.61,1.75-.72,3.7-2.28,4.65-4.06h-3.88v-.71h4.38l.17-.05ZM46.56,21.53l1.05.32c-.03.07-.14.11-.28.11-.24.44-.6,1.06-.94,1.55h4.08v.72h-12.38v-.72h3.94c-.17-.52-.52-1.21-.87-1.72l.8-.22c.43.59.84,1.36.99,1.88l-.2.06h2.73c.35-.54.81-1.39,1.04-1.98h-6.09v-3.2h7.73v3.2h-1.6ZM38.96,14.71c.71.36,1.54.92,1.93,1.34l-.53.54c-.39-.44-1.2-1.01-1.92-1.41l.52-.46ZM41.34,19.05v1.77h5.87v-1.77h-5.87ZM41.62,17.33v-.74h5.25v.74h-5.25ZM49.06,13.67c-.06.06-.18.07-.29.06-.5.42-1.33,1.01-2.02,1.44.32.36.66.71,1.02,1.04.67-.46,1.47-1.12,1.93-1.61l.87.55c-.06.06-.17.09-.29.07-.5.42-1.29,1.01-1.95,1.45.76.59,1.58,1.07,2.45,1.4-.21.16-.49.47-.64.69-2.4-1.02-4.5-3.15-5.63-5.55l.8-.22c.27.57.62,1.12,1.01,1.66.66-.46,1.41-1.07,1.88-1.52l.87.56Z"/>
        <path class="d" d="M64.95,19.31l1.25.07c-.01.09-.08.15-.28.16v4.97h-.97v-.79h-9.1v.82h-.94v-5.24l1.23.06c-.01.1-.1.16-.29.17v3.36h3.98v-4.43h-4.38v-4.32l1.23.07c-.01.07-.1.14-.29.16v3.26h3.45v-4.66l1.25.07c-.01.09-.1.15-.28.17v4.41h3.59v-3.51l1.25.07c-.01.09-.08.15-.28.17v4.08h-4.55v4.43h4.16v-3.59Z"/>
      </g>
      <path class="d" d="M107.59,18.56c0,.07-.14,4.24,1.24,7.39.18-.21.35-.43.51-.66,1.33-1.6,5.13-6.31,9.3-6.08v-.65s0-.65,0-.65c-4.17.23-7.97-4.49-9.3-6.08-.16-.22-.33-.44-.5-.65-1.39,3.16-1.25,7.34-1.25,7.39Z"/>
    </g>
  </g>
</svg>