<?xml version="1.0" encoding="UTF-8"?>
<svg id="b" data-name="圖層 2" xmlns="http://www.w3.org/2000/svg" width="278.2" height="75.81" viewBox="0 0 278.2 75.81">
  <defs>
    <style>
      .d {
        stroke: #092a31;
        stroke-miterlimit: 10;
        stroke-width: 2.45px;
      }

      .d, .e {
        fill: #fff;
      }

      .f {
        fill: #092a31;
      }
    </style>
  </defs>
  <g id="c" data-name="icon">
    <rect class="d" x="1.22" y="1.22" width="275.75" height="73.36" rx="35.44" ry="35.44"/>
    <rect class="f" x="1.22" y=".41" width="268.71" height="67.25" rx="33.62" ry="33.62"/>
    <path class="e" d="M212.61,34.02c0,.13-.26,7.77,2.27,13.56.33-.39.65-.8.94-1.21,2.44-2.93,9.4-11.58,17.05-11.16v-1.19s0-1.19,0-1.19c-7.65.42-14.61-8.23-17.05-11.16-.29-.41-.6-.8-.92-1.19-2.55,5.8-2.29,13.46-2.29,13.55Z"/>
    <g>
      <path class="e" d="M88.12,28.51c-.96.79-2.19,1.65-3.23,2.29,1.21.93,2.57,1.68,3.99,2.19-.36.25-.81.79-1.08,1.15-1.85-.74-3.54-1.87-5.03-3.25v.96h-7.6v-.89c-1.57,1.44-3.42,2.59-5.22,3.35-.21-.32-.66-.79-.98-1.06,1.44-.53,2.97-1.42,4.29-2.5-.66-.64-1.74-1.38-2.7-1.91l.85-.79c.98.51,2.1,1.25,2.78,1.89.83-.83,1.59-1.72,2.12-2.65h-5.77v-1.19h6.52l.3-.06,1.04.47c-.66,1.55-1.68,2.93-2.89,4.12h7c-1.46-1.42-2.65-3.05-3.52-4.83l1.38-.38c.38.79.89,1.59,1.46,2.35.96-.68,2.06-1.57,2.74-2.23l1.21.76c-.98.81-2.19,1.68-3.23,2.33.42.49.91.98,1.42,1.44,1.04-.7,2.23-1.61,2.95-2.29l1.19.72ZM83.65,38.58c-.45.81-.98,1.7-1.42,2.42h6.03v1.23h-18.57v-1.23h5.82c-.19-.64-.68-1.63-1.19-2.35l1.42-.4c.53.72,1.08,1.68,1.29,2.35l-1.32.4h4.9c.55-.79,1.21-1.95,1.55-2.78l1.49.36ZM84.83,38.11h-12.01v-4.71h12.01v4.71ZM83.18,34.57h-8.81v2.37h8.81v-2.37Z"/>
      <path class="e" d="M111.69,34.8v7.85h-1.7v-1.08h-14.94v-6.77h1.7v5.39h5.73v-6.58h-6.49v-6.47h1.63v5.09h4.86v-6.81h1.7v6.81h4.99v-5.11h1.7v6.49h-6.69v6.58h5.82v-5.39h1.7Z"/>
    </g>
  </g>
</svg>