<?xml version="1.0" encoding="UTF-8"?>
<svg id="b" data-name="圖層 2" xmlns="http://www.w3.org/2000/svg" width="78.92" height="78.92" viewBox="0 0 78.92 78.92">
  <defs>
    <style>
      .d {
        fill: #fff;
      }

      .e {
        fill: #092a31;
      }
    </style>
  </defs>
  <g id="c" data-name="icon">
    <circle class="e" cx="39.46" cy="39.46" r="39.46" transform="translate(-12.1 60.82) rotate(-67.5)"/>
    <path class="d" d="M44.03,25.34c.18-.18.78-.59,2.53-.59.97,0,2.03.1,3.15.29l1.73.3,1.49-8.36-1.72-.32c-5.55-1.05-10.01-.68-12.71,1.04-1.74,1.11-2.97,2.59-3.68,4.42-.49,1.3-.73,3.13-.73,5.6v1.77h-5.17v7.92h5.17v24.38h9.35v-24.38h6.73v-7.92h-6.73v-1.3c0-2.16.48-2.75.58-2.84Z"/>
  </g>
</svg>