<?xml version="1.0" encoding="UTF-8"?>
<svg id="b" data-name="圖層 2" xmlns="http://www.w3.org/2000/svg" width="77.88" height="77.88" viewBox="0 0 77.88 77.88">
  <defs>
    <style>
      .d {
        fill: #fff;
      }

      .e {
        fill: #092a31;
      }
    </style>
  </defs>
  <g id="c" data-name="icon">
    <circle class="e" cx="38.94" cy="38.94" r="38.94" transform="translate(-9.61 64.92) rotate(-73.15)"/>
    <path class="d" d="M38.25,21.59c-9.83,0-17.84,8-17.84,17.84s8,17.84,17.84,17.84,17.84-8,17.84-17.84-8-17.84-17.84-17.84ZM38.25,51.46c-6.64,0-12.04-5.4-12.04-12.04s5.4-12.04,12.04-12.04,12.04,5.4,12.04,12.04-5.4,12.04-12.04,12.04Z"/>
    <path class="d" d="M56,17.95c-1.67,0-3.02,1.35-3.02,3.02s1.35,3.02,3.02,3.02,3.02-1.35,3.02-3.02-1.35-3.02-3.02-3.02Z"/>
  </g>
</svg>