<?xml version="1.0" encoding="UTF-8"?>
<svg id="b" data-name="圖層 2" xmlns="http://www.w3.org/2000/svg" width="26.03" height="26.03" viewBox="0 0 26.03 26.03">
  <defs>
    <style>
      .d {
        fill: #fff;
      }

      .e {
        fill: #092a31;
      }
    </style>
  </defs>
  <g id="c" data-name="fix 按鈕">
    <circle class="e" cx="13.02" cy="13.02" r="13.02" transform="translate(-3.21 21.7) rotate(-73.15)"/>
    <g>
      <path class="d" d="M12.79,7.22c-3.29,0-5.96,2.67-5.96,5.96s2.67,5.96,5.96,5.96,5.96-2.67,5.96-5.96-2.67-5.96-5.96-5.96ZM12.79,17.2c-2.22,0-4.02-1.81-4.02-4.02s1.8-4.02,4.02-4.02,4.02,1.8,4.02,4.02-1.8,4.02-4.02,4.02Z"/>
      <path class="d" d="M18.72,6c-.56,0-1.01.45-1.01,1.01s.45,1.01,1.01,1.01,1.01-.45,1.01-1.01-.45-1.01-1.01-1.01Z"/>
    </g>
  </g>
</svg>