<?xml version="1.0" encoding="UTF-8"?>
<svg id="_圖層_2" data-name="圖層 2" xmlns="http://www.w3.org/2000/svg" width="597.11" height="708.31" viewBox="0 0 597.11 708.31">
  <g id="icon">
    <g>
      <g>
        <g fill="none" opacity=".3">
          <path d="m205.71,373.17c1.2-1.79,1.87-3.72,3.23-4.63,3.3-2.22,4.3-5.84,4.75-9.02.36-2.51-1.35-5.67-2.93-8.01-2.3-3.42-1.42-6.91-1.21-10.4.13-2.12,1.04-4.2,1.17-6.32.24-3.94.38-7.92.18-11.86-.31-5.93,1.21-11.35,3.95-16.48,4.26-7.99,3.92-16,.63-24.21-.84-2.08-1-4.48-1.21-6.76-.22-2.4,1.31-2.31,2.97-1.71.21.08.41.23.56.41,5.39,6.42,12.76,6.14,20.14,6.14,1.93,0,4.27.37,5.72,1.48,3.19,2.44,6.19,2.54,9.58.84.8-.4,1.79-.73,2.65-.65,5.33.49,9.59-2.34,14.13-4.35,1-.44,2.45-1.02,3.21-.62,4.54,2.4,9.58,4.39,13.17,7.86,3.15,3.04,4.64,7.83,6.82,11.87.26.48.08,1.38.42,1.6,3.95,2.64,2.69,6.72,3.14,10.41.72,5.89,1.61,11.78,2.86,17.58.4,1.86,2.37,3.33,3.29,5.15,1.36,2.69,2.4,5.55,3.64,8.3.36.8.81,1.65,1.46,2.2,3.56,3.05,3.04,11.42-2.94,13.21-3.12.93-6.38,1.4-9.59,1.98-6.55,1.19-13.12,2.27-19.67,3.51-.81.15-1.64.89-2.21,1.57-3.21,3.82-7.56,4.46-12.18,4.84-5.11.42-10.2,1.14-15.24,2.03-1.09.19-2.01,1.66-2.89,2.64-2,2.25-3.55,5.22-6.01,6.64-1.75,1.01-4.73.21-7.08-.2-4.51-.78-8.96-1.87-13.44-2.8-3.24-.68-6.49-1.31-11.07-2.23Z" fill="#e62320"/>
        </g>
        <g>
          <g>
            <path d="m184.01,686.04s0,0,0,0h0Z" fill="#fff"/>
            <path d="m514.54,460.41l-3.81.27c-.21-2.98-.68-5.96-1.34-8.94-.33-1.49-.7-2.97-1.11-4.46l-.65-2.23-.17-.56-.08-.28-.07-.19c-.07-.24-.18-.48-.28-.72-.9-1.97-2.83-3.87-4.72-4.62-.23-.1-.46-.17-.69-.24-.27-.08-.69-.18-1.05-.26-.77-.18-1.6-.38-2.48-.63-.89-.26-1.83-.56-2.87-1.06-.52-.26-1.07-.56-1.63-.98-.56-.39-1.15-.98-1.64-1.61-.7-.93-1.61-1.78-2.76-2.72-1.15-.94-2.53-1.96-3.93-3.32-.33-.32-.72-.74-1-1.04-.28-.31-.62-.68-1-1.18-.47-.62-.88-1.34-1.14-2.09-.13-.37-.23-.79-.27-1.12l-.12-.73c-.27-1.84-.4-3.68-.31-5.53.09-1.85.32-3.7.79-5.54.48-1.83,1.15-3.65,2.1-5.38.98-1.72,2.21-3.34,3.71-4.74,1.53-1.35,3.26-2.5,5.13-3.27l.34-.16.27-.11.54-.22,1.06-.44c.36-.15.68-.29.99-.44.34-.15.59-.29.87-.43.49-.27.85-.54.88-.58,0-.02,0-.03.02-.03,0,0,0-.04.02-.04.02-.07.07-.15.1-.37.05-.15.07-.49.12-.75.02-.33.05-.64.07-1.01.03-.72.05-1.49.06-2.28l.02-1.2.04-1.32.09-1.33.14-1.34c.42-3.58,1.52-7.35,3.66-10.64,1.06-1.64,2.35-3.13,3.77-4.41l1.23-1.05-.47-.5c-.87-.92-1.95-1.8-3.14-2.74-1.19-.94-2.52-1.92-3.85-3.09-1.33-1.17-2.68-2.55-3.8-4.19l-.66-.96c-.17-.26-.35-.51-.55-.74-.19-.24-.38-.48-.6-.7-.21-.22-.41-.46-.64-.66-.88-.84-1.89-1.57-2.99-2.17-2.21-1.21-4.83-1.9-7.59-2.19-.34-.05-.69-.07-1.04-.09l-.52-.04-.61-.03c-.82-.05-1.65-.11-2.48-.19-1.67-.16-3.37-.39-5.1-.75-.86-.18-1.73-.4-2.59-.66-.88-.26-1.75-.58-2.57-.92-1.65-.68-3.17-1.46-4.59-2.22l-2.09-1.13-1.01-.54c-.46-.25-.89-.5-1.29-.75-1.56-1.01-2.75-1.96-3.61-2.36-.37-.2-.71-.25-.67-.25-.01,0,.03-.01-.02.04-.06.07-.14.19-.22.35-.09.15-.17.36-.25.57l-.12.35-.17.58c-.49,1.6-1.04,3.3-1.95,5.07-.46.88-1.02,1.79-1.76,2.67-.18.22-.38.44-.59.65l-.15.15-.11.11-.22.22-.89.86c-2.4,2.27-4.92,4.37-7.53,6.35-1.3.99-2.63,1.94-3.97,2.87l-.5.35-.63.41c-.43.26-.86.51-1.29.73-.86.44-1.7.8-2.52,1.12-1.63.64-3.17,1.11-4.54,1.61l-4.38,1.66c-2.97,1.11-5.9,2.18-8.75,3.31-1.42.57-2.85,1.16-4.18,1.76-1.35.62-2.7,1.29-4.07,2l-8.39,4.38-4.2,2.19-.52.27-.26.14-.34.16c-.45.21-.89.4-1.3.56l-2.2.85-3.42,1.32-.37-.82c-.81.11-1.61.19-2.36.23-.9.05-1.78.07-2.62.08h-1.25s-.31,0-.31,0h-.23c-.2,0-.47-.01-.74-.07-.2-.03-.42-.1-.63-.17l-.83,1.59-3.39-1.81c-3.21-1.71-6.58-3.36-9.95-5.22-.84-.46-1.68-.95-2.52-1.44l-1.18-.7c-.37-.21-.73-.43-1.1-.62-1.46-.79-2.88-1.38-4.26-1.73-1.38-.32-2.72-.42-4.08-.21l-.65.1c-.33.05-.66.09-.99.11-.67.05-1.36.05-2.08-.02-.18-.02-.37-.04-.55-.07l-.36-.06-.72-.12-1.43-.26c-1.88-.36-3.68-.73-5.42-1.03-.87-.15-1.73-.28-2.57-.38-.42-.05-.83-.09-1.25-.13l-.61-.04-.82-.07c-2.29-.2-4.49-.82-6.46-1.62-1.99-.79-3.76-1.75-5.42-2.66-1.66-.91-3.2-1.77-4.7-2.46-1.79-.82-3.42-1.65-4.93-2.27-.76-.31-1.48-.56-2.16-.74-.34-.08-.66-.15-.97-.2-.15-.01-.31-.05-.45-.05-.15,0-.26-.03-.51-.03-1.74-.06-3.48-.04-5.24.06-3.51.19-7.05.66-10.57,1.33-1.74.33-3.4.71-4.96,1.22-1.56.5-3.02,1.12-4.21,1.87-.64.4-.97.68-1.93,1.45-.84.64-1.7,1.27-2.62,1.83-1.82,1.14-3.81,2.07-5.87,2.75-2.06.68-4.18,1.09-6.26,1.31l-.72.06h0s.01.14.01.14c0,.07.02.15.03.22.02.15.04.3.08.45.13.61.34,1.24.59,1.76.12.26.26.47.36.63.05.04.1.14.12.14h0s.01,0,0,.03l-.14.17c.3-.34.11-.07.18-.14l.04.04.08.07.16.14c.83.77,1.7,1.66,2.48,2.91.39.61.73,1.35.99,2.13.24.79.39,1.64.39,2.45.03,1.64-.37,2.99-.79,4.13-.22.57-.46,1.1-.69,1.6-.23.47-.46.93-.7,1.37l-1.36,2.49c-.43.78-.82,1.53-1.14,2.24-.38.77-.42,1.14-1.06,2.62l-.23.47c-.1.19-.22.38-.33.57-.22.38-.5.75-.79,1.11-.6.7-1.29,1.32-2.09,1.76-1.57.92-3.51,1.1-5.27.59-.89-.23-1.74-.66-2.46-1.11-.63-.42-1.15-.82-1.57-1.19-.85-.74-1.45-1.34-1.9-1.67l-.25-.18-.04.08c-.05.1-.1.22-.14.35-.2.53-.38,1.31-.61,2.28-.12.49-.25,1.02-.44,1.6-.25.81-.64,1.73-1.1,2.49-.47.78-1.03,1.48-1.74,1.99-.36.25-.74.47-1.16.57l-.61.19c-.21.05-.45.05-.67.08l-3.73.12c-.99.02-2.02.01-3.1-.06-1.08-.07-2.2-.21-3.36-.48-.63-.15-1.01-.26-1.49-.39l-1.31-.36c-1.69-.46-3.13-.71-4.05-.59-.47.05-.81.16-1.17.38-.09.04-.18.11-.28.18-.09.08-.19.11-.29.22-.09.09-.19.18-.29.27-.03.02-.14.15-.23.25l-.28.32c-.29.28-.56.6-.87.84-.32.24-.68.44-1.05.59-.37.16-.76.27-1.16.37-.58.14-.31.07-.43.12-.21.07-.41.18-.59.38-.37.37-.63,1.05-.59,1.6.02.28.08.51.19.71.03.05.07.09.1.14.01.02,0,0,.04.06l.1.15.21.29c.28.38.55.78.81,1.2,1.05,1.64,2.04,3.7,2.34,6.13.16,1.21.08,2.46-.13,3.61-.21,1.18-.6,2.21-1.02,3.19-.44.95-.92,1.84-1.44,2.64l-.35.56c-.08.13-.17.26-.23.38-.15.25-.23.45-.25.47h0s.02.02.03.04c0,.01.01.03.06.07.08.08.13.15.23.24l.43.41c.28.26.51.52.74.79.43.53.79,1.07,1.07,1.58.57,1.02.93,1.96,1.25,2.81.31.84.57,1.63.81,2.27l.23.61c.09.24.18.49.26.74.16.5.3,1,.42,1.52.12.52.21,1.04.28,1.59.03.27.06.55.08.82l.04.66c.04.66.11,1.33.23,2.05.44,2.84,1.53,6.13,1.8,10.06.13,1.95,0,4.04-.51,6.03-.13.5-.28.98-.43,1.47-.15.49-.38,1-.57,1.5-.47.99-.99,1.97-1.66,2.84-1.29,1.79-2.92,3.11-4.31,4.17l-1.95,1.46c-.29.22-.57.45-.83.66-.14.11-.26.22-.37.32l-.31.28-.43.44-.78.6-.39.3c-.14.08-.28.14-.44.21-.61.25-1.27.37-1.93.4-.66.03-1.34-.03-2.01-.16-.33-.06-.67-.15-.99-.25l-.55-.16-3.98-1.2c-2.63-.81-5.22-1.62-7.79-2.35-2.56-.73-5.12-1.36-7.77-1.96l-3.21-.72-.15.21c-.26.36-.55.76-.89,1.19-.34.44-.74.91-1.25,1.4-.25.24-.53.49-.85.73-.28.22-.76.52-.91.6-1.78,1.05-3.56,1.86-5.19,2.59-1.64.73-3.16,1.42-4.46,2.18-.67.37-1.25.78-1.82,1.2-.26.22-.55.42-.78.66l-.37.34-.57.61c-.39.44-.84.81-1.35,1.08-.26.14-.52.25-.8.35-.14.05-.28.09-.42.13l-.27.08c.08.23.04.12-.01,0h-.01s0,0,0,0h-.02c.1.32.08.24,0,.01h0s-.11.06-.11.06l-.23.11-.24.1-.23.15c-.63.34-1.21.91-1.77,1.51-.55.62-1.02,1.37-1.44,2.14-.37.8-.73,1.62-.92,2.48-.14.42-.16.85-.25,1.28,0,.42-.1.85-.06,1.25-.02.83.15,1.57.37,2.24.07.16.13.32.18.48l.4.91c.27.64.53,1.28.74,1.95.44,1.33.78,2.72.96,4.15.37,2.86.08,5.85-.76,8.57-.21.68-.45,1.35-.72,1.99-.12.33-.28.64-.42.96l-.39.84c-.47.99-.89,1.95-1.2,2.84-.31.9-.5,1.74-.56,2.49-.07.76.02,1.4.22,2.04.05.16.1.32.18.47l.11.25.19.39.76,1.57,1.55,3.12c2.08,4.14,4.26,8.19,6.65,12.06l.92,1.48c.34.56.69,1.12,1,1.7.65,1.14,1.2,2.34,1.72,3.54,1,2.41,1.77,4.9,2.3,7.39.55,2.49.89,4.98,1.12,7.43l.16,1.83c.05.63.08,1.27.11,1.89.05,1.25.06,2.46.08,3.64.02,2.36.04,4.59.28,6.64.06.51.13,1.01.22,1.5.04.25.1.48.15.72l.19.9c.28,1.28.47,2.57.62,3.84.59,5.11.3,9.96.38,14.47l.04,1.7c0,.64.03,1.29.02,1.93-.02,1.3-.09,2.6-.24,3.9-.3,2.61-.88,5.23-1.8,7.74-.91,2.52-2.19,4.91-3.7,7.1-.38.55-.77,1.09-1.18,1.6-.4.53-.83,1.03-1.26,1.52-.42.51-.88.97-1.33,1.44l-.52.55c-.05.05-.08.09-.11.13l-.05.06s0,.01,0,.02c-.01,0-.01,0-.01,0h.01s.03.06.06.1c.04.04.08.09.11.14l1.11,1.15c.82.87,1.52,1.61,2.15,2.11l.74.61c.27.22.53.46.79.69.52.47,1.01.97,1.48,1.48,1.9,2.05,3.38,4.41,4.52,6.8.57,1.2,1.06,2.41,1.49,3.62.22.6.42,1.21.61,1.81l.53,1.63c1.44,4.34,3.16,8.84,4.47,13.55.65,2.31,1.36,4.83,1.53,7.75.03.73.03,1.49-.03,2.26-.06.67-.13,1.32-.21,1.96-.17,1.29-.4,2.53-.66,3.74-.51,2.42-1.09,4.7-1.55,6.88-.11.55-.22,1.09-.32,1.62-.03.17-.05.32-.06.51l-.02.29s0,.03,0,.04l6.39.1c3.29.02,6.55-.03,9.61-.41,1.59-.19,3.27-.46,5.09-.64,1.81-.18,3.77-.29,5.84-.06,2.06.22,4.22.81,6.15,1.81.47.26.97.5,1.4.8l1.23.84c.22.16.64.37,1.18.53,1.07.34,2.57.52,4.07.62,1.45.09,2.51-.02,3.35-.36.43-.17.83-.4,1.24-.72.21-.16,1.3-1.16,2.14-1.71,1.76-1.21,3.47-1.99,4.98-2.71.76-.36,1.47-.7,2.12-1.05.32-.17.64-.34.93-.52.15-.09.29-.18.42-.26l.21-.13.44-.27c1.2-.7,2.15-1.03,3.12-1.34.96-.32,1.89-.54,2.83-.74,1.87-.39,3.73-.63,5.72-.68.5-.01,1-.01,1.53.02.51.01,1.07.08,1.62.15,1.14.19,2.44.43,3.97,1.41,2.58,1.78,5.49,2.87,8.77,3.59,3.26.72,6.79,1.05,10.5,1.48.97.11,1.74.21,2.62.28.85.08,1.71.13,2.58.17,1.73.08,3.49.1,5.27.08,3.56-.03,7.22-.21,10.92-.29,0,0,0,0,0,0,.02,0,.03,0,.06-.01l.14-.04.2-.06c.31-.1.73-.27,1.27-.48.3-.11.49-.19.99-.35.49-.15.99-.27,1.49-.34.5-.06,1.02-.09,1.52-.02.25.02.5.09.74.15.25.04.49.14.73.22l.53.21.28.1c.18.07.38.13.57.19.38.12.78.23,1.19.34.82.21,1.69.39,2.6.57,1.81.33,3.94.76,5.81,1.21,3.84.89,7.68,1.92,11.49,3.18,1.9.63,3.8,1.32,5.67,2.08l.7.29.44.16c.33.11.7.22,1.14.33.86.23,1.89.46,3.05.86,1.15.39,2.51.99,3.75,2.03.31.26.61.53.88.84.28.3.54.61.77.95.24.33.45.67.63,1.02l.27.52.18.4c.45,1.03.81,2.04,1.14,3.01l.53,1.61c.29.89.62,1.83.94,2.73l-.33.6c.7-.46,1.43-.93,2.15-1.37,1.82-1.12,3.66-2.15,5.46-3.14l4.07-2.22c-.04-.07-.19-.38-.29-.55l-.45-.82c-.62-1.12-1.34-2.33-2.02-3.69-.68-1.36-1.36-2.89-1.75-4.64-.19-.87-.34-1.78-.37-2.7-.03-.46-.02-.92,0-1.38.01-.23.02-.46.05-.69l.04-.34.02-.15s0,0,0,0c0,0,0,0,0,0l-.03-.07-.06-.14-.15-.38c-.08-.2-.16-.43-.23-.65-.14-.44-.24-.9-.29-1.36-.05-.47-.02-.93.03-1.36l.11-.9.1-.74c.29-1.98.69-3.99,1.27-5.99l.44-1.43.46-1.41c.33-.96.69-1.95,1.16-2.96.47-1.01,1.02-2.06,1.75-3.08.7-.96,1.35-1.72,2.05-2.5,1.38-1.52,2.78-2.85,4.04-4.12.63-.64,1.23-1.26,1.77-1.88l.2-.23.1-.12s.02-.03.04-.05c.03-.04.08-.1.12-.18.1-.16.21-.39.32-.67.22-.55.44-1.34.63-2.15.18-.77.33-1.62.49-2.52.16-.9.31-1.87.53-2.89.1-.51.23-1.03.37-1.57.08-.27.14-.54.23-.81l.14-.46.23-.66c.31-.76.75-1.48,1.34-2.06.29-.3.6-.57.94-.81l.51-.36.41-.25c.98-.58,1.78-.93,2.33-1.24.36-.2.77-.38,1.13-.51.36-.13.7-.22,1.01-.29.62-.15,1.13-.22,1.55-.28.76-.11,1.44-.24,2.22-.42,1.56-.34,3.23-.78,5.15-1.09.96-.15,1.98-.26,3.07-.28.55,0,1.11.02,1.7.08.29.02.59.08.88.13l.64.11c1.45.28,2.91.41,4.37.43,2.92.06,5.83-.45,8.71-1.35,1.44-.44,2.87-1.03,4.28-1.66l.53-.24.27-.12.5-.25,2-1.01,2.22-1.11.56-.28c.09-.04.19-.11.28-.13l.2.24.81.95,3.05,3.62c.52.61,1.03,1.19,1.53,1.73.52.53.97.85,1.51,1.04.07.02.13.04.2.06.12.03.24.06.36.09.06.01.12.02.18.03.85.13,2.02,0,3.27-.34.63-.17,1.31-.42,2.06-.7l2.33-.89c1.37-.52,2.6-1.14,3.3-1.74.34-.3.53-.55.66-.79.12-.24.21-.5.24-.93.02-.43-.01-.96-.12-1.57-.15-.84-.32-1.87-.38-2.94-.06-1.08-.03-2.28.23-3.52.12-.62.32-1.23.54-1.82.12-.28.25-.61.37-.84l.22-.43-.1-.33c-.13-.47-.27-.9-.34-1.48-.2-1.08-.14-2.26.03-3.38.23-1.09.58-2.15,1.04-3.02.9-1.8,1.99-3.05,2.92-4.19.93-1.11,1.78-2.09,2.13-2.77.2-.35.29-.63.33-.82.03-.2.04-.34-.02-.6-.05-.26-.19-.62-.4-1.04-.12-.21-.23-.43-.38-.67l-.29-.48c-.12-.2-.24-.4-.35-.61-.87-1.62-1.4-3.19-1.84-4.62-.44-1.43-.8-2.74-1.21-3.89l-1.12-3.16,2.52-1.28c-.05-.31-.1-.65-.13-1.04-.05-.57-.05-1.46.11-2.2.17-.81.38-1.26.57-1.83.24-.49.46-1.03.73-1.48.53-.92,1.13-1.76,1.77-2.5,1.28-1.49,2.71-2.72,4.23-3.77,1.53-1.05,3.17-1.93,4.97-2.61.9-.34,1.86-.61,2.87-.81.5-.1,1.07-.15,1.57-.22l1.12-.09c1.49-.14,3-.31,4.52-.5l6.85-.94.19-.53c.36-.99.77-2.01,1.4-3.14.14-.27.34-.57.54-.87.18-.29.45-.62.71-.93.12-.15.29-.32.46-.48.18-.16.34-.32.53-.48.32-.23.62-.45.98-.64l-.51-2.24,4.38-.36c2.59-.22,5.26-.53,8.1-.68,1.43-.07,2.82-.1,4.19-.1h2.04s1,.01,1,.01l.89-3.09,2.23-7.71c.75-2.57,1.5-5.1,2.17-7.61.33-1.25.65-2.52.92-3.73.27-1.21.5-2.46.71-3.74.44-2.58.79-5.2,1.36-8.05.31-1.49.7-2.82,1.02-4.05.16-.61.3-1.2.42-1.76.06-.28.11-.55.15-.82l.16-1c.45-2.7.89-5.13.8-7.17-.01-.25-.03-.5-.06-.74-.03-.25-.08-.57-.11-.85-.09-.59-.2-1.19-.32-1.81-.24-1.24-.54-2.56-.8-3.98-.26-1.41-.47-2.93-.53-4.52-.06-1.58.06-3.25.36-4.85.57-2.94,1.5-5.76,2.64-8.41.57-1.33,1.19-2.61,1.84-3.86l1.87-3.52c1.11-2.18,1.98-4.35,2.39-6.49.21-1.07.3-2.12.28-3.17-.01-.52-.06-1.05-.12-1.57l-.13-.78c-.04-.17-.08-.34-.14-.54-.25-.81-.78-1.85-1.42-3.16-.6-1.31-1.39-2.93-1.58-5.17l1.16-.08h0l2.65-.19s0,0,0,0,0,0,0,0Z" fill="#fff"/>
          </g>
          <g>
            <path d="m312.6,356.21h0s0,0,0,0Z" fill="#fff"/>
            <path d="m582.15,26.21l1.75-1.67.93-.87c.35-.31.75-.66,1.14-.97,1.59-1.26,3.39-2.25,5.22-2.96,1.84-.7,3.68-1.12,5.46-1.41l.47-.07-.28-.91c-.12-.39-.23-.79-.34-1.21-.21-.82-.41-1.68-.55-2.59l-.17-1.09c-.05-.32-.11-.62-.17-.9-.06-.27-.13-.53-.2-.72-.03-.12-.06-.19-.09-.26l-.04-.11s0-.01,0-.02c0-.03-.02.01,0-.01h0s0,0,0,0l-.11-.02c-.12-.04-.36-.05-.58-.08-.51-.02-1.11-.02-1.79.02-.65.04-1.28.1-1.98.2-1.39.18-2.94.46-4.68.61-.87.07-1.78.1-2.71.07-.47-.02-.93-.05-1.4-.1-.23-.02-.47-.06-.7-.09l-.63-.09c-1.43-.23-2.87-.44-4.33-.61-5.81-.7-11.77-.99-17.83-1.34l-4.56-.29-1.12-.08c-.29-.02-.6-.03-.92-.03-.66,0-1.39.01-2.19.02-.78,0-1.76,0-2.74-.12-.98-.11-2.04-.34-3.1-.74-1.06-.4-2.13-1-3.05-1.77-.92-.77-1.68-1.69-2.26-2.62-.29-.47-.54-.94-.76-1.41-.12-.24-.2-.47-.3-.7l-.14-.35-.05-.11c-.1-.27-.23-.42-.35-.53-.24-.23-.57-.35-1.04-.28-.23.04-.49.1-.74.26-.07.02-.12.08-.19.12-.06.04-.13.08-.19.14-.06.06-.12.1-.19.17l-.4.41-3.22,3.24-3.22,3.24-.79.8c-.22.22-.45.45-.69.7l-1.55,1.65c-1.14,1.16-2.44,2.55-4.65,3.63-.52.26-1.26.5-1.57.59-.41.13-.81.24-1.22.35-.81.22-1.62.41-2.43.57-3.23.66-6.39.96-9.45,1.2l-1.14.09-1.2.08c-.81.05-1.6.07-2.4.09-1.58.03-3.14.02-4.66,0l-4.49-.05h-1.1s-.43,0-.43,0l-.41.03c-.58.05-1.17.13-1.91.28l-2.19.41-.45.09-.02.05c-.21.46-.42.91-.84,1.55-.42.63-.92,1.2-1.51,1.67-.46.33-.78.55-1.15.8-.38.23-.78.43-1.17.63-.8.37-1.64.66-2.47.85-1.66.38-3.2.41-4.56.36-1.36-.05-2.57-.17-3.64-.22-.27-.01-.53-.03-.77-.02-.25,0-.5,0-.71,0-.22.01-.46.01-.65.04-.25.04-.24,0-.97.15-.42.04-.85.08-1.27.11-.43-.04-.81-.11-1.2-.28l.05-.07h-.04s-.08-.03-.08-.03l-.16-.04-.32-.07-.63-.14-2.54-.56-5.08-1.13-4.33-.96s0,0-.01,0l-.31.06.76,2.74-4.78.32c-1.36.09-2.29.41-3.28,1.22-.99.81-2.01,2.22-3.13,3.88l-.89,1.3c-.33.47-.68.94-1.05,1.4-.74.92-1.55,1.83-2.54,2.7-1,.86-2.15,1.74-3.88,2.34-.2.08-.45.13-.68.19l-.35.08-.2.04-.79.14-1.57.26c-4.19.65-8.32.97-12.35,1.29l-4.8.39-1.09,1.1c-.88.83-1.74,1.53-2.54,2.18-1.59,1.27-3.02,2.43-3.7,3.42-.19.24-.3.46-.4.66l-.38.78c-.15.3-.29.6-.47.88-.66,1.17-1.51,2.21-2.4,3.15-1.81,1.85-3.81,3.12-5.55,4.21-.88.55-1.68,1.05-2.42,1.55-.37.25-.71.5-1.04.75-.17.12-.31.25-.46.38l-.55.46c-3.58,3.06-7.37,4.93-10.5,7-1.57,1.03-2.98,2.09-4.18,3.26-.31.3-.55.58-.87.91-.45.5-.92.97-1.46,1.43-.53.45-1.12.89-1.83,1.3-.35.2-.75.39-1.18.56-.44.18-.95.31-1.44.41-3.54.61-7.06,1.11-10.64,1.45-.89.09-1.79.16-2.69.23l-1.35.09c-.37.02-.72.05-1.03.09-.61.08-1,.2-1.25.33-.27.15-.44.27-.83.73-.53.65-1.18,1.19-1.9,1.61-.39.22-.68.36-.96.49-.13.06-.24.1-.37.15-.18.87-.59,1.67-1.05,2.27-.49.64-1.01,1.07-1.53,1.44-1.03.68-1.99,1.01-2.87,1.23-.84.2-1.92.34-3.11.26-1.16-.1-2.28-.45-3.25-1.07-.97-.62-1.75-1.5-2.32-2.5-.08-.15-.16-.31-.23-.47l-.31.52c-.49.81-.99,1.61-1.5,2.4-1.02,1.58-2.06,3.14-3.13,4.66l-1.61,2.27-.81,1.13-.41.56-.23.31c-.14.18-.28.36-.43.53-.3.34-.66.66-.96.9-.3.24-.59.44-.85.61-.52.34-.96.58-1.27.78-.33.2-.51.33-.63.43-.29.24-.59.51-.89.8l-1.96,1.87c-.35.33-.72.68-1.12,1.02l-.61.51-.57.46c-1.51,1.21-3.01,2.3-4.41,3.38-.7.54-1.38,1.07-2.02,1.6-.32.27-.64.54-.94.81l-.95.86c-3.28,3.07-7.61,4.97-12.05,5.38-2.22.21-4.46.08-6.64-.41-.54-.14-1.08-.27-1.61-.44-.53-.19-1.06-.34-1.58-.56l-.77-.33-.65-.29c-.37-.17-.74-.34-1.12-.49-2.98-1.25-5.94-1.84-8.74-1.5-1.4.18-2.78.58-4.12,1.19l-.61.27c-.3.14-.6.26-.89.37-.58.22-1.14.38-1.66.52l-1.09.27h0s-.33.64-.33.64c-.05.1-.17.32-.27.49-.11.17-.21.35-.33.52-.23.33-.48.65-.76.95-.55.6-1.24,1.04-1.97,1.38-.34.13-.67.26-1.04.38-.23.08-.45.14-.67.2-.44.13-.87.23-1.28.32-.83.18-1.6.31-2.31.43-.71.12-1.36.23-1.95.37-.6.14-1.04.26-1.64.48-2.3.8-4.93,2.29-8.16,3.34-2.84.91-5.84,1.81-9.11,2.25-2.45.47-5.98-.02-6.96-.18l-1.33,2.39c-.85,1.52-1.68,2.97-2.34,4.38-.66,1.41-1.19,2.78-1.49,4.11-.06.33-.15.67-.18,1l-.18,1.31c-.07.58-.19,1.12-.32,1.64-.12.55-.29,1.02-.44,1.53-.64,1.96-1.42,3.61-2.02,5.11-.61,1.5-1.04,2.84-1.18,4.03-.07.31-.03.58-.06.88-.01.2,0,.16,0,.17v.02s0,0,0,0h1.94s20.96.02,20.96.02c3.48,0,6.96,0,10.43-.04l5.2-.08,8.15-.2,2.6,8.91.22.04c1.29.27,2.66,1.05,3.57,2,.93.96,1.45,1.96,1.83,2.85.19.45.34.91.46,1.29l.28.94c.76,2.48,1.52,4.87,2.44,7.09.47,1.12.94,2.14,1.53,3.21.66,1.24,1.22,2.36,1.78,3.29.56.94,1.13,1.65,1.71,2.18.6.5,1.19.84,1.99,1.09,2.66.8,5.21,1.74,7.7,2.68l7.44,2.86c1.58.65,3.13,1.57,4.47,2.83,1.34,1.25,2.45,2.85,3.14,4.6.7,1.75.97,3.62.9,5.4,0,.45-.04.89-.11,1.32l-.06.41c-.03.16-.04.32-.08.48-.07.32-.16.63-.24.94-.31,1.25-.73,2.49-1.11,3.7l-2.56.54c-.21.05-.43.09-.64.15-.1.03-.21.05-.31.09l-.21.07c-.14.04-.28.09-.4.15l-.45.2h0l4.14,1.08c.79.21,1.66.41,2.45.66l1.21.35c.21.35.35.76.53,1.14.35.76.67,1.55.97,2.35l.24.61.18.43c.11.25.21.41.27.49l.04.05.18.21.36.43c.47.53.95,1.04,1.34,1.34.4.32.66.44.81.48.05,0,.08.02.13.03.06,0,.11,0,.17.01.08-.01.17-.02.25-.02.08,0,.22-.04.32-.05.47-.09,1.08-.27,1.75-.55.33-.12.67-.27,1.03-.43l.26-.12.34-.16.89-.42c.41-.14.81-.34,1.22-.43.42-.1.84-.15,1.27-.18.85-.04,1.7.04,2.5.29.4.12.79.29,1.15.5.34.24.66.54.98.82.17.16.44.43.58.62l.25.32c.26.35.55.67.79,1.05l.34.59.34.67c.11.25.21.49.31.74.24.68.44,1.39.52,2.16.19,1.52-.05,3.17-.68,4.57-.61,1.4-1.53,2.54-2.51,3.42l-.45.37-.62-.21-.32-.11.86.29,14.82,5.03-3.99,1.84-3.16,1.46c-.66.23-1.39.36-2.08.54l-1.05.26c-.16.04-.39.08-.49.13l-.09.18c-.25.47-.49,1.02-.75,1.42-.17.29-.35.57-.51.83l-.94,1.42c-.57.85-.95,1.54-1.13,2.06-.06.14-.06.24-.11.36,0,.11-.04.21-.04.31.02.1-.03.19,0,.3.02.13-.02.1.09.55l.16,1.05c.01.35-.02.71-.08,1.05-.06.35-.16.69-.29,1.02l-.22.56s0,0,0,0l-.84,3.59-1.9,8.14-5.23-4-2.56-1.83c-.43-.3-.85-.62-1.27-.94-.2-.15-.45-.35-.59-.46l-.36-.29c-.95-.81-1.91-1.73-2.78-2.87-.87-1.14-1.5-2.3-2.03-3.39-.52-1.09-.95-2.14-1.34-3.1-.39-.95-.78-1.88-1.16-2.57-.72-1.42-1.67-2.4-2.71-3-.14-.06-.28-.13-.41-.2-.14-.07-.29-.1-.43-.16-.06-.03-.15-.06-.22-.07l1.9,3.76.36.72c.17.36.32.7.44,1,.24.62.42,1.14.58,1.57.08.22.15.4.22.56.06.13.14.3.13.28,0,0,0,0,0,0,.03.02.14.09.19.13l.29.21c.19.14.38.28.57.44.38.3.76.64,1.12.99.73.71,1.4,1.55,1.95,2.45.55.9.98,1.85,1.29,2.78.07.23.16.46.22.69l.17.64.27,1.05c.33,1.31.73,2.26,1.05,2.65.16.21.28.3.5.42.04.04.11.06.18.08.07.03.12.06.21.08.08.02.17.05.25.08l.15.03.31.06c.84.15,1.65.43,2.35.91.36.23.7.49,1.01.77.16.14.32.29.46.44.12.12.24.25.35.37.44.5.81,1.01,1.15,1.55.17.28.33.56.48.86.08.15.15.32.22.47.08.17.11.27.16.4l.03.07.26-.07c.53-.14,1.07-.24,1.62-.33,1.1-.17,2.23-.21,3.33-.16.55.03,1.09.09,1.62.17.55.08.95.15,1.79.35l1.21.33c.39.15.79.27,1.16.44.75.33,1.38.79,1.93,1.33.54.55.96,1.24,1.22,1.97.25.73.34,1.49.29,2.3-.05.81-.26,1.64-.46,2.47l-.32,1.38c-.2.86-.42,1.76-.72,2.71-.25.89-.78,2.14-.91,2.53-.44,1.22-.74,2.96-1.53,5.04-.4,1.03-.97,2.17-1.81,3.22-.85,1.06-1.9,1.94-3.1,2.61-.61.33-1.33.59-1.91.72-.62.14-1.22.24-2.02.23-.4,0-.86-.04-1.47-.21-.29-.08-.67-.22-1.06-.43-.11-.06-.22-.13-.32-.2l-.26-.18-.11-.08-.87-.67c-1.15-.89-2.27-1.79-3.37-2.68-1.32-1.07-2.61-2.12-3.9-3.15.1,1.57.23,2.99.51,4.41.38,1.98.98,3.84,1.85,5.56.44.86.94,1.68,1.5,2.47l.49.67c.23.32.44.63.64.95.39.63.74,1.27,1.03,1.89l.23.49c.13.27.24.54.35.81.22.53.44,1.07.63,1.6.41,1.07.78,2.13,1.24,3.23l2.82,6.68c-2.97-.38-6.06-.82-9.01-1.17l-2.22-.26-1.11-.13-.92-.12c-.79-.11-1.6-.24-2.43-.4-.41-.08-.83-.17-1.25-.27-.4-.1-.79-.2-1.22-.32-.85-.24-1.79-.55-2.77-1.04-.17-.08-.34-.18-.51-.28,0,1.76,0,3.5.06,5.23l.06,1.63c.03.46.07.91.14,1.36.14.9.36,1.77.66,2.54.24.65.83,1.71,1.33,2.65.53.96,1.09,1.92,1.66,2.88l3.62,5.87c1.13,1.84,2.46,3.74,3.76,5.84.61,1.03,1.37,2.16,1.96,3.92.14.44.26.93.34,1.48l.05.42.02.23.04.46c.04.63.08,1.29.09,1.99,0,1.4-.11,2.98-.64,4.62-.26.81-.62,1.62-1.07,2.37-.19.33-.41.64-.63.94-.13.18-.36.46-.5.63l-.17.19s0,0,0,0h0s.02.11.1.38c0,0,0,0,0,0,0,0,.08.06.15.11.32.21.9.49,1.64.82,1.68.77,3.09,1.63,4.46,2.44,1.36.81,2.63,1.58,3.86,2.21,1.22.62,2.39,1.11,3.46,1.34.23.06.63.13.99.19.36.07.73.13,1.09.18.73.12,1.47.22,2.21.32,2.97.38,6.02.62,9.13.84,3.11.23,6.28.43,9.49.78l.6.06.69.09c.46.07.92.14,1.38.24.91.18,1.81.42,2.7.71.89.29,1.77.63,2.63,1.04.43.2.87.43,1.28.66l1.06.61c2.82,1.65,5.5,3.41,8.11,5.13l3.07,2.02s0,0,0,0h0s.01,0,.06,0c.14-.02.45-.05.72-.07.56-.04,1.26-.07,2.08.06.41.07.84.17,1.27.33.02,0,.03.01.05.02,1.06-.02,2.08-.07,3.05-.18.61-.07,1.21-.16,1.78-.28l.23-.05s0,0,.02-.02c.34-.29.77-.71,1.27-1.24.51-.52,1.11-1.15,1.94-1.81.82-.65,1.94-1.34,3.29-1.7.33-.09.67-.17,1.02-.2l.52-.05h.13s.06-.02.06-.02h.01s.05,0,.05,0h.17s.59-.52.59-.52c.41-.35.92-.75,1.6-1.14.15-.09.39-.21.49-.26l.28-.14.57-.28c1.52-.74,3.05-1.46,4.6-2.16,1.55-.7,3.11-1.38,4.69-2.04l4.64-1.86,18.47-7.38c.7-.3,1.36-.6,1.96-.93.3-.16.6-.33.87-.5.27-.16.65-.41.96-.61,1.31-.86,2.58-1.75,3.77-2.7,1.2-.95,2.31-1.93,3.36-3.01,1.24-1.25,2.22-2.22,2.81-3.14.3-.46.52-.9.68-1.38l.11-.37.11-.43c.15-.55.27-1.12.48-1.64.78-2.14,2.01-4.09,3.67-5.63,1.65-1.54,3.67-2.77,5.97-3.34l.86-.2c.29-.06.6-.08.89-.12s.59-.07.89-.07h.57c.22,0,.46,0,.67,0,.82.08,1.6.26,2.41.39l2.36.55.58,1.76.29.89.17.43c.05.13.16.33.16.33.17.36.39.7.61,1.03.47.65,1.05,1.24,1.72,1.77.68.51,1.45.97,2.29,1.32.83.35,1.75.62,2.75.83,2.02.43,4.33.61,6.83.9,1.24.14,2.62.36,3.78.57,1.21.21,2.44.43,3.7.69,2.5.52,5.09,1.21,7.65,2.32,2.56,1.08,5.05,2.68,7.15,4.67.51.51,1.02,1.03,1.49,1.57l.68.83.57.71c.61.78,1.33,1.54,2.11,2.3,1.17,1.13,2.48,2.25,3.86,3.43.17-.54.32-1.07.45-1.57.08-.3.14-.6.2-.89.02-.09.02-.11.02-.14l.02-.1.02-.3v-.42s0-.52,0-.52v-.61c0-.24,0-.42.02-.76l.03-.46c.01-.16.04-.36.07-.54.05-.37.13-.73.23-1.09.19-.71.51-1.38.9-2,.65-.97,1.58-1.72,2.62-2.26.03-.05.05-.11.08-.16l2.66-4.65c.88-1.46,1.79-2.84,2.69-4.24l5.4-8.32c1.77-2.76,3.5-5.53,5.12-8.32l1.2-2.09c.23-.41.43-.92.6-1.5.33-1.16.51-2.58.61-4.11l.13-2.4c.04-.74.04-1.42.02-2.21-.04-1.55-.15-3.34-.03-5.3.06-.92.2-1.97.44-2.97,0-.02,0-.05.01-.07,0,0,0,0,0-.01,0-.03.01-.07.02-.1.05-.18.1-.36.16-.54.01-.04.02-.08.04-.13.04-.13.08-.26.12-.38.05-.15.1-.31.16-.46.03-.08.06-.16.09-.25.06-.16.12-.32.19-.48.07-.17.15-.34.23-.5.01-.03.02-.06.04-.08,0,.01-.01.03-.02.04.06-.12.11-.24.17-.35,1.02-2,2.48-3.66,3.96-4.96.74-.66,1.49-1.24,2.23-1.78.37-.28.73-.52,1.09-.78l.53-.36c.07-.05.21-.14.23-.16.02-.02.04-.04.06-.06.08-.03.23-.22.37-.35.14-.2.31-.37.46-.61.15-.24.31-.47.45-.75.15-.26.28-.54.4-.83.51-1.14.86-2.44.93-3.54.07-.57-.01-1.01-.05-1.35-.06-.09-.06-.26-.09-.23.03-.02-.02.02.02,0-.7-.66-1.42-1.5-1.99-2.43-.59-.94-1.02-2-1.28-3.01-.53-2.05-.5-3.79-.57-5.13-.03-.69-.07-1.24-.15-1.86-.08-.61-.18-1.26-.31-1.93-.25-1.36-.56-2.8-.8-4.45-.06-.44-.08-.92-.07-1.33.01-.41.06-.78.1-1.11.05-.33.11-.63.17-.9l.09-.38.12-.48c.36-1.26.71-2.05.75-2.36.02-.08.02-.12.02-.11v-.55s0-1.33,0-1.33v-2.67s.01-5.34.01-5.34v-1.33c0-.44,0-.93,0-1.22,0-.15-.02-.28-.03-.38,0-.02,0-.02,0-.03h0s0,0,0,0h0s-.08-.11-.08-.11c-1.03-1.47-2.05-2.92-3.09-4.31-.52-.7-1.04-1.38-1.57-2.05l-.8-.99-.41-.49c-.14-.17-.24-.28-.47-.56-1.61-1.99-2.5-4.09-3.11-6.21-.6-2.12-.87-4.28-.81-6.5.06-2.21.48-4.54,1.64-6.87.84-1.61,1.61-3.11,2.33-4.69,1.45-3.12,2.67-6.3,3.56-9.53.44-1.61.8-3.24,1.05-4.87l.35-2.61c.13-.95.29-1.91.47-2.88.75-3.84,2.08-7.9,4.51-11.43.61-.87,1.26-1.72,1.97-2.51.36-.39.71-.79,1.09-1.15l.94-.93c.9-.9,1.57-1.95,2.02-3.18.47-1.22.7-2.61.75-4.09.01-.37.01-.74,0-1.12l-.04-1.33c-.03-.92-.05-1.87-.04-2.85,0-.98.05-1.99.14-3.03l.09-.78.12-.86c.14-.88.49-1.76.92-2.51.79-1.34,1.63-2.17,2.41-2.93l.29-.27.41-.36c.29-.24.58-.45.86-.63.55-.36,1.05-.64,1.46-.86.41-.22.76-.41,1.01-.57.26-.16.34-.22.69-.5.59-.48,1.2-1.03,1.88-1.65.67-.61,1.41-1.28,2.26-1.94.82-.66,1.92-1.35,2.69-1.79,1.67-.97,3.36-1.84,5.02-2.66l2.48-1.19,1.22-.58c.39-.18.89-.43.99-.49.78-.42,1.68-1.36,2.22-2.36.28-.5.47-1.02.57-1.49l.06-.34c.01-.11.01-.21.03-.31,0-.1,0-.17,0-.29l-.04-.71c-.23-3.77-.21-7.72.54-11.73.38-2,.95-4,1.75-5.93l.56-1.28.02-.03-1.25-.36c-.19-.05-.37-.08-.55-.11l-.8-.12c-.68-.12-1.36-.26-2.03-.47-1.35-.4-2.64-.99-3.81-1.69-1.17-.7-2.22-1.52-3.17-2.36l-2.43-2.13-4.86-4.26c-.22-.2-.44-.42-.63-.63-.17-.2-.31-.37-.43-.52l-.14-.18c.06.03-.63-.15-1.06-.26-.47-.13-.93-.3-1.39-.46-.89-.37-1.77-.78-2.54-1.27-1.59-.96-2.89-2.07-4.06-3.14-1.17-1.07-2.19-2.1-3.17-2.99l-.09-.08-.16-.16-.32-.33c-.21-.22-.44-.45-.61-.69-.32-.46-.71-.95-.93-1.42-.25-.47-.51-.96-.68-1.43-.19-.47-.36-.95-.48-1.41-.53-1.87-.7-3.67-.67-5.47.04-1.79.28-3.57.84-5.39.13-.45.3-.91.49-1.37.17-.45.42-.92.67-1.38.23-.46.59-.93.9-1.38l.08-.12s.04-.06.06-.09c.04-.06.08-.13.13-.21.36-.64.68-1.76.89-3l1.15.2h0s0,0,0,0l2.62.46s0,0,0,0c0,0,0,0,0,0l-3.76-.66c.54-3.07.94-6.24,1.39-9.49l.36-2.44.09-.62.08-.45.1-.53c.07-.69.4-1.5.85-2.15.22-.33.48-.65.75-.94l.57-.59.12-.13.18-.2.39-.45c.53-.61,1.09-1.25,1.71-1.91.59-.64,1.39-1.39,1.89-1.86l1.7-1.65c1.14-1.12,2.32-2.29,3.58-3.45,1.26-1.16,2.6-2.32,4.09-3.39.37-.27.76-.53,1.14-.79l1.03-.67,2.08-1.33c2.8-1.77,5.72-3.5,8.84-4.99.39-.19.78-.37,1.18-.55l.51-.24c.13-.07.26-.11.39-.19.52-.27,1.06-.61,1.59-1,1.08-.77,2.17-1.76,3.3-2.83Z" fill="#fff"/>
            <path d="m312.6,356.21s0,0,0,0c0,0,0,0,0,0,0,0,0,0,0,0,0,0,0,0,0,0Z" fill="#fff"/>
            <polygon points="312.6 356.21 312.6 356.21 312.6 356.22 312.6 356.22 312.6 356.21" fill="#fff"/>
            <path d="m535.52,243.29s0,0,0,0h0s0,0,0,0Z" fill="#fff"/>
            <path d="m304.17,278.7s0,0,0,0c0,0,0,0,0-.01h0s0,0,0,0Z" fill="#fff"/>
            <polygon points="303.35 280.35 303.35 280.35 303.34 280.35 303.36 280.34 303.35 280.35" fill="#fff"/>
            <path d="m312.56,356.26s0,0,.01-.01h-.01Z" fill="#fff"/>
            <path d="m370.71,376.4h0s0,0,0,0Z" fill="#fff"/>
          </g>
          <g>
            <path d="m133.2,381.59c-.6.1-1.22.19-1.83.26-2.46.27-4.97.21-7.4-.14-2.44-.35-4.79-1.01-7.04-1.86-.11-.04-.22-.09-.33-.13-.01.29-.02.58-.05.89-.1.92-.25,1.79-.44,2.62-.38,1.66-.87,3.14-1.3,4.51-.4,1.19-.67,2.62-1.33,4.41-.34.89-.78,1.87-1.52,2.86l-.28.37-.19.22-.37.44-.75.88c-1.02,1.16-2.04,2.3-3.13,3.4-2.15,2.21-4.46,4.28-6.9,6.19-2.43,1.92-5.01,3.67-7.7,5.22-1.34.79-2.72,1.5-4.11,2.19-1.53.75-3.11,1.33-4.62,1.8-1.52.47-2.99.85-4.41,1.22l-2.07.55-.87.25c-.1.03-.25.1-.43.19-.36.18-.78.47-1.18.79-.19.15-.41.36-.55.48h-.01s0,.01,0,.01l.23.33.55.86.91,1.51c.55.9,1.03,1.57,1.42,1.89.39.33.66.47,1.2.57h.05s.02.02.02.02l.23.04c.17.03.35.08.5.13l.37.13c.47.19.78.37,1.06.55.55.36.95.71,1.35,1.12.39.43.77.84,1.21,1.72.06.12.12.28.17.42l.08.22c.03.11.06.21.08.32.05.23.1.4.08.72v.66s.25.14.25.14l.67.34,1.62.81,3.14,1.56.78.39c.29.15.45.2.93.49.83.46,1.59,1.1,2.25,1.81,1.32,1.44,2.12,3.27,2.42,5.08.27,1.82.09,3.65-.51,5.32-.31.83-.69,1.64-1.2,2.37l-.5.74c-.11.16-.22.33-.31.51-.4.69-.69,1.46-.78,2-.03.14-.03.25-.04.34v.13s.02.42.02.42l.1,1.67c.08,1.12.18,2.24.29,3.38l.7,6.93c.23,2.35.43,4.74.51,7.18.04,1.28.06,2.28.13,3.38.06,1.08.17,2.14.31,3.19.28,2.09.74,4.11,1.41,6.04.33.96.72,1.9,1.16,2.81l1.52,3.05c2.05,4.07,4.17,7.91,6.85,11.08.67.81,1.35,1.53,2.11,2.28.77.75,1.58,1.49,2.42,2.24l5.1,4.42c5.52,1.95,10.17,4.85,14.7,7.09,2.47,1.24,4.9,2.29,7.33,2.96.61.14,1.21.31,1.82.43.61.08,1.21.2,1.82.27l1.39.09.56-1.25c.51-1.13,1-2.23,1.43-3.3.22-.54.42-1.07.61-1.59.09-.26.18-.52.27-.78l.29-.91c.41-1.23.79-2.35,1.09-3.41.29-1.04.48-2.01.5-2.77,0-.18,0-.37-.01-.52,0-.19-.03-.25-.06-.47l-.37-1.83c-.5-2.48-1.01-5.11-1.18-7.92-.09-1.4-.09-2.83.02-4.27.05-.71.18-1.47.28-2.21.09-.74.33-1.48.49-2.22.19-.74.49-1.47.75-2.2.32-.71.65-1.42,1.02-2.1.79-1.34,1.69-2.63,2.73-3.72,2.05-2.23,4.4-3.89,6.66-5.28,2.27-1.4,4.49-2.59,6.54-3.8l.62-.34.55-.27.59-.27-.03-.09-.23-.64c-.12-.32-.22-.66-.33-.99-.21-.66-.41-1.34-.58-2.03-.35-1.37-.61-2.79-.76-4.21-.16-1.42-.21-2.85-.17-4.26.01-.35.02-.7.04-1.05l.06-.98c.03-.59.08-1.17.09-1.76.09-2.36.07-4.75-.05-7.15-.24-4.82-.8-9.7-1.38-14.66l-.11-.93-.03-.23v-.03c-.14,0,.1-.03.15-.04h-.06s-.11.02-.11.02c0,0,0,0,0-.03-.02-.08-.13-.33-.34-.66-.42-.66-1.18-1.52-2.04-2.53l-.67-.81-.52-.67c-.22-.26-.58-.62-1.02-1.05-.44-.43-.99-.94-1.59-1.65-.57-.65-1.34-1.85-1.65-3.04l-.18-.71-.15-.66c-.1-.44-.19-.88-.27-1.31-.17-.87-.31-1.73-.43-2.57-.25-1.69-.44-3.33-.64-4.9-.1-.78-.21-1.57-.33-2.31-.1-.61-.26-1.32-.45-2.11-.19-.8-.4-1.69-.55-2.71-.07-.51-.13-1.05-.16-1.62-.02-.58,0-1.17.05-1.71.22-2.17.74-3.8.91-5.02.05-.31.07-.57.09-.83,0-.13,0-.71.03-1.21.04-1,.17-2.1.47-3.24.29-1.13.81-2.3,1.47-3.32.34-.5.7-.99,1.09-1.42.34-.41.94-.96.88-.92l.04-.04-2.3-1.56c-1.53-.96-3.13-1.69-4.78-2.1-1.65-.43-3.35-.52-5.09-.36-.22.01-.43.06-.65.08l-.33.04-.39.06-1.58.27-3.17.54-3.17.54-1.58.27Z" fill="#fff"/>
            <path d="m105.16,374.83c-.11-.05-.22-.1-.35-.14-.24-.1-.52-.18-.82-.27-.6-.17-1.29-.32-2.06-.49-.77-.17-1.61-.34-2.52-.59-.89-.25-1.7-.51-2.49-.78-1.57-.54-2.99-1.06-4.29-1.42-.65-.18-1.27-.31-1.85-.4-.15-.02-.28-.03-.43-.05l-.55-.05-1.15-.1c-1.53-.12-3.03-.21-4.48-.22-1.46-.02-2.87.04-4.22.22-.67.09-1.33.2-1.96.35-.35.07-.54.15-.79.22-.23.09-.46.17-.69.28-1.81.82-3.56,2.82-5.25,5.27l-1.3,1.91-.35.51c-.16.22-.32.46-.49.67-.34.43-.68.83-1.04,1.2-1.42,1.47-2.86,2.51-4.13,3.46-.64.47-1.23.92-1.77,1.35-.64.51-1.3,1.03-1.94,1.53l-3.74,2.86c-.6.47-1.17.94-1.73,1.41l-.82.71c-.1.08-.05.05-.07.07,0,0-.02.02-.04.04-.03.03-.09.11-.14.18-.25.33-.59.95-1.1,1.78-.26.41-.56.89-1,1.41-.2.24-.48.55-.78.81-.29.27-.61.5-.94.73-4.89,3.13-9.81,6.23-15.19,8.88-1.3.64-2.81,1.34-4.25,1.87-1.45.55-2.89,1.01-4.3,1.44l-5.11,1.51h0c.04.32.1.65.15.79.01.02.02.07.03.08,0,0,0,0,0,0,.93,1.13,1.85,2.39,2.61,3.7.75,1.31,1.43,2.66,1.96,4.04,1.1,2.74,1.79,5.52,2.33,8.19.27,1.34.51,2.66.74,3.95l.34,1.92c.11.66.24,1.37.34,2.05.41,2.76.63,5.54.67,8.32.04,2.78-.1,5.56-.41,8.31l-.13,1.03-.07.52c-.02.15-.07.43-.1.64-.16.91-.43,1.84-.82,2.73-.78,1.8-2.04,3.3-3.23,4.39-.3.28-.59.53-.88.77l-.43.35-.21.17-.33.25c-.98.72-1.93,1.1-2.71,1.38-.8.28-1.46.46-2.01.64-.27.09-.51.17-.71.24l-.14.06-.07.03h0c.04.1-.06-.12-.05-.1v.02s.03.05.03.05c.03.09,0,.01,0,.04-.04.02-.18.14-.3.31-.06.09-.12.18-.16.27-.04.08-.09.23-.08.19l.03.03.07.07c.07.07.15.14.21.22l.41.47c.28.31.52.68.76,1.02.46.73.84,1.52,1.11,2.3.52,1.58.64,3.02.7,4.18l.09,1.58.13,1.63c.07,1.24.08,2.44.04,3.56-.06,2.26-.2,4.31-.09,6.12.06.9.15,1.76.35,2.53.09.4.21.76.34,1.13l.21.53c.03.09.08.17.12.26l.27.55c.47.85.66,1.8.63,2.75-.02.48-.08.95-.18,1.43l-.15.64-.1.38-.19.75c-.08.3-.17.59-.26.85l-.48,1.42c-.14.41-.25.78-.32,1.07-.03.14-.06.28-.08.39-.02.14-.02.14-.04.41-.06.85-.09,1.74-.1,2.66-.02,1.85.03,3.83-.08,5.95-.11,2.13-.39,4.33-1.03,6.57-.16.56-.35,1.12-.56,1.69-.11.28-.23.56-.35.85-.07.16-.19.41-.3.6-.11.19-.22.38-.33.56-.93,1.39-1.82,2.13-2.36,2.73-.28.29-.47.52-.57.66-.02.03-.05.07-.06.09l-.02.03s-.01.02-.04.07l-.28.54c-.35.72-.63,1.42-.82,2.08-.38,1.34-.39,2.42-.05,3.47.03.13.09.26.15.4.05.13.11.27.18.4l.1.2.03.06.08.13.15.27.31.54c.1.18.21.35.29.58.64,1.77.6,3.83-.38,5.49l-.09.17c-.03.06-.07.12-.06.12,0,.03-.02.05-.03.08-.03.05-.05.1-.04.13-.03.07-.02.09-.02.12,0,.03,0,.12.15.43.15.29.45.72.87,1.23l1.45,1.76c1.86,2.3,3.8,4.55,5.8,6.8l6.06,6.79,5.12,5.49.75.05c.7.05,1.31.06,1.88.03,1.14-.05,1.96-.27,2.62-.66.34-.18.64-.46.95-.76l.43-.51c.06-.08.19-.29.33-.54l.49-.94c.17-.31.29-.56.57-1.03.05-.08.1-.16.15-.24.03-.05.06-.09.09-.15,0,0,0,0,0,0,0,0,0,0,0,0,.18-.28.38-.55.6-.8.05-.06.1-.11.15-.17.06-.07.12-.15.19-.22.16-.17.34-.33.52-.48,0,0,.01-.01.02-.02.18-.15.37-.28.56-.4.06-.04.11-.07.17-.1.12-.07.24-.13.36-.19.1-.05.2-.1.3-.14.19-.08.38-.15.58-.21l2.71-.76c.81-.22,1.63-.44,2.51-.63,1.73-.39,3.62-.71,5.74-.65.54.03,1.08.06,1.64.16.28.03.56.09.84.16l.71.17c.7.18,1.4.35,2.09.47,1.39.27,2.75.4,4.03.4.64-.01,1.25-.06,1.83-.15.28-.06.57-.1.84-.18.14-.03.27-.07.4-.11l.31-.1.04-.02,1.29-1.96,7.88-11.97,4.17,4.33c.7.7,1.41,1.38,2.08,2.01l1.22,1.17c.75.73,1.53,1.53,2.29,2.48.38.48.76.98,1.11,1.54.18.27.34.57.51.87l.32.57c.71,1.29,1.54,2.13,2.45,2.61.92.48,2.12.69,3.63.56.18,0,.38-.04.56-.06l.29-.03.37-.05c.5-.07,1.02-.14,1.57-.2,1.1-.11,2.31-.19,3.61-.09.64.05,1.3.14,1.94.27.63.13,1.36.35,1.72.46.89.27,1.79.52,2.7.76,3.64.96,7.43,1.79,11.26,2.64l11.46,2.5c.94.21,1.93.41,2.84.63.94.22,1.97.45,3.07.78,1.1.34,2.28.76,3.5,1.46.15.09.3.17.45.27l.4.26.49.3.49.3.51.26c2.71,1.39,5.9,1.82,8.81,1.17,1.46-.32,2.84-.9,4.06-1.72.32-.18.6-.43.89-.65.3-.21.56-.48.82-.74.14-.14.25-.22.42-.41h0s.11-1.84.11-1.84c.04-.77.06-1.52.06-2.24,0-1.45-.12-2.77-.39-3.98-.3-1.2-.73-2.26-1.39-3.3-.92-1.44-1.78-2.89-2.61-4.33-1.66-2.88-3.2-5.73-4.81-8.43l-.63-1.06-.36-.63-.32-.6-1.12-2.18c-.68-1.31-1.32-2.22-1.87-2.63-.29-.2-.54-.37-.91-.46-.16-.08-.4-.08-.6-.13-.22-.03-.49-.02-.74-.05-2.4-.04-4.35-.67-6.03-1.27l-4.63-1.77-4.59-1.78c-3.06-1.21-6.14-2.49-9.18-3.89-.35-.16-.86-.4-1.26-.61-.43-.22-.84-.45-1.24-.68-.8-.47-1.55-.95-2.27-1.43-1.43-.96-2.73-1.91-3.97-2.71l-2.9-1.87.04-.09c-.52-.29-1-.65-1.42-1.07l-2.29-2.33-2.2-2.21c-1.48-1.49-2.96-3.02-4.42-4.63-1.46-1.61-2.87-3.32-4.19-5.14-.34-.45-.65-.93-.97-1.39-.32-.48-.62-.99-.93-1.49-.59-1.01-1.14-2.05-1.61-3.11-1.93-4.23-2.96-8.66-3.62-12.95-.33-2.15-.56-4.27-.78-6.36-.2-2.1-.42-4.1-.57-6.32-.29-4.33-.23-8.6-.13-12.78l.18-6.21.04-1.54.02-.54c.01-.2.03-.4.05-.6.05-.39.11-.77.19-1.14.16-.74.39-1.46.71-2.19.16-.36.34-.73.56-1.1l.17-.27.14-.21.06-.09-1.87-1.02c-.94-.52-1.88-1.06-2.82-1.63-.94-.57-1.89-1.18-2.82-1.84-.47-.33-.93-.67-1.39-1.03l-.34-.27-.17-.14-.23-.2c-.33-.28-.6-.55-.87-.83-.97-1.07-1.56-1.94-1.96-2.32-.2-.2-.32-.31-.39-.33-.04-.02-.05-.04-.09-.04-.02,0-.03-.02-.05-.02h-.04s-.02,0-.02,0c-.01,0,.02,0-.03,0l-.17-.02c-.81-.12-1.58-.27-2.26-.71-.68-.42-1.26-.98-1.76-1.62-.25-.32-.48-.66-.7-1l-.25-.43-.2-.36c-.26-.47-.5-1-.68-1.43-.75-1.79-1.23-3.48-1.71-4.97l-.38-1.21c-.19-.63-.33-1.28-.39-1.95-.13-1.33.02-2.71.46-4,.43-1.3,1.16-2.52,2.18-3.55.5-.52,1.11-.97,1.76-1.37.34-.18.68-.37,1.05-.51l.56-.2.21-.07.17-.05c1.76-.51,3.46-.86,5.06-1.19l2.32-.5,1.1-.27.67-.17.66-.15c.86-.19,1.59-.34,2.19-.5.59-.16,1.02-.36,1.11-.43,0,0,.02-.01.03-.02h0s0,0,0,0h0l.11.11.02.02c-.06-.06.15.16-.12-.13l.03-.03.07-.06.13-.12.26-.24c.35-.31.69-.64,1.05-.92.71-.6,1.43-1.14,2.15-1.67,2.89-2.07,5.78-3.69,8.25-5.43,1.24-.87,2.37-1.75,3.37-2.7l.73-.72.66-.75c.22-.25.4-.52.61-.78l.37-.49c.22-.3.43-.55.64-.78.84-.9,1.54-1.45,1.91-1.83.19-.19.29-.32.31-.35.03-.04-.03.06.07-.14l.2-.41c.51-1.09.82-2.3,1-3.62.36-2.64.08-5.72-.13-9.05.03.1-.06-.28-.24-.55-.08-.14-.18-.27-.24-.33-.01,0,0,0,0,0,0,0,0,0,0,0-.05-.02-.1-.05-.16-.07Z" fill="#fff"/>
          </g>
          <g>
            <path d="m243.5,171.98l.89-.25.66-.16c.44-.11.88-.23,1.32-.36.88-.25,1.76-.53,2.65-.83,1.77-.6,3.54-1.28,5.34-2,1.78-.73,3.69-1.48,5.23-2.19.75-.37,1.47-.75,1.92-1.08.09-.08.17-.15.26-.22.06-.06.09-.11.15-.15,0-.04.03-.06.05-.08-.01-.03.02-.02.02-.05.04,0,.08-.81.06-.62l-2.71.02c-1.02,0-2.05-.02-3.1-.07l-2.95-.16-11.72-.65-25.75-1.42-1-2.37c-.33-.74-.83-1.6-.99-1.96l-.1-.21-.13-.29c-.08-.19-.16-.38-.23-.58-.14-.39-.25-.79-.32-1.19-.15-.81-.14-1.64.07-2.44.26-.98.37-1.34.53-1.87l.48-1.49c.33-.98.67-1.94,1.01-2.87.68-1.87,1.35-3.65,1.89-5.39.54-1.71.96-3.49,1.35-5.33l-.77.55-.39.25c-.18.11-.35.24-.55.34l-1.18.55c-.2.09-.39.2-.59.26l-.61.16c-.41.09-.82.26-1.23.28-1.65.23-3.25-.1-4.68-.67l-1.09-.44-.55-.22-.27-.11-.14-.06s-.03-.08-.05-.12l-.58-2.08c-.28-.61-.17-1.6-.19-2.47v-2.29s.02-5.33.02-5.33v-2.66s0-1.33,0-1.33v-.29c-.02-.05-.02-.12-.02-.11,0-.02.02.01-.02-.02-.02-.02-.06-.04-.1-.07-.03-.02-.08-.05-.12-.07-.05-.03-.1-.06-.17-.09-.02-.01-.05-.02-.07-.04-.22-.1-.5-.22-.81-.33l-4.97-1.76-9.43-3.34-.98-.38c0,.29-.07,1.57-.36,2.62-.09.35-.21.72-.36,1.09l-.23.53-.12.27c-.16.36-.33.71-.48,1.09-.63,1.48-1.2,3.08-1.81,4.75-1.21,3.33-2.61,7.08-5.15,10.47-.63.84-1.32,1.65-2.07,2.4l-.28.28-.14.14-.06.06c-.07.08-.15.15-.23.25-.15.18-.31.39-.46.64-.62.98-1.14,2.35-1.52,3.82-.19.74-.36,1.5-.5,2.29-.14.81-.32,1.82-.53,2.77-.23.98-.51,2.02-.97,3.16-.45,1.12-1.19,2.42-2.31,3.49-1.11,1.07-2.43,1.76-3.55,2.17-.56.2-1.13.39-1.64.51l-.33.08-2.31,2.62-.23,1.08c-.2.92-.43,1.85-.69,2.77-.51,1.85-1.15,3.7-1.96,5.52-1.66,3.66-3.76,6.68-5.49,9.58-.87,1.44-1.65,2.85-2.26,4.25l-.29.65c-.11.23-.21.47-.32.69-.22.45-.45.91-.7,1.34-.48.88-1.01,1.73-1.56,2.55-1.1,1.64-2.31,3.13-3.51,4.54-.61.7-1.21,1.38-1.81,2.05l-.9.99-.22.24-.11.12-.06.07c-.08.09-.16.19-.24.29-.64.85-1.24,2.21-1.83,3.8l-.03.07s0,0,0,0h0s.16.08.16.08l.33.17c.44.23.87.47,1.31.72.87.5,1.72,1.03,2.56,1.61.84.58,1.66,1.2,2.44,1.87.39.34.78.68,1.16,1.04.19.18.38.36.56.54l.14.14s.01.01.01.01h.71c1.41.05,2.85.29,4.23.73,1.38.45,2.68,1.09,3.84,1.85,1.16.76,2.19,1.64,3.11,2.55l1.15,1.19c.31.31.59.58.81.74.11.08.2.15.27.19.03.02.06.03.08.04l.39.19c.56.27,1.11.57,1.66.88,2.18,1.25,4.25,2.85,6,4.82,1.74,1.97,3.15,4.29,4.04,6.76.24.61.41,1.24.6,1.86.15.56.3,1.12.43,1.68.27,1.12.51,2.24.72,3.35.43,2.22.76,4.41,1.09,6.55l.49,3.19.25,1.57.07.39.02.1c.02.1.05.37.06.52.02.36,0,.65-.03.88-.06.47-.14.73-.17.87-.02.08-.02.07-.02.07h0c-.93,6.19-2.19,12.24-2.77,18.11-.08.74-.14,1.47-.19,2.2l-.07,1.09c-.02.37-.02.64-.03.97,0,1.28.12,2.63.33,4.03.34,2.29.89,4.71,1.35,7.3,1.38.83,2.9,1.67,4.47,2.65,2.15,1.36,4.45,2.92,6.41,5.52,1.88,2.65,2.65,5.32,3.32,7.7l.89,3.43.11.4.09.25c.05.17.1.33.17.47.06.15.13.3.21.42.07.14.15.26.24.36.68.91,1.47,1.2,2.49,1.07.13-.02.26-.07.4-.09.14-.05.28-.11.42-.15.14-.07.29-.14.43-.21l.79-.43c1.06-.57,2.12-1.13,3.18-1.67,2.12-1.09,4.25-2.14,6.36-3.18l4.22-2.08v-.28c0-.28-.01-.5-.03-.6-.01-.06,0-.01,0-.03-.71-1.22-1.39-2.64-1.89-4-.51-1.38-.91-2.76-1.22-4.12-.32-1.36-.55-2.68-.77-3.97-.25-1.53-.34-3.13-.22-4.68.11-1.56.41-3.09.83-4.53.21-.72.45-1.42.71-2.1.13-.34.27-.67.4-1,.15-.34.26-.61.46-1.04.75-1.55,1.6-2.7,2.22-3.67.32-.48.58-.92.78-1.3.1-.19.18-.37.24-.52.07-.19.09-.23.18-.54.59-2.05.89-4.39,1.2-6.9.32-2.43.55-5.43,2.02-8.56.73-1.55,1.9-3.16,3.44-4.34,1.54-1.19,3.28-1.87,4.87-2.25,1.6-.38,3.12-.5,4.55-.56l1.84-.14.37-.03-.2-1.34-.57-3.75-.29-1.87-.14-.94-.04-.24-.03-.29-.06-.58c-.26-3.08.04-5.6-.19-7.57-.1-.98-.29-1.79-.61-2.48-.17-.36-.33-.64-.59-1.02-.29-.41-.64-.87-1.04-1.38-.78-1.02-1.77-2.24-2.54-4.01-.21-.5-.3-.77-.42-1.1-.12-.32-.23-.66-.34-.98-.22-.66-.43-1.34-.62-2.02-.75-2.74-1.2-5.72-.99-8.78.1-1.53.36-3.06.79-4.54.31-1.07.57-2.27.95-3.64.38-1.36.87-2.89,1.77-4.43.43-.77,1-1.52,1.62-2.21.33-.33.65-.68,1.02-.97l.54-.44c.17-.12.44-.31.41-.28h0s0,0,0,0l.05-.13.3-.71c.41-.96.86-1.95,1.37-2.94,1.03-1.97,2.35-4.04,4.25-5.79.93-.88,1.99-1.66,3.13-2.27,1.13-.64,2.32-1.11,3.51-1.45Z" fill="#fff"/>
            <polygon points="165.73 156.75 165.73 156.75 165.73 156.75 165.73 156.75" fill="#fff"/>
            <polygon points="141.22 199.95 141.22 199.95 141.22 199.95 141.22 199.95" fill="#fff"/>
            <path d="m141.21,199.95h0s0,0,0,0c0,0-.02,0,0,0Z" fill="#fff"/>
            <polygon points="174.82 283.2 174.82 283.2 174.82 283.2 174.82 283.2" fill="#fff"/>
            <path d="m175.05,283.3l.13-.16-.18.03-.05.06s.07.04.11.07Z" fill="#fff"/>
            <path d="m174.88,283.19s.04.03.06.04l.05-.06-.11.02Z" fill="#fff"/>
          </g>
          <g>
            <path d="m177.65,290.92c-1.08-.77-1.99-1.7-2.73-2.62-1.36-1.72-2.21-3.4-2.99-4.82-.07-.07-.15-.15-.24-.24-.27-.26-.56-.54-.96-.95-1.12-1.14-1.98-2.59-2.05-4.2l-.09-2.31-.06-1.95c-.03-1.3-.05-2.6-.06-3.9-.01-2.6.02-5.2.11-7.79l.07-1.95c.03-.68.07-1.36.12-2.04.1-1.34.24-2.66.38-3.95.29-2.58.61-5.05.77-7.44l.02-.22c0-.08.01-.16,0-.17,0-.07,0-.14,0-.21-.01-.12-.02-.23-.03-.31-.04-.18-.04-.13-.04-.14h0s-.13-.05-.34-.04c-.09,0-.87.07-1.4.14-.57.07-1.13.15-1.67.25-1.08.2-2.1.46-2.98.81-.44.17-.85.36-1.21.57l-.92.51c-.33.17-.65.37-.98.52-1.32.63-2.67,1.21-4.03,1.63-2.72.91-5.41,1.43-8,1.88-2.59.44-5.07.8-7.4,1.28-1.18.23-2.29.52-3.39.84-1.13.34-2.28.73-3.44,1.14l-3.54,1.31-.98.37c-.6.22-1.2.43-1.8.58-1.21.28-2.42.26-3.55-.16-1.13-.41-2.06-1.21-2.8-2.19-.35-.5-.69-1.06-.95-1.59l-.2-.39-.09-.16c-.06-.11-.12-.22-.18-.32-.47-.82-1.04-1.51-1.38-1.73-.11-.07-.14-.09-.15-.09,0,0,0,0,0,0,0-.01-.01,0-.04.01-.01,0-.02,0-.04.01-.03.01.02-.02-.1.03l-.48.2c-.32.14-.64.26-.96.38-.63.25-1.26.48-1.86.7-2.43.89-4.62,1.68-6.39,2.73-.89.52-1.67,1.1-2.36,1.75l-.59.58c-.3.31-.61.59-.92.86-.62.54-1.23,1-1.82,1.41-1.19.83-2.3,1.5-3.23,2.14l-.67.47-.54.4h0s-.69,2.18-.69,2.18c-.25.78-.48,1.52-.67,2.24-.19.71-.34,1.39-.44,2.04-.05.32-.08.63-.1.93l-.04.61c-.02.28-.03.54-.07.83-.12,1.11-.38,2.32-.9,3.51-.5,1.19-1.27,2.32-2.15,3.23-.88.91-1.83,1.6-2.74,2.16-.91.56-1.84,1-2.56,1.34-1.49.7-2.6,1.34-3.09,1.89-.26.28-.4.51-.52.82-.06.15-.1.34-.15.53-.02.25-.05.33-.09.92-.17,1.9-.5,4.05-1.55,6.21-.52,1.07-1.22,2.11-2.07,3.01-.42.45-.88.86-1.35,1.24l-.72.53c-.12.09-.24.16-.37.24l-.19.11-.07.05s0,0,0,.01c-.03.06-.07.13-.1.21-.05.11-.09.24-.1.28,0,0,0,0,0,0l.03.15.07.3c.05.2.08.4.12.59.08.39.15.78.21,1.15.13.76.23,1.48.33,2.18.2,1.4.4,2.68.68,3.81.28,1.14.63,2.13,1.13,2.96.14.2.23.42.39.61l.22.3.2.26c.11.14.21.29.3.44.76,1.19,1.24,2.59,1.2,4.01v.5c.03.13.04.26.06.39.05.26.09.52.18.78.16.53.42,1.09.78,1.7.71,1.22,1.86,2.57,3.07,4.24.29.4.63.9.89,1.3l.73,1.11c.49.73,1,1.46,1.52,2.18,1.04,1.43,2.13,2.84,3.27,4.21.57.69,1.14,1.36,1.73,2.03l.9,1.02c.35.4.68.79,1,1.16,1.24,1.51,2.25,2.77,3.23,3.54.49.39.97.68,1.48.89.26.1.51.21.8.27l.21.06c.06.02.22.05.33.08l.72.16c1.49.35,3.14.8,4.8,1.57.01,0,.03.01.04.02.03.02.07.04.1.05.26.12.52.25.78.39.06.03.11.06.17.09.13.07.26.14.39.22,1.07.63,2.1,1.43,2.99,2.36.22.24.45.47.64.72l.53.65c.04.05.09.1.13.16,0,0,0,0,0,0,0,0,.01.02.02.02.17.22.34.44.54.63.95,1.04,2.04,1.84,3.23,2.4,2.39,1.1,5.36,1.18,8.39.41l.58-.15.68-.19,1.37-.37c.92-.24,1.85-.48,2.78-.71,1.87-.45,3.78-.85,5.73-1.18,1.95-.32,3.93-.56,5.94-.67,1-.06,2.03-.08,3.01-.08h.03l.31-.57c.17-.31.35-.62.59-.95.87-1.28,2.06-2.46,3.4-3.3,1.34-.85,2.79-1.38,4.18-1.7,1.4-.33,2.75-.43,4.04-.44h.54c.26,0,.53,0,.8.03l1.59.15c1.06.09,2.11.23,3.17.36l.4.05h.1s.01.04.02.06l.02.09.09.37.18.74.35,1.47v.04s.21,0,.21,0l3.28.15c1.11.06,2.23.13,3.36.23,1.26.11,2.47.32,3.53.51,1.07.19,2.04.37,2.9.45.43.04.83.07,1.19.06h.11c.05-.03.16-.12.24-.2.09-.08.17-.17.24-.25l.09-.11s0,0,0,0h0s0,0,0,0v-.09c.08-.49.14-.98.19-1.47.19-1.95.23-3.89.07-5.75-.04-.47-.1-.93-.16-1.38l-.25-1.69c-.1-.63-.11-1.27-.17-1.91-.01-.64-.03-1.28,0-1.92.1-2.57.6-5.13,1.46-7.47.84-2.36,1.97-4.54,3.23-6.53.62-1.01,1.29-1.96,1.96-2.9.47-.65.8-1.26.93-1.71.14-.46.13-.72.04-1.15-.12-.45-.35-.93-.89-1.75-.99-1.55-2.56-3.33-3.77-6.01-1.05-2.45-1.54-4.73-2.09-6.69-.13-.49-.27-.96-.41-1.41-.07-.23-.14-.44-.22-.66l-.07-.18-.06-.13c-.04-.09-.12-.23-.15-.26h0s-.05-.01-.05-.01l-.22-.07c-.15-.04-.31-.11-.46-.17-.3-.13-.61-.24-.91-.4-.6-.29-1.17-.64-1.72-1.02Z" fill="#fff"/>
            <path d="m172.64,278.47c-.09.09-.19.17-.26.25-.4.45-.57.82-.68,1.09l.41,3.09,2.92-1.62s.03-.03.04-.04c-.8-.92-2.01-1.83-2.43-2.77Z" fill="#fff"/>
            <path d="m77.79,297.67h0s0,0,0,0c0,.01,0,.02,0,0Z" fill="#fff"/>
            <path d="m77.79,297.66s0-.03,0,0h0Z" fill="#fff"/>
          </g>
          <g fill="none" opacity=".8">
            <polygon points="253.24 279.98 253.24 279.98 253.24 279.98 253.24 279.98" fill="#fff"/>
            <path d="m246.15,183.65s0,0,0,0h0Z" fill="#fff"/>
            <path d="m315.21,277.03c2.69.24,5.35,1,7.8,2.1,2.44,1.13,4.65,2.62,6.62,4.3.25.21.48.43.71.64l.63.57.04-.08s0,0,0,0c0,0,0-.03-.01-.23-.03-.44-.07-.88-.14-1.35-.13-.93-.33-1.9-.58-2.94l-.26-1.1h-.07c-.96-.02-2.15.1-3.81-.02-.83-.07-1.84-.23-2.97-.74-1.12-.49-2.26-1.46-2.91-2.49-.34-.51-.58-1.02-.78-1.51l-.06-.18-.03-.09v-.04s-.13,0-.13,0c-.76-.05-1.48-.2-2.17-.48l-.44-.19-.36-.16c-.24-.11-.47-.23-.71-.35-.47-.25-.95-.53-1.46-.89-1.31-.92-2.41-2.18-2.81-3.74l-.19-.71-.14-.45c-.09-.3-.19-.59-.29-.88-.21-.58-.44-1.16-.69-1.73-.51-1.14-1.11-2.23-1.8-3.3-.68-1.06-1.46-2.09-2.3-3.08l-.75-.91c-.27-.33-.54-.67-.78-1.02-.51-.69-.96-1.43-1.4-2.18-1.72-3.04-2.64-6.47-2.95-9.76-.07-.82-.12-1.64-.13-2.45-.02-.41,0-.81,0-1.21,0-.16,0-.5.02-.87l.07-1.07c.06-1.45.24-2.83.38-4.23l.43-4,2.22.97,1.11.49.55.24.5.21,1,.41.12.05h.09s.19.01.19.01l.37.02.37.02h.19c.06.01.07,0,.11,0l.38-.02c1.02-.03,2.58-.22,4.49.2.94.2,1.92.62,2.78,1.14.42.27.79.57,1.17.87.34.31.64.63.95.96.3.33.52.65.77.98l.54.75c.27.4.58.8.9,1.2.8,1.01,1.74,2.06,2.71,3.19-.08-.22-.17-.43-.26-.66-.34-.84-.79-1.77-1.22-3-.42-1.18-.82-2.85-.58-4.67.18-1.37.71-2.62,1.33-3.62-.03,0-.05-.01-.08-.02-.72-.19-1.44-.41-2.17-.66-1.46-.51-2.97-1.16-4.45-2.11-1.47-.94-2.88-2.22-3.95-3.78-.25-.4-.53-.78-.74-1.2l-.32-.62-.15-.31-.06-.13-.02-.04-.12-.32-9.66-2.05-2.4-.51-.6-.13c-.03-.15.07-.39.1-.58l.27-1.2,1.1-4.82.66-2.9c.15-.81.34-1.61.72-2.3.18-.35.41-.68.68-.97.3-.26.56-.54.9-.77l1-.62.64-.38,1.06-.61,1.92-1.09-.72-.66-.89-.83-.45-.41-.25-.24c-.14-.13-.25-.25-.36-.36l-.69-.75h0s-2.38-.93-2.38-.93l-2.57-.98-5.19-1.97c-1.73-.66-3.53-1.38-5.2-2.06-.86-.35-1.84-.73-2.94-1.33-.27-.15-.56-.32-.86-.52-.3-.2-.59-.41-.96-.72-.7-.6-1.29-1.33-1.71-2.15l-.85-1.74-.78-1.66c-.51-1.1-1.01-2.21-1.49-3.32-.97-2.21-1.89-4.42-2.81-6.61l-1.49-3.56c-.08.04-.27.15-.4.23-.16.08-.37.24-.56.36-.39.27-.84.61-1.31.96-.96.72-2.08,1.58-3.57,2.33-.4.18-.74.37-1.19.51-.4.14-.95.32-1.11.36-.48.14-.97.3-1.46.48-1.98.71-4.05,1.7-6.31,2.69-1.13.49-2.31.98-3.57,1.42-.63.22-1.28.42-1.94.61-.33.1-.68.17-1.01.26l-.77.19c-.9.23-1.67.53-2.31.91-.32.19-.62.4-.91.64-.14.12-.28.25-.42.39l-.21.22-.05.05h0s0,.02-.02.02l-.09.38-.14.59c-.05.22-.17.61-.28.91-.23.64-.57,1.23-.98,1.77l-.66.84-.56.74c-.37.49-.72.99-1.07,1.49-.69,1-1.32,2.02-1.9,3.06-1.15,2.08-2.04,4.22-2.6,6.42-.08.3-.11.46-.16.71-.04.23-.07.46-.1.7-.05.48-.07.97-.05,1.46.03.97.21,1.92.48,2.59.03.09.07.16.1.24l.06.13.11.22.44.86.91,1.76c.61,1.18,1.24,2.41,1.83,3.7.41.87.79,1.79,1.15,2.73.05.11.09.21.14.32.04.13.08.25.12.38.08.21.16.41.23.62.49,1.41.89,2.91,1.13,4.46.14.77.2,1.56.27,2.35.02.79.06,1.59,0,2.38-.02.8-.12,1.58-.23,2.37l-.04.29v.08c-.02.05-.02.12-.02.19,0,.13,0,.3.02.49.06.77.37,1.87.75,3.15.19.64.39,1.34.57,2.12.2.86.28,1.42.41,2.09l2.26,12.3-4.96.02-4.53.06c-.85,0-1.71,0-2.6-.02l-1.34-.06-.65-.04h-.36c-.95,0-1.51.21-1.98.63-.24.22-.48.51-.7.9l-.17.33c-.06.14-.13.28-.19.43-.13.29-.25.61-.36.93-.46,1.29-.83,2.77-1.23,4.37l-.6,2.35c-.18.74-.35,1.5-.52,2.3-.34,1.59-.7,3.29-1.23,5.07-.13.44-.28.89-.44,1.34l-.25.68-.1.32c-.13.38-.17.81-.18,1.27.03.92.28,1.98.81,2.93.52.95,1.24,1.83,2.07,2.42.21.13.41.3.63.4l.32.17.32.13.16.07.24.08.5.16,1.01.29c1.37.35,2.78.59,4.26.73,1.47.14,2.99.2,4.56.21h2.38s1.22-.02,1.22-.02c.46,0,.93,0,1.44.02,1,.04,2.16.17,3.38.54,1.22.37,2.48,1.03,3.48,1.89.12.11.26.21.37.32l.17.17.07.07.9-.4c.42-.18.85-.36,1.29-.54.87-.35,1.78-.68,2.72-.97,1.87-.59,3.9-1,5.98-1.13.52-.03,1.04-.04,1.57-.03h.22s.05,0,.08,0c.06,0,.14-.01.24-.03.39-.07.98-.27,1.66-.56l2.4-1.04c.88-.35,1.78-.7,2.76-1,.99-.29,2.03-.56,3.16-.7,1.13-.13,2.32-.17,3.52-.02,1.19.16,2.4.45,3.48.92.55.22,1.06.5,1.58.76l1.09.67s.61.23,1.47.42c.85.23,2.06.44,3.55,1.33.37.23.95.48,1.78.82.81.35,1.84.74,2.99,1.51,1.15.75,2.36,2.05,3,3.5.18.36.3.72.41,1.07l.16.54.1.51.09.51.02.13c-.32.04-.07.01-.13.02h.03s.06-.01.06-.01c.06,0,.05,0,.05,0h0s.01.05.03.1c.07.23.33.71.7,1.2.18.25.4.51.63.78.21.24.39.44.65.68.96.96,2.45,1.99,4.01,3.73.19.21.38.46.57.69.18.24.4.54.5.7l.75,1.11c.5.74.98,1.49,1.45,2.24.95,1.49,1.86,2.99,2.75,4.48l2.47,4.12h.09c-.27-.44-.53-.88-.74-1.32-.69-1.41-1.09-2.79-1.39-4.07-.3-1.27-.5-2.47-.72-3.5-.19-.92-.45-1.73-.78-2.44-.34-.71-.76-1.34-1.32-1.97-.14-.15-.28-.31-.44-.46l-.67-.67c-.48-.5-.96-1.05-1.42-1.65-.91-1.2-1.76-2.67-2.22-4.42-.47-1.73-.43-3.65-.02-5.31l3.71.91s0,0,0,0h0l-.72-3.75c2.54-.48,5.22-.66,7.91-.41Z" fill="#fff"/>
          </g>
          <g>
            <polygon points="250.18 394.63 250.18 394.63 250.18 394.63 250.18 394.63" fill="#fff"/>
            <path d="m215.85,462.98s0,0,.01,0c0,0-.01,0-.02,0h0Z" fill="#fff"/>
            <path d="m212.65,463.95c-.26.09-.15.05,0,0,0,0,0,0,0,0Z" fill="#fff"/>
            <path d="m241.83,394.1l.13-.22c1.01-1.69,3.21-2.23,4.88-1.2.85.52,1.68,1.01,2.5,1.48l.84.47.05-.07.11-.17.44-.66.85-1.3c.55-.86,1.05-1.72,1.5-2.57.22-.43.43-.85.62-1.27.1-.21.19-.42.27-.63l.03-.08.02-.04v-.02s.43.16.22.07l-.13-.05s-.1-.03-.08-.03c0,.01,0-.02,0-.03.06-.17.06-.91-.1-1.7-.08-.4-.18-.83-.3-1.28l-.1-.34-.08-.24c-.06-.17-.12-.34-.2-.53-.31-.74-.79-1.63-1.33-2.7-.27-.54-.55-1.12-.81-1.77-.13-.32-.26-.66-.38-1.02l-.26-.81c-.29-.93-.63-1.82-.89-2.28,0-.02,0-.02-.01-.02l-.4.04c-.17.02-.35.04-.57.09l-.28.05h0s-.2.09-.46.28c-.27.19-.6.46-.99.79-.44.38-.69.61-1.05.95-.34.33-.69.69-1.05,1.06-1.47,1.49-3.03,3.41-5.68,5.03-1.34.8-3.05,1.37-4.48,1.55-1.47.21-2.82.2-4.07.12-1.26-.08-2.44-.24-3.55-.39l-1.62-.23c-.59-.09-1.19-.18-1.77-.29-2.33-.43-4.53-.99-6.63-1.5-2.13-.53-4.01-.94-6.22-1.26l-6.43-1.05-5.66-.92-3.24-.53-.41-.07-.2-.03-.1-.02s-.09,0-.06-.04l.26-.78.53-1.55,3.8-11.14c4.03-1.11,3.6-1.22,4.34-1.9.52-.6.8-1.36.79-2.16.03-.2-.04-.4-.04-.61-.07-.2-.07-.41-.17-.62-.04-.1-.07-.21-.11-.32l-.16-.31-.08-.17-.17-.32-.33-.64c-.87-1.73-1.56-3.56-2.05-5.44-.98-3.76-1.13-7.67-.66-11.38.23-1.86.61-3.68,1.09-5.44l.29-1.12c.08-.35.16-.69.22-1.03.13-.69.22-1.36.27-2.04.1-1.35.01-2.7-.22-4.09-.06-.35-.13-.7-.2-1.05l-.27-1.16c-.22-.93-.39-1.86-.53-2.81-.26-1.9-.36-3.86-.17-5.9.1-1.02.28-2.07.56-3.11.25-.89.51-1.77.81-2.62.58-1.71,1.24-3.35,1.92-4.94l.81-1.88c-.06.03-.26.16-.38.24l-.7.48-1.49,1.05c-1.97,1.4-3.88,2.82-5.67,4.31-.89.75-1.76,1.51-2.58,2.3l-.61.59c-.15.15-.3.31-.44.48-.29.34-.58.71-.86,1.12-.56.82-1.09,1.76-1.6,2.78l-.77,1.59c-.26.54-.54,1.14-.75,1.61-1.83,4.01-2.59,8.18-1.72,12.08.2.98.52,1.94.91,2.88l.3.71c.22.5.41,1.02.52,1.46.25.91.37,1.73.43,2.53.12,1.6.07,3.1-.24,4.74-.03.2-.08.41-.14.63-.06.25-.15.6-.25.87-.19.59-.44,1.15-.75,1.67-.32.51-.68,1-1.13,1.41-.23.19-.51.32-.73.53l-.8.43-.59.24-.31.14-.44.21c-.28.14-.53.28-.76.43-.45.29-.78.58-1.07.92-.29.34-.54.74-.76,1.25-.11.25-.22.52-.31.82l-.19.58c-.09.25-.16.51-.26.76-1.51,3.97-3.88,6.92-5.98,9.63-1.1,1.39-1.97,2.5-2.73,3.76-.75,1.24-1.37,2.49-1.76,3.76-.4,1.27-.61,2.55-.6,3.86-.01.65.06,1.32.15,1.98l.1.71c.04.31.07.6.08,1.06.02.85-.09,1.7-.38,2.5l-.2.58-.19.57c-.13.41-.28.86-.47,1.36-.2.5-.43,1.05-.78,1.66-.18.31-.38.61-.65.95-.25.32-.54.62-.84.9-1.96,1.76-3.48,3.5-4.24,5.28-.39.89-.57,1.79-.61,2.75,0,.24-.02.48,0,.74.01.25.02.5.06.76.04.39.21,1.38.29,2.15.17,1.62.2,3.26.08,4.89-.04.56-.1,1.12-.18,1.68,0,.03,0,.06-.01.1l-.08.5c0,.06-.02.12-.03.18l-.05.38v.04c-.04.22-.06.44-.07.65,0,.08,0,.15,0,.23,0,.06,0,.13,0,.19.02,1.72.81,3.46,2.29,5.45.36.5.76,1.01,1.19,1.53l.32.4.37.48c.24.33.51.64.73.98.96,1.32,1.77,2.73,2.48,4.17,1.42,2.88,2.33,5.87,3.04,8.77.71,2.92,1.17,5.69,1.75,8.49l.83,4.2.21,1.06c.06.39.13.83.17,1.33.04.51.07,1.03,0,1.79-.07.7-.24,1.39-.51,2.04l-.38.98-.29.93-.23.96c-.07.32-.11.66-.17.99-.19,1.33-.24,2.75-.19,4.24.05,1.49.18,3.05.33,4.69l.15,1.81,14.69,1.51,4.51.47c2.25.31,3.86,1.08,5.15,1.54.33.12.62.22.9.32.31.1.44.13.91.26l2.18.61c.67.19,1.28.33,1.82.42.27.05.52.08.75.09.12,0,.23.01.33.01.05,0,.11,0,.15,0h.07s.01,0,.01,0c0,0,0,0,0,0h0s0-.01,0,0c.03-.02.09-.05.16-.07.07-.02.22-.12.32-.17.11-.05.25-.14.39-.23.55-.34,1.16-.86,1.75-1.38,1.18-1.09,2.3-2.38,3.2-3.68.42-.64.82-1.3,1.01-1.79-.03-.14-.06-.28-.08-.41l-.06-.36-.87-5.72c-.29-1.89-.58-3.77-.89-5.64l-.49-2.78-.26-1.38-.14-.69-.02-.08v-.03s-.02-.06-.02-.06c0-.04-.03-.09-.04-.13-.12-.39-.44-1.02-.9-1.79l-.76-1.29c-.14-.24-.28-.49-.42-.76l-.34-.67c-.33-.64-.84-1.46-1.39-2.51-.27-.53-.56-1.14-.81-1.89-.24-.72-.45-1.73-.42-2.69.08-2.09.67-3.69,1.26-5.1.3-.7.63-1.35.95-1.97l.48-.89.12-.22.07-.14c.04-.09.09-.17.13-.26.32-.68.45-1.41.43-1.93-.01-.26-.06-.46-.11-.57-.05-.11-.08-.14-.12-.18-1.07-.98-2.17-2.04-3.19-3.55-.25-.4-.5-.81-.72-1.26-.22-.49-.43-.95-.58-1.52-.33-1.08-.4-2.37-.22-3.51.05-.28.1-.57.17-.85l.25-.77c.17-.53.39-.92.61-1.38.22-.41.46-.79.7-1.16.24-.34.49-.68.74-1l.75-.9.76-.81c.48-.51.96-.97,1.48-1.47,1.03-.97,2.18-1.96,3.56-2.83.35-.22.71-.43,1.09-.63.19-.1.38-.2.58-.29l.5-.23,1.78-.79c1.29-.54,2.77-1.15,4.64-1.41,1.83-.29,4.06,0,5.84.85.44.21.86.45,1.27.69l.99.69s.25.15.65.28c.39.13.95.27,1.6.43.32.08.69.18,1.07.3l.3.09c.06.01.04,0,.06.01.03,0,.05.02.08.02.24.07.74-.05.95-.2h.03s0-.03,0-.03v-.1s0-.2,0-.2c0-.14,0-.27.01-.41.02-.28.04-.56.07-.84.07-.57.18-1.15.35-1.72.32-1.15.87-2.26,1.5-3.18.32-.47.66-.9,1-1.29,1.45-1.67,4.07-1.57,5.44.17h0s0,0,0,0c0,0,0,0,0,0Z" fill="#fff"/>
            <path d="m212.54,462.75s0,0,0,0c0-.02,0-.01,0,0Z" fill="#fff"/>
            <path d="m216.1,462.99s-.03,0-.06,0c0,0,0,0,.01,0,.02,0,.03,0,.04,0,0,0,0,0,0,0Z" fill="#fff"/>
          </g>
          <g>
            <path d="m134.83,208.5c-.14.19-.27.38-.42.56-.78.9-1.68,1.6-2.55,2.12-.86.5-1.65.84-2.35,1.14-.7.29-1.27.51-1.7.72-.23.1-.38.2-.53.28l-.92.57c-1.24.76-2.49,1.46-3.72,2.14-2.46,1.35-4.86,2.61-7.1,3.95-.56.33-1.11.67-1.64,1.02-.55.34-1.02.68-1.69,1.13-.33.22-.7.45-1.16.7-.44.24-1.03.52-1.81.73-.76.21-1.87.31-2.96.01,0,0,0,0,0,0-.39.18-.81.38-1.28.61-.29.13-.59.27-.94.41-.56.22-1.05.38-1.59.49-.53.11-1.07.16-1.61.14-.54-.02-1.06-.16-1.58-.31l-1.22-.46-.85-.35c-.57-.23-1.12-.47-1.68-.71-1.1-.49-2.17-.98-3.22-1.48-2.1-.98-4.13-1.95-6.12-2.76-1-.41-1.98-.77-2.96-1.08-.49-.16-.98-.3-1.46-.42-.5-.13-.9-.22-1.38-.3-1.86-.33-3.93-.35-6.12-.28-2.19.07-4.5.26-6.94.32l-1.7.03c-.5.02-1.02.05-1.57.09-1.1.08-2.29.2-3.62.24-1.32.04-2.77,0-4.34-.32-1.61-.34-2.86-.9-3.82-1.25-.26-.1-.44-.16-.67-.24-.17-.04-.39-.13-.51-.14-.32-.09-.43-.05-.46-.06,0-.01.01.02,0,0-.01,0-.04.04-.06.05l-.04.02s-.03,0-.06.06l-.19.21c-.08.09-.07.07-.3.36l-.79.77c-.14.12-.25.28-.4.36-.15.1-.32.19-.48.27-.65.32-1.39.45-2.15.52l-2.56.28-4.53.5-9.05,1.01-2.26.25c-.14.02-.49.05-.74.07-.27.02-.52.02-.75.03h-1.19c-.33,0-.59,0-.77.02-.09,0-.52.08-.84.13-.66.1-1.3.25-1.74.37l.14.45c.07.26.21.59.31.88l.41,1.03c.16.38.28.78.36,1.18.08.38.13.89.15,1.1l.04.52.07.6.27,2.46.55,4.93.89,8.02c.16.19.52.76.8,1.24.27.51.52,1.04.71,1.61.39,1.12.58,2.34.57,3.48,0,1.15-.19,2.22-.46,3.19l-.18.6.91,1.26c.72,1,1.48,2.06,2.2,3.22l.51.84c.11.14.19.32.3.45.21.28.43.53.67.72.46.42.96.63,1.5.75.54.12,1.17.08,1.86-.1.34-.09.7-.23,1.06-.39.96-.47,1.99-.72,2.81-.84,1.99-.32,3.9-.95,5.65-1.9,1.75-.94,3.32-2.21,4.66-3.72.17-.18.33-.38.49-.58l.59-.71c.47-.59,1.01-1.14,1.56-1.68,1.13-1.06,2.43-2,3.82-2.73,2.8-1.47,5.8-2.02,8.47-2.24.67-.05,1.33-.1,1.98-.12l.96-.03h.55c.31-.02.6,0,.87.03.54.06,1.03.16,1.52.29.44.12,1.09.35,1.61.61,1.09.53,2.05,1.33,2.68,2.37l.2.31c.03.05.07.09.1.13.07.09.13.18.2.25.07.08.13.15.2.2.06.07.13.12.2.17.27.2.56.35,1.02.47.45.12,1.04.19,1.73.2.34,0,.71,0,1.09,0l1.3-.04c1.77-.05,3.64-.09,5.58.03.49.03.98.07,1.47.12.81.07,1.72.34,2.45.68.71.33,1.33.72,1.93,1.22.22.18.43.38.63.59.02.02.03.03.05.04.02.02.03.04.04.05.36.38.69.81.95,1.26.18.29.37.61.55.88.18.23.35.52.52.72.34.46.68.75.91.94.24.14.18.08.19.1,0,0,0,.02,0,0,.01-.02-.01.03.04,0,.04-.02.08-.02.13-.04.07-.04.14-.07.21-.1.31-.18.74-.46,1.18-.87l.33-.3.34-.35.37-.38c.29-.31.58-.56.86-.79,1.13-.87,2.04-1.25,2.62-1.59l1-.57,1.11-.61c2.94-1.57,5.67-2.89,7.66-4.52.2-.15.65-.54,1.04-.83.4-.31.83-.61,1.3-.89.92-.57,1.99-1.08,3.16-1.41.29-.08.59-.15.89-.21l.54-.09c.21-.04.4-.05.6-.06.4-.03.8-.07,1.19-.05.4,0,.79.02,1.18.07.78.07,1.52.24,2.27.39l2.2.47.25,1.93.13.96c.04.31.08.67.2.9.07.15.09.19.1.19,0,0,.02.02.16.07.14.05.38.11.72.12.15.02.36,0,.54,0,.22-.02.36-.02.7-.05l1.81-.16,3.61-.3c2.39-.19,4.77-.38,7.11-.61,1.17-.11,2.34-.23,3.5-.37l1.7-.21c.51-.07,1.03-.16,1.54-.26,2.08-.43,4.13-1.06,6.27-1.91l6.64-2.69,6.64-2.69,3.31-1.34c0-.09,0-.23,0-.33,0-.51-.02-1.01-.06-1.5-.07-.97-.24-1.89-.49-2.72-.52-1.67-1.37-3.04-2.7-4.14-.25-.23-.85-.7-1.33-1.09l-1.45-1.21-2.74-2.39c-1.78-1.57-3.5-3.01-5.26-4.23-1.76-1.23-3.56-2.16-5.45-2.83-.47-.19-.96-.29-1.43-.44l-.98-.28c-.35-.1-.69-.21-1.02-.33-1.35-.46-2.61-1.03-3.79-1.65-2.38-1.23-4.48-2.63-6.5-3.97-.68-.46-1.35-.9-2.02-1.34Z" fill="#fff"/>
            <polygon points="132.91 202.78 132.91 202.78 132.91 202.78 132.91 202.78 132.91 202.78" fill="#fff"/>
            <polygon points="170.06 236.95 170.06 236.95 170.06 236.95 170.06 236.95" fill="#fff"/>
          </g>
          <g>
            <polygon points="0 337.18 0 337.18 0 337.18 0 337.18 0 337.18" fill="#fff"/>
            <path d="m6.14,351.26l.14.71.09.51c.03.21.07.42.08.61.08.79.06,1.5,0,2.21-.13,1.4-.44,2.71-1.02,4.08-.31.69-.65,1.37-1.2,2.09-.26.34-.6.74-.97,1.07-.36.35-.78.62-1.2.9l-.84.54.12.11.59.46c.5.36,1,.73,1.52,1.09,1.03.72,2.11,1.44,3.21,2.16,2.2,1.45,4.5,2.94,6.76,4.69,2.25,1.73,4.47,3.76,6.36,6.14l.69.91.23.31.14.17c.22.24.52.52.88.77.54.37.32.21.39.25.12.03.5.08.91.05.84-.04,1.85-.26,2.68-.57.4-.15.77-.35.92-.46l1.54-1.16c1.21-.86,2.57-1.83,4.59-2.48.24-.08.53-.14.79-.21l.42-.08c.14-.02.3-.05.37-.06.38-.05.76-.09,1.13-.13.75-.07,1.48-.11,2.21-.14,1.45-.05,2.85-.02,4.2.01l1.99.06c1.33.03,2.66.03,3.98.04l4.32,6.76,1.61,2.51.38.59c.09.12.19.32.25.38l.12.17.54-.42c.28-.23.49-.44.81-.77.31-.32.67-.71,1.11-1.13.22-.21.46-.44.74-.67.14-.12.28-.23.44-.36.17-.13.38-.28.58-.41.41-.27.85-.49,1.31-.68.46-.18.94-.28,1.42-.37l.38-.07c.09-.02.18-.02.26-.05l.51-.14.49-.18c.16-.08.32-.15.48-.23.63-.34,1.24-.8,1.85-1.4.6-.6,1.19-1.32,1.78-2.14.29-.41.59-.84.89-1.29l.46-.7.55-.82c1.51-2.18,3.47-4.22,5.69-5.8,1.11-.79,2.27-1.48,3.43-2.07.57-.29,1.2-.58,1.72-.81.48-.21.94-.43,1.37-.65.86-.44,1.65-.92,2.19-1.38.27-.23.49-.44.61-.61.02-.04.05-.07.08-.11.01-.03.03-.06.05-.08.05-.1.1-.21.15-.34.43-1.1.5-3.06.15-4.55l-.19-.77c-.09-.36-.18-.72-.23-1.1-.07-.37-.13-.75-.16-1.14-.04-.39-.07-.78-.07-1.18-.02-1.6.26-3.3.9-4.84.64-1.54,1.57-2.92,2.61-4.02.53-.55,1.07-1.07,1.63-1.52l.56-.45c.07-.06.14-.13.13-.13.02,0,0,0,0-.01,0-.12-.19-.52-.46-.98-.03-.05-.05-.1-.09-.15-.11-.17-.23-.36-.36-.54,0,0,0,0-.01-.01-.51-.73-1.2-1.53-1.95-2.43-.38-.45-.78-.93-1.18-1.45-.43-.56-.76-1.03-1.1-1.5-2.72-3.81-5.19-7.58-7.91-10.97l-.17-.21-.14-.16c-.11-.11-.22-.22-.35-.32-.25-.21-.53-.4-.8-.55l-.06-.03-1.27,1.26c-.72.66-.76.66-1.14,1.06l-1.18,1.25c-.48.48-1.01,1.03-1.82,1.6-.39.28-.93.6-1.44.81-.26.12-.54.2-.81.29l-.55.15c-1.29.34-2.55.56-3.77.75-2.47.36-4.72.52-6.93.8-.45.06-.91.07-1.36.04-.46-.03-.8-.08-1.12-.14l-1.35-.25-2.73-.51c-.93-.18-1.88-.38-2.84-.62-.86-.22-1.68-.4-2.57-.6-1.76-.39-3.63-.79-5.58-1.38-.98-.3-1.97-.64-2.97-1.08l-1.32-.6c-.39-.18-.79-.36-1.18-.53-6.3-2.8-12.92-4.47-19.47-4.22.1-.03-.39.08-.69.28-.08.05-.15.09-.22.14-.02.02-.07.05-.09.07l-.05.11-.1.24c-.07.16-.14.32-.2.48-.13.32-.25.66-.36,1-.22.68-.42,1.38-.58,2.09-.16.71-.28,1.44-.38,2.18l-.16,1.31c-.07.52-.16,1.05-.29,1.6-.25,1.08-.63,2.24-1.23,3.36-.6,1.12-1.43,2.18-2.37,3.02-.9.81-1.87,1.44-2.82,1.94.45,2.99.88,5.95,1.38,8.85l.52,2.87Z" fill="#fff"/>
          </g>
          <g>
            <path d="m20.49,258.15c-.78-.88-1.47-1.88-2.03-2.95-.07,0-.14,0-.2,0-.61.03-1.03.15-1.42.34-.39.18-.78.5-1.19.98-.1.12-.21.23-.31.38l-.41.56c-.43.6-.89,1.11-1.35,1.59-.93.94-1.87,1.68-2.75,2.34l-1.28.94-.5.37h0s.25.32.25.32c.09.11.18.28.27.42l.53.88c.27.56.59,1.14.8,1.68.23.55.46,1.11.63,1.65.2.55.37,1.09.52,1.63.62,2.17,1.04,4.34,1.28,6.59.2,2.27.35,4.51-.3,7.32-.09.35-.16.69-.33,1.1l-.23.59-.21.48c-.16.34-.31.67-.42.99-.23.65-.35,1.25-.39,1.86-.07,1.2.27,2.54.96,4.04,1.01,2.17,1.68,4.54,1.95,6.96.13,1.22.17,2.47.05,3.77l-.07.74c-.02.16-.02.33-.03.5,0,.35,0,.73.04,1.15l.32,3.16,2.46.4c.97.16,1.95.33,2.93.53.98.19,2.02.42,2.9.61,1.87.41,3.94.83,6.14,1.68.55.21,1.11.46,1.66.74l1.32.7c.78.41,1.58.8,2.38,1.17,3.23,1.45,6.63,2.53,10.14,3.23.88.17,1.76.33,2.65.46.88.13,1.82.25,2.6.31,1.65.13,3.45.09,5.36.03.96-.03,1.95-.06,2.97-.06l1.16-.04c.37-.05.74-.07,1.1-.14,1.45-.25,2.81-.74,4.01-1.47,1.19-.75,2.22-1.72,3.05-2.87.39-.6.77-1.21,1.06-1.88l.22-.5.19-.52.16-.46c.02-.06.03-.14.05-.23.03-.17.03-.38.02-.54l-.16-1.32-.35-2.87-.7-5.74-.35-2.87-.02-.19-.02-.25-.04-.49c0-.34-.03-.67,0-1.02.01-.68.1-1.39.24-2.09.29-1.4.86-2.78,1.62-3.95.74-1.17,1.7-2.17,2.6-2.95,0,0,0,0,0,0,0,0,.07-.1.13-.23.14-.27.33-.73.57-1.31.12-.29.27-.62.45-.98l.14-.28.06-.12.1-.2c.06-.14.11-.28.17-.44.01-.04.03-.08.04-.12.06-.17.12-.35.17-.56.22-.77.42-1.73.75-2.87,0-.03.01-.06.02-.09.01-.03.02-.06.04-.1.04-.12.07-.24.11-.36.2-.67.51-1.43.89-2.19.42-.76.92-1.55,1.59-2.23.64-.7,1.41-1.27,2.18-1.73l.28-.17.19-.1.38-.2.76-.4,3.05-1.59.68-.35.06-.42c.1-.8.44-2.05,1.04-2.99.32-.58.6-1.09.74-1.61.11-.26.12-.52.19-.78.01-.27.08-.53.06-.81.04-1.09-.26-2.37-.8-3.79-.26-.7-.6-1.45-.94-2.22-.34-.71-.84-1.83-.92-1.89-.23-.37-.66-.83-1.01-1.11-.05-.04-.06-.05-.07-.05l-.54.07c-.31.05-.63.11-.95.17-.65.13-1.32.3-2.01.49-.69.19-1.4.4-2.14.62l-1.11.33-1.72.5-2.22.62-1.11.3-.28.08s-.1.04-.13.02l-.09-.11-.37-.44-1.46-1.78-1.33-1.65-1.44-1.78c-.56-.66-1.02-1.24-1.44-1.72-.42-.47-.8-.84-1.05-1.01-.07-.06-.12-.08-.16-.1-.05-.04-.07-.03-.09-.05-.02,0-.02,0-.02,0,0,0,0,0,0,0,0,0,0,0,0,0,0,0,0,0,0,0h0s0,0,0,0c0,0-.02.02-.03,0-.03.01-.07.03-.11.03,0-.01-.13.04-.2.06l-.25.09c-.67.24-1.33.5-1.96.76-1.26.54-2.46,1.14-3.49,1.83-.51.34-.98.7-1.4,1.07-.21.19-.4.37-.58.56l-.85.9c-2.34,2.43-5.05,4.65-8.05,6.4-1.5.88-3.06,1.64-4.66,2.29-.4.16-.8.32-1.2.46-.41.14-.78.29-1.28.43-.47.13-.94.29-1.42.38l-1.44.27c-3.86.5-7.82-.1-11.31-1.94-1.74-.92-3.37-2.15-4.73-3.69Z" fill="#fff"/>
            <polygon points="21.09 251.62 21.09 251.62 21.09 251.62 21.09 251.62 21.09 251.62" fill="#fff"/>
            <path d="m83.1,253.67h0s0,0,0,0Z" fill="#fff"/>
          </g>
          <g>
            <path d="m156.12,348.45l-.37.46c-.26.34-.56.74-.94,1.19-.2.24-.38.45-.67.75-.32.33-.67.65-1.04.93-.74.57-1.6.95-2.5,1.16l-1.3.25-1.06.19-2.11.34c-1.4.21-2.8.39-4.18.56l-8.18.97c-.67.08-1.11.06-1.29.07,0,0,0,0,0,0-2.17.67-4.88,1.55-7.84,1.77-1.47.12-2.89.07-4.21-.03-.66-.05-1.3-.11-1.93-.17l-.47-.05-.15-.02c-.03.43-.02.22,0,0h0s0,0,0,0h-.02s-.06,0-.1,0c-.11.97-.08.69,0,0-.04,0-.08,0-.12,0-.6,0-1.19-.16-1.75-.39l-.47-.19-.27-.1-.61-.22c-.44-.15-.93-.32-1.48-.54-.55-.22-1.16-.48-1.84-.88-.66-.39-1.49-1.03-2.06-1.76-2.01-2.47-4.21-3.99-6.93-4.52-1.36-.26-2.87-.31-4.41-.16-1.42.13-2.59.53-3.34,1.04-.35.28-.63.56-.86.91-.2.37-.38.79-.49,1.32-.08.54-.16,1.13-.1,1.8,0,.32.07.67.1,1.01l.21,1.11,1.06,5.59.27,1.4.13.7c.02.1.05.26.07.43l.06.47.03.26,2.13.61,1.1.28c.36.09.7.16,1.14.24l2.45.48,9.67,1.88c1.59.29,3.5.5,5.72,1.42.27.11.56.26.83.39.26.14.61.34.77.44.41.25.79.5,1.17.75l2.11,1.44c1.32.91,2.54,1.68,3.64,2.14.55.23,1.08.39,1.58.48l.38.06.57.06,1.16.11c3.11.25,6.27.24,9.43.02l1.18-.09.3-.03.14-.02c.08,0,.2-.04.3-.05.45-.1,1.03-.31,1.72-.6.7-.29,1.49-.66,2.42-1.01.48-.18.97-.36,1.53-.51.27-.08.57-.14.86-.21.21-.05.18-.04.34-.09.47-.13,1.27-.47,2.39-.79.58-.15,1.22-.32,2.11-.36.83-.04,1.67.04,2.47.28.8.22,1.54.62,2.23,1.09l.48.38.4.34c.06.06.15.13.23.2.36.28.93.62,1.65,1.02l3.67,2.29.43-2.38c.36-1.84.81-3.85,1.71-5.92l.36-.77.34-.66c.22-.44.47-.86.7-1.28.48-.84.99-1.66,1.5-2.46,1.04-1.59,2.13-3.1,3.23-4.56l1.65-2.15,1.34-1.73h0c-1.12-1.21-2.21-2.26-3.11-2.77-.45-.26-.85-.41-1.26-.49-.2-.04-.43-.05-.65-.07-.12,0-.24.01-.36.01-.06,0-.13.01-.19.02l-.38.05c-1.26.22-2.53-.06-3.69-.57l-.83-.36c-.08-.03-.15-.06-.15-.06l-.38-.11-3.64-1.07-3.58-1.06s-.07.08-.1.11Z" fill="#fff"/>
            <polygon points="153.59 343.58 153.59 343.58 153.59 343.58 153.59 343.58" fill="#fff"/>
            <path d="m118.08,353.88v.02s0,0,0,0v.03s0-.03,0-.05Z" fill="#fff"/>
          </g>
        </g>
      </g>
      <g>
        <g>
          <path d="m353.46,186.54l-8.19-3.11c-10.72-18.01-40.69-30.98-75.98-30.98s-65.26,12.97-75.98,30.98l-8.19,3.11c-5.35,2.03-8.08,7.98-6.12,13.36l9.98,64.37c1.52,4.17,5.5,6.92,9.93,6.88l67.56-.59,67.56.59c4.43.04,8.42-2.71,9.93-6.88l15.6-64.37c1.96-5.38-.77-11.33-6.12-13.36Z" fill="#092a31"/>
          <path d="m345.98,187.25l-8.36-3.17c-10.95-18.39-41.54-31.63-77.57-31.63s-66.62,13.24-77.57,31.63l-8.36,3.17c-5.46,2.07-8.25,8.15-6.25,13.64l13.06,58.7c1.55,4.25,5.61,7.07,10.14,7.02l68.97-.6,68.97.6c4.53.05,8.59-2.77,10.14-7.02l13.06-58.7c2-5.49-.78-11.57-6.25-13.64Z" fill="#fff" stroke="#092a31" stroke-miterlimit="10" stroke-width=".95"/>
        </g>
        <g>
          <g>
            <path d="m193.27,219.72c-.28-.3-.42-.68-.42-1.12,0-.21.05-.32.15-.32.38-.03.76-.15,1.14-.36-.42-.16-.64-.57-.66-1.23v-2.97c-.01-3.01-.03-4.45-.04-4.34.01-.44.05-.99.11-1.63.03-.1.11-.15.27-.15.21,0,.45.07.7.21l.13.08c1.26-.97,2.17-1.43,2.73-1.38.99.08,1.71.52,2.16,1.33.14.25.21.54.21.85,0,.16-.03.32-.08.45.01.04.04.69.09,1.97.04,1.4.06,2.55.06,3.45,0,.83-.02,1.34-.06,1.52-.08.32-.32.54-.72.68-.33.13-.67.18-1.02.15l-.02-.02-.02.04c-.44.57-1.11,1.29-1.99,2.18-.58.59-.99.96-1.21,1.1-.13.08-.26.11-.4.11-.39,0-.76-.2-1.12-.59Zm4.07-8.79c0-.91-.02-1.89-.06-2.96-.01-.04-.04-.06-.09-.06-.21,0-.76.24-1.63.72.18.24.27.52.28.83.01.23.03.89.06,1.99.58-.33.96-.51,1.14-.55.08-.01.18,0,.3.02Zm-1.4,5.63c.3-.28.78-.69,1.44-1.25-.01-.26-.03-1.15-.04-2.65-.33.19-.79.45-1.38.78.01.91,0,1.95-.02,3.13Zm9.91-2.24c-1.21.45-2.13.67-2.77.64-.1.9-.27,1.8-.51,2.71-.19.73-.34,1.2-.45,1.4-.33.58-.56.97-.68,1.16-.29.4-.61.71-.97.91-.25.14-.44.21-.55.21-.1,0-.15-.06-.15-.19,0-.09.03-.24.09-.45.09-.28.14-.44.15-.49.48-2.18.79-4.91.93-8.17.09-2.13.13-3.51.13-4.13,0-.8-.04-1.25-.13-1.35-.09-.11-.19-.27-.3-.48-.03-.38.11-.57.4-.57.18,0,.46.06.84.19.38.13.64.24.77.34,1.57-.73,2.71-1.09,3.43-1.08.42,0,.87.1,1.36.3.54.23.86.48.95.76.04.11.06.23.06.34,0,.22-.08.46-.24.75-.16.28-.24.46-.24.54,0,.63.01,1.95.04,3.96.01.61.06,2.12.15,4.53.08,2.12.11,3.35.09,3.69-.01.64-.04,1.04-.08,1.19-.09.35-.3.54-.62.57-.44.02-.88-.12-1.31-.44-.25-.18-.47-.47-.65-.89-.18-.42-.58-1.18-1.18-2.29-.18-.34-.26-.6-.26-.78,0-.08.01-.11.04-.11.06,0,.16.08.28.25.8.99,1.23,1.48,1.29,1.48.04,0,.06-.03.06-.09.05-.63.06-2.1.04-4.4Zm-.06-3.69c-1.06.39-1.91.6-2.54.63l-.08,1.91c.73-.11,1.62-.33,2.65-.66-.01-.64-.03-1.27-.04-1.88Zm-2.5-1.19c.72-.13,1.56-.34,2.52-.64.01-1.59,0-2.39-.06-2.39-.28,0-1.11.27-2.5.81.04.45.05,1.19.04,2.22Z" fill="#231815"/>
            <path d="m227.57,214.61c-3.06.45-4.75.66-5.08.61-.11-.01-.27-.06-.45-.15-.25,1.17-.54,2.11-.87,2.8-.22.43-.71,1.23-1.48,2.39-.32.47-.85.92-1.59,1.35-.2.11-.37.17-.51.17-.23,0-.28-.13-.15-.38l.91-2.25c.27-.67.56-1.76.87-3.28.3-1.43.49-2.56.57-3.39.15-1.6.23-2.85.23-3.73,0-.39-.07-.82-.2-1.29-.13-.47-.2-.8-.2-1,0-.47.13-.65.4-.55.33.11.66.23,1,.34.42.16.75.34,1,.53,2.5-1.26,4.29-1.9,5.38-1.91.52-.01,1.17.25,1.95.78.74.49,1.18.91,1.31,1.25.05.14.08.28.08.42,0,.4-.17.65-.51.74,0,.03,0,.39.02,1.1.03.8.04,1.3.04,1.52l.15,8.83v.42c.01.16.02.3.02.42,0,.95-.33,1.5-1,1.65-.15.04-.3.06-.45.06-.51,0-1.04-.23-1.61-.7-.47-.44-.93-.88-1.4-1.33-.54-.51-1.09-1.01-1.63-1.52-.68-.67-1.31-1.36-1.89-2.08-.06-.08-.09-.15-.09-.23,0-.18.12-.26.36-.26.06,0,.11.01.13.04.69.56,1.39,1.11,2.08,1.67.91.68,1.63,1.04,2.16,1.08.01,0,.05,0,.1.03.06.02.1.03.12.03.1,0,.16-.1.17-.3.04-.48.06-1.76.08-3.83Zm-5.23-1.16c1.33-.19,2.73-.47,4.23-.83l.28-.19c.25.03.49.07.72.13,0-.38,0-1.06-.02-2.05-1.15.24-2.8.6-4.96,1.08-.06.62-.15,1.24-.25,1.86Zm.42-3.83c.95-.23,2.32-.57,4.11-1.02-.04,0,.03-.06.21-.19.15-.01.3,0,.45.04-.01-.35-.02-.58-.02-.68-.03-.78-.1-1.19-.23-1.23-1.57.3-3.08.85-4.53,1.63.02.38.02.87,0,1.46Z" fill="#231815"/>
            <path d="m249.41,214.25c-.09.27-.2.49-.32.68,1.19-.24,2.13-.37,2.84-.38h.44c.37.05.85.34,1.46.85.69.62,1.02,1.21.99,1.76-.04.37-.4.99-1.08,1.88.3.2.47.46.49.78.01.25-.25.6-.78,1.04-.13.1-.54.14-1.23.13-.45-.03-.9-.04-1.35-.06-.24-.01-1.51.13-3.81.42-.16.27-.4.4-.72.4-.14,0-.28-.03-.42-.09-1.39-.63-2.52-2.17-3.39-4.6v.02c-.16-.45-.25-.86-.25-1.21,0-.33.07-.49.21-.49.72-.01,1.33.25,1.84.78.4-.13.8-.24,1.17-.34.3-.21.59-.45.87-.72-.81-.35-1.4-1.04-1.76-2.05-.23-.62-.35-1.24-.36-1.86-.01-.28.02-.54.08-.79.07-.25.15-.36.26-.33.24.08.5.23.78.45.97-.33,2.07-.61,3.28-.85,1.26-.25,2.17-.35,2.73-.3l.11-.09c.32.03.64.17.97.44.34-.2.64-.43.91-.69.27-.26.4-.45.4-.56,0-.05-.03-.08-.09-.09-.19-.03-.42-.04-.7-.04-1.15,0-2.78.21-4.89.62-1.95.39-3.75.85-5.42,1.36,0,.08-.01.29-.04.64-.04.48-.14.91-.3,1.29-.08.19-.25.32-.51.4-.22.06-.38.07-.49.02-.32-.15-.6-.49-.86-1.02-.26-.53-.39-1.02-.39-1.48,0-.15.02-.28.06-.4.33-.73.67-1.59,1.02-2.58.01-.13.08-.19.19-.19.2,0,.43.13.68.38.25.25.42.49.51.72.05.15.09.32.13.51.78-.2,2.2-.56,4.26-1.06.05-.09.09-.17.11-.25-.73-.53-1.1-.95-1.1-1.25,0-.16.12-.3.36-.42.14-.06.44-.16.89-.28.16-.01.35-.02.57-.02,1.26,0,2.3.34,3.13,1.02.1.08.16.18.19.3.96-.11,1.81-.14,2.56-.09l.21-.11c.32-.04.9.2,1.76.7.92.56,1.37,1.07,1.35,1.53-.01.18-.13.39-.36.64-.28.33-.66.62-1.16.87-.25.13-.5.19-.74.19-.2,0-.34-.04-.42-.11-.18-.21-.4-.37-.66-.47-.2,0-.5.05-.89.15.33.33.49.64.49.93,0,.09-.02.15-.06.2-.04.04-.16.27-.38.69-.25.48-.54.88-.85,1.21.08.06.12.12.13.17.02.11-.08.28-.31.49s-.46.35-.69.42c-.39.04-.9.09-1.52.17l-.13.02Zm-3.07,4.98c.81-.09,1.94-.17,3.41-.25.63-.54,1.17-1.18,1.61-1.91.38-.63.52-.95.44-.97-.11-.03-.25-.04-.42-.04-.68,0-1.72.18-3.11.55-1.14.3-2.13.62-2.99.95l1.06,1.67Zm3.32-6.73c.43-.63.68-1.17.76-1.63-.03-.01-.07-.02-.13-.02-.69,0-2.01.31-3.96.93.16.3.4.74.7,1.31.64-.14,1.52-.33,2.63-.59Z" fill="#231815"/>
            <path d="m274.93,214.61c-3.06.45-4.75.66-5.08.61-.11-.01-.27-.06-.45-.15-.25,1.17-.54,2.11-.87,2.8-.22.43-.71,1.23-1.48,2.39-.32.47-.85.92-1.59,1.35-.2.11-.37.17-.51.17-.23,0-.28-.13-.15-.38l.91-2.25c.27-.67.56-1.76.87-3.28.3-1.43.49-2.56.57-3.39.15-1.6.23-2.85.23-3.73,0-.39-.07-.82-.2-1.29-.13-.47-.2-.8-.2-1,0-.47.13-.65.4-.55.33.11.66.23,1,.34.42.16.75.34,1,.53,2.5-1.26,4.29-1.9,5.38-1.91.52-.01,1.17.25,1.95.78.74.49,1.18.91,1.31,1.25.05.14.08.28.08.42,0,.4-.17.65-.51.74,0,.03,0,.39.02,1.1.03.8.04,1.3.04,1.52l.15,8.83v.42c.01.16.02.3.02.42,0,.95-.33,1.5-1,1.65-.15.04-.3.06-.45.06-.51,0-1.04-.23-1.61-.7-.47-.44-.93-.88-1.4-1.33-.54-.51-1.09-1.01-1.63-1.52-.68-.67-1.31-1.36-1.89-2.08-.06-.08-.09-.15-.09-.23,0-.18.12-.26.36-.26.06,0,.11.01.13.04.69.56,1.39,1.11,2.08,1.67.91.68,1.63,1.04,2.16,1.08.01,0,.05,0,.1.03.06.02.1.03.12.03.1,0,.16-.1.17-.3.04-.48.06-1.76.08-3.83Zm-5.23-1.16c1.33-.19,2.73-.47,4.22-.83l.28-.19c.25.03.49.07.72.13,0-.38,0-1.06-.02-2.05-1.15.24-2.8.6-4.96,1.08-.06.62-.15,1.24-.25,1.86Zm.42-3.83c.95-.23,2.32-.57,4.11-1.02-.04,0,.03-.06.21-.19.15-.01.3,0,.45.04-.01-.35-.02-.58-.02-.68-.03-.78-.1-1.19-.23-1.23-1.57.3-3.08.85-4.53,1.63.03.38.03.87,0,1.46Z" fill="#231815"/>
            <path d="m288.44,211.95c1.3-.37,2.99-.77,5.06-1.21.15-.42.26-.79.32-1.12.02-.18.05-.37.08-.57-1.07.21-1.75.34-2.03.38-.47.08-1.02-.04-1.67-.34-.48-.23-.72-.48-.72-.76,0-.08.02-.14.08-.19.16-.16.56-.33,1.19-.51.85-.23,1.96-.49,3.35-.8.01-.24-.01-.51-.08-.8-.06-.3-.09-.51-.09-.65,0-.4.28-.57.85-.51.32.04.68.21,1.08.5s.71.61.93.94c.47-.08.85-.12,1.16-.13.18-.01.35-.08.51-.21.16-.13.28-.19.34-.19.37,0,.97.2,1.8.61.4-.44.63-.7.68-.78.23-.32.42-.47.59-.47.25,0,.57.2.97.61.39.4.62.73.68.99.05.2-.08.42-.38.64-.45.48-1.23,1.29-2.31,2.42.72.06,1.46.28,2.22.66.76.38,1.09.69,1,.95-.23.66-.59.99-1.1.99-.22,0-.45-.04-.7-.13-.72-.25-1.91-.34-3.58-.27-1.57,1.6-2.69,2.72-3.37,3.35.27.29.46.55.59.78.85-.63,1.62-1.31,2.31-2.03.54-.57.84-.92.89-1.06v-.42c.03-.2.13-.27.32-.21.25.06.61.27,1.06.61.53.38.78.67.76.87-.04.32-.17.58-.4.8-.28.29-.55.57-.81.85-.48.48-.93.83-1.35,1.04-.42.21-.84.44-1.27.66-.49.24-.97.39-1.44.45-.06.81-.02,1.3.13,1.48.1.1.52.15,1.27.15.78,0,1.58-.05,2.39-.15.88-.11,1.38-.24,1.5-.39.11-.14.16-.87.15-2.17,0-.32.06-.47.19-.47.15,0,.27.13.34.38.1.34.27.85.49,1.52.05.15.3.41.76.78.38.33.57.68.57,1.04,0,.11-.01.23-.04.34-.14.61-.85,1-2.12,1.19-.75.11-1.87.16-3.37.13-1.16-.01-1.95-.08-2.37-.19-.64-.16-1.22-.54-1.72-1.14-.44-.51-.63-1.64-.55-3.41-.53.45-1.42,1.14-2.67,2.05-.45.29-.86.5-1.21.64-.39.16-.67.3-.83.4-.49.29-.88.37-1.17.23-.29-.15-.2-.42.28-.8.44-.35.95-.82,1.53-1.4.67-.68,1.35-1.37,2.04-2.07.69-.69,1.82-1.85,3.38-3.47l-.15.02c-.34.06-1.3.3-2.88.72-1.4.39-2.22.59-2.44.59-.26,0-.61-.13-1.04-.38-.47-.28-.7-.54-.7-.8,0-.24.25-.43.74-.57Zm8.03-1.71l.53-.08,1.95-2.05c-.47.06-1.16.18-2.07.34-.08.75-.22,1.34-.42,1.78Z" fill="#231815"/>
            <path d="m324.62,216.37c-.62.08-1.03.09-1.23.06-.09-.01-.18-.04-.27-.08-.14,1.58-.33,2.63-.59,3.16-.19.4-.44.78-.74,1.14-.4.44-.77.66-1.1.66-.13,0-.19-.06-.19-.17,0-.06.02-.14.06-.23.16-.39.31-1.03.44-1.91h-.7c-.35.01-.89.07-1.61.17,0,.85-.03,1.39-.09,1.62-.06.23-.21.42-.47.56s-.5.21-.71.21c-.1,0-.16-.02-.17-.06-.08-.16-.11-.59-.11-1.29,0-.14.01-.4.04-.8-.83.14-1.31.21-1.44.21-.14,0-.35-.1-.63-.31-.28-.21-.43-.38-.43-.52,0-.16.08-.27.25-.32.5-.15,1.28-.32,2.31-.51v-.68l-.09.02c-.11.22-.32.32-.63.32-.1,0-.21-.03-.34-.08-.13-.05-.4-.4-.81-1.06-.05-.08-.11-.32-.19-.74-.1-.47-.16-.87-.17-1.21-.04.28-.09.58-.15.91-.37,2.25-.81,3.72-1.33,4.41-.52.69-.94,1.11-1.27,1.23-.43.15-.66.17-.7.06-.01-.05.04-.28.15-.7.19-.69.36-1.49.52-2.39.16-.9.34-2.01.54-3.35.32-2.39.44-4.07.38-5.06-.35-.29-.51-.54-.45-.74.06-.23.58-.49,1.55-.8.78-.27,2.13-.57,4.05-.91-.03-.19-.11-.35-.25-.47-.19-.18-.29-.27-.3-.27-.09-.14-.13-.28-.13-.44,0-.54.33-.81,1-.81.54,0,1.14.16,1.8.49.66.33,1.05.66,1.17,1,1.14-.13,2.14-.18,3.01-.17.13-.05.27-.09.42-.13.44.13.9.34,1.36.64.58.39.87.75.87,1.06,0,.09-.03.17-.08.25-.2.33-.47.49-.8.49-.15,0-.45-.06-.9-.18-.45-.12-.82-.18-1.13-.18-1.87.01-4.06.3-6.57.87.69.38,1.03.69,1,.95-.01.06-.02.14-.02.23.19-.05.32-.08.38-.08.15-.04.35-.02.59.07.24.08.49.17.74.26.18.05.27.16.27.32,0,.14-.06.29-.17.46s-.37.29-.78.35c-.27.04-.61.11-1.02.23v.59c.24-.05.4-.06.49-.04.32.09.67.25,1.05.47.39.23.61.41.67.55.13.33.18.57.17.72-.04.45-.2.99-.48,1.62-.28.63-.5.95-.63.98-.37.06-.56.09-.59.08-.09-.02-.18-.08-.27-.15-.19.01-.41.04-.66.08.11.11.18.35.19.7l.59-.08c.08-.01.19-.06.34-.13.11-.05.2-.07.27-.06.16.06.57.3,1.21.7.15-1.24.26-2.64.34-4.21.06-1.41.08-2.42.04-3.03,0-.1-.07-.26-.21-.47-.05-.06-.06-.16-.02-.28.05-.11.11-.16.17-.15.23.05.49.16.8.34,1.2-.67,1.95-1.03,2.25-1.08.08-.04.15-.08.23-.11.1-.04.21-.03.32.02.25.1.5.2.76.3.38.18.61.37.7.57.05.15.07.34.06.57-.03.42-.04.59-.04.51,0,6.24,0,9.34,0,9.3-.06.64-.24.98-.53,1-.54.04-.9-.09-1.08-.39-.18-.3-.45-.74-.83-1.32-.16-.16-.45-.54-.87-1.12-.09-.14-.11-.26-.08-.36.03-.1.08-.12.15-.06.81.76,1.23,1.14,1.25,1.14s.04-.01.04-.04c.04-.33.06-1.31.06-2.94Zm-7.37-5.38v-.61s-.05-.14-.15-.45c-.04-.11.02-.27.17-.45-.52.16-1.31.37-2.39.61.24.22.38.45.42.7.03.11.03.4.02.85.43-.16,1.07-.38,1.93-.64Zm-1.71,2.9c.08-.05.4-.13.99-.25.42-.08.63-.23.64-.45l.02-.55-.57.17c-.06.01-.13.02-.21.02-.34,0-.73-.1-1.17-.3-.03.34-.07.73-.13,1.17.04-.05.09-.06.15-.02.09.06.18.13.28.21Zm3.28,2.03c.39-.78.59-1.45.59-2.01-.01-.2-.11-.29-.28-.27-.42.04-1.36.33-2.84.87.02.04.08.18.15.42.35-.1.83-.23,1.42-.4.01,0,.06-.02.14-.07.08-.04.15-.06.2-.05.13.06.25.12.38.17.18.09.28.18.3.27.04.1.03.22-.03.35-.06.13-.15.21-.27.22l-1.86.42c.05.18.09.33.13.45.27-.04.92-.16,1.97-.38Zm4.47-3.71c.64-.15,1.07-.26,1.27-.32-.01-.57-.03-.92-.05-1.05-.02-.13-.08-.19-.18-.18-.2.03-.59.21-1.16.55.08.15.11.49.11,1Zm-.08,2.92c.49-.05.91-.13,1.25-.23.04-.01.08-.02.13-.02v-1.44c-.59.11-1.04.19-1.33.23-.01.49-.03.98-.06,1.46Z" fill="#231815"/>
          </g>
          <g>
            <path d="m244.57,196.51l-2.26.21h-.03c-.1.1-.22.15-.38.15-.05,0-.1,0-.15-.02-.15-.04-.32-.2-.5-.49-.14-.22-.24-.42-.29-.6-.09-.31-.19-1-.32-2.09-.13-1.11-.19-1.85-.16-2.21-.02-.1-.04-.25-.05-.45.03-.19.1-.27.21-.24.18.05.35.13.52.22,1.45-.53,2.62-.79,3.5-.79.14,0,.27,0,.39.03.19.03.47.23.83.61.38.4.62.75.7,1.07.01.03.02.06.02.09,0,.04-.02.09-.06.14-.04.05-.07.1-.09.15-.1.7-.2,1.4-.3,2.09-.2,1.34-.39,2.11-.56,2.33-.07.09-.17.13-.27.13-.12,0-.31-.06-.56-.17-.07-.03-.14-.09-.19-.18Zm-2.94-4.77c.02.13.07.56.15,1.29,1.36-.21,2.29-.32,2.81-.33.13,0,.31.08.57.25.07-.76.09-1.31.05-1.67-.01-.1-.26-.15-.76-.15s-1.06.09-1.73.27c-.52.13-.88.25-1.09.35Zm.56,3.95c.93-.1,1.74-.17,2.43-.2.18-.42.32-1,.44-1.76-.16-.03-.27-.04-.33-.04-.31,0-1.25.13-2.82.39.1.82.2,1.36.29,1.61Z" fill="#231815"/>
            <path d="m257.9,194.11c-1.39.21-2.15.3-2.3.27-.05,0-.12-.03-.21-.07-.11.53-.25.96-.4,1.27-.1.19-.32.55-.67,1.08-.14.21-.38.41-.72.61-.09.05-.17.08-.23.08-.1,0-.13-.06-.07-.17l.41-1.02c.12-.3.25-.8.4-1.49.14-.65.22-1.16.26-1.54.07-.73.1-1.29.1-1.69,0-.18-.03-.37-.09-.58s-.09-.36-.09-.45c0-.21.06-.29.18-.25.15.05.3.1.45.15.19.07.34.15.46.24,1.13-.57,1.95-.86,2.44-.87.23,0,.53.11.88.35.34.22.54.41.59.57.02.06.03.13.03.19,0,.18-.08.29-.23.33,0,.01,0,.18,0,.5.01.36.02.59.02.69l.07,4v.19c0,.07,0,.14,0,.19,0,.43-.15.68-.45.75-.07.02-.14.03-.21.03-.23,0-.47-.11-.73-.32-.21-.2-.42-.4-.64-.6-.25-.23-.49-.46-.74-.69-.31-.3-.6-.62-.86-.94-.03-.03-.04-.07-.04-.1,0-.08.05-.12.16-.12.03,0,.05,0,.06.02.31.25.63.5.94.76.41.31.74.47.98.49,0,0,.02,0,.05.01.03,0,.04.01.06.01.05,0,.07-.05.08-.14.02-.22.03-.8.03-1.73Zm-2.37-.52c.6-.09,1.24-.21,1.91-.38l.13-.09c.11.01.22.03.33.06,0-.17,0-.48,0-.93-.52.11-1.27.27-2.25.49-.03.28-.07.56-.11.84Zm.19-1.73c.43-.1,1.05-.26,1.86-.46-.02,0,.01-.03.09-.09.07,0,.14,0,.21.02,0-.16,0-.26,0-.31-.01-.35-.05-.54-.1-.56-.71.14-1.39.38-2.05.74.01.17.01.39,0,.66Z" fill="#231815"/>
            <path d="m267.16,193.31c-.06,0-.12.03-.17.08-.05.05-.1.09-.14.14-.01-.01-.02-.02-.03-.03,0-.03,0-.07.03-.12.02-.05.03-.08.04-.1-.14.02-.29-.04-.45-.18s-.24-.27-.24-.39c0-.03,0-.06.03-.09.06-.09.22-.2.48-.35s.43-.22.51-.21c.23.01.41.03.52.04.21.04.36.11.44.2.14.16.21.32.21.48,0,.15-.09.25-.27.32-.25.11-.57.19-.97.21Zm-.65,2.5c.08.05.13.07.16.05.19-.12.53-.57,1.01-1.36.46-.74.69-1.11.7-1.11.03-.01.04,0,.04.03,0,.06-.04.18-.11.37-.1.25-.15.39-.16.42-.02.06-.03.13-.03.19,0,.06.04.2.11.43.02.06.03.13.03.21,0,.27-.07.56-.21.88-.12.26-.26.5-.41.72-.13.18-.2.29-.21.33-.06.19-.16.29-.31.29-.14,0-.29-.08-.46-.23-.15-.14-.27-.28-.33-.44-.03-.07-.04-.15-.04-.24,0-.14.03-.27.09-.4.06-.13.11-.18.15-.15Zm1.02-4.63c-.05,0-.14.03-.27.1,0-.03,0-.09.02-.18.01-.05,0-.08-.04-.1-.11-.05-.22-.14-.33-.28-.11-.14-.16-.25-.16-.33.01-.09.09-.17.25-.26.15-.09.3-.13.44-.15.26-.03.56.06.9.27.37.22.54.45.51.7-.09.23-.26.34-.52.34-.09,0-.22-.02-.39-.05-.17-.03-.31-.05-.4-.05Zm3.09,3.57c.01.09-.01.14-.08.16-.19.07-.37.09-.53.03-.08-.02-.17-.09-.27-.21-.13-.15-.2-.23-.21-.24-.05-.04-.12-.17-.22-.39s-.15-.38-.18-.49c-.1-.57-.11-.86-.03-.88.11-.01.19-.01.24,0,.12.02.25.08.39.16.86-.23,1.46-.37,1.78-.41.43-.05.75-.04.95.04.52.2.78.38.78.53,0,.02,0,.03-.02.05-.05.06-.09.15-.1.29-.05.31-.14.62-.27.91-.08.17-.14.28-.18.33-.08.12-.17.18-.27.19-.19,0-.35-.04-.49-.14-.06,0-.16-.01-.31-.03h-.08c.12.15.19.28.2.39v.02c.25-.03.41-.05.51-.07.09-.02.2-.06.32-.12.24.06.41.11.52.15.22.08.39.19.51.33.02.03.03.06.03.09,0,.06-.04.13-.12.19-.08.07-.16.1-.24.1-.15,0-.4,0-.74,0-.06,0-.31.03-.76.09-.01.41-.04.74-.09.99-.03.16-.11.3-.24.42s-.26.18-.42.18c-.08,0-.15-.04-.2-.12-.03-.04-.06-.2-.09-.47-.02-.18-.03-.47-.02-.86-.73.09-1.13.13-1.22.13-.22-.02-.43-.09-.61-.21-.19-.12-.28-.23-.28-.32,0-.05.03-.07.09-.09.27-.07.95-.17,2.03-.29v-.02c0-.13-.01-.27-.04-.45h-.04Zm-.29-3.79c0-.11-.02-.22-.03-.31-.27.05-.43.07-.45.07-.15,0-.3-.04-.43-.13-.11-.07-.17-.13-.19-.19-.01-.07.05-.13.17-.17.31-.11.76-.22,1.34-.32.55-.09,1.02-.14,1.43-.15l.15-.14c.1.02.27.09.5.21.26.14.41.26.45.36.02.06-.02.13-.1.19-.09.07-.24.07-.47.01-.03-.01-.12-.01-.25,0-.13,0-.2,0-.21.02,0,.03-.01.11-.03.24.35-.02.65.03.89.15.28.14.43.29.46.47.02.14,0,.23-.09.26-.06.13-.13.25-.19.38-.14.26-.25.41-.35.46-.18.09-.32.13-.41.12-.25-.04-.43-.14-.55-.29-.39.02-.99.12-1.79.28,0,.03-.02.07-.03.1-.03.06-.12.09-.27.09-.13,0-.22-.02-.28-.05s-.14-.14-.24-.31c-.08-.16-.17-.24-.26-.24,0-.05,0-.12-.02-.2-.11-.29-.16-.61-.16-.94,0-.16.02-.24.06-.23.15.02.3.07.45.15.18.09.29.17.31.27h0c.17-.04.37-.1.61-.15Zm.03.99c-.02-.14-.02-.31-.02-.52-.19.06-.34.11-.46.16.05.12.11.26.18.41.08-.02.18-.04.3-.06Zm-.3,1.4c.02.05.05.11.07.19.42-.08.84-.15,1.26-.21.1,0,.16,0,.2-.02.15.02.32.08.51.19.04-.1.06-.18.07-.24,0-.07.01-.13.03-.19,0-.06,0-.09-.03-.09-.32-.02-.85.06-1.59.23-.13.04-.3.09-.51.15Zm.25.7c.03.07.07.14.09.21.38-.05.67-.09.87-.11.02,0,.04,0,.08-.02s.08-.02.13-.01c.05,0,.13.03.25.06.1-.11.18-.23.23-.36-.15-.03-.24-.04-.28-.04-.11.02-.56.11-1.36.27Zm.52-3.47c.06.07.12.15.16.24.17-.03.32-.06.46-.09.02-.11.03-.19.03-.25-.21.03-.43.06-.66.09Zm.23.67c.02.19.02.39.02.59l.27-.04c-.02-.1,0-.31.04-.61-.11.02-.23.04-.33.06Zm1.06-.11c-.04.25-.07.44-.08.56.17-.02.27-.04.31-.04.04,0,.08,0,.12.03.13-.17.19-.3.19-.4,0-.03-.01-.06-.04-.08-.06-.05-.19-.07-.39-.06h-.11Z" fill="#231815"/>
          </g>
          <g>
            <path d="m216.13,189.24l-1.9-5.23,2.2-.8,1.61,2.02c.06.08.14.18.24.3s.19.26.29.39c.1.13.18.25.26.36l.05-.02c0-.11-.02-.24-.03-.39-.01-.15-.02-.31-.03-.47-.01-.16-.02-.31-.03-.44l-.07-2.58,2.15-.78,1.9,5.23-1.44.52-.9-2.46c-.06-.16-.12-.33-.18-.51-.06-.18-.12-.35-.17-.5s-.09-.28-.12-.37l-.06.02c0,.1.02.22.03.37s.02.31.04.46c.01.16.02.29.02.41l.06,3.05-1.26.46-1.91-2.37c-.08-.1-.17-.21-.27-.34s-.18-.25-.26-.37c-.08-.12-.15-.22-.21-.3l-.06.02c.04.1.09.23.15.38.06.15.12.32.19.49.07.17.13.33.19.49l.9,2.46-1.35.49Z" fill="#231815"/>
            <path d="m224.09,186.48l-1.58-5.33,1.48-.44,1.58,5.33-1.48.44Z" fill="#231815"/>
            <path d="m226.87,185.63l-1.32-5.4,1.34-.33,3,1.94c.06.03.13.08.21.14s.17.12.26.18c.09.06.16.12.22.16l.05-.02c-.02-.1-.05-.21-.09-.34s-.06-.24-.08-.33l-.6-2.45,1.42-.34,1.32,5.4-1.33.32-3.04-1.97c-.12-.08-.24-.16-.36-.24s-.23-.16-.31-.22l-.05.02c.02.08.05.18.08.29.03.12.06.23.09.35l.61,2.49-1.41.34Z" fill="#231815"/>
            <path d="m236.76,183.56c-.99.17-1.79.07-2.38-.31-.59-.38-.97-1.05-1.14-2-.11-.63-.07-1.17.11-1.64.18-.46.5-.85.96-1.14.46-.3,1.03-.5,1.71-.62.42-.07.82-.1,1.2-.08.38.02.73.09,1.03.21s.56.29.75.52c.2.23.32.52.39.86l-1.48.26c-.03-.15-.09-.27-.19-.37s-.22-.17-.37-.22c-.15-.05-.31-.08-.5-.08s-.37,0-.57.04c-.28.05-.53.13-.74.23s-.38.23-.51.39c-.13.16-.21.34-.26.55-.04.2-.04.43,0,.68l.05.27c.06.35.18.63.35.83.17.21.39.34.66.41.27.07.59.07.95,0,.31-.05.57-.14.79-.25.22-.11.39-.25.49-.41s.14-.33.11-.52v-.04s-1.7.3-1.7.3l-.18-1.02,3.18-.56.53,3.03-.89.16-.25-.59c-.15.19-.33.36-.54.51-.21.15-.44.27-.7.37-.26.1-.55.17-.88.23Z" fill="#231815"/>
            <path d="m243.22,182.5l-.26-2.2-2.83-3.05,1.79-.21,1.67,1.9h.06s1.19-2.24,1.19-2.24l1.71-.2-2.05,3.61.25,2.2-1.54.18Z" fill="#231815"/>
            <path d="m250.92,181.89c-.64.04-1.18-.02-1.62-.19-.45-.16-.79-.42-1.03-.78-.24-.36-.38-.8-.42-1.33l-.2-3.17,1.55-.1.19,3.12c.03.43.16.75.41.97.25.22.59.32,1.03.29.44-.03.77-.17,1-.42.22-.25.32-.59.29-1.02l-.19-3.12,1.54-.1.2,3.17c.03.53-.05.99-.25,1.37-.2.38-.51.68-.93.9-.42.22-.95.35-1.58.39Z" fill="#231815"/>
            <path d="m255.17,181.57l-.07-5.56,5.2-.06v1.17s-3.64.04-3.64.04v.99s3.2-.04,3.2-.04v1.15s-3.18.04-3.18.04v1.07s3.72-.04,3.72-.04v1.18s-5.24.06-5.24.06Z" fill="#231815"/>
            <path d="m265.22,181.66l.21-4.3-2.11-.1.06-1.25,5.76.28-.06,1.25-2.1-.1-.21,4.3-1.54-.08Z" fill="#231815"/>
            <path d="m269.79,181.91l.54-5.54,5.17.5-.11,1.17-3.63-.35-.1.98,3.17.31-.11,1.14-3.18-.31-.1,1.06,3.69.36-.11,1.18-5.23-.51Z" fill="#231815"/>
            <path d="m276.15,182.54l.87-5.49,2.31.36.43,2.54c.02.1.04.22.06.38.02.16.04.32.06.48.02.16.04.31.05.44h.06c.05-.09.1-.21.17-.35s.13-.28.2-.43c.07-.15.13-.28.19-.4l1.19-2.29,2.26.36-.87,5.49-1.51-.24.41-2.59c.03-.17.06-.35.09-.54.03-.19.06-.36.09-.52.03-.16.06-.29.08-.38h-.06c-.04.08-.09.19-.16.33s-.13.28-.19.42c-.07.14-.13.26-.18.36l-1.42,2.69-1.33-.21-.53-3c-.02-.13-.05-.27-.07-.42-.02-.15-.04-.3-.05-.45s-.02-.27-.04-.37h-.06c-.01.1-.03.23-.05.4s-.05.34-.07.52c-.02.18-.05.36-.07.52l-.41,2.59-1.42-.22Z" fill="#231815"/>
            <path d="m284.47,183.92l1.21-5.43,3.59.8c.36.08.66.23.89.44.23.21.39.47.47.77s.09.64,0,1c-.08.36-.23.67-.44.91-.21.24-.47.41-.77.5-.3.09-.64.1-1,.02l-2.05-.46-.4,1.78-1.51-.34Zm2.16-2.59l1.67.37c.23.05.42.03.57-.06.14-.09.24-.25.29-.46.03-.15.03-.28,0-.39-.03-.11-.09-.21-.18-.28-.09-.08-.22-.13-.37-.17l-1.67-.37-.3,1.36Z" fill="#231815"/>
            <path d="m290.7,185.36l1.52-5.35,1.49.42-1.18,4.13,3.08.87-.35,1.21-4.56-1.3Z" fill="#231815"/>
            <path d="m296.13,186.94l1.86-5.24,4.9,1.74-.39,1.11-3.44-1.22-.33.93,3.01,1.07-.38,1.08-3.01-1.07-.36,1.01,3.49,1.24-.4,1.11-4.95-1.76Z" fill="#231815"/>
          </g>
          <g>
            <path d="m213.5,237.78l2.32-5.05,2.13.98-.28,2.56c0,.1-.02.22-.05.38-.02.16-.04.32-.07.48-.02.16-.05.31-.07.44l.05.02c.07-.08.16-.18.26-.3.1-.12.2-.23.31-.36.11-.12.2-.23.29-.33l1.76-1.88,2.07.95-2.32,5.05-1.39-.64,1.1-2.38c.07-.16.15-.32.23-.49.08-.17.16-.33.23-.48.07-.15.13-.26.18-.34l-.06-.03c-.06.07-.14.17-.24.29-.1.12-.2.24-.3.36-.1.12-.19.22-.27.3l-2.1,2.21-1.22-.56.31-3.03c.01-.13.03-.27.05-.43s.04-.3.07-.44c.03-.14.05-.26.06-.36l-.06-.03c-.04.1-.09.23-.16.38-.07.15-.14.31-.21.48-.07.17-.14.33-.21.48l-1.1,2.38-1.31-.6Z" fill="#231815"/>
            <path d="m220.78,241.04l4.08-4.49,1.69.57.5,6.05-1.58-.54-.06-1-2.46-.84-.66.76-1.5-.51Zm2.95-1.18l1.61.55-.06-1.23c0-.06,0-.14,0-.24s0-.2,0-.3c0-.11,0-.21,0-.32s0-.19,0-.25l-.05-.02c-.06.08-.14.18-.22.29-.09.11-.17.22-.25.32-.08.1-.15.19-.21.26l-.81.94Z" fill="#231815"/>
            <path d="m228.62,243.57l1.13-4.16-2.04-.55.33-1.21,5.56,1.51-.33,1.21-2.03-.55-1.13,4.16-1.49-.41Z" fill="#231815"/>
            <path d="m235.7,245.37c-.68-.14-1.22-.36-1.64-.66-.41-.3-.7-.69-.84-1.15-.15-.47-.16-1.01-.03-1.64.19-.92.6-1.57,1.22-1.94.63-.37,1.44-.45,2.45-.25.56.11,1.03.3,1.42.57.39.26.67.59.85.98.17.38.21.82.11,1.29l-1.48-.3c.05-.23.03-.44-.05-.63-.08-.19-.21-.35-.4-.47-.19-.13-.42-.22-.7-.28-.34-.07-.63-.06-.88.01-.25.08-.45.22-.61.43-.16.21-.27.47-.33.78l-.06.27c-.06.31-.06.59,0,.85s.19.47.39.64c.2.17.46.29.79.36.3.06.57.07.8.03.23-.04.42-.13.57-.27.15-.14.24-.32.29-.55l1.44.29c-.1.47-.29.84-.59,1.13-.3.29-.68.47-1.14.56s-.98.08-1.57-.04Z" fill="#231815"/>
            <path d="m239.7,246.05l.77-5.51,1.53.21-.29,2.08,2.77.39.29-2.08,1.53.21-.77,5.51-1.53-.21.3-2.18-2.77-.39-.3,2.18-1.53-.21Z" fill="#231815"/>
            <path d="m246.94,247.03l.41-5.55,2.33.17.64,2.5c.03.09.06.22.09.37.03.15.07.31.1.47.03.16.06.31.09.43h.06c.04-.1.09-.22.14-.37.05-.14.11-.29.16-.44.06-.15.11-.29.16-.41l.99-2.38,2.28.17-.41,5.55-1.53-.11.19-2.62c.01-.17.03-.35.04-.54s.03-.36.05-.53.03-.29.04-.38h-.06c-.03.08-.08.2-.13.35-.05.14-.1.29-.16.44-.05.15-.1.27-.15.38l-1.2,2.8-1.34-.1-.77-2.95c-.03-.13-.07-.27-.1-.42-.04-.15-.06-.3-.09-.44-.02-.14-.05-.26-.07-.36h-.06c0,.1,0,.24-.02.4,0,.16-.02.34-.03.52,0,.18-.02.36-.03.53l-.19,2.62-1.44-.11Z" fill="#231815"/>
            <path d="m254.83,247.57l2.49-5.53,1.78.02,2.35,5.59-1.67-.02-.37-.94-2.6-.04-.39.93-1.59-.02Zm2.44-2.04l1.7.02-.44-1.16c-.02-.06-.05-.13-.08-.22s-.06-.19-.1-.29-.07-.2-.1-.3c-.03-.1-.06-.18-.08-.24h-.06c-.03.1-.07.21-.12.34s-.09.26-.14.38c-.05.12-.08.23-.12.31l-.48,1.14Z" fill="#231815"/>
            <path d="m262.23,247.64l-.22-5.56,1.54-.06.1,2.58,2.51-2.68,1.94-.08-2.22,2.37,2.49,3.18-1.88.08-1.68-2.23-1.09,1.02.05,1.32-1.55.06Z" fill="#231815"/>
            <path d="m269.3,247.32l-.52-5.54,5.17-.48.11,1.17-3.64.34.09.98,3.18-.3.11,1.14-3.18.3.1,1.06,3.69-.35.11,1.18-5.23.49Z" fill="#231815"/>
            <path d="m275.68,246.69l-.83-5.5,3.88-.58c.41-.06.75-.03,1.04.08s.52.3.7.55c.17.25.28.53.33.85.05.35.02.68-.1.99-.12.3-.33.56-.62.77l1.44,1.97-1.72.26-1.2-1.74-1.69.25.28,1.88-1.53.23Zm1.08-3.25l1.95-.29c.2-.03.35-.11.44-.26.1-.14.13-.32.1-.53-.02-.13-.06-.24-.13-.33-.07-.09-.15-.15-.26-.19s-.22-.05-.36-.03l-1.95.29.2,1.34Z" fill="#231815"/>
            <path d="m287.29,244.67c-.98.23-1.78.18-2.39-.16-.61-.34-1.03-.99-1.26-1.93-.15-.62-.14-1.17.01-1.64s.45-.88.89-1.2c.44-.32.99-.57,1.67-.73.41-.1.81-.15,1.2-.15s.73.05,1.04.15c.31.1.57.26.78.47s.36.49.44.84l-1.46.35c-.04-.15-.11-.27-.21-.36-.11-.09-.23-.16-.38-.2-.15-.04-.32-.06-.5-.05-.18,0-.37.03-.56.08-.28.07-.52.16-.73.27-.21.12-.37.26-.49.42-.12.17-.19.35-.22.56-.03.21-.02.43.04.68l.06.27c.08.35.22.62.4.81.18.2.41.32.68.37.27.05.59.03.95-.05.3-.07.56-.17.78-.3.21-.13.37-.27.47-.44.1-.16.12-.34.08-.53v-.04s-1.68.4-1.68.4l-.24-1.01,3.14-.75.71,2.99-.88.21-.29-.57c-.14.2-.31.38-.51.54-.2.16-.43.29-.68.41-.25.11-.54.21-.86.28Z" fill="#231815"/>
            <path d="m294.75,242.59c-.64.21-1.23.28-1.77.22-.54-.06-1-.25-1.38-.57-.38-.32-.67-.78-.87-1.38-.19-.6-.23-1.14-.11-1.62.12-.49.38-.91.78-1.27.4-.36.92-.64,1.56-.85.65-.21,1.24-.29,1.78-.23s.99.25,1.37.57c.38.32.67.78.87,1.38.19.6.23,1.14.11,1.62s-.38.91-.77,1.27c-.4.36-.92.65-1.57.86Zm-.36-1.12c.25-.08.46-.19.64-.32.17-.13.31-.29.41-.46.1-.17.16-.37.17-.57.01-.21-.02-.43-.09-.66l-.08-.26c-.08-.23-.18-.43-.31-.59-.13-.16-.29-.28-.48-.36-.18-.08-.38-.12-.6-.13-.22,0-.45.04-.71.12-.25.08-.46.19-.64.32-.18.13-.32.28-.41.46-.1.17-.15.36-.16.57-.01.21.02.43.09.66l.09.26c.07.23.18.43.31.59.13.16.29.28.47.37s.38.13.6.13c.22,0,.46-.03.7-.11Z" fill="#231815"/>
            <path d="m298.99,241.04l-2.2-5.11,2.5-1.07c.59-.25,1.13-.38,1.63-.37.5,0,.94.15,1.33.44.39.28.7.71.94,1.27s.33,1.09.27,1.56c-.06.48-.26.9-.6,1.27-.34.37-.8.68-1.39.94l-2.5,1.07Zm.95-1.7l1.03-.44c.22-.09.4-.21.55-.34.15-.13.26-.28.33-.45.07-.17.1-.35.09-.54-.01-.2-.06-.4-.15-.61l-.11-.25c-.09-.22-.21-.4-.34-.54-.13-.14-.29-.24-.46-.31-.17-.06-.36-.09-.56-.07s-.41.07-.63.16l-1.03.44,1.27,2.95Z" fill="#231815"/>
          </g>
          <g>
            <path d="m234.97,231.52c-.29,0-.56-.02-.81-.06s-.47-.1-.66-.19c-.19-.09-.34-.22-.44-.38-.11-.16-.16-.37-.16-.62v-.03s0-.03,0-.04h1.22s0,.03,0,.04v.04c0,.11.03.19.09.25.06.06.15.1.26.12.11.02.24.03.38.03.06,0,.12,0,.18,0,.06,0,.12,0,.18-.02s.11-.02.16-.04.08-.04.11-.07c.03-.03.04-.07.04-.12,0-.07-.04-.12-.11-.16-.07-.04-.17-.07-.29-.09-.12-.02-.26-.05-.41-.07-.15-.02-.31-.05-.47-.08-.16-.03-.32-.07-.47-.13-.15-.05-.29-.12-.41-.21-.12-.09-.22-.2-.29-.33-.07-.13-.11-.3-.11-.49,0-.22.05-.4.15-.55.1-.15.24-.27.42-.37.18-.09.38-.16.6-.21.23-.04.46-.06.71-.06s.49.02.71.06.42.11.59.2.31.21.4.35.15.32.15.53v.06h-1.21v-.02c0-.07-.02-.13-.06-.19-.04-.06-.1-.1-.19-.14-.09-.03-.2-.05-.35-.05s-.26.01-.35.03c-.09.02-.16.05-.21.09-.05.04-.07.08-.07.12,0,.06.04.12.11.16.07.04.17.07.29.1.12.03.26.05.41.07.15.02.31.05.47.08.16.03.32.07.47.12.15.05.29.12.41.2.12.08.22.19.29.32.07.13.11.28.11.47,0,.31-.08.56-.24.75-.16.19-.38.33-.66.42-.28.09-.59.13-.94.13Z" fill="#231815"/>
            <path d="m239.47,231.52c-.45,0-.83-.06-1.14-.19s-.54-.32-.7-.58-.24-.57-.24-.94v-2.08h1.27v2.04c0,.25.07.46.21.61.14.15.33.23.59.23s.46-.08.6-.23c.14-.15.21-.35.21-.61v-2.04h1.27v2.08c0,.37-.08.69-.23.94-.16.25-.39.45-.69.58s-.69.19-1.14.19Z" fill="#231815"/>
            <path d="m242.34,231.45v-3.73h1.09l1.5,1.45s.06.06.11.12c.05.05.1.11.15.16s.09.1.12.14h.04v-1.86h1.17v3.73h-1.08l-1.53-1.48c-.07-.07-.13-.14-.2-.2-.06-.07-.12-.13-.17-.18h-.04c0,.06,0,.13,0,.21v1.64h-1.18Z" fill="#231815"/>
            <path d="m248.59,231.45v-3.73h1.88l.4,1.34c.02.06.05.14.08.25.03.1.06.21.09.32.03.11.05.22.08.31h.04c.02-.08.04-.16.07-.27s.06-.21.09-.32c.03-.11.06-.21.08-.3l.4-1.34h1.82v3.73h-1.24v-1.48c0-.12,0-.24,0-.37,0-.13,0-.26,0-.38,0-.12,0-.22,0-.31h-.04c-.02.08-.04.17-.07.27s-.06.21-.08.31-.06.19-.08.26l-.53,1.7h-1.04l-.54-1.7c-.03-.09-.06-.19-.09-.3s-.06-.21-.08-.3c-.02-.1-.04-.18-.06-.24h-.04c0,.08,0,.17.01.29,0,.12,0,.24,0,.37s0,.26,0,.39v1.48h-1.16Z" fill="#231815"/>
            <path d="m256.5,231.52c-.47,0-.87-.07-1.2-.22-.34-.15-.59-.37-.77-.66-.18-.29-.27-.64-.27-1.05s.09-.77.27-1.05c.18-.29.44-.5.77-.65s.74-.22,1.2-.22.87.07,1.21.22c.34.15.59.37.77.65.18.29.27.64.27,1.05s-.09.76-.27,1.05c-.18.29-.44.51-.77.66-.34.15-.74.22-1.21.22Zm0-.91c.15,0,.29-.02.4-.06s.22-.11.3-.19c.08-.08.15-.18.19-.29s.06-.23.06-.37v-.24c0-.13-.02-.25-.06-.36s-.1-.2-.19-.28c-.08-.08-.18-.14-.3-.18-.12-.04-.25-.06-.4-.06s-.28.02-.4.06c-.12.04-.22.1-.3.18-.08.08-.14.17-.18.28-.04.11-.06.23-.06.36v.24c0,.13.02.26.06.37.04.11.1.21.18.29.08.08.18.14.3.19s.25.06.4.06Z" fill="#231815"/>
            <path d="m261.49,231.52c-.47,0-.87-.07-1.2-.22-.34-.15-.59-.37-.77-.66-.18-.29-.27-.64-.27-1.05s.09-.77.27-1.05c.18-.29.44-.5.77-.65s.74-.22,1.2-.22.87.07,1.21.22c.34.15.59.37.77.65.18.29.27.64.27,1.05s-.09.76-.27,1.05c-.18.29-.44.51-.77.66-.34.15-.74.22-1.21.22Zm0-.91c.15,0,.29-.02.4-.06s.22-.11.3-.19c.08-.08.15-.18.19-.29s.06-.23.06-.37v-.24c0-.13-.02-.25-.06-.36s-.1-.2-.19-.28c-.08-.08-.18-.14-.3-.18-.12-.04-.25-.06-.4-.06s-.28.02-.4.06c-.12.04-.22.1-.3.18-.08.08-.14.17-.18.28-.04.11-.06.23-.06.36v.24c0,.13.02.26.06.37.04.11.1.21.18.29.08.08.18.14.3.19s.25.06.4.06Z" fill="#231815"/>
            <path d="m264.39,231.45v-3.73h1.09l1.5,1.45s.06.06.11.12.1.11.15.16c.05.06.09.1.12.14h.04v-1.86h1.17v3.73h-1.08l-1.53-1.48c-.07-.07-.13-.14-.2-.2-.06-.07-.12-.13-.16-.18h-.04c0,.06,0,.13,0,.21v1.64h-1.18Z" fill="#231815"/>
            <path d="m270.64,231.45v-3.73h1.27v2.73h2.17v.99h-3.43Z" fill="#231815"/>
            <path d="m274.23,231.45l1.58-3.73h1.44l1.58,3.73h-1.35l-.19-.51h-1.57l-.18.51h-1.31Zm1.82-1.39h.91l-.22-.61s-.03-.08-.05-.14-.04-.11-.06-.18c-.02-.06-.04-.13-.06-.19s-.04-.12-.05-.17h-.04c-.02.06-.04.14-.07.22-.03.08-.05.16-.08.24s-.05.15-.08.22l-.22.61Z" fill="#231815"/>
            <path d="m279.27,231.45v-3.73h1.27v1.62l1.57-1.62h1.57l-1.49,1.53,1.53,2.2h-1.52l-.92-1.4-.73.64v.76h-1.27Z" fill="#231815"/>
            <path d="m284.22,231.45v-3.73h3.6v.91h-2.33v.5h2v.87h-2v.54h2.37v.91h-3.64Z" fill="#231815"/>
          </g>
        </g>
      </g>
      <g>
        <path d="m257.83,285.39c-.08,0-4.53-.15-7.91,1.32.23.19.46.38.71.55,1.71,1.42,6.04,5.49,5.8,9.95h2.82c-.25-4.47,4.09-8.53,5.8-9.95.24-.17.47-.35.69-.54-3.38-1.49-7.85-1.34-7.9-1.34Z" fill="#e62320"/>
        <path d="m249.28,284.11c3.58-1.71,8.35-1.55,8.56-1.54.19,0,4.97-.17,8.55,1.55,2.37-2.26,3.85-5.44,3.85-8.97,0-6.85-5.55-12.4-12.4-12.4s-12.4,5.55-12.4,12.4c0,3.53,1.48,6.7,3.84,8.96Z" fill="#e62320"/>
      </g>
    </g>
  </g>
</svg>