<?xml version="1.0" encoding="UTF-8"?>
<svg id="_圖層_2" data-name="圖層 2" xmlns="http://www.w3.org/2000/svg" width="1909.34" height="73.79" viewBox="0 0 1909.34 73.79">
  <g id="icon">
    <g>
      <path d="m0,72.69V3.61h58.09v69.08h-10.05v-4.71H10.05v4.71H0ZM48.04,31.01V12.87H10.05v18.13h37.99Zm-37.99,9.03v18.68h37.99v-18.68H10.05Z" fill="#fff"/>
      <path d="m81.48,2.67h54.87v59.82c0,6.28-3.14,9.42-9.42,9.42h-15.7l-2.43-9.26h17.74v-13.35h-36.58c-.68,4.71-1.74,9-3.18,12.87-1.44,3.87-3.42,7.75-5.93,11.62l-9.03-6.83c2.56-3.77,4.54-7.48,5.93-11.15,1.39-3.66,2.35-7.82,2.9-12.48.55-4.66.82-10.52.82-17.58V2.67Zm45.06,37.92v-10.21h-35.25c-.05,2.72-.18,6.12-.39,10.21h35.64Zm0-18.92v-10.21h-35.25v10.21h35.25Z" fill="#fff"/>
      <path d="m160.92,37.21c-3.51-3.66-7.59-7.38-12.25-11.15l6.59-7.14c2.04,1.57,4.16,3.39,6.36,5.46,2.2,2.07,4.03,3.96,5.5,5.69l-6.2,7.14Zm-11.38,30.62c1.73-3.24,3.32-7.05,4.79-11.42,1.46-4.37,2.72-8.96,3.77-13.78l8.32,2.9c-.79,4.5-1.91,9.37-3.38,14.6-1.47,5.23-3.11,9.73-4.95,13.5l-8.56-5.81ZM166.97,1.88h55.19v7.22h-16.96v3.22h15.07v17.35h-51.57V12.33h14.68v-3.22h-14.37l.55.55-5.81,7.46c-4.19-3.92-8.11-7.22-11.77-9.89l6.12-7.22c2.77,1.83,5.73,4.24,8.87,7.22V1.88Zm51.65,55.5h-20.96v3.22h24.49v7.38h-24.49v5.73h-8.71v-5.73h-21.98v-7.38h21.98v-3.22h-19v-24.88h48.67v24.88Zm-35.25-38.62h-6.52v4.4h6.52v-4.4Zm26.38,23v-2.75h-31.24v2.75h31.24Zm0,6.12h-31.24v2.98h31.24v-2.98Zm-18.6-35.56h6.28v-3.22h-6.28v3.22Zm6.28,6.44h-6.28v4.4h6.28v-4.4Zm14.68,4.4v-4.4h-6.91v4.4h6.91Z" fill="#fff"/>
      <path d="m267.37,58.4l7.93-7.85c3.87,4.5,8.71,6.75,14.52,6.75,3.09,0,5.44-.65,7.07-1.96,1.62-1.31,2.43-3.11,2.43-5.42,0-1.83-.54-3.3-1.61-4.4-1.07-1.1-2.92-1.83-5.53-2.2l-5.57-.79c-11.67-1.62-17.5-7.3-17.5-17.03,0-3.4.86-6.41,2.59-9.03,1.73-2.62,4.2-4.64,7.42-6.08,3.22-1.44,7-2.16,11.34-2.16,8.37,0,14.97,2.75,19.78,8.24l-7.93,7.85c-1.52-1.78-3.28-3.15-5.3-4.12-2.01-.97-4.43-1.45-7.26-1.45s-5.05.52-6.52,1.57c-1.47,1.05-2.2,2.54-2.2,4.47s.56,3.47,1.69,4.43c1.12.97,3,1.66,5.61,2.08l5.57.94c5.91,1.05,10.28,2.93,13.11,5.65,2.83,2.72,4.24,6.49,4.24,11.3,0,3.66-.88,6.9-2.63,9.69-1.75,2.8-4.3,4.99-7.65,6.55-3.35,1.57-7.33,2.36-11.93,2.36-8.79,0-16.01-3.14-21.67-9.42Z" fill="#fff"/>
      <path d="m321.45,9.26h11.62v35.32c0,4.29.84,7.47,2.51,9.54,1.67,2.07,4.4,3.1,8.16,3.1s6.5-1.03,8.2-3.1c1.7-2.07,2.55-5.25,2.55-9.54V9.26h11.62v33.99c0,5.76-.73,10.43-2.2,14.01-1.47,3.59-3.83,6.24-7.1,7.97-3.27,1.73-7.63,2.59-13.07,2.59s-9.79-.86-13.03-2.59c-3.25-1.73-5.6-4.38-7.07-7.97-1.47-3.58-2.2-8.25-2.2-14.01V9.26Z" fill="#fff"/>
      <path d="m390.06,66.8h-11.23V9.26h13.03l16.41,28.18,5.5,11.7h.31V9.26h11.23v57.54h-13.03l-16.41-28.18-5.57-11.7h-.24v39.88Z" fill="#fff"/>
      <path d="m449.57,66.8h-11.23V9.26h12.64l14.52,27.47h.24l14.29-27.47h12.72v57.54h-11.23V27.79h-.24l-4.24,8.56-11.54,20.96-11.3-20.88-4.4-9.11h-.24v39.49Z" fill="#fff"/>
      <path d="m515.35,64.41c-3.77-2.28-6.69-5.64-8.75-10.09-2.07-4.45-3.1-9.86-3.1-16.25s1.03-11.81,3.1-16.29c2.07-4.47,4.98-7.85,8.75-10.13,3.77-2.28,8.21-3.41,13.34-3.41s9.5,1.14,13.27,3.41c3.77,2.28,6.68,5.65,8.75,10.13,2.07,4.47,3.1,9.9,3.1,16.29s-1.03,11.8-3.1,16.25c-2.07,4.45-4.99,7.81-8.75,10.09-3.77,2.28-8.19,3.42-13.27,3.42s-9.58-1.14-13.34-3.42Zm22.45-11.11c2.25-2.62,3.38-6.25,3.38-10.91v-8.71c0-4.66-1.13-8.29-3.38-10.91-2.25-2.62-5.29-3.93-9.11-3.93s-7,1.31-9.22,3.93c-2.23,2.62-3.34,6.25-3.34,10.91v8.71c0,4.66,1.11,8.29,3.34,10.91,2.22,2.62,5.3,3.92,9.22,3.92s6.86-1.31,9.11-3.92Z" fill="#fff"/>
      <path d="m574.14,64.41c-3.77-2.28-6.69-5.64-8.75-10.09-2.07-4.45-3.1-9.86-3.1-16.25s1.03-11.81,3.1-16.29c2.07-4.47,4.98-7.85,8.75-10.13,3.77-2.28,8.21-3.41,13.34-3.41s9.5,1.14,13.27,3.41c3.77,2.28,6.68,5.65,8.75,10.13,2.07,4.47,3.1,9.9,3.1,16.29s-1.03,11.8-3.1,16.25c-2.07,4.45-4.99,7.81-8.75,10.09-3.77,2.28-8.19,3.42-13.27,3.42s-9.58-1.14-13.34-3.42Zm22.45-11.11c2.25-2.62,3.38-6.25,3.38-10.91v-8.71c0-4.66-1.13-8.29-3.38-10.91-2.25-2.62-5.29-3.93-9.11-3.93s-7,1.31-9.22,3.93c-2.23,2.62-3.34,6.25-3.34,10.91v8.71c0,4.66,1.11,8.29,3.34,10.91,2.22,2.62,5.3,3.92,9.22,3.92s6.86-1.31,9.11-3.92Z" fill="#fff"/>
      <path d="m634.59,66.8h-11.23V9.26h13.03l16.41,28.18,5.5,11.7h.31V9.26h11.23v57.54h-13.03l-16.41-28.18-5.57-11.7h-.24v39.88Z" fill="#fff"/>
      <path d="m716.78,56.21v10.6h-33.91V9.26h11.93v46.94h21.98Z" fill="#fff"/>
      <path d="m734.83,66.8h-12.09l19.08-57.54h14.76l18.92,57.54h-12.4l-4.32-14.05h-19.7l-4.24,14.05Zm13.82-46.71l-6.75,22.53h13.97l-6.83-22.53h-.39Z" fill="#fff"/>
      <path d="m795.59,66.8h-11.93V9.26h11.93v27.79h.47l8.08-10.99,13.5-16.8h13.5l-19.62,23.79,21.27,33.75h-14.05l-15.62-25.43-7.54,9.03v16.41Z" fill="#fff"/>
      <path d="m879.04,56.21v10.6h-38.62V9.26h38.62v10.6h-26.69v12.56h23.08v10.52h-23.08v13.27h26.69Z" fill="#fff"/>
      <path d="m997.57,20.7h-31.48v4.97h28.89v38.83c0,2.7-.67,4.58-2,5.63-1.33,1.05-3.68,1.57-7.03,1.57h-10.99l-2.12-7.35h12.56v-31.55h-46.86v39.67h-9.42V25.67h27.24v-4.97h-30.22v-7.49h30.22v-5.25h9.73v5.25h31.48v7.49Zm-16.01,39.6h-15.86v10.7h-8.95v-10.7h-14.6v-6.72h14.6v-4.83h-15.46v-6.72h8.32c-1.26-2.28-2.49-4.2-3.69-5.74l7.54-2.8c1.41,1.59,2.9,3.89,4.47,6.93l-4.4,1.61h10.99c1.78-2.56,3.3-5.32,4.55-8.25l7.85,2.24c-1.21,2.43-2.33,4.43-3.38,6.02h8.95v6.72h-16.8v4.83h15.86v6.72Z" fill="#fff"/>
      <path d="m1042.39,44.7c-3.45,1.12-5.86,1.84-7.22,2.17v16.79c0,3.03-.66,5.12-1.96,6.26-1.31,1.14-3.66,1.71-7.06,1.71h-6.75l-2.67-8.4h9.5v-14.13c-2.88.61-6.1,1.19-9.66,1.75l-1.33-8.12c4.13-.65,7.8-1.3,10.99-1.96v-13.71h-9.89v-7.91h9.89v-11.12h8.95v11.12h8.79v7.91h-8.79v11.68c2.46-.65,4.53-1.24,6.2-1.75l1.02,7.7Zm40.74,0c-2.3,5.6-5.78,10.38-10.44,14.34,4.29,2.33,9.21,4.31,14.76,5.95l-3.53,7.84c-7.33-2.43-13.58-5.25-18.76-8.46-5.81,3.4-12.98,6.27-21.51,8.6l-3.61-7.7c6.75-1.58,12.64-3.64,17.66-6.16-2.93-2.38-6.2-5.36-9.81-8.96l5.89-4.2h-7.93v-7.35h37.29v6.09Zm-2.91-25.95l7.22,2.45v6.86c0,2.71-.48,4.62-1.45,5.74-.97,1.12-2.87,1.68-5.69,1.68h-3.92c-2.2,0-3.89-.21-5.06-.63-1.18-.42-2.02-1.14-2.51-2.17-.5-1.03-.75-2.54-.75-4.55v-11.33h-9.5v2.1c0,4.85-.98,8.73-2.94,11.65s-4.64,5.52-8.05,7.8l-4.87-7.14c2.04-1.35,3.58-2.59,4.63-3.71,1.05-1.12,1.82-2.51,2.32-4.16.5-1.66.75-3.86.75-6.61v-7.21h25.98v16.93c0,.79.1,1.29.31,1.5.21.21.68.31,1.41.31h2.12v-9.51Zm-24.96,27.21c3.51,3.36,6.83,6.18,9.97,8.46,3.24-2.47,5.83-5.29,7.77-8.46h-17.74Z" fill="#fff"/>
      <path d="m1105.03,66.24c2.93-4.52,5.23-9.42,6.91-14.69l7.85,2.24c-.84,2.94-1.91,5.96-3.22,9.06-1.31,3.1-2.7,5.79-4.16,8.08l-7.38-4.69Zm35.95-23.72v7h-11.78v23.16h-8.79v-23.16h-13.34V10.84h7.85v31.69h26.06Zm-23.08-33.37h21.82v30.92h-21.82V9.16Zm7.22,8.75h7.22v-3.01h-7.22v3.01Zm0,8.25h7.22v-3.15h-7.22v3.15Zm0,8.26h7.22v-3.15h-7.22v3.15Zm21.19,17.35l7.54,1.75c-.68,2.99-1.56,6.02-2.63,9.09-1.07,3.08-2.19,5.74-3.34,7.97l-7.93-3.5c.52-.84.89-1.49,1.1-1.96l-5.73,3.01c-.99-3.4-2.8-7.93-5.42-13.57l7.07-2.94c1.83,3.03,3.56,6.86,5.18,11.47,1.73-3.64,3.11-7.42,4.16-11.33Zm17.19-3.71v24.35h-8.63v-23.79c-5.65.28-9.79.47-12.4.56l-.94-7.62,2.9-.07c1.2,0,3.11-.05,5.73-.14,1.83-1.87,2.88-2.96,3.14-3.29-2.83-2.38-6.72-5.27-11.7-8.67l4.95-5.67,2.67,1.75c1.78-2.38,3.4-4.87,4.87-7.49-2.15.19-5.81.44-10.99.77l-2.04-6.86c13.76-.79,24.28-1.98,31.56-3.57l4.63,6.23c-3.92.93-8.27,1.7-13.03,2.31-2.93,5.08-5.86,9.42-8.79,13.01,1.36,1.03,2.35,1.82,2.98,2.38,3.98-4.94,7.12-9.38,9.42-13.29l7.62,3.71c-4.03,6.2-8.87,12.29-14.52,18.26,3.66-.19,6.33-.35,8.01-.49-.73-1.86-1.49-3.64-2.28-5.32l6.99-2.94c2.51,5.22,4.6,10.47,6.28,15.74l-7.14,2.94-1.18-3.57c-3.19.33-5.89.58-8.09.77Zm8.09,2.66c2.77,4.57,5.42,10.14,7.93,16.72l-7.93,3.29c-2.51-6.95-5-12.87-7.46-17.77l7.46-2.24Z" fill="#fff"/>
      <path d="m1242.41,66.8h-11.23V9.26h13.03l16.41,28.18,5.5,11.7h.31V9.26h11.23v57.54h-13.03l-16.41-28.18-5.57-11.7h-.24v39.88Z" fill="#fff"/>
      <path d="m1297.91,66.8h-12.09l19.08-57.54h14.76l18.92,57.54h-12.4l-4.32-14.05h-19.7l-4.24,14.05Zm13.82-46.71l-6.75,22.53h13.97l-6.83-22.53h-.39Z" fill="#fff"/>
      <path d="m1357.96,66.8h-11.23V9.26h13.03l16.41,28.18,5.5,11.7h.31V9.26h11.23v57.54h-13.03l-16.41-28.18-5.57-11.7h-.24v39.88Z" fill="#fff"/>
      <path d="m1445.64,9.26v10.6h-15.94v46.94h-11.93V19.86h-15.94v-10.6h43.8Z" fill="#fff"/>
      <path d="m1461.89,64.41c-3.77-2.28-6.69-5.64-8.75-10.09-2.07-4.45-3.1-9.86-3.1-16.25s1.03-11.81,3.1-16.29c2.07-4.47,4.98-7.85,8.75-10.13,3.77-2.28,8.21-3.41,13.34-3.41s9.5,1.14,13.27,3.41c3.77,2.28,6.68,5.65,8.75,10.13,2.07,4.47,3.1,9.9,3.1,16.29s-1.03,11.8-3.1,16.25c-2.07,4.45-4.99,7.81-8.75,10.09-3.77,2.28-8.19,3.42-13.27,3.42s-9.58-1.14-13.34-3.42Zm22.45-11.11c2.25-2.62,3.38-6.25,3.38-10.91v-8.71c0-4.66-1.13-8.29-3.38-10.91-2.25-2.62-5.29-3.93-9.11-3.93s-7,1.31-9.22,3.93c-2.23,2.62-3.34,6.25-3.34,10.91v8.71c0,4.66,1.11,8.29,3.34,10.91,2.22,2.62,5.3,3.92,9.22,3.92s6.86-1.31,9.11-3.92Z" fill="#fff"/>
      <path d="m1510.8,9.26h11.62v35.32c0,4.29.84,7.47,2.51,9.54,1.67,2.07,4.4,3.1,8.16,3.1s6.5-1.03,8.2-3.1c1.7-2.07,2.55-5.25,2.55-9.54V9.26h11.62v33.99c0,5.76-.73,10.43-2.2,14.01-1.47,3.59-3.83,6.24-7.1,7.97-3.27,1.73-7.63,2.59-13.07,2.59s-9.79-.86-13.03-2.59c-3.25-1.73-5.6-4.38-7.07-7.97-1.47-3.58-2.2-8.25-2.2-14.01V9.26Z" fill="#fff"/>
      <path d="m1592.08,60.29c-4.47-5.02-6.71-12.3-6.71-21.82,0-6.38,1.02-11.84,3.06-16.37,2.04-4.53,4.96-7.97,8.75-10.32,3.79-2.36,8.25-3.53,13.38-3.53s9.5,1.1,12.95,3.3c3.45,2.2,6.23,5.6,8.32,10.21l-10.28,5.26c-1.78-5.44-5.44-8.16-10.99-8.16-3.82,0-6.87,1.28-9.15,3.85-2.28,2.56-3.41,6.18-3.41,10.83v9.11c0,4.61,1.14,8.19,3.41,10.75,2.28,2.57,5.33,3.85,9.15,3.85,2.93,0,5.36-.8,7.3-2.39,1.94-1.6,3.4-3.7,4.4-6.32l9.73,5.57c-4.4,9.16-11.54,13.74-21.43,13.74-7.85,0-14.01-2.51-18.49-7.54Z" fill="#fff"/>
      <path d="m1649.58,64.41c-3.77-2.28-6.69-5.64-8.75-10.09-2.07-4.45-3.1-9.86-3.1-16.25s1.03-11.81,3.1-16.29c2.07-4.47,4.98-7.85,8.75-10.13,3.77-2.28,8.21-3.41,13.34-3.41s9.5,1.14,13.27,3.41c3.77,2.28,6.68,5.65,8.75,10.13,2.07,4.47,3.1,9.9,3.1,16.29s-1.03,11.8-3.1,16.25c-2.07,4.45-4.99,7.81-8.75,10.09-3.77,2.28-8.19,3.42-13.27,3.42s-9.58-1.14-13.34-3.42Zm22.45-11.11c2.25-2.62,3.38-6.25,3.38-10.91v-8.71c0-4.66-1.13-8.29-3.38-10.91-2.25-2.62-5.29-3.93-9.11-3.93s-7,1.31-9.22,3.93c-2.23,2.62-3.34,6.25-3.34,10.91v8.71c0,4.66,1.11,8.29,3.34,10.91,2.22,2.62,5.3,3.92,9.22,3.92s6.86-1.31,9.11-3.92Z" fill="#fff"/>
      <path d="m1698.49,9.26h11.62v35.32c0,4.29.84,7.47,2.51,9.54,1.67,2.07,4.4,3.1,8.16,3.1s6.5-1.03,8.2-3.1c1.7-2.07,2.55-5.25,2.55-9.54V9.26h11.62v33.99c0,5.76-.73,10.43-2.2,14.01-1.47,3.59-3.83,6.24-7.1,7.97-3.27,1.73-7.63,2.59-13.07,2.59s-9.79-.86-13.03-2.59c-3.25-1.73-5.6-4.38-7.07-7.97-1.47-3.58-2.2-8.25-2.2-14.01V9.26Z" fill="#fff"/>
      <path d="m1767.1,66.8h-11.23V9.26h13.03l16.41,28.18,5.5,11.7h.31V9.26h11.23v57.54h-13.03l-16.41-28.18-5.57-11.7h-.24v39.88Z" fill="#fff"/>
      <path d="m1854.78,9.26v10.6h-15.94v46.94h-11.93V19.86h-15.94v-10.6h43.8Z" fill="#fff"/>
      <path d="m1889.56,44.12v22.69h-12.01v-22.53l-19.78-35.01h13.34l12.72,23.47h.16l12.4-23.47h12.95l-19.78,34.85Z" fill="#fff"/>
    </g>
  </g>
</svg>