<?xml version="1.0" encoding="UTF-8"?>
<svg id="_圖層_2" data-name="圖層 2" xmlns="http://www.w3.org/2000/svg" width="2963.97" height="73.95" viewBox="0 0 2963.97 73.95">
  <g id="icon">
    <g>
      <path d="m71.43,20.78h-31.48v4.97h28.89v38.83c0,2.7-.67,4.58-2,5.63-1.33,1.05-3.68,1.57-7.03,1.57h-10.99l-2.12-7.35h12.56v-31.55H12.4v39.67H2.98V25.75h27.24v-4.97H0v-7.49h30.22v-5.25h9.73v5.25h31.48v7.49Zm-16.01,39.6h-15.86v10.7h-8.95v-10.7h-14.6v-6.72h14.6v-4.83h-15.46v-6.72h8.32c-1.26-2.28-2.49-4.2-3.69-5.74l7.54-2.8c1.41,1.59,2.9,3.89,4.47,6.93l-4.4,1.61h10.99c1.78-2.56,3.3-5.32,4.55-8.25l7.85,2.24c-1.2,2.43-2.33,4.43-3.38,6.02h8.95v6.72h-16.8v4.83h15.86v6.72Z" fill="#092a31"/>
      <path d="m116.26,44.77c-3.45,1.12-5.86,1.84-7.22,2.17v16.79c0,3.03-.65,5.12-1.96,6.26-1.31,1.14-3.66,1.71-7.06,1.71h-6.75l-2.67-8.4h9.5v-14.13c-2.88.61-6.1,1.19-9.66,1.75l-1.33-8.12c4.13-.65,7.8-1.3,10.99-1.96v-13.71h-9.89v-7.91h9.89v-11.12h8.95v11.12h8.79v7.91h-8.79v11.68c2.46-.65,4.53-1.24,6.2-1.75l1.02,7.7Zm40.74,0c-2.3,5.6-5.78,10.38-10.44,14.34,4.29,2.33,9.21,4.31,14.76,5.95l-3.53,7.84c-7.33-2.43-13.58-5.25-18.76-8.46-5.81,3.4-12.98,6.27-21.51,8.6l-3.61-7.7c6.75-1.58,12.64-3.64,17.66-6.16-2.93-2.38-6.2-5.36-9.81-8.96l5.89-4.2h-7.93v-7.35h37.29v6.09Zm-2.9-25.95l7.22,2.45v6.86c0,2.71-.48,4.62-1.45,5.74-.97,1.12-2.87,1.68-5.69,1.68h-3.93c-2.2,0-3.89-.21-5.06-.63-1.18-.42-2.02-1.14-2.51-2.17-.5-1.03-.75-2.54-.75-4.55v-11.33h-9.5v2.1c0,4.85-.98,8.73-2.94,11.65s-4.65,5.52-8.05,7.8l-4.87-7.14c2.04-1.35,3.58-2.59,4.63-3.71,1.05-1.12,1.82-2.51,2.32-4.16.5-1.66.75-3.86.75-6.61v-7.21h25.98v16.93c0,.79.1,1.29.31,1.5.21.21.68.31,1.41.31h2.12v-9.51Zm-24.96,27.21c3.51,3.36,6.83,6.18,9.97,8.46,3.24-2.47,5.83-5.29,7.77-8.46h-17.74Z" fill="#092a31"/>
      <path d="m178.9,66.32c2.93-4.52,5.23-9.42,6.91-14.69l7.85,2.24c-.84,2.94-1.91,5.96-3.22,9.06-1.31,3.1-2.7,5.79-4.16,8.08l-7.38-4.69Zm35.95-23.72v7h-11.78v23.16h-8.79v-23.16h-13.34V10.91h7.85v31.69h26.06Zm-23.08-33.37h21.82v30.92h-21.82V9.24Zm7.22,8.75h7.22v-3.01h-7.22v3.01Zm0,8.25h7.22v-3.15h-7.22v3.15Zm0,8.26h7.22v-3.15h-7.22v3.15Zm21.19,17.35l7.54,1.75c-.68,2.99-1.56,6.02-2.63,9.09-1.07,3.08-2.19,5.74-3.34,7.97l-7.93-3.5c.52-.84.89-1.49,1.1-1.96l-5.73,3.01c-.99-3.4-2.8-7.93-5.42-13.57l7.07-2.94c1.83,3.03,3.56,6.86,5.18,11.47,1.73-3.64,3.11-7.42,4.16-11.33Zm17.19-3.71v24.35h-8.63v-23.79c-5.65.28-9.79.47-12.4.56l-.94-7.62,2.9-.07c1.2,0,3.11-.05,5.73-.14,1.83-1.87,2.88-2.96,3.14-3.29-2.83-2.38-6.72-5.27-11.7-8.67l4.95-5.67,2.67,1.75c1.78-2.38,3.4-4.87,4.87-7.49-2.15.19-5.81.44-10.99.77l-2.04-6.86c13.76-.79,24.28-1.98,31.56-3.57l4.63,6.23c-3.92.93-8.27,1.7-13.03,2.31-2.93,5.08-5.86,9.42-8.79,13.01,1.36,1.03,2.35,1.82,2.98,2.38,3.98-4.94,7.12-9.38,9.42-13.29l7.62,3.71c-4.03,6.2-8.87,12.29-14.52,18.26,3.66-.19,6.33-.35,8.01-.49-.73-1.86-1.49-3.64-2.28-5.32l6.99-2.94c2.51,5.22,4.6,10.47,6.28,15.74l-7.14,2.94-1.18-3.57c-3.19.33-5.89.58-8.09.77Zm8.09,2.66c2.77,4.57,5.42,10.14,7.93,16.72l-7.93,3.29c-2.51-6.95-5-12.87-7.46-17.77l7.46-2.24Z" fill="#092a31"/>
      <path d="m316.28,66.88h-11.23V9.34h13.03l16.41,28.18,5.5,11.7h.31V9.34h11.23v57.54h-13.03l-16.41-28.18-5.57-11.7h-.24v39.88Z" fill="#092a31"/>
      <path d="m371.77,66.88h-12.09l19.08-57.54h14.76l18.92,57.54h-12.4l-4.32-14.05h-19.7l-4.24,14.05Zm13.82-46.71l-6.75,22.53h13.97l-6.83-22.53h-.39Z" fill="#092a31"/>
      <path d="m431.83,66.88h-11.23V9.34h13.03l16.41,28.18,5.5,11.7h.31V9.34h11.23v57.54h-13.03l-16.41-28.18-5.57-11.7h-.24v39.88Z" fill="#092a31"/>
      <path d="m519.51,9.34v10.6h-15.94v46.94h-11.93V19.94h-15.94v-10.6h43.8Z" fill="#092a31"/>
      <path d="m535.76,64.49c-3.77-2.28-6.69-5.64-8.75-10.09-2.07-4.45-3.1-9.86-3.1-16.25s1.03-11.81,3.1-16.29c2.07-4.47,4.98-7.85,8.75-10.13,3.77-2.28,8.21-3.41,13.34-3.41s9.5,1.14,13.27,3.41c3.77,2.28,6.68,5.65,8.75,10.13,2.07,4.47,3.1,9.9,3.1,16.29s-1.03,11.8-3.1,16.25c-2.07,4.45-4.99,7.81-8.75,10.09-3.77,2.28-8.19,3.42-13.27,3.42s-9.58-1.14-13.34-3.42Zm22.45-11.11c2.25-2.62,3.38-6.25,3.38-10.91v-8.71c0-4.66-1.13-8.29-3.38-10.91-2.25-2.62-5.29-3.93-9.11-3.93s-7,1.31-9.22,3.93c-2.23,2.62-3.34,6.25-3.34,10.91v8.71c0,4.66,1.11,8.29,3.34,10.91,2.22,2.62,5.3,3.92,9.22,3.92s6.86-1.31,9.11-3.92Z" fill="#092a31"/>
      <path d="m584.66,9.34h11.62v35.32c0,4.29.84,7.47,2.51,9.54,1.67,2.07,4.4,3.1,8.16,3.1s6.5-1.03,8.2-3.1c1.7-2.07,2.55-5.25,2.55-9.54V9.34h11.62v33.99c0,5.76-.73,10.43-2.2,14.01-1.47,3.59-3.83,6.24-7.1,7.97-3.27,1.73-7.63,2.59-13.07,2.59s-9.79-.86-13.03-2.59c-3.25-1.73-5.6-4.38-7.07-7.97-1.47-3.58-2.2-8.25-2.2-14.01V9.34Z" fill="#092a31"/>
      <path d="m665.95,60.37c-4.47-5.02-6.71-12.3-6.71-21.82,0-6.38,1.02-11.84,3.06-16.37,2.04-4.53,4.96-7.97,8.75-10.32,3.79-2.36,8.25-3.53,13.38-3.53s9.5,1.1,12.95,3.3c3.45,2.2,6.23,5.6,8.32,10.21l-10.28,5.26c-1.78-5.44-5.44-8.16-10.99-8.16-3.82,0-6.87,1.28-9.15,3.85-2.28,2.56-3.41,6.18-3.41,10.83v9.11c0,4.61,1.14,8.19,3.41,10.75,2.28,2.57,5.33,3.85,9.15,3.85,2.93,0,5.36-.8,7.3-2.39,1.94-1.6,3.4-3.7,4.4-6.32l9.73,5.57c-4.4,9.16-11.54,13.74-21.43,13.74-7.85,0-14.01-2.51-18.49-7.54Z" fill="#092a31"/>
      <path d="m723.45,64.49c-3.77-2.28-6.69-5.64-8.75-10.09-2.07-4.45-3.1-9.86-3.1-16.25s1.03-11.81,3.1-16.29c2.07-4.47,4.98-7.85,8.75-10.13,3.77-2.28,8.21-3.41,13.34-3.41s9.5,1.14,13.27,3.41c3.77,2.28,6.68,5.65,8.75,10.13,2.07,4.47,3.1,9.9,3.1,16.29s-1.03,11.8-3.1,16.25c-2.07,4.45-4.99,7.81-8.75,10.09-3.77,2.28-8.19,3.42-13.27,3.42s-9.58-1.14-13.34-3.42Zm22.45-11.11c2.25-2.62,3.38-6.25,3.38-10.91v-8.71c0-4.66-1.13-8.29-3.38-10.91-2.25-2.62-5.29-3.93-9.11-3.93s-7,1.31-9.22,3.93c-2.23,2.62-3.34,6.25-3.34,10.91v8.71c0,4.66,1.11,8.29,3.34,10.91,2.22,2.62,5.3,3.92,9.22,3.92s6.86-1.31,9.11-3.92Z" fill="#092a31"/>
      <path d="m772.36,9.34h11.62v35.32c0,4.29.84,7.47,2.51,9.54,1.67,2.07,4.4,3.1,8.16,3.1s6.5-1.03,8.2-3.1c1.7-2.07,2.55-5.25,2.55-9.54V9.34h11.62v33.99c0,5.76-.73,10.43-2.2,14.01-1.47,3.59-3.83,6.24-7.1,7.97-3.27,1.73-7.63,2.59-13.07,2.59s-9.79-.86-13.03-2.59c-3.25-1.73-5.6-4.38-7.07-7.97-1.47-3.58-2.2-8.25-2.2-14.01V9.34Z" fill="#092a31"/>
      <path d="m840.97,66.88h-11.23V9.34h13.03l16.41,28.18,5.5,11.7h.31V9.34h11.23v57.54h-13.03l-16.41-28.18-5.57-11.7h-.24v39.88Z" fill="#092a31"/>
      <path d="m928.65,9.34v10.6h-15.94v46.94h-11.93V19.94h-15.94v-10.6h43.8Z" fill="#092a31"/>
      <path d="m963.42,44.2v22.69h-12.01v-22.53l-19.78-35.01h13.34l12.72,23.47h.16l12.4-23.47h12.95l-19.78,34.85Z" fill="#092a31"/>
      <path d="m1054.17,28.42l-2.83,1.81-6.04-7.62c5.55-3.24,10.18-6.7,13.89-10.36,3.71-3.66,6.93-7.75,9.66-12.25l9.73,2.12-1.88,3.3h23.24v6.44c-1.57,2.62-3.69,5.21-6.36,7.77h17.5v33.21h-56.91v-24.41Zm-8.32,40.43c4.08-4.24,7.35-8.82,9.81-13.74l7.93,2.91c-1,2.56-2.32,5.22-3.96,7.97-1.65,2.75-3.52,5.35-5.61,7.81l-8.16-4.95Zm31.71-41.84h-14.13v5.65h14.13v-5.65Zm0,12.64h-14.13v5.81h14.13v-5.81Zm-6.59-26.3c-1.94,2.25-3.9,4.34-5.89,6.28h16.96c2.3-1.99,4.32-4.08,6.04-6.28h-17.11Zm6.52,43.96c.99,5.02,1.67,10.18,2.04,15.46l-9.73.86c-.21-5.44-.63-10.68-1.26-15.7l8.95-.63Zm15.7-.79c1.94,4.5,3.53,9.53,4.79,15.07l-9.66,1.81c-1-5.71-2.22-10.83-3.69-15.39l8.56-1.49Zm-6.67-23.86h15.31v-5.65h-15.31v5.65Zm0,6.99v5.81h15.31v-5.81h-15.31Zm21.67,15.39c3.82,5.02,6.8,9.84,8.95,14.44l-8.63,3.69c-1.99-4.55-4.74-9.6-8.24-15.15l7.93-2.98Z" fill="#092a31"/>
      <path d="m1136.98,36.42c-4.55-3.45-9.34-6.57-14.37-9.34l5.5-7.85c2.41,1.2,4.87,2.64,7.38,4.32,2.51,1.68,4.76,3.32,6.75,4.95l-5.26,7.93Zm-13.74,30.77c2.41-3.3,4.62-7.09,6.63-11.38,2.01-4.29,3.75-8.79,5.22-13.5l8.4,3.69c-1.36,4.61-3.1,9.46-5.22,14.56-2.12,5.1-4.36,9.49-6.71,13.15l-8.32-6.51Zm17.98-50.32c-5.29-3.66-10.18-6.65-14.68-8.95l5.18-7.85c5.02,2.41,9.89,5.39,14.6,8.95l-5.1,7.85Zm47.02,34.23l8.48,2.43v8.87c0,2.56-.3,4.55-.9,5.97-.6,1.41-1.61,2.42-3.02,3.02-1.41.6-3.4.9-5.97.9h-26.85c-3.82,0-6.57-.82-8.24-2.47s-2.51-4.41-2.51-8.28v-28.73l-4.55,1.18-1.96-8.4,6.52-1.73V6.28h9.26v15.07l7.93-2.12V.94h9.18v15.86l19.23-5.18c-.05,6.7-.14,11.98-.27,15.86-.13,3.87-.38,7.46-.75,10.75-.31,2.62-.81,4.67-1.49,6.16-.68,1.49-1.73,2.59-3.14,3.3-1.41.71-3.38,1.06-5.89,1.06h-3.93l-2.35-8.4h5.1c1.1,0,1.86-.22,2.28-.67.42-.44.68-1.24.79-2.39.42-3.71.65-8.45.71-14.21l-10.28,2.75v29.12h-9.18v-26.69l-7.93,2.04v29.28c0,1.57.26,2.6.79,3.1.52.5,1.57.75,3.14.75h25.83v-12.32Z" fill="#092a31"/>
      <path d="m1219.49,34.54l6.83,2.35c-1.52,9.47-3.79,17.01-6.83,22.61-3.04,5.6-7.33,10.41-12.87,14.44l-4.79-6.91c3.35-2.41,6.07-4.84,8.16-7.3,2.09-2.46,3.85-5.5,5.26-9.11-4.08.84-8.45,1.41-13.11,1.73l-.79-8.16h3.06c2.09-3.3,4.13-6.93,6.12-10.91-1.31-2.15-2.7-4.24-4.16-6.28-1.47-2.04-3.38-4.63-5.73-7.77l4.55-6.12,1.96,2.35c2.09-4.66,3.77-9.6,5.02-14.84l6.83,2.75c-.89,2.88-1.96,5.99-3.22,9.34-1.26,3.35-2.51,6.39-3.77,9.11.84,1.1,1.6,2.17,2.28,3.22,1.99-4.66,3.66-9.03,5.02-13.11l6.44,3.69c-1.62,4.61-3.58,9.46-5.89,14.56-2.3,5.1-4.61,9.62-6.91,13.54,1.05-.05,2.56-.18,4.55-.39.63-2.36,1.28-5.29,1.96-8.79Zm24.26-32.73c-.42,1.2-1.1,2.59-2.04,4.16h7.85v33.13h-14.84v4.79h14.84v8.09h-14.84v4.71h14.84v8.09h-14.84v8.4h-7.85V5.97h6.52c1.2-2.2,2.01-3.98,2.43-5.34l7.93,1.18Zm-9.18,16.8h7.3v-5.02h-7.3v5.02Zm0,12.79h7.3v-5.34h-7.3v5.34Zm40.51-28.5v6.44c-.73,6.17-2.49,13.29-5.26,21.35,3.5,7.12,5.26,14.18,5.26,21.2,0,4.66-.8,8.14-2.39,10.44-1.6,2.3-3.89,3.45-6.87,3.45h-3.3l-1.26-8.16h2.51c2.09,0,3.14-2.17,3.14-6.52,0-5.97-1.65-12.74-4.95-20.33,1.15-3.45,2.09-7.03,2.83-10.71.73-3.69,1.2-6.89,1.41-9.62h-6.36v63.19h-7.69V2.9h22.92Z" fill="#092a31"/>
      <path d="m1349.17,44.2v22.69h-12.01v-22.53l-19.78-35.01h13.34l12.72,23.47h.16l12.4-23.47h12.95l-19.78,34.85Z" fill="#092a31"/>
      <path d="m1375.86,9.34h11.62v35.32c0,4.29.84,7.47,2.51,9.54,1.67,2.07,4.4,3.1,8.16,3.1s6.5-1.03,8.2-3.1c1.7-2.07,2.55-5.25,2.55-9.54V9.34h11.62v33.99c0,5.76-.73,10.43-2.2,14.01-1.47,3.59-3.83,6.24-7.1,7.97-3.27,1.73-7.63,2.59-13.07,2.59s-9.79-.86-13.03-2.59c-3.25-1.73-5.6-4.38-7.07-7.97-1.47-3.58-2.2-8.25-2.2-14.01V9.34Z" fill="#092a31"/>
      <path d="m1437.68,60.37c-4.47-5.02-6.71-12.3-6.71-21.82,0-6.38,1.02-11.84,3.06-16.37,2.04-4.53,4.96-7.97,8.75-10.32,3.79-2.36,8.25-3.53,13.38-3.53s9.5,1.1,12.95,3.3c3.45,2.2,6.23,5.6,8.32,10.21l-10.28,5.26c-1.78-5.44-5.44-8.16-10.99-8.16-3.82,0-6.87,1.28-9.15,3.85-2.28,2.56-3.41,6.18-3.41,10.83v9.11c0,4.61,1.14,8.19,3.41,10.75,2.28,2.57,5.33,3.85,9.15,3.85,2.93,0,5.36-.8,7.3-2.39,1.94-1.6,3.4-3.7,4.4-6.32l9.73,5.57c-4.4,9.16-11.54,13.74-21.43,13.74-7.85,0-14.01-2.51-18.49-7.54Z" fill="#092a31"/>
      <path d="m1533.09,66.88h-11.93v-23.86h-22.61v23.86h-11.93V9.34h11.93v23.16h22.61V9.34h11.93v57.54Z" fill="#092a31"/>
      <path d="m1570.69,66.88h-26.85v-9.5h7.46V18.84h-7.46v-9.5h26.85v9.5h-7.46v38.54h7.46v9.5Z" fill="#092a31"/>
      <path d="m1640.32,9.34v10.6h-15.94v46.94h-11.93V19.94h-15.94v-10.6h43.8Z" fill="#092a31"/>
      <path d="m1656.57,64.49c-3.77-2.28-6.69-5.64-8.75-10.09-2.07-4.45-3.1-9.86-3.1-16.25s1.03-11.81,3.1-16.29c2.07-4.47,4.98-7.85,8.75-10.13,3.77-2.28,8.21-3.41,13.34-3.41s9.5,1.14,13.27,3.41c3.77,2.28,6.68,5.65,8.75,10.13,2.07,4.47,3.1,9.9,3.1,16.29s-1.03,11.8-3.1,16.25c-2.07,4.45-4.99,7.81-8.75,10.09-3.77,2.28-8.19,3.42-13.27,3.42s-9.58-1.14-13.34-3.42Zm22.45-11.11c2.25-2.62,3.38-6.25,3.38-10.91v-8.71c0-4.66-1.13-8.29-3.38-10.91-2.25-2.62-5.29-3.93-9.11-3.93s-7,1.31-9.22,3.93c-2.23,2.62-3.34,6.25-3.34,10.91v8.71c0,4.66,1.11,8.29,3.34,10.91,2.22,2.62,5.3,3.92,9.22,3.92s6.86-1.31,9.11-3.92Z" fill="#092a31"/>
      <path d="m1726.51,66.88h-13.66l-13.11-57.54h11.78l5.57,27.63,3.22,16.64h.24l3.85-16.64,6.44-27.63h13.03l6.52,27.63,3.77,16.64h.24l3.3-16.64,5.57-27.63h11.3l-13.5,57.54h-13.58l-7.22-30.85-3.06-13.58h-.24l-3.22,13.58-7.22,30.85Z" fill="#092a31"/>
      <path d="m1794.57,66.88h-11.23V9.34h13.03l16.41,28.18,5.5,11.7h.31V9.34h11.23v57.54h-13.03l-16.41-28.18-5.57-11.7h-.24v39.88Z" fill="#092a31"/>
      <path d="m1839.47,58.48l7.93-7.85c3.87,4.5,8.71,6.75,14.52,6.75,3.09,0,5.44-.65,7.07-1.96,1.62-1.31,2.43-3.11,2.43-5.42,0-1.83-.54-3.3-1.61-4.4-1.07-1.1-2.92-1.83-5.53-2.2l-5.57-.79c-11.67-1.62-17.5-7.3-17.5-17.03,0-3.4.86-6.41,2.59-9.03,1.73-2.62,4.2-4.64,7.42-6.08,3.22-1.44,7-2.16,11.34-2.16,8.37,0,14.97,2.75,19.78,8.24l-7.93,7.85c-1.52-1.78-3.28-3.15-5.3-4.12-2.01-.97-4.43-1.45-7.26-1.45s-5.05.52-6.52,1.57c-1.47,1.05-2.2,2.54-2.2,4.47s.56,3.47,1.69,4.43c1.12.97,3,1.66,5.61,2.08l5.57.94c5.91,1.05,10.28,2.93,13.11,5.65,2.83,2.72,4.24,6.49,4.24,11.3,0,3.66-.88,6.9-2.63,9.69-1.75,2.8-4.3,4.99-7.65,6.55-3.35,1.57-7.33,2.36-11.93,2.36-8.79,0-16.01-3.14-21.67-9.42Z" fill="#092a31"/>
      <path d="m1940.35,66.88h-11.93v-23.86h-22.61v23.86h-11.93V9.34h11.93v23.16h22.61V9.34h11.93v57.54Z" fill="#092a31"/>
      <path d="m1977.95,66.88h-26.85v-9.5h7.46V18.84h-7.46v-9.5h26.85v9.5h-7.46v38.54h7.46v9.5Z" fill="#092a31"/>
      <path d="m2000.4,66.88h-11.93V9.34h26.85c3.51,0,6.57.76,9.18,2.28,2.62,1.52,4.62,3.65,6,6.4s2.08,5.9,2.08,9.46-.69,6.78-2.08,9.5c-1.39,2.72-3.39,4.84-6,6.36-2.62,1.52-5.68,2.28-9.18,2.28h-14.92v21.27Zm0-47.18v15.54h13.58c1.93,0,3.47-.51,4.59-1.53,1.12-1.02,1.69-2.5,1.69-4.44v-3.61c0-1.94-.56-3.41-1.69-4.43-1.13-1.02-2.66-1.53-4.59-1.53h-13.58Z" fill="#092a31"/>
      <path d="m2084.94,72.77V3.69h58.09v69.08h-10.05v-4.71h-37.99v4.71h-10.05Zm48.04-41.68V12.95h-37.99v18.13h37.99Zm-37.99,9.03v18.68h37.99v-18.68h-37.99Z" fill="#092a31"/>
      <path d="m2166.42,2.75h54.87v59.82c0,6.28-3.14,9.42-9.42,9.42h-15.7l-2.43-9.26h17.74v-13.35h-36.58c-.68,4.71-1.74,9-3.18,12.87-1.44,3.87-3.41,7.75-5.93,11.62l-9.03-6.83c2.56-3.77,4.54-7.48,5.93-11.15,1.39-3.66,2.36-7.82,2.9-12.48.55-4.66.83-10.52.83-17.58V2.75Zm45.06,37.92v-10.21h-35.25c-.05,2.72-.18,6.12-.39,10.21h35.64Zm0-18.92v-10.21h-35.25v10.21h35.25Z" fill="#092a31"/>
      <path d="m2245.86,37.29c-3.51-3.66-7.59-7.38-12.25-11.15l6.59-7.14c2.04,1.57,4.16,3.39,6.36,5.46,2.2,2.07,4.03,3.96,5.49,5.69l-6.2,7.14Zm-11.38,30.62c1.73-3.24,3.32-7.05,4.79-11.42,1.46-4.37,2.72-8.96,3.77-13.78l8.32,2.9c-.79,4.5-1.91,9.37-3.38,14.6-1.46,5.23-3.11,9.73-4.95,13.5l-8.56-5.81Zm17.43-65.94h55.19v7.22h-16.96v3.22h15.07v17.35h-51.57V12.4h14.68v-3.22h-14.37l.55.55-5.81,7.46c-4.19-3.92-8.11-7.22-11.78-9.89l6.12-7.22c2.77,1.83,5.73,4.24,8.87,7.22V1.96Zm51.65,55.5h-20.96v3.22h24.49v7.38h-24.49v5.73h-8.71v-5.73h-21.98v-7.38h21.98v-3.22h-19v-24.88h48.67v24.88Zm-35.25-38.62h-6.52v4.4h6.52v-4.4Zm26.38,23v-2.75h-31.24v2.75h31.24Zm0,6.12h-31.24v2.98h31.24v-2.98Zm-18.6-35.56h6.28v-3.22h-6.28v3.22Zm6.28,6.44h-6.28v4.4h6.28v-4.4Zm14.68,4.4v-4.4h-6.91v4.4h6.91Z" fill="#092a31"/>
      <path d="m2352.31,58.48l7.93-7.85c3.87,4.5,8.71,6.75,14.52,6.75,3.09,0,5.44-.65,7.07-1.96,1.62-1.31,2.43-3.11,2.43-5.42,0-1.83-.54-3.3-1.61-4.4-1.07-1.1-2.92-1.83-5.53-2.2l-5.57-.79c-11.67-1.62-17.5-7.3-17.5-17.03,0-3.4.86-6.41,2.59-9.03,1.73-2.62,4.2-4.64,7.42-6.08,3.22-1.44,7-2.16,11.34-2.16,8.37,0,14.97,2.75,19.78,8.24l-7.93,7.85c-1.52-1.78-3.28-3.15-5.3-4.12-2.01-.97-4.43-1.45-7.26-1.45s-5.05.52-6.52,1.57c-1.47,1.05-2.2,2.54-2.2,4.47s.56,3.47,1.69,4.43c1.12.97,3,1.66,5.61,2.08l5.57.94c5.91,1.05,10.28,2.93,13.11,5.65,2.83,2.72,4.24,6.49,4.24,11.3,0,3.66-.88,6.9-2.63,9.69-1.75,2.8-4.3,4.99-7.65,6.55-3.35,1.57-7.33,2.36-11.93,2.36-8.79,0-16.01-3.14-21.67-9.42Z" fill="#092a31"/>
      <path d="m2406.39,9.34h11.62v35.32c0,4.29.84,7.47,2.51,9.54,1.67,2.07,4.4,3.1,8.16,3.1s6.5-1.03,8.2-3.1c1.7-2.07,2.55-5.25,2.55-9.54V9.34h11.62v33.99c0,5.76-.73,10.43-2.2,14.01-1.47,3.59-3.83,6.24-7.1,7.97-3.27,1.73-7.63,2.59-13.07,2.59s-9.79-.86-13.03-2.59c-3.25-1.73-5.6-4.38-7.07-7.97-1.47-3.58-2.2-8.25-2.2-14.01V9.34Z" fill="#092a31"/>
      <path d="m2475,66.88h-11.23V9.34h13.03l16.41,28.18,5.5,11.7h.31V9.34h11.23v57.54h-13.03l-16.41-28.18-5.57-11.7h-.24v39.88Z" fill="#092a31"/>
      <path d="m2534.51,66.88h-11.23V9.34h12.64l14.52,27.47h.23l14.29-27.47h12.72v57.54h-11.22V27.87h-.24l-4.24,8.56-11.54,20.96-11.3-20.88-4.4-9.11h-.23v39.49Z" fill="#092a31"/>
      <path d="m2600.29,64.49c-3.77-2.28-6.69-5.64-8.75-10.09-2.07-4.45-3.1-9.86-3.1-16.25s1.03-11.81,3.1-16.29c2.07-4.47,4.98-7.85,8.75-10.13s8.21-3.41,13.35-3.41,9.5,1.14,13.27,3.41,6.69,5.65,8.75,10.13c2.07,4.47,3.1,9.9,3.1,16.29s-1.03,11.8-3.1,16.25c-2.07,4.45-4.99,7.81-8.75,10.09s-8.19,3.42-13.27,3.42-9.58-1.14-13.35-3.42Zm22.45-11.11c2.25-2.62,3.38-6.25,3.38-10.91v-8.71c0-4.66-1.12-8.29-3.38-10.91-2.25-2.62-5.29-3.93-9.11-3.93s-7,1.31-9.22,3.93c-2.22,2.62-3.34,6.25-3.34,10.91v8.71c0,4.66,1.11,8.29,3.34,10.91,2.22,2.62,5.3,3.92,9.22,3.92s6.86-1.31,9.11-3.92Z" fill="#092a31"/>
      <path d="m2659.08,64.49c-3.77-2.28-6.69-5.64-8.75-10.09-2.07-4.45-3.1-9.86-3.1-16.25s1.03-11.81,3.1-16.29c2.07-4.47,4.98-7.85,8.75-10.13,3.77-2.28,8.21-3.41,13.34-3.41s9.5,1.14,13.27,3.41c3.77,2.28,6.68,5.65,8.75,10.13,2.07,4.47,3.1,9.9,3.1,16.29s-1.04,11.8-3.1,16.25c-2.07,4.45-4.98,7.81-8.75,10.09-3.77,2.28-8.19,3.42-13.27,3.42s-9.58-1.14-13.34-3.42Zm22.45-11.11c2.25-2.62,3.38-6.25,3.38-10.91v-8.71c0-4.66-1.13-8.29-3.38-10.91-2.25-2.62-5.29-3.93-9.11-3.93s-7,1.31-9.22,3.93c-2.23,2.62-3.34,6.25-3.34,10.91v8.71c0,4.66,1.11,8.29,3.34,10.91,2.22,2.62,5.3,3.92,9.22,3.92s6.86-1.31,9.11-3.92Z" fill="#092a31"/>
      <path d="m2719.53,66.88h-11.22V9.34h13.03l16.41,28.18,5.49,11.7h.31V9.34h11.22v57.54h-13.03l-16.41-28.18-5.57-11.7h-.24v39.88Z" fill="#092a31"/>
      <path d="m2801.72,56.28v10.6h-33.91V9.34h11.93v46.94h21.98Z" fill="#092a31"/>
      <path d="m2819.77,66.88h-12.09l19.08-57.54h14.76l18.92,57.54h-12.4l-4.32-14.05h-19.7l-4.24,14.05Zm13.82-46.71l-6.75,22.53h13.97l-6.83-22.53h-.39Z" fill="#092a31"/>
      <path d="m2880.53,66.88h-11.93V9.34h11.93v27.79h.47l8.09-10.99,13.5-16.8h13.5l-19.62,23.79,21.27,33.75h-14.05l-15.62-25.43-7.54,9.03v16.41Z" fill="#092a31"/>
      <path d="m2963.97,56.28v10.6h-38.62V9.34h38.62v10.6h-26.69v12.56h23.08v10.52h-23.08v13.27h26.69Z" fill="#092a31"/>
    </g>
  </g>
</svg>