<?xml version="1.0" encoding="UTF-8"?>
<svg id="b" data-name="圖層 2" xmlns="http://www.w3.org/2000/svg" width="47.97" height="47.97" xmlns:xlink="http://www.w3.org/1999/xlink" viewBox="0 0 47.97 47.97">
  <defs>
    <style>
      .e {
        fill: #fff;
      }

      .f {
        fill: none;
      }

      .g {
        clip-path: url(#d);
      }

      .h {
        fill: #9e9e9f;
      }
    </style>
    <clipPath id="d">
      <circle class="f" cx="23.98" cy="23.98" r="23.98"/>
    </clipPath>
  </defs>
  <g id="c" data-name="icon">
    <g class="g">
      <circle class="e" cx="23.98" cy="23.98" r="23.98"/>
      <path class="h" d="M8.35,42.18c.37-.38.82-.65,1.28-.9,2.29-1.25,4.58-2.51,6.87-3.74,1.21-.65,1.82-1.63,1.8-3.01-.02-.83.08-1.67-.03-2.48-.11-.82-.83-1.36-1.21-2.07-.68-1.26-1.28-2.56-1.63-3.96-.06-.22-.15-.39-.34-.55-.59-.48-.88-1.13-.89-1.88-.01-1.08,0-2.17,0-3.25,0-.59.19-1.13.59-1.57.19-.21.25-.41.24-.68-.02-1.59-.05-3.18-.03-4.78.03-2.79,1.28-4.89,3.87-5.93,3.48-1.4,7.04-1.4,10.5.08,2.48,1.06,3.79,3.45,3.68,6.16-.06,1.54-.02,3.09-.03,4.63,0,.19.07.33.2.46.45.5.64,1.09.64,1.75,0,1,0,2.01,0,3.01,0,1.09-.48,1.9-1.48,2.36-.21.1-.32.23-.39.44-.65,1.93-1.59,3.71-2.87,5.3-.14.17-.19.35-.19.57,0,.88,0,1.75,0,2.63.02,1.3.61,2.24,1.78,2.82,2.52,1.26,5.04,2.52,7.55,3.78.48.24.96.51,1.34.9-.03.12-.11.19-.2.26-3.28,2.63-6.98,4.33-11.13,5.08-.81.15-1.64.15-2.44.37h-3.63c-.12-.09-.27-.08-.41-.1-.79-.11-1.58-.19-2.36-.34-3.19-.61-6.15-1.81-8.87-3.6-.79-.52-1.61-1.02-2.24-1.75Z"/>
    </g>
  </g>
</svg>