<?xml version="1.0" encoding="UTF-8"?>
<svg id="_圖層_2" data-name="圖層 2" xmlns="http://www.w3.org/2000/svg" width="72.36" height="12.68" viewBox="0 0 72.36 12.68">
  <g id="icon">
    <g>
      <g>
        <path d="m66.58,6.34s-.08,2.22.65,3.87c.09-.11.18-.23.27-.35.7-.84,2.68-3.3,4.86-3.18v-.34s0-.34,0-.34c-2.18.12-4.17-2.35-4.86-3.18-.08-.12-.17-.23-.26-.34-.73,1.65-.65,3.84-.65,3.86Z" fill="#092a31"/>
        <path d="m58.6,6.34c0,.06-.12,3.64,1.06,6.35.15-.18.3-.37.44-.57,1.14-1.37,4.4-5.42,7.98-5.22v-.56s0-.56,0-.56c-3.58.2-6.84-3.85-7.98-5.22-.14-.19-.28-.38-.43-.56-1.19,2.71-1.07,6.3-1.07,6.34Z" fill="#092a31"/>
      </g>
      <g>
        <path d="m1.72,12.17H0V.51h2.12l3.21,6h.06L8.57.51h2.1v11.66h-1.72V3.12h-.06l-.91,1.8-2.66,4.8-2.62-4.79-.92-1.84h-.06v9.08Z" fill="#092a31"/>
        <path d="m15.43,11.68c-.75-.47-1.33-1.15-1.74-2.05-.41-.9-.61-1.99-.61-3.28s.2-2.38.61-3.28.99-1.59,1.73-2.06,1.63-.7,2.65-.7,1.9.23,2.65.7,1.33,1.15,1.73,2.05c.41.9.61,2,.61,3.29s-.2,2.38-.61,3.28c-.41.9-.99,1.59-1.73,2.05-.75.47-1.63.7-2.65.7s-1.89-.23-2.64-.7Zm4.89-1.85c.56-.63.83-1.49.83-2.57v-1.83c0-1.08-.28-1.94-.83-2.57-.56-.63-1.3-.95-2.23-.95s-1.68.32-2.25.95c-.57.63-.85,1.49-.85,2.57v1.83c0,1.08.28,1.94.85,2.57.57.63,1.32.95,2.25.95s1.68-.32,2.23-.95Z" fill="#092a31"/>
        <path d="m27.24,7.43v4.74h-1.8V.51h4.98c1.03,0,1.84.31,2.43.92s.89,1.46.89,2.53c0,.85-.19,1.56-.57,2.12-.38.57-.94.95-1.69,1.15l2.53,4.93h-2l-2.37-4.74h-2.4Zm3.05-1.53c.49,0,.87-.13,1.15-.39.28-.26.42-.63.42-1.12v-.8c0-.49-.14-.86-.42-1.12-.28-.26-.67-.39-1.15-.39h-3.05v3.82h3.05Z" fill="#092a31"/>
        <path d="m43.73,10.58v1.59h-7.4V.51h7.4v1.59h-5.6v3.37h5.1v1.57h-5.1v3.53h5.6Z" fill="#092a31"/>
      </g>
    </g>
  </g>
</svg>