<?xml version="1.0" encoding="UTF-8"?>
<svg id="_圖層_2" data-name="圖層 2" xmlns="http://www.w3.org/2000/svg" width="819.25" height="504.7" viewBox="0 0 819.25 504.7">
  <g id="icon">
    <g>
      <path d="m790.65,146.35l-34.69-13.16C710.56,56.91,583.65,2,434.2,2S157.84,56.91,112.43,133.19l-34.69,13.16c-22.66,8.6-34.21,33.81-25.91,56.58l42.28,272.62c6.43,17.65,23.29,29.32,42.07,29.14l286.11-2.51,286.11,2.51c18.78.19,35.64-11.49,42.07-29.14l66.09-272.62c8.3-22.77-3.25-47.99-25.91-56.58Z" fill="#092a31"/>
      <path d="m759,149.37l-35.41-13.44C677.24,58.06,547.68,2,395.1,2S112.97,58.06,66.61,135.94l-35.41,13.44c-23.14,8.78-34.92,34.52-26.45,57.77l55.32,248.57c6.56,18.02,23.77,29.94,42.95,29.75l292.09-2.56,292.09,2.56c19.17.19,36.39-11.73,42.95-29.75l55.32-248.57c8.47-23.25-3.32-48.99-26.45-57.77Z" fill="#fff" stroke="#092a31" stroke-miterlimit="10" stroke-width="4"/>
    </g>
  </g>
</svg>