<?xml version="1.0" encoding="UTF-8"?>
<svg id="_圖層_2" data-name="圖層 2" xmlns="http://www.w3.org/2000/svg" width="485.74" height="136.81" viewBox="0 0 485.74 136.81">
  <g id="icon">
    <g>
      <g>
        <path d="m11.86,58.19H0V1.01h26.68c3.48,0,6.53.75,9.13,2.26,2.6,1.51,4.59,3.63,5.97,6.36,1.38,2.73,2.07,5.86,2.07,9.4s-.69,6.74-2.07,9.44c-1.38,2.7-3.37,4.81-5.97,6.32-2.6,1.51-5.64,2.26-9.13,2.26h-14.82v21.14Zm0-46.88v15.44h13.49c1.92,0,3.44-.51,4.56-1.52,1.12-1.01,1.68-2.48,1.68-4.41v-3.59c0-1.92-.56-3.39-1.68-4.41-1.12-1.01-2.64-1.52-4.56-1.52h-13.49Z" fill="#092a31"/>
        <path d="m65.36,36.82v21.37h-11.86V1.01h26.6c3.48,0,6.51.75,9.09,2.26,2.57,1.51,4.55,3.62,5.93,6.32,1.38,2.7,2.07,5.85,2.07,9.44,0,4-.88,7.42-2.65,10.26-1.77,2.83-4.37,4.88-7.8,6.12l11.39,22.78h-13.18l-10.22-21.37h-9.36Zm13.34-9.98c1.92,0,3.44-.51,4.56-1.52,1.12-1.01,1.68-2.51,1.68-4.49v-3.59c0-1.92-.56-3.39-1.68-4.41-1.12-1.01-2.64-1.52-4.56-1.52h-13.34v15.52h13.34Z" fill="#092a31"/>
        <path d="m117.16,55.81c-3.74-2.26-6.64-5.6-8.7-10.02-2.05-4.42-3.08-9.8-3.08-16.15s1.03-11.74,3.08-16.19c2.05-4.45,4.95-7.8,8.7-10.06s8.16-3.39,13.26-3.39,9.44,1.13,13.18,3.39c3.74,2.26,6.64,5.62,8.7,10.06,2.05,4.45,3.08,9.84,3.08,16.19s-1.03,11.73-3.08,16.15c-2.05,4.42-4.95,7.76-8.7,10.02-3.74,2.26-8.14,3.39-13.18,3.39s-9.52-1.13-13.26-3.39Zm22.31-11.04c2.24-2.6,3.35-6.21,3.35-10.84v-8.66c0-4.63-1.12-8.24-3.35-10.84-2.24-2.6-5.25-3.9-9.05-3.9s-6.96,1.3-9.17,3.9c-2.21,2.6-3.31,6.21-3.31,10.84v8.66c0,4.63,1.1,8.24,3.31,10.84,2.21,2.6,5.27,3.9,9.17,3.9s6.81-1.3,9.05-3.9Z" fill="#092a31"/>
        <path d="m165.48,54.95c-3.15-2.78-5.14-6.62-5.97-11.5l10.92-2.26c1.04,5.04,3.54,7.57,7.49,7.57,2.08,0,3.74-.64,4.99-1.91,1.25-1.27,1.87-3.13,1.87-5.58V10.53h-17.55V1.01h29.41v40.87c0,3.43-.74,6.45-2.22,9.05-1.48,2.6-3.61,4.62-6.4,6.04-2.78,1.43-6.07,2.14-9.87,2.14-5.3,0-9.53-1.39-12.68-4.17Z" fill="#092a31"/>
        <path d="m247.42,47.66v10.53h-38.38V1.01h38.38v10.53h-26.52v12.48h22.93v10.45h-22.93v13.18h26.52Z" fill="#092a31"/>
        <path d="m262.9,51.71c-4.45-4.99-6.67-12.22-6.67-21.68,0-6.34,1.01-11.76,3.04-16.26,2.03-4.5,4.93-7.92,8.7-10.26,3.77-2.34,8.2-3.51,13.3-3.51s9.44,1.09,12.87,3.28c3.43,2.18,6.19,5.56,8.27,10.14l-10.22,5.23c-1.77-5.41-5.41-8.11-10.92-8.11-3.8,0-6.82,1.28-9.09,3.82-2.26,2.55-3.39,6.14-3.39,10.76v9.05c0,4.58,1.13,8.14,3.39,10.69,2.26,2.55,5.29,3.82,9.09,3.82,2.91,0,5.33-.79,7.25-2.38,1.92-1.59,3.38-3.68,4.37-6.28l9.67,5.54c-4.37,9.1-11.47,13.65-21.29,13.65-7.8,0-13.92-2.5-18.37-7.49Z" fill="#092a31"/>
        <path d="m350.69,1.01v10.53h-15.83v46.64h-11.86V11.54h-15.83V1.01h43.52Z" fill="#092a31"/>
        <path d="m74.25,127.45l7.88-7.8c3.85,4.47,8.66,6.71,14.43,6.71,3.07,0,5.41-.65,7.02-1.95,1.61-1.3,2.42-3.09,2.42-5.38,0-1.82-.53-3.28-1.6-4.37-1.07-1.09-2.9-1.82-5.5-2.18l-5.54-.78c-11.6-1.61-17.39-7.25-17.39-16.93,0-3.38.86-6.37,2.57-8.97,1.72-2.6,4.17-4.61,7.37-6.04,3.2-1.43,6.95-2.15,11.27-2.15,8.32,0,14.87,2.73,19.66,8.19l-7.88,7.8c-1.51-1.77-3.26-3.13-5.27-4.09-2-.96-4.41-1.44-7.21-1.44s-5.02.52-6.47,1.56c-1.46,1.04-2.18,2.52-2.18,4.45s.56,3.45,1.68,4.41c1.12.96,2.98,1.65,5.58,2.07l5.54.94c5.88,1.04,10.22,2.91,13.03,5.62,2.81,2.7,4.21,6.45,4.21,11.23,0,3.64-.87,6.85-2.61,9.63-1.74,2.78-4.28,4.95-7.6,6.51-3.33,1.56-7.28,2.34-11.86,2.34-8.74,0-15.91-3.12-21.53-9.36Z" fill="#092a31"/>
        <path d="m132.71,129.32c-4.45-4.99-6.67-12.22-6.67-21.68,0-6.34,1.01-11.76,3.04-16.26,2.03-4.5,4.93-7.92,8.7-10.26,3.77-2.34,8.2-3.51,13.3-3.51s9.44,1.09,12.87,3.28c3.43,2.18,6.19,5.56,8.27,10.14l-10.22,5.23c-1.77-5.41-5.41-8.11-10.92-8.11-3.8,0-6.82,1.28-9.09,3.82-2.26,2.55-3.39,6.14-3.39,10.76v9.05c0,4.58,1.13,8.14,3.39,10.69,2.26,2.55,5.29,3.82,9.09,3.82,2.91,0,5.33-.79,7.25-2.38,1.92-1.59,3.38-3.68,4.37-6.28l9.67,5.54c-4.37,9.1-11.47,13.65-21.29,13.65-7.8,0-13.92-2.5-18.37-7.49Z" fill="#092a31"/>
        <path d="m227.52,135.8h-11.86v-23.71h-22.46v23.71h-11.86v-57.17h11.86v23.01h22.46v-23.01h11.86v57.17Z" fill="#092a31"/>
        <path d="m278.84,125.27v10.53h-38.38v-57.17h38.38v10.53h-26.52v12.48h22.93v10.45h-22.93v13.18h26.52Z" fill="#092a31"/>
        <path d="m289.92,135.8v-57.17h21.22c7.7,0,13.78,2.44,18.25,7.33,4.47,4.89,6.71,11.99,6.71,21.29s-2.24,16.33-6.71,21.22c-4.47,4.89-10.56,7.33-18.25,7.33h-21.22Zm21.22-10.53c3.95,0,7.02-1.13,9.2-3.39,2.18-2.26,3.28-5.68,3.28-10.26v-8.81c0-4.58-1.09-8-3.28-10.26-2.18-2.26-5.25-3.39-9.2-3.39h-9.36v36.11h9.36Z" fill="#092a31"/>
        <path d="m346.47,78.62h11.54v35.1c0,4.26.83,7.42,2.5,9.48,1.66,2.05,4.37,3.08,8.11,3.08s6.46-1.03,8.15-3.08c1.69-2.05,2.53-5.21,2.53-9.48v-35.1h11.54v33.77c0,5.72-.73,10.36-2.18,13.92-1.46,3.56-3.81,6.2-7.06,7.92-3.25,1.72-7.58,2.57-12.99,2.57s-9.72-.86-12.95-2.57c-3.22-1.72-5.56-4.36-7.02-7.92-1.46-3.56-2.18-8.2-2.18-13.92v-33.77Z" fill="#092a31"/>
        <path d="m437.18,125.27v10.53h-33.7v-57.17h11.86v46.64h21.84Z" fill="#092a31"/>
        <path d="m485,125.27v10.53h-38.38v-57.17h38.38v10.53h-26.52v12.48h22.93v10.45h-22.93v13.18h26.52Z" fill="#092a31"/>
      </g>
      <g>
        <path d="m383.38,38.57h-11.21v-2.43h11.21v2.43Zm-7.44,15.13h-2.83v-7.72h9.46v6.91h-6.63v.81Zm-2.78-20.83h9.39v2.32h-9.39v-2.32Zm.18,6.63h9v2.32h-9v-2.32Zm9,5.56h-9v-2.32h9v2.32Zm-2.55,3.17h-3.85v2.39h3.85v-2.39Zm11.54-9.18h4.71v2.71h-4.71v11.93h-3.12v-11.93h-4.58v-2.71h4.58v-6.67h3.12v6.67Z" fill="#092a31"/>
        <path d="m415.26,41.56v.65h10.63v1.76h-23.92v-1.76h10.27v-.65h-9.07v-1.6h9.07v-.65h-8.29v-1.6h8.29v-.74h-10.14v-1.67h10.14v-.7h-8.29v-1.6h8.29v-.76h3.02v.76h8.61v2.22h1.9v1.81h-1.9v2.27h-8.61v.65h9.44v1.6h-9.44Zm10.48,11.75h-23.61v-1.76h23.61v1.76Zm-21.63-2.46v-6.19h19.66v6.19h-19.66Zm8.24-3.87v-.76h-5.41v.76h5.41Zm0,1.51h-5.41v.81h5.41v-.81Zm2.76-1.51h5.85v-.76h-5.85v.76Zm0,1.51v.81h5.85v-.81h-5.85Zm5.75-13.88h-5.59v.7h5.59v-.7Zm0,2.36h-5.59v.74h5.59v-.74Z" fill="#092a31"/>
        <path d="m435.41,52.9h-3.02v-20.02h7.9v18.12h-4.89v1.9Zm2.08-12.61v-4.98h-2.18v4.98h2.18Zm-2.18,2.48v5.79h2.18v-5.79h-2.18Zm20.54-1h-2.83v2.13h2.6v2.5h-2.6v4.47c0,.97-.23,1.67-.69,2.07-.46.41-1.24.61-2.33.61h-3.02l-.88-2.62h3.95v-4.54h-8.79v-2.5h8.79v-2.13h-9v-2.5h5.62v-2.2h-5.33v-2.48h5.33v-2.32h2.94v2.32h5.85v2.48h-5.85v2.2h6.24v2.5Zm-11.18,4.87c.49.37,1.03.84,1.64,1.41.61.57,1.08,1.07,1.43,1.51l-2.26,1.69c-.33-.42-.79-.92-1.39-1.49-.6-.58-1.15-1.08-1.65-1.5l2.24-1.62Z" fill="#092a31"/>
        <path d="m479.76,50.62h5.98v2.46h-15.52v-2.46h6.47v-1.9h-5.07v-1.69l-1.82,1.76-1.87-4.29c-.03-.08-.07-.12-.1-.12-.05,0-.08.06-.08.19v9.13h-2.68v-8.62h-.26c-.12,1.08-.34,1.99-.66,2.73-.32.74-.81,1.46-1.47,2.16l-1.48-2.83c2.08-2.21,3.27-4.32,3.56-6.35h-3.46v-2.53h3.74v-2.13l-2.73.42-.78-2.32c1.39-.15,2.79-.4,4.21-.73,1.42-.33,2.61-.71,3.56-1.12l1.48,2.13c-.85.42-1.86.77-3.04,1.07v2.69h3.17v2.53h-3.17v2.22h.13l.75-.65c.17-.15.34-.23.49-.23.28,0,.52.22.73.67l1.77,3.59v-.05h5.07v-1.76h-5.43v-2.41h14.14v2.41h-5.64v1.76h5.17v2.36h-5.17v1.9Zm-7.8-17.68h12.77v7.81h-12.77v-7.81Zm3.02,5.44h6.68v-3.04h-6.68v3.04Z" fill="#092a31"/>
      </g>
    </g>
  </g>
</svg>