<?xml version="1.0" encoding="UTF-8"?>
<svg id="_圖層_2" data-name="圖層 2" xmlns="http://www.w3.org/2000/svg" width="227.47" height="118.23" viewBox="0 0 227.47 118.23">
  <g id="_圖層_1-2" data-name="圖層 1">
    <g>
      <g>
        <path d="m8.29,32.22H1.73V.56h14.77c1.93,0,3.61.42,5.05,1.25,1.44.84,2.54,2.01,3.3,3.52.76,1.51,1.14,3.25,1.14,5.21s-.38,3.73-1.14,5.23c-.76,1.5-1.86,2.66-3.3,3.5-1.44.84-3.12,1.25-5.05,1.25h-8.21v11.71Zm0-25.96v8.55h7.47c1.06,0,1.91-.28,2.53-.84.62-.56.93-1.38.93-2.44v-1.99c0-1.06-.31-1.88-.93-2.44-.62-.56-1.46-.84-2.53-.84h-7.47Z" fill="#092a31"/>
        <path d="m37.93,20.39v11.84h-6.57V.56h14.73c1.93,0,3.61.42,5.03,1.25,1.43.84,2.52,2,3.28,3.5.76,1.5,1.14,3.24,1.14,5.23,0,2.22-.49,4.11-1.47,5.68-.98,1.57-2.42,2.7-4.32,3.39l6.31,12.61h-7.3l-5.66-11.84h-5.18Zm7.39-5.53c1.07,0,1.91-.28,2.53-.84.62-.56.93-1.39.93-2.48v-1.99c0-1.06-.31-1.88-.93-2.44-.62-.56-1.46-.84-2.53-.84h-7.39v8.6h7.39Z" fill="#092a31"/>
        <path d="m66.61,30.91c-2.07-1.25-3.68-3.1-4.82-5.55-1.14-2.45-1.71-5.43-1.71-8.94s.57-6.5,1.71-8.96c1.14-2.46,2.74-4.32,4.82-5.57,2.07-1.25,4.52-1.88,7.34-1.88s5.23.63,7.3,1.88c2.07,1.25,3.68,3.11,4.82,5.57,1.14,2.46,1.71,5.45,1.71,8.96s-.57,6.49-1.71,8.94c-1.14,2.45-2.74,4.3-4.82,5.55-2.07,1.25-4.51,1.88-7.3,1.88s-5.27-.63-7.34-1.88Zm12.35-6.11c1.24-1.44,1.86-3.44,1.86-6v-4.79c0-2.56-.62-4.56-1.86-6-1.24-1.44-2.91-2.16-5.01-2.16s-3.85.72-5.08,2.16c-1.22,1.44-1.84,3.44-1.84,6v4.79c0,2.56.61,4.56,1.84,6,1.22,1.44,2.92,2.16,5.08,2.16s3.77-.72,5.01-2.16Z" fill="#092a31"/>
        <path d="m93.37,30.43c-1.74-1.54-2.84-3.66-3.3-6.37l6.05-1.25c.58,2.79,1.96,4.19,4.15,4.19,1.15,0,2.07-.35,2.76-1.06.69-.71,1.04-1.73,1.04-3.09V5.83h-9.72V.56h16.29v22.64c0,1.9-.41,3.57-1.23,5.01s-2,2.56-3.54,3.35c-1.54.79-3.36,1.19-5.46,1.19-2.94,0-5.28-.77-7.02-2.31Z" fill="#092a31"/>
        <path d="m138.75,26.39v5.83h-21.25V.56h21.25v5.83h-14.69v6.91h12.7v5.79h-12.7v7.3h14.69Z" fill="#092a31"/>
        <path d="m147.32,28.64c-2.46-2.76-3.69-6.77-3.69-12.01,0-3.51.56-6.52,1.68-9.01,1.12-2.49,2.73-4.38,4.82-5.68s4.54-1.94,7.37-1.94,5.23.6,7.13,1.81c1.9,1.21,3.43,3.08,4.58,5.62l-5.66,2.89c-.98-3-3-4.49-6.05-4.49-2.1,0-3.78.71-5.03,2.12-1.25,1.41-1.88,3.4-1.88,5.96v5.01c0,2.53.63,4.51,1.88,5.92,1.25,1.41,2.93,2.12,5.03,2.12,1.61,0,2.95-.44,4.02-1.32,1.07-.88,1.87-2.04,2.42-3.48l5.36,3.07c-2.42,5.04-6.35,7.56-11.79,7.56-4.32,0-7.71-1.38-10.17-4.15Z" fill="#092a31"/>
        <path d="m195.94.56v5.83h-8.77v25.83h-6.57V6.39h-8.77V.56h24.1Z" fill="#092a31"/>
        <path d="m0,70.58l4.36-4.32c2.13,2.48,4.79,3.72,7.99,3.72,1.7,0,2.99-.36,3.89-1.08.89-.72,1.34-1.71,1.34-2.98,0-1.01-.3-1.81-.89-2.42-.59-.6-1.61-1.01-3.05-1.21l-3.07-.43c-6.42-.89-9.63-4.02-9.63-9.37,0-1.87.48-3.53,1.43-4.97.95-1.44,2.31-2.56,4.08-3.35,1.77-.79,3.85-1.19,6.24-1.19,4.61,0,8.24,1.51,10.89,4.54l-4.36,4.32c-.84-.98-1.81-1.73-2.92-2.27-1.11-.53-2.44-.8-4-.8s-2.78.29-3.59.86c-.81.58-1.21,1.4-1.21,2.46s.31,1.91.93,2.44c.62.53,1.65.91,3.09,1.14l3.07.52c3.25.58,5.66,1.61,7.21,3.11,1.56,1.5,2.33,3.57,2.33,6.22,0,2.02-.48,3.79-1.45,5.33-.97,1.54-2.37,2.74-4.21,3.61-1.84.86-4.03,1.3-6.57,1.3-4.84,0-8.81-1.73-11.92-5.18Z" fill="#092a31"/>
        <path d="m32.38,71.62c-2.46-2.76-3.69-6.77-3.69-12.01,0-3.51.56-6.52,1.68-9.01,1.12-2.49,2.73-4.38,4.82-5.68s4.54-1.94,7.37-1.94,5.23.6,7.13,1.81c1.9,1.21,3.43,3.08,4.58,5.62l-5.66,2.89c-.98-3-3-4.49-6.05-4.49-2.1,0-3.78.71-5.03,2.12-1.25,1.41-1.88,3.4-1.88,5.96v5.01c0,2.53.63,4.51,1.88,5.92,1.25,1.41,2.93,2.12,5.03,2.12,1.61,0,2.95-.44,4.02-1.32,1.07-.88,1.87-2.04,2.42-3.48l5.36,3.07c-2.42,5.04-6.35,7.56-11.79,7.56-4.32,0-7.71-1.38-10.17-4.15Z" fill="#092a31"/>
        <path d="m84.88,75.2h-6.57v-13.13h-12.44v13.13h-6.57v-31.66h6.57v12.74h12.44v-12.74h6.57v31.66Z" fill="#092a31"/>
        <path d="m113.3,69.37v5.83h-21.25v-31.66h21.25v5.83h-14.69v6.91h12.7v5.79h-12.7v7.3h14.69Z" fill="#092a31"/>
        <path d="m119.44,75.2v-31.66h11.75c4.26,0,7.63,1.35,10.11,4.06,2.48,2.71,3.71,6.64,3.71,11.79s-1.24,9.04-3.71,11.75c-2.48,2.71-5.85,4.06-10.11,4.06h-11.75Zm11.75-5.83c2.19,0,3.89-.63,5.1-1.88,1.21-1.25,1.81-3.15,1.81-5.68v-4.88c0-2.53-.6-4.43-1.81-5.68-1.21-1.25-2.91-1.88-5.1-1.88h-5.18v20h5.18Z" fill="#092a31"/>
        <path d="m150.75,43.54h6.39v19.44c0,2.36.46,4.11,1.38,5.25.92,1.14,2.42,1.71,4.49,1.71s3.58-.57,4.51-1.71c.94-1.14,1.4-2.89,1.4-5.25v-19.44h6.39v18.7c0,3.17-.4,5.74-1.21,7.71-.81,1.97-2.11,3.43-3.91,4.38-1.8.95-4.2,1.43-7.19,1.43s-5.39-.48-7.17-1.43c-1.79-.95-3.08-2.41-3.89-4.38-.81-1.97-1.21-4.54-1.21-7.71v-18.7Z" fill="#092a31"/>
        <path d="m200.99,69.37v5.83h-18.66v-31.66h6.57v25.83h12.09Z" fill="#092a31"/>
        <path d="m227.47,69.37v5.83h-21.25v-31.66h21.25v5.83h-14.69v6.91h12.7v5.79h-12.7v7.3h14.69Z" fill="#092a31"/>
      </g>
      <g>
        <path d="m13.76,103.49H2.84v-2.37h10.92v2.37Zm-7.24,14.74h-2.76v-7.52h9.22v6.73h-6.46v.79Zm-2.71-20.29h9.14v2.26H3.8v-2.26Zm.18,6.46h8.76v2.26H3.98v-2.26Zm8.76,5.42H3.98v-2.26h8.76v2.26Zm-2.48,3.09h-3.75v2.32h3.75v-2.32Zm11.25-8.94h4.58v2.64h-4.58v11.62h-3.04v-11.62h-4.46v-2.64h4.46v-6.5h3.04v6.5Z" fill="#092a31"/>
        <path d="m44.81,106.4v.63h10.36v1.72h-23.3v-1.72h10v-.63h-8.84v-1.56h8.84v-.63h-8.08v-1.56h8.08v-.72h-9.88v-1.62h9.88v-.68h-8.08v-1.56h8.08v-.74h2.94v.74h8.38v2.17h1.85v1.76h-1.85v2.21h-8.38v.63h9.19v1.56h-9.19Zm10.21,11.44h-23v-1.72h23v1.72Zm-21.07-2.39v-6.03h19.15v6.03h-19.15Zm8.03-3.77v-.75h-5.27v.75h5.27Zm0,1.47h-5.27v.79h5.27v-.79Zm2.68-1.47h5.7v-.75h-5.7v.75Zm0,1.47v.79h5.7v-.79h-5.7Zm5.6-13.52h-5.45v.68h5.45v-.68Zm0,2.3h-5.45v.72h5.45v-.72Z" fill="#092a31"/>
        <path d="m64.44,117.44h-2.94v-19.5h7.7v17.65h-4.76v1.85Zm2.03-12.28v-4.85h-2.13v4.85h2.13Zm-2.13,2.42v5.64h2.13v-5.64h-2.13Zm20.01-.97h-2.76v2.08h2.53v2.44h-2.53v4.36c0,.95-.22,1.62-.67,2.02-.45.4-1.2.6-2.27.6h-2.94l-.86-2.55h3.85v-4.42h-8.56v-2.44h8.56v-2.08h-8.76v-2.44h5.47v-2.14h-5.19v-2.42h5.19v-2.26h2.86v2.26h5.7v2.42h-5.7v2.14h6.08v2.44Zm-10.89,4.74c.47.36,1,.82,1.6,1.38.59.56,1.06,1.05,1.39,1.47l-2.2,1.65c-.32-.41-.77-.89-1.35-1.46-.58-.56-1.12-1.05-1.61-1.46l2.18-1.58Z" fill="#092a31"/>
        <path d="m107.64,115.23h5.83v2.39h-15.12v-2.39h6.31v-1.85h-4.94v-1.65l-1.77,1.72-1.82-4.18c-.03-.07-.07-.11-.1-.11-.05,0-.08.06-.08.18v8.89h-2.61v-8.4h-.25c-.12,1.05-.33,1.94-.65,2.66-.31.72-.79,1.42-1.43,2.1l-1.44-2.75c2.03-2.15,3.18-4.21,3.47-6.18h-3.37v-2.46h3.65v-2.08l-2.66.41-.76-2.26c1.35-.15,2.72-.39,4.1-.71,1.38-.32,2.54-.69,3.47-1.09l1.44,2.08c-.83.41-1.81.75-2.96,1.04v2.62h3.09v2.46h-3.09v2.17h.13l.73-.63c.17-.15.33-.23.48-.23.27,0,.51.22.71.65l1.72,3.5v-.05h4.94v-1.72h-5.29v-2.35h13.78v2.35h-5.5v1.72h5.04v2.3h-5.04v1.85Zm-7.6-17.22h12.44v7.61h-12.44v-7.61Zm2.94,5.3h6.51v-2.96h-6.51v2.96Z" fill="#092a31"/>
      </g>
    </g>
  </g>
</svg>