<?xml version="1.0" encoding="UTF-8"?>
<svg id="b" data-name="圖層 2" xmlns="http://www.w3.org/2000/svg" width="177.57" height="40.44" viewBox="0 0 177.57 40.44">
  <defs>
    <style>
      .d {
        fill: #fff;
        stroke: #092a31;
        stroke-miterlimit: 10;
        stroke-width: 1.31px;
      }

      .e {
        fill: #092a31;
      }
    </style>
  </defs>
  <g id="c" data-name="fix 按鈕">
    <g>
      <rect class="e" x=".66" y="1.09" width="176.91" height="39.35" rx="19.01" ry="19.01"/>
      <rect class="d" x=".66" y=".66" width="173.13" height="36.07" rx="18.03" ry="18.03"/>
      <path class="e" d="M145.21,18.69s-.09,2.54.74,4.43c.11-.13.21-.26.31-.4.8-.96,3.07-3.79,5.57-3.65v-.78c-2.5.14-4.78-2.69-5.57-3.65-.1-.13-.2-.26-.3-.39-.83,1.89-.75,4.4-.75,4.43Z"/>
      <path class="e" d="M136.07,18.69c0,.07-.14,4.17,1.22,7.27.18-.21.35-.43.51-.65,1.31-1.57,5.04-6.21,9.15-5.99v-.64s0-.64,0-.64c-4.1.23-7.84-4.41-9.15-5.99-.16-.22-.32-.43-.5-.64-1.37,3.11-1.23,7.22-1.23,7.27Z"/>
      <g>
        <path class="e" d="M58.74,12.52c-.07.09-.18.11-.29.1-.29.37-.76.92-1.15,1.32h2.52v2.6h-.92v-1.83h-9.99v1.83h-.9v-2.6h2.3c-.25-.44-.71-1.05-1.12-1.49l.81-.31c.5.49,1.02,1.14,1.27,1.57l-.53.22h2.59v-1.93l1.22.07c-.01.09-.08.15-.27.17v1.69h2.54l-.42-.17c.41-.45.95-1.17,1.23-1.66l1.11.41ZM58.9,19.51v2.61c0,.94-.52.94-2.8.94-.04-.22-.2-.51-.32-.74.53.01,1.02.02,1.37.02.71,0,.83,0,.83-.22v-1.83h-3.68v3.35h-.95v-3.35h-3.47v2.8h-.91v-3.57h4.38v-1.05h-3.12v-2.77h7.44v2.77h-3.19s-.1.04-.17.05v1h4.61ZM51.09,16.35v1.46h5.63v-1.46h-5.63Z"/>
        <path class="e" d="M68.75,19.88c-.01.09-.13.15-.29.16-.38,1.78-1.19,3-4.5,3.59-.08-.2-.32-.56-.52-.74,3.03-.49,3.78-1.46,4.06-3.13l1.25.11ZM71.86,22.29c0,.36.11.44.76.44h2.23c.59,0,.7-.24.76-1.81.21.15.62.29.87.35-.11,1.81-.38,2.26-1.55,2.26h-2.38c-1.29,0-1.62-.26-1.62-1.24v-2.87h-5.41v-6.95h8.92v6.95h-2.56v2.87ZM66.41,13.2v1.36h7.06v-1.36h-7.06ZM66.41,15.25v1.37h7.06v-1.37h-7.06ZM66.41,17.31v1.4h7.06v-1.4h-7.06Z"/>
        <path class="e" d="M85.35,16.97h-4.15v6.65h-.92v-11.06h5.07v4.41ZM84.46,13.25h-3.25v1.15h3.25v-1.15ZM81.21,16.29h3.25v-1.25h-3.25v1.25ZM88.63,21.83h-4.41v.76h-.9v-4.43h5.31v3.67ZM87.73,18.88h-3.52v2.22h3.52v-2.22ZM91.88,12.57v9.87c0,.59-.17.86-.6,1.01-.46.15-1.27.16-2.51.16-.04-.24-.21-.64-.35-.87.49.01.95.02,1.34.02,1.09,0,1.18,0,1.18-.34v-5.45h-4.26v-4.41h5.2ZM90.94,13.25h-3.35v1.15h3.35v-1.15ZM87.59,16.29h3.35v-1.25h-3.35v1.25Z"/>
        <path class="e" d="M99.39,20.22v1.82c1.18.47,2.7.56,4.54.57.59,0,4.02,0,4.79-.03-.14.19-.29.51-.35.74h-4.44c-3.17,0-5.36-.31-6.67-2.07-.2.9-.53,1.76-1.12,2.36-.13-.15-.38-.37-.57-.47.87-.94,1.11-2.7,1.18-4.24l1.05.09c-.01.09-.1.15-.27.16-.03.37-.06.77-.11,1.19.29.54.67.95,1.13,1.27v-3.47h-2.86v-.67h6.4v.67h-2.7v1.42h2.47v.66h-2.47ZM101.23,12.55v3.93h-4.66v-3.93h4.66ZM100.35,14.2v-1.01h-2.91v1.01h2.91ZM100.35,15.85v-1.04h-2.91v1.04h2.91ZM104.69,20.44c-.06.09-.17.11-.28.1-.6.6-1.6,1.24-2.48,1.64-.13-.14-.39-.37-.57-.5.83-.34,1.81-.94,2.37-1.56l.97.32ZM102.62,14.41h1.68c.13-.34.28-.75.39-1.11h-2.72v-.65h6.54v.65h-2.97c-.11.34-.27.75-.43,1.11h2.7v5.54h-5.2v-5.54ZM106.93,16.05v-1h-3.45v1h3.45ZM106.93,17.67v-1.01h-3.45v1.01h3.45ZM106.93,19.31v-1.02h-3.45v1.02h3.45ZM107.85,22.13c-.49-.47-1.34-1.11-2.1-1.6l.63-.35c.81.5,1.74,1.12,2.28,1.61l-.81.34Z"/>
      </g>
    </g>
  </g>
</svg>