<?xml version="1.0" encoding="UTF-8"?>
<svg id="b" data-name="圖層 2" xmlns="http://www.w3.org/2000/svg" width="612.09" height="119.26" viewBox="0 0 612.09 119.26">
  <defs>
    <style>
      .d {
        fill: #fff;
        stroke: #092a31;
        stroke-miterlimit: 10;
        stroke-width: 3.87px;
      }

      .e {
        fill: #092a31;
      }
    </style>
  </defs>
  <g id="c" data-name="icon">
    <rect class="e" x="1.94" y="3.23" width="610.15" height="116.03" rx="56.06" ry="56.06"/>
    <rect class="d" x="1.94" y="1.94" width="599.01" height="106.36" rx="53.18" ry="53.18"/>
    <path class="e" d="M516.68,55.11c0,.13-.25,7.49,2.19,13.07.32-.38.62-.77.91-1.17,2.35-2.83,9.06-11.16,16.44-10.76v-1.15s0-1.15,0-1.15c-7.38.41-14.09-7.93-16.44-10.76-.28-.39-.58-.77-.89-1.15-2.46,5.59-2.21,12.97-2.21,13.06Z"/>
    <path class="e" d="M489.72,55.11c0,.21-.42,12.29,3.59,21.45.52-.62,1.02-1.26,1.49-1.92,3.86-4.64,14.87-18.32,26.97-17.65v-1.89s0-1.89,0-1.89c-12.1.67-23.11-13.01-26.97-17.65-.46-.65-.96-1.27-1.46-1.88-4.03,9.17-3.62,21.29-3.62,21.42Z"/>
    <g>
      <path class="e" d="M257.41,52.5h-2.45v-4.46h-23.01v4.46h-2.38v-6.4h5.37c-.5-.99-1.65-2.45-2.62-3.53l2.22-.81c1.11,1.05,2.28,2.51,2.85,3.5l-2.08.84h7.02v-4.64h2.52v4.64h12.56v6.4ZM255.36,65.16c0,1.17-.27,1.77-1.31,2.09-1.04.36-2.72.36-5.31.36-.13-.63-.54-1.44-.87-2.03,2.01.06,3.79.06,4.3.03.5-.03.67-.12.67-.48v-4.19h-7.79v7.87h-2.52v-7.87h-8.3v6.52h-2.49v-8.56h10.78v-2.45h-7.79v-6.28h17.53v6.28h-7.22v2.45h10.31v6.25ZM237.13,54.77h12.66v-2.93h-12.66v2.93ZM254.69,42.51c-1.11,1.32-2.38,2.69-3.36,3.59l-2.02-.75c.94-.99,2.15-2.57,2.79-3.65l2.59.81Z"/>
      <path class="e" d="M293.34,66.44c1.34,0,1.61-.54,1.75-4.22.54.39,1.61.75,2.32.9-.3,4.34-1.04,5.42-3.86,5.42h-5.41c-3.16,0-4-.66-4-3.08v-5.98h-5.51c-.81,4.79-2.96,7.78-10.58,9.34-.2-.57-.91-1.5-1.41-1.95,6.88-1.23,8.67-3.56,9.37-7.39h-4.53v-16.97h21.12v16.97h-5.94v5.95c0,.87.27,1.02,1.71,1.02h4.97ZM273.89,47.56h16.19v-3.05h-16.19v3.05ZM273.89,52.5h16.19v-3.08h-16.19v3.08ZM273.89,57.5h16.19v-3.11h-16.19v3.11Z"/>
      <path class="e" d="M309.45,53.22v15.59h-2.45v-26.06h12.06v10.47h-9.6ZM309.45,44.54v2.51h7.22v-2.51h-7.22ZM316.67,51.42v-2.72h-7.22v2.72h7.22ZM316.5,64.59v1.8h-2.28v-10.5h12.49v8.71h-10.21ZM316.5,57.77v4.94h7.89v-4.94h-7.89ZM334.4,65.79c0,1.47-.4,2.21-1.48,2.6-1.18.36-3.09.39-6.01.39-.13-.63-.54-1.68-.87-2.27,2.18.09,4.37.06,5.04.03.6,0,.81-.18.81-.75v-12.57h-9.84v-10.47h12.36v23.04ZM324.43,44.51v2.54h7.46v-2.54h-7.46ZM331.89,51.45v-2.75h-7.46v2.75h7.46Z"/>
      <path class="e" d="M352.87,65.07c2.65,1.02,6.08,1.2,10.21,1.23,1.48,0,9.74,0,11.69-.06-.37.48-.77,1.32-.91,1.92h-10.78c-7.25,0-12.26-.72-15.28-4.73-.47,2.15-1.28,4.07-2.55,5.45-.3-.42-1.04-1.11-1.58-1.44,2.02-2.15,2.59-6.16,2.75-9.81h2.08c-.07,1.14-.13,2.3-.27,3.41.64,1.23,1.48,2.18,2.48,2.9v-7.96h-6.65v-1.74h15.05v1.74h-6.25v3.2h5.68v1.71h-5.68v4.19ZM357.13,52.05h-11.08v-9.34h11.08v9.34ZM354.85,44.36h-6.55v2.21h6.55v-2.21ZM354.85,48.13h-6.55v2.27h6.55v-2.27ZM365.06,61.15c-1.44,1.65-3.83,3.32-5.94,4.4-.37-.36-1.18-1.11-1.68-1.41,2.12-.87,4.26-2.21,5.54-3.59l2.08.6ZM364.42,46.9c.27-.72.54-1.53.74-2.27h-6.25v-1.71h15.18v1.71h-6.62c-.3.78-.64,1.59-.94,2.27h6.21v13.14h-12.56v-13.14h4.23ZM370.43,48.55h-7.99v2.24h7.99v-2.24ZM370.43,52.35h-7.99v2.21h7.99v-2.21ZM370.43,56.15h-7.99v2.24h7.99v-2.24ZM369.32,60.52c1.95,1.05,4.13,2.69,5.24,3.83l-1.81,1.05c-1.11-1.2-3.29-2.9-5.14-4.01l1.71-.87Z"/>
    </g>
  </g>
</svg>