<?xml version="1.0" encoding="UTF-8"?>
<svg id="_圖層_2" data-name="圖層 2" xmlns="http://www.w3.org/2000/svg" width="51.97" height="66.16" viewBox="0 0 51.97 66.16">
  <g id="icon">
    <g>
      <path d="m26.18,51.04c-.1,0-5.8-.2-10.12,1.69.29.24.59.48.9.7,2.19,1.82,8.64,7.02,8.33,12.73h1.78c-.31-5.71,6.14-10.91,8.33-12.73.31-.22.6-.45.89-.69-4.33-1.9-10.05-1.71-10.11-1.71Z" fill="#092a31"/>
      <path d="m26.19,30.16c-.16,0-9.51-.32-16.61,2.78.48.4.97.79,1.48,1.16,3.59,2.99,14.18,11.51,13.67,20.89h2.92c-.52-9.37,10.07-17.9,13.67-20.89.5-.36.98-.74,1.46-1.13-7.1-3.12-16.49-2.81-16.59-2.8Z" fill="#092a31"/>
      <g>
        <path d="m.91,11.27l.91-1.19c.87.74,1.84,1.01,2.91.8.64-.13,1.1-.37,1.39-.74s.38-.8.28-1.32c-.08-.42-.27-.72-.56-.91-.29-.18-.74-.27-1.35-.27h-.92c-1.02,0-1.81-.17-2.39-.54-.58-.37-.95-.94-1.1-1.73-.17-.89,0-1.65.54-2.29.53-.64,1.33-1.06,2.4-1.27,1.47-.29,2.69,0,3.67.89l-.9,1.15c-.72-.63-1.58-.84-2.58-.65-.6.12-1.04.33-1.32.64-.27.31-.36.69-.27,1.15.08.43.28.73.58.9.3.17.75.26,1.36.26h.93c1.05,0,1.85.19,2.4.56.55.37.91.94,1.06,1.73.12.62.09,1.2-.11,1.73-.2.53-.54.97-1.04,1.34s-1.12.62-1.88.77c-1.52.3-2.85-.03-3.99-1Z" fill="#092a31"/>
        <path d="m10.82,9.92c-.84-.82-1.34-2.08-1.51-3.77-.11-1.13-.04-2.12.22-2.95.26-.83.69-1.49,1.29-1.97.6-.48,1.33-.77,2.21-.85,1.73-.17,3.01.47,3.84,1.94l-1.24.86c-.53-1.04-1.35-1.5-2.46-1.39-.8.08-1.4.42-1.8,1.03-.4.61-.56,1.4-.46,2.38l.15,1.53c.1.97.4,1.7.92,2.19.51.5,1.17.71,1.97.63.59-.06,1.06-.26,1.44-.61.37-.35.64-.8.79-1.36l1.34.64c-.27.79-.69,1.42-1.27,1.89-.58.48-1.3.76-2.16.84-1.34.13-2.42-.21-3.26-1.03Z" fill="#092a31"/>
        <path d="m20.84,6.15l.06,4.17-1.58.02-.15-10.26,4.38-.06c.91-.01,1.62.25,2.15.78.53.53.8,1.27.82,2.21.01.75-.15,1.37-.48,1.88-.33.5-.82.85-1.47,1.04l2.29,4.31-1.76.03-2.15-4.14-2.11.03Zm2.67-1.38c.43,0,.77-.13,1.01-.36.24-.23.36-.56.36-.99v-.7c-.02-.43-.15-.76-.4-.98-.25-.22-.59-.33-1.02-.33l-2.69.04.05,3.36,2.69-.04Z" fill="#092a31"/>
        <path d="m30.24,9.88c-.64-.45-1.12-1.07-1.43-1.88-.32-.81-.45-1.78-.38-2.91.06-1.13.29-2.08.69-2.86.4-.78.94-1.35,1.62-1.73.68-.38,1.47-.54,2.36-.49.89.05,1.66.29,2.29.74s1.11,1.07,1.43,1.88c.32.81.44,1.79.38,2.92-.06,1.13-.29,2.08-.69,2.85-.4.77-.94,1.35-1.62,1.72-.68.38-1.47.54-2.36.49-.88-.05-1.65-.29-2.29-.74Zm4.39-1.4c.52-.53.8-1.27.85-2.22l.08-1.61c.05-.95-.15-1.72-.61-2.3-.46-.58-1.1-.89-1.92-.94s-1.49.2-2.02.73-.82,1.27-.87,2.22l-.09,1.61c-.05.95.16,1.72.63,2.3.47.58,1.11.89,1.93.94s1.49-.2,2.01-.73Z" fill="#092a31"/>
        <path d="m44.71,10.33l-.19,1.39-5.73-.79,1.41-10.17,1.57.22-1.21,8.78,4.16.58Z" fill="#092a31"/>
        <path d="m51.97,11.93l-.31,1.37-5.64-1.28,2.27-10.01,1.54.35-1.96,8.64,4.1.93Z" fill="#092a31"/>
      </g>
    </g>
  </g>
</svg>