<?xml version="1.0" encoding="UTF-8"?>
<svg id="_圖層_2" data-name="圖層 2" xmlns="http://www.w3.org/2000/svg" width="189.43" height="10.58" viewBox="0 0 189.43 10.58">
  <g id="icon">
    <g fill="none" opacity=".8">
      <path d="m0,8.57l.63-.72c.61.63,1.46,1.05,2.33,1.05,1.1,0,1.77-.55,1.77-1.38s-.61-1.14-1.4-1.5l-1.22-.53c-.78-.33-1.71-.93-1.71-2.16C.4,2.02,1.53,1.08,3.06,1.08c1,0,1.89.43,2.48,1.05l-.56.68c-.52-.48-1.14-.79-1.92-.79-.96,0-1.58.48-1.58,1.24,0,.82.74,1.13,1.39,1.4l1.21.52c.98.42,1.74,1,1.74,2.25,0,1.33-1.1,2.39-2.87,2.39-1.2,0-2.22-.48-2.96-1.25Z" fill="#fff"/>
      <path d="m8.17,1.24h1.07v8.43h-1.07V1.24Z" fill="#fff"/>
      <path d="m13.99,2.14h-2.55v-.9h6.18v.9h-2.55v7.54h-1.07V2.14Z" fill="#fff"/>
      <path d="m19.8,1.24h4.87v.9h-3.8v2.65h3.2v.91h-3.2v3.07h3.92v.91h-4.99V1.24Z" fill="#fff"/>
      <path d="m30.52,1.24h2.51c1.71,0,2.9.58,2.9,2.06,0,.84-.45,1.58-1.24,1.83v.06c1.01.2,1.73.86,1.73,2.01,0,1.66-1.31,2.47-3.2,2.47h-2.69V1.24Zm2.32,3.59c1.45,0,2.04-.54,2.04-1.39,0-.99-.68-1.36-1.99-1.36h-1.3v2.75h1.25Zm.22,3.99c1.45,0,2.3-.52,2.3-1.66,0-1.05-.83-1.52-2.3-1.52h-1.47v3.17h1.47Z" fill="#fff"/>
      <path d="m39.96,6.4l-2.53-5.15h1.14l1.08,2.38c.28.62.53,1.21.83,1.84h.05c.3-.63.59-1.22.84-1.84l1.09-2.38h1.1l-2.53,5.15v3.28h-1.07v-3.28Z" fill="#fff"/>
      <path d="m51.41,2.91c-.26.48-.6.97-.96,1.44v6.21h-.83v-5.23c-.41.47-.85.89-1.29,1.23-.08-.18-.31-.63-.46-.83,1.02-.76,2.12-1.94,2.77-3.13l.76.31Zm-.15-2.52c-.67,1-1.76,2.07-2.76,2.74-.1-.18-.31-.53-.46-.69.9-.59,1.91-1.53,2.4-2.35l.82.3Zm6.85,6.16c-.61.49-1.42,1.02-2.06,1.42.64.8,1.47,1.42,2.51,1.78-.2.17-.45.51-.58.74-2.03-.82-3.23-2.57-3.9-4.9h-1.13v3.79l2.02-.5c0,.25.01.6.05.78-2.37.64-2.71.76-2.93.91-.07-.2-.25-.54-.39-.7.17-.09.43-.33.43-.8V.55h5.37v5.03h-2.67c.21.66.48,1.25.82,1.79.62-.4,1.42-.98,1.89-1.43l.58.6Zm-5.15-5.24v1.38h3.72v-1.38h-3.72Zm0,3.52h3.72v-1.43h-3.72v1.43Z" fill="#fff"/>
      <path d="m64.35,3.28c-.03,1.29-.21,2.84-.97,4.36.58.51,1.09.99,1.44,1.39l-.55.71c-.32-.39-.79-.86-1.32-1.36-.51.77-1.21,1.52-2.14,2.2-.13-.18-.43-.46-.6-.59.94-.67,1.62-1.42,2.11-2.17-.61-.54-1.27-1.07-1.85-1.52.23-.75.47-1.77.7-2.84l-.91.05-.09-.82c.33-.01.72-.04,1.15-.05.16-.88.29-1.78.37-2.57l.84.05c-.09.77-.23,1.63-.38,2.48l1.4-.08v-.84h.8v.79l.67-.04v.78s-.67.05-.67.05Zm-2.36.14c-.18.93-.4,1.85-.6,2.6.44.33.9.69,1.33,1.07.63-1.31.78-2.65.81-3.76l-1.54.09Zm8.7,2.3h-2.53v3.82c0,.51-.13.75-.48.89-.36.13-.91.15-1.81.14-.05-.24-.18-.58-.31-.82.68.02,1.31.02,1.48.01.18,0,.25-.06.25-.22v-3.82h-2.66v-.82h2.66v-1.31c.59-.48,1.21-1.23,1.68-1.9h-3.83v-.79h4.42l.2-.05.59.43c-.56.85-1.38,1.82-2.19,2.52v1.1h2.53v.82Z" fill="#fff"/>
      <path d="m76.81,2.7h-4.35v-.7h4.35v.7Zm5.46,2.6c-.42,1.39-1.14,2.47-2.05,3.31.78.53,1.69.92,2.72,1.15-.17.18-.41.53-.53.77-1.08-.29-2.04-.75-2.85-1.37-.85.63-1.82,1.09-2.85,1.4-.08-.22-.24-.52-.39-.71h-2.62v.54h-.75v-3.87h3.39v3.24c.91-.24,1.79-.63,2.57-1.16-.71-.7-1.3-1.56-1.71-2.54l.5-.17h-1v-.81h4.9l.15-.03.54.24Zm-5.94-1.79v.68h-3.38v-.68h3.38Zm-3.38,1.5h3.39v.68h-3.39v-.68Zm2.62,2.24h-1.89v1.9h1.89v-1.9Zm-1.01-5.37c-.17-.41-.54-1.06-.86-1.54l.67-.33c.33.47.7,1.07.89,1.48l-.69.39Zm4.03-.13c0,1.04-.3,2.25-1.67,3.06-.12-.17-.4-.5-.55-.62,1.23-.7,1.43-1.64,1.43-2.46V.46h3.5v2.67c0,.32.02.43.18.43h.68c.15,0,.37-.02.51-.06.01.22.05.54.06.74-.12.05-.35.06-.56.06h-.75c-.75,0-.91-.32-.91-1.18v-1.84h-1.91v.48Zm-.66,4.15c.38.85.93,1.59,1.62,2.2.68-.6,1.24-1.32,1.62-2.2h-3.24Z" fill="#fff"/>
      <path d="m89.57,2.7h-4.73v-.7h4.73v.7Zm-4.22.8h3.74v.68h-3.74v-.68Zm3.7,2.17h-3.7v-.68h3.7v.68Zm.04,4.18h-2.9v.54h-.75v-3.87h3.65v3.32Zm-2.9-2.61v1.9h2.14v-1.9h-2.14Zm.86-5.37c-.16-.41-.53-1.06-.84-1.53l.64-.33c.34.47.71,1.07.89,1.47l-.69.39Zm7.97,2.98h-2.36v5.71h-.86v-5.71h-2.25v-.84h2.25V.26h.86v3.75h2.36v.84Z" fill="#fff"/>
      <path d="m100.2,5.46c0-2.73,1.63-4.38,3.87-4.38,1.17,0,1.94.53,2.43,1.05l-.58.69c-.43-.45-.97-.8-1.83-.8-1.69,0-2.79,1.31-2.79,3.42s1,3.46,2.81,3.46c.61,0,1.2-.18,1.53-.5v-2.21h-1.78v-.89h2.76v3.54c-.54.56-1.47.98-2.61.98-2.22,0-3.8-1.62-3.8-4.36Z" fill="#fff"/>
      <path d="m108.81,5.43c0-2.7,1.48-4.35,3.6-4.35s3.6,1.65,3.6,4.35-1.48,4.39-3.6,4.39-3.6-1.69-3.6-4.39Zm6.11,0c0-2.12-1-3.42-2.51-3.42s-2.51,1.3-2.51,3.42.99,3.46,2.51,3.46,2.51-1.36,2.51-3.46Z" fill="#fff"/>
      <path d="m118.04,5.43c0-2.7,1.48-4.35,3.6-4.35s3.6,1.65,3.6,4.35-1.48,4.39-3.6,4.39-3.6-1.69-3.6-4.39Zm6.11,0c0-2.12-1-3.42-2.51-3.42s-2.51,1.3-2.51,3.42.99,3.46,2.51,3.46,2.51-1.36,2.51-3.46Z" fill="#fff"/>
      <path d="m127.74,1.24h2.12c2.59,0,3.98,1.51,3.98,4.19s-1.39,4.25-3.93,4.25h-2.16V1.24Zm2.03,7.56c1.99,0,2.97-1.24,2.97-3.37s-.98-3.33-2.97-3.33h-.96v6.7h.96Z" fill="#fff"/>
      <path d="m135.72,8.57l.63-.72c.61.63,1.46,1.05,2.33,1.05,1.1,0,1.77-.55,1.77-1.38s-.61-1.14-1.4-1.5l-1.22-.53c-.78-.33-1.71-.93-1.71-2.16,0-1.3,1.13-2.24,2.66-2.24,1,0,1.89.43,2.48,1.05l-.56.68c-.52-.48-1.14-.79-1.92-.79-.96,0-1.58.48-1.58,1.24,0,.82.74,1.13,1.39,1.4l1.21.52c.98.42,1.74,1,1.74,2.25,0,1.33-1.1,2.39-2.87,2.39-1.2,0-2.22-.48-2.96-1.25Z" fill="#fff"/>
      <path d="m147.15,1.24h2.12c2.59,0,3.98,1.51,3.98,4.19s-1.39,4.25-3.93,4.25h-2.16V1.24Zm2.03,7.56c1.99,0,2.97-1.24,2.97-3.37s-.98-3.33-2.97-3.33h-.96v6.7h.96Z" fill="#fff"/>
      <path d="m155.74,1.24h4.87v.9h-3.8v2.65h3.2v.91h-3.2v3.07h3.92v.91h-4.99V1.24Z" fill="#fff"/>
      <path d="m162.59,8.57l.63-.72c.61.63,1.46,1.05,2.33,1.05,1.1,0,1.77-.55,1.77-1.38s-.61-1.14-1.4-1.5l-1.22-.53c-.78-.33-1.71-.93-1.71-2.16,0-1.3,1.13-2.24,2.66-2.24,1,0,1.89.43,2.48,1.05l-.56.68c-.52-.48-1.14-.79-1.92-.79-.96,0-1.58.48-1.58,1.24,0,.82.74,1.13,1.39,1.4l1.21.52c.98.42,1.74,1,1.74,2.25,0,1.33-1.1,2.39-2.87,2.39-1.2,0-2.22-.48-2.96-1.25Z" fill="#fff"/>
      <path d="m170.75,1.24h1.07v8.43h-1.07V1.24Z" fill="#fff"/>
      <path d="m174.33,5.46c0-2.73,1.63-4.38,3.87-4.38,1.17,0,1.94.53,2.43,1.05l-.58.69c-.43-.45-.97-.8-1.83-.8-1.69,0-2.79,1.31-2.79,3.42s1,3.46,2.81,3.46c.61,0,1.2-.18,1.53-.5v-2.21h-1.78v-.89h2.76v3.54c-.54.56-1.47.98-2.61.98-2.22,0-3.8-1.62-3.8-4.36Z" fill="#fff"/>
      <path d="m183.42,1.24h1.1l3.07,5.32.9,1.74h.06c-.06-.85-.14-1.79-.14-2.67V1.24h1.01v8.43h-1.09l-3.07-5.33-.91-1.74h-.05c.05.85.13,1.75.13,2.63v4.43h-1.01V1.24Z" fill="#fff"/>
    </g>
  </g>
</svg>