<?xml version="1.0" encoding="UTF-8"?>
<svg id="b" data-name="圖層 2" xmlns="http://www.w3.org/2000/svg" width="35.71" height="27.11" viewBox="0 0 35.71 27.11">
  <defs>
    <style>
      .d {
        fill: #092a31;
      }
    </style>
  </defs>
  <g id="c" data-name="說明">
    <path class="d" d="M15.44,13.55c0,.13-.26,7.77,2.27,13.56.33-.39.65-.8.94-1.21,2.44-2.93,9.4-11.58,17.05-11.16v-1.19s0-1.19,0-1.19c-7.65.42-14.61-8.23-17.05-11.16-.29-.41-.6-.8-.92-1.19-2.55,5.8-2.29,13.46-2.29,13.55Z"/>
    <path class="d" d="M0,13.55c0,.13-.26,7.77,2.27,13.56.33-.39.65-.8.94-1.21,2.44-2.93,9.4-11.58,17.05-11.16v-1.19s0-1.19,0-1.19C12.62,12.78,5.66,4.13,3.22,1.2c-.29-.41-.6-.8-.92-1.19C-.25,5.81,0,13.47,0,13.55Z"/>
  </g>
</svg>