<?xml version="1.0" encoding="UTF-8"?>
<svg id="_圖層_2" data-name="圖層 2" xmlns="http://www.w3.org/2000/svg" width="131.15" height="13.66" viewBox="0 0 131.15 13.66">
  <g id="icon">
    <path d="m1.26,11.9c-.84-1.18-1.26-2.86-1.26-5.06S.42,2.96,1.26,1.77c.84-1.18,2.09-1.77,3.76-1.77s2.92.59,3.76,1.77c.84,1.18,1.26,2.87,1.26,5.07s-.42,3.88-1.26,5.06c-.84,1.18-2.09,1.76-3.76,1.76s-2.92-.59-3.76-1.76Zm5.37-1.37c.32-.56.48-1.39.48-2.46v-2.47c0-1.08-.16-1.9-.48-2.47-.32-.56-.85-.85-1.61-.85s-1.29.28-1.61.85c-.32.56-.48,1.39-.48,2.47v2.47c0,1.08.16,1.9.48,2.46.32.56.85.85,1.61.85s1.29-.28,1.61-.85Z" fill="#fffbf3"/>
    <path d="m14.1,13.17c-.74-.33-1.3-.79-1.68-1.37s-.58-1.25-.58-1.99c0-.82.23-1.49.69-2.03.46-.54,1.1-.92,1.92-1.15v-.14c-.68-.25-1.22-.63-1.62-1.14-.4-.51-.59-1.13-.59-1.86,0-.68.17-1.29.52-1.81.35-.52.86-.93,1.54-1.22.68-.29,1.48-.44,2.42-.44s1.74.15,2.42.44c.68.29,1.19.7,1.54,1.22.35.52.52,1.12.52,1.81,0,.73-.2,1.35-.59,1.86-.4.51-.94.89-1.62,1.14v.14c.82.23,1.45.61,1.92,1.15.46.54.69,1.22.69,2.03,0,.74-.19,1.41-.58,1.99s-.94,1.04-1.68,1.37c-.74.33-1.61.5-2.62.5s-1.88-.17-2.62-.5Zm4.13-2.04c.36-.31.54-.75.54-1.31v-.38c0-.55-.18-.98-.54-1.3-.36-.31-.86-.47-1.51-.47s-1.15.16-1.51.47c-.36.31-.54.74-.54,1.3v.38c0,.56.18,1,.54,1.31.36.31.86.47,1.51.47s1.15-.16,1.51-.47Zm-.07-5.87c.34-.29.5-.7.5-1.22v-.31c0-.53-.17-.94-.5-1.22-.34-.29-.82-.43-1.44-.43s-1.1.14-1.44.43c-.34.29-.5.7-.5,1.22v.31c0,.53.17.94.5,1.22.34.29.82.43,1.44.43s1.1-.14,1.44-.43Z" fill="#fffbf3"/>
    <path d="m24.66,11.9c-.84-1.18-1.26-2.86-1.26-5.06s.42-3.88,1.26-5.07c.84-1.18,2.09-1.77,3.76-1.77s2.92.59,3.76,1.77c.84,1.18,1.26,2.87,1.26,5.07s-.42,3.88-1.26,5.06c-.84,1.18-2.09,1.76-3.76,1.76s-2.92-.59-3.76-1.76Zm5.37-1.37c.32-.56.48-1.39.48-2.46v-2.47c0-1.08-.16-1.9-.48-2.47-.32-.56-.85-.85-1.61-.85s-1.29.28-1.61.85c-.32.56-.48,1.39-.48,2.47v2.47c0,1.08.16,1.9.48,2.46.32.56.85.85,1.61.85s1.29-.28,1.61-.85Z" fill="#fffbf3"/>
    <path d="m36.36,11.9c-.84-1.18-1.26-2.86-1.26-5.06s.42-3.88,1.26-5.07c.84-1.18,2.09-1.77,3.76-1.77s2.92.59,3.76,1.77c.84,1.18,1.26,2.87,1.26,5.07s-.42,3.88-1.26,5.06c-.84,1.18-2.09,1.76-3.76,1.76s-2.92-.59-3.76-1.76Zm5.37-1.37c.32-.56.48-1.39.48-2.46v-2.47c0-1.08-.16-1.9-.48-2.47-.32-.56-.85-.85-1.61-.85s-1.29.28-1.61.85c-.32.56-.48,1.39-.48,2.47v2.47c0,1.08.16,1.9.48,2.46.32.56.85.85,1.61.85s1.29-.28,1.61-.85Z" fill="#fffbf3"/>
    <path d="m52.74,8.96h-5.56v-2.59h5.56v2.59Z" fill="#fffbf3"/>
    <path d="m55.24,13.43v-2.48l4.1-3.53c.73-.64,1.25-1.19,1.55-1.66.3-.47.45-.98.45-1.53v-.27c0-.5-.18-.9-.54-1.19-.36-.29-.79-.43-1.3-.43-.6,0-1.08.17-1.43.52-.35.35-.6.81-.75,1.39l-2.36-.92c.32-.98.88-1.79,1.68-2.4.8-.62,1.83-.93,3.1-.93.92,0,1.72.17,2.39.5.67.34,1.18.8,1.54,1.4.35.6.53,1.28.53,2.05,0,.71-.15,1.35-.45,1.93-.3.58-.68,1.11-1.15,1.58s-1.09,1.01-1.85,1.62l-2.59,2.07h6.34v2.27h-9.27Z" fill="#fffbf3"/>
    <path d="m66.94,13.43v-2.48l4.1-3.53c.73-.64,1.25-1.19,1.55-1.66.3-.47.45-.98.45-1.53v-.27c0-.5-.18-.9-.54-1.19-.36-.29-.79-.43-1.3-.43-.6,0-1.08.17-1.43.52-.35.35-.6.81-.75,1.39l-2.36-.92c.32-.98.88-1.79,1.68-2.4.8-.62,1.83-.93,3.1-.93.92,0,1.72.17,2.39.5.67.34,1.18.8,1.54,1.4.35.6.53,1.28.53,2.05,0,.71-.15,1.35-.45,1.93-.3.58-.68,1.11-1.15,1.58s-1.09,1.01-1.85,1.62l-2.59,2.07h6.34v2.27h-9.27Z" fill="#fffbf3"/>
    <path d="m88.41,11.25v2.18h-9.13v-2.18h3.56V2.2h-.16l-2.75,3.46-1.71-1.37,3.19-4.05h4.14v11.02h2.86Z" fill="#fffbf3"/>
    <path d="m95.81,8.96h-5.56v-2.59h5.56v2.59Z" fill="#fffbf3"/>
    <path d="m99.23,13.43c1.73-1.22,3.04-2.33,3.92-3.33.89-1,1.46-2.1,1.71-3.31l-.14-.05c-.29.6-.66,1.08-1.12,1.44-.46.36-1.07.54-1.84.54-.72,0-1.37-.17-1.96-.51-.59-.34-1.05-.82-1.39-1.44-.34-.62-.5-1.33-.5-2.15,0-.89.2-1.68.6-2.38.4-.7.97-1.25,1.71-1.64s1.59-.58,2.56-.58c1.02,0,1.9.21,2.63.64.73.43,1.29,1.03,1.68,1.82.39.79.58,1.71.58,2.76,0,1.18-.23,2.29-.68,3.35-.46,1.06-1.04,1.99-1.76,2.81-.72.82-1.48,1.5-2.29,2.05h-3.73Zm5.1-7.33c.37-.37.55-.89.55-1.58v-.29c0-.68-.18-1.21-.55-1.58-.37-.37-.88-.55-1.54-.55s-1.17.18-1.53.55c-.36.37-.54.89-.54,1.58v.29c0,.68.18,1.21.54,1.58.36.37.87.55,1.53.55s1.17-.18,1.54-.55Z" fill="#fffbf3"/>
    <path d="m111.95,13.17c-.74-.33-1.3-.79-1.68-1.37s-.58-1.25-.58-1.99c0-.82.23-1.49.69-2.03.46-.54,1.1-.92,1.92-1.15v-.14c-.68-.25-1.22-.63-1.62-1.14-.4-.51-.59-1.13-.59-1.86,0-.68.17-1.29.52-1.81.35-.52.86-.93,1.54-1.22.68-.29,1.48-.44,2.42-.44s1.74.15,2.42.44c.68.29,1.19.7,1.54,1.22.35.52.52,1.12.52,1.81,0,.73-.2,1.35-.59,1.86-.4.51-.94.89-1.62,1.14v.14c.82.23,1.45.61,1.92,1.15.46.54.69,1.22.69,2.03,0,.74-.19,1.41-.58,1.99s-.94,1.04-1.68,1.37c-.74.33-1.61.5-2.62.5s-1.88-.17-2.62-.5Zm4.13-2.04c.36-.31.54-.75.54-1.31v-.38c0-.55-.18-.98-.54-1.3-.36-.31-.86-.47-1.51-.47s-1.15.16-1.51.47c-.36.31-.54.74-.54,1.3v.38c0,.56.18,1,.54,1.31.36.31.86.47,1.51.47s1.15-.16,1.51-.47Zm-.07-5.87c.34-.29.5-.7.5-1.22v-.31c0-.53-.17-.94-.5-1.22-.34-.29-.82-.43-1.44-.43s-1.1.14-1.44.43c-.34.29-.5.7-.5,1.22v.31c0,.53.17.94.5,1.22.34.29.82.43,1.44.43s1.1-.14,1.44-.43Z" fill="#fffbf3"/>
    <path d="m123.65,13.17c-.74-.33-1.3-.79-1.68-1.37s-.58-1.25-.58-1.99c0-.82.23-1.49.69-2.03.46-.54,1.1-.92,1.92-1.15v-.14c-.68-.25-1.22-.63-1.62-1.14-.4-.51-.59-1.13-.59-1.86,0-.68.17-1.29.52-1.81.35-.52.86-.93,1.54-1.22.68-.29,1.48-.44,2.42-.44s1.74.15,2.42.44c.68.29,1.19.7,1.54,1.22.35.52.52,1.12.52,1.81,0,.73-.2,1.35-.59,1.86-.4.51-.94.89-1.62,1.14v.14c.82.23,1.45.61,1.92,1.15.46.54.69,1.22.69,2.03,0,.74-.19,1.41-.58,1.99s-.94,1.04-1.68,1.37c-.74.33-1.61.5-2.62.5s-1.88-.17-2.62-.5Zm4.13-2.04c.36-.31.54-.75.54-1.31v-.38c0-.55-.18-.98-.54-1.3-.36-.31-.86-.47-1.51-.47s-1.15.16-1.51.47c-.36.31-.54.74-.54,1.3v.38c0,.56.18,1,.54,1.31.36.31.86.47,1.51.47s1.15-.16,1.51-.47Zm-.07-5.87c.34-.29.5-.7.5-1.22v-.31c0-.53-.17-.94-.5-1.22-.34-.29-.82-.43-1.44-.43s-1.1.14-1.44.43c-.34.29-.5.7-.5,1.22v.31c0,.53.17.94.5,1.22.34.29.82.43,1.44.43s1.1-.14,1.44-.43Z" fill="#fffbf3"/>
  </g>
</svg>