<?xml version="1.0" encoding="UTF-8"?>
<svg id="_圖層_2" data-name="圖層 2" xmlns="http://www.w3.org/2000/svg" width="182.02" height="13.66" viewBox="0 0 182.02 13.66">
  <g id="icon">
    <g>
      <path d="m9.49.88v2.3h-3.45v10.17h-2.58V3.17H0V.88h9.49Z" fill="#dee2dd"/>
      <path d="m11.71,12.25c-.79-.88-1.18-2.07-1.18-3.58s.39-2.69,1.16-3.57c.77-.88,1.84-1.33,3.21-1.33.96,0,1.77.21,2.42.64.65.42,1.12,1,1.43,1.72s.46,1.52.46,2.41v.77h-6.07v.17c0,.67.18,1.19.54,1.56.36.37.89.56,1.59.56.51,0,.94-.1,1.3-.31s.71-.5,1.05-.88l1.28,1.53c-.41.51-.95.91-1.62,1.2-.67.29-1.43.43-2.27.43-1.39,0-2.49-.44-3.27-1.32Zm1.42-4.43h3.47v-.17c0-.62-.14-1.12-.43-1.48-.29-.36-.7-.54-1.23-.54s-.98.19-1.31.56c-.33.37-.49.87-.49,1.48v.15Z" fill="#dee2dd"/>
      <path d="m24.64,13.34c-.84,0-1.47-.21-1.88-.63-.41-.42-.62-1.03-.62-1.82V.13h2.52v11.26h1.19v1.96h-1.21Z" fill="#dee2dd"/>
      <path d="m29.07,13.19c-.26-.25-.38-.58-.38-.99v-.34c0-.41.13-.74.38-.99.25-.25.63-.37,1.11-.37s.86.12,1.11.37c.25.25.38.58.38.99v.34c0,.41-.13.74-.38.99-.26.25-.63.37-1.11.37s-.86-.12-1.11-.37Z" fill="#dee2dd"/>
    </g>
    <path d="m52.37,11.9c-.84-1.18-1.26-2.86-1.26-5.06s.42-3.88,1.26-5.07c.84-1.18,2.09-1.77,3.76-1.77s2.92.59,3.76,1.77c.84,1.18,1.26,2.87,1.26,5.07s-.42,3.88-1.26,5.06c-.84,1.18-2.09,1.76-3.76,1.76s-2.92-.59-3.76-1.76Zm5.37-1.37c.32-.56.48-1.39.48-2.46v-2.47c0-1.08-.16-1.9-.48-2.47-.32-.56-.85-.85-1.61-.85s-1.29.28-1.61.85c-.32.56-.48,1.39-.48,2.47v2.47c0,1.08.16,1.9.48,2.46.32.56.85.85,1.61.85s1.29-.28,1.61-.85Z" fill="#fffbf3"/>
    <path d="m71.18,10.87v2.56h-2.57v-2.56h-5.85v-2.3L67.97.23h3.2v8.55h1.69v2.09h-1.69Zm-2.57-7.9h-.18l-3.51,5.81h3.69V2.97Z" fill="#fffbf3"/>
    <path d="m81.89,8.96h-5.56v-2.59h5.56v2.59Z" fill="#fffbf3"/>
    <path d="m85.83,13.43v-2.48l4.1-3.53c.73-.64,1.25-1.19,1.55-1.66.3-.47.45-.98.45-1.53v-.27c0-.5-.18-.9-.54-1.19-.36-.29-.79-.43-1.3-.43-.6,0-1.08.17-1.43.52-.35.35-.6.81-.75,1.39l-2.36-.92c.32-.98.88-1.79,1.68-2.4.8-.62,1.83-.93,3.1-.93.92,0,1.72.17,2.39.5.67.34,1.18.8,1.54,1.4.35.6.53,1.28.53,2.05,0,.71-.15,1.35-.45,1.93-.3.58-.68,1.11-1.15,1.58s-1.09,1.01-1.85,1.62l-2.59,2.07h6.34v2.27h-9.27Z" fill="#fffbf3"/>
    <path d="m97.53,13.43v-2.48l4.1-3.53c.73-.64,1.25-1.19,1.55-1.66.3-.47.45-.98.45-1.53v-.27c0-.5-.18-.9-.54-1.19-.36-.29-.79-.43-1.3-.43-.6,0-1.08.17-1.43.52-.35.35-.6.81-.75,1.39l-2.36-.92c.32-.98.88-1.79,1.68-2.4.8-.62,1.83-.93,3.1-.93.92,0,1.72.17,2.39.5.67.34,1.18.8,1.54,1.4.35.6.53,1.28.53,2.05,0,.71-.15,1.35-.45,1.93-.3.58-.68,1.11-1.15,1.58s-1.09,1.01-1.85,1.62l-2.59,2.07h6.34v2.27h-9.27Z" fill="#fffbf3"/>
    <path d="m117.13,10.87v2.56h-2.57v-2.56h-5.85v-2.3L113.93.23h3.2v8.55h1.69v2.09h-1.69Zm-2.57-7.9h-.18l-3.51,5.81h3.69V2.97Z" fill="#fffbf3"/>
    <path d="m124.76,5.49c.7,0,1.22-.14,1.57-.41.35-.28.52-.64.52-1.1v-.13c0-.5-.16-.91-.49-1.21s-.77-.45-1.35-.45-1.06.14-1.52.41c-.46.28-.85.67-1.16,1.19l-1.71-1.58c.54-.71,1.16-1.25,1.85-1.64.7-.38,1.57-.58,2.63-.58.91,0,1.72.14,2.41.43.7.29,1.23.7,1.61,1.22.38.53.57,1.14.57,1.84,0,.8-.24,1.47-.71,1.99-.47.52-1.07.86-1.79,1v.09c.82.16,1.48.51,1.98,1.05.5.55.76,1.26.76,2.13,0,.78-.21,1.46-.62,2.05-.41.59-1,1.04-1.75,1.37-.75.32-1.61.49-2.58.49-1.21,0-2.19-.23-2.94-.68-.75-.45-1.37-1.06-1.86-1.83l1.98-1.55c.32.6.71,1.06,1.15,1.38.44.32,1,.48,1.67.48s1.19-.17,1.57-.5c.37-.34.56-.79.56-1.37v-.14c0-.55-.2-.97-.61-1.27-.41-.29-.99-.44-1.75-.44h-1.24v-2.25h1.26Z" fill="#fffbf3"/>
    <path d="m145.32,10.87v2.56h-2.57v-2.56h-5.85v-2.3L142.11.23h3.2v8.55h1.69v2.09h-1.69Zm-2.57-7.9h-.18l-3.51,5.81h3.69V2.97Z" fill="#fffbf3"/>
    <path d="m158.89,11.25v2.18h-9.13v-2.18h3.56V2.2h-.16l-2.75,3.46-1.71-1.37,3.19-4.05h4.14v11.02h2.86Z" fill="#fffbf3"/>
    <path d="m168.72,10.87v2.56h-2.57v-2.56h-5.85v-2.3L165.51.23h3.2v8.55h1.69v2.09h-1.69Zm-2.57-7.9h-.18l-3.51,5.81h3.69V2.97Z" fill="#fffbf3"/>
    <path d="m174.51,13.02c-.73-.43-1.29-1.03-1.68-1.82-.39-.79-.58-1.71-.58-2.76,0-1.18.23-2.29.69-3.35.46-1.06,1.05-1.99,1.77-2.81.72-.82,1.49-1.5,2.3-2.05h3.65c-1.72,1.22-3.02,2.33-3.9,3.32-.88.99-1.45,2.1-1.7,3.32l.14.05c.29-.6.66-1.08,1.12-1.44.46-.36,1.07-.54,1.84-.54.72,0,1.37.17,1.96.51.59.34,1.05.82,1.39,1.44.34.62.5,1.34.5,2.15,0,.89-.2,1.68-.6,2.39-.4.7-.97,1.25-1.71,1.64-.74.39-1.59.59-2.56.59-1.02,0-1.9-.21-2.63-.64Zm4.16-2.02c.36-.37.54-.89.54-1.58v-.29c0-.68-.18-1.21-.54-1.58-.36-.37-.87-.55-1.53-.55s-1.17.18-1.54.55c-.37.37-.55.89-.55,1.58v.29c0,.68.18,1.21.55,1.58s.88.55,1.54.55,1.17-.18,1.53-.55Z" fill="#fffbf3"/>
  </g>
</svg>