<?xml version="1.0" encoding="UTF-8"?>
<svg id="_圖層_2" data-name="圖層 2" xmlns="http://www.w3.org/2000/svg" width="1920" height="499.4" xmlns:xlink="http://www.w3.org/1999/xlink" viewBox="0 0 1920 499.4">
  <defs>
    <style>
      .cls-1, .cls-2 {
        fill: none;
      }

      .cls-2 {
        stroke: #092a31;
        stroke-miterlimit: 10;
      }

      .cls-3 {
        clip-path: url(#clippath);
      }
    </style>
    <clipPath id="clippath">
      <rect class="cls-1" width="1920" height="499.4"/>
    </clipPath>
  </defs>
  <g id="icon">
    <g class="cls-3">
      <path class="cls-2" d="M-5257.97,70.46c105.88,9.13,828.24,49.88,741.86,141.98-18.92,20.17-147.26,57.52-143.64,81.65,3.64,24.24,158.51,21.46,262.7,25.7,130.78,5.32,70.29,2.34,567.61,12.85,246.77,5.22,670.1,14.16,671.35-6.8,1.31-22.12-467.96-66.35-465.91-90.58.06-.73.53-1.25.95-1.66,35.55-34.03,614.05-23.19,647.8-36.18.88-.34,3.58-1.38,3.83-3.23,1.58-11.55-95.51-29.93-93.83-42.49.13-.99.83-1.62,1.27-2.02,15.57-14.2,270.68-31.45,269.94-18.9-1.01,17.13-472.08-16.26-483.76-17.18-5.62-.45-10.98-1.58-10.98-1.58-14.39-3.05-25.11-9.25-30.39-12.7-13.23-8.62-12.03-12.73-18.11-13.9-14.25-2.75-21.2,19.73-35.57,23.69-34.6,9.52-69.5-100.14-118.66-97.02-34.3,2.18-77.29,59.36-83.54,67.67-.12.17-.24.32-.44.58,0,0-14.17,18.58-40.76,28.85-54.81,21.16-322.3,13.04-330.55,2.7-.09-.11-.22-.28-.25-.51-.65-5.03,47.95-2.69,80.55-29.38,21.42-17.53,22-36.18,37.06-37.14,15.96-1.02,18.83,19.7,37.03,23.54,29.36,6.18,44.78-42.9,90.47-49.82,32.44-4.91,64.17,13.85,63.47,20.37-.61,5.65-26.35,9.57-29.95,10.12,0,0-5.17.79-9.7,1.05-77.89,4.5-114.02-41.14-114.02-41.14-22.82-28.82-22.08-63.17-21.72-70.95,2.58-55.44,49.61-125.15,125.14-125.14,76.29,0,122.33,71.12,125.14,125.14.52,10.04,3.2,61.6-25.35,81.16-8.74,5.99-33.8,18.15-35.5,29.27-.07.45-.1.93.18,1.32,3.53,4.83,38.06-27.92,75.78-30.88,30.11-2.36,38.83,16.11,72.53,24.21,45.09,10.83,85.84-8.69,106.14-18.41,127.76-61.19,177.62-311.34,207.15-311.23,5.87.02,11.98,1.23,11.98,1.23,13.53,2.68,22.46,8.99,27.22,12.08,11.06,7.16,28.75,12.44,64.13,22.98,10.25,3.05,17.48,4.91,25.71,6.47,13.43,2.56,22.24,2.98,25.19,3.35,32.31,4.14,46.92,91.28,61.49,90.97,22.95-.48,31.53-217.7,75.35-222.52,9.67-1.07,15.23,8.86,38.48,10.58,2.13.16,26.63,1.72,47.71-9.32,41.79-21.9,34.16-74.51,57.08-77.72,20.74-2.9,53.83,36.42,92.61,82.51.31.37,1.07,1.28,2.34,2.04,8.54,5.13,22.6-6.93,30.49-10.21,30.48-12.67,92.75,54.22,85.38,65.03-4.79,7.02-33.97-17.02-64.46-4.19-16.36,6.88-24.99,20.96-29.55,28.73-46.78,79.79-77.9,200.7-108.87,204.38-40.66,4.83-80-192.62-124.85-189.19-38.45,2.94-33.16,149.87-92.88,166.42-64.01,17.74-121.7-136.77-205.26-123.51-67.05,10.64-117.57,124.04-134.1,161.15-18.1,40.62-39.43,106.67-49.61,104.21-1.23-.3-1.91-1.5-2.31-2.22-12.03-21.94,61.32-118.88,104.75-107.78,13.92,3.56,25.54,18.41,61.99,31.75,4.86,1.78,6.75,2.28,8.84,2.65,25.52,4.49,48.71-17.19,60.34-28.35,22.55-21.65,17.44-28.98,28.85-36.04,38.84-24.01,93.11,63.83,162.8,49.27,32.82-6.86,47.81-31.99,103-36.47,7.49-.61,16.51-1.34,28.55-.2,67.05,6.37,87.36,57.64,116.51,47.12,14.6-5.26,42.09-29.86,53.19-49.01.41-.7,1.25-2.19,2.88-2.63,17.63-4.74,71.21,129.8,61.03,135.31-4.27,2.31-22.69-16.48-22.7-16.48h0c-4.95-3.45-60.03-41.22-106.58-47.02-29.88-3.72-51.06,6.36-81.15,17.98-100.34,38.76-186.88,72.19-262.84,50.38-61.24-17.58-62.17-55.72-112.37-53.38-63.8,2.97-126.18,67.56-128.3,68.94,0,0-.04.03-.04.04.03.11,1.6-.19,1.64-.2,109.53-19.59,317.69,9.23,317.69,9.23,28.79,3.99,284.48,39.76,282.75,58.21-.9,9.6-72.85,28.96-111.89,36.29-3.07.58-11.42,2.11-11.78,5.38-1.08,9.71,70.19,17.8,115.86,46.79,16.52,10.49,23.38,14.36,37.11,22.11,4.88,2.75,12.86,7.14,23.22,12.09.3.14,2.26,1.08,4.11,1.93,20.5,9.45,40.39,14.92,40.39,14.92,1.67.46,15.57,4.24,28.02,5.89,8.42,1.12,16.71,1.45,16.71,1.45.86.03,1.41.05,2.08.07,0,0,9.08.29,21.74,1.01,0,0,413.68,23.63,492.3-58.28,0,0,.35-.37.83-.87,0,0,.42-.44.84-.87,64.03-66.04,87.41-56.69,87.41-56.69h0c47.53,19.01,86.89,71.36,125.55,72.13,44.14.88,79.21-65.63,104.33-54.14,2.92,1.33,13.42,7.26,29.48,10.27,0,0,7.09,1.33,13.83,1.63,22.71,1.02,42.93-12.01,52.2-16.06,29.38-12.84,67.01,12.82,86.48,24.19,81.52,47.65,194.98,49.31,421.89,52.63,14.97.22,27.6-.08,43.09-4.19,32.09-8.5,39.35-23.51,79.14-39.65,9.77-3.96,28.09-10.67,51.87-10.67h0c41.43,0,78.88,8.24,87.19-3.67.27-.39.37-.6.42-.72,4.21-9.58-31.2-45.88-67.29-50.91-38.1-5.31-44.08,28.83-95.92,29.73-27.7.48-55.55-8.75-68.71-13.1-12.38-4.1-22.05-7.37-33.93-14.48-15.2-9.11-20.2-16.25-40.92-32.58,0,0-9.19-7.24-29.27-21.09-58.62-40.42-661.75,50.46-663.75,43.5-.03-.1.34-.59,1.08-1.56,3.77-4.95,8.8-7.04,9.68-7.45,13.41-6.19,99.49-100.52,161.32-85.19,33.25,8.24,51.31,46.18,67.58,37.87,8.14-4.16,6.66-15.21,15.7-18.57,15.46-5.75,42.34,18.14,38.97,26.96-4.44,11.65-61.48-3.07-63.16,3.96-.83,3.5,12.03,12.6,27.15,15.13,45.18,7.55,71.1-50.18,107.92-44.15,27.67,4.53,26.1,39.28,48.7,50.19,71.87,34.69,208.27-258.62,375.05-251.55,91.94,3.9,170.23,98.11,159.9,120.82-7.92,17.41-66.06-11.23-157.76-2-136.37,13.72-216.23,98.02-220.08,92.32-5.1-7.55,139.97-147.63,223.61-110.21,13.46,6.02,38.5,22.54,77.89,48.5,36.57,24.11,52.65,36.62,67.05,30.72,20.88-8.55,15.27-46.34,33.21-51.7,13.63-4.07,28.16,14.39,48.62,35.22,91.16,92.82,163.56,93.86,167.11,92.99.14-.03.49-.12.58-.37.88-2.39-21.91-19.02-38.76-17.02-24.44,2.9-25.99,43.77-44.23,46.87-29.23,4.98-42.96-97-97.27-110.38-60.49-14.9-149.93,85.39-147.68,88.61.05.08.16.09.2.1,7.66.93,86.08-39.46,113.96-31.5,30.29,8.65,58.12,90.69,28.48,140.18-62.93,105.05-375.76,48.2-412.54,41.52,0,0-218.77-39.75-290.31,2.27-.42.25-1.73,1.02-1.78,2.12-.28,5.9,36.01,10.9,78.14,20.56,40.41,9.27,68,15.6,67.6,20.55-.67,8.35-80.87,11.77-154.54,4.4,0,0,0,0,0,0-25.91-2.59-114.15-10.59-129.28,10.58-.8,1.11-.99,1.75-1.05,2.33-1.05,11.66,56,20.8,55.37,32.32-.13,2.47-4.76,5.05-14,10.21-15.51,8.66-23.34,9.8-23.83,14.07-.58,4.98,9.31,9.95,11.74,11.13,123.69,59.96,200.09,63,200.09,63,386.83,15.39,341.74-12.83,404.72,3.04,4.11,1.04,79.77,20.17,125.5-9.33,2.68-1.73,18.01-11.62,16.32-20.69-2.58-13.83-42.57-14.2-47.99-35.24-.31-1.2-.47-1.84-.41-2.78.54-8.44,17.86-16.71,80.98-26.74,0,0,115.77-18.4,150.26-43.25.46-.33,1.34-.99,1.32-1.85-.3-12.79-196.27-10.79-197.2-26.47-.28-4.7,17.41-3.77,46.75-17.77,54.74-26.11,104.51-82.47,113.03-102.44.74-1.72,2.29-5.82,6.22-7.76,5.22-2.57,13.01.26,28.38,6.01,4.15,1.55,3.81,1.55,4.32,1.62,14.38,2.02,21.25-32.21,36.43-34.47,20.48-3.05,47.7,53.34,42.21,57.61-2.57,1.99-9.4-9.62-22.55-11.16-20.25-2.38-36.98,21.29-49.9,35.78-48.58,54.53-108.5,52.5-106.35,65.02,4.3,25.02,237.68-2.34,247.61-35.38.06-.2.32-1.1.74-2.45,5.04-16.22,11.84-38.09,23.87-40.46,3.35-.66,5.02.6,8.64-1.06,5.14-2.35,5.67-6.68,8.8-8.56,7.38-4.43,22.76,8.54,23.33,9.01,18.09,15.22,52.58,19.76,99.3,25.92,0,0,51.31,6.76,130.03-5.11,22.12-3.33,36.95-7.83,44.61-10.36,14.21-4.7,14.99-6.38,21.65-8.29,45.78-13.17,138.13,28.89,138.14,28.9h0s0,0,0,0h0s0,0,0,0c0,0,0,0,.01,0,.01,0,18.65-.28,18.92-2.84.26-2.42-16.05-4.21-38.38-15.85-4.1-2.13-6.15-3.22-6.25-4.05-1.99-16.33,233.42-54.68,231.78-64.73-.03-.18-.12-.28-.23-.4-13.58-14.58-98.73-20.76-119.9-29.11-2.17-.86-9.75-4.13-16.39-.91-2.79,1.35-4.14,3.22-5.4,4.51-7.41,7.58-22.14,5.55-27.66,4.95-30.03-3.31-43.99,7.19-127-.16,0,0-15.35-1.36-15.21-2.33.02-.16,111.39-10.07,113.48-10.96,0,0,.01,0,.01-.01,0-.72-166.43,1.14-166.84-6.67-.06-1.1,3.21-1.91,28.22-7.31,66.85-14.42,92.26-19.14,100.19-31.44,1.29-2,5.7-9.76,14.05-11.96,2.26-.6,4.34-.66,6.9-.48,12.43.88,22.25,6.51,22.74,6.79,16.27,9.25,122.2,17.66,200.94-32.57,10.12-6.46,23.76-16.41,41.24-14.38,20.11,2.33,31.29,18.89,42,29.89,38.43,39.52,108.64,46.44,149.9,35.2,57.63-15.7,54.99-65.83,98.41-68.04,42.47-2.16,47.01,45.71,127.88,76.84,38.82,14.94,91.33,24.52,90.83,26.75-.06.28-.92.3-1.19.31-34.59,1.12-157.77,43.33-212.37-3.26-6.73-5.75-23.15-22-42.76-19.56-6.18.77-10.54,3.13-11.81,3.78-39.44,20.07-160.11-57.46-233.16-24.92-13.58,6.05-51.81,27.61-69.46,15.02-2.02-1.44-5.01-4.21-9.98-4.96-13.9-2.1-27.26,14.06-31.44,19.12-2.41,2.91-3.61,4.39-3.47,5.47,1.48,11.37,78.86,10.23,101.48,9.81,0,0,430.48-8.06,458.53,22.49.1.11.24.27.23.49-.29,11.99-408.6,5.59-408.93,17.72-.02.78,1.65,1.39,3.09,1.89,51.47,17.94,151.65,17.98,152.52,25.09.02.12-.55,1.84-1.69,5.28-1.65,5-1.76,4.97-1.71,5.12,1.74,4.89,98.19-38.11,190.72-22.13,21.76,3.76,26.78,7.92,29.15,12.35,20.53,38.41-137.08,137.42-152,142.63-2.84.99-10.82,3.78-11.32,2.72-.07-.16.04-.36.1-.46,2.12-3.47,9.56-10.98,9.72-14.77.25-5.76-16.25-5.64-22.61-17.62-3.44-6.48-1.16-11.29-5.52-14.24-5.26-3.56-11.79,1.28-14.87-1.99-3.04-3.22,2.33-8.98,1.22-15.95-1.99-12.54-24.25-24.63-40.58-18.84-6.34,2.24-14.7,8.21-14.14,14.6.51,5.78,8.24,11.11,10.22,10.39.19-.07.41-.18.41-.18,0,0,1.76-.9,2.41-2.9.78-2.38-4.11-8.38-10.68-9.68-4.65-.92-8.53.84-13.2,2.96-3.65,1.65-7.45,3.38-10.35,6.65-7.51,8.45-.15,17.21-6.8,28.05-4.72,7.7-10.33,6.37-12.69,13.33-2.26,6.63-.26,16.92,6.06,21.13,11.75,7.84,30.24-10.8,43.08-1.99,3.23,2.21,5.47,5.73,8.05,9.77,5.62,8.81,4.85,13.49,9.77,16.95,5.27,3.71,8.99.33,12.77,3.22,9.62,7.32,2.54,42-11.14,44.99-5.08,1.11-9.78-2.43-10.11-2.69-7.6-5.89-7.5-19.77-6.19-20.1,1.56-.39,9.54,16.98,4.99,21.3-2.03,1.93-6.72,1.43-10.15-.62-13.51-8.04-18.07-46.16-18.47-46.38,0,0-.27-.15-.27-.15-2.28-.84-5.78-1.74-9.82-1.1-11.43,1.81-20.8,14.91-18.04,21.2.66,1.5,1.85,2.25,2.45,2.63,5.99,3.8,17.19-1.47,17.43-5.91.12-2.15-2.35-3.89-3.44-4.67-14.85-10.51-123.07-25.52-134.95,6.43-1.89,5.07-4.17,18.92.37,22.65.36.29,1.75,1.34,3.59,2.46,3.47,2.11,6.05,2.96,6.96,3.37,8.4,3.8,7.94,30.54,6.33,30.75-.14.02-.26-.16-.35-.28-3.95-5.42-29.57-24.77-27.22-34.09.02-.06.32-1.16.92-3.35,1.38-5.01,1.56-5.62,1.82-6.64,1.14-4.39,1.71-6.58,1.62-7.59-.63-7.39-14.16-7.83-15.33-15.64-.43-2.85.88-6.15-1.37-10.4-.29-.55-.61-1.15-1.2-1.84-3.88-4.56-11.24-3.25-11.73-3.15-3.58.69-8.4,3.06-8.22,5.39.18,2.31,5.28,4.8,6.99,3.49,4.22-3.21-7.87-32.52-15.44-31.64-7.67.89-13.16,33.03-6.59,36.42,1.66.86,4.41.05,4.92-1.25,1.07-2.77-7.16-10.04-10.84-8.32-1.1.51-1.54,1.71-1.79,2.38-4.12,11.09-9.88,18.08-10.13,28.59-.01.61-.02,1.76.6,2.98,2.15,4.23,9.88,5.32,10.74,3.74.8-1.48-3.4-7.13-7.83-7.39-9.62-.55-20.22,24.43-17.3,26.72.32.25.75.19.97.17,3.24-.41,6.72-9.4,3.41-12.67-1.66-1.64-5.01-1.82-7-1.03-.59.23-2.64,1.17-2.64,1.18,0,0,0,0,0,0,.07,0,.62-3.92.63-3.93,0,0,0,0,0,0,0,0,0,0,0,0,0,0,0,0,0,0,0,0,0,0,0,0,0,0,0,0,0,0h0s-.02-2.52.18-5.73c0,0,.36-5.71.18-5.72h0s-.05-.03-.05-.03c-.05-.01-13.75-6.7-22.15-14.27,0,0-10.78-9.72-13.76-22.66,0-.02,0-.02,0-.03-1.7-7.45,1.52-10.56-.07-14.22-.37-.85-2.27-4.67-2.38-4.88,0,0,0,0,0,0,0,0-.13-.24-.32-.46-.32-.35-8.32-5-8.32-5-5.2.52-8.57,2.09-10.51,3.26-1.13.68-3.6,2.16-3.35,3.51.1.56.65.9.81,1,3.31,2.05,10.42-5.05,10.89-5.85.04-.07.08-.14.08-.14,0,0,.35-.62.61-1.29.31-.77-2.46-20.16-13.73-22.37-9.24-1.82-17.41,9.26-20.03,6.8-1.39-1.3-.64-5.84,1.64-8.32,1.81-1.96,4.52-2.57,4.53-4.28,0-.75-.52-1.32-.79-1.61-4.26-4.5-21.93-2.49-24.8-8.05-.39-.76-1.25-3.1-3.65-4.96,0,0-.68-.53-1.36-.9-5.46-2.94-20.88,10.56-22.86,14.74-.78,1.66-.5,4.08-.48,4.12h0c.04.06.04.12.04.12.02.11,9.22,4.85,10.59,7.05.05.08.1.17.07.25-.31.67-6.18-2.89-10.3-2.58-7.44.55-12.5,13.94-14.95,20.41-1.04,2.76-7.73,20.94-11.19,23.66-.05.04-2.7,2.12-2.7,2.12-.1.05-.24.11-.4.18-.31.15-.54.27-.63.31-.64.33-1,.57-1.09.63h0c-.68.45-1.56,1.4-1.67,1.53-1.12,1.39-.77,16.98-4.98,23.87-.65,1.07-1.19,1.94-2.21,2.85-2.31,2.06-4.35,1.87-6.12,4.03-.71.87-1.01,1.67-1.3,2.45-2.36,6.29.01,16.66-.79,17.37,0,0-.05.04-.12.1-.4.35-.55.51-.97.88-.01.01,0,0,0,0-.64.56-1.38,1.32-1.47,1.41-.94.99-4.6,7.19-7.89,10.72-1.56,1.67-4.33,4.14-5.09,3.6-.8-.57,1.36-3.97,2.72-8.69,1.31-4.55,3.12-14.62-.4-16.83-3.85-2.42-10.84,6.63-20.64,4.73-.98-.19-3.23-.65-3.58-1.96-.51-1.92,3.34-4.73,6.26-6.22,6.69-3.41,10.22-.72,14.86-3.49,3.36-2.01,7.1-6.76,6.54-11.2-1.18-9.31-21.43-18.3-21.25-21.89.01-.23.18-1.82-.49-3.65-.03-.09-.2-.55-.48-1.08-10.56-19.9-19-26.02-19-26.02-8.43-6.1-12.3-3.65-15.79-9.28-3.6-5.8-.66-10.26-4.34-13.66-4.86-4.48-16.75-2.95-19.54,3.05-1.39,2.98-.62,7.29.89,7.71,2.19.62,7.84-6.42,6.73-13.03-.15-.89-.79-4.69-3.53-6.18-1.53-.83-2.78-.43-5.85-1.62,0,0-1.37-.53-3.04-1.49-5.32-3.05-11.84-12.32-17.21-14.56-13.76-5.74-34.7,28.39-36.11,31.75-.14.33-.45,1.07-.17,1.78.62,1.61,3.5,1.26,5.75,2.4,1.2.61,2.95,2.02,4.47,7.2,3.52,11.97.28,25.18,2.64,25.94,1.51.48,4.6-4.3,6.07-8.22.93-2.47,2.26-6.04,1.21-7.06-3.01-2.92-23.54,17.12-68.12,60.13,0,0-1.71,1.65-16.08,30h0s0,0,0,0c0,0,4.38,10.58,4.38,10.59,0,0,0,0,0,0,0,0,0,0,0,0,0,0,.01.01.01.01.02.03,2.38,2.75,1.98,3.46-.25.44-1.44-.14-2.88-.17-2.69-.06-5.54,1.79-6.18,3.44-1.37,3.54,6.21,9.5,7.67,10.65,44.53,35.01,162.68-2.98,162.68-2.98,225.54-72.51,423.1,95.29,547.9-20.38,42.65-39.53,103.72-137.1,168.81-157.19,12.31-3.8,22.21-6.85,35.53-5.38,28.49,3.15,52.67,25.34,66.88,34.5,5.02,3.24,9.49,7.21,13.44,11.68,18.36,20.74,486.9,151.03,1193.57-14.99"/>
    </g>
  </g>
</svg>