<?xml version="1.0" encoding="UTF-8"?>
<svg id="_圖層_2" data-name="圖層 2" xmlns="http://www.w3.org/2000/svg" width="1920" height="1183.59" xmlns:xlink="http://www.w3.org/1999/xlink" viewBox="0 0 1920 1183.59">
  <defs>
    <style>
      .cls-1 {
        stroke: #fff;
        stroke-miterlimit: 10;
      }

      .cls-1, .cls-2 {
        fill: none;
      }

      .cls-3 {
        clip-path: url(#clippath);
      }
    </style>
    <clipPath id="clippath">
      <rect class="cls-2" width="1920" height="1183.59"/>
    </clipPath>
  </defs>
  <g id="icon">
    <g class="cls-3">
      <g>
        <path class="cls-1" d="M-2033.2,238.57c-13.53,2.23-21.81,16.63-23.67,30.22-1.87,13.59.66,27.47-.98,41.08-2.07,17.1-10.58,32.74-20.2,47.04-13.82,20.54-32.96,40.76-57.65,42.63-12.88.98-56.74-5.43-54.95-18.22,4.34-30.97,31.85-55.29,43.12-66.4,32-31.55,61.9-40.41,50.16-41.5-10.24-1.01-34.69,16.86-72.35,58.55-7.82,8.66-28.59,34.02-27.59,72.93,1.53,59.1,4.14,118.18,6.2,177.26.17,4.92.38,10,2.48,14.45,4.42,9.38,15.42,13.2,24.28,18.6,37.78,23.01,50.98,54.48,35.05,65.45-9.53,6.56-6.4-52.51,72.36-94.77,78.76-42.26,193.07-154.64,712.71-73.96,350.09,54.36,820.08,215.09,1178.5,275.43,209.6,35.28,424.71-12.46,600.18-132.41h0c16.92-11.57,26.73-31.02,25.93-51.5-.05-1.37-.1-2.73-.14-4.1-8.93-288.68,223.96-529.4,512.78-529.66,282.83-.25,512.37,228.16,513.95,510.56,1.61,287.46-235.28,521.4-522.69,516.35-168.49-2.96-317.19-87.08-408.68-214.93-32.68-45.68-44.66-103.31-31.16-157.83,2.84-11.46,6.3-20.92,10.47-25.78,29.36-34.19-68.53-39.36-46.22,44.05,13.2,49.35,129.43,108.9,161.78,118.14,17.85,5.1,52.9,15.47,84.57-27.29,31.68-42.76,90.97-128.6,110.46-198.85l9.14-46.83s-68.23,152.2-98.69,179.18c0,0-26.19,19.85-8.53-21.89,0,0,26.8-57.01,29.24-76.86s-43.25-13.74-43.25-13.74c0,0,35.33-54.98,59.09-80.43,23.76-25.45,41.42-50.9,16.45-50.39s-113.31,26.98-113.31,26.98c0,0-33.5,10.69,1.22-19.34,26.6-23.01,107.18-81.86,152.74-111.34,26.64-17.24,24.14-51.77-5.16-65.68-.45-.21-.91-.43-1.38-.64-37.16-16.8-97.47-27.49-97.47-27.49,0,0,48.73,31.56,23.15,61.08-25.59,29.52-132.8,151.69-132.8,151.69,0,0-36.55,54.98,0,57.52,0,0,30.46,6.62,115.74-40.21,0,0,20.71-7.13-7.31,25.45-28.02,32.58-60.92,79.41-60.92,79.41,0,0-19.49,28.51-2.44,37.67,0,0,26.8-3.05,49.95-19.34,0,0,20.71-17.31,10.97,10.18-5.09,14.34-16.81,48.64-28.06,79.32-5.26,14.34,3.32,30.06,18.25,33.33,24.65,5.4,60.53,6.99,84.63-19.36,4.69-5.13,8.15-11.23,10.61-17.73,4.11-10.88,14.27-33.22,33.97-52.18"/>
        <path class="cls-1" d="M2605.07,881.49c-103.75-112.91-300.39-209.78-440.45-268.99-247.2-104.5-533.62-48.99-722.1,142.07-1.79,1.81-3.51,3.58-5.16,5.29-41.19,42.7-91.83,75.4-148.31,93.58-213.58,68.74-354.35-99.33-391.4-113.23-.32-.12-.65-.24-.97-.36-20.5-7.43-42.13,7.85-42.13,29.65v30.69c-1.53,32.63,21.32,94.17,129.15,78.9,107.83-15.27,136.86-146.35,136.86-146.35l5.47,2.12c8.04,3.12,16.3,5.85,24.77,8.03,34.25,8.82,73.23,28.32,113.73,33.88,44.47,6.11,32.29,9.16,32.29,9.16-7.91,5.51-16.13,4.66-20.1,3.76,49.38,13.99,50.56-3.76,50.56-3.76,0-28.51-24.98-43.78-24.98-43.78-38.38-38.69-176.97-50.65-176.97-50.65,1.52-35.38-10.36-82.72-10.36-82.72l24.99-22.22c5.71-5.08,10.91-10.53,15.54-16.32,16.37-20.45,54.11-69.48,49.32-81.08-6.09-14.76-25.59-11.45-37.16-9.42-11.57,2.04-25.28,28.25-25.28,28.25l-53.61,60.57s1.52-6.62-24.67-13.23c-26.19-6.62-70.36,13.23-70.36,13.23,27.41-30.54,133.72-77.88,143.46-89.59,9.75-11.71-9.75-24.94-22.54-24.94s-19.49,1.53-18.28-6.11c1.22-7.64,31.68-25.96,40.82-41.23,9.14-15.27-30.46-23.42-30.46-23.42-8.53-7.13-21.02-21.63-14.62-30.03,6.4-8.4,75.84-7.64,92.29-29.01,16.45-21.38-7.31-33.6-7.31-33.6-42.95-23.67-168.13,32.83-168.13,32.83-31.98,11.45-62.14,9.16-62.14,9.16,0,0,10.66,34.36,36.25,43.01,25.59,8.65,50.56-2.04,50.56-2.04l45.69-13.74-1.22,29.52s-49.95,15.78-92.6,32.91c-42.64,17.13-29.24,28.68-32.33,35.3-3.09,6.62,21.36,34.61,21.36,34.61,0,0-43.25,23.92-72.49,26.98-29.24,3.05-25.59,16.85-23.15,26.98,1.79,7.42,25.59,22.4,37.77,26.47,12.18,4.07,2.44-4.58,26.8-14.25,24.37-9.67,14.62,3.56,14.62,3.56,0,0-72.49,48.87-81.63,72.79-4.57,11.96,1.07,16.29,7.84,17.63,7.47,1.47,15.23-1.17,19.72-6.37,43.37-50.29,100.68-67.5,124.13-73.87,24.37-6.62,46.91,18.83,35.33,45.3-11.57,26.47-46.91,59.05-46.91,59.05,0,0-1.83-24.43-7.92-30.54-4.65-4.66-21.73,1.06-29.55,4.03,1.21-1.33,2.72-3.52,4.58-7.08,6.09-11.71-7.92-17.31-7.92-17.31-27.41-10.18-43.86,8.14-43.86,8.14-7.92,13.74-39.6,51.41-62.75,70.76-3.17,2.64-5.74,5.32-7.82,7.96M971.51,453.29c14.62-11.45,79.5-24.43,79.5-24.43,0,0,8.22,1.53,5.48,5.34-2.74,3.82-73.1,50.39-73.1,50.39,0,0-26.5-19.85-11.88-31.31ZM1071.42,617.96c.3,2.67,2.59,13.49,2.59,13.49-6.4,3.82-23.3,21.89-23.3,21.89,3.96-7.38,20.71-35.38,20.71-35.38ZM1036.39,815.21c-44.05,51.57-93.2,60.32-124.27,41.99-31.07-18.33-35.64-72.56-35.64-93.94s11.88-30.52,11.88-30.52l86.81-59.56c5.48-9.93,10.97,8.4,8.22,23.67-2.74,15.27-30.19,43.52-30.19,43.52,0,0-7.27,9.16-14.58,32.07-7.31,22.91,28.33,24.43,37.53,17.56,9.2-6.87,54.76-96.97,54.76-96.97l49.75,24.69s-2.74,48.87-44.27,97.48ZM1084.31,682.26s-.84,1.12-1.47,1c-7.92-1.54-40.67-4.73-40.67-4.73,2.44-16.29,25.65-27.95,25.65-27.95,4.21-2.76,10.53-1.94,10.53-1.94,0,0,9.41,26.65,5.96,33.61ZM1095.78,574.18s46.3-63.12,57.26-64.65c10.97-1.53,8.02,6.93,0,18.83-2.41,3.58-48.73,63.63-48.73,63.63,0,0-5.48-14.76-8.53-17.82Z"/>
      </g>
    </g>
  </g>
</svg>