<?xml version="1.0" encoding="UTF-8"?>
<svg id="_圖層_2" data-name="圖層 2" xmlns="http://www.w3.org/2000/svg" width="1920" height="499.4" xmlns:xlink="http://www.w3.org/1999/xlink" viewBox="0 0 1920 499.4">
  <defs>
    <style>
      .cls-1, .cls-2 {
        fill: none;
      }

      .cls-2 {
        stroke: #092a31;
        stroke-miterlimit: 10;
      }

      .cls-3 {
        clip-path: url(#clippath);
      }
    </style>
    <clipPath id="clippath">
      <rect class="cls-1" width="1920" height="499.4"/>
    </clipPath>
  </defs>
  <g id="icon">
    <g class="cls-3">
      <path class="cls-2" d="M-371.13,244.14s51.31,6.76,130.03-5.11c22.12-3.33,36.95-7.83,44.61-10.36,14.21-4.7,14.99-6.38,21.65-8.29,45.78-13.17,138.13,28.89,138.14,28.9h0s0,0,0,0h0s0,0,0,0c0,0,0,0,.01,0,.01,0,18.65-.28,18.92-2.84.26-2.42-16.05-4.21-38.38-15.85-4.1-2.13-6.15-3.22-6.25-4.05-1.99-16.33,233.42-54.68,231.78-64.73-.03-.18-.12-.28-.23-.4-13.58-14.58-98.73-20.76-119.9-29.11-2.17-.86-9.75-4.13-16.39-.91-2.79,1.35-4.14,3.22-5.4,4.51-7.41,7.58-22.14,5.55-27.66,4.95-30.03-3.31-43.99,7.19-127-.16,0,0-15.35-1.36-15.21-2.33.02-.16,111.39-10.07,113.48-10.96,0,0,.01,0,.01-.01,0-.72-166.43,1.14-166.84-6.67-.06-1.1,3.21-1.91,28.22-7.31,66.85-14.42,92.26-19.14,100.19-31.44,1.29-2,5.7-9.76,14.05-11.96,2.26-.6,4.34-.66,6.9-.48,12.43.88,22.25,6.51,22.74,6.79,16.27,9.25,122.2,17.66,200.94-32.57,10.12-6.46,23.76-16.41,41.24-14.38,20.11,2.33,31.29,18.89,42,29.89,38.43,39.52,108.64,46.44,149.9,35.2,57.63-15.7,54.99-65.83,98.41-68.04,42.47-2.16,47.01,45.71,127.88,76.84,38.82,14.94,91.33,24.52,90.83,26.75-.06.28-.92.3-1.19.31-34.59,1.12-157.77,43.33-212.37-3.26-6.73-5.75-23.15-22-42.76-19.56-6.18.77-10.54,3.13-11.81,3.78-39.44,20.07-160.11-57.46-233.16-24.92-13.58,6.05-51.81,27.61-69.46,15.02-2.02-1.44-5.01-4.21-9.98-4.96-13.9-2.1-27.26,14.06-31.44,19.12-2.41,2.91-3.61,4.39-3.47,5.47,1.48,11.37,78.86,10.23,101.48,9.81,0,0,430.48-8.06,458.53,22.49.1.11.24.27.23.49-.29,11.99-408.6,5.59-408.93,17.72-.02.78,1.65,1.39,3.09,1.89,51.47,17.94,151.65,17.98,152.52,25.09.02.12-.55,1.84-1.69,5.28-1.65,5-1.76,4.97-1.71,5.12,1.74,4.89,98.19-38.11,190.72-22.13,21.76,3.76,26.78,7.92,29.15,12.35,20.53,38.41-137.08,137.42-152,142.63-2.84.99-10.82,3.78-11.32,2.72-.07-.16.04-.36.1-.46,2.12-3.47,9.56-10.98,9.72-14.77.25-5.76-16.25-5.64-22.61-17.62-3.44-6.48-1.16-11.29-5.52-14.24-5.26-3.56-11.79,1.28-14.87-1.99-3.04-3.22,2.33-8.98,1.22-15.95-1.99-12.54-24.25-24.63-40.58-18.84-6.34,2.24-14.7,8.21-14.14,14.6.51,5.78,8.24,11.11,10.22,10.39.19-.07.41-.18.41-.18,0,0,1.76-.9,2.41-2.9.78-2.38-4.11-8.38-10.68-9.68-4.65-.92-8.53.84-13.2,2.96-3.65,1.65-7.45,3.38-10.35,6.65-7.51,8.45-.15,17.21-6.8,28.05-4.72,7.7-10.33,6.37-12.69,13.33-2.26,6.63-.26,16.92,6.06,21.13,11.75,7.84,30.24-10.8,43.08-1.99,3.23,2.21,5.47,5.73,8.05,9.77,5.62,8.81,4.85,13.49,9.77,16.95,5.27,3.71,8.99.33,12.77,3.22,9.62,7.32,2.54,42-11.14,44.99-5.08,1.11-9.78-2.43-10.11-2.69-7.6-5.89-7.5-19.77-6.19-20.1,1.56-.39,9.54,16.98,4.99,21.3-2.03,1.93-6.72,1.43-10.15-.62-13.51-8.04-18.07-46.16-18.47-46.38,0,0-.27-.15-.27-.15-2.28-.84-5.78-1.74-9.82-1.1-11.43,1.81-20.8,14.91-18.04,21.2.66,1.5,1.85,2.25,2.45,2.63,5.99,3.8,17.19-1.47,17.43-5.91.12-2.15-2.35-3.89-3.44-4.67-14.85-10.51-123.07-25.52-134.95,6.43-1.89,5.07-4.17,18.92.37,22.65.36.29,1.75,1.34,3.59,2.46,3.47,2.11,6.05,2.96,6.96,3.37,8.4,3.8,7.94,30.54,6.33,30.75-.14.02-.26-.16-.35-.28-3.95-5.42-29.57-24.77-27.22-34.09.02-.06.32-1.16.92-3.35,1.38-5.01,1.56-5.62,1.82-6.64,1.14-4.39,1.71-6.58,1.62-7.59-.63-7.39-14.16-7.83-15.33-15.64-.43-2.85.88-6.15-1.37-10.4-.29-.55-.61-1.15-1.2-1.84-3.88-4.56-11.24-3.25-11.73-3.15-3.58.69-8.4,3.06-8.22,5.39.18,2.31,5.28,4.8,6.99,3.49,4.22-3.21-7.87-32.52-15.44-31.64-7.67.89-13.16,33.03-6.59,36.42,1.66.86,4.41.05,4.92-1.25,1.07-2.77-7.16-10.04-10.84-8.32-1.1.51-1.54,1.71-1.79,2.38-4.12,11.09-9.88,18.08-10.13,28.59-.01.61-.02,1.76.6,2.98,2.15,4.23,9.88,5.32,10.74,3.74.8-1.48-3.4-7.13-7.83-7.39-9.62-.55-20.22,24.43-17.3,26.72.32.25.75.19.97.17,3.24-.41,6.72-9.4,3.41-12.67-1.66-1.64-5.01-1.82-7-1.03-.59.23-2.64,1.17-2.64,1.18,0,0,0,0,0,0,.07,0,.62-3.92.63-3.93,0,0,0,0,0,0,0,0,0,0,0,0,0,0,0,0,0,0,0,0,0,0,0,0,0,0,0,0,0,0h0s-.02-2.52.18-5.73c0,0,.36-5.71.18-5.72h0s-.05-.03-.05-.03c-.05-.01-13.75-6.7-22.15-14.27,0,0-10.78-9.72-13.76-22.66,0-.02,0-.02,0-.03-1.7-7.45,1.52-10.56-.07-14.22-.37-.85-2.27-4.67-2.38-4.88,0,0,0,0,0,0,0,0-.13-.24-.32-.46-.32-.35-8.32-5-8.32-5-5.2.52-8.57,2.09-10.51,3.26-1.13.68-3.6,2.16-3.35,3.51.1.56.65.9.81,1,3.31,2.05,10.42-5.05,10.89-5.85.04-.07.08-.14.08-.14,0,0,.35-.62.61-1.29.31-.77-2.46-20.16-13.73-22.37-9.24-1.82-17.41,9.26-20.03,6.8-1.39-1.3-.64-5.84,1.64-8.32,1.81-1.96,4.52-2.57,4.53-4.28,0-.75-.52-1.32-.79-1.61-4.26-4.5-21.93-2.49-24.8-8.05-.39-.76-1.25-3.1-3.65-4.96,0,0-.68-.53-1.36-.9-5.46-2.94-20.88,10.56-22.86,14.74-.78,1.66-.5,4.08-.48,4.12h0c.04.06.04.12.04.12.02.11,9.22,4.85,10.59,7.05.05.08.1.17.07.25-.31.67-6.18-2.89-10.3-2.58-7.44.55-12.5,13.94-14.95,20.41-1.04,2.76-7.73,20.94-11.19,23.66-.05.04-2.7,2.12-2.7,2.12-.1.05-.24.11-.4.18-.31.15-.54.27-.63.31-.64.33-1,.57-1.09.63h0c-.68.45-1.56,1.4-1.67,1.53-1.12,1.39-.77,16.98-4.98,23.87-.65,1.07-1.19,1.94-2.21,2.85-2.31,2.06-4.35,1.87-6.12,4.03-.71.87-1.01,1.67-1.3,2.45-2.36,6.29.01,16.66-.79,17.37,0,0-.05.04-.12.1-.4.35-.55.51-.97.88-.01.01,0,0,0,0-.64.56-1.38,1.32-1.47,1.41-.94.99-4.6,7.19-7.89,10.72-1.56,1.67-4.33,4.14-5.09,3.6-.8-.57,1.36-3.97,2.72-8.69,1.31-4.55,3.12-14.62-.4-16.83-3.85-2.42-10.84,6.63-20.64,4.73-.98-.19-3.23-.65-3.58-1.96-.51-1.92,3.34-4.73,6.26-6.22,6.69-3.41,10.22-.72,14.86-3.49,3.36-2.01,7.1-6.76,6.54-11.2-1.18-9.31-21.43-18.3-21.25-21.89.01-.23.18-1.82-.49-3.65-.03-.09-.2-.55-.48-1.08-10.56-19.9-19-26.02-19-26.02-8.43-6.1-12.3-3.65-15.79-9.28-3.6-5.8-.66-10.26-4.34-13.66-4.86-4.48-16.75-2.95-19.54,3.05-1.39,2.98-.62,7.29.89,7.71,2.19.62,7.84-6.42,6.73-13.03-.15-.89-.79-4.69-3.53-6.18-1.53-.83-2.78-.43-5.85-1.62,0,0-1.37-.53-3.04-1.49-5.32-3.05-11.84-12.32-17.21-14.56-13.76-5.74-34.7,28.39-36.11,31.75-.14.33-.45,1.07-.17,1.78.62,1.61,3.5,1.26,5.75,2.4,1.2.61,2.95,2.02,4.47,7.2,3.52,11.97.28,25.18,2.64,25.94,1.51.48,4.6-4.3,6.07-8.22.93-2.47,2.26-6.04,1.21-7.06-3.01-2.92-23.54,17.12-68.12,60.13,0,0-1.71,1.65-16.08,30h0s0,0,0,0c0,0,4.38,10.58,4.38,10.59,0,0,0,0,0,0,0,0,0,0,0,0,0,0,.01.01.01.01.02.03,2.38,2.75,1.98,3.46-.25.44-1.44-.14-2.88-.17-2.69-.06-5.54,1.79-6.18,3.44-1.37,3.54,6.21,9.5,7.67,10.65,44.53,35.01,162.68-2.98,162.68-2.98,225.54-72.51,423.1,95.29,547.9-20.38,42.65-39.53,103.72-137.1,168.81-157.19,12.31-3.8,22.21-6.85,35.53-5.38,28.49,3.15,52.67,25.34,66.88,34.5,5.02,3.24,9.49,7.21,13.44,11.68,18.36,20.74,486.9,151.03,1193.57-14.99"/>
    </g>
  </g>
</svg>